<svg width="93" height="115" viewBox="0 0 93 115" fill="none" xmlns="http://www.w3.org/2000/svg">
<path d="M68.4863 58.4067C70.7979 58.4067 72.6718 56.5327 72.6718 54.2211C72.6718 51.9096 70.7979 50.0356 68.4863 50.0356C66.1747 50.0356 64.3008 51.9096 64.3008 54.2211C64.3008 56.5327 66.1747 58.4067 68.4863 58.4067Z" fill="#C778FF"/>
<path d="M42.2256 67.9551C45.6154 67.9551 48.3633 65.2072 48.3633 61.8174C48.3633 58.4276 45.6154 55.6797 42.2256 55.6797C38.8358 55.6797 36.0879 58.4276 36.0879 61.8174C36.0879 65.2072 38.8358 67.9551 42.2256 67.9551Z" fill="#C778FF"/>
<path d="M32.4401 56.231C36.1942 52.4769 36.1942 46.3903 32.4401 42.6362C28.686 38.8821 22.5994 38.8821 18.8453 42.6362C15.0912 46.3903 15.0912 52.4769 18.8453 56.231C22.5994 59.9851 28.686 59.9851 32.4401 56.231Z" fill="#C778FF"/>
<path d="M36.2213 40.6965C39.7516 40.6965 42.6135 37.8346 42.6135 34.3043C42.6135 30.774 39.7516 27.9121 36.2213 27.9121C32.691 27.9121 29.8291 30.774 29.8291 34.3043C29.8291 37.8346 32.691 40.6965 36.2213 40.6965Z" fill="#C778FF"/>
<path d="M55.516 37.0657C60.2818 37.0657 64.1453 33.2022 64.1453 28.4364C64.1453 23.6706 60.2818 19.8071 55.516 19.8071C50.7502 19.8071 46.8867 23.6706 46.8867 28.4364C46.8867 33.2022 50.7502 37.0657 55.516 37.0657Z" fill="#C778FF"/>
<path d="M58.2297 74.4494L56.6663 76.3018C56.2731 76.769 55.6496 77.1046 54.928 77.2375C54.2063 77.3704 53.4432 77.2902 52.8 77.0138L51.2673 76.3557C50.8068 76.1218 50.4245 75.8132 50.1495 75.4533C49.8746 75.0935 49.7143 74.6919 49.681 74.2791L49.5239 69.7601C49.508 69.6445 49.4516 69.5338 49.3602 69.4393C49.2688 69.3447 49.1455 69.2695 49.0027 69.2211C48.6129 69.0757 48.1824 69 47.7459 69C47.3094 69 46.8789 69.0757 46.4891 69.2211C46.3453 69.2686 46.2213 69.3435 46.1297 69.4383C46.0381 69.533 45.9822 69.6441 45.9679 69.7601L45.6384 79.1613C45.6116 79.9442 45.1786 80.4038 44.669 80.1882L43.7493 79.7939C43.3014 79.6035 42.909 79.3493 42.5946 79.0459C42.2802 78.7426 42.0502 78.3961 41.9177 78.0266L40.887 75.1898C40.8214 75.0077 40.6609 74.8523 40.4406 74.7579C40.2204 74.6635 39.9585 74.6377 39.7125 74.6862C39.4666 74.7348 39.2568 74.8536 39.1292 75.0167C39.0017 75.1797 38.9668 75.3736 39.0324 75.5557L40.0631 78.3925C40.2608 78.9417 40.6033 79.4566 41.0708 79.9074C41.5384 80.3583 42.1218 80.7362 42.7875 81.0194L44.1593 81.6066C44.9257 81.93 45.5081 82.8264 45.4813 83.6094L44.4352 113.589C44.4352 113.949 44.7571 114.312 45.4008 114.587C46.1248 114.859 46.9248 115 47.7363 115C48.5478 115 49.3479 114.859 50.0718 114.587C50.7155 114.303 51.0412 113.949 51.0374 113.586L49.8266 78.7755C49.7997 77.9925 50.2404 77.5556 50.8113 77.7996L51.8421 78.2421C52.9152 78.7023 54.188 78.8356 55.3914 78.6138C56.5948 78.392 57.6346 77.8325 58.291 77.0535L59.8544 75.2011C59.989 75.0416 60.0326 74.849 59.9755 74.6658C59.9183 74.4825 59.7652 74.3235 59.5498 74.2238C59.3343 74.1241 59.0742 74.0919 58.8266 74.1342C58.5791 74.1765 58.3644 74.2899 58.2297 74.4494Z" fill="#37474F"/>
<path d="M84.0218 30.1185C85.8405 22.278 80.959 14.4477 73.1186 12.629C65.2781 10.8102 57.4478 15.6918 55.6291 23.5322C53.8103 31.3726 58.6919 39.2029 66.5323 41.0217C74.3727 42.8404 82.203 37.9589 84.0218 30.1185Z" fill="#C778FF"/>
<path opacity="0.2" d="M84.4044 26.7229V26.852C84.4072 29.1069 83.8867 31.3316 82.8839 33.3512C81.8811 35.3708 80.4234 37.1302 78.6253 38.4909C76.8273 39.8515 74.7381 40.7764 72.522 41.1928C70.3059 41.6091 68.0234 41.5056 65.8541 40.8902C63.6849 40.2749 61.688 39.1646 60.0206 37.6466C58.3531 36.1287 57.0607 34.2445 56.245 32.1424C55.4292 30.0403 55.1124 27.7775 55.3194 25.5322C55.5264 23.2869 56.2516 21.1202 57.4379 19.2026C56.7876 22.6586 57.4566 26.2328 59.3129 29.2196C61.1692 32.2064 64.0779 34.3886 67.4647 35.3355C70.8514 36.2823 74.4701 35.925 77.6063 34.334C80.7424 32.743 83.1681 30.034 84.4044 26.7419V26.7229Z" fill="black"/>
<path d="M56.1768 31.9228C56.8585 33.7507 57.9003 35.423 59.2404 36.8408C60.5806 38.2585 62.1917 39.3927 63.9783 40.1762C65.7649 40.9597 67.6906 41.3766 69.6413 41.402C71.592 41.4274 73.5279 41.0609 75.3344 40.3242C74.9273 38.3139 74.0427 36.431 72.7552 34.8343C71.4676 33.2377 69.8149 31.9742 67.9365 31.1504C66.058 30.3266 64.009 29.9668 61.9623 30.1012C59.9156 30.2357 57.9313 30.8604 56.1768 31.9228Z" fill="#C778FF"/>
<path opacity="0.1" d="M56.1768 31.9228C56.8585 33.7507 57.9003 35.423 59.2404 36.8408C60.5806 38.2585 62.1917 39.3927 63.9783 40.1762C65.7649 40.9597 67.6906 41.3766 69.6413 41.402C71.592 41.4274 73.5279 41.0609 75.3344 40.3242C74.9273 38.3139 74.0427 36.431 72.7552 34.8343C71.4676 33.2377 69.8149 31.9742 67.9365 31.1504C66.058 30.3266 64.009 29.9668 61.9623 30.1012C59.9156 30.2357 57.9313 30.8604 56.1768 31.9228Z" fill="black"/>
<path d="M70.4911 20.8247C71.8395 20.8247 72.0104 20.8247 72.5307 20.8551C72.8511 20.86 73.1682 20.919 73.4688 21.0298C73.6861 21.1142 73.8834 21.2429 74.0481 21.4077C74.2129 21.5724 74.3416 21.7697 74.426 21.987C74.535 22.2866 74.5928 22.6025 74.5969 22.9213C74.6235 23.453 74.6273 23.6125 74.6273 24.9609C74.6273 26.3092 74.6273 26.4801 74.5969 27.0004C74.5928 27.3193 74.535 27.6351 74.426 27.9348C74.3416 28.152 74.2129 28.3493 74.0481 28.5141C73.8834 28.6789 73.6861 28.8075 73.4688 28.8919C73.1682 29.0027 72.8511 29.0618 72.5307 29.0666C71.999 29.0894 71.8395 29.097 70.4911 29.097C69.1428 29.097 68.9719 29.097 68.4554 29.0666C68.135 29.0622 67.8177 29.0031 67.5172 28.8919C67.2992 28.809 67.1011 28.6808 66.9362 28.5159C66.7712 28.3509 66.643 28.1528 66.5601 27.9348C66.4493 27.6355 66.3902 27.3195 66.3854 27.0004C66.3626 26.4687 66.3588 26.3092 66.3588 24.9609C66.3588 23.6125 66.3588 23.4416 66.3854 22.9213C66.3902 22.6022 66.4493 22.2862 66.5601 21.987C66.643 21.7689 66.7712 21.5708 66.9362 21.4059C67.1011 21.2409 67.2992 21.1128 67.5172 21.0298C67.8177 20.9186 68.135 20.8595 68.4554 20.8551C68.9871 20.8323 69.1466 20.8247 70.4911 20.8247ZM70.4911 19.917C69.1238 19.917 68.9719 19.917 68.4136 19.9474C67.9942 19.9549 67.5792 20.0345 67.1868 20.1829C66.852 20.3122 66.548 20.5102 66.2942 20.7639C66.0404 21.0177 65.8425 21.3218 65.7131 21.6565C65.5669 22.0482 65.4873 22.4616 65.4777 22.8795C65.4549 23.4188 65.4473 23.5898 65.4473 24.9609C65.4473 26.332 65.4473 26.5029 65.4777 27.0422C65.4873 27.4602 65.5669 27.8735 65.7131 28.2652C65.8425 28.6 66.0404 28.904 66.2942 29.1578C66.548 29.4116 66.852 29.6095 67.1868 29.7389C67.5792 29.8872 67.9942 29.9669 68.4136 29.9744C68.9529 29.9971 69.1238 30.0047 70.4911 30.0047C71.8585 30.0047 72.0332 30.0047 72.5725 29.9744C72.9907 29.967 73.4044 29.8873 73.7955 29.7389C74.1332 29.6131 74.4392 29.4148 74.6918 29.1578C74.9467 28.9049 75.1448 28.6006 75.2729 28.2652C75.4195 27.8738 75.4978 27.4601 75.5046 27.0422C75.5312 26.5029 75.535 26.332 75.535 24.9609C75.535 23.5898 75.535 23.4188 75.5046 22.8795C75.4978 22.4616 75.4195 22.048 75.2729 21.6565C75.1434 21.3252 74.9453 21.025 74.6918 20.7754C74.4392 20.5184 74.1332 20.32 73.7955 20.1943C73.4044 20.0458 72.9907 19.9662 72.5725 19.9588C72.0332 19.936 71.8622 19.9284 70.4911 19.9284" fill="white"/>
<path d="M70.4897 22.3709C69.9771 22.3709 69.476 22.523 69.0498 22.808C68.6237 23.0929 68.2917 23.4979 68.0959 23.9717C67.9 24.4454 67.8492 24.9666 67.9497 25.4693C68.0503 25.972 68.2978 26.4335 68.6608 26.7955C69.0238 27.1574 69.4861 27.4035 69.989 27.5026C70.492 27.6017 71.0131 27.5493 71.4862 27.3521C71.9594 27.1549 72.3634 26.8217 72.6472 26.3947C72.9309 25.9678 73.0815 25.4662 73.08 24.9536C73.08 24.2666 72.8071 23.6077 72.3213 23.122C71.8355 22.6362 71.1767 22.3633 70.4897 22.3633M70.4897 26.6361C70.1569 26.6361 69.8316 26.5375 69.5549 26.3526C69.2782 26.1677 69.0626 25.9049 68.9352 25.5975C68.8079 25.29 68.7746 24.9517 68.8395 24.6253C68.9044 24.2989 69.0646 23.9991 69.3 23.7638C69.5353 23.5285 69.8351 23.3683 70.1615 23.3034C70.4878 23.2384 70.8261 23.2718 71.1336 23.3991C71.441 23.5265 71.7038 23.7421 71.8887 24.0188C72.0736 24.2955 72.1723 24.6208 72.1723 24.9536C72.1723 25.3998 71.995 25.8278 71.6795 26.1433C71.3639 26.4589 70.9359 26.6361 70.4897 26.6361Z" fill="white"/>
<path d="M73.7925 22.2675C73.7933 22.3878 73.7583 22.5057 73.692 22.6061C73.6256 22.7066 73.531 22.785 73.42 22.8316C73.3091 22.8782 73.1868 22.8908 73.0686 22.8677C72.9505 22.8447 72.8419 22.7872 72.7565 22.7023C72.6711 22.6175 72.6129 22.5092 72.5891 22.3912C72.5653 22.2732 72.5772 22.1509 72.623 22.0396C72.6689 21.9283 72.7468 21.8332 72.8468 21.7663C72.9468 21.6993 73.0645 21.6636 73.1848 21.6636C73.3453 21.6636 73.4993 21.7271 73.6132 21.8402C73.7271 21.9534 73.7915 22.107 73.7925 22.2675Z" fill="white"/>
<path d="M90.0789 51.4124C91.2821 45.4452 87.4201 39.6324 81.4528 38.4292C75.4856 37.226 69.6728 41.088 68.4696 47.0552C67.2664 53.0225 71.1284 58.8353 77.0956 60.0385C83.0629 61.2417 88.8757 57.3797 90.0789 51.4124Z" fill="#C778FF"/>
<path d="M90.3053 49.1633V49.262C90.3004 50.9622 89.902 52.6382 89.1412 54.1588C88.3805 55.6793 87.278 57.003 85.9203 58.0264C84.5625 59.0497 82.9863 59.7448 81.315 60.0573C79.6438 60.3697 77.9229 60.291 76.2871 59.8274C74.6513 59.3637 73.1451 58.5276 71.8864 57.3847C70.6277 56.2417 69.6506 54.8229 69.0318 53.2393C68.413 51.6557 68.1692 49.9503 68.3195 48.2568C68.4698 46.5632 69.0101 44.9274 69.8981 43.4775C69.7451 44.2109 69.6674 44.9579 69.6664 45.707C69.6671 48.2158 70.5566 50.6432 72.1771 52.5584C73.7975 54.4736 76.0441 55.7528 78.5181 56.1689C80.9921 56.585 83.5336 56.1112 85.6914 54.8315C87.8492 53.5518 89.4839 51.549 90.3053 49.1785V49.1633Z" fill="#C778FF"/>
<path opacity="0.1" d="M90.3053 49.1633V49.262C90.3004 50.9622 89.902 52.6382 89.1412 54.1588C88.3805 55.6793 87.278 57.003 85.9203 58.0264C84.5625 59.0497 82.9863 59.7448 81.315 60.0573C79.6438 60.3697 77.9229 60.291 76.2871 59.8274C74.6513 59.3637 73.1451 58.5276 71.8864 57.3847C70.6277 56.2417 69.6506 54.8229 69.0318 53.2393C68.413 51.6557 68.1692 49.9503 68.3195 48.2568C68.4698 46.5632 69.0101 44.9274 69.8981 43.4775C69.7451 44.2109 69.6674 44.9579 69.6664 45.707C69.6671 48.2158 70.5566 50.6432 72.1771 52.5584C73.7975 54.4736 76.0441 55.7528 78.5181 56.1689C80.9921 56.585 83.5336 56.1112 85.6914 54.8315C87.8492 53.5518 89.4839 51.549 90.3053 49.1785V49.1633Z" fill="black"/>
<path d="M68.2646 49.2614C68.2699 52.0951 69.3709 54.817 71.3373 56.8575C73.7952 54.8188 75.4006 51.9335 75.8372 48.7701C76.2737 45.6066 75.5098 42.3944 73.6959 39.7661C72.042 40.7387 70.6709 42.1264 69.7182 43.7918C68.7656 45.4573 68.2645 47.3427 68.2646 49.2614Z" fill="#C778FF"/>
<path opacity="0.1" d="M68.2646 49.2614C68.2699 52.0951 69.3709 54.817 71.3373 56.8575C73.7952 54.8188 75.4006 51.9335 75.8372 48.7701C76.2737 45.6066 75.5098 42.3944 73.6959 39.7661C72.042 40.7387 70.6709 42.1264 69.7182 43.7918C68.7656 45.4573 68.2645 47.3427 68.2646 49.2614Z" fill="black"/>
<path d="M83.5338 45.6039C82.4741 45.5697 81.7601 46.1698 81.3841 47.3966C81.5609 47.3167 81.7522 47.274 81.9462 47.2713C82.326 47.2713 82.5083 47.4916 82.4627 47.9284C82.374 48.3407 82.1978 48.7293 81.9462 49.0678C81.6272 49.5729 81.3879 49.8274 81.2284 49.8274C81.0688 49.8274 80.8485 49.4476 80.6624 48.6614C80.6055 48.4335 80.5029 47.8486 80.3548 46.9143C80.2181 46.0458 79.8522 45.6394 79.2572 45.6951C78.8235 45.818 78.4303 46.054 78.1177 46.3787C77.7379 46.7092 77.3809 47.0434 77.0049 47.3738L77.3657 47.8372C77.5446 47.6819 77.7456 47.5539 77.962 47.4574C78.2241 47.4574 78.4709 47.8676 78.6988 48.6918L79.3141 50.9478C79.623 51.7733 80.0028 52.1848 80.4535 52.1822C81.1752 52.1822 82.0538 51.5074 83.0894 50.1578C84.1023 48.8665 84.6213 47.8537 84.6466 47.1194C84.6872 46.1369 84.3162 45.6318 83.5338 45.6039Z" fill="white"/>
<path d="M42.2602 30.9013C50.7934 30.9013 57.7109 23.9838 57.7109 15.4507C57.7109 6.9175 50.7934 0 42.2602 0C33.7271 0 26.8096 6.9175 26.8096 15.4507C26.8096 23.9838 33.7271 30.9013 42.2602 30.9013Z" fill="#C778FF"/>
<path opacity="0.5" d="M57.706 15.3375V15.459C57.7048 17.8471 57.15 20.2024 56.0853 22.34C55.0205 24.4775 53.4748 26.3392 51.5694 27.7788C49.664 29.2184 47.4508 30.1967 45.1037 30.637C42.7566 31.0772 40.3393 30.9674 38.0418 30.3161C35.7442 29.6649 33.6289 28.4899 31.8619 26.8835C30.0949 25.277 28.7243 23.2829 27.8578 21.0576C26.9912 18.8323 26.6523 16.4364 26.8676 14.058C27.0829 11.6797 27.8466 9.3836 29.0987 7.3501C28.8797 8.37765 28.769 9.42531 28.7683 10.4759C28.7673 13.9947 30.0135 17.3999 32.2857 20.0867C34.5578 22.7735 37.7087 24.568 41.1787 25.1514C44.6488 25.7348 48.2133 25.0694 51.2391 23.2734C54.265 21.4773 56.5562 18.6669 57.706 15.3413V15.3375Z" fill="#C778FF"/>
<path opacity="0.1" d="M57.706 15.3375V15.459C57.7048 17.8471 57.15 20.2024 56.0853 22.34C55.0205 24.4775 53.4748 26.3392 51.5694 27.7788C49.664 29.2184 47.4508 30.1967 45.1037 30.637C42.7566 31.0772 40.3393 30.9674 38.0418 30.3161C35.7442 29.6649 33.6289 28.4899 31.8619 26.8835C30.0949 25.277 28.7243 23.2829 27.8578 21.0576C26.9912 18.8323 26.6523 16.4364 26.8676 14.058C27.0829 11.6797 27.8466 9.3836 29.0987 7.3501C28.8797 8.37765 28.769 9.42531 28.7683 10.4759C28.7673 13.9947 30.0135 17.3999 32.2857 20.0867C34.5578 22.7735 37.7087 24.568 41.1787 25.1514C44.6488 25.7348 48.2133 25.0694 51.2391 23.2734C54.265 21.4773 56.5562 18.6669 57.706 15.3413V15.3375Z" fill="black"/>
<path d="M55.2613 23.8144C54.2693 21.8122 52.6292 20.2044 50.6077 19.2523C48.5862 18.3003 46.3021 18.06 44.1267 18.5705C41.9514 19.081 40.0126 20.3123 38.6256 22.0642C37.2387 23.8161 36.4851 25.9857 36.4873 28.2202C36.4877 28.7688 36.5347 29.3164 36.6278 29.8571C39.9531 31.1623 43.6283 31.2734 47.0263 30.1714C50.4243 29.0694 53.3348 26.8227 55.2613 23.8144Z" fill="#C778FF"/>
<path opacity="0.1" d="M55.2613 23.8144C54.2693 21.8122 52.6292 20.2044 50.6077 19.2523C48.5862 18.3003 46.3021 18.06 44.1267 18.5705C41.9514 19.081 40.0126 20.3123 38.6256 22.0642C37.2387 23.8161 36.4851 25.9857 36.4873 28.2202C36.4877 28.7688 36.5347 29.3164 36.6278 29.8571C39.9531 31.1623 43.6283 31.2734 47.0263 30.1714C50.4243 29.0694 53.3348 26.8227 55.2613 23.8144Z" fill="black"/>
<path d="M41.048 17.3308H43.2888V11.721H44.8499L45.017 9.84474H43.2888V8.77747C43.2888 8.3331 43.3762 8.15838 43.8054 8.15838H45.017V6.20996H43.4673C41.8 6.20996 41.048 6.94299 41.048 8.34829V9.84474H39.8857V11.7438H41.048V17.3308Z" fill="white"/>
<path d="M36.0281 36.944C37.4202 28.2531 31.5033 20.0793 22.8125 18.6872C14.1216 17.2952 5.94774 23.2121 4.55569 31.9029C3.16364 40.5938 9.0805 48.7676 17.7714 50.1597C26.4623 51.5517 34.6361 45.6349 36.0281 36.944Z" fill="#C778FF"/>
<path opacity="0.7" d="M36.2223 34.3046V34.4261C36.2315 36.8971 35.6665 39.3364 34.572 41.5517C33.4775 43.7671 31.8832 45.6978 29.915 47.1918C27.9468 48.6858 25.6585 49.7021 23.2304 50.1606C20.8024 50.6191 18.301 50.5073 15.9235 49.834C13.546 49.1606 11.3575 47.9442 9.53047 46.2806C7.70342 44.617 6.28782 42.5516 5.39531 40.2475C4.50279 37.9433 4.15776 35.4633 4.38741 33.0031C4.61706 30.5428 5.41511 28.1695 6.71865 26.0703C6.49231 27.1303 6.37774 28.211 6.37682 29.2949C6.37573 32.9239 7.66089 36.4358 10.0041 39.207C12.3472 41.9781 15.5967 43.8291 19.1754 44.4312C22.7541 45.0332 26.4304 44.3474 29.5514 42.4955C32.6723 40.6437 35.0358 37.7456 36.2223 34.316V34.3046Z" fill="#C778FF"/>
<path opacity="0.1" d="M36.2223 34.3046V34.4261C36.2315 36.8971 35.6665 39.3364 34.572 41.5517C33.4775 43.7671 31.8832 45.6978 29.915 47.1918C27.9468 48.6858 25.6585 49.7021 23.2304 50.1606C20.8024 50.6191 18.301 50.5073 15.9235 49.834C13.546 49.1606 11.3575 47.9442 9.53047 46.2806C7.70342 44.617 6.28782 42.5516 5.39531 40.2475C4.50279 37.9433 4.15776 35.4633 4.38741 33.0031C4.61706 30.5428 5.41511 28.1695 6.71865 26.0703C6.49231 27.1303 6.37774 28.211 6.37682 29.2949C6.37573 32.9239 7.66089 36.4358 10.0041 39.207C12.3472 41.9781 15.5967 43.8291 19.1754 44.4312C22.7541 45.0332 26.4304 44.3474 29.5514 42.4955C32.6723 40.6437 35.0358 37.7456 36.2223 34.316V34.3046Z" fill="black"/>
<path d="M12.945 39.7964C10.5465 39.7988 8.23853 40.7125 6.48828 42.3525C8.05627 45.1007 10.4098 47.3175 13.2468 48.7183C16.0838 50.1192 19.2747 50.6403 22.4099 50.2146C22.4403 49.9107 22.4555 49.5993 22.4555 49.2878C22.455 48.04 22.2085 46.8044 21.7302 45.6518C21.2518 44.4993 20.5509 43.4523 19.6677 42.5708C18.7844 41.6893 17.736 40.9905 16.5825 40.5145C15.429 40.0384 14.1929 39.7944 12.945 39.7964Z" fill="#C778FF"/>
<path opacity="0.1" d="M12.945 39.7964C10.5465 39.7988 8.23853 40.7125 6.48828 42.3525C8.05627 45.1007 10.4098 47.3175 13.2468 48.7183C16.0838 50.1192 19.2747 50.6403 22.4099 50.2146C22.4403 49.9107 22.4555 49.5993 22.4555 49.2878C22.455 48.04 22.2085 46.8044 21.7302 45.6518C21.2518 44.4993 20.5509 43.4523 19.6677 42.5708C18.7844 41.6893 17.736 40.9905 16.5825 40.5145C15.429 40.0384 14.1929 39.7944 12.945 39.7964Z" fill="black"/>
<path d="M36.22 34.6079C34.4831 34.7248 32.7938 35.2253 31.2736 36.0735C29.7534 36.9217 28.4403 38.0964 27.4286 39.5131C26.417 40.9297 25.7321 42.5531 25.4232 44.2662C25.1143 45.9794 25.1891 47.7397 25.6423 49.4205C28.7055 48.3247 31.3605 46.3185 33.2511 43.6709C35.1418 41.0233 36.1777 37.861 36.22 34.6079Z" fill="#C778FF"/>
<path opacity="0.1" d="M36.22 34.6079C34.4831 34.7248 32.7938 35.2253 31.2736 36.0735C29.7534 36.9217 28.4403 38.0964 27.4286 39.5131C26.417 40.9297 25.7321 42.5531 25.4232 44.2662C25.1143 45.9794 25.1891 47.7397 25.6423 49.4205C28.7055 48.3247 31.3605 46.3185 33.2511 43.6709C35.1418 41.0233 36.1777 37.861 36.22 34.6079Z" fill="black"/>
<path d="M15.3887 36.234C16.2717 36.7999 17.2933 37.1121 18.3418 37.1365C19.3903 37.1609 20.4254 36.8966 21.3338 36.3724C22.2422 35.8482 22.9889 35.0843 23.4925 34.1643C23.996 33.2443 24.2369 32.2036 24.1889 31.1559C24.5815 30.8704 24.9209 30.5182 25.1916 30.1152C24.8298 30.277 24.4456 30.3833 24.0521 30.4305C24.4722 30.1799 24.7857 29.7839 24.9333 29.3176C24.5392 29.553 24.1075 29.7188 23.6571 29.8076C23.3529 29.4896 22.9529 29.28 22.5183 29.211C22.0836 29.1419 21.6383 29.2172 21.2506 29.4253C20.8628 29.6334 20.5539 29.9629 20.3712 30.3632C20.1885 30.7636 20.142 31.2128 20.2388 31.6421C19.4394 31.6027 18.6571 31.3953 17.9432 31.0334C17.2292 30.6715 16.5995 30.1633 16.0951 29.5417C15.8384 29.9843 15.7596 30.508 15.8745 31.0066C15.9895 31.5052 16.2896 31.9414 16.7142 32.227C16.3945 32.2154 16.0821 32.1282 15.8027 31.9725C15.7976 32.4412 15.956 32.897 16.2506 33.2616C16.5452 33.6262 16.9576 33.8768 17.4169 33.9703C17.1211 34.0523 16.8102 34.0641 16.5091 34.0045C16.6369 34.4048 16.8871 34.755 17.2244 35.0057C17.5616 35.2564 17.969 35.3951 18.3892 35.4022C17.969 35.7325 17.4874 35.9762 16.9723 36.119C16.4573 36.2617 15.919 36.3008 15.3887 36.234Z" fill="white"/>
<path d="M33.9935 71.8434C38.8779 66.9591 38.8779 59.04 33.9935 54.1556C29.1092 49.2713 21.1901 49.2713 16.3058 54.1556C11.4215 59.04 11.4215 66.959 16.3058 71.8434C21.1901 76.7277 29.1092 76.7277 33.9935 71.8434Z" fill="#C778FF"/>
<path opacity="0.3" d="M26.9013 50.6177C26.8312 51.144 26.7957 51.6743 26.7949 52.2053C26.7933 54.0092 27.1981 55.7904 27.9792 57.4165C28.7604 59.0426 29.8978 60.4718 31.3071 61.598C30.6237 62.4309 30.1111 63.3903 29.7986 64.4213C29.486 65.4524 29.3796 66.5349 29.4854 67.6071C29.5912 68.6792 29.9072 69.7201 30.4152 70.6701C30.9233 71.6202 31.6135 72.4609 32.4465 73.1442C34.471 71.6868 36.0134 69.6572 36.8752 67.3163C37.737 64.9753 37.8789 62.4301 37.2826 60.0079C36.6864 57.5857 35.3792 55.3972 33.5292 53.7238C31.6792 52.0505 29.371 50.9687 26.9013 50.6177Z" fill="#C778FF"/>
<path opacity="0.1" d="M26.9013 50.6177C26.8312 51.144 26.7957 51.6743 26.7949 52.2053C26.7933 54.0092 27.1981 55.7904 27.9792 57.4165C28.7604 59.0426 29.8978 60.4718 31.3071 61.598C30.6237 62.4309 30.1111 63.3903 29.7986 64.4213C29.486 65.4524 29.3796 66.5349 29.4854 67.6071C29.5912 68.6792 29.9072 69.7201 30.4152 70.6701C30.9233 71.6202 31.6135 72.4609 32.4465 73.1442C34.471 71.6868 36.0134 69.6572 36.8752 67.3163C37.737 64.9753 37.8789 62.4301 37.2826 60.0079C36.6864 57.5857 35.3792 55.3972 33.5292 53.7238C31.6792 52.0505 29.371 50.9687 26.9013 50.6177Z" fill="black"/>
<path d="M37.6539 62.9047V62.9996C37.6503 64.9311 37.1993 66.8355 36.3364 68.5636C35.4735 70.2916 34.2222 71.7963 32.6804 72.9597C31.1386 74.1231 29.3483 74.9137 27.4498 75.2693C25.5513 75.625 23.5963 75.5361 21.7379 75.0097C19.8795 74.4832 18.1684 73.5335 16.7385 72.235C15.3086 70.9365 14.1989 69.3245 13.4963 67.5253C12.7938 65.7261 12.5175 63.7886 12.6891 61.8648C12.8607 59.9409 13.4756 58.083 14.4855 56.4365C13.8226 59.4442 14.3372 62.5916 15.9234 65.2315C17.5096 67.8715 20.047 69.8035 23.0138 70.6303C25.9806 71.4571 29.1514 71.1159 31.8744 69.6769C34.5974 68.2378 36.6656 65.8103 37.6539 62.8933V62.9047Z" fill="#C778FF"/>
<path d="M37.6539 62.9047V62.9996C37.6503 64.9311 37.1993 66.8355 36.3364 68.5636C35.4735 70.2916 34.2222 71.7963 32.6804 72.9597C31.1386 74.1231 29.3483 74.9137 27.4498 75.2693C25.5513 75.625 23.5963 75.5361 21.7379 75.0097C19.8795 74.4832 18.1684 73.5335 16.7385 72.235C15.3086 70.9365 14.1989 69.3245 13.4963 67.5253C12.7938 65.7261 12.5175 63.7886 12.6891 61.8648C12.8607 59.9409 13.4756 58.083 14.4855 56.4365C13.8226 59.4442 14.3372 62.5916 15.9234 65.2315C17.5096 67.8715 20.047 69.8035 23.0138 70.6303C25.9806 71.4571 29.1514 71.1159 31.8744 69.6769C34.5974 68.2378 36.6656 65.8103 37.6539 62.8933V62.9047Z" fill="#C778FF"/>
<g opacity="0.1">
<path d="M37.6529 62.9057V63.0006C37.6493 64.9321 37.1983 66.8365 36.3355 68.5645C35.4726 70.2926 34.2212 71.7973 32.6794 72.9607C31.1376 74.1241 29.3473 74.9146 27.4488 75.2703C25.5504 75.626 23.5953 75.5371 21.7369 75.0106C19.8786 74.4842 18.1674 73.5345 16.7375 72.236C15.3076 70.9375 14.1979 69.3255 13.4954 67.5263C12.7928 65.7271 12.5165 63.7896 12.6881 61.8658C12.8598 59.9419 13.4746 58.0839 14.4845 56.4375C13.8217 59.4452 14.3362 62.5925 15.9224 65.2325C17.5087 67.8725 20.046 69.8045 23.0128 70.6313C25.9796 71.4581 29.1504 71.1169 31.8734 69.6779C34.5964 68.2388 36.6646 65.8113 37.6529 62.8943V62.9057Z" fill="black"/>
<path d="M37.6529 62.9057V63.0006C37.6493 64.9321 37.1983 66.8365 36.3355 68.5645C35.4726 70.2926 34.2212 71.7973 32.6794 72.9607C31.1376 74.1241 29.3473 74.9146 27.4488 75.2703C25.5504 75.626 23.5953 75.5371 21.7369 75.0106C19.8786 74.4842 18.1674 73.5345 16.7375 72.236C15.3076 70.9375 14.1979 69.3255 13.4954 67.5263C12.7928 65.7271 12.5165 63.7896 12.6881 61.8658C12.8598 59.9419 13.4746 58.0839 14.4845 56.4375C13.8217 59.4452 14.3362 62.5925 15.9224 65.2325C17.5087 67.8725 20.046 69.8045 23.0128 70.6313C25.9796 71.4581 29.1504 71.1169 31.8734 69.6779C34.5964 68.2388 36.6646 65.8113 37.6529 62.8943V62.9057Z" fill="black"/>
</g>
<path d="M22.8471 65.1338C23.0836 65.0873 23.3068 64.9887 23.5004 64.8451C23.7085 64.6816 23.8765 64.4728 23.9917 64.2345C24.1068 63.9963 24.1661 63.7349 24.165 63.4702C24.1736 63.1722 24.0958 62.8781 23.941 62.6233C23.7811 62.3838 23.5458 62.2047 23.2725 62.1143C23.4395 62.0356 23.5892 61.9246 23.7131 61.7877C23.9002 61.5448 23.9944 61.2431 23.9789 60.9369C23.9872 60.6228 23.8955 60.3142 23.7169 60.0557C23.5337 59.8423 23.3026 59.6753 23.0425 59.5684C22.7824 59.4615 22.5007 59.4176 22.2204 59.4405H19.4326V65.2136H22.0305C22.3047 65.2155 22.5784 65.1887 22.8471 65.1338ZM20.5683 60.4432H21.8216C22.0529 60.4367 22.2838 60.4675 22.5053 60.5343C22.6067 60.5783 22.6914 60.6538 22.7467 60.7495C22.8021 60.8452 22.8253 60.9562 22.8129 61.066C22.8237 61.1639 22.8078 61.2628 22.767 61.3524C22.7263 61.4419 22.6621 61.5188 22.5812 61.575C22.3939 61.6763 22.1825 61.7248 21.9697 61.7155H20.5683V60.4432ZM20.5683 64.2109V62.6726H21.9887C22.1844 62.6648 22.3796 62.6972 22.5623 62.7676C22.6827 62.8176 22.7843 62.9044 22.8525 63.0156C22.9207 63.1268 22.952 63.2566 22.9421 63.3867C22.9584 63.5312 22.9309 63.6772 22.8632 63.8059C22.7954 63.9346 22.6906 64.04 22.5623 64.1083C22.3786 64.1854 22.1801 64.2204 21.9811 64.2109H20.5683Z" fill="white"/>
<path d="M25.1417 64.8338C25.5697 65.1836 26.1083 65.3694 26.661 65.3579C26.9572 65.375 27.2536 65.3283 27.5301 65.2208C27.8066 65.1133 28.0568 64.9477 28.2638 64.735C28.4799 64.533 28.6251 64.2666 28.6778 63.9754H27.5383C27.4611 64.1323 27.339 64.2626 27.1875 64.3499C27.036 64.4371 26.862 64.4773 26.6876 64.4654C26.4709 64.4722 26.257 64.4155 26.0723 64.3021C25.9263 64.2034 25.8083 64.0687 25.7298 63.9109C25.6512 63.7532 25.6148 63.5779 25.6241 63.4019H28.7347C28.7434 63.119 28.7308 62.8359 28.6967 62.5549C28.6519 62.2395 28.5363 61.9383 28.3587 61.6738C28.1778 61.3966 27.9206 61.1777 27.6181 61.0433C27.302 60.9056 26.9601 60.837 26.6154 60.842C26.3352 60.8325 26.056 60.8802 25.7948 60.982C25.5337 61.0839 25.2959 61.2378 25.0962 61.4345C24.8899 61.6647 24.7319 61.9338 24.6315 62.2261C24.531 62.5183 24.4901 62.8277 24.5112 63.136C24.4816 63.4483 24.523 63.7631 24.6322 64.0571C24.7413 64.3511 24.9155 64.6166 25.1417 64.8338ZM25.9393 61.9966C26.0274 61.9126 26.1319 61.8476 26.2463 61.8057C26.3607 61.7639 26.4824 61.7461 26.604 61.7535C26.846 61.7454 27.0825 61.8265 27.2687 61.9814C27.3612 62.0682 27.4352 62.1729 27.4861 62.2891C27.537 62.4053 27.5638 62.5306 27.5649 62.6575H25.6431C25.6654 62.4103 25.7697 62.1777 25.9393 61.9966Z" fill="white"/>
<path d="M27.7851 59.7744H25.2783V60.3555H27.7851V59.7744Z" fill="white"/>
<path d="M59.7231 57.0287C66.7795 57.0287 72.4999 51.3083 72.4999 44.2519C72.4999 37.1955 66.7795 31.4751 59.7231 31.4751C52.6667 31.4751 46.9463 37.1955 46.9463 44.2519C46.9463 51.3083 52.6667 57.0287 59.7231 57.0287Z" fill="#C778FF"/>
<path opacity="0.2" d="M72.4969 44.1559V44.2509C72.4962 46.2259 72.0375 48.1739 71.157 49.9418C70.2766 51.7097 68.9982 53.2494 67.4224 54.44C65.8466 55.6306 64.0162 56.4397 62.0751 56.8037C60.1339 57.1677 58.1347 57.0767 56.2346 56.5379C54.3345 55.9992 52.5852 55.0272 51.124 53.6984C49.6628 52.3696 48.5296 50.7202 47.8133 48.8797C47.097 47.0391 46.8171 45.0576 46.9957 43.0906C47.1743 41.1237 47.8064 39.2249 48.8424 37.5435C48.6621 38.3939 48.5705 39.2607 48.5689 40.13C48.568 43.0395 49.5983 45.8551 51.4769 48.0769C53.3554 50.2986 55.9606 51.7827 58.8298 52.2654C61.699 52.7482 64.6464 52.1984 67.1486 50.7137C69.6507 49.229 71.5457 46.9055 72.4969 44.1559Z" fill="black"/>
<path d="M48.7429 37.7183C47.1563 40.3843 46.5943 43.5367 47.1618 46.5868C47.7294 49.6369 49.3876 52.3762 51.8269 54.2932C52.7357 53.0103 53.3778 51.558 53.715 50.0224C54.0523 48.4868 54.0779 46.8991 53.7903 45.3535C53.5027 43.8078 52.9078 42.3356 52.0408 41.0241C51.1737 39.7126 50.0523 38.5884 48.7429 37.7183Z" fill="#C778FF"/>
<path opacity="0.1" d="M48.7429 37.7183C47.1563 40.3843 46.5943 43.5367 47.1618 46.5868C47.7294 49.6369 49.3876 52.3762 51.8269 54.2932C52.7357 53.0103 53.3778 51.558 53.715 50.0224C54.0523 48.4868 54.0779 46.8991 53.7903 45.3535C53.5027 43.8078 52.9078 42.3356 52.0408 41.0241C51.1737 39.7126 50.0523 38.5884 48.7429 37.7183Z" fill="#C778FF"/>
<g opacity="0.1">
<path d="M48.7438 37.7178C47.1573 40.3838 46.5953 43.5362 47.1628 46.5863C47.7303 49.6364 49.3886 52.3757 51.8279 54.2927C52.7367 53.0098 53.3788 51.5575 53.716 50.0219C54.0533 48.4863 54.0789 46.8986 53.7913 45.353C53.5037 43.8073 52.9087 42.3351 52.0417 41.0236C51.1747 39.7121 50.0533 38.5879 48.7438 37.7178Z" fill="black"/>
<path opacity="0.1" d="M48.7438 37.7178C47.1573 40.3838 46.5953 43.5362 47.1628 46.5863C47.7303 49.6364 49.3886 52.3757 51.8279 54.2927C52.7367 53.0098 53.3788 51.5575 53.716 50.0219C54.0533 48.4863 54.0789 46.8986 53.7913 45.353C53.5037 43.8073 52.9087 42.3351 52.0417 41.0236C51.1747 39.7121 50.0533 38.5879 48.7438 37.7178Z" fill="black"/>
</g>
<path d="M58.2552 43.906C58.2855 43.9221 58.3193 43.9308 58.3536 43.9313C58.388 43.9318 58.422 43.9242 58.4528 43.9089C58.4836 43.8937 58.5103 43.8714 58.5308 43.8438C58.5512 43.8162 58.5648 43.7841 58.5705 43.7503C58.6009 43.6401 58.6692 43.3704 58.6996 43.2451C58.7238 43.1848 58.728 43.1183 58.7116 43.0554C58.6952 42.9925 58.659 42.9365 58.6084 42.8957C58.3235 42.5505 58.176 42.1123 58.1945 41.6651C58.1895 41.2617 58.2667 40.8616 58.4214 40.4891C58.5762 40.1166 58.8052 39.7795 59.0945 39.4984C59.3837 39.2172 59.7273 38.998 60.1041 38.854C60.4809 38.71 60.8831 38.6443 61.2861 38.6608C62.9687 38.6608 63.8954 39.6901 63.8954 41.065C63.8954 42.8767 63.094 44.4035 61.9052 44.4035C61.7531 44.4112 61.6012 44.3831 61.462 44.3214C61.3227 44.2596 61.1999 44.1661 61.1035 44.0482C61.007 43.9303 60.9396 43.7914 60.9067 43.6426C60.8737 43.4939 60.8762 43.3395 60.9139 43.1919C61.1038 42.3981 61.4684 41.5398 61.4684 40.9662C61.4831 40.8471 61.472 40.7261 61.436 40.6116C61.4 40.4971 61.3398 40.3916 61.2595 40.3023C61.1792 40.2131 61.0807 40.142 60.9706 40.0941C60.8606 40.0461 60.7415 40.0223 60.6214 40.0243C59.953 40.0243 59.4136 40.7194 59.4136 41.6499C59.4092 41.9909 59.4779 42.3289 59.6149 42.6412L58.8059 46.0595C58.6634 46.8464 58.657 47.6519 58.787 48.4409C58.7896 48.4569 58.7968 48.4718 58.8078 48.4837C58.8188 48.4957 58.8329 48.5042 58.8486 48.5082C58.8643 48.5122 58.8809 48.5116 58.8962 48.5064C58.9116 48.5012 58.9251 48.4916 58.9351 48.4789C59.434 47.8671 59.8199 47.1713 60.0745 46.4241C60.1505 46.1468 60.5151 44.6998 60.5151 44.6998C60.6829 44.9466 60.9099 45.1475 61.1752 45.2841C61.4406 45.4208 61.7359 45.4889 62.0343 45.4822C64.0549 45.4822 65.4222 43.6439 65.4222 41.1827C65.4222 39.3179 63.846 37.5859 61.4494 37.5859C58.4679 37.5859 56.9639 39.7243 56.9639 41.5056C56.9715 42.588 57.3817 43.5641 58.2552 43.906Z" fill="white"/>
<path d="M73.0073 72.5418C77.3117 68.2374 77.3117 61.2587 73.0073 56.9543C68.7029 52.6499 61.7241 52.6499 57.4198 56.9543C53.1154 61.2587 53.1154 68.2374 57.4198 72.5418C61.7241 76.8462 68.7029 76.8462 73.0073 72.5418Z" fill="#C778FF"/>
<path d="M76.2301 64.6663V64.7498C76.2252 66.45 75.8268 68.126 75.066 69.6466C74.3053 71.1671 73.2028 72.4908 71.8451 73.5142C70.4873 74.5375 68.9111 75.2326 67.2398 75.5451C65.5686 75.8575 63.8477 75.7788 62.2119 75.3152C60.5761 74.8515 59.0699 74.0154 57.8112 72.8725C56.5525 71.7295 55.5754 70.3107 54.9566 68.7271C54.3378 67.1435 54.094 65.4381 54.2443 63.7445C54.3946 62.051 54.9349 60.4152 55.8229 58.9653C55.6667 59.6982 55.5878 60.4455 55.5874 61.1948C55.5855 63.7055 56.4739 66.1356 58.0946 68.0531C59.7154 69.9706 61.9635 71.2514 64.4394 71.6677C66.9154 72.0841 69.4587 71.6091 71.6175 70.3272C73.7763 69.0453 75.4106 67.0395 76.2301 64.6663Z" fill="#C778FF"/>
<path opacity="0.2" d="M76.2301 64.6663V64.7498C76.2252 66.45 75.8268 68.126 75.066 69.6466C74.3053 71.1671 73.2028 72.4908 71.8451 73.5142C70.4873 74.5375 68.9111 75.2326 67.2398 75.5451C65.5686 75.8575 63.8477 75.7788 62.2119 75.3152C60.5761 74.8515 59.0699 74.0154 57.8112 72.8725C56.5525 71.7295 55.5754 70.3107 54.9566 68.7271C54.3378 67.1435 54.094 65.4381 54.2443 63.7445C54.3946 62.051 54.9349 60.4152 55.8229 58.9653C55.6667 59.6982 55.5878 60.4455 55.5874 61.1948C55.5855 63.7055 56.4739 66.1356 58.0946 68.0531C59.7154 69.9706 61.9635 71.2514 64.4394 71.6677C66.9154 72.0841 69.4587 71.6091 71.6175 70.3272C73.7763 69.0453 75.4106 67.0395 76.2301 64.6663Z" fill="black"/>
<path d="M54.1866 64.75C54.1784 66.963 54.8405 69.1266 56.0856 70.9561C57.6613 70.4971 59.0845 69.6225 60.2058 68.4241C61.3271 67.2258 62.1053 65.7478 62.4588 64.1451C62.8123 62.5424 62.728 60.8742 62.2148 59.3153C61.7015 57.7564 60.7783 56.3644 59.5419 55.2852C57.9066 56.2645 56.5534 57.6516 55.6147 59.3106C54.676 60.9696 54.1839 62.8438 54.1866 64.75Z" fill="#C778FF"/>
<path opacity="0.1" d="M54.1866 64.75C54.1784 66.963 54.8405 69.1266 56.0856 70.9561C57.6613 70.4971 59.0845 69.6225 60.2058 68.4241C61.3271 67.2258 62.1053 65.7478 62.4588 64.1451C62.8123 62.5424 62.728 60.8742 62.2148 59.3153C61.7015 57.7564 60.7783 56.3644 59.5419 55.2852C57.9066 56.2645 56.5534 57.6516 55.6147 59.3106C54.676 60.9696 54.1839 62.8438 54.1866 64.75Z" fill="black"/>
<path d="M65.9333 62.3379H64.4482V67.1387H65.9333V62.3379Z" fill="white"/>
<path d="M65.1811 61.7113C65.3564 61.7128 65.5282 61.6622 65.6748 61.5659C65.8213 61.4695 65.9359 61.3319 66.0041 61.1703C66.0722 61.0087 66.0908 60.8306 66.0575 60.6584C66.0243 60.4862 65.9406 60.3278 65.8171 60.2033C65.6937 60.0788 65.536 59.9937 65.3641 59.959C65.1923 59.9242 65.0139 59.9413 64.8518 60.008C64.6896 60.0748 64.551 60.1882 64.4534 60.3339C64.3558 60.4796 64.3037 60.651 64.3037 60.8263C64.3037 61.0597 64.3959 61.2837 64.5602 61.4494C64.7245 61.6152 64.9477 61.7093 65.1811 61.7113Z" fill="white"/>
<path d="M68.3003 64.6212C68.3003 63.9451 68.6117 63.5425 69.208 63.5425C69.8043 63.5425 70.0132 63.9223 70.0132 64.6212V67.1393H71.4945V64.1009C71.4945 62.8171 70.7652 62.2018 69.7473 62.2018C69.4581 62.1979 69.1728 62.269 68.9192 62.4081C68.6656 62.5472 68.4524 62.7496 68.3003 62.9956V62.3461H66.876V67.1469H68.3003V64.6212Z" fill="white"/>
<path d="M52.62 69.5541C57.3565 69.5541 61.1961 65.7144 61.1961 60.978C61.1961 56.2415 57.3565 52.4019 52.62 52.4019C47.8836 52.4019 44.0439 56.2415 44.0439 60.978C44.0439 65.7144 47.8836 69.5541 52.62 69.5541Z" fill="#C778FF"/>
<path d="M61.1961 60.9137V60.9783C61.1953 62.3037 60.8872 63.6108 60.2961 64.7971C59.705 65.9834 58.847 67.0166 57.7895 67.8155C56.7319 68.6144 55.5036 69.1573 54.2009 69.4017C52.8982 69.646 51.5567 69.585 50.2815 69.2236C49.0063 68.8622 47.8323 68.2102 46.8515 67.3186C45.8707 66.4271 45.1099 65.3205 44.6289 64.0855C44.1478 62.8505 43.9595 61.5207 44.0787 60.2007C44.198 58.8807 44.6216 57.6063 45.3163 56.4775C45.1951 57.0482 45.134 57.6299 45.134 58.2133C45.1379 60.1639 45.8319 62.0502 47.0932 63.5383C48.3544 65.0263 50.1016 66.02 52.0252 66.3434C53.9488 66.6668 55.9249 66.299 57.6034 65.3053C59.2819 64.3115 60.5546 62.7558 61.1961 60.9137Z" fill="#C778FF"/>
<path opacity="0.2" d="M61.1961 60.9137V60.9783C61.1953 62.3037 60.8872 63.6108 60.2961 64.7971C59.705 65.9834 58.847 67.0166 57.7895 67.8155C56.7319 68.6144 55.5036 69.1573 54.2009 69.4017C52.8982 69.646 51.5567 69.585 50.2815 69.2236C49.0063 68.8622 47.8323 68.2102 46.8515 67.3186C45.8707 66.4271 45.1099 65.3205 44.6289 64.0855C44.1478 62.8505 43.9595 61.5207 44.0787 60.2007C44.198 58.8807 44.6216 57.6063 45.3163 56.4775C45.1951 57.0482 45.134 57.6299 45.134 58.2133C45.1379 60.1639 45.8319 62.0502 47.0932 63.5383C48.3544 65.0263 50.1016 66.02 52.0252 66.3434C53.9488 66.6668 55.9249 66.299 57.6034 65.3053C59.2819 64.3115 60.5546 62.7558 61.1961 60.9137Z" fill="black"/>
<path d="M48.5 58.0876L50.5624 59.3979L52.6209 58.0876L50.5624 56.7734L48.5 58.0876Z" fill="white"/>
<path d="M52.6182 58.0876L54.6805 59.3979L56.7429 58.0876L54.6805 56.7734L52.6182 58.0876Z" fill="white"/>
<path d="M48.5 60.694L50.5624 62.0082L52.6209 60.694L50.5624 59.3799L48.5 60.694Z" fill="white"/>
<path d="M54.6805 59.3799L52.6182 60.694L54.6805 62.0082L56.7429 60.694L54.6805 59.3799Z" fill="white"/>
<path d="M50.5752 62.4407L52.6376 63.7549L54.6961 62.4407L52.6376 61.1304L50.5752 62.4407Z" fill="white"/>
<path d="M47.8184 56.555C52.4106 51.9629 52.4106 44.5176 47.8184 39.9254C43.2263 35.3333 35.781 35.3333 31.1888 39.9254C26.5967 44.5176 26.5967 51.9629 31.1888 56.555C35.781 61.1472 43.2263 61.1472 47.8184 56.555Z" fill="#C778FF"/>
<path opacity="0.7" d="M51.262 48.1524V48.2398C51.2695 50.0642 50.853 51.8655 50.0452 53.5014C49.2374 55.1373 48.0605 56.5631 46.6073 57.6663C45.1541 58.7695 43.4645 59.5199 41.6717 59.8583C39.8788 60.1967 38.0319 60.1138 36.2766 59.6161C34.5213 59.1185 32.9057 58.2198 31.5572 56.9909C30.2087 55.7619 29.1642 54.2364 28.5062 52.5347C27.8482 50.833 27.5947 49.0017 27.7657 47.1853C27.9366 45.3688 28.5274 43.6169 29.4913 42.0679C28.885 44.8879 29.3778 47.833 30.8692 50.302C32.3606 52.7709 34.7382 54.5776 37.5164 55.3531C40.2947 56.1286 43.2641 55.8145 45.8187 54.4749C48.3732 53.1353 50.3201 50.8712 51.262 48.1448V48.1524Z" fill="#C778FF"/>
<g opacity="0.1">
<path opacity="0.7" d="M51.261 48.1519V48.2393C51.2685 50.0638 50.852 51.865 50.0442 53.5009C49.2364 55.1368 48.0595 56.5626 46.6063 57.6658C45.1532 58.769 43.4635 59.5194 41.6707 59.8578C39.8779 60.1962 38.0309 60.1133 36.2756 59.6157C34.5203 59.118 32.9047 58.2193 31.5562 56.9904C30.2077 55.7614 29.1632 54.2359 28.5053 52.5342C27.8473 50.8325 27.5937 49.0012 27.7647 47.1848C27.9356 45.3683 28.5264 43.6164 29.4903 42.0674C28.884 44.8874 29.3768 47.8325 30.8682 50.3015C32.3597 52.7704 34.7372 54.5771 37.5154 55.3526C40.2937 56.1281 43.2632 55.814 45.8177 54.4744C48.3722 53.1348 50.3191 50.8707 51.261 48.1443V48.1519Z" fill="black"/>
</g>
<path d="M39.7673 42.2349C38.703 42.2319 37.6617 42.5447 36.7753 43.1339C35.8889 43.723 35.1972 44.5619 34.7878 45.5443C34.3784 46.5268 34.2697 47.6086 34.4755 48.6529C34.6813 49.6971 35.1923 50.6568 35.9439 51.4105C36.6954 52.1641 37.6537 52.6779 38.6973 52.8866C39.741 53.0954 40.8231 52.9898 41.8067 52.5831C42.7903 52.1765 43.6312 51.4872 44.2228 50.6025C44.8144 49.7177 45.1302 48.6773 45.1302 47.613C45.1302 46.1893 44.5657 44.8236 43.5604 43.8155C42.5551 42.8073 41.1911 42.2389 39.7673 42.2349ZM42.2399 50.021C42.2184 50.0595 42.1893 50.0931 42.1542 50.1197C42.1191 50.1464 42.0789 50.1655 42.0361 50.1758C41.9933 50.1862 41.9488 50.1876 41.9054 50.1799C41.8621 50.1722 41.8208 50.1556 41.7841 50.1311C40.5193 49.3487 38.9355 49.1892 37.0517 49.6184C36.9667 49.6382 36.8773 49.6244 36.8022 49.5798C36.7272 49.5352 36.6723 49.4633 36.6491 49.3791C36.6291 49.2936 36.6429 49.2037 36.6874 49.128C36.732 49.0524 36.8039 48.9968 36.8884 48.9727C38.9355 48.5169 40.7092 48.7068 42.1069 49.5652C42.1473 49.5846 42.1831 49.6123 42.2121 49.6464C42.2411 49.6806 42.2625 49.7205 42.2751 49.7635C42.2876 49.8064 42.291 49.8516 42.2849 49.896C42.2788 49.9403 42.2635 49.9829 42.2399 50.021ZM42.8856 48.5435C42.8605 48.5924 42.8251 48.6352 42.7819 48.669C42.7386 48.7029 42.6886 48.7269 42.6351 48.7396C42.5817 48.7522 42.5262 48.7531 42.4724 48.7422C42.4186 48.7313 42.3677 48.7089 42.3234 48.6765C41.5167 48.2244 40.6282 47.9371 39.7095 47.8315C38.7907 47.7259 37.8602 47.804 36.9719 48.0612C36.9197 48.0804 36.8641 48.0888 36.8085 48.0859C36.753 48.0829 36.6986 48.0687 36.6487 48.0441C36.5988 48.0195 36.5544 47.9849 36.5183 47.9426C36.4821 47.9003 36.455 47.8511 36.4385 47.7979C36.422 47.7448 36.4164 47.6888 36.4222 47.6335C36.428 47.5782 36.445 47.5246 36.4722 47.476C36.4993 47.4274 36.5361 47.3849 36.5802 47.351C36.6244 47.3171 36.6749 47.2925 36.7288 47.2788C37.735 46.992 38.7882 46.9085 39.827 47.033C40.8658 47.1576 41.8694 47.4877 42.7792 48.0042C42.8625 48.0599 42.9204 48.1462 42.9403 48.2444C42.9602 48.3425 42.9405 48.4446 42.8856 48.5283V48.5435ZM42.9387 47.0243C41.2182 46.0026 38.343 45.8849 36.7023 46.4052C36.6404 46.4254 36.5752 46.4332 36.5103 46.4282C36.4454 46.4232 36.3822 46.4055 36.3242 46.376C36.2662 46.3466 36.2145 46.306 36.1722 46.2566C36.1299 46.2072 36.0977 46.1499 36.0775 46.0881C36.0573 46.0262 36.0495 45.961 36.0545 45.8961C36.0595 45.8312 36.0772 45.768 36.1066 45.71C36.1361 45.652 36.1767 45.6003 36.2261 45.558C36.2755 45.5157 36.3328 45.4835 36.3946 45.4633C38.2937 44.8974 41.4499 45.0075 43.4401 46.1887C43.5563 46.2577 43.6411 46.3692 43.6766 46.4997C43.712 46.6301 43.6953 46.7692 43.63 46.8876C43.5468 46.9846 43.4334 47.0508 43.308 47.0756C43.1827 47.1004 43.0526 47.0823 42.9387 47.0243Z" fill="white"/>
<path d="M39.1731 75.7338C43.6012 75.7338 47.1908 72.1441 47.1908 67.716C47.1908 63.2879 43.6012 59.6982 39.1731 59.6982C34.745 59.6982 31.1553 63.2879 31.1553 67.716C31.1553 72.1441 34.745 75.7338 39.1731 75.7338Z" fill="#C778FF"/>
<path d="M47.1908 67.6553V67.7161C47.1907 68.9557 46.9031 70.1783 46.3508 71.288C45.7984 72.3976 44.9963 73.3641 44.0074 74.1115C43.0186 74.8589 41.8699 75.3669 40.6516 75.5954C39.4333 75.824 38.1786 75.767 36.986 75.4289C35.7935 75.0908 34.6956 74.4808 33.7786 73.6468C32.8615 72.8128 32.1504 71.7776 31.7009 70.6224C31.2515 69.4672 31.076 68.2235 31.1882 66.9891C31.3005 65.7546 31.6974 64.563 32.3479 63.5078C32.2346 64.041 32.1773 64.5845 32.177 65.1296C32.18 66.9532 32.8283 68.7169 34.0071 70.1083C35.1859 71.4997 36.8192 72.4289 38.6175 72.7315C40.4159 73.034 42.2632 72.6903 43.8324 71.7612C45.4016 70.8321 46.5913 69.3776 47.1908 67.6553Z" fill="#C778FF"/>
<path opacity="0.2" d="M47.1908 67.6553V67.7161C47.1907 68.9557 46.9031 70.1783 46.3508 71.288C45.7984 72.3976 44.9963 73.3641 44.0074 74.1115C43.0186 74.8589 41.8699 75.3669 40.6516 75.5954C39.4333 75.824 38.1786 75.767 36.986 75.4289C35.7935 75.0908 34.6956 74.4808 33.7786 73.6468C32.8615 72.8128 32.1504 71.7776 31.7009 70.6224C31.2515 69.4672 31.076 68.2235 31.1882 66.9891C31.3005 65.7546 31.6974 64.563 32.3479 63.5078C32.2346 64.041 32.1773 64.5845 32.177 65.1296C32.18 66.9532 32.8283 68.7169 34.0071 70.1083C35.1859 71.4997 36.8192 72.4289 38.6175 72.7315C40.4159 73.034 42.2632 72.6903 43.8324 71.7612C45.4016 70.8321 46.5913 69.3776 47.1908 67.6553Z" fill="#C778FF"/>
<g opacity="0.1">
<path d="M47.1899 67.6553V67.7161C47.1897 68.9557 46.9022 70.1783 46.3498 71.288C45.7975 72.3976 44.9953 73.3641 44.0065 74.1115C43.0176 74.8589 41.8689 75.3669 40.6506 75.5954C39.4323 75.824 38.1776 75.767 36.9851 75.4289C35.7925 75.0908 34.6946 74.4808 33.7776 73.6468C32.8606 72.8128 32.1494 71.7776 31.6999 70.6224C31.2505 69.4672 31.075 68.2235 31.1872 66.9891C31.2995 65.7546 31.6964 64.563 32.3469 63.5078C32.2336 64.041 32.1763 64.5845 32.176 65.1296C32.179 66.9532 32.8273 68.7169 34.0061 70.1083C35.185 71.4997 36.8182 72.4289 38.6165 72.7315C40.4149 73.034 42.2623 72.6903 43.8315 71.7612C45.4006 70.8321 46.5904 69.3776 47.1899 67.6553Z" fill="black"/>
<path opacity="0.2" d="M47.1899 67.6553V67.7161C47.1897 68.9557 46.9022 70.1783 46.3498 71.288C45.7975 72.3976 44.9953 73.3641 44.0065 74.1115C43.0176 74.8589 41.8689 75.3669 40.6506 75.5954C39.4323 75.824 38.1776 75.767 36.9851 75.4289C35.7925 75.0908 34.6946 74.4808 33.7776 73.6468C32.8606 72.8128 32.1494 71.7776 31.6999 70.6224C31.2505 69.4672 31.075 68.2235 31.1872 66.9891C31.2995 65.7546 31.6964 64.563 32.3469 63.5078C32.2336 64.041 32.1763 64.5845 32.176 65.1296C32.179 66.9532 32.8273 68.7169 34.0061 70.1083C35.185 71.4997 36.8182 72.4289 38.6165 72.7315C40.4149 73.034 42.2623 72.6903 43.8315 71.7612C45.4006 70.8321 46.5904 69.3776 47.1899 67.6553Z" fill="black"/>
</g>
<path d="M35.9432 67.1118C35.9427 67.5848 36.0355 68.0532 36.2162 68.4903C36.397 68.9273 36.6622 69.3245 36.9966 69.6589C37.3311 69.9934 37.7282 70.2586 38.1653 70.4393C38.6023 70.6201 39.0708 70.7129 39.5438 70.7124C39.7694 70.7123 39.9945 70.6907 40.216 70.6478C40.5348 70.8404 40.8991 70.9448 41.2715 70.9503C41.6439 70.9558 42.0111 70.8621 42.3354 70.6789C42.6597 70.4957 42.9294 70.2295 43.117 69.9077C43.3045 69.5859 43.4031 69.22 43.4026 68.8475C43.4044 68.4567 43.2951 68.0734 43.0874 67.7423C43.1239 67.5341 43.1429 67.3232 43.1444 67.1118C43.1433 66.1572 42.7637 65.2419 42.0886 64.5669C41.4136 63.8919 40.4984 63.5122 39.5438 63.5112C39.3206 63.5114 39.0981 63.533 38.8791 63.5758C38.4768 63.3403 38.0076 63.2453 37.5453 63.3059C37.0831 63.3664 36.6542 63.579 36.3261 63.9101C35.998 64.2413 35.7894 64.6722 35.7331 65.1349C35.6769 65.5977 35.7761 66.066 36.0153 66.4661C35.9716 66.6787 35.9475 66.8948 35.9432 67.1118ZM39.5817 64.5557C40.744 64.624 41.4238 65.133 41.4808 65.6115C41.491 65.6851 41.4843 65.76 41.4613 65.8306C41.4382 65.9012 41.3995 65.9656 41.3479 66.019C41.2963 66.0725 41.2332 66.1134 41.1635 66.1389C41.0937 66.1644 41.0191 66.1737 40.9453 66.1661C40.4211 66.1661 40.3679 65.4634 39.464 65.4634C39.0576 65.4634 38.7044 65.6343 38.7044 66.0027C38.7044 66.7624 41.6023 66.3256 41.6023 68.0157C41.6023 68.9918 40.8199 69.6299 39.6539 69.6299C38.6284 69.6299 37.5991 69.1666 37.6029 68.3652C37.5997 68.2484 37.6418 68.135 37.7204 68.0486C37.799 67.9622 37.908 67.9096 38.0245 67.9018C38.6284 67.9018 38.6246 68.8019 39.5855 68.8019C40.2616 68.8019 40.4895 68.4221 40.4895 68.1753C40.4895 67.2485 37.5763 67.8182 37.5763 66.0749C37.5915 65.1254 38.3663 64.4759 39.5817 64.5481V64.5557Z" fill="white"/>
<path d="M20.6436 52.6115C21.8352 47.5068 18.6631 42.4026 13.5583 41.2109C8.45361 40.0192 3.34937 43.1914 2.1577 48.2961C0.966035 53.4009 4.1382 58.5051 9.24293 59.6968C14.3477 60.8884 19.4519 57.7163 20.6436 52.6115Z" fill="#C778FF"/>
<path opacity="0.5" d="M20.8908 50.4004V50.4726C20.8877 51.9401 20.5445 53.3869 19.8882 54.6994C19.2318 56.012 18.2801 57.1545 17.1079 58.0373C15.9356 58.9202 14.5747 59.5193 13.1319 59.7876C11.6892 60.056 10.2039 59.9863 8.79257 59.584C7.38128 59.1817 6.08245 58.4577 4.99805 57.469C3.91364 56.4802 3.07318 55.2535 2.54264 53.8853C2.01209 52.517 1.80591 51.0444 1.94028 49.5831C2.07465 48.1218 2.54591 46.7114 3.31706 45.4629C3.18391 46.0949 3.11645 46.7389 3.11577 47.3847C3.11485 49.5463 3.88017 51.6382 5.27579 53.2888C6.6714 54.9394 8.60694 56.0418 10.7386 56.4003C12.8702 56.7588 15.0598 56.35 16.9186 55.2467C18.7773 54.1433 20.1847 52.4168 20.8908 50.3738V50.4004Z" fill="#C778FF"/>
<path opacity="0.1" d="M20.8908 50.4004V50.4726C20.8877 51.9401 20.5445 53.3869 19.8882 54.6994C19.2318 56.012 18.2801 57.1545 17.1079 58.0373C15.9356 58.9202 14.5747 59.5193 13.1319 59.7876C11.6892 60.056 10.2039 59.9863 8.79257 59.584C7.38128 59.1817 6.08245 58.4577 4.99805 57.469C3.91364 56.4802 3.07318 55.2535 2.54264 53.8853C2.01209 52.517 1.80591 51.0444 1.94028 49.5831C2.07465 48.1218 2.54591 46.7114 3.31706 45.4629C3.18391 46.0949 3.11645 46.7389 3.11577 47.3847C3.11485 49.5463 3.88017 51.6382 5.27579 53.2888C6.6714 54.9394 8.60694 56.0418 10.7386 56.4003C12.8702 56.7588 15.0598 56.35 16.9186 55.2467C18.7773 54.1433 20.1847 52.4168 20.8908 50.3738V50.4004Z" fill="black"/>
<path fill-rule="evenodd" clip-rule="evenodd" d="M15.0346 51.1034C14.9602 51.0642 14.8811 51.0348 14.7991 51.0161C14.4131 50.8844 14.0756 50.6395 13.8306 50.3134C13.6936 50.1383 13.5835 49.9437 13.504 49.7361C13.484 49.698 13.4736 49.6557 13.4736 49.6127C13.4736 49.5697 13.484 49.5273 13.504 49.4892C13.5913 49.3888 13.7062 49.3161 13.8344 49.2803C13.9975 49.2332 14.1498 49.1545 14.2826 49.0487C14.3105 49.028 14.3327 49.0005 14.3472 48.9689C14.3477 48.9575 14.3477 48.9461 14.3472 48.9347C14.3547 48.9167 14.3585 48.8973 14.3585 48.8777C14.3585 48.8582 14.3547 48.8388 14.3472 48.8208C14.3113 48.7555 14.2554 48.7035 14.1876 48.6726C14.1469 48.6498 14.102 48.6357 14.0556 48.6311C14.0092 48.6266 13.9623 48.6316 13.918 48.6461C13.8398 48.6752 13.7599 48.6993 13.6787 48.7182C13.5893 48.7434 13.4946 48.7434 13.4052 48.7182C13.4066 48.6993 13.4066 48.6802 13.4052 48.6612C13.4052 48.4979 13.4052 48.327 13.4052 48.1523C13.4278 47.8806 13.4278 47.6074 13.4052 47.3357C13.309 46.8719 13.0367 46.4635 12.6456 46.1963C12.3702 45.9966 12.0462 45.8747 11.7075 45.8431C11.5961 45.8375 11.4846 45.8375 11.3732 45.8431C10.9148 45.8351 10.4665 45.9779 10.0971 46.2495C9.82608 46.4629 9.61318 46.7411 9.47799 47.0585C9.37313 47.3777 9.33816 47.7158 9.37544 48.0498C9.3923 48.2659 9.3923 48.4831 9.37544 48.6992C9.26883 48.7199 9.15922 48.7199 9.0526 48.6992C8.96898 48.6816 8.88653 48.6587 8.80573 48.6309C8.76437 48.6219 8.72156 48.622 8.68025 48.6312C8.63894 48.6404 8.60011 48.6584 8.56645 48.684C8.53044 48.7029 8.49975 48.7306 8.47719 48.7644C8.45463 48.7983 8.44092 48.8372 8.43731 48.8777C8.45021 48.9299 8.4795 48.9765 8.52087 49.0107L8.60443 49.0714C8.76259 49.1628 8.93083 49.2355 9.10578 49.2879C9.15701 49.3057 9.20386 49.3342 9.24317 49.3715C9.28248 49.4088 9.31333 49.4542 9.33367 49.5044C9.34534 49.6376 9.31334 49.7709 9.24251 49.8842C9.06636 50.2333 8.80512 50.5325 8.48289 50.754C8.31142 50.8712 8.12137 50.9585 7.92077 51.0123C7.84202 51.0244 7.77043 51.065 7.71947 51.1262C7.72112 51.1337 7.72112 51.1415 7.71947 51.149C7.71124 51.1754 7.7097 51.2035 7.71501 51.2307C7.72031 51.2579 7.73229 51.2833 7.74986 51.3047C7.77322 51.334 7.80314 51.3575 7.83721 51.3731C8.00023 51.4572 8.17403 51.5186 8.35376 51.5554C8.4633 51.5735 8.57125 51.6001 8.6766 51.6352C8.6766 51.6352 8.6766 51.6731 8.71078 51.7225C8.74496 51.7719 8.75256 51.9238 8.78674 52.0378C8.79208 52.0535 8.80163 52.0675 8.81435 52.0782C8.82707 52.0889 8.84248 52.0959 8.8589 52.0985C8.89817 52.1127 8.94118 52.1127 8.98045 52.0985C9.24788 52.0339 9.52554 52.0236 9.79703 52.0681C10.0673 52.1722 10.3227 52.3114 10.5567 52.4821C10.7383 52.61 10.9506 52.6874 11.1719 52.7062C11.3452 52.7177 11.519 52.7177 11.6923 52.7062C11.8366 52.6907 11.9756 52.6426 12.0987 52.5657C12.3553 52.398 12.6203 52.2433 12.8925 52.1023C12.9965 52.0747 13.1039 52.0619 13.2115 52.0643C13.4349 52.0567 13.6585 52.0681 13.88 52.0985H13.9028C13.9327 52.0928 13.9596 52.0766 13.9787 52.053C13.9854 52.0473 13.9909 52.0403 13.9948 52.0325C13.9987 52.0247 14.001 52.0161 14.0015 52.0074C14.0015 51.9732 14.0015 51.9846 14.0015 52.0074C14.0036 52.0012 14.0036 51.9945 14.0015 51.9884C14.0245 51.8714 14.0682 51.7595 14.1307 51.6579C14.1711 51.6278 14.2209 51.613 14.2712 51.6162C14.4533 51.5862 14.6316 51.5366 14.8029 51.468C14.8872 51.4412 14.9622 51.3912 15.0194 51.3237C15.0313 51.3064 15.0396 51.2869 15.0438 51.2663C15.048 51.2457 15.0479 51.2244 15.0437 51.2038C15.0394 51.1833 15.031 51.1638 15.019 51.1465C15.007 51.1292 14.9917 51.1146 14.9738 51.1034H15.0346Z" fill="white"/>
<path d="M55.1456 34.1987C56.5895 28.9242 53.4842 23.4779 48.2098 22.034C42.9353 20.5901 37.489 23.6953 36.0451 28.9698C34.6012 34.2442 37.7065 39.6905 42.9809 41.1345C48.2554 42.5784 53.7017 39.4731 55.1456 34.1987Z" fill="#C778FF"/>
<path opacity="0.5" d="M55.4917 31.505V31.5809C55.4895 33.1106 55.1328 34.619 54.4498 35.9877C53.7667 37.3564 52.7759 38.5482 51.5549 39.4697C50.3339 40.3912 48.916 41.0172 47.4125 41.2988C45.9089 41.5803 44.3606 41.5096 42.889 41.0923C41.4173 40.6751 40.0623 39.9225 38.9304 38.8936C37.7984 37.8648 36.9202 36.5876 36.3646 35.1624C35.809 33.7372 35.5912 32.2026 35.7283 30.6791C35.8654 29.1556 36.3535 27.6845 37.1545 26.3813C36.6507 28.7535 37.0695 31.2284 38.3257 33.3027C39.5818 35.3771 41.581 36.895 43.9165 37.5477C46.2521 38.2004 48.7485 37.9389 50.8981 36.8164C53.0477 35.6938 54.6889 33.7946 55.4879 31.505H55.4917Z" fill="#C778FF"/>
<path opacity="0.1" d="M55.4917 31.505V31.5809C55.4895 33.1106 55.1328 34.619 54.4498 35.9877C53.7667 37.3564 52.7759 38.5482 51.5549 39.4697C50.3339 40.3912 48.916 41.0172 47.4125 41.2988C45.9089 41.5803 44.3606 41.5096 42.889 41.0923C41.4173 40.6751 40.0623 39.9225 38.9304 38.8936C37.7984 37.8648 36.9202 36.5876 36.3646 35.1624C35.809 33.7372 35.5912 32.2026 35.7283 30.6791C35.8654 29.1556 36.3535 27.6845 37.1545 26.3813C36.6507 28.7535 37.0695 31.2284 38.3257 33.3027C39.5818 35.3771 41.581 36.895 43.9165 37.5477C46.2521 38.2004 48.7485 37.9389 50.8981 36.8164C53.0477 35.6938 54.6889 33.7946 55.4879 31.505H55.4917Z" fill="#C778FF"/>
<g opacity="0.1">
<path opacity="0.5" d="M55.4927 31.5055V31.5814C55.4905 33.1111 55.1338 34.6195 54.4508 35.9882C53.7677 37.3569 52.7768 38.5487 51.5559 39.4702C50.3349 40.3917 48.917 41.0177 47.4135 41.2992C45.9099 41.5808 44.3616 41.5101 42.8899 41.0928C41.4183 40.6755 40.0633 39.9229 38.9313 38.8941C37.7994 37.8653 36.9211 36.5881 36.3656 35.1629C35.81 33.7377 35.5922 32.2031 35.7293 30.6796C35.8663 29.1561 36.3545 27.685 37.1555 26.3818C36.6517 28.754 37.0705 31.2289 38.3267 33.3032C39.5828 35.3776 41.582 36.8955 43.9175 37.5482C46.253 38.2009 48.7495 37.9394 50.8991 36.8169C53.0487 35.6943 54.6899 33.7951 55.4889 31.5055H55.4927Z" fill="black"/>
<path opacity="0.1" d="M55.4927 31.5055V31.5814C55.4905 33.1111 55.1338 34.6195 54.4508 35.9882C53.7677 37.3569 52.7768 38.5487 51.5559 39.4702C50.3349 40.3917 48.917 41.0177 47.4135 41.2992C45.9099 41.5808 44.3616 41.5101 42.8899 41.0928C41.4183 40.6755 40.0633 39.9229 38.9313 38.8941C37.7994 37.8653 36.9211 36.5881 36.3656 35.1629C35.81 33.7377 35.5922 32.2031 35.7293 30.6796C35.8663 29.1561 36.3545 27.685 37.1555 26.3818C36.6517 28.754 37.0705 31.2289 38.3267 33.3032C39.5828 35.3776 41.582 36.8955 43.9175 37.5482C46.253 38.2009 48.7495 37.9394 50.8991 36.8169C53.0487 35.6943 54.6899 33.7951 55.4889 31.5055H55.4927Z" fill="black"/>
</g>
<path fill-rule="evenodd" clip-rule="evenodd" d="M49.1497 30.4077C49.117 29.5341 48.7489 28.7066 48.122 28.0973C47.495 27.488 46.6574 27.1437 45.7832 27.1359C44.909 27.1281 44.0654 27.4573 43.4277 28.0553C42.7899 28.6533 42.4071 29.474 42.3587 30.3469C42.3587 30.3963 42.3587 30.4457 42.3587 30.495C42.3583 31.1085 42.5265 31.7102 42.8449 32.2346L42.2334 34.0463L44.1135 33.4462C44.6175 33.7228 45.1831 33.8678 45.758 33.8677C46.2024 33.8692 46.6428 33.7832 47.0539 33.6145C47.4651 33.4458 47.839 33.1978 48.1543 32.8846C48.4696 32.5714 48.7201 32.1992 48.8916 31.7892C49.063 31.3792 49.152 30.9394 49.1535 30.495L49.1497 30.4077ZM45.7542 33.3284C45.1951 33.3302 44.6479 33.1664 44.1818 32.8575L43.0842 33.2107L43.4412 32.1548C43.0867 31.674 42.895 31.0924 42.8943 30.495C42.8943 30.4001 42.8943 30.3089 42.8943 30.2178C42.9643 29.5066 43.298 28.8474 43.8297 28.37C44.3614 27.8926 45.0526 27.6315 45.7672 27.6382C46.4817 27.6448 47.1679 27.9188 47.6906 28.406C48.2133 28.8933 48.5347 29.5586 48.5914 30.271C48.5914 30.3469 48.5914 30.4191 48.5914 30.495C48.5864 31.2456 48.2858 31.964 47.7547 32.4944C47.2236 33.0248 46.5048 33.3244 45.7542 33.3284Z" fill="white"/>
<path fill-rule="evenodd" clip-rule="evenodd" d="M47.3129 31.1749C47.2293 31.1332 46.8191 30.9319 46.7432 30.9053C46.6672 30.8787 46.6102 30.8635 46.5533 30.9471C46.4963 31.0306 46.3368 31.2167 46.2912 31.2699C46.2456 31.3231 46.1924 31.3307 46.1089 31.2889C45.8626 31.1946 45.636 31.0555 45.4404 30.8787C45.2573 30.7141 45.1009 30.5218 44.977 30.309C44.9679 30.2959 44.9616 30.2811 44.9584 30.2655C44.9551 30.2498 44.9551 30.2337 44.9583 30.2181C44.9615 30.2025 44.9678 30.1876 44.9769 30.1745C44.986 30.1614 44.9977 30.1503 45.0112 30.1419C45.053 30.1039 45.0948 30.0431 45.1404 29.9937L45.1708 29.9558C45.1897 29.9254 45.2011 29.895 45.2201 29.857C45.2324 29.8349 45.2389 29.8101 45.2389 29.7848C45.2389 29.7596 45.2324 29.7347 45.2201 29.7127C45.1973 29.6709 45.0302 29.2645 44.9619 29.0974C44.8935 28.9303 44.8213 28.9607 44.772 28.9607H44.6162C44.5739 28.962 44.5324 28.9718 44.4939 28.9894C44.4554 29.007 44.4208 29.0321 44.3921 29.0632C44.2983 29.1519 44.2238 29.2592 44.1735 29.3782C44.1231 29.4972 44.098 29.6253 44.0997 29.7545C44.1015 29.8498 44.1169 29.9445 44.1453 30.0355C44.2088 30.2429 44.3092 30.4372 44.4415 30.609C44.788 31.1509 45.2804 31.584 45.862 31.8586C46.7128 32.189 46.7128 32.0789 46.8647 32.0637C46.9801 32.0441 47.0899 32.0001 47.1869 31.9346C47.2838 31.8691 47.3656 31.7836 47.4268 31.6839C47.4777 31.5642 47.4948 31.4328 47.4762 31.3041C47.4496 31.2357 47.4116 31.2167 47.3129 31.1749Z" fill="white"/>
</svg>
