<svg width="102" height="102" viewBox="0 0 102 102" fill="none" xmlns="http://www.w3.org/2000/svg">
<path d="M80.9734 0H0V101.031H80.9734V0Z" fill="#455A64"/>
<path d="M76.3766 11.2314H4.60352V83.0045H76.3766V11.2314Z" fill="#FAF5FF"/>
<path d="M8.066 7.59966C7.64352 7.8604 7.14935 7.98074 6.65429 7.94343C6.15923 7.90612 5.68868 7.71309 5.31005 7.39197C4.93141 7.07086 4.66413 6.63815 4.54648 6.15583C4.42882 5.67351 4.46685 5.16633 4.6551 4.70694C4.84334 4.24755 5.17216 3.85952 5.59444 3.59845C6.01671 3.33738 6.51078 3.21666 7.00587 3.25358C7.50096 3.2905 7.97166 3.48317 8.35055 3.80399C8.72943 4.1248 8.99705 4.5573 9.11508 5.03953C9.23279 5.52237 9.1947 6.03008 9.00625 6.48995C8.81781 6.94982 8.48868 7.33826 8.066 7.59966Z" fill="white"/>
<path d="M7.54093 5.33443C7.54093 5.4759 7.49897 5.6142 7.42038 5.73183C7.34178 5.84945 7.23007 5.94113 7.09937 5.99527C6.96867 6.04941 6.82484 6.06357 6.68609 6.03598C6.54734 6.00838 6.41989 5.94025 6.31986 5.84022C6.21982 5.74018 6.1517 5.61273 6.1241 5.47398C6.0965 5.33523 6.11066 5.19141 6.1648 5.06071C6.21894 4.93 6.31062 4.81829 6.42825 4.73969C6.54588 4.6611 6.68417 4.61915 6.82564 4.61915C6.91968 4.61875 7.01287 4.63698 7.09983 4.67279C7.18679 4.7086 7.2658 4.76127 7.3323 4.82777C7.3988 4.89427 7.45147 4.97328 7.48728 5.06024C7.52309 5.1472 7.54132 5.24039 7.54093 5.33443Z" fill="#37474F"/>
<path d="M8.0655 7.30521V7.60325C7.69388 7.83307 7.26558 7.95481 6.82864 7.95481C6.39171 7.95481 5.96341 7.83307 5.5918 7.60325V7.30521C5.5918 6.97718 5.72211 6.66258 5.95406 6.43062C6.18601 6.19867 6.50061 6.06836 6.82864 6.06836C7.15668 6.06836 7.47128 6.19867 7.70323 6.43062C7.93518 6.66258 8.0655 6.97718 8.0655 7.30521Z" fill="#37474F"/>
<path d="M74.9197 5.33398C74.9785 5.33477 75.0346 5.35866 75.0759 5.4005C75.1171 5.44233 75.1403 5.49874 75.1403 5.55751C75.1395 5.61549 75.1159 5.67082 75.0746 5.71154C75.0334 5.75226 74.9777 5.77508 74.9197 5.77508C74.862 5.77508 74.8067 5.75216 74.7659 5.71135C74.7251 5.67055 74.7022 5.61521 74.7022 5.55751C74.7018 5.52855 74.7071 5.49979 74.7178 5.47288C74.7285 5.44597 74.7445 5.42144 74.7647 5.40068C74.7849 5.37993 74.809 5.36335 74.8356 5.35191C74.8622 5.34046 74.8908 5.33437 74.9197 5.33398Z" fill="#C7C7C7"/>
<path d="M75.5975 5.33398C75.6565 5.33476 75.7129 5.35855 75.7547 5.40031C75.7964 5.44206 75.8202 5.49847 75.821 5.55751C75.8206 5.58647 75.8145 5.61508 75.8031 5.64169C75.7916 5.6683 75.7751 5.69239 75.7543 5.71259C75.7335 5.7328 75.709 5.74871 75.6821 5.75943C75.6552 5.77016 75.6264 5.77547 75.5975 5.77508C75.5398 5.77508 75.4844 5.75216 75.4436 5.71135C75.4028 5.67055 75.3799 5.61521 75.3799 5.55751C75.3795 5.52855 75.3848 5.49979 75.3955 5.47288C75.4063 5.44597 75.4222 5.42144 75.4424 5.40068C75.4626 5.37993 75.4867 5.36335 75.5133 5.35191C75.5399 5.34046 75.5685 5.33437 75.5975 5.33398Z" fill="#C7C7C7"/>
<path d="M76.2781 5.33398C76.3369 5.33477 76.393 5.35866 76.4343 5.4005C76.4756 5.44233 76.4987 5.49874 76.4987 5.55751C76.4981 5.601 76.4847 5.64334 76.4601 5.67922C76.4355 5.71509 76.4008 5.7429 76.3605 5.75913C76.3201 5.77537 76.2759 5.77931 76.2333 5.77047C76.1907 5.76163 76.1517 5.74039 76.1212 5.70943C76.0906 5.67847 76.0699 5.63917 76.0616 5.59647C76.0534 5.55378 76.0579 5.50958 76.0747 5.46946C76.0915 5.42933 76.1197 5.39506 76.1559 5.37096C76.1921 5.34685 76.2346 5.33399 76.2781 5.33398Z" fill="#C7C7C7"/>
<path d="M34.5599 5.02393H11.9121V6.17435H34.5599V5.02393Z" fill="#37474F"/>
<path d="M76.3773 83.0059H18.9219V100.292L76.3773 83.0059Z" fill="#37474F"/>
<path d="M9.33074 88.3831C8.99965 88.9402 8.57638 89.437 8.07898 89.8524C7.81481 90.0883 7.5361 90.3072 7.24448 90.5081H7.02394C6.96433 90.4664 5.53376 89.5067 4.93768 88.3801C4.51149 87.5963 4.45188 86.7231 4.79164 86.1538C4.88975 85.9801 5.03289 85.8361 5.20599 85.737C5.37908 85.6379 5.57572 85.5873 5.77516 85.5905C6.06944 85.6034 6.35386 85.7004 6.59473 85.8699C6.8356 86.0395 7.02282 86.2745 7.13421 86.5472C7.24508 86.2748 7.43176 86.0398 7.67212 85.8703C7.91247 85.7007 8.19641 85.6036 8.49027 85.5905C8.69022 85.5867 8.88748 85.6371 9.06115 85.7362C9.23482 85.8354 9.37843 85.9797 9.47677 86.1538C9.81653 86.726 9.75991 87.5904 9.33074 88.3831Z" fill="#FF226F"/>
<path d="M23.9913 90.7918L23.6426 90.7233L22.9303 88.0678L21.2852 86.2796L21.4312 85.9487H27.2369L27.3949 86.2646L23.9913 90.7918ZM21.8782 86.3213L23.2552 87.8115L23.2999 87.8949L23.9198 90.2077L26.8405 86.3094L21.8782 86.3213Z" fill="#C7C7C7"/>
<path d="M27.3322 85.8783L22.8428 87.8706L23.0023 88.2302L27.4918 86.2379L27.3322 85.8783Z" fill="#C7C7C7"/>
<path d="M15.2295 90.54C14.708 90.5387 14.2001 90.3732 13.7779 90.067C13.3557 89.7607 13.0406 89.3293 12.8775 88.8339C12.7144 88.3385 12.7114 87.8043 12.869 87.3071C13.0266 86.8099 13.3368 86.375 13.7556 86.0641C14.1743 85.7532 14.6804 85.582 15.2019 85.5749C15.7234 85.5679 16.2339 85.7252 16.661 86.0247C17.088 86.3241 17.4099 86.7505 17.5809 87.2432C17.752 87.7359 17.7635 88.27 17.6138 88.7696L17.9894 90.2956L17.7509 90.534L16.4485 90.236C16.075 90.4403 15.6552 90.545 15.2295 90.54ZM15.2295 85.983C14.9079 85.9828 14.5906 86.0569 14.3024 86.1995C14.0141 86.3422 13.7628 86.5496 13.568 86.8055C13.3731 87.0614 13.2401 87.3589 13.1793 87.6747C13.1185 87.9905 13.1315 88.3161 13.2173 88.626C13.3031 88.936 13.4595 89.2219 13.6741 89.4614C13.8887 89.701 14.1558 89.8876 14.4545 90.0069C14.7532 90.1261 15.0754 90.1747 15.396 90.1487C15.7166 90.1228 16.0268 90.0231 16.3025 89.8575L16.4485 89.8366L17.5185 90.084L17.2204 88.8203V88.713C17.2865 88.5068 17.3206 88.2917 17.3218 88.0752C17.3225 87.8003 17.269 87.5278 17.1641 87.2736C17.0592 87.0194 16.9052 86.7885 16.7107 86.5941C16.5163 86.3996 16.2853 86.2455 16.0311 86.1407C15.7769 86.0358 15.5045 85.9822 15.2295 85.983Z" fill="#C7C7C7"/>
<path d="M72.9956 90.5049L72.6826 90.3439V86.1357L72.8823 85.939H76.3008L76.4975 86.1357V90.3439L76.1845 90.5049L74.59 89.0564L72.9956 90.5049ZM73.079 86.3324V89.9565L74.4738 88.6541H74.7063L76.1041 89.9565V86.3324H73.079Z" fill="#C7C7C7"/>
<path d="M48.9216 47.0144C48.918 47.0781 48.8911 47.1382 48.846 47.1833C48.801 47.2283 48.7408 47.2552 48.6772 47.2588C48.3792 47.2439 48.0156 47.2171 47.6102 47.1902C46.9873 44.5973 46.2244 42.5021 46.3913 43.3158C46.638 44.5708 46.6953 45.8557 46.5611 47.1277L44.46 46.9578C44.2096 42.5051 43.5659 39.1433 43.5122 40.1447C43.25 44.192 42.8446 45.4497 42.3827 46.7879C37.3161 46.3617 30.6698 45.7269 25.8774 45.1666C25.642 42.6929 25.4989 40.0284 25.3916 40.1983C24.5601 41.4709 24.125 43.4171 23.9014 44.9311C22.3785 44.7404 21.1625 44.5616 20.4263 44.4155C20.4263 44.4155 20.3369 42.3501 20.3727 41.6796C20.459 39.9572 20.8632 38.2657 21.5648 36.6904C22.2921 35.0721 23.3531 33.7101 24.3932 32.2855L24.42 32.2527C25.0977 31.3345 25.664 30.339 26.1069 29.2872V29.2664C26.4137 28.5032 26.6521 27.7142 26.8192 26.9089C27.4153 23.9732 29.439 21.6277 32.3299 21.2075C38.2489 16.9396 43.25 19.7173 44.3408 23.7288C44.4451 24.1193 44.5375 24.5633 44.6388 25.0462V25.0611C44.9547 26.8493 45.1425 29.1352 45.363 30.9115C45.363 30.9115 45.363 30.9115 45.363 30.9294C45.439 31.626 45.5605 32.317 45.7266 32.9978C46.6744 36.2613 49.4819 38.4131 48.9216 47.0144Z" fill="#263238"/>
<path d="M31.0376 21.8409C29.0825 22.5562 27.7771 23.802 27.2108 25.9299C26.88 27.1698 26.6327 28.3917 25.9919 29.5064C25.3511 30.621 24.4063 31.5747 23.4586 32.4867C21.9684 33.9173 20.8448 35.3926 20.362 37.4937C19.8792 39.5949 19.6437 42.1848 20.1057 44.2919H20.1265C19.8046 42.1729 20.1593 39.3445 20.8061 37.2553C21.5154 34.9575 23.0383 33.6521 24.6328 32.0456C25.9031 30.7998 26.8125 29.2334 27.2645 27.5125C27.5417 26.4604 27.6728 25.3458 28.2361 24.3951C28.9067 23.2566 30.0243 22.6277 31.139 22.0793C31.1706 22.0659 31.1956 22.0404 31.2084 22.0086C31.2213 21.9767 31.2209 21.9411 31.2075 21.9094C31.1941 21.8778 31.1686 21.8528 31.1368 21.84C31.1049 21.8271 31.0692 21.8274 31.0376 21.8409Z" fill="#263238"/>
<path d="M48.3757 36.7108C47.3057 34.86 46.1523 33.2506 45.6695 31.066C45.2314 29.0751 45.1002 27.0127 44.6502 25.0219C44.6502 24.9891 44.5936 24.998 44.6025 25.0219C45.2373 28.5357 44.9989 31.9661 46.805 35.0865C47.7855 36.7824 48.781 38.3649 49.3175 40.3141C49.8563 42.3543 50 44.4787 49.7407 46.5728C49.7381 46.5803 49.7372 46.5883 49.7381 46.5961C49.7389 46.604 49.7415 46.6115 49.7456 46.6183C49.7497 46.625 49.7553 46.6308 49.7619 46.6351C49.7685 46.6395 49.776 46.6423 49.7838 46.6434C49.7916 46.6445 49.7996 46.6439 49.8071 46.6416C49.8147 46.6393 49.8216 46.6353 49.8275 46.63C49.8333 46.6247 49.8379 46.6181 49.841 46.6108C49.844 46.6035 49.8453 46.5956 49.845 46.5877C50.6119 43.2277 50.0874 39.7021 48.3757 36.7108Z" fill="#263238"/>
<path d="M41.1689 48.4563C50.6881 58.4316 62.5231 79.2822 60.1806 83.4279C57.5757 88.0474 43.8482 73.846 44.2804 73.1665C44.6469 72.5883 39.9022 60.035 36.4569 50.8525C33.0116 41.67 38.8144 45.9886 41.1689 48.4563Z" fill="#F9C0AB"/>
<path d="M52.8294 60.4159L39.1644 62.8777C39.1644 62.8777 35.7519 53.1915 35.0753 47.815C34.6939 44.8018 36.4672 44.6796 38.6935 46.2801C46.4931 51.8861 52.8294 60.4159 52.8294 60.4159Z" fill="#C778FF"/>
<path d="M38.1026 49.5205C38.0408 49.6206 37.9633 49.7102 37.8731 49.7858C37.8259 49.8285 37.7761 49.8683 37.7241 49.905H37.6824C37.5325 49.8024 37.4048 49.6706 37.3069 49.5175C37.2688 49.4582 37.2463 49.3902 37.2416 49.3198C37.2369 49.2495 37.2501 49.1791 37.28 49.1152C37.2974 49.0839 37.3229 49.0579 37.3539 49.0401C37.3849 49.0222 37.4201 49.0132 37.4559 49.0139C37.4745 49.0641 37.5081 49.1073 37.552 49.1379C37.596 49.1685 37.6482 49.1849 37.7018 49.1849C37.7553 49.1849 37.8076 49.1685 37.8515 49.1379C37.8955 49.1073 37.929 49.0641 37.9476 49.0139C37.9838 49.013 38.0196 49.0219 38.0511 49.0397C38.0826 49.0576 38.1086 49.0837 38.1265 49.1152C38.1568 49.1793 38.1705 49.2501 38.1663 49.3209C38.1622 49.3917 38.1403 49.4604 38.1026 49.5205ZM42.3258 49.1778C42.2977 49.2933 42.3159 49.4152 42.3765 49.5175C42.4743 49.6706 42.602 49.8024 42.752 49.905H42.7937C42.847 49.8687 42.8978 49.8289 42.9457 49.7858C42.9581 49.7764 42.9691 49.7654 42.9785 49.753C42.7758 49.5622 42.5732 49.3655 42.3377 49.1778H42.3258ZM35.6021 45.8636C35.585 45.8321 35.5595 45.806 35.5285 45.7881C35.4975 45.7702 35.4621 45.7613 35.4263 45.7623C35.3869 45.7616 35.3479 45.7708 35.313 45.7891C35.1701 46.0271 35.0815 46.2937 35.0537 46.57C35.0876 46.5993 35.1234 46.6261 35.161 46.6504H35.2027C35.2027 46.6504 35.2713 46.5998 35.3488 46.5312C35.439 46.4556 35.5164 46.3661 35.5783 46.266C35.6154 46.2062 35.637 46.1381 35.6411 46.0678C35.6453 45.9976 35.6319 45.9274 35.6021 45.8636ZM38.1384 55.6303C38.1206 55.5987 38.0945 55.5727 38.063 55.5548C38.0315 55.537 37.9958 55.528 37.9596 55.5289C37.9409 55.5791 37.9074 55.6224 37.8634 55.653C37.8195 55.6835 37.7672 55.6999 37.7137 55.6999C37.6601 55.6999 37.6079 55.6835 37.5639 55.653C37.52 55.6224 37.4864 55.5791 37.4678 55.5289C37.432 55.5282 37.3968 55.5373 37.3658 55.5552C37.3348 55.573 37.3093 55.599 37.292 55.6303C37.2621 55.6941 37.2489 55.7645 37.2535 55.8349C37.2582 55.9053 37.2807 55.9733 37.3188 56.0326C37.4164 56.185 37.5442 56.3159 37.6943 56.4171H37.736C37.7884 56.3819 37.8382 56.3431 37.8851 56.3008C37.9753 56.2242 38.0528 56.1336 38.1145 56.0326C38.1543 55.9716 38.1774 55.9013 38.1816 55.8286C38.1858 55.756 38.1709 55.6835 38.1384 55.6183V55.6303ZM43.205 55.6303C43.1869 55.599 43.1608 55.5731 43.1294 55.5552C43.0979 55.5374 43.0623 55.5283 43.0262 55.5289C42.9727 55.5311 42.9211 55.5486 42.8772 55.5792C42.8334 55.6098 42.7992 55.6524 42.7788 55.7018C42.7592 55.6524 42.7257 55.6098 42.6823 55.5791C42.6389 55.5484 42.5875 55.531 42.5344 55.5289C42.4983 55.5283 42.4627 55.5374 42.4312 55.5552C42.3998 55.5731 42.3737 55.599 42.3556 55.6303C42.3257 55.6941 42.3125 55.7645 42.3172 55.8349C42.3219 55.9053 42.3443 55.9733 42.3824 56.0326C42.4808 56.1854 42.6097 56.3163 42.7609 56.4171H42.7997C42.8527 56.3816 42.9035 56.3427 42.9517 56.3008C43.041 56.2241 43.1175 56.1335 43.1782 56.0326C43.2185 55.9721 43.2427 55.9022 43.2485 55.8297C43.2542 55.7572 43.2413 55.6845 43.211 55.6183L43.205 55.6303ZM48.2716 55.6303C48.2538 55.5987 48.2277 55.5727 48.1962 55.5548C48.1647 55.537 48.129 55.528 48.0928 55.5289C48.0397 55.531 47.9883 55.5484 47.9449 55.5791C47.9015 55.6098 47.868 55.6524 47.8484 55.7018C47.8283 55.6522 47.7942 55.6094 47.7503 55.5787C47.7064 55.5481 47.6546 55.5308 47.601 55.5289C47.5653 55.5282 47.53 55.5373 47.499 55.5552C47.468 55.573 47.4425 55.599 47.4252 55.6303C47.3949 55.6939 47.3811 55.7641 47.3853 55.8345C47.3895 55.9049 47.4114 55.973 47.449 56.0326C47.5475 56.1854 47.6763 56.3163 47.8275 56.4171H47.8693C47.921 56.3811 47.9708 56.3423 48.0183 56.3008C48.1084 56.2249 48.185 56.1342 48.2448 56.0326C48.2864 55.9727 48.3117 55.9029 48.3179 55.8302C48.3242 55.7576 48.3113 55.6845 48.2805 55.6183L48.2716 55.6303ZM40.6657 52.3519C40.6479 52.3203 40.6219 52.2943 40.5904 52.2764C40.5589 52.2586 40.5231 52.2496 40.4869 52.2505C40.4338 52.2526 40.3824 52.27 40.339 52.3007C40.2957 52.3314 40.2621 52.374 40.2425 52.4234C40.2224 52.3738 40.1883 52.331 40.1444 52.3003C40.1005 52.2697 40.0487 52.2524 39.9951 52.2505C39.9591 52.2502 39.9236 52.2595 39.8922 52.2773C39.8608 52.295 39.8346 52.3208 39.8163 52.3519C39.7872 52.4159 39.7745 52.4862 39.7791 52.5564C39.7838 52.6266 39.8058 52.6946 39.8431 52.7542C39.9418 52.9076 40.0706 53.0394 40.2217 53.1417H40.2604C40.2604 53.1417 40.3349 53.091 40.4124 53.0224C40.5026 52.9465 40.5791 52.8558 40.6389 52.7542C40.6779 52.696 40.7017 52.6289 40.7079 52.5591C40.7142 52.4893 40.7027 52.4191 40.6747 52.3548L40.6657 52.3519ZM45.7323 52.3519C45.714 52.3208 45.6879 52.295 45.6565 52.2773C45.6251 52.2595 45.5896 52.2502 45.5535 52.2505C45.5349 52.3007 45.5013 52.344 45.4574 52.3746C45.4134 52.4051 45.3612 52.4215 45.3076 52.4215C45.2541 52.4215 45.2018 52.4051 45.1579 52.3746C45.1139 52.344 45.0804 52.3007 45.0618 52.2505C45.0256 52.2496 44.9898 52.2586 44.9583 52.2764C44.9268 52.2943 44.9008 52.3203 44.8829 52.3519C44.853 52.4157 44.8398 52.4861 44.8445 52.5565C44.8492 52.6269 44.8717 52.6949 44.9098 52.7542C45.0085 52.9066 45.1361 53.0382 45.2853 53.1417H45.327C45.327 53.1417 45.3985 53.091 45.479 53.0224C45.5675 52.9449 45.6439 52.8545 45.7055 52.7542C45.7448 52.6962 45.7691 52.6294 45.7764 52.5598C45.7836 52.4901 45.7736 52.4197 45.7472 52.3548L45.7323 52.3519ZM43.1961 62.1155C43.1773 62.0848 43.1511 62.0594 43.1198 62.0417C43.0885 62.024 43.0532 62.0145 43.0172 62.0142C42.9641 62.0162 42.9128 62.0336 42.8694 62.0643C42.826 62.095 42.7924 62.1377 42.7728 62.187C42.7524 62.1376 42.7183 62.0951 42.6744 62.0645C42.6306 62.0338 42.5789 62.0164 42.5255 62.0142C42.4898 62.0138 42.4546 62.023 42.4237 62.0409C42.3928 62.0587 42.3672 62.0845 42.3496 62.1155C42.317 62.1735 42.3025 62.24 42.3079 62.3063L43.202 62.1453C43.2072 62.1373 43.2103 62.1281 43.211 62.1185L43.1961 62.1155ZM40.6598 58.855C40.6421 58.8232 40.6162 58.7967 40.5847 58.7783C40.5532 58.7599 40.5174 58.7504 40.4809 58.7507C40.4276 58.7533 40.3762 58.7714 40.3328 58.8025C40.2894 58.8337 40.256 58.8768 40.2366 58.9265C40.2166 58.8766 40.1826 58.8334 40.1387 58.8022C40.0949 58.771 40.043 58.7531 39.9892 58.7507C39.9529 58.751 39.9173 58.7608 39.8859 58.7791C39.8546 58.7974 39.8285 58.8236 39.8104 58.855C39.7813 58.9191 39.7685 58.9893 39.7732 59.0596C39.7779 59.1298 39.7999 59.1977 39.8372 59.2574C39.9356 59.4101 40.0645 59.541 40.2157 59.6418H40.2544C40.3085 59.6067 40.3594 59.5668 40.4064 59.5226C40.4972 59.4484 40.5739 59.3586 40.6329 59.2574C40.6729 59.1997 40.6977 59.1328 40.705 59.063C40.7123 58.9932 40.7019 58.9227 40.6747 58.858L40.6598 58.855ZM45.7264 58.855C45.7082 58.8236 45.6822 58.7974 45.6508 58.7791C45.6195 58.7608 45.5839 58.751 45.5476 58.7507C45.5303 58.8022 45.4973 58.8471 45.4532 58.8788C45.409 58.9106 45.356 58.9277 45.3017 58.9277C45.2473 58.9277 45.1943 58.9106 45.1502 58.8788C45.1061 58.8471 45.0731 58.8022 45.0558 58.7507C45.0194 58.7504 44.9835 58.7599 44.9521 58.7783C44.9206 58.7967 44.8947 58.8232 44.877 58.855C44.8471 58.9189 44.8339 58.9893 44.8386 59.0596C44.8433 59.13 44.8657 59.198 44.9038 59.2574C45.0023 59.4091 45.13 59.5398 45.2793 59.6418H45.3211C45.3745 59.6058 45.4254 59.566 45.4731 59.5226C45.5622 59.4468 45.6387 59.3573 45.6996 59.2574C45.7398 59.1999 45.7652 59.1333 45.7735 59.0637C45.7818 58.994 45.7728 58.9233 45.7472 58.858L45.7264 58.855ZM50.793 58.855C50.7753 58.8232 50.7494 58.7967 50.7179 58.7783C50.6864 58.7599 50.6506 58.7504 50.6142 58.7507C50.5608 58.7533 50.5094 58.7714 50.466 58.8025C50.4227 58.8337 50.3892 58.8768 50.3698 58.9265C50.3481 58.8778 50.3137 58.8357 50.2702 58.8048C50.2266 58.7738 50.1756 58.7552 50.1224 58.7507C50.086 58.7507 50.0503 58.7604 50.0189 58.7787C49.9875 58.797 49.9615 58.8234 49.9436 58.855C49.9145 58.9191 49.9017 58.9893 49.9064 59.0596C49.9111 59.1298 49.9331 59.1977 49.9704 59.2574C50.0688 59.4101 50.1977 59.541 50.3489 59.6418H50.3877C50.4412 59.6058 50.492 59.566 50.5397 59.5226C50.6304 59.4484 50.7071 59.3586 50.7662 59.2574C50.8076 59.2005 50.834 59.134 50.8429 59.0642C50.8517 58.9944 50.8428 58.9234 50.8168 58.858L50.793 58.855Z" fill="white"/>
<path d="M39.2537 60.6408C41.325 60.0864 46.9847 58.7512 50.7787 58.3638C50.8026 58.3638 50.8205 58.4472 50.7996 58.4532C47.6911 59.2519 41.3817 60.3964 39.2954 60.7659C39.2418 60.7659 39.2149 60.6497 39.2537 60.6408Z" fill="#263238"/>
<path opacity="0.1" d="M50.9994 60.7481L39.1614 62.8761C39.1614 62.8761 35.7518 53.1929 35.0753 47.8193C34.8309 45.891 35.4717 45.137 36.5476 45.2771L50.9994 60.7481Z" fill="black"/>
<path d="M46.7208 83.0197H12.083C12.083 83.0197 15.2332 58.8549 26.3887 46.1496C29.3989 42.7222 34.8589 43.7355 37.4399 46.0543C38.3506 46.939 39.1906 47.8936 39.9524 48.9094C42.2979 51.9256 46.1306 59.1619 46.4883 61.1289C47.0844 64.3656 44.2173 67.8645 44.2173 67.8645L46.7208 83.0197Z" fill="#C778FF"/>
<path d="M27.9715 49.5205C27.9098 49.6199 27.8335 49.7093 27.745 49.7858C27.6964 49.8281 27.6457 49.8678 27.593 49.905H27.5542C27.4032 49.8027 27.2744 49.6709 27.1757 49.5175C27.1376 49.4582 27.1152 49.3902 27.1105 49.3198C27.1058 49.2494 27.119 49.179 27.1489 49.1152C27.1667 49.0837 27.1928 49.0576 27.2243 49.0397C27.2558 49.0219 27.2915 49.0129 27.3277 49.0138C27.3808 49.0159 27.4322 49.0333 27.4756 49.064C27.519 49.0947 27.5525 49.1373 27.5721 49.1867C27.5923 49.1371 27.6263 49.0943 27.6702 49.0637C27.7141 49.033 27.766 49.0157 27.8195 49.0138C27.8556 49.0136 27.8911 49.0228 27.9225 49.0406C27.9539 49.0584 27.98 49.0841 27.9983 49.1152C28.0274 49.1798 28.0402 49.2505 28.0355 49.3212C28.0308 49.3919 28.0088 49.4603 27.9715 49.5205ZM33.0679 49.1152C33.0501 49.0837 33.024 49.0576 32.9925 49.0397C32.961 49.0219 32.9253 49.0129 32.8891 49.0138C32.836 49.0159 32.7846 49.0333 32.7412 49.064C32.6978 49.0947 32.6643 49.1373 32.6447 49.1867C32.6243 49.1373 32.5901 49.0947 32.5463 49.0641C32.5024 49.0335 32.4508 49.016 32.3973 49.0138C32.3612 49.0133 32.3256 49.0223 32.2941 49.0402C32.2627 49.058 32.2366 49.0839 32.2185 49.1152C32.1894 49.1792 32.1766 49.2495 32.1813 49.3197C32.186 49.3899 32.208 49.4579 32.2453 49.5175C32.344 49.6709 32.4728 49.8027 32.6238 49.905H32.6626C32.7159 49.8687 32.7666 49.8289 32.8146 49.7858C32.9046 49.7109 32.9812 49.6212 33.0411 49.5205C33.0797 49.4609 33.1026 49.3925 33.1078 49.3216C33.113 49.2508 33.1003 49.1798 33.0709 49.1152H33.0679ZM38.1345 49.1152C38.1167 49.0837 38.0907 49.0576 38.0592 49.0397C38.0277 49.0219 37.9919 49.0129 37.9557 49.0138C37.9371 49.064 37.9035 49.1073 37.8596 49.1379C37.8156 49.1685 37.7634 49.1848 37.7098 49.1848C37.6563 49.1848 37.604 49.1685 37.5601 49.1379C37.5161 49.1073 37.4826 49.064 37.4639 49.0138C37.4282 49.0132 37.3929 49.0222 37.3619 49.0401C37.331 49.0579 37.3054 49.0839 37.2881 49.1152C37.2582 49.179 37.245 49.2494 37.2497 49.3198C37.2544 49.3902 37.2768 49.4582 37.3149 49.5175C37.4128 49.6706 37.5405 49.8023 37.6905 49.905H37.7322C37.7842 49.8682 37.8339 49.8284 37.8812 49.7858C37.9714 49.7102 38.0489 49.6206 38.1107 49.5205C38.1493 49.4609 38.1722 49.3925 38.1774 49.3216C38.1826 49.2508 38.1699 49.1798 38.1405 49.1152H38.1345ZM30.5346 45.8636C30.5168 45.8321 30.4907 45.806 30.4592 45.7882C30.4277 45.7703 30.392 45.7614 30.3558 45.7623C30.3028 45.7647 30.2516 45.7822 30.2082 45.8129C30.1649 45.8435 30.1313 45.8859 30.1114 45.9351C30.0893 45.8869 30.0547 45.8455 30.0112 45.8151C29.9677 45.7847 29.9169 45.7665 29.864 45.7623C29.8283 45.7616 29.793 45.7707 29.762 45.7885C29.731 45.8064 29.7055 45.8323 29.6882 45.8636C29.6579 45.9277 29.6442 45.9985 29.6483 46.0693C29.6525 46.1401 29.6744 46.2088 29.712 46.2689C29.8123 46.4203 29.9408 46.5508 30.0905 46.6534H30.1323C30.1323 46.6534 30.2038 46.6027 30.2813 46.5342C30.372 46.46 30.4487 46.3702 30.5078 46.2689C30.5459 46.209 30.5683 46.1405 30.573 46.0697C30.5777 45.9989 30.5645 45.928 30.5346 45.8636ZM35.6012 45.8636C35.5832 45.8323 35.557 45.8064 35.5256 45.7886C35.4942 45.7708 35.4585 45.7617 35.4224 45.7623C35.3695 45.7665 35.3187 45.7847 35.2752 45.8151C35.2317 45.8455 35.1971 45.8869 35.175 45.9351C35.1551 45.8859 35.1215 45.8435 35.0782 45.8129C35.0349 45.7822 34.9836 45.7647 34.9306 45.7623C34.8944 45.7614 34.8587 45.7703 34.8272 45.7882C34.7957 45.806 34.7696 45.8321 34.7518 45.8636C34.7219 45.928 34.7087 45.9989 34.7134 46.0697C34.7181 46.1405 34.7405 46.209 34.7786 46.2689C34.878 46.4209 35.0067 46.5516 35.1571 46.6534H35.1959C35.2486 46.6163 35.2993 46.5765 35.3479 46.5342C35.4378 46.4592 35.5144 46.3695 35.5744 46.2689C35.6127 46.2092 35.6357 46.141 35.6414 46.0704C35.6472 45.9997 35.6354 45.9287 35.6072 45.8636H35.6012ZM22.9228 55.6302C22.9049 55.5987 22.8789 55.5727 22.8474 55.5548C22.8159 55.537 22.7801 55.528 22.7439 55.5289C22.6908 55.5309 22.6395 55.5484 22.5961 55.5791C22.5527 55.6097 22.5192 55.6524 22.4996 55.7018C22.4794 55.6521 22.4454 55.6094 22.4015 55.5787C22.3576 55.548 22.3057 55.5307 22.2522 55.5289C22.2161 55.5286 22.1806 55.5378 22.1492 55.5556C22.1178 55.5734 22.0917 55.5991 22.0734 55.6302C22.0443 55.6943 22.0315 55.7646 22.0362 55.8348C22.0409 55.905 22.0628 55.973 22.1002 56.0326C22.1986 56.1854 22.3275 56.3163 22.4787 56.4171H22.5204C22.5722 56.3811 22.6219 56.3423 22.6694 56.3008C22.7596 56.2249 22.8362 56.1342 22.8959 56.0326C22.9371 55.9724 22.9618 55.9025 22.9676 55.8298C22.9733 55.7571 22.9599 55.6842 22.9287 55.6183L22.9228 55.6302ZM27.9894 55.6302C27.9711 55.5991 27.9449 55.5734 27.9135 55.5556C27.8821 55.5378 27.8466 55.5286 27.8106 55.5289C27.757 55.5307 27.7052 55.548 27.6613 55.5787C27.6174 55.6094 27.5833 55.6521 27.5632 55.7018C27.5436 55.6524 27.51 55.6097 27.4667 55.5791C27.4233 55.5484 27.3719 55.5309 27.3188 55.5289C27.2826 55.528 27.2468 55.537 27.2153 55.5548C27.1838 55.5727 27.1578 55.5987 27.14 55.6302C27.1101 55.6941 27.0969 55.7645 27.1016 55.8349C27.1062 55.9052 27.1287 55.9733 27.1668 56.0326C27.2652 56.1854 27.3941 56.3163 27.5453 56.4171H27.584C27.6371 56.3815 27.6879 56.3427 27.736 56.3008C27.8246 56.2233 27.9009 56.1328 27.9626 56.0326C28.0039 55.9726 28.0291 55.903 28.0359 55.8305C28.0427 55.758 28.0308 55.6849 28.0013 55.6183L27.9894 55.6302ZM33.056 55.6302C33.0382 55.5987 33.0121 55.5727 32.9806 55.5548C32.9491 55.537 32.9134 55.528 32.8772 55.5289C32.8241 55.5309 32.7727 55.5484 32.7293 55.5791C32.6859 55.6097 32.6524 55.6524 32.6328 55.7018C32.6123 55.6524 32.5782 55.6098 32.5344 55.5792C32.4905 55.5486 32.4388 55.5311 32.3854 55.5289C32.3493 55.5283 32.3136 55.5374 32.2822 55.5552C32.2508 55.573 32.2247 55.5989 32.2066 55.6302C32.1775 55.6943 32.1647 55.7646 32.1694 55.8348C32.1741 55.905 32.1961 55.973 32.2334 56.0326C32.3318 56.1854 32.4607 56.3163 32.6119 56.4171H32.6507C32.7043 56.3824 32.7551 56.3435 32.8027 56.3008C32.8928 56.2249 32.9694 56.1342 33.0292 56.0326C33.0718 55.9732 33.0981 55.9037 33.1054 55.831C33.1127 55.7583 33.1008 55.685 33.0709 55.6183L33.056 55.6302ZM38.1226 55.6302C38.1048 55.5987 38.0787 55.5727 38.0472 55.5548C38.0157 55.537 37.98 55.528 37.9438 55.5289C37.9252 55.5791 37.8916 55.6224 37.8477 55.653C37.8037 55.6835 37.7514 55.6999 37.6979 55.6999C37.6444 55.6999 37.5921 55.6835 37.5482 55.653C37.5042 55.6224 37.4707 55.5791 37.452 55.5289C37.4163 55.5282 37.381 55.5373 37.35 55.5551C37.319 55.573 37.2935 55.599 37.2762 55.6302C37.2463 55.6941 37.2331 55.7645 37.2378 55.8349C37.2425 55.9052 37.2649 55.9733 37.303 56.0326C37.4006 56.185 37.5284 56.3159 37.6785 56.4171H37.7203C37.7726 56.3819 37.8224 56.3431 37.8693 56.3008C37.9595 56.2242 38.037 56.1336 38.0988 56.0326C38.1414 55.9732 38.1677 55.9037 38.175 55.831C38.1823 55.7583 38.1704 55.685 38.1405 55.6183L38.1226 55.6302ZM43.1892 55.6302C43.1712 55.5989 43.145 55.573 43.1136 55.5552C43.0822 55.5374 43.0465 55.5283 43.0104 55.5289C42.957 55.5311 42.9053 55.5486 42.8614 55.5792C42.8176 55.6098 42.7835 55.6524 42.763 55.7018C42.7434 55.6524 42.7099 55.6097 42.6665 55.5791C42.6231 55.5484 42.5717 55.5309 42.5186 55.5289C42.4825 55.5283 42.4469 55.5374 42.4154 55.5552C42.384 55.573 42.3579 55.5989 42.3398 55.6302C42.3099 55.6941 42.2967 55.7645 42.3014 55.8349C42.3061 55.9052 42.3285 55.9733 42.3666 56.0326C42.4651 56.1854 42.5939 56.3163 42.7451 56.4171H42.7839C42.8369 56.3815 42.8877 56.3427 42.9359 56.3008C43.0252 56.2241 43.1017 56.1335 43.1624 56.0326C43.2057 55.9737 43.233 55.9046 43.2419 55.8321C43.2508 55.7595 43.2409 55.6859 43.2131 55.6183L43.1892 55.6302ZM25.4412 52.3518C25.4231 52.3205 25.397 52.2946 25.3656 52.2768C25.3341 52.259 25.2985 52.2499 25.2623 52.2505C25.2092 52.2525 25.1579 52.27 25.1145 52.3007C25.0711 52.3313 25.0376 52.374 25.018 52.4234C24.9975 52.374 24.9634 52.3314 24.9195 52.3008C24.8757 52.2702 24.824 52.2527 24.7706 52.2505C24.7345 52.2499 24.6988 52.259 24.6674 52.2768C24.6359 52.2946 24.6098 52.3205 24.5918 52.3518C24.5627 52.4159 24.5499 52.4862 24.5546 52.5564C24.5593 52.6266 24.5813 52.6946 24.6186 52.7542C24.7173 52.9076 24.846 53.0394 24.9971 53.1416H25.0358C25.0358 53.1416 25.1074 53.091 25.1878 53.0224C25.278 52.9465 25.3546 52.8558 25.4143 52.7542C25.4558 52.6973 25.4822 52.6309 25.491 52.561C25.4999 52.4912 25.4909 52.4203 25.465 52.3548L25.4412 52.3518ZM30.5078 52.3518C30.49 52.3203 30.4639 52.2943 30.4324 52.2764C30.4009 52.2586 30.3652 52.2496 30.329 52.2505C30.2759 52.2525 30.2245 52.27 30.1811 52.3007C30.1377 52.3313 30.1042 52.374 30.0846 52.4234C30.0644 52.3737 30.0304 52.331 29.9865 52.3003C29.9426 52.2696 29.8907 52.2523 29.8372 52.2505C29.8014 52.2498 29.7662 52.2589 29.7352 52.2768C29.7042 52.2946 29.6787 52.3206 29.6614 52.3518C29.631 52.4155 29.6173 52.4857 29.6215 52.5561C29.6256 52.6264 29.6476 52.6946 29.6852 52.7542C29.7848 52.9069 29.9134 53.0385 30.0637 53.1416H30.1054C30.1054 53.1416 30.177 53.091 30.2545 53.0224C30.3446 52.9465 30.4212 52.8558 30.481 52.7542C30.5229 52.6976 30.5498 52.6313 30.5592 52.5614C30.5686 52.4916 30.5601 52.4205 30.5346 52.3548L30.5078 52.3518ZM35.5744 52.3518C35.5563 52.3205 35.5302 52.2946 35.4988 52.2768C35.4673 52.259 35.4317 52.2499 35.3956 52.2505C35.3421 52.2527 35.2905 52.2702 35.2466 52.3008C35.2028 52.3314 35.1686 52.374 35.1482 52.4234C35.1286 52.374 35.0951 52.3313 35.0517 52.3007C35.0083 52.27 34.9569 52.2525 34.9038 52.2505C34.8676 52.2496 34.8319 52.2586 34.8004 52.2764C34.7689 52.2943 34.7428 52.3203 34.725 52.3518C34.6951 52.4157 34.6819 52.4861 34.6866 52.5565C34.6913 52.6268 34.7137 52.6949 34.7518 52.7542C34.8505 52.9076 34.9793 53.0394 35.1303 53.1416H35.1691C35.1691 53.1416 35.2406 53.091 35.3211 53.0224C35.4104 52.9457 35.4869 52.8551 35.5476 52.7542C35.5897 52.6977 35.6173 52.6317 35.6277 52.562C35.6381 52.4923 35.631 52.4211 35.6072 52.3548L35.5744 52.3518ZM40.641 52.3518C40.6232 52.3203 40.5971 52.2943 40.5656 52.2764C40.5341 52.2586 40.4984 52.2496 40.4622 52.2505C40.4091 52.2525 40.3577 52.27 40.3143 52.3007C40.2709 52.3313 40.2374 52.374 40.2178 52.4234C40.1977 52.3737 40.1636 52.331 40.1197 52.3003C40.0758 52.2696 40.024 52.2523 39.9704 52.2505C39.9343 52.2502 39.8988 52.2594 39.8674 52.2772C39.8361 52.295 39.8099 52.3208 39.7916 52.3518C39.7625 52.4159 39.7497 52.4862 39.7544 52.5564C39.7591 52.6266 39.7811 52.6946 39.8184 52.7542C39.9171 52.9076 40.0459 53.0394 40.1969 53.1416H40.2357C40.2357 53.1416 40.3102 53.091 40.3877 53.0224C40.4778 52.9465 40.5544 52.8558 40.6142 52.7542C40.6576 52.6984 40.6861 52.6325 40.6971 52.5626C40.708 52.4927 40.701 52.4212 40.6768 52.3548L40.641 52.3518ZM17.8204 62.1155C17.8028 62.0844 17.7772 62.0587 17.7463 62.0408C17.7154 62.023 17.6802 62.0138 17.6445 62.0142C17.5911 62.0164 17.5394 62.0338 17.4956 62.0645C17.4518 62.0951 17.4176 62.1376 17.3972 62.187C17.3972 62.187 17.3972 62.1662 17.3972 62.1572C17.3227 62.348 17.2511 62.5357 17.1856 62.7295C17.2503 62.7926 17.3201 62.8504 17.3942 62.9023H17.4359C17.4359 62.9023 17.5045 62.8517 17.5849 62.7831C17.6734 62.7066 17.7498 62.6172 17.8114 62.5179C17.8514 62.4602 17.8764 62.3935 17.8842 62.3238C17.892 62.2541 17.8824 62.1835 17.8561 62.1185L17.8204 62.1155ZM22.887 62.1155C22.8692 62.084 22.8431 62.0579 22.8116 62.0401C22.7801 62.0222 22.7444 62.0133 22.7082 62.0142C22.6552 62.0166 22.604 62.0341 22.5606 62.0648C22.5173 62.0954 22.4837 62.1378 22.4638 62.187C22.4417 62.1388 22.4071 62.0974 22.3636 62.067C22.3201 62.0366 22.2693 62.0184 22.2164 62.0142C22.1803 62.0139 22.1448 62.0231 22.1134 62.0409C22.0821 62.0587 22.0559 62.0844 22.0376 62.1155C22.0085 62.1801 21.9957 62.2508 22.0004 62.3215C22.0051 62.3922 22.0271 62.4607 22.0644 62.5208C22.1628 62.6736 22.2917 62.8045 22.4429 62.9053H22.4846C22.5369 62.8688 22.5866 62.829 22.6337 62.7861C22.7244 62.7119 22.8011 62.6221 22.8602 62.5208C22.9046 62.465 22.9342 62.3988 22.9462 62.3285C22.9581 62.2581 22.9521 62.1859 22.9287 62.1185L22.887 62.1155ZM27.9536 62.1155C27.9353 62.0844 27.9092 62.0587 27.8778 62.0409C27.8464 62.0231 27.8109 62.0139 27.7748 62.0142C27.7219 62.0184 27.6711 62.0366 27.6276 62.067C27.5841 62.0974 27.5495 62.1388 27.5274 62.187C27.5075 62.1378 27.4739 62.0954 27.4306 62.0648C27.3872 62.0341 27.336 62.0166 27.283 62.0142C27.2468 62.0133 27.2111 62.0222 27.1796 62.0401C27.1481 62.0579 27.122 62.084 27.1042 62.1155C27.0743 62.1799 27.0611 62.2508 27.0658 62.3216C27.0705 62.3924 27.0929 62.4609 27.131 62.5208C27.2295 62.6736 27.3583 62.8045 27.5095 62.9053H27.5483C27.6018 62.8693 27.6526 62.8295 27.7003 62.7861C27.7894 62.7103 27.8659 62.6208 27.9268 62.5208C27.9715 62.4652 28.0017 62.3993 28.0147 62.329C28.0277 62.2588 28.0231 62.1865 28.0013 62.1185L27.9536 62.1155ZM33.0202 62.1155C33.0024 62.084 32.9764 62.0579 32.9449 62.0401C32.9134 62.0222 32.8776 62.0133 32.8414 62.0142C32.7884 62.0166 32.7372 62.0341 32.6939 62.0648C32.6505 62.0954 32.6169 62.1378 32.597 62.187C32.5749 62.1388 32.5403 62.0974 32.4968 62.067C32.4533 62.0366 32.4025 62.0184 32.3496 62.0142C32.3135 62.0136 32.2779 62.0227 32.2464 62.0405C32.215 62.0583 32.1889 62.0842 32.1708 62.1155C32.1417 62.1801 32.129 62.2508 32.1336 62.3215C32.1383 62.3922 32.1603 62.4607 32.1976 62.5208C32.2961 62.6736 32.4249 62.8045 32.5762 62.9053H32.6149C32.669 62.8701 32.7199 62.8303 32.7669 62.7861C32.8576 62.7119 32.9344 62.6221 32.9934 62.5208C33.0393 62.4658 33.0705 62.4 33.0841 62.3297C33.0976 62.2593 33.0931 62.1866 33.0709 62.1185L33.0202 62.1155ZM38.0868 62.1155C38.069 62.084 38.043 62.0579 38.0115 62.0401C37.98 62.0222 37.9442 62.0133 37.908 62.0142C37.8894 62.0644 37.8558 62.1077 37.8119 62.1382C37.7679 62.1688 37.7157 62.1852 37.6621 62.1852C37.6086 62.1852 37.5563 62.1688 37.5124 62.1382C37.4684 62.1077 37.4349 62.0644 37.4163 62.0142C37.3805 62.0135 37.3452 62.0226 37.3143 62.0404C37.2833 62.0583 37.2577 62.0842 37.2404 62.1155C37.2105 62.1799 37.1973 62.2508 37.202 62.3216C37.2067 62.3924 37.2291 62.4609 37.2672 62.5208C37.3649 62.6733 37.4927 62.8041 37.6428 62.9053H37.6845C37.7373 62.8697 37.7872 62.8298 37.8335 62.7861C37.9244 62.7112 38.002 62.6215 38.063 62.5208C38.1089 62.4658 38.1401 62.4 38.1537 62.3297C38.1672 62.2593 38.1627 62.1866 38.1405 62.1185L38.0868 62.1155ZM43.1535 62.1155C43.1354 62.0842 43.1093 62.0583 43.0778 62.0405C43.0464 62.0227 43.0108 62.0136 42.9746 62.0142C42.9217 62.0184 42.8709 62.0366 42.8274 62.067C42.784 62.0974 42.7494 62.1388 42.7273 62.187C42.7073 62.1378 42.6737 62.0954 42.6304 62.0648C42.5871 62.0341 42.5359 62.0166 42.4829 62.0142C42.4467 62.0136 42.4111 62.0227 42.3797 62.0405C42.3482 62.0583 42.3221 62.0842 42.304 62.1155C42.2742 62.1799 42.261 62.2508 42.2657 62.3216C42.2703 62.3924 42.2928 62.4609 42.3309 62.5208C42.4293 62.6736 42.5582 62.8045 42.7094 62.9053H42.7481C42.8016 62.8693 42.8524 62.8295 42.9001 62.7861C42.9901 62.7111 43.0666 62.6214 43.1266 62.5208C43.1734 62.4662 43.2057 62.4009 43.2208 62.3306C43.2359 62.2604 43.2332 62.1875 43.2131 62.1185L43.1535 62.1155ZM20.3924 58.858C20.3752 58.8264 20.3498 58.8 20.3189 58.7816C20.2879 58.7632 20.2526 58.7536 20.2166 58.7537C20.1993 58.8052 20.1663 58.85 20.1222 58.8818C20.0781 58.9136 20.0251 58.9306 19.9707 58.9306C19.9164 58.9306 19.8634 58.9136 19.8192 58.8818C19.7751 58.85 19.7421 58.8052 19.7248 58.7537C19.6884 58.7534 19.6526 58.7629 19.6211 58.7813C19.5896 58.7996 19.5637 58.8261 19.546 58.858C19.5161 58.9218 19.5029 58.9922 19.5076 59.0626C19.5123 59.133 19.5347 59.201 19.5728 59.2603C19.6714 59.4121 19.799 59.5427 19.9484 59.6448H19.9901C20.0436 59.6088 20.0944 59.569 20.1421 59.5256C20.2313 59.4498 20.3077 59.3603 20.3686 59.2603C20.4062 59.2007 20.4281 59.1326 20.4323 59.0622C20.4365 58.9919 20.4228 58.9216 20.3924 58.858ZM25.4591 58.858C25.4411 58.8263 25.4151 58.8 25.3837 58.7817C25.3523 58.7633 25.3166 58.7537 25.2802 58.7537C25.2269 58.7563 25.1754 58.7743 25.1321 58.8055C25.0887 58.8367 25.0553 58.8798 25.0358 58.9295C25.0141 58.8807 24.9797 58.8387 24.9362 58.8077C24.8927 58.7768 24.8417 58.7581 24.7885 58.7537C24.7521 58.7537 24.7164 58.7633 24.685 58.7817C24.6536 58.8 24.6276 58.8263 24.6096 58.858C24.5806 58.922 24.5678 58.9923 24.5725 59.0625C24.5771 59.1327 24.5991 59.2007 24.6365 59.2603C24.7349 59.4131 24.8637 59.544 25.015 59.6448H25.0537C25.1072 59.6088 25.158 59.569 25.2057 59.5256C25.2965 59.4514 25.3732 59.3616 25.4322 59.2603C25.4713 59.2015 25.4948 59.1337 25.5005 59.0634C25.5062 58.993 25.494 58.9223 25.465 58.858H25.4591ZM30.5257 58.858C30.508 58.8261 30.482 58.7996 30.4506 58.7813C30.4191 58.7629 30.3833 58.7534 30.3468 58.7537C30.2935 58.7563 30.242 58.7743 30.1987 58.8055C30.1553 58.8367 30.1219 58.8798 30.1025 58.9295C30.0825 58.8795 30.0485 58.8364 30.0046 58.8052C29.9608 58.774 29.9089 58.7561 29.8551 58.7537C29.8191 58.7536 29.7838 58.7632 29.7528 58.7816C29.7218 58.8 29.6964 58.8264 29.6792 58.858C29.6489 58.9216 29.6352 58.9919 29.6394 59.0622C29.6435 59.1326 29.6655 59.2007 29.7031 59.2603C29.8024 59.4124 29.931 59.5432 30.0816 59.6448H30.1233C30.1755 59.6083 30.2253 59.5685 30.2723 59.5256C30.3631 59.4514 30.4398 59.3616 30.4988 59.2603C30.5384 59.2018 30.5624 59.1341 30.5687 59.0638C30.5749 58.9934 30.5632 58.9226 30.5346 58.858H30.5257ZM35.5923 58.858C35.5744 58.8263 35.5484 58.8 35.517 58.7817C35.4855 58.7633 35.4498 58.7537 35.4135 58.7537C35.3603 58.7581 35.3092 58.7768 35.2657 58.8077C35.2222 58.8387 35.1878 58.8807 35.1661 58.9295C35.1466 58.8798 35.1132 58.8367 35.0698 58.8055C35.0265 58.7743 34.975 58.7563 34.9217 58.7537C34.8853 58.7534 34.8494 58.7629 34.818 58.7813C34.7865 58.7996 34.7606 58.8261 34.7429 58.858C34.713 58.9218 34.6998 58.9922 34.7045 59.0626C34.7091 59.133 34.7316 59.201 34.7697 59.2603C34.8681 59.4131 34.997 59.544 35.1482 59.6448H35.1869C35.2404 59.6088 35.2912 59.569 35.3389 59.5256C35.4289 59.4506 35.5055 59.3609 35.5655 59.2603C35.6052 59.202 35.6298 59.1346 35.6371 59.0644C35.6444 58.9942 35.6341 58.9232 35.6072 58.858H35.5923ZM40.6589 58.858C40.6412 58.8261 40.6153 58.7996 40.5838 58.7813C40.5523 58.7629 40.5165 58.7534 40.4801 58.7537C40.4267 58.7563 40.3753 58.7743 40.3319 58.8055C40.2886 58.8367 40.2551 58.8798 40.2357 58.9295C40.2157 58.8795 40.1817 58.8364 40.1379 58.8052C40.094 58.774 40.0421 58.7561 39.9883 58.7537C39.952 58.754 39.9164 58.7638 39.885 58.7821C39.8537 58.8004 39.8276 58.8265 39.8095 58.858C39.7804 58.922 39.7676 58.9923 39.7723 59.0625C39.777 59.1327 39.799 59.2007 39.8363 59.2603C39.9347 59.4131 40.0636 59.544 40.2148 59.6448H40.2536C40.3077 59.6096 40.3585 59.5697 40.4056 59.5256C40.4963 59.4514 40.573 59.3616 40.6321 59.2603C40.6731 59.2026 40.6987 59.1353 40.7065 59.0649C40.7143 58.9945 40.7041 58.9233 40.6768 58.858H40.6589ZM45.6123 58.7626C45.5925 58.7597 45.5724 58.7597 45.5526 58.7626C45.4998 58.7668 45.4489 58.785 45.4055 58.8154C45.362 58.8458 45.3274 58.8872 45.3053 58.9355C45.2848 58.886 45.2507 58.8435 45.2069 58.8129C45.163 58.7822 45.1113 58.7648 45.0579 58.7626C45.0221 58.7619 44.9869 58.771 44.9559 58.7888C44.9249 58.8067 44.8994 58.8327 44.8821 58.8639C44.8517 58.9281 44.838 58.9988 44.8422 59.0696C44.8464 59.1405 44.8683 59.2091 44.9059 59.2693C45.0072 59.4216 45.1367 59.5531 45.2874 59.6567H45.3261C45.3261 59.6567 45.3977 59.606 45.4752 59.5345C45.566 59.4596 45.6436 59.37 45.7046 59.2693C45.7299 59.2205 45.748 59.1683 45.7583 59.1143L45.6123 58.7626ZM17.8412 68.6216C17.8232 68.5903 17.7971 68.5644 17.7656 68.5466C17.7342 68.5288 17.6986 68.5197 17.6624 68.5203C17.609 68.5225 17.5573 68.5399 17.5135 68.5706C17.4696 68.6012 17.4355 68.6437 17.4151 68.6932C17.3955 68.6438 17.3619 68.6011 17.3185 68.5704C17.2751 68.5398 17.2238 68.5223 17.1707 68.5203C17.1345 68.5194 17.0987 68.5283 17.0672 68.5462C17.0357 68.564 17.0097 68.5901 16.9918 68.6216C16.962 68.6855 16.9487 68.7559 16.9534 68.8263C16.9581 68.8966 16.9806 68.9646 17.0187 69.024C17.1174 69.1774 17.2461 69.3092 17.3972 69.4114H17.4359C17.4886 69.3743 17.5393 69.3345 17.5879 69.2922C17.6772 69.2166 17.7537 69.127 17.8144 69.027C17.8547 68.9683 17.8798 68.9006 17.8876 68.8299C17.8954 68.7592 17.8856 68.6877 17.8591 68.6216H17.8412ZM22.9079 68.6216C22.89 68.5901 22.864 68.564 22.8325 68.5462C22.801 68.5283 22.7652 68.5194 22.729 68.5203C22.6759 68.5223 22.6246 68.5398 22.5812 68.5704C22.5378 68.6011 22.5042 68.6438 22.4846 68.6932C22.4645 68.6435 22.4305 68.6008 22.3866 68.5701C22.3427 68.5394 22.2908 68.5221 22.2373 68.5203C22.2012 68.52 22.1657 68.5292 22.1343 68.547C22.1029 68.5648 22.0768 68.5905 22.0585 68.6216C22.0294 68.6857 22.0166 68.756 22.0213 68.8262C22.026 68.8964 22.0479 68.9643 22.0853 69.024C22.184 69.1774 22.3127 69.3092 22.4638 69.4114H22.5055C22.5055 69.4114 22.577 69.3608 22.6545 69.2922C22.7446 69.2173 22.8212 69.1276 22.881 69.027C22.9225 68.9689 22.9486 68.9013 22.957 68.8304C22.9653 68.7596 22.9556 68.6877 22.9287 68.6216H22.9079ZM27.9745 68.6216C27.9562 68.5905 27.93 68.5648 27.8986 68.547C27.8672 68.5292 27.8317 68.52 27.7957 68.5203C27.7421 68.5221 27.6903 68.5394 27.6464 68.5701C27.6025 68.6008 27.5684 68.6435 27.5483 68.6932C27.5287 68.6438 27.4951 68.6011 27.4518 68.5704C27.4084 68.5398 27.357 68.5223 27.3039 68.5203C27.2677 68.5194 27.2319 68.5283 27.2004 68.5462C27.1689 68.564 27.1429 68.5901 27.1251 68.6216C27.0952 68.6855 27.082 68.7559 27.0867 68.8263C27.0913 68.8966 27.1138 68.9646 27.1519 69.024C27.2506 69.1774 27.3794 69.3092 27.5304 69.4114H27.5691C27.6218 69.3743 27.6725 69.3345 27.7211 69.2922C27.8096 69.2158 27.886 69.1263 27.9477 69.027C27.9894 68.9691 28.0161 68.9018 28.0254 68.831C28.0348 68.7603 28.0265 68.6884 28.0013 68.6216H27.9745ZM33.0411 68.6216C33.0233 68.5901 32.9972 68.564 32.9657 68.5462C32.9342 68.5283 32.8985 68.5194 32.8623 68.5203C32.8092 68.5223 32.7578 68.5398 32.7144 68.5704C32.671 68.6011 32.6375 68.6438 32.6179 68.6932C32.5974 68.6437 32.5633 68.6012 32.5195 68.5706C32.4756 68.5399 32.4239 68.5225 32.3705 68.5203C32.3344 68.5197 32.2987 68.5288 32.2673 68.5466C32.2359 68.5644 32.2098 68.5903 32.1917 68.6216C32.1626 68.6857 32.1498 68.756 32.1545 68.8262C32.1592 68.8964 32.1812 68.9643 32.2185 69.024C32.3172 69.1774 32.446 69.3092 32.597 69.4114H32.6358C32.689 69.3752 32.7398 69.3353 32.7878 69.2922C32.8778 69.2173 32.9544 69.1276 33.0143 69.027C33.0572 68.9697 33.0849 68.9025 33.0948 68.8316C33.1047 68.7607 33.0965 68.6885 33.0709 68.6216H33.0411ZM38.1077 68.6216C38.0899 68.5901 38.0638 68.564 38.0323 68.5462C38.0008 68.5283 37.9651 68.5194 37.9289 68.5203C37.9103 68.5705 37.8767 68.6138 37.8327 68.6444C37.7888 68.6749 37.7365 68.6913 37.683 68.6913C37.6295 68.6913 37.5772 68.6749 37.5333 68.6444C37.4893 68.6138 37.4557 68.5705 37.4371 68.5203C37.4014 68.5196 37.3661 68.5287 37.3351 68.5465C37.3041 68.5644 37.2786 68.5904 37.2613 68.6216C37.2314 68.6855 37.2182 68.7559 37.2229 68.8263C37.2276 68.8966 37.25 68.9646 37.2881 69.024C37.386 69.177 37.5137 69.3088 37.6636 69.4114H37.7054C37.7574 69.3747 37.8071 69.3349 37.8544 69.2922C37.9446 69.2166 38.022 69.1271 38.0839 69.027C38.1268 68.9697 38.1545 68.9025 38.1644 68.8316C38.1743 68.7607 38.1661 68.6885 38.1405 68.6216H38.1077ZM43.1743 68.6216C43.1563 68.5903 43.1301 68.5644 43.0987 68.5466C43.0673 68.5288 43.0316 68.5197 42.9955 68.5203C42.9421 68.5225 42.8904 68.5399 42.8465 68.5706C42.8027 68.6012 42.7686 68.6437 42.7481 68.6932C42.7285 68.6438 42.695 68.6011 42.6516 68.5704C42.6082 68.5398 42.5568 68.5223 42.5037 68.5203C42.4676 68.5197 42.432 68.5288 42.4005 68.5466C42.3691 68.5644 42.343 68.5903 42.3249 68.6216C42.295 68.6855 42.2818 68.7559 42.2865 68.8263C42.2912 68.8966 42.3136 68.9646 42.3517 69.024C42.4504 69.1774 42.5792 69.3092 42.7302 69.4114H42.769C42.8216 69.3743 42.8724 69.3345 42.921 69.2922C43.0103 69.2166 43.0868 69.127 43.1475 69.027C43.1912 68.9701 43.22 68.9033 43.2315 68.8326C43.2429 68.7618 43.2366 68.6893 43.2131 68.6216H43.1743ZM20.3537 65.3581C20.3364 65.3269 20.3108 65.3009 20.2798 65.283C20.2489 65.2652 20.2136 65.2561 20.1779 65.2568C20.1592 65.307 20.1257 65.3503 20.0817 65.3809C20.0378 65.4114 19.9855 65.4278 19.932 65.4278C19.8784 65.4278 19.8262 65.4114 19.7822 65.3809C19.7383 65.3503 19.7047 65.307 19.6861 65.2568C19.6499 65.2559 19.6141 65.2648 19.5826 65.2827C19.5511 65.3005 19.5251 65.3266 19.5073 65.3581C19.4774 65.422 19.4642 65.4924 19.4688 65.5628C19.4735 65.6331 19.496 65.7012 19.5341 65.7605C19.6329 65.9129 19.7604 66.0445 19.9096 66.1479H19.9513C20.004 66.1108 20.0547 66.071 20.1033 66.0287C20.1925 65.953 20.269 65.8634 20.3298 65.7635C20.3738 65.7067 20.4026 65.6398 20.4135 65.5689C20.4245 65.498 20.4172 65.4255 20.3924 65.3581H20.3537ZM25.4203 65.3581C25.4022 65.3268 25.3761 65.3009 25.3447 65.2831C25.3132 65.2653 25.2776 65.2562 25.2415 65.2568C25.1884 65.2588 25.137 65.2763 25.0936 65.3069C25.0502 65.3376 25.0167 65.3803 24.9971 65.4297C24.9767 65.3803 24.9425 65.3377 24.8987 65.3071C24.8548 65.2765 24.8032 65.259 24.7497 65.2568C24.7136 65.2562 24.678 65.2653 24.6465 65.2831C24.6151 65.3009 24.589 65.3268 24.5709 65.3581C24.5418 65.4222 24.529 65.4925 24.5337 65.5627C24.5384 65.6329 24.5604 65.7009 24.5977 65.7605C24.6964 65.9139 24.8252 66.0457 24.9762 66.1479H25.015C25.0676 66.1108 25.1184 66.071 25.167 66.0287C25.2577 65.9546 25.3344 65.8647 25.3935 65.7635C25.4389 65.7076 25.4693 65.641 25.4818 65.5701C25.4944 65.4992 25.4886 65.4262 25.465 65.3581H25.4203ZM30.4869 65.3581C30.4691 65.3266 30.443 65.3005 30.4115 65.2827C30.38 65.2648 30.3443 65.2559 30.3081 65.2568C30.255 65.2588 30.2036 65.2763 30.1602 65.3069C30.1168 65.3376 30.0833 65.3803 30.0637 65.4297C30.0436 65.38 30.0095 65.3373 29.9656 65.3066C29.9217 65.2759 29.8699 65.2586 29.8163 65.2568C29.7806 65.2561 29.7453 65.2652 29.7143 65.283C29.6834 65.3009 29.6578 65.3269 29.6405 65.3581C29.6102 65.4218 29.5964 65.492 29.6006 65.5624C29.6048 65.6327 29.6267 65.7009 29.6643 65.7605C29.7639 65.9132 29.8925 66.0448 30.0428 66.1479H30.0846C30.0846 66.1479 30.1561 66.0973 30.2336 66.0287C30.3243 65.9546 30.4011 65.8647 30.4601 65.7635C30.506 65.7079 30.537 65.6414 30.55 65.5705C30.5631 65.4996 30.5578 65.4265 30.5346 65.3581H30.4869ZM35.5535 65.3581C35.5355 65.3268 35.5094 65.3009 35.4779 65.2831C35.4465 65.2653 35.4108 65.2562 35.3747 65.2568C35.3213 65.259 35.2696 65.2765 35.2258 65.3071C35.1819 65.3377 35.1478 65.3803 35.1273 65.4297C35.1077 65.3803 35.0742 65.3376 35.0308 65.3069C34.9874 65.2763 34.9361 65.2588 34.883 65.2568C34.8468 65.2559 34.811 65.2648 34.7795 65.2827C34.748 65.3005 34.7219 65.3266 34.7041 65.3581C34.6742 65.422 34.661 65.4924 34.6657 65.5628C34.6704 65.6331 34.6928 65.7012 34.731 65.7605C34.8297 65.9139 34.9584 66.0457 35.1095 66.1479H35.1482C35.2009 66.1108 35.2516 66.071 35.3002 66.0287C35.3901 65.9537 35.4667 65.864 35.5267 65.7635C35.5729 65.708 35.6045 65.6418 35.6185 65.571C35.6326 65.5002 35.6287 65.427 35.6072 65.3581H35.5535ZM40.6201 65.3581C40.6023 65.3266 40.5763 65.3005 40.5448 65.2827C40.5133 65.2648 40.4775 65.2559 40.4413 65.2568C40.3882 65.2588 40.3368 65.2763 40.2935 65.3069C40.2501 65.3376 40.2165 65.3803 40.1969 65.4297C40.1768 65.38 40.1427 65.3373 40.0988 65.3066C40.0549 65.2759 40.0031 65.2586 39.9496 65.2568C39.9135 65.2565 39.878 65.2657 39.8466 65.2835C39.8152 65.3013 39.789 65.3271 39.7707 65.3581C39.7417 65.4222 39.7289 65.4925 39.7336 65.5627C39.7382 65.6329 39.7602 65.7009 39.7976 65.7605C39.8963 65.9139 40.025 66.0457 40.1761 66.1479H40.2148C40.2681 66.1117 40.3189 66.0718 40.3668 66.0287C40.4576 65.9546 40.5343 65.8647 40.5933 65.7635C40.6408 65.7087 40.6734 65.6427 40.688 65.5717C40.7026 65.5007 40.6987 65.4272 40.6768 65.3581H40.6201ZM45.5139 65.2568C45.4604 65.2586 45.4085 65.2759 45.3646 65.3066C45.3207 65.3373 45.2867 65.38 45.2665 65.4297C45.2467 65.3798 45.2127 65.3369 45.1688 65.3061C45.1248 65.2754 45.0728 65.2583 45.0192 65.2568C44.9834 65.2561 44.9481 65.2652 44.9172 65.283C44.8862 65.3009 44.8606 65.3269 44.8433 65.3581C44.813 65.4218 44.7993 65.492 44.8034 65.5624C44.8076 65.6327 44.8295 65.7009 44.8672 65.7605C44.9665 65.9143 45.0964 66.0462 45.2486 66.1479H45.2874C45.4215 65.9035 45.5586 65.6383 45.6868 65.3552C45.675 65.3318 45.6587 65.311 45.6387 65.2941C45.6187 65.2772 45.5955 65.2645 45.5705 65.2568H45.5139ZM17.7965 75.1248C17.7786 75.0931 17.7526 75.0668 17.7212 75.0485C17.6898 75.0302 17.6541 75.0205 17.6177 75.0205C17.5645 75.0249 17.5135 75.0436 17.47 75.0745C17.4265 75.1055 17.3921 75.1475 17.3703 75.1963C17.3509 75.1466 17.3175 75.1035 17.2741 75.0723C17.2308 75.0411 17.1793 75.0231 17.126 75.0205C17.0895 75.0202 17.0537 75.0297 17.0222 75.0481C16.9908 75.0664 16.9648 75.0929 16.9471 75.1248C16.9172 75.1886 16.904 75.2591 16.9087 75.3294C16.9134 75.3998 16.9359 75.4678 16.974 75.5271C17.0724 75.6799 17.2012 75.8108 17.3525 75.9116H17.3912C17.4447 75.8756 17.4955 75.8358 17.5432 75.7924C17.6331 75.7174 17.7097 75.6277 17.7697 75.5271C17.8174 75.4731 17.8507 75.4079 17.8663 75.3375C17.8819 75.2671 17.8795 75.1939 17.8591 75.1248H17.7965ZM22.8632 75.1248C22.8455 75.0929 22.8195 75.0664 22.7881 75.0481C22.7566 75.0297 22.7208 75.0202 22.6843 75.0205C22.631 75.0231 22.5795 75.0411 22.5362 75.0723C22.4928 75.1035 22.4594 75.1466 22.4399 75.1963C22.42 75.1463 22.386 75.1032 22.3421 75.072C22.2983 75.0408 22.2463 75.0229 22.1926 75.0205C22.1563 75.0208 22.1207 75.0306 22.0893 75.0489C22.0579 75.0672 22.0319 75.0933 22.0138 75.1248C21.9847 75.1888 21.9719 75.2591 21.9766 75.3293C21.9812 75.3995 22.0032 75.4675 22.0406 75.5271C22.139 75.6799 22.2678 75.8108 22.4191 75.9116H22.4608C22.513 75.8751 22.5628 75.8353 22.6098 75.7924C22.7006 75.7182 22.7773 75.6284 22.8363 75.5271C22.8853 75.4738 22.9196 75.4087 22.9358 75.3382C22.952 75.2676 22.9495 75.1941 22.9287 75.1248H22.8632ZM27.9298 75.1248C27.9116 75.0933 27.8856 75.0672 27.8542 75.0489C27.8228 75.0306 27.7873 75.0208 27.7509 75.0205C27.6972 75.0229 27.6453 75.0408 27.6014 75.072C27.5575 75.1032 27.5236 75.1463 27.5036 75.1963C27.4841 75.1466 27.4507 75.1035 27.4073 75.0723C27.364 75.0411 27.3125 75.0231 27.2592 75.0205C27.2228 75.0202 27.1869 75.0297 27.1555 75.0481C27.124 75.0664 27.098 75.0929 27.0804 75.1248C27.0505 75.1886 27.0373 75.2591 27.0419 75.3294C27.0466 75.3998 27.0691 75.4678 27.1072 75.5271C27.2056 75.6799 27.3345 75.8108 27.4857 75.9116H27.5244C27.5779 75.8756 27.6287 75.8358 27.6764 75.7924C27.7656 75.7166 27.8421 75.6271 27.9029 75.5271C27.9522 75.474 27.9871 75.4091 28.0043 75.3387C28.0215 75.2683 28.0205 75.1947 28.0013 75.1248H27.9298ZM32.9964 75.1248C32.9787 75.0929 32.9528 75.0664 32.9213 75.0481C32.8898 75.0297 32.854 75.0202 32.8176 75.0205C32.7642 75.0231 32.7128 75.0411 32.6694 75.0723C32.6261 75.1035 32.5926 75.1466 32.5732 75.1963C32.5515 75.1475 32.5171 75.1055 32.4735 75.0745C32.43 75.0436 32.379 75.0249 32.3258 75.0205C32.2894 75.0205 32.2537 75.0302 32.2223 75.0485C32.1909 75.0668 32.1649 75.0931 32.147 75.1248C32.1179 75.1888 32.1051 75.2591 32.1098 75.3293C32.1145 75.3995 32.1365 75.4675 32.1738 75.5271C32.2722 75.6799 32.4011 75.8108 32.5523 75.9116H32.5911C32.6452 75.8764 32.696 75.8366 32.7431 75.7924C32.8338 75.7182 32.9105 75.6284 32.9696 75.5271C33.0201 75.4747 33.056 75.41 33.0738 75.3394C33.0916 75.2689 33.0906 75.1949 33.0709 75.1248H32.9964ZM38.063 75.1248C38.0453 75.0929 38.0194 75.0664 37.9879 75.0481C37.9564 75.0297 37.9206 75.0202 37.8842 75.0205C37.8669 75.072 37.8339 75.1168 37.7898 75.1486C37.7456 75.1804 37.6927 75.1975 37.6383 75.1975C37.5839 75.1975 37.5309 75.1804 37.4868 75.1486C37.4427 75.1168 37.4097 75.072 37.3924 75.0205C37.3564 75.0204 37.3211 75.0301 37.2901 75.0484C37.2592 75.0668 37.2338 75.0932 37.2166 75.1248C37.1867 75.1886 37.1735 75.2591 37.1782 75.3294C37.1828 75.3998 37.2053 75.4678 37.2434 75.5271C37.341 75.6796 37.4688 75.8104 37.6189 75.9116H37.6606C37.7135 75.876 37.7633 75.8361 37.8097 75.7924C37.9005 75.7175 37.9781 75.6278 38.0392 75.5271C38.0897 75.4747 38.1256 75.41 38.1434 75.3394C38.1612 75.2689 38.1602 75.1949 38.1405 75.1248H38.063ZM43.1296 75.1248C43.1117 75.0931 43.0857 75.0668 43.0543 75.0485C43.0229 75.0302 42.9872 75.0205 42.9508 75.0205C42.8976 75.0249 42.8466 75.0436 42.803 75.0745C42.7595 75.1055 42.7251 75.1475 42.7034 75.1963C42.684 75.1466 42.6505 75.1035 42.6072 75.0723C42.5638 75.0411 42.5124 75.0231 42.459 75.0205C42.4227 75.0205 42.387 75.0302 42.3555 75.0485C42.3241 75.0668 42.2981 75.0931 42.2802 75.1248C42.2503 75.1886 42.2371 75.2591 42.2418 75.3294C42.2465 75.3998 42.2689 75.4678 42.307 75.5271C42.4055 75.6799 42.5343 75.8108 42.6855 75.9116H42.7243C42.7778 75.8756 42.8286 75.8358 42.8763 75.7924C42.9662 75.7174 43.0428 75.6277 43.1028 75.5271C43.1541 75.4751 43.1912 75.4108 43.2105 75.3404C43.2298 75.2699 43.2307 75.1957 43.2131 75.1248H43.1296ZM15.2394 71.8613C15.2216 71.8298 15.1955 71.8037 15.164 71.7858C15.1325 71.768 15.0968 71.7591 15.0606 71.76C15.0075 71.762 14.9561 71.7794 14.9127 71.8101C14.8693 71.8408 14.8358 71.8834 14.8162 71.9328C14.7961 71.8832 14.762 71.8404 14.7181 71.8098C14.6742 71.7791 14.6223 71.7618 14.5688 71.76C14.5327 71.7597 14.4972 71.7689 14.4658 71.7867C14.4344 71.8045 14.4083 71.8302 14.39 71.8613C14.3609 71.9254 14.3481 71.9956 14.3528 72.0658C14.3575 72.136 14.3795 72.204 14.4168 72.2636C14.5155 72.417 14.6443 72.5488 14.7953 72.6511H14.8341C14.8341 72.6511 14.9086 72.6004 14.9861 72.5319C15.0762 72.4559 15.1528 72.3652 15.2126 72.2636C15.2646 72.2121 15.3022 72.1479 15.3216 72.0772C15.341 72.0066 15.3414 71.9321 15.3228 71.8613H15.2394ZM20.306 71.8613C20.2887 71.83 20.2631 71.804 20.2322 71.7862C20.2012 71.7683 20.1659 71.7593 20.1302 71.76C20.1115 71.8102 20.078 71.8534 20.034 71.884C19.9901 71.9146 19.9378 71.931 19.8843 71.931C19.8307 71.931 19.7785 71.9146 19.7345 71.884C19.6906 71.8534 19.657 71.8102 19.6384 71.76C19.6022 71.7591 19.5665 71.768 19.535 71.7858C19.5035 71.8037 19.4774 71.8298 19.4596 71.8613C19.4297 71.9252 19.4165 71.9956 19.4212 72.0659C19.4259 72.1363 19.4483 72.2043 19.4864 72.2636C19.5852 72.416 19.7127 72.5476 19.8619 72.6511H19.9037C19.9037 72.6511 19.9752 72.6004 20.0557 72.5319C20.1442 72.4543 20.2205 72.3639 20.2822 72.2636C20.3342 72.2121 20.3718 72.1479 20.3912 72.0772C20.4105 72.0066 20.411 71.9321 20.3924 71.8613H20.306ZM25.3726 71.8613C25.3546 71.83 25.3285 71.8041 25.297 71.7863C25.2656 71.7685 25.2299 71.7594 25.1938 71.76C25.1407 71.762 25.0893 71.7794 25.0459 71.8101C25.0025 71.8408 24.969 71.8834 24.9494 71.9328C24.929 71.8834 24.8948 71.8409 24.851 71.8102C24.8072 71.7796 24.7555 71.7622 24.702 71.76C24.6659 71.7594 24.6303 71.7685 24.5988 71.7863C24.5674 71.8041 24.5413 71.83 24.5232 71.8613C24.4941 71.9254 24.4814 71.9956 24.486 72.0658C24.4907 72.136 24.5127 72.204 24.55 72.2636C24.6487 72.417 24.7775 72.5488 24.9285 72.6511H24.9673C24.9673 72.6511 25.0388 72.6004 25.1193 72.5319C25.2094 72.4559 25.286 72.3652 25.3458 72.2636C25.3994 72.2131 25.4387 72.1492 25.4597 72.0785C25.4806 72.0079 25.4824 71.9329 25.465 71.8613H25.3726ZM30.4392 71.8613C30.4214 71.8298 30.3954 71.8037 30.3639 71.7858C30.3324 71.768 30.2966 71.7591 30.2604 71.76C30.2073 71.762 30.1559 71.7794 30.1125 71.8101C30.0692 71.8408 30.0356 71.8834 30.016 71.9328C29.9959 71.8832 29.9618 71.8404 29.9179 71.8098C29.874 71.7791 29.8222 71.7618 29.7687 71.76C29.7329 71.7593 29.6976 71.7683 29.6667 71.7862C29.6357 71.804 29.6101 71.83 29.5928 71.8613C29.5625 71.9249 29.5488 71.9952 29.5529 72.0655C29.5571 72.1359 29.579 72.204 29.6167 72.2636C29.7162 72.4163 29.8448 72.548 29.9952 72.6511H30.0369C30.0369 72.6511 30.1084 72.6004 30.1859 72.5319C30.2761 72.4559 30.3527 72.3652 30.4124 72.2636C30.4666 72.2134 30.5064 72.1497 30.5279 72.079C30.5494 72.0083 30.5517 71.9332 30.5346 71.8613H30.4392ZM35.5058 71.8613C35.4878 71.83 35.4617 71.8041 35.4302 71.7863C35.3988 71.7685 35.3632 71.7594 35.327 71.76C35.2736 71.7622 35.2219 71.7796 35.1781 71.8102C35.1342 71.8409 35.1001 71.8834 35.0797 71.9328C35.0601 71.8834 35.0265 71.8408 34.9831 71.8101C34.9397 71.7794 34.8884 71.762 34.8353 71.76C34.7991 71.7591 34.7633 71.768 34.7318 71.7858C34.7003 71.8037 34.6743 71.8298 34.6564 71.8613C34.6265 71.9252 34.6133 71.9956 34.618 72.0659C34.6227 72.1363 34.6452 72.2043 34.6833 72.2636C34.782 72.417 34.9107 72.5488 35.0618 72.6511H35.1005C35.1005 72.6511 35.172 72.6004 35.2525 72.5319C35.3419 72.4551 35.4183 72.3646 35.479 72.2636C35.5335 72.2135 35.574 72.15 35.5964 72.0795C35.6189 72.0089 35.6226 71.9337 35.6072 71.8613H35.5058ZM40.5725 71.8613C40.5546 71.8298 40.5286 71.8037 40.4971 71.7858C40.4656 71.768 40.4298 71.7591 40.3936 71.76C40.3405 71.762 40.2892 71.7794 40.2458 71.8101C40.2024 71.8408 40.1689 71.8834 40.1492 71.9328C40.1291 71.8832 40.0951 71.8404 40.0512 71.8098C40.0073 71.7791 39.9554 71.7618 39.9019 71.76C39.8658 71.7597 39.8303 71.7689 39.7989 71.7867C39.7675 71.8045 39.7414 71.8302 39.7231 71.8613C39.694 71.9254 39.6812 71.9956 39.6859 72.0658C39.6906 72.136 39.7125 72.204 39.7499 72.2636C39.8486 72.417 39.9773 72.5488 40.1284 72.6511H40.1671C40.1671 72.6511 40.2416 72.6004 40.3191 72.5319C40.4093 72.4559 40.4859 72.3652 40.5456 72.2636C40.6014 72.2144 40.6429 72.1511 40.666 72.0803C40.6891 72.0096 40.6928 71.934 40.6768 71.8613H40.5725ZM44.7807 71.9C44.7596 71.9597 44.7521 72.0233 44.7588 72.0862C44.7655 72.1492 44.7862 72.2098 44.8195 72.2636C44.8276 72.2822 44.8386 72.2993 44.8523 72.3143L44.7807 71.9ZM12.7866 81.6279C12.7689 81.5961 12.7429 81.5696 12.7115 81.5512C12.68 81.5329 12.6442 81.5233 12.6077 81.5236C12.5547 81.526 12.5035 81.5436 12.4602 81.5742C12.4169 81.6049 12.3833 81.6473 12.3633 81.6965C12.3467 81.663 12.3256 81.632 12.3008 81.6041C12.2531 81.8693 12.2203 82.1018 12.1875 82.2955C12.2368 82.3383 12.2885 82.3781 12.3425 82.4147H12.3842L12.5332 82.2985C12.6249 82.223 12.7017 82.131 12.7597 82.0273C12.7978 81.9685 12.8203 81.901 12.825 81.8311C12.8297 81.7612 12.8165 81.6913 12.7866 81.6279ZM17.8532 81.6279C17.8351 81.5966 17.809 81.5707 17.7776 81.5529C17.7461 81.5351 17.7105 81.526 17.6743 81.5266C17.6215 81.5308 17.5707 81.549 17.5272 81.5794C17.4837 81.6098 17.4491 81.6512 17.427 81.6995C17.4071 81.6503 17.3734 81.6078 17.3301 81.5772C17.2868 81.5466 17.2356 81.529 17.1826 81.5266C17.1464 81.5257 17.1106 81.5346 17.0791 81.5525C17.0476 81.5703 17.0216 81.5964 17.0038 81.6279C16.9739 81.6923 16.9607 81.7632 16.9654 81.834C16.9701 81.9049 16.9925 81.9734 17.0306 82.0333C17.13 82.1853 17.2587 82.316 17.4091 82.4177H17.4478C17.5005 82.3806 17.5512 82.3408 17.5998 82.2985C17.6898 82.2235 17.7664 82.1338 17.8263 82.0333C17.8647 81.9736 17.8877 81.9054 17.8934 81.8347C17.8991 81.764 17.8873 81.693 17.8591 81.6279H17.8532ZM22.9198 81.6279C22.902 81.5964 22.8759 81.5703 22.8444 81.5525C22.8129 81.5346 22.7772 81.5257 22.741 81.5266C22.688 81.529 22.6367 81.5466 22.5934 81.5772C22.5501 81.6078 22.5165 81.6503 22.4966 81.6995C22.4745 81.6512 22.4399 81.6098 22.3964 81.5794C22.3529 81.549 22.3021 81.5308 22.2492 81.5266C22.2131 81.5263 22.1776 81.5355 22.1462 81.5533C22.1148 81.5711 22.0887 81.5968 22.0704 81.6279C22.0413 81.6925 22.0285 81.7633 22.0332 81.8339C22.0379 81.9046 22.0599 81.9731 22.0972 82.0333C22.1966 82.1853 22.3253 82.316 22.4757 82.4177H22.5174C22.5174 82.4177 22.589 82.3671 22.6665 82.2985C22.7572 82.2243 22.8339 82.1345 22.893 82.0333C22.9325 81.9741 22.9565 81.906 22.9627 81.8352C22.969 81.7643 22.9573 81.6931 22.9287 81.6279H22.9198ZM27.9864 81.6279C27.9681 81.5968 27.9419 81.5711 27.9106 81.5533C27.8792 81.5355 27.8436 81.5263 27.8076 81.5266C27.7547 81.5308 27.7039 81.549 27.6604 81.5794C27.6169 81.6098 27.5823 81.6512 27.5602 81.6995C27.5403 81.6503 27.5067 81.6078 27.4634 81.5772C27.42 81.5466 27.3688 81.529 27.3158 81.5266C27.2796 81.5257 27.2439 81.5346 27.2124 81.5525C27.1809 81.5703 27.1548 81.5964 27.137 81.6279C27.1071 81.6923 27.0939 81.7632 27.0986 81.834C27.1033 81.9049 27.1257 81.9734 27.1638 82.0333C27.2632 82.1853 27.3919 82.316 27.5423 82.4177H27.5811C27.6337 82.3806 27.6845 82.3408 27.7331 82.2985C27.8222 82.2227 27.8987 82.1332 27.9596 82.0333C27.9993 81.9743 28.0239 81.9065 28.0312 81.8358C28.0385 81.7651 28.0282 81.6937 28.0013 81.6279H27.9864ZM33.053 81.6279C33.0352 81.5964 33.0091 81.5703 32.9776 81.5525C32.9461 81.5346 32.9104 81.5257 32.8742 81.5266C32.8212 81.529 32.77 81.5466 32.7267 81.5772C32.6833 81.6078 32.6497 81.6503 32.6298 81.6995C32.6077 81.6512 32.5731 81.6098 32.5296 81.5794C32.4861 81.549 32.4353 81.5308 32.3824 81.5266C32.3463 81.526 32.3107 81.5351 32.2792 81.5529C32.2478 81.5707 32.2217 81.5966 32.2036 81.6279C32.1745 81.6925 32.1617 81.7633 32.1664 81.8339C32.1711 81.9046 32.1931 81.9731 32.2304 82.0333C32.3298 82.1853 32.4585 82.316 32.6089 82.4177H32.6477C32.701 82.3814 32.7517 82.3416 32.7997 82.2985C32.8904 82.2243 32.9671 82.1345 33.0262 82.0333C33.0672 81.9749 33.0928 81.9072 33.1006 81.8363C33.1084 81.7655 33.0982 81.6938 33.0709 81.6279H33.053ZM38.1196 81.6279C38.1018 81.5964 38.0757 81.5703 38.0443 81.5525C38.0128 81.5346 37.977 81.5257 37.9408 81.5266C37.9222 81.5768 37.8886 81.6201 37.8447 81.6507C37.8007 81.6812 37.7485 81.6976 37.6949 81.6976C37.6414 81.6976 37.5891 81.6812 37.5452 81.6507C37.5012 81.6201 37.4677 81.5768 37.449 81.5266C37.4133 81.5259 37.378 81.535 37.347 81.5528C37.3161 81.5707 37.2905 81.5967 37.2732 81.6279C37.2433 81.6923 37.2301 81.7632 37.2348 81.834C37.2395 81.9049 37.2619 81.9734 37.3 82.0333C37.3986 82.1849 37.5262 82.3156 37.6755 82.4177H37.7173C37.7693 82.381 37.819 82.3412 37.8663 82.2985C37.9572 82.2236 38.0348 82.134 38.0958 82.0333C38.1368 81.9749 38.1624 81.9072 38.1702 81.8363C38.178 81.7655 38.1678 81.6938 38.1405 81.6279H38.1196ZM43.1862 81.6279C43.1682 81.5966 43.1421 81.5707 43.1106 81.5529C43.0792 81.5351 43.0436 81.526 43.0074 81.5266C42.9545 81.5308 42.9037 81.549 42.8602 81.5794C42.8168 81.6098 42.7822 81.6512 42.76 81.6995C42.7401 81.6503 42.7065 81.6078 42.6632 81.5772C42.6199 81.5466 42.5687 81.529 42.5157 81.5266C42.4795 81.526 42.4439 81.5351 42.4124 81.5529C42.381 81.5707 42.3549 81.5966 42.3368 81.6279C42.307 81.6923 42.2937 81.7632 42.2984 81.834C42.3031 81.9049 42.3256 81.9734 42.3637 82.0333C42.4631 82.1853 42.5917 82.316 42.7422 82.4177H42.7809C42.8336 82.3806 42.8843 82.3408 42.9329 82.2985C43.0228 82.2235 43.0994 82.1338 43.1594 82.0333C43.2011 81.9754 43.2278 81.9081 43.2372 81.8373C43.2466 81.7666 43.2383 81.6947 43.2131 81.6279H43.1862ZM15.3228 78.3495C15.305 78.318 15.279 78.2919 15.2475 78.2741C15.216 78.2562 15.1802 78.2473 15.144 78.2482C15.091 78.2506 15.0398 78.2682 14.9965 78.2988C14.9532 78.3294 14.9195 78.3719 14.8996 78.4211C14.8775 78.3728 14.8429 78.3314 14.7994 78.301C14.756 78.2706 14.7051 78.2524 14.6523 78.2482C14.6162 78.2479 14.5807 78.2571 14.5493 78.2749C14.5179 78.2927 14.4917 78.3184 14.4734 78.3495C14.4444 78.4141 14.4316 78.4849 14.4363 78.5555C14.4409 78.6262 14.4629 78.6947 14.5003 78.7549C14.5987 78.9076 14.7275 79.0385 14.8788 79.1393H14.9175C14.9716 79.1042 15.0225 79.0643 15.0695 79.0201C15.1603 78.9459 15.237 78.8561 15.296 78.7549C15.3341 78.695 15.3566 78.6265 15.3612 78.5556C15.3659 78.4848 15.3527 78.4139 15.3228 78.3495ZM20.3895 78.3495C20.3721 78.3183 20.3466 78.2923 20.3156 78.2744C20.2846 78.2566 20.2494 78.2475 20.2136 78.2482C20.195 78.2984 20.1614 78.3417 20.1175 78.3723C20.0735 78.4028 20.0213 78.4192 19.9677 78.4192C19.9142 78.4192 19.8619 78.4028 19.818 78.3723C19.774 78.3417 19.7405 78.2984 19.7219 78.2482C19.6857 78.2473 19.6499 78.2562 19.6184 78.2741C19.5869 78.2919 19.5609 78.318 19.543 78.3495C19.5132 78.4139 19.4999 78.4848 19.5046 78.5556C19.5093 78.6265 19.5317 78.695 19.5699 78.7549C19.6684 78.9066 19.796 79.0373 19.9454 79.1393H19.9871C20.0406 79.1033 20.0914 79.0635 20.1391 79.0201C20.2283 78.9443 20.3047 78.8548 20.3656 78.7549C20.4037 78.695 20.4261 78.6265 20.4308 78.5556C20.4355 78.4848 20.4223 78.4139 20.3924 78.3495H20.3895ZM25.4561 78.3495C25.438 78.3182 25.4119 78.2923 25.3805 78.2745C25.349 78.2567 25.3134 78.2476 25.2772 78.2482C25.2242 78.2506 25.173 78.2682 25.1297 78.2988C25.0864 78.3294 25.0528 78.3719 25.0329 78.4211C25.0107 78.3728 24.9762 78.3314 24.9327 78.301C24.8892 78.2706 24.8384 78.2524 24.7855 78.2482C24.7494 78.2476 24.7137 78.2567 24.6823 78.2745C24.6508 78.2923 24.6247 78.3182 24.6067 78.3495C24.5776 78.4141 24.5648 78.4849 24.5695 78.5555C24.5742 78.6262 24.5961 78.6947 24.6335 78.7549C24.7319 78.9076 24.8608 79.0385 25.012 79.1393H25.0507C25.1042 79.1033 25.155 79.0635 25.2027 79.0201C25.2935 78.9459 25.3702 78.8561 25.4292 78.7549C25.4688 78.6957 25.4928 78.6276 25.499 78.5568C25.5053 78.4859 25.4936 78.4147 25.465 78.3495H25.4561ZM30.5227 78.3495C30.5049 78.318 30.4788 78.2919 30.4473 78.2741C30.4158 78.2562 30.3801 78.2473 30.3439 78.2482C30.2909 78.2506 30.2396 78.2682 30.1963 78.2988C30.153 78.3294 30.1194 78.3719 30.0995 78.4211C30.0774 78.3728 30.0428 78.3314 29.9993 78.301C29.9558 78.2706 29.905 78.2524 29.8521 78.2482C29.8163 78.2475 29.7811 78.2566 29.7501 78.2744C29.7191 78.2923 29.6936 78.3183 29.6763 78.3495C29.6459 78.4137 29.6322 78.4844 29.6364 78.5552C29.6406 78.6261 29.6625 78.6947 29.7001 78.7549C29.7994 78.907 29.9281 79.0377 30.0786 79.1393H30.1203C30.1725 79.1029 30.2223 79.063 30.2694 79.0201C30.3601 78.9459 30.4368 78.8561 30.4959 78.7549C30.5359 78.696 30.5604 78.628 30.5672 78.5572C30.574 78.4863 30.5628 78.4149 30.5346 78.3495H30.5227ZM35.5893 78.3495C35.5712 78.3182 35.5451 78.2923 35.5137 78.2745C35.4822 78.2567 35.4466 78.2476 35.4105 78.2482C35.3576 78.2524 35.3068 78.2706 35.2633 78.301C35.2198 78.3314 35.1852 78.3728 35.1631 78.4211C35.1432 78.3719 35.1096 78.3294 35.0663 78.2988C35.0229 78.2682 34.9717 78.2506 34.9187 78.2482C34.8825 78.2473 34.8468 78.2562 34.8153 78.2741C34.7838 78.2919 34.7577 78.318 34.7399 78.3495C34.71 78.4139 34.6968 78.4848 34.7015 78.5556C34.7062 78.6265 34.7286 78.695 34.7667 78.7549C34.8651 78.9076 34.994 79.0385 35.1452 79.1393H35.184C35.2375 79.1033 35.2883 79.0635 35.336 79.0201C35.4259 78.9451 35.5025 78.8554 35.5625 78.7549C35.6027 78.6962 35.6278 78.6285 35.6356 78.5578C35.6434 78.4871 35.6337 78.4156 35.6072 78.3495H35.5893ZM40.6559 78.3495C40.6381 78.318 40.612 78.2919 40.5805 78.2741C40.549 78.2562 40.5133 78.2473 40.4771 78.2482C40.4241 78.2506 40.3729 78.2682 40.3296 78.2988C40.2862 78.3294 40.2526 78.3719 40.2327 78.4211C40.2106 78.3728 40.176 78.3314 40.1325 78.301C40.089 78.2706 40.0382 78.2524 39.9853 78.2482C39.9493 78.2479 39.9137 78.2571 39.8824 78.2749C39.851 78.2927 39.8248 78.3184 39.8065 78.3495C39.7774 78.4141 39.7647 78.4849 39.7693 78.5555C39.774 78.6262 39.796 78.6947 39.8333 78.7549C39.9318 78.9076 40.0606 79.0385 40.2118 79.1393H40.2506C40.3047 79.1042 40.3556 79.0643 40.4026 79.0201C40.4933 78.9459 40.57 78.8561 40.6291 78.7549C40.6706 78.6968 40.6967 78.6292 40.705 78.5583C40.7134 78.4875 40.7036 78.4156 40.6768 78.3495H40.6559ZM45.7225 78.3495C45.7042 78.3184 45.6781 78.2927 45.6467 78.2749C45.6153 78.2571 45.5798 78.2479 45.5437 78.2482C45.5251 78.2984 45.4915 78.3417 45.4476 78.3723C45.4036 78.4028 45.3514 78.4192 45.2978 78.4192C45.2443 78.4192 45.192 78.4028 45.1481 78.3723C45.1041 78.3417 45.0706 78.2984 45.0519 78.2482C45.0157 78.2473 44.98 78.2562 44.9485 78.2741C44.917 78.2919 44.8909 78.318 44.8731 78.3495C44.8432 78.4139 44.83 78.4848 44.8347 78.5556C44.8394 78.6265 44.8618 78.695 44.8999 78.7549C44.9985 78.9066 45.1261 79.0373 45.2755 79.1393H45.3172C45.3707 79.1033 45.4215 79.0635 45.4692 79.0201C45.5584 78.9443 45.6348 78.8548 45.6957 78.7549C45.7374 78.697 45.7641 78.6297 45.7735 78.5589C45.7829 78.4882 45.7746 78.4163 45.7493 78.3495H45.7225Z" fill="white"/>
<path d="M46.8445 60.9428C46.5227 59.6076 45.7806 58.3887 45.1279 57.1965C44.4394 55.9358 43.7181 54.696 42.976 53.4681L42.8956 53.337C42.7734 52.9435 42.5975 52.5591 42.4455 52.1776C42.2548 51.6918 42.0491 51.209 41.8495 50.7172C41.8495 50.7023 41.8167 50.7172 41.8226 50.7172C41.9776 51.2269 42.1207 51.7365 42.3174 52.2342L42.4604 52.6246C42.2101 52.2163 41.9597 51.808 41.7004 51.4027C41.2594 50.7142 40.8063 50.0407 40.3533 49.3522C40.3533 49.3343 40.3146 49.3522 40.3265 49.3671C41.0328 50.5771 41.7124 51.8021 42.4127 53.0121C43.1131 54.2221 43.8076 55.4381 44.4692 56.672C44.7941 57.2829 45.113 57.8999 45.4199 58.5228C45.7212 59.1079 45.986 59.7111 46.2127 60.3289C46.6253 61.5288 46.6347 62.8307 46.2395 64.0365C45.8133 65.4015 45.0474 66.6413 44.3321 67.8662C44.3023 67.9139 44.3768 67.9735 44.4155 67.9258C45.9445 65.9409 47.4734 63.5626 46.8445 60.9428Z" fill="#263238"/>
<path d="M60.1781 83.4173C57.9488 86.499 52.006 86.9937 37.1608 89.6462C35.1044 90.0128 28.6161 76.2107 30.7888 75.7071C33.5278 75.0693 44.2898 73.1976 45.0945 73.1589C51.8778 72.8549 61.6922 81.331 60.1781 83.4173Z" fill="#F9C0AB"/>
<path d="M33.7654 75.0923C33.7654 75.0923 27.4798 75.9327 24.3177 77.3991C20.0796 79.3602 17.2274 82.7995 16.1187 84.3105C13.8059 87.4697 10.3994 96.7029 12.888 98.1513C15.1382 99.4597 18.1453 89.8421 18.1453 89.8421C18.1453 89.8421 13.4632 99.1408 16.4644 100.217C19.4656 101.293 22.3119 89.9345 22.3119 89.9345C22.3119 89.9345 17.7132 99.5968 20.9826 100.217C23.4563 100.685 26.6215 90.5425 26.6215 90.5425C26.6215 90.5425 22.7291 98.8726 25.2505 99.4657C28.0491 100.106 31.551 90.9389 31.551 90.9389C38.2151 91.365 41.562 88.8526 43.7287 86.7664C44.2593 86.2627 33.7654 75.0923 33.7654 75.0923Z" fill="#F9C0AB"/>
<path d="M19.5572 86.5216C18.9611 87.5945 18.365 88.6764 17.8703 89.8C17.3755 90.9236 16.9255 92.0621 16.5381 93.2214C15.5933 96.0736 15.4443 98.0049 15.4681 97.8857C15.9897 95.0871 17.6885 91.0309 18.1832 89.9252C18.678 88.8194 19.1101 87.6631 19.5989 86.5424C19.6257 86.5126 19.5691 86.4977 19.5572 86.5216Z" fill="#263238"/>
<path d="M23.6376 88.2265C22.9432 89.6303 22.204 90.9953 21.5722 92.4288C20.9404 93.8624 20.4695 95.2632 19.942 96.7265C19.9002 96.8398 19.9747 96.8249 20.0194 96.7265C20.6155 95.281 21.2623 93.9935 21.8643 92.554C22.4663 91.1145 23.0177 89.6571 23.6704 88.2504C23.6823 88.2206 23.6465 88.2057 23.6376 88.2265Z" fill="#263238"/>
<path d="M27.4023 89.0626C26.231 91.1489 25.4502 93.4527 24.72 95.7267C24.6842 95.84 24.7766 95.8102 24.8213 95.6969C25.6647 93.4646 26.3115 91.7062 27.4589 89.1014C27.4917 89.0626 27.4261 89.0179 27.4023 89.0626Z" fill="#263238"/>
<path d="M51.6476 74.8361C50.6611 74.2102 47.8655 72.7498 45.1176 73.1492C45.1113 73.1492 45.1052 73.1517 45.1007 73.1562C45.0963 73.1606 45.0938 73.1667 45.0938 73.173C45.0938 73.1793 45.0963 73.1854 45.1007 73.1899C45.1052 73.1943 45.1113 73.1969 45.1176 73.1969C47.3827 73.1969 50.6193 74.3473 51.6267 74.8748C51.6505 74.8897 51.6714 74.851 51.6476 74.8361Z" fill="#263238"/>
<path d="M31.0777 44.5201C31.2267 45.0923 34.0729 48.7462 36.6957 48.5495C37.551 48.484 37.405 43.8078 37.405 43.8078L37.4735 43.4591L38.4213 38.5892L32.6364 35.0962L31.8019 34.6372C31.8019 34.6372 31.629 35.9873 31.4323 37.6682C31.4323 37.7457 31.4115 37.8232 31.4025 37.9067C31.3936 37.9901 31.3757 38.0914 31.3668 38.1809C31.334 38.4312 31.3012 38.6875 31.2744 38.9438C31.2535 39.1405 31.2327 39.3283 31.2178 39.5399C31.2029 39.7515 31.182 39.9452 31.1611 40.1509C31.034 41.6037 31.0061 43.0635 31.0777 44.5201Z" fill="#F9C0AB"/>
<path d="M31.4307 37.6682C31.9568 39.0142 32.7697 40.2295 33.813 41.2295C34.8562 42.2296 36.1048 42.9904 37.4719 43.4591L38.4196 38.5892L32.6347 35.0962L31.8002 34.6372C31.8002 34.6372 31.6274 35.9873 31.4307 37.6682Z" fill="#263238"/>
<path d="M45.6222 30.2849C47.026 38.8803 42.0458 40.6923 40.1861 40.9933C38.5022 41.2645 32.7352 41.9828 30.4522 33.5782C28.1693 25.1736 31.7218 21.8058 35.5367 20.9772C39.3516 20.1487 44.2185 21.6925 45.6222 30.2849Z" fill="#F9C0AB"/>
<path d="M43.579 28.5493C43.3795 28.5409 43.1805 28.522 42.983 28.4927C42.7704 28.5005 42.5612 28.4387 42.3869 28.3168C42.3369 28.2685 42.3053 28.2042 42.2977 28.1351C42.2901 28.066 42.3069 27.9964 42.3452 27.9383C42.433 27.8333 42.5472 27.7536 42.6761 27.7075C42.805 27.6614 42.9438 27.6506 43.0783 27.6761C43.3586 27.6861 43.6251 27.7997 43.8264 27.995C43.87 28.0425 43.8987 28.1018 43.9091 28.1654C43.9194 28.2291 43.9109 28.2944 43.8846 28.3533C43.8584 28.4122 43.8154 28.4622 43.7611 28.497C43.7068 28.5318 43.6435 28.55 43.579 28.5493Z" fill="#263238"/>
<path d="M38.0118 29.2091C38.2144 29.1614 38.3903 29.0869 38.584 29.0213C38.7934 28.9839 38.9849 28.8793 39.1294 28.7233C39.1669 28.6655 39.1833 28.5965 39.1756 28.528C39.168 28.4596 39.137 28.3959 39.0877 28.3477C38.9791 28.2647 38.8503 28.212 38.7147 28.1953C38.579 28.1785 38.4413 28.1982 38.3158 28.2524C38.0436 28.3236 37.8078 28.4936 37.6541 28.7292C37.6246 28.7846 37.6114 28.8472 37.6162 28.9097C37.6209 28.9723 37.6433 29.0322 37.6808 29.0825C37.7183 29.1328 37.7693 29.1714 37.8279 29.1938C37.8865 29.2162 37.9503 29.2215 38.0118 29.2091Z" fill="#263238"/>
<path d="M39.4066 31.2601C39.4066 31.2363 39.3648 31.2929 39.3678 31.3168C39.4662 31.9128 39.4781 32.5894 38.9744 32.8546C38.9595 32.8546 38.9744 32.8934 38.9744 32.8874C39.6211 32.7146 39.5913 31.8026 39.4066 31.2601Z" fill="#263238"/>
<path d="M38.801 30.721C37.8443 30.7776 38.0291 32.685 38.9112 32.6314C39.7934 32.5777 39.5937 30.6643 38.801 30.721Z" fill="#263238"/>
<path d="M38.4401 30.8588C38.2821 30.984 38.142 31.1896 37.9394 31.2284C37.7367 31.2671 37.5161 31.0913 37.3433 30.9125C37.3284 30.8946 37.3135 30.9125 37.3135 30.9393C37.3433 31.3029 37.5191 31.6635 37.9095 31.6814C38.3 31.6993 38.5056 31.3506 38.5533 30.9751C38.5712 30.9035 38.5026 30.8111 38.4401 30.8588Z" fill="#263238"/>
<path d="M42.7893 30.6877C42.7893 30.6638 42.837 30.7115 42.837 30.7353C42.8698 31.3314 43.0098 31.999 43.5612 32.148C43.5761 32.148 43.5791 32.1838 43.5612 32.1838C42.8966 32.154 42.7237 31.2599 42.7893 30.6877Z" fill="#263238"/>
<path d="M43.2618 30.0236C44.2065 29.8687 44.4539 31.7671 43.5747 31.9102C42.6955 32.0533 42.472 30.1548 43.2618 30.0236Z" fill="#263238"/>
<path d="M43.6745 30.0974C43.8354 30.1808 44.0083 30.3447 44.1871 30.3328C44.3659 30.3209 44.5239 30.0944 44.6341 29.8798C44.6341 29.8589 44.661 29.8798 44.6639 29.8977C44.7206 30.2583 44.649 30.6517 44.3093 30.768C43.9695 30.8842 43.7132 30.5891 43.594 30.2375C43.5702 30.1749 43.6089 30.0676 43.6745 30.0974Z" fill="#263238"/>
<path d="M39.5952 35.9354C39.7442 36.0665 39.8932 36.2513 40.1108 36.2573C40.3309 36.2439 40.5454 36.1829 40.7396 36.0784C40.7437 36.0765 40.7483 36.0759 40.7528 36.0767C40.7572 36.0776 40.7612 36.0799 40.7643 36.0832C40.7673 36.0866 40.7691 36.0909 40.7695 36.0954C40.7699 36.0999 40.7689 36.1044 40.7665 36.1082C40.6872 36.2285 40.577 36.3251 40.4475 36.3881C40.3179 36.451 40.1738 36.4779 40.0303 36.4659C39.9082 36.44 39.7964 36.3787 39.7089 36.2897C39.6215 36.2006 39.5622 36.0877 39.5385 35.9652C39.5177 35.9324 39.5624 35.9175 39.5952 35.9354Z" fill="#263238"/>
<path d="M42.0773 33.4156C42.0773 33.4156 42.2949 34.2888 42.3396 34.7061C41.958 34.8414 41.5471 34.8719 41.1498 34.7943C40.7524 34.7168 40.3831 34.5339 40.0805 34.265C40.0447 34.2322 40.0954 34.1785 40.1371 34.2024C40.7093 34.5076 41.3645 34.6204 42.0058 34.5243C42.0058 34.408 41.5826 33.0341 41.6482 33.0341C41.9757 33.0276 42.3025 33.0657 42.6198 33.1473C42.2174 31.3174 41.5289 29.5709 41.1564 27.741C41.1513 27.7267 41.152 27.711 41.1584 27.6974C41.1648 27.6837 41.1764 27.6731 41.1907 27.6679C41.2049 27.6628 41.2206 27.6635 41.2343 27.67C41.248 27.6764 41.2586 27.688 41.2637 27.7022C42.1161 29.4904 42.6227 31.5767 43.0847 33.4573C43.1443 33.6898 42.2532 33.4692 42.0773 33.4156Z" fill="#263238"/>
<path d="M41.7662 34.7214C41.5679 35.0367 41.2904 35.2946 40.9615 35.4695C40.7772 35.5613 40.5686 35.5926 40.3654 35.5589C39.9303 35.4844 39.8826 35.094 39.9333 34.7512C39.9607 34.5695 40.0087 34.3915 40.0763 34.2207C40.5715 34.5641 41.1638 34.7396 41.7662 34.7214Z" fill="#263238"/>
<path d="M40.9615 35.4678C40.7772 35.5596 40.5686 35.5909 40.3654 35.5572C39.9303 35.4827 39.8826 35.0923 39.9333 34.7495C40.4042 34.7555 40.884 35.0267 40.9615 35.4678Z" fill="#FF9ABB"/>
<path d="M30.7104 33.1473C32.3555 33.2933 32.6327 29.5261 32.6327 29.5261C32.6327 29.5261 39.565 28.0777 39.9405 22.3733C39.9405 22.3733 41.2757 25.9497 45.0071 27.4399C45.0071 27.4399 44.5243 21.2229 39.5412 20.2006C39.5412 20.2006 33.3301 18.2037 30.0696 23.1959C26.8091 28.188 29.6076 33.0489 30.7104 33.1473Z" fill="#263238"/>
<path d="M39.9486 21.9526C40.0631 22.8261 39.991 23.7139 39.737 24.5575C39.494 25.4163 39.0748 26.2151 38.5061 26.903C38.3653 27.0751 38.214 27.2384 38.0531 27.3918L37.8206 27.6302C37.7372 27.7018 37.6478 27.7703 37.5613 27.8388C37.3855 27.973 37.2156 28.116 37.0338 28.2442C36.852 28.3723 36.6553 28.4707 36.4646 28.581C36.3662 28.6346 36.2738 28.6912 36.1665 28.7419L35.8685 28.873L35.2724 29.1323C34.8552 29.2664 34.4319 29.3767 34.0117 29.481C34.4051 29.2903 34.8105 29.1442 35.2039 28.9535L35.7731 28.6555L36.0533 28.5064C36.1457 28.4498 36.2291 28.3843 36.3185 28.3246C36.4914 28.2015 36.6672 28.0822 36.846 27.967C37.0129 27.8388 37.1679 27.6958 37.3318 27.5587L37.5733 27.356L37.7908 27.1265C37.9395 26.9785 38.0797 26.8223 38.2111 26.6586C38.7496 26.0064 39.172 25.2664 39.4598 24.471C39.608 24.0707 39.7236 23.6591 39.8055 23.2402C39.8896 22.8158 39.9374 22.3851 39.9486 21.9526Z" fill="#263238"/>
<path d="M31.9298 33.725C31.9298 33.725 29.8287 31.1559 28.6514 31.9368C27.4742 32.7176 29.1939 36.5265 30.6781 36.9557C30.8645 37.0237 31.0628 37.0534 31.261 37.0428C31.4591 37.0323 31.6531 36.9818 31.8313 36.8944C32.0095 36.807 32.1681 36.6845 32.2977 36.5342C32.4273 36.3839 32.5252 36.209 32.5855 36.0199L31.9298 33.725Z" fill="#F9C0AB"/>
<path d="M29.1613 33.0098C29.1405 33.0098 29.1375 33.0426 29.1613 33.0485C30.2044 33.3823 30.8095 34.2794 31.2476 35.2272C30.9167 34.8725 30.4906 34.6996 30.0167 35.096C29.9928 35.1169 30.0167 35.1556 30.0465 35.1467C30.2206 35.0773 30.4119 35.0633 30.5942 35.1065C30.7766 35.1497 30.9413 35.248 31.0658 35.3881C31.2729 35.6234 31.4529 35.8814 31.6022 36.157C31.6559 36.2435 31.8168 36.1809 31.7751 36.0795V36.0587C31.7006 34.7652 30.5621 33.0485 29.1613 33.0098Z" fill="#263238"/>
<path d="M31.4896 36.4943C31.4902 36.5645 31.4699 36.6334 31.4313 36.6921C31.3927 36.7508 31.3375 36.7967 31.2727 36.824C31.208 36.8513 31.1366 36.8588 31.0676 36.8454C30.9986 36.8321 30.9351 36.7986 30.8852 36.7491C30.8353 36.6996 30.8012 36.6364 30.7873 36.5675C30.7734 36.4987 30.7802 36.4272 30.807 36.3622C30.8337 36.2972 30.8792 36.2417 30.9376 36.2026C30.996 36.1635 31.0647 36.1426 31.1349 36.1426C31.2285 36.1426 31.3182 36.1795 31.3847 36.2454C31.4511 36.3113 31.4888 36.4007 31.4896 36.4943Z" fill="white"/>
<path d="M30.3627 36.1688C30.5026 36.1688 30.616 36.0553 30.616 35.9154C30.616 35.7755 30.5026 35.6621 30.3627 35.6621C30.2228 35.6621 30.1094 35.7755 30.1094 35.9154C30.1094 36.0553 30.2228 36.1688 30.3627 36.1688Z" fill="white"/>
<path d="M28.6629 32.5444L28.1254 32.4982C28.027 32.4898 27.9404 32.5627 27.932 32.6611L27.9307 32.6759C27.9222 32.7743 27.9951 32.8609 28.0935 32.8694L28.631 32.9156C28.7294 32.924 28.816 32.8511 28.8245 32.7527L28.8258 32.7379C28.8342 32.6395 28.7613 32.5528 28.6629 32.5444Z" fill="#C778FF"/>
<path d="M28.6466 32.8119L28.1126 32.882C28.0148 32.8949 27.946 32.9845 27.9588 33.0823L27.9607 33.0971C27.9736 33.1948 28.0632 33.2637 28.161 33.2508L28.6951 33.1807C28.7928 33.1679 28.8617 33.0782 28.8488 32.9804L28.8469 32.9657C28.8341 32.8679 28.7444 32.7991 28.6466 32.8119Z" fill="#C778FF"/>
<path d="M28.4147 27.8252L27.9199 28.615L30.4502 30.9009L31.5232 29.1127L28.4147 27.8252ZM30.3489 30.0247L28.5816 28.6031L28.6918 28.4153L30.7393 29.4018L30.3489 30.0247Z" fill="#C778FF"/>
<path d="M28.6854 26.3662L28.5244 27.2842L31.7313 28.4495L32.0561 26.396L28.6854 26.3662ZM31.3081 27.6746L29.1324 27.0249L29.1652 26.8103L31.4332 26.9533L31.3081 27.6746Z" fill="#C778FF"/>
<path d="M31.8018 21.2313C32.4664 20.9839 33.0983 17.2764 30.6603 15.512C28.2224 13.7476 25.099 15.7623 26.4073 18.7904C27.2359 20.7217 30.3981 21.7558 31.8018 21.2313Z" fill="#263238"/>
<path d="M27.2538 15.2915C26.5346 15.8951 26.0401 16.7236 25.85 17.643C25.7536 18.0703 25.7711 18.5155 25.9008 18.934C26.0305 19.3524 26.2679 19.7295 26.5892 20.0273C27.2733 20.6361 28.1096 21.0481 29.0092 21.2194C29.4669 21.3192 29.9328 21.3761 30.401 21.3893C30.8745 21.4273 31.351 21.3747 31.8048 21.2343C31.377 21.4732 30.9017 21.6146 30.413 21.6486C29.923 21.6988 29.4288 21.6908 28.9407 21.6248C27.933 21.5187 26.9831 21.1021 26.2226 20.4326C25.8392 20.0697 25.562 19.6091 25.4209 19.1004C25.2939 18.5954 25.3032 18.0658 25.4477 17.5655C25.5784 17.0837 25.806 16.6335 26.1166 16.2425C26.4271 15.8516 26.814 15.528 27.2538 15.2915Z" fill="#263238"/>
<path d="M53.8099 55.1888L57.9586 54.6285L56.3373 42.6177L51.0889 43.327L53.8099 55.1888Z" fill="#C778FF"/>
<path d="M51.0889 43.327L52.126 47.8512L53.8099 55.1918L57.9586 54.6315L56.3373 42.6177L51.0889 43.327Z" fill="#C778FF"/>
<path opacity="0.1" d="M51.0889 43.327L52.126 47.8512L56.9572 47.1985L56.3373 42.6177L51.0889 43.327Z" fill="black"/>
<path d="M50.8359 45.1738L57.3662 44.292L56.6962 39.33L50.1659 40.2118L50.8359 45.1738Z" fill="#C778FF"/>
<path d="M45.5532 38.9828L50.6943 38.8039L49.6125 30.7778L44.6055 31.967L45.5532 38.9828Z" fill="#C778FF"/>
<path d="M52.0068 28.8341L53.6073 40.681L62.2563 40.5528L83.0324 45.1635L79.1937 16.71L60.3846 26.6644L52.0068 28.8341Z" fill="#C778FF"/>
<path d="M83.5049 45.1623C86.043 44.8196 87.2362 38.1403 86.17 30.2436C85.1037 22.3469 82.1817 16.2233 79.6436 16.566C77.1054 16.9087 75.9122 23.588 76.9785 31.4847C78.0448 39.3814 80.9667 45.505 83.5049 45.1623Z" fill="#C778FF"/>
<path d="M83.493 43.2801C85.5711 42.9994 86.4885 37.0898 85.5421 30.0805C84.5956 23.0713 82.1437 17.6166 80.0656 17.8972C77.9874 18.1778 77.07 24.0874 78.0164 31.0967C78.9629 38.106 81.4148 43.5607 83.493 43.2801Z" fill="#71389A"/>
<path d="M78.6389 31.0246C78.764 31.9574 78.916 32.8605 79.0919 33.7278C79.5535 34.0067 80.0846 34.1495 80.6239 34.1396C81.1632 34.1298 81.6888 33.9676 82.1399 33.672C82.5911 33.3763 82.9494 32.9591 83.1737 32.4686C83.398 31.978 83.479 31.434 83.4074 30.8994L83.2286 29.5583C83.1552 29.0272 82.934 28.5274 82.5904 28.1159C82.2467 27.7044 81.7943 27.3978 81.2848 27.2309C80.7752 27.0641 80.2291 27.0438 79.7086 27.1723C79.1881 27.3008 78.7141 27.573 78.3408 27.9578C78.3855 28.9443 78.4869 29.9725 78.6389 31.0246Z" fill="#C778FF"/>
<path d="M49.1014 41.9568L59.0439 41.6141L56.9487 26.0894L47.2715 28.3932L49.1014 41.9568Z" fill="#C778FF"/>
<path d="M49.1014 41.9568L59.0439 41.6141L56.9487 26.0894L47.2715 28.3932L49.1014 41.9568Z" fill="#71389A"/>
<path opacity="0.2" d="M78.1203 18.8374C77.565 19.7702 77.1843 20.7963 76.9967 21.8654C76.7837 22.9275 76.6552 24.0048 76.6122 25.0872C76.5735 25.6296 76.5884 26.1691 76.5794 26.7115C76.5705 27.2539 76.6092 27.7934 76.645 28.3328C76.6808 28.8723 76.7165 29.4147 76.7761 29.9512C76.8357 30.4876 76.8924 31.0271 76.9669 31.5635C77.2484 33.7109 77.7263 35.8278 78.3945 37.8879C78.7362 38.9173 79.168 39.9146 79.685 40.8682C80.2244 41.7981 80.8503 42.725 81.7354 43.3539C80.9331 42.6394 80.2841 41.7694 79.828 40.7967C79.3453 39.8396 78.9464 38.8424 78.6359 37.8163C78.0075 35.7604 77.5558 33.6546 77.2858 31.5218C76.9612 29.3959 76.8146 27.2465 76.8477 25.0962C76.8619 24.022 76.9616 22.9506 77.1457 21.8923C77.2921 20.8254 77.6219 19.7919 78.1203 18.8374Z" fill="black"/>
<path d="M88.5294 16.8027C87.9333 17.2438 87.3372 17.6968 86.765 18.1826C86.1928 18.6684 85.6205 19.1423 85.0572 19.6341C84.494 20.1258 83.9396 20.6265 83.4002 21.1421L82.5925 21.917C82.3302 22.1853 82.059 22.4446 81.8057 22.7187C82.1037 22.5012 82.4017 22.2687 82.6998 22.0422L83.573 21.3388C84.1542 20.8679 84.7175 20.3792 85.2808 19.8874C85.8441 19.3956 86.3954 18.8949 86.9349 18.3793C87.4743 17.8637 88.0167 17.3481 88.5294 16.8027Z" fill="#263238"/>
<path d="M83.4834 38.4678C84.2911 38.7122 85.1077 38.9208 85.9243 39.1264C86.7409 39.3321 87.5635 39.5139 88.3861 39.6957C89.2087 39.8775 90.0342 40.0414 90.8628 40.1904L92.1056 40.408C92.5258 40.4706 92.9401 40.5421 93.3603 40.5928C92.955 40.4676 92.5467 40.3633 92.1413 40.247L90.9164 39.9341C90.0998 39.7285 89.2802 39.5467 88.4576 39.3649C87.635 39.1831 86.8095 39.0191 85.9809 38.8701C85.1524 38.7211 84.3209 38.5751 83.4834 38.4678Z" fill="#263238"/>
<path d="M99.0948 36.1574C97.8639 36.0113 96.63 35.901 95.3961 35.7967C94.1623 35.6924 92.9284 35.606 91.6945 35.5255C90.4607 35.4451 89.2238 35.3795 87.987 35.3318L86.1302 35.2632C85.5133 35.2632 84.8934 35.2305 84.2734 35.2305C84.8874 35.305 85.5043 35.3616 86.1213 35.4272L87.9691 35.5911C89.203 35.6984 90.4398 35.7818 91.6737 35.8623C92.9075 35.9428 94.1444 36.0083 95.3812 36.056C96.6181 36.1037 97.8549 36.1514 99.0948 36.1574Z" fill="#263238"/>
<path d="M95.4223 17.3262C94.3375 17.961 93.2735 18.6286 92.2125 19.2992C91.1515 19.9698 90.1024 20.6582 89.0563 21.3497C88.0102 22.0411 86.97 22.7445 85.9388 23.4657L84.398 24.5446C83.8913 24.9172 83.3757 25.2778 82.875 25.6563C83.4174 25.3404 83.9509 25.0066 84.4904 24.6847L86.0848 23.6833C87.1459 23.0127 88.1949 22.3242 89.241 21.6328C90.2872 20.9413 91.3273 20.235 92.3585 19.5167C93.3897 18.7985 94.415 18.0772 95.4223 17.3262Z" fill="#263238"/>
<path d="M83.9717 30.4412C85.4172 30.3011 86.8567 30.1253 88.2932 29.9435C89.7297 29.7617 91.1663 29.5501 92.6028 29.3474C94.0393 29.1448 95.4699 28.9182 96.8975 28.6828L99.0434 28.3222C99.7557 28.191 100.471 28.0688 101.183 27.9258C100.459 27.9943 99.7408 28.0808 99.0195 28.1582L96.8617 28.4235C95.4222 28.6053 93.9887 28.8169 92.5521 29.0196C91.1156 29.2222 89.685 29.4487 88.2574 29.6872C86.8298 29.9256 85.3963 30.164 83.9717 30.4412Z" fill="#263238"/>
<path d="M23.1864 50.4251C18.6742 57.8134 11.0385 73.7613 13.9473 79.5581C16.7459 85.1404 44.9878 69.8303 48.5612 67.0406C50.1199 65.8306 42.833 51.4951 41.0567 52.6336C38.6724 54.1506 27.1473 63.5506 26.894 63.5983C26.3575 63.7026 27.961 58.3916 29.0458 51.811C30.6194 42.2411 26.432 45.1141 23.1864 50.4251Z" fill="#F9C0AB"/>
<path d="M59.93 46.788C60.988 48.0368 60.0879 49.4704 60.0879 49.4704C60.8636 49.7195 61.5277 50.2318 61.9656 50.9188C62.6809 52.1676 61.0387 53.8336 61.0387 53.8336C61.7894 54.2586 62.394 54.9006 62.7732 55.6755C63.3365 56.9392 61.9209 58.8555 61.9209 58.8555C62.3949 59.6268 62.5748 60.5432 62.4275 61.4365C61.9387 63.8208 58.4815 65.1232 56.2761 65.9398C52.9977 67.1558 47.0667 67.1111 45.7345 67.3108L40.2119 53.2644C40.2119 53.2644 48.9831 46.6897 51.7072 46.0668C53.9991 45.5393 58.7408 45.3903 59.93 46.788Z" fill="#F9C0AB"/>
<path d="M59.9011 49.2795C57.3291 49.2527 54.8882 49.9888 52.4115 50.5849C52.4004 50.5877 52.3909 50.5947 52.385 50.6045C52.3792 50.6143 52.3774 50.626 52.3802 50.6371C52.383 50.6481 52.39 50.6577 52.3998 50.6635C52.4096 50.6694 52.4213 50.6711 52.4324 50.6684C54.8882 50.0485 57.4364 49.9233 59.9131 49.4017C59.9269 49.3975 59.9389 49.3887 59.947 49.3766C59.955 49.3646 59.9587 49.3501 59.9572 49.3357C59.9558 49.3213 59.9495 49.3078 59.9392 49.2976C59.929 49.2873 59.9155 49.281 59.9011 49.2795Z" fill="#263238"/>
<path d="M60.9187 53.6655C60.3346 53.7163 59.7596 53.8425 59.208 54.041C58.6119 54.2169 58.0158 54.4046 57.4197 54.5984C56.2276 54.9888 55.0653 55.4031 53.9059 55.8561C53.8552 55.874 53.8701 55.9574 53.9268 55.9395C55.104 55.5551 56.2872 55.1855 57.4823 54.8487C58.0784 54.6818 58.6745 54.5179 59.2706 54.357C59.847 54.245 60.4089 54.0681 60.9455 53.8294C60.9608 53.8202 60.9731 53.8066 60.9806 53.7904C60.9881 53.7742 60.9905 53.756 60.9877 53.7384C60.9848 53.7207 60.9767 53.7044 60.9644 53.6914C60.9521 53.6784 60.9362 53.6694 60.9187 53.6655Z" fill="#263238"/>
<path d="M61.8679 58.8677C61.3613 58.8677 60.8159 59.124 60.345 59.2879C59.8085 59.4787 59.275 59.6634 58.7386 59.8452C57.6656 60.2118 56.5897 60.5784 55.5049 60.9062C55.4962 60.9112 55.4895 60.9189 55.4857 60.9282C55.482 60.9375 55.4814 60.9477 55.4841 60.9573C55.4869 60.9669 55.4928 60.9753 55.5008 60.9812C55.5089 60.987 55.5187 60.99 55.5287 60.9897C56.6314 60.6619 57.7401 60.3489 58.8429 60.0121C59.3823 59.8482 59.9218 59.6783 60.4612 59.5085C60.9202 59.3624 61.5103 59.2313 61.8888 58.9124C61.8907 58.9081 61.8916 58.9035 61.8916 58.8988C61.8915 58.8941 61.8905 58.8895 61.8885 58.8853C61.8865 58.8811 61.8837 58.8773 61.8801 58.8743C61.8766 58.8712 61.8724 58.869 61.8679 58.8677Z" fill="#263238"/>
<path d="M34.0723 74.9702C32.2454 75.8643 30.4005 76.7167 28.514 77.4827C26.6274 78.2486 24.7408 78.946 22.8185 79.5421C21.7396 79.8848 20.6518 80.2156 19.5401 80.5018C19.5103 80.5018 19.5401 80.5554 19.555 80.5495C21.5527 80.1658 23.523 79.651 25.4531 79.0086C26.4128 78.6808 27.3625 78.3221 28.3024 77.9327C29.2292 77.5482 30.1591 77.1518 31.0532 76.6929C32.0785 76.1653 33.1037 75.6229 34.0902 75.0239C34.0952 75.0201 34.0989 75.0149 34.1008 75.0089C34.1026 75.0029 34.1026 74.9965 34.1006 74.9906C34.0986 74.9847 34.0948 74.9795 34.0898 74.9758C34.0847 74.9722 34.0786 74.9702 34.0723 74.9702Z" fill="#263238"/>
<path d="M54.1995 66.4596C52.0149 67.0557 48.5368 66.8918 48.5041 66.9156C47.8454 67.4968 45.1303 69.2552 44.4388 69.6456C44.412 69.6605 44.4388 69.6993 44.4657 69.6873C45.9558 69.0048 47.8275 67.9885 48.6143 67.2345C51.705 67.3418 53.2488 66.8083 54.2115 66.5281C54.2621 66.5073 54.2532 66.4417 54.1995 66.4596Z" fill="#263238"/>
<path d="M13.792 62.4522L27.6715 62.9291C27.6715 62.9291 29.6624 52.8555 29.5611 47.4312C29.5045 44.3942 27.7341 44.5254 25.7581 46.4298C18.8437 53.0999 13.792 62.4522 13.792 62.4522Z" fill="#C778FF"/>
<path d="M22.9551 49.3852C22.9435 49.4332 22.9255 49.4793 22.9015 49.5223C22.8409 49.6225 22.7644 49.7121 22.675 49.7876C22.6264 49.8299 22.5757 49.8697 22.523 49.9068H22.4991L22.9551 49.3852ZM28.0009 49.117C27.9826 49.0859 27.9564 49.0602 27.925 49.0424C27.8937 49.0246 27.8581 49.0154 27.8221 49.0157C27.7685 49.0175 27.7167 49.0348 27.6728 49.0655C27.6289 49.0962 27.5948 49.1389 27.5747 49.1885C27.5551 49.1391 27.5216 49.0965 27.4782 49.0658C27.4348 49.0351 27.3834 49.0177 27.3303 49.0157C27.2941 49.0148 27.2584 49.0237 27.2269 49.0416C27.1954 49.0594 27.1693 49.0855 27.1515 49.117C27.1216 49.1809 27.1084 49.2513 27.1131 49.3216C27.1178 49.392 27.1402 49.46 27.1783 49.5194C27.277 49.6728 27.4058 49.8046 27.5568 49.9068H27.5956C27.6482 49.8697 27.699 49.8299 27.7476 49.7876C27.836 49.7111 27.9124 49.6217 27.9741 49.5223C28.0114 49.4622 28.0334 49.3937 28.0381 49.323C28.0427 49.2523 28.03 49.1816 28.0009 49.117ZM17.6769 56.2162C17.7398 56.1615 17.7923 56.0959 17.8319 56.0225C17.8449 56.0001 17.8549 55.976 17.8617 55.951C17.8021 56.0404 17.7395 56.1298 17.6769 56.2162ZM22.9283 55.6202C22.9105 55.5887 22.8844 55.5626 22.8529 55.5447C22.8214 55.5269 22.7857 55.5179 22.7495 55.5188C22.6964 55.5209 22.645 55.5383 22.6016 55.569C22.5582 55.5997 22.5247 55.6423 22.5051 55.6917C22.485 55.6421 22.4509 55.5993 22.407 55.5686C22.3631 55.538 22.3113 55.5207 22.2577 55.5188C22.2217 55.5186 22.1861 55.5278 22.1548 55.5456C22.1234 55.5633 22.0972 55.5891 22.0789 55.6202C22.0498 55.6842 22.037 55.7545 22.0417 55.8247C22.0464 55.8949 22.0684 55.9629 22.1057 56.0225C22.2042 56.1753 22.333 56.3062 22.4842 56.407H22.526C22.5777 56.371 22.6275 56.3322 22.675 56.2907C22.7651 56.2148 22.8417 56.1241 22.9015 56.0225C22.9396 55.9632 22.962 55.8952 22.9667 55.8248C22.9714 55.7544 22.9582 55.684 22.9283 55.6202ZM27.9949 55.6202C27.9766 55.5891 27.9505 55.5633 27.9191 55.5456C27.8877 55.5278 27.8522 55.5186 27.8161 55.5188C27.7626 55.5207 27.7107 55.538 27.6668 55.5686C27.6229 55.5993 27.5889 55.6421 27.5687 55.6917C27.5491 55.6423 27.5156 55.5997 27.4722 55.569C27.4288 55.5383 27.3775 55.5209 27.3243 55.5188C27.2882 55.5179 27.2524 55.5269 27.2209 55.5447C27.1894 55.5626 27.1633 55.5887 27.1455 55.6202C27.1156 55.684 27.1024 55.7544 27.1071 55.8248C27.1118 55.8952 27.1342 55.9632 27.1724 56.0225C27.2708 56.1753 27.3996 56.3062 27.5509 56.407H27.5896C27.6427 56.3715 27.6934 56.3326 27.7416 56.2907C27.8301 56.2132 27.9065 56.1228 27.9681 56.0225C28.0064 55.9634 28.0294 55.8957 28.0352 55.8255C28.0409 55.7553 28.0291 55.6847 28.0009 55.6202H27.9949ZM19.9241 53.1196L19.9599 53.1465H20.0016C20.0547 53.1089 20.1055 53.0681 20.1536 53.0243C20.2434 52.95 20.3191 52.8601 20.3771 52.759C20.4286 52.6687 20.4505 52.5644 20.4397 52.461C20.249 52.6726 20.0791 52.8991 19.9241 53.1196ZM25.4765 52.3567C25.4585 52.3254 25.4324 52.2995 25.4009 52.2817C25.3695 52.2638 25.3338 52.2548 25.2977 52.2553C25.2446 52.2574 25.1932 52.2748 25.1498 52.3055C25.1065 52.3362 25.0729 52.3788 25.0533 52.4282C25.0329 52.3788 24.9987 52.3362 24.9549 52.3056C24.9111 52.275 24.8594 52.2575 24.8059 52.2553C24.7698 52.2548 24.7342 52.2638 24.7027 52.2817C24.6713 52.2995 24.6452 52.3254 24.6271 52.3567C24.598 52.4207 24.5853 52.491 24.5899 52.5612C24.5946 52.6314 24.6166 52.6994 24.6539 52.759C24.7526 52.9124 24.8814 53.0442 25.0324 53.1465H25.0712C25.0712 53.1465 25.1427 53.0958 25.2232 53.0273C25.3133 52.9513 25.3899 52.8606 25.4497 52.759C25.4859 52.6987 25.5063 52.6301 25.5089 52.5598C25.5115 52.4894 25.4963 52.4195 25.4646 52.3567H25.4765ZM17.8677 62.1203C17.8501 62.0893 17.8245 62.0635 17.7936 62.0457C17.7626 62.0278 17.7275 62.0186 17.6918 62.019C17.6384 62.0212 17.5867 62.0386 17.5429 62.0693C17.499 62.0999 17.4649 62.1424 17.4444 62.1919C17.4252 62.1422 17.3917 62.0994 17.3483 62.0687C17.3048 62.0379 17.2533 62.0207 17.2001 62.019C17.164 62.019 17.1286 62.0284 17.0973 62.0461C17.066 62.0639 17.0398 62.0894 17.0212 62.1203C16.9914 62.1841 16.978 62.2543 16.9822 62.3245C16.9863 62.3948 17.008 62.4629 17.0451 62.5227L17.0719 62.5644L17.8051 62.5912C17.8191 62.57 17.832 62.5482 17.8438 62.5257C17.8796 62.4645 17.8994 62.3953 17.9015 62.3245C17.9036 62.2537 17.8878 62.1835 17.8557 62.1203H17.8677ZM22.9343 62.1203C22.916 62.0892 22.8898 62.0635 22.8584 62.0457C22.827 62.0279 22.7915 62.0187 22.7555 62.019C22.7368 62.0692 22.7033 62.1125 22.6593 62.1431C22.6154 62.1736 22.5631 62.19 22.5096 62.19C22.456 62.19 22.4038 62.1736 22.3598 62.1431C22.3159 62.1125 22.2823 62.0692 22.2637 62.019C22.2277 62.019 22.1923 62.0284 22.1609 62.0461C22.1296 62.0639 22.1034 62.0894 22.0849 62.1203C22.0558 62.1844 22.043 62.2547 22.0477 62.3249C22.0524 62.3951 22.0744 62.463 22.1117 62.5227C22.1603 62.6054 22.2205 62.6807 22.2905 62.7462L22.7167 62.7611C22.7907 62.6916 22.8548 62.6124 22.9075 62.5257C22.9446 62.4653 22.966 62.3965 22.9696 62.3257C22.9733 62.2548 22.9591 62.1842 22.9283 62.1203H22.9343ZM27.828 62.019C27.8094 62.0692 27.7758 62.1125 27.7319 62.1431C27.6879 62.1736 27.6357 62.19 27.5822 62.19C27.5286 62.19 27.4764 62.1736 27.4324 62.1431C27.3884 62.1125 27.3549 62.0692 27.3363 62.019C27.3002 62.0187 27.2647 62.0279 27.2333 62.0457C27.2019 62.0635 27.1757 62.0892 27.1574 62.1203C27.127 62.1841 27.1135 62.2545 27.1182 62.325C27.1229 62.3955 27.1456 62.4636 27.1843 62.5227C27.282 62.6768 27.411 62.8088 27.5628 62.9101H27.6015L27.6969 62.8386C27.7237 62.7015 27.7774 62.4213 27.8489 62.022L27.828 62.019ZM20.398 58.8598C20.3808 58.8282 20.3554 58.8018 20.3244 58.7834C20.2935 58.7651 20.2581 58.7554 20.2221 58.7555C20.2049 58.8071 20.1719 58.8519 20.1277 58.8836C20.0836 58.9154 20.0306 58.9325 19.9763 58.9325C19.9219 58.9325 19.8689 58.9154 19.8248 58.8836C19.7807 58.8519 19.7476 58.8071 19.7304 58.7555C19.694 58.7552 19.6581 58.7648 19.6267 58.7831C19.5952 58.8015 19.5692 58.828 19.5516 58.8598C19.5217 58.9237 19.5085 58.9941 19.5131 59.0644C19.5178 59.1348 19.5403 59.2028 19.5784 59.2622C19.6769 59.4139 19.8046 59.5446 19.9539 59.6466H19.9956C20.0491 59.6106 20.0999 59.5708 20.1476 59.5274C20.2368 59.4516 20.3133 59.3621 20.3741 59.2622C20.4108 59.2021 20.4317 59.1336 20.4348 59.0633C20.438 58.9929 20.4232 58.9229 20.392 58.8598H20.398ZM25.4646 58.8598C25.4467 58.8282 25.4207 58.8018 25.3893 58.7835C25.3579 58.7652 25.3221 58.7555 25.2858 58.7555C25.2324 58.7581 25.181 58.7762 25.1376 58.8073C25.0943 58.8385 25.0609 58.8816 25.0414 58.9313C25.0197 58.8826 24.9853 58.8405 24.9418 58.8096C24.8982 58.7786 24.8472 58.76 24.794 58.7555C24.7577 58.7555 24.7219 58.7652 24.6905 58.7835C24.6591 58.8018 24.6331 58.8282 24.6152 58.8598C24.5861 58.9239 24.5733 58.9942 24.578 59.0644C24.5827 59.1346 24.6047 59.2025 24.642 59.2622C24.7404 59.415 24.8693 59.5458 25.0205 59.6466H25.0593C25.1128 59.6106 25.1636 59.5708 25.2113 59.5274C25.302 59.4532 25.3787 59.3634 25.4378 59.2622C25.4759 59.2028 25.4983 59.1348 25.503 59.0644C25.5077 58.9941 25.4945 58.9237 25.4646 58.8598Z" fill="white"/>
<path d="M27.2666 60.7284C25.1386 60.4781 19.3418 59.9655 15.5329 60.1324C15.509 60.1324 15.5031 60.2218 15.5329 60.2218C18.7219 60.5675 25.1207 60.8 27.2636 60.8655C27.2964 60.8596 27.3053 60.7344 27.2666 60.7284Z" fill="#263238"/>
<path d="M29.5512 52.608C29.3923 53.2041 29.2423 53.8062 29.1012 54.4141C29.1012 54.3426 29.1191 54.2681 29.1251 54.1936C29.2115 53.3502 29.292 52.5097 29.3545 51.6633C29.3545 51.6424 29.3218 51.6394 29.3188 51.6633C28.9075 54.6138 27.7422 62.0677 27.6736 62.8814C27.608 62.8814 26.9762 62.8992 26.8272 62.8814C26.7944 62.8814 26.7974 62.929 26.8272 62.932C26.857 62.935 27.8524 63.0542 27.8584 63.0333C28.2727 61.5968 28.8985 56.1636 29.0327 54.9595C29.2472 54.1847 29.4291 53.4038 29.5661 52.611C29.5691 52.6021 29.5542 52.5991 29.5512 52.608Z" fill="#263238"/>
</svg>
