<svg width="130" height="92" viewBox="0 0 130 92" fill="none" xmlns="http://www.w3.org/2000/svg">
<path d="M128.676 19.7287C128.676 19.7287 127.408 10.7663 123.5 6.83355C118.551 1.6576 113.01 1.6251 110.474 1.32446C92.2976 8.47557e-07 64.9959 0 64.9959 0H64.9472C64.9472 0 37.6536 8.47557e-07 19.4687 1.32446C16.9254 1.63323 11.392 1.6576 6.44353 6.83355C2.53516 10.7663 1.29196 19.7287 1.29196 19.7287C1.29196 19.7287 0 30.2431 0 40.7819V50.6382C0 61.1526 1.29196 71.6914 1.29196 71.6914C1.29196 71.6914 2.55954 80.6538 6.44353 84.5947C11.392 89.7706 17.8924 89.6 20.7932 90.1525C31.202 91.1438 65.0041 91.4445 65.0041 91.4445C65.0041 91.4445 92.3301 91.3957 110.507 90.0956C113.05 89.795 118.584 89.7625 123.532 84.5865C127.44 80.6538 128.708 71.6832 128.708 71.6832C128.708 71.6832 130 61.1688 130 50.63V40.7738C129.976 30.2594 128.684 19.7206 128.684 19.7206L128.676 19.7287ZM51.532 62.5908V26.0504L86.6504 44.3815L51.532 62.5908Z" fill="#CD88FF"/>
</svg>
