<svg width="141" height="98" viewBox="0 0 141 98" fill="none" xmlns="http://www.w3.org/2000/svg">
<path d="M21.8265 23.3703C21.5193 23.3502 21.2313 23.214 21.0209 22.9893C20.8105 22.7646 20.6934 22.4684 20.6934 22.1605C20.6934 21.8527 20.8105 21.5564 21.0209 21.3317C21.2313 21.1071 21.5193 20.9709 21.8265 20.9508C24.79 20.9508 27.2873 16.7075 27.2873 11.682C27.3074 11.3748 27.4436 11.0868 27.6682 10.8764C27.8929 10.6659 28.1892 10.5488 28.497 10.5488C28.8048 10.5488 29.1011 10.6659 29.3258 10.8764C29.5505 11.0868 29.6867 11.3748 29.7068 11.682C29.7068 18.2359 26.2562 23.3703 21.8265 23.3703Z" fill="#C778FF"/>
<path d="M40.1117 23.3703C39.8045 23.3502 39.5165 23.214 39.306 22.9893C39.0956 22.7646 38.9785 22.4684 38.9785 22.1605C38.9785 21.8527 39.0956 21.5564 39.306 21.3317C39.5165 21.1071 39.8045 20.9709 40.1117 20.9508C43.0752 20.9508 45.5724 16.7075 45.5724 11.682C45.5925 11.3748 45.7287 11.0868 45.9534 10.8764C46.1781 10.6659 46.4744 10.5488 46.7822 10.5488C47.09 10.5488 47.3863 10.6659 47.611 10.8764C47.8356 11.0868 47.9718 11.3748 47.9919 11.682C48.0178 18.2359 44.531 23.3703 40.1117 23.3703Z" fill="#C778FF"/>
<path d="M58.3792 23.3711C58.0721 23.351 57.7841 23.2147 57.5736 22.9901C57.3632 22.7654 57.2461 22.4691 57.2461 22.1613C57.2461 21.8535 57.3632 21.5572 57.5736 21.3325C57.7841 21.1079 58.0721 20.9717 58.3792 20.9515C61.3376 20.9515 63.84 16.7083 63.84 11.6828C63.84 11.3626 63.9672 11.0555 64.1936 10.8292C64.42 10.6028 64.727 10.4756 65.0472 10.4756C65.3673 10.4756 65.6744 10.6028 65.9008 10.8292C66.1272 11.0555 66.2543 11.3626 66.2543 11.6828C66.2699 18.2367 62.8142 23.3711 58.3792 23.3711Z" fill="#C778FF"/>
<path d="M76.6763 23.3711C76.5108 23.3819 76.3448 23.3587 76.1886 23.3028C76.0325 23.2469 75.8894 23.1595 75.7683 23.0461C75.6473 22.9327 75.5508 22.7957 75.4848 22.6435C75.4188 22.4913 75.3848 22.3272 75.3848 22.1613C75.3848 21.9954 75.4188 21.8313 75.4848 21.6791C75.5508 21.5269 75.6473 21.3899 75.7683 21.2765C75.8894 21.1631 76.0325 21.0757 76.1886 21.0198C76.3448 20.964 76.5108 20.9407 76.6763 20.9515C79.6347 20.9515 82.1371 16.7083 82.1371 11.6828C82.1371 11.3626 82.2643 11.0555 82.4907 10.8292C82.7171 10.6028 83.0241 10.4756 83.3443 10.4756C83.6644 10.4756 83.9715 10.6028 84.1979 10.8292C84.4242 11.0555 84.5514 11.3626 84.5514 11.6828C84.5514 18.2367 81.0905 23.3711 76.6763 23.3711Z" fill="#C778FF"/>
<path d="M94.9534 23.3703C94.6463 23.3502 94.3583 23.214 94.1478 22.9893C93.9374 22.7646 93.8203 22.4684 93.8203 22.1605C93.8203 21.8527 93.9374 21.5564 94.1478 21.3317C94.3583 21.1071 94.6463 20.9709 94.9534 20.9508C97.917 20.9508 100.414 16.7075 100.414 11.682C100.434 11.3748 100.571 11.0868 100.795 10.8764C101.02 10.6659 101.316 10.5488 101.624 10.5488C101.932 10.5488 102.228 10.6659 102.453 10.8764C102.677 11.0868 102.814 11.3748 102.834 11.682C102.834 18.2359 99.3728 23.3703 94.9534 23.3703Z" fill="#C778FF"/>
<path d="M113.238 23.3703C112.93 23.3502 112.642 23.214 112.432 22.9893C112.222 22.7646 112.104 22.4684 112.104 22.1605C112.104 21.8527 112.222 21.5564 112.432 21.3317C112.642 21.1071 112.93 20.9709 113.238 20.9508C116.196 20.9508 118.698 16.7075 118.698 11.682C118.719 11.3748 118.855 11.0868 119.079 10.8764C119.304 10.6659 119.6 10.5488 119.908 10.5488C120.216 10.5488 120.512 10.6659 120.737 10.8764C120.962 11.0868 121.098 11.3748 121.118 11.682C121.118 18.2359 117.657 23.3703 113.238 23.3703Z" fill="#C778FF"/>
<g opacity="0.3">
<path d="M21.8245 23.3693C21.5174 23.3492 21.2294 23.213 21.0189 22.9883C20.8085 22.7637 20.6914 22.4674 20.6914 22.1596C20.6914 21.8517 20.8085 21.5554 21.0189 21.3308C21.2294 21.1061 21.5174 20.9699 21.8245 20.9498C24.7881 20.9498 27.2853 16.7066 27.2853 11.681C27.3054 11.3738 27.4416 11.0858 27.6663 10.8754C27.8909 10.6649 28.1872 10.5479 28.4951 10.5479C28.8029 10.5479 29.0992 10.6649 29.3239 10.8754C29.5485 11.0858 29.6847 11.3738 29.7048 11.681C29.7048 18.2349 26.2543 23.3693 21.8245 23.3693Z" fill="black"/>
<path d="M40.1097 23.3693C39.8025 23.3492 39.5145 23.213 39.3041 22.9883C39.0937 22.7637 38.9766 22.4674 38.9766 22.1596C38.9766 21.8517 39.0937 21.5554 39.3041 21.3308C39.5145 21.1061 39.8025 20.9699 40.1097 20.9498C43.0732 20.9498 45.5705 16.7066 45.5705 11.681C45.5906 11.3738 45.7268 11.0858 45.9514 10.8754C46.1761 10.6649 46.4724 10.5479 46.7802 10.5479C47.0881 10.5479 47.3843 10.6649 47.609 10.8754C47.8337 11.0858 47.9699 11.3738 47.99 11.681C48.0159 18.2349 44.5291 23.3693 40.1097 23.3693Z" fill="black"/>
<path d="M58.3773 23.3701C58.0701 23.35 57.7821 23.2138 57.5717 22.9891C57.3612 22.7644 57.2441 22.4682 57.2441 22.1603C57.2441 21.8525 57.3612 21.5562 57.5717 21.3315C57.7821 21.1069 58.0701 20.9707 58.3773 20.9506C61.3356 20.9506 63.8381 16.7073 63.8381 11.6818C63.8381 11.3616 63.9652 11.0546 64.1916 10.8282C64.418 10.6018 64.7251 10.4746 65.0452 10.4746C65.3654 10.4746 65.6724 10.6018 65.8988 10.8282C66.1252 11.0546 66.2524 11.3616 66.2524 11.6818C66.2679 18.2357 62.8122 23.3701 58.3773 23.3701Z" fill="black"/>
<path d="M76.6744 23.3701C76.5088 23.3809 76.3429 23.3577 76.1867 23.3018C76.0305 23.2459 75.8874 23.1586 75.7664 23.0452C75.6453 22.9318 75.5488 22.7947 75.4828 22.6425C75.4169 22.4903 75.3828 22.3262 75.3828 22.1603C75.3828 21.9945 75.4169 21.8303 75.4828 21.6781C75.5488 21.5259 75.6453 21.3889 75.7664 21.2755C75.8874 21.1621 76.0305 21.0748 76.1867 21.0189C76.3429 20.963 76.5088 20.9397 76.6744 20.9506C79.6327 20.9506 82.1351 16.7073 82.1351 11.6818C82.1351 11.3616 82.2623 11.0546 82.4887 10.8282C82.7151 10.6018 83.0221 10.4746 83.3423 10.4746C83.6625 10.4746 83.9695 10.6018 84.1959 10.8282C84.4223 11.0546 84.5495 11.3616 84.5495 11.6818C84.5495 18.2357 81.0886 23.3701 76.6744 23.3701Z" fill="black"/>
<path d="M94.9564 23.3693C94.6492 23.3492 94.3612 23.213 94.1508 22.9883C93.9403 22.7637 93.8232 22.4674 93.8232 22.1596C93.8232 21.8517 93.9403 21.5554 94.1508 21.3308C94.3612 21.1061 94.6492 20.9699 94.9564 20.9498C97.9199 20.9498 100.417 16.7066 100.417 11.681C100.437 11.3738 100.573 11.0858 100.798 10.8754C101.023 10.6649 101.319 10.5479 101.627 10.5479C101.935 10.5479 102.231 10.6649 102.456 10.8754C102.68 11.0858 102.817 11.3738 102.837 11.681C102.837 18.2349 99.3758 23.3693 94.9564 23.3693Z" fill="black"/>
<path d="M113.241 23.3693C112.933 23.3492 112.645 23.213 112.435 22.9883C112.225 22.7637 112.107 22.4674 112.107 22.1596C112.107 21.8517 112.225 21.5554 112.435 21.3308C112.645 21.1061 112.933 20.9699 113.241 20.9498C116.199 20.9498 118.701 16.7066 118.701 11.681C118.721 11.3738 118.858 11.0858 119.082 10.8754C119.307 10.6649 119.603 10.5479 119.911 10.5479C120.219 10.5479 120.515 10.6649 120.74 10.8754C120.965 11.0858 121.101 11.3738 121.121 11.681C121.121 18.2349 117.66 23.3693 113.241 23.3693Z" fill="black"/>
</g>
<path d="M10.3699 12.9225H128.072C129.65 12.9541 131.162 13.5605 132.325 14.6279C133.488 15.6953 134.221 17.1504 134.387 18.72L140.905 92.202C140.984 92.9394 140.906 93.6851 140.676 94.39C140.445 95.0948 140.068 95.7427 139.568 96.2907C139.069 96.8388 138.458 97.2745 137.778 97.5691C137.097 97.8637 136.362 98.0104 135.62 97.9996H17.9134C16.336 97.9658 14.8249 97.3586 13.6625 96.2916C12.5002 95.2246 11.7662 93.7708 11.5978 92.202L5.08532 18.72C5.00517 17.9826 5.08274 17.2365 5.31288 16.5312C5.54303 15.826 5.92049 15.1778 6.42022 14.6296C6.91996 14.0813 7.53056 13.6456 8.21151 13.3513C8.89245 13.057 9.6282 12.9108 10.3699 12.9225Z" fill="#C778FF"/>
<path opacity="0.4" d="M10.3699 12.9225H128.072C129.65 12.9541 131.162 13.5605 132.325 14.6279C133.488 15.6953 134.221 17.1504 134.387 18.72L140.905 92.202C140.984 92.9394 140.906 93.6851 140.676 94.39C140.445 95.0948 140.068 95.7427 139.568 96.2907C139.069 96.8388 138.458 97.2745 137.778 97.5691C137.097 97.8637 136.362 98.0104 135.62 97.9996H17.9134C16.336 97.9658 14.8249 97.3586 13.6625 96.2916C12.5002 95.2246 11.7662 93.7708 11.5978 92.202L5.08532 18.72C5.00517 17.9826 5.08274 17.2365 5.31288 16.5312C5.54303 15.826 5.92049 15.1778 6.42022 14.6296C6.91996 14.0813 7.53056 13.6456 8.21151 13.3513C8.89245 13.057 9.6282 12.9108 10.3699 12.9225Z" fill="#FAFAFA"/>
<path d="M127.092 12.922H9.38524C7.82834 12.9405 6.33652 13.5494 5.21129 14.6256C4.08606 15.7017 3.41134 17.165 3.32349 18.7195L0.00765059 92.2015C-0.0318474 92.9501 0.0818927 93.6988 0.341906 94.4019C0.601919 95.105 1.00274 95.7476 1.51979 96.2904C2.03685 96.8332 2.65927 97.2647 3.34893 97.5585C4.03859 97.8523 4.78096 98.0022 5.53059 97.999H123.248C124.805 97.9805 126.297 97.3716 127.422 96.2954C128.547 95.2193 129.222 93.756 129.31 92.2015L132.631 18.7195C132.669 17.9698 132.555 17.22 132.293 16.5162C132.032 15.8124 131.63 15.1694 131.111 14.6265C130.593 14.0837 129.969 13.6525 129.278 13.3594C128.587 13.0663 127.843 12.9174 127.092 12.922Z" fill="#C778FF"/>
<path opacity="0.2" d="M127.092 12.922H9.38524C7.82834 12.9405 6.33652 13.5494 5.21129 14.6256C4.08606 15.7017 3.41134 17.165 3.32349 18.7195L0.00765059 92.2015C-0.0318474 92.9501 0.0818927 93.6988 0.341906 94.4019C0.601919 95.105 1.00274 95.7476 1.51979 96.2904C2.03685 96.8332 2.65927 97.2647 3.34893 97.5585C4.03859 97.8523 4.78096 98.0022 5.53059 97.999H123.248C124.805 97.9805 126.297 97.3716 127.422 96.2954C128.547 95.2193 129.222 93.756 129.31 92.2015L132.631 18.7195C132.669 17.9698 132.555 17.22 132.293 16.5162C132.032 15.8124 131.63 15.1694 131.111 14.6265C130.593 14.0837 129.969 13.6525 129.278 13.3594C128.587 13.0663 127.843 12.9174 127.092 12.922Z" fill="#FAFAFA"/>
<path d="M11.5458 78.5812L14.2865 17.8962C14.3194 17.3009 14.5776 16.7405 15.0087 16.3286C15.4398 15.9168 16.0114 15.6844 16.6076 15.6788H119.621C119.908 15.677 120.193 15.7338 120.457 15.8459C120.722 15.958 120.96 16.1229 121.159 16.3305C121.357 16.5382 121.511 16.7841 121.611 17.0534C121.711 17.3226 121.755 17.6094 121.74 17.8962L118.994 78.5812C118.961 79.1764 118.703 79.7369 118.272 80.1487C117.841 80.5606 117.269 80.7929 116.673 80.7986H13.6648C13.3776 80.8004 13.0931 80.7435 12.8287 80.6314C12.5643 80.5194 12.3255 80.3544 12.1271 80.1468C11.9287 79.9392 11.7748 79.6932 11.6748 79.424C11.5749 79.1548 11.531 78.868 11.5458 78.5812Z" fill="#C778FF"/>
<path opacity="0.1" d="M11.5458 78.5812L14.2865 17.8962C14.3194 17.3009 14.5776 16.7405 15.0087 16.3286C15.4398 15.9168 16.0114 15.6844 16.6076 15.6788H119.621C119.908 15.677 120.193 15.7338 120.457 15.8459C120.722 15.958 120.96 16.1229 121.159 16.3305C121.357 16.5382 121.511 16.7841 121.611 17.0534C121.711 17.3226 121.755 17.6094 121.74 17.8962L118.994 78.5812C118.961 79.1764 118.703 79.7369 118.272 80.1487C117.841 80.5606 117.269 80.7929 116.673 80.7986H13.6648C13.3776 80.8004 13.0931 80.7435 12.8287 80.6314C12.5643 80.5194 12.3255 80.3544 12.1271 80.1468C11.9287 79.9392 11.7748 79.6932 11.6748 79.424C11.5749 79.1548 11.531 78.868 11.5458 78.5812Z" fill="#FAFAFA"/>
<path opacity="0.1" d="M8.63858 83.5325L11.514 19.8063C11.547 19.1813 11.8174 18.5924 12.27 18.1601C12.7226 17.7277 13.3232 17.4845 13.9491 17.4801H122.128C122.43 17.4775 122.728 17.5367 123.006 17.6541C123.284 17.7714 123.534 17.9444 123.743 18.1624C123.951 18.3803 124.112 18.6386 124.217 18.9214C124.322 19.2041 124.367 19.5053 124.351 19.8063L121.47 83.5325C121.437 84.1571 121.168 84.7458 120.716 85.1789C120.265 85.612 119.666 85.8569 119.04 85.8639H10.8509C10.5496 85.8659 10.2511 85.806 9.97397 85.6879C9.69679 85.5699 9.44678 85.3962 9.23941 85.1777C9.03204 84.9592 8.87172 84.7004 8.76837 84.4174C8.66503 84.1344 8.62085 83.8332 8.63858 83.5325Z" fill="black"/>
<path d="M5.96557 88.6711L8.96537 22.199C9.00564 21.549 9.28923 20.9381 9.75969 20.4878C10.2301 20.0375 10.8529 19.7809 11.5041 19.7691H124.351C124.666 19.7665 124.978 19.8285 125.268 19.9511C125.558 20.0737 125.82 20.2544 126.037 20.4821C126.255 20.7097 126.423 20.9795 126.532 21.2748C126.642 21.5701 126.689 21.8846 126.672 22.199L123.657 88.6711C123.617 89.3211 123.333 89.9321 122.863 90.3823C122.392 90.8326 121.769 91.0892 121.118 91.101H8.28666C7.97162 91.1043 7.65924 91.0429 7.36891 90.9206C7.07858 90.7982 6.81648 90.6175 6.59886 90.3897C6.38124 90.1619 6.21274 89.8918 6.1038 89.5962C5.99486 89.3005 5.94781 88.9857 5.96557 88.6711Z" fill="#FAFAFA"/>
<path d="M113.224 23.7556C113.012 23.7559 112.802 23.7129 112.607 23.629C112.412 23.5451 112.236 23.4222 112.091 23.2679C111.945 23.1135 111.833 22.931 111.76 22.7315C111.688 22.532 111.657 22.3198 111.67 22.108C111.69 21.6923 111.867 21.2999 112.167 21.011C112.466 20.7221 112.865 20.5585 113.281 20.5537C113.493 20.5533 113.703 20.5964 113.898 20.6803C114.093 20.7642 114.269 20.8871 114.414 21.0414C114.56 21.1958 114.673 21.3783 114.745 21.5778C114.817 21.7773 114.848 21.9894 114.835 22.2013C114.816 22.6169 114.638 23.0093 114.338 23.2983C114.039 23.5872 113.64 23.7507 113.224 23.7556Z" fill="#C778FF"/>
<path d="M94.9399 23.7556C94.7277 23.7559 94.5177 23.7129 94.3227 23.629C94.1278 23.5451 93.9521 23.4222 93.8065 23.2679C93.6609 23.1135 93.5484 22.931 93.476 22.7315C93.4036 22.532 93.3729 22.3198 93.3856 22.108C93.4054 21.6923 93.5832 21.2999 93.8827 21.011C94.1822 20.7221 94.5808 20.5585 94.9969 20.5537C95.2091 20.5533 95.4191 20.5964 95.6141 20.6803C95.809 20.7642 95.9847 20.8871 96.1303 21.0414C96.2759 21.1958 96.3884 21.3783 96.4608 21.5778C96.5332 21.7773 96.5639 21.9894 96.5512 22.2013C96.5326 22.6174 96.3552 23.0105 96.0554 23.2997C95.7557 23.5888 95.3564 23.752 94.9399 23.7556Z" fill="#C778FF"/>
<path d="M76.6557 23.7556C76.4435 23.7559 76.2335 23.7129 76.0386 23.629C75.8437 23.5451 75.668 23.4222 75.5223 23.2679C75.3767 23.1135 75.2643 22.931 75.1919 22.7315C75.1195 22.532 75.0887 22.3198 75.1014 22.108C75.1224 21.6928 75.3007 21.3011 75.5999 21.0124C75.8991 20.7238 76.297 20.5598 76.7127 20.5537C76.9249 20.5533 77.135 20.5964 77.3299 20.6803C77.5248 20.7642 77.7005 20.8871 77.8461 21.0414C77.9917 21.1958 78.1042 21.3783 78.1766 21.5778C78.249 21.7773 78.2798 21.9894 78.267 22.2013C78.2485 22.6174 78.071 23.0105 77.7713 23.2997C77.4715 23.5888 77.0722 23.752 76.6557 23.7556Z" fill="#C778FF"/>
<path d="M58.3764 23.7556C58.1642 23.7559 57.9542 23.7129 57.7593 23.629C57.5643 23.5451 57.3887 23.4222 57.243 23.2679C57.0974 23.1135 56.985 22.931 56.9126 22.7315C56.8402 22.532 56.8094 22.3198 56.8221 22.108C56.8444 21.6923 57.0237 21.3006 57.3238 21.012C57.6239 20.7235 58.0223 20.5597 58.4386 20.5537C58.6508 20.5533 58.8608 20.5964 59.0558 20.6803C59.2507 20.7642 59.4264 20.8871 59.572 21.0414C59.7176 21.1958 59.8301 21.3783 59.9025 21.5778C59.9749 21.7773 60.0056 21.9894 59.9929 22.2013C59.9743 22.6182 59.7961 23.0121 59.4953 23.3014C59.1944 23.5907 58.7938 23.7533 58.3764 23.7556Z" fill="#C778FF"/>
<path d="M40.0923 23.7556C39.8801 23.7559 39.67 23.7129 39.4751 23.629C39.2802 23.5451 39.1045 23.4222 38.9589 23.2679C38.8132 23.1135 38.7008 22.931 38.6284 22.7315C38.556 22.532 38.5252 22.3198 38.538 22.108C38.5577 21.6923 38.7356 21.2999 39.0351 21.011C39.3346 20.7221 39.7331 20.5585 40.1492 20.5537C40.3614 20.5533 40.5715 20.5964 40.7664 20.6803C40.9613 20.7642 41.137 20.8871 41.2826 21.0414C41.4282 21.1958 41.5407 21.3783 41.6131 21.5778C41.6855 21.7773 41.7163 21.9894 41.7035 22.2013C41.6838 22.6169 41.5059 23.0093 41.2064 23.2983C40.9069 23.5872 40.5084 23.7507 40.0923 23.7556Z" fill="#C778FF"/>
<path d="M21.8081 23.7556C21.5959 23.7559 21.3858 23.7129 21.1909 23.629C20.996 23.5451 20.8203 23.4222 20.6747 23.2679C20.5291 23.1135 20.4166 22.931 20.3442 22.7315C20.2718 22.532 20.241 22.3198 20.2538 22.108C20.2736 21.6923 20.4514 21.2999 20.7509 21.011C21.0504 20.7221 21.449 20.5585 21.8651 20.5537C22.0773 20.5533 22.2873 20.5964 22.4822 20.6803C22.6772 20.7642 22.8528 20.8871 22.9985 21.0414C23.1441 21.1958 23.2565 21.3783 23.3289 21.5778C23.4013 21.7773 23.4321 21.9894 23.4194 22.2013C23.4008 22.6174 23.2234 23.0105 22.9236 23.2997C22.6238 23.5888 22.2246 23.752 21.8081 23.7556Z" fill="#C778FF"/>
<g opacity="0.1">
<path d="M113.225 23.7546C113.013 23.755 112.803 23.7119 112.608 23.628C112.413 23.5441 112.237 23.4212 112.092 23.2669C111.946 23.1125 111.834 22.93 111.761 22.7305C111.689 22.531 111.658 22.3189 111.671 22.107C111.691 21.6914 111.868 21.299 112.168 21.01C112.467 20.7211 112.866 20.5576 113.282 20.5527C113.494 20.5524 113.704 20.5954 113.899 20.6793C114.094 20.7632 114.27 20.8861 114.415 21.0404C114.561 21.1948 114.674 21.3773 114.746 21.5768C114.818 21.7763 114.849 21.9885 114.836 22.2003C114.817 22.616 114.639 23.0084 114.339 23.2973C114.04 23.5862 113.641 23.7498 113.225 23.7546Z" fill="#FAFAFA"/>
<path d="M94.9409 23.7546C94.7287 23.755 94.5186 23.7119 94.3237 23.628C94.1288 23.5441 93.9531 23.4212 93.8075 23.2669C93.6619 23.1125 93.5494 22.93 93.477 22.7305C93.4046 22.531 93.3739 22.3189 93.3866 22.107C93.4064 21.6914 93.5842 21.299 93.8837 21.01C94.1832 20.7211 94.5818 20.5576 94.9979 20.5527C95.2101 20.5524 95.4201 20.5954 95.615 20.6793C95.81 20.7632 95.9856 20.8861 96.1313 21.0404C96.2769 21.1948 96.3894 21.3773 96.4617 21.5768C96.5341 21.7763 96.5649 21.9885 96.5522 22.2003C96.5336 22.6164 96.3562 23.0095 96.0564 23.2987C95.7566 23.5879 95.3574 23.751 94.9409 23.7546Z" fill="#FAFAFA"/>
<path d="M76.6567 23.7546C76.4445 23.755 76.2345 23.7119 76.0396 23.628C75.8446 23.5441 75.6689 23.4212 75.5233 23.2669C75.3777 23.1125 75.2652 22.93 75.1928 22.7305C75.1205 22.531 75.0897 22.3189 75.1024 22.107C75.1234 21.6918 75.3016 21.3001 75.6009 21.0114C75.9001 20.7228 76.298 20.5588 76.7137 20.5527C76.9259 20.5524 77.1359 20.5954 77.3309 20.6793C77.5258 20.7632 77.7015 20.8861 77.8471 21.0404C77.9927 21.1948 78.1052 21.3773 78.1776 21.5768C78.25 21.7763 78.2807 21.9885 78.268 22.2003C78.2494 22.6164 78.072 23.0095 77.7722 23.2987C77.4725 23.5879 77.0732 23.751 76.6567 23.7546Z" fill="#FAFAFA"/>
<path d="M58.3774 23.7546C58.1652 23.755 57.9552 23.7119 57.7602 23.628C57.5653 23.5441 57.3896 23.4212 57.244 23.2669C57.0984 23.1125 56.9859 22.93 56.9135 22.7305C56.8412 22.531 56.8104 22.3189 56.8231 22.107C56.8454 21.6913 57.0247 21.2996 57.3248 21.0111C57.6249 20.7225 58.0233 20.5587 58.4396 20.5527C58.6518 20.5524 58.8618 20.5954 59.0567 20.6793C59.2517 20.7632 59.4273 20.8861 59.573 21.0404C59.7186 21.1948 59.8311 21.3773 59.9034 21.5768C59.9758 21.7763 60.0066 21.9885 59.9939 22.2003C59.9753 22.6173 59.7971 23.0112 59.4962 23.3005C59.1954 23.5898 58.7948 23.7523 58.3774 23.7546Z" fill="#FAFAFA"/>
<path d="M40.0932 23.7546C39.881 23.755 39.671 23.7119 39.4761 23.628C39.2811 23.5441 39.1055 23.4212 38.9598 23.2669C38.8142 23.1125 38.7018 22.93 38.6294 22.7305C38.557 22.531 38.5262 22.3189 38.5389 22.107C38.5587 21.6914 38.7365 21.299 39.0361 21.01C39.3356 20.7211 39.7341 20.5576 40.1502 20.5527C40.3624 20.5524 40.5725 20.5954 40.7674 20.6793C40.9623 20.7632 41.138 20.8861 41.2836 21.0404C41.4292 21.1948 41.5417 21.3773 41.6141 21.5768C41.6865 21.7763 41.7173 21.9885 41.7045 22.2003C41.6847 22.616 41.5069 23.0084 41.2074 23.2973C40.9079 23.5862 40.5093 23.7498 40.0932 23.7546Z" fill="#FAFAFA"/>
<path d="M21.8091 23.7546C21.5968 23.755 21.3868 23.7119 21.1919 23.628C20.997 23.5441 20.8213 23.4212 20.6757 23.2669C20.53 23.1125 20.4176 22.93 20.3452 22.7305C20.2728 22.531 20.242 22.3189 20.2548 22.107C20.2745 21.6914 20.4524 21.299 20.7519 21.01C21.0514 20.7211 21.4499 20.5576 21.866 20.5527C22.0782 20.5524 22.2883 20.5954 22.4832 20.6793C22.6781 20.7632 22.8538 20.8861 22.9994 21.0404C23.145 21.1948 23.2575 21.3773 23.3299 21.5768C23.4023 21.7763 23.4331 21.9885 23.4203 22.2003C23.4018 22.6164 23.2243 23.0095 22.9246 23.2987C22.6248 23.5879 22.2255 23.751 21.8091 23.7546Z" fill="#FAFAFA"/>
</g>
<path d="M26.3788 29.5465H17.1825C17.0492 29.5476 16.9171 29.5211 16.7946 29.4685C16.672 29.4159 16.5618 29.3385 16.4707 29.2411C16.3796 29.1437 16.3098 29.0285 16.2655 28.9027C16.2213 28.7769 16.2036 28.6433 16.2137 28.5104C16.2239 28.2388 16.3364 27.9812 16.5285 27.789C16.7207 27.5969 16.9783 27.4844 17.2499 27.4742H26.4461C26.5795 27.4731 26.7116 27.4996 26.8341 27.5522C26.9566 27.6048 27.0669 27.6822 27.158 27.7796C27.249 27.877 27.3189 27.9923 27.3631 28.118C27.4074 28.2438 27.425 28.3774 27.415 28.5104C27.4047 28.7819 27.2923 29.0395 27.1001 29.2317C26.908 29.4238 26.6503 29.5363 26.3788 29.5465Z" fill="#C778FF"/>
<path d="M44.663 29.5465H35.4667C35.3334 29.5476 35.2013 29.5211 35.0787 29.4685C34.9562 29.4159 34.8459 29.3385 34.7549 29.2411C34.6638 29.1437 34.594 29.0284 34.5497 28.9027C34.5055 28.7769 34.4878 28.6433 34.4979 28.5103C34.5084 28.2345 34.6245 27.9732 34.8222 27.7803C35.0198 27.5875 35.2839 27.4779 35.56 27.4742H44.751C44.8846 27.4731 45.0169 27.4997 45.1397 27.5522C45.2624 27.6048 45.373 27.6821 45.4645 27.7794C45.5559 27.8767 45.6263 27.9919 45.6712 28.1176C45.716 28.2434 45.7343 28.3771 45.7251 28.5103C45.7145 28.7862 45.5984 29.0476 45.4007 29.2404C45.2031 29.4332 44.939 29.5428 44.663 29.5465Z" fill="#C778FF"/>
<path d="M62.947 29.5465H53.7508C53.6173 29.5476 53.4849 29.521 53.3622 29.4685C53.2394 29.416 53.1288 29.3386 53.0373 29.2413C52.9459 29.144 52.8755 29.0289 52.8307 28.9031C52.7858 28.7773 52.7675 28.6436 52.7768 28.5104C52.7874 28.2345 52.9034 27.9732 53.1011 27.7804C53.2987 27.5875 53.5628 27.4779 53.8389 27.4742H63.0403C63.1736 27.4731 63.3057 27.4996 63.4283 27.5522C63.5508 27.6048 63.6611 27.6822 63.7521 27.7796C63.8432 27.877 63.913 27.9923 63.9573 28.118C64.0015 28.2438 64.0192 28.3774 64.0091 28.5104C63.9998 28.7867 63.8841 29.0487 63.6862 29.2418C63.4883 29.4349 63.2235 29.544 62.947 29.5465Z" fill="#C778FF"/>
<path d="M81.2264 29.5465H72.0302C71.8968 29.5476 71.7647 29.5211 71.6422 29.4685C71.5197 29.4159 71.4094 29.3385 71.3183 29.2411C71.2273 29.1437 71.1574 29.0285 71.1132 28.9027C71.0689 28.7769 71.0513 28.6433 71.0613 28.5104C71.0716 28.2388 71.184 27.9812 71.3762 27.789C71.5683 27.5969 71.826 27.4844 72.0975 27.4742H81.2938C81.4271 27.4731 81.5592 27.4996 81.6817 27.5522C81.8043 27.6048 81.9145 27.6822 82.0056 27.7796C82.0967 27.877 82.1665 27.9923 82.2108 28.118C82.255 28.2438 82.2727 28.3774 82.2626 28.5104C82.2524 28.7819 82.1399 29.0395 81.9478 29.2317C81.7556 29.4238 81.498 29.5363 81.2264 29.5465Z" fill="#C778FF"/>
<path d="M99.5106 29.5465H90.3144C90.181 29.5476 90.0489 29.5211 89.9264 29.4685C89.8039 29.4159 89.6936 29.3385 89.6025 29.2411C89.5115 29.1437 89.4416 29.0285 89.3974 28.9027C89.3531 28.7769 89.3355 28.6433 89.3455 28.5104C89.3561 28.2345 89.4722 27.9732 89.6698 27.7804C89.8675 27.5875 90.1315 27.4779 90.4076 27.4742H99.6039C99.7372 27.4731 99.8693 27.4996 99.9918 27.5522C100.114 27.6048 100.225 27.6822 100.316 27.7796C100.407 27.877 100.477 27.9923 100.521 28.118C100.565 28.2438 100.583 28.3774 100.573 28.5104C100.562 28.7862 100.446 29.0476 100.248 29.2404C100.051 29.4332 99.7867 29.5428 99.5106 29.5465Z" fill="#C778FF"/>
<path d="M117.795 29.5465H108.599C108.465 29.5476 108.333 29.5211 108.211 29.4685C108.088 29.4159 107.978 29.3385 107.887 29.2411C107.796 29.1437 107.726 29.0284 107.682 28.9027C107.637 28.7769 107.62 28.6433 107.63 28.5103C107.64 28.2345 107.756 27.9732 107.954 27.7803C108.152 27.5875 108.416 27.4779 108.692 27.4742H117.883C118.016 27.4731 118.149 27.4997 118.271 27.5522C118.394 27.6048 118.505 27.6821 118.596 27.7794C118.688 27.8767 118.758 27.9919 118.803 28.1176C118.848 28.2434 118.866 28.3771 118.857 28.5103C118.846 28.7862 118.73 29.0476 118.533 29.2404C118.335 29.4332 118.071 29.5428 117.795 29.5465Z" fill="#C778FF"/>
<g opacity="0.3">
<path d="M26.3788 29.5461H17.1825C17.0492 29.5472 16.9171 29.5206 16.7946 29.468C16.672 29.4154 16.5618 29.338 16.4707 29.2406C16.3796 29.1432 16.3098 29.028 16.2655 28.9022C16.2213 28.7764 16.2036 28.6428 16.2137 28.5099C16.2239 28.2383 16.3364 27.9807 16.5285 27.7885C16.7207 27.5964 16.9783 27.4839 17.2499 27.4737H26.4461C26.5795 27.4726 26.7116 27.4992 26.8341 27.5517C26.9566 27.6043 27.0669 27.6818 27.158 27.7792C27.249 27.8765 27.3189 27.9918 27.3631 28.1176C27.4074 28.2433 27.425 28.3769 27.415 28.5099C27.4047 28.7814 27.2923 29.0391 27.1001 29.2312C26.908 29.4233 26.6503 29.5358 26.3788 29.5461Z" fill="black"/>
<path d="M44.663 29.5461H35.4667C35.3334 29.5472 35.2013 29.5206 35.0787 29.468C34.9562 29.4154 34.8459 29.338 34.7549 29.2406C34.6638 29.1432 34.594 29.028 34.5497 28.9022C34.5055 28.7764 34.4878 28.6428 34.4979 28.5099C34.5084 28.234 34.6245 27.9727 34.8222 27.7799C35.0198 27.5871 35.2839 27.4774 35.56 27.4737H44.751C44.8846 27.4726 45.0169 27.4992 45.1397 27.5517C45.2624 27.6043 45.373 27.6816 45.4645 27.7789C45.5559 27.8762 45.6263 27.9914 45.6712 28.1172C45.716 28.2429 45.7343 28.3766 45.7251 28.5099C45.7145 28.7858 45.5984 29.0471 45.4007 29.2399C45.2031 29.4327 44.939 29.5423 44.663 29.5461Z" fill="black"/>
<path d="M62.947 29.5461H53.7508C53.6173 29.5471 53.4849 29.5205 53.3622 29.468C53.2394 29.4155 53.1288 29.3381 53.0373 29.2408C52.9459 29.1435 52.8755 29.0284 52.8307 28.9026C52.7858 28.7768 52.7675 28.6431 52.7768 28.5099C52.7874 28.234 52.9034 27.9727 53.1011 27.7799C53.2987 27.5871 53.5628 27.4774 53.8389 27.4737H63.0403C63.1736 27.4726 63.3057 27.4992 63.4283 27.5517C63.5508 27.6043 63.6611 27.6818 63.7521 27.7792C63.8432 27.8765 63.913 27.9918 63.9573 28.1176C64.0015 28.2433 64.0192 28.3769 64.0091 28.5099C63.9998 28.7862 63.8841 29.0482 63.6862 29.2413C63.4883 29.4344 63.2235 29.5435 62.947 29.5461Z" fill="black"/>
<path d="M81.2264 29.5461H72.0302C71.8968 29.5472 71.7647 29.5206 71.6422 29.468C71.5197 29.4154 71.4094 29.338 71.3183 29.2406C71.2273 29.1432 71.1574 29.028 71.1132 28.9022C71.0689 28.7764 71.0513 28.6428 71.0613 28.5099C71.0716 28.2383 71.184 27.9807 71.3762 27.7885C71.5683 27.5964 71.826 27.4839 72.0975 27.4737H81.2938C81.4271 27.4726 81.5592 27.4992 81.6817 27.5517C81.8043 27.6043 81.9145 27.6818 82.0056 27.7792C82.0967 27.8765 82.1665 27.9918 82.2108 28.1176C82.255 28.2433 82.2727 28.3769 82.2626 28.5099C82.2524 28.7814 82.1399 29.0391 81.9478 29.2312C81.7556 29.4233 81.498 29.5358 81.2264 29.5461Z" fill="black"/>
<path d="M99.5106 29.5461H90.3144C90.181 29.5472 90.0489 29.5206 89.9264 29.468C89.8039 29.4154 89.6936 29.338 89.6025 29.2406C89.5115 29.1432 89.4416 29.028 89.3974 28.9022C89.3531 28.7764 89.3355 28.6428 89.3455 28.5099C89.3561 28.234 89.4722 27.9727 89.6698 27.7799C89.8675 27.5871 90.1315 27.4774 90.4076 27.4737H99.6039C99.7372 27.4726 99.8693 27.4992 99.9918 27.5517C100.114 27.6043 100.225 27.6818 100.316 27.7792C100.407 27.8765 100.477 27.9918 100.521 28.1176C100.565 28.2433 100.583 28.3769 100.573 28.5099C100.562 28.7858 100.446 29.0471 100.248 29.2399C100.051 29.4327 99.7867 29.5423 99.5106 29.5461Z" fill="black"/>
<path d="M117.795 29.5461H108.599C108.465 29.5472 108.333 29.5206 108.211 29.468C108.088 29.4154 107.978 29.338 107.887 29.2406C107.796 29.1432 107.726 29.028 107.682 28.9022C107.637 28.7764 107.62 28.6428 107.63 28.5099C107.64 28.234 107.756 27.9727 107.954 27.7799C108.152 27.5871 108.416 27.4774 108.692 27.4737H117.883C118.016 27.4726 118.149 27.4992 118.271 27.5517C118.394 27.6043 118.505 27.6816 118.596 27.7789C118.688 27.8762 118.758 27.9914 118.803 28.1172C118.848 28.2429 118.866 28.3766 118.857 28.5099C118.846 28.7858 118.73 29.0471 118.533 29.2399C118.335 29.4327 118.071 29.5423 117.795 29.5461Z" fill="black"/>
</g>
<path d="M26.8854 49.1151H14.907C14.6443 49.1161 14.3841 49.0636 14.1424 48.9607C13.9007 48.8578 13.6824 48.7067 13.5011 48.5166C13.3197 48.3265 13.179 48.1014 13.0876 47.8551C12.9962 47.6088 12.9559 47.3465 12.9693 47.0841L13.4874 35.1057C13.5188 34.5612 13.7555 34.0489 14.1497 33.672C14.5439 33.2951 15.0663 33.0817 15.6116 33.0747H27.5901C27.8528 33.0737 28.113 33.1262 28.3547 33.2291C28.5964 33.332 28.8146 33.4831 28.996 33.6732C29.1773 33.8633 29.318 34.0884 29.4094 34.3346C29.5009 34.5809 29.5411 34.8433 29.5278 35.1057L29.0097 47.0841C28.977 47.6281 28.74 48.1398 28.3461 48.5164C27.9521 48.893 27.4304 49.1069 26.8854 49.1151Z" fill="#C778FF"/>
<path d="M45.1699 49.1151H33.1915C32.9285 49.1169 32.668 49.0648 32.4259 48.9622C32.1839 48.8595 31.9653 48.7084 31.7838 48.5182C31.6023 48.328 31.4617 48.1026 31.3705 47.856C31.2794 47.6093 31.2396 47.3467 31.2538 47.0841L31.7719 35.1057C31.8033 34.5612 32.0399 34.0489 32.4341 33.672C32.8283 33.2951 33.3507 33.0817 33.8961 33.0747H45.8901C46.153 33.0737 46.4134 33.1262 46.6554 33.2291C46.8974 33.3319 47.1159 33.4829 47.2977 33.6729C47.4794 33.8629 47.6206 34.0879 47.7126 34.3343C47.8047 34.5806 47.8456 34.843 47.8329 35.1057L47.2889 47.0841C47.2588 47.6281 47.0232 48.1404 46.6299 48.5174C46.2365 48.8944 45.7147 49.108 45.1699 49.1151Z" fill="#C778FF"/>
<path d="M63.4477 49.1151H51.4744C51.2115 49.1161 50.9511 49.0636 50.7091 48.9607C50.4671 48.8579 50.2486 48.7069 50.0668 48.5169C49.8851 48.3269 49.7439 48.1019 49.6518 47.8555C49.5598 47.6092 49.5189 47.3468 49.5315 47.0841L50.0496 35.1057C50.0811 34.5612 50.3177 34.0489 50.7119 33.672C51.1061 33.2951 51.6285 33.0817 52.1739 33.0748H64.1471C64.4101 33.073 64.6706 33.125 64.9126 33.2276C65.1547 33.3303 65.3732 33.4813 65.5547 33.6716C65.7363 33.8618 65.8769 34.0872 65.9681 34.3338C66.0592 34.5805 66.099 34.8431 66.0848 35.1057L65.5667 47.0841C65.5354 47.6277 65.2994 48.1393 64.9063 48.5161C64.5132 48.8928 63.9921 49.1068 63.4477 49.1151Z" fill="#C778FF"/>
<path d="M81.7342 49.1151H69.7764C69.5133 49.1168 69.2526 49.0648 69.0102 48.9622C68.7679 48.8596 68.549 48.7086 68.3671 48.5185C68.1852 48.3283 68.0441 48.103 67.9523 47.8564C67.8606 47.6097 67.8202 47.3469 67.8336 47.0841L68.3517 35.1057C68.3818 34.5617 68.6174 34.0494 69.0107 33.6724C69.4041 33.2954 69.9259 33.0818 70.4707 33.0747H82.4491C82.7119 33.0737 82.972 33.1262 83.2138 33.2291C83.4555 33.332 83.6737 33.4831 83.855 33.6732C84.0364 33.8633 84.1771 34.0884 84.2685 34.3346C84.36 34.5809 84.4002 34.8433 84.3868 35.1057L83.8687 47.0841C83.8372 47.6303 83.5991 48.1441 83.2027 48.5213C82.8063 48.8984 82.2813 49.1107 81.7342 49.1151Z" fill="#C778FF"/>
<path d="M100.017 49.1151H88.0388C87.7761 49.1161 87.5159 49.0636 87.2742 48.9607C87.0325 48.8578 86.8143 48.7067 86.6329 48.5166C86.4516 48.3265 86.3109 48.1015 86.2194 47.8552C86.128 47.6089 86.0878 47.3465 86.1011 47.0841L86.6192 35.1057C86.6507 34.5612 86.8873 34.0489 87.2815 33.672C87.6757 33.2951 88.1981 33.0817 88.7434 33.0747H100.717C100.98 33.073 101.241 33.125 101.483 33.2276C101.725 33.3302 101.944 33.4812 102.126 33.6713C102.308 33.8615 102.449 34.0868 102.541 34.3334C102.633 34.5801 102.673 34.8429 102.66 35.1057L102.141 47.0841C102.109 47.6282 101.872 48.1398 101.478 48.5164C101.084 48.8931 100.562 49.1069 100.017 49.1151Z" fill="#C778FF"/>
<path d="M118.297 49.1151H106.323C106.06 49.1169 105.8 49.0648 105.558 48.9622C105.316 48.8595 105.097 48.7084 104.916 48.5182C104.734 48.328 104.594 48.1026 104.502 47.856C104.411 47.6093 104.371 47.3467 104.386 47.0841L104.904 35.1057C104.935 34.5612 105.172 34.0489 105.566 33.672C105.96 33.2951 106.483 33.0817 107.028 33.0747H119.001C119.264 33.0737 119.525 33.1262 119.767 33.2291C120.009 33.3319 120.227 33.4829 120.409 33.6729C120.591 33.8629 120.732 34.0879 120.824 34.3343C120.916 34.5806 120.957 34.843 120.944 35.1057L120.4 47.0841C120.37 47.6255 120.137 48.1356 119.747 48.5122C119.357 48.8888 118.839 49.1041 118.297 49.1151Z" fill="#C778FF"/>
<g opacity="0.8">
<path d="M26.8874 49.1156H14.909C14.6462 49.1166 14.3861 49.0641 14.1443 48.9612C13.9026 48.8583 13.6844 48.7072 13.503 48.5171C13.3217 48.327 13.181 48.1019 13.0896 47.8556C12.9981 47.6093 12.9579 47.347 12.9713 47.0846L13.4894 35.1061C13.5208 34.5617 13.7574 34.0494 14.1516 33.6725C14.5458 33.2956 15.0682 33.0822 15.6136 33.0752H27.592C27.8547 33.0742 28.1149 33.1267 28.3566 33.2296C28.5984 33.3325 28.8166 33.4836 28.9979 33.6737C29.1793 33.8638 29.32 34.0888 29.4114 34.3351C29.5028 34.5814 29.5431 34.8438 29.5297 35.1061L29.0116 47.0846C28.979 47.6286 28.742 48.1403 28.348 48.5169C27.9541 48.8935 27.4324 49.1074 26.8874 49.1156Z" fill="#FAFAFA"/>
<path d="M45.1719 49.1156H33.1934C32.9305 49.1173 32.67 49.0653 32.4279 48.9627C32.1858 48.86 31.9673 48.7089 31.7858 48.5187C31.6043 48.3285 31.4636 48.1031 31.3725 47.8565C31.2813 47.6098 31.2416 47.3472 31.2557 47.0846L31.7738 35.1061C31.8052 34.5617 32.0419 34.0494 32.4361 33.6725C32.8303 33.2956 33.3527 33.0822 33.898 33.0752H45.892C46.155 33.0742 46.4154 33.1267 46.6573 33.2296C46.8993 33.3324 47.1179 33.4834 47.2996 33.6734C47.4814 33.8634 47.6226 34.0884 47.7146 34.3347C47.8066 34.5811 47.8475 34.8435 47.8349 35.1061L47.2909 47.0846C47.2607 47.6286 47.0252 48.1409 46.6318 48.5179C46.2385 48.8949 45.7167 49.1085 45.1719 49.1156Z" fill="#FAFAFA"/>
<path d="M63.4496 49.1156H51.4764C51.2134 49.1166 50.953 49.0641 50.711 48.9612C50.4691 48.8584 50.2505 48.7074 50.0688 48.5174C49.887 48.3274 49.7458 48.1023 49.6538 47.856C49.5618 47.6097 49.5208 47.3473 49.5335 47.0846L50.0516 35.1062C50.083 34.5617 50.3197 34.0494 50.7139 33.6725C51.1081 33.2956 51.6305 33.0822 52.1758 33.0752H64.1491C64.412 33.0734 64.6725 33.1255 64.9146 33.2281C65.1567 33.3307 65.3752 33.4818 65.5567 33.6721C65.7382 33.8623 65.8789 34.0877 65.97 34.3343C66.0612 34.581 66.1009 34.8436 66.0868 35.1062L65.5687 47.0846C65.5373 47.6282 65.3014 48.1398 64.9083 48.5165C64.5152 48.8933 63.9941 49.1073 63.4496 49.1156Z" fill="#FAFAFA"/>
<path d="M81.7361 49.1156H69.7784C69.5152 49.1173 69.2545 49.0653 69.0122 48.9627C68.7698 48.8601 68.551 48.7091 68.3691 48.5189C68.1872 48.3288 68.046 48.1035 67.9543 47.8568C67.8625 47.6102 67.8221 47.3474 67.8355 47.0846L68.3536 35.1061C68.3838 34.5621 68.6193 34.0499 69.0127 33.6729C69.406 33.2959 69.9278 33.0823 70.4726 33.0752H82.4511C82.7138 33.0742 82.974 33.1267 83.2157 33.2296C83.4574 33.3325 83.6756 33.4836 83.857 33.6737C84.0384 33.8638 84.179 34.0888 84.2705 34.3351C84.3619 34.5814 84.4022 34.8438 84.3888 35.1061L83.8707 47.0846C83.8391 47.6308 83.601 48.1446 83.2046 48.5218C82.8082 48.8989 82.2832 49.1112 81.7361 49.1156Z" fill="#FAFAFA"/>
<path d="M100.019 49.1156H88.0408C87.7781 49.1166 87.5179 49.0641 87.2762 48.9612C87.0344 48.8583 86.8162 48.7072 86.6349 48.5171C86.4535 48.327 86.3128 48.1019 86.2214 47.8557C86.13 47.6094 86.0897 47.347 86.1031 47.0846L86.6212 35.1062C86.6526 34.5617 86.8893 34.0494 87.2835 33.6725C87.6777 33.2956 88.2001 33.0822 88.7454 33.0752H100.719C100.982 33.0735 101.243 33.1255 101.485 33.2281C101.727 33.3307 101.946 33.4817 102.128 33.6718C102.31 33.862 102.451 34.0873 102.543 34.3339C102.635 34.5806 102.675 34.8434 102.662 35.1062L102.143 47.0846C102.111 47.6287 101.874 48.1403 101.48 48.5169C101.086 48.8936 100.564 49.1074 100.019 49.1156Z" fill="#FAFAFA"/>
<path d="M118.293 49.1156H106.319C106.056 49.1173 105.796 49.0653 105.554 48.9627C105.312 48.86 105.093 48.7089 104.912 48.5187C104.73 48.3285 104.59 48.1031 104.498 47.8565C104.407 47.6098 104.368 47.3472 104.382 47.0846L104.9 35.1061C104.931 34.5617 105.168 34.0494 105.562 33.6725C105.956 33.2956 106.479 33.0822 107.024 33.0752H118.997C119.26 33.0742 119.521 33.1267 119.763 33.2296C120.005 33.3324 120.223 33.4834 120.405 33.6734C120.587 33.8634 120.728 34.0884 120.82 34.3347C120.912 34.5811 120.953 34.8435 120.94 35.1061L120.396 47.0846C120.366 47.626 120.133 48.1361 119.743 48.5127C119.353 48.8893 118.835 49.1046 118.293 49.1156Z" fill="#FAFAFA"/>
</g>
<path d="M26.0446 67.6995H14.0662C13.8035 67.7006 13.5433 67.648 13.3016 67.5451C13.0598 67.4422 12.8416 67.2911 12.6603 67.1011C12.4789 66.911 12.3382 66.6859 12.2468 66.4396C12.1554 66.1933 12.1151 65.931 12.1285 65.6686L12.6466 53.6901C12.6792 53.1461 12.9162 52.6345 13.3102 52.2578C13.7041 51.8812 14.2258 51.6674 14.7708 51.6592H26.77C27.0327 51.6581 27.2929 51.7107 27.5346 51.8136C27.7763 51.9165 27.9945 52.0676 28.1759 52.2577C28.3572 52.4478 28.4979 52.6728 28.5893 52.9191C28.6808 53.1654 28.721 53.4278 28.7077 53.6901L28.1896 65.6686C28.1567 66.2162 27.9167 66.7307 27.5184 67.1079C27.1201 67.4851 26.5932 67.6966 26.0446 67.6995Z" fill="#C778FF"/>
<path d="M44.3288 67.6996H32.3504C32.0876 67.7006 31.8275 67.6481 31.5857 67.5452C31.344 67.4423 31.1258 67.2912 30.9444 67.1011C30.7631 66.911 30.6224 66.6859 30.531 66.4396C30.4395 66.1933 30.3993 65.931 30.4127 65.6686L30.9308 53.6902C30.9622 53.1457 31.1988 52.6334 31.593 52.2565C31.9872 51.8796 32.5096 51.6662 33.055 51.6592H45.0282C45.2935 51.6574 45.5562 51.7099 45.8003 51.8137C46.0444 51.9175 46.2645 52.0703 46.4471 52.2627C46.6298 52.455 46.7709 52.6828 46.862 52.9319C46.953 53.181 46.9919 53.4461 46.9763 53.7109L46.4582 65.6686C46.4279 66.2144 46.1909 66.7282 45.7954 67.1054C45.3998 67.4827 44.8754 67.6951 44.3288 67.6996Z" fill="#C778FF"/>
<path d="M62.6081 67.6996H50.6348C50.3719 67.7014 50.1114 67.6493 49.8693 67.5467C49.6272 67.444 49.4087 67.293 49.2272 67.1027C49.0457 66.9125 48.905 66.6871 48.8139 66.4405C48.7227 66.1938 48.683 65.9312 48.6971 65.6686L49.2152 53.6902C49.2466 53.1457 49.4833 52.6334 49.8775 52.2565C50.2717 51.8796 50.7941 51.6662 51.3394 51.6592H63.3127C63.5756 51.6574 63.8361 51.7094 64.0782 51.8121C64.3203 51.9147 64.5388 52.0658 64.7203 52.2561C64.9018 52.4463 65.0425 52.6717 65.1336 52.9183C65.2248 53.1649 65.2645 53.4276 65.2504 53.6902L64.7323 65.6686C64.7009 66.2131 64.4642 66.7254 64.07 67.1023C63.6758 67.4792 63.1534 67.6926 62.6081 67.6996Z" fill="#C778FF"/>
<path d="M80.892 67.6998H68.9188C68.6558 67.7008 68.3954 67.6483 68.1534 67.5455C67.9114 67.4426 67.6929 67.2916 67.5111 67.1016C67.3294 66.9116 67.1882 66.6866 67.0962 66.4403C67.0041 66.194 66.9632 65.9315 66.9759 65.6689L67.494 53.6904C67.5241 53.1464 67.7597 52.6341 68.153 52.2571C68.5464 51.8801 69.0682 51.6665 69.613 51.6595H81.5914C81.8582 51.6547 82.123 51.7052 82.3693 51.8077C82.6155 51.9103 82.8379 52.0628 83.0224 52.2555C83.2068 52.4482 83.3494 52.6771 83.441 52.9276C83.5327 53.1781 83.5715 53.4449 83.555 53.7112L83.0369 65.6896C83.0002 66.2339 82.7584 66.7441 82.3604 67.1171C81.9623 67.4902 81.4376 67.6984 80.892 67.6998Z" fill="#C778FF"/>
<path d="M99.1765 67.7002H87.198C86.9353 67.7013 86.6751 67.6488 86.4334 67.5458C86.1917 67.4429 85.9735 67.2918 85.7921 67.1018C85.6107 66.9117 85.4701 66.6866 85.3786 66.4403C85.2872 66.194 85.2469 65.9317 85.2603 65.6693L85.7784 53.6908C85.806 53.1422 86.0416 52.6248 86.4371 52.2437C86.8327 51.8625 87.3586 51.6464 87.9078 51.6392H99.8862C100.149 51.6381 100.409 51.6907 100.651 51.7936C100.893 51.8965 101.111 52.0476 101.292 52.2377C101.474 52.4277 101.614 52.6528 101.706 52.8991C101.797 53.1454 101.837 53.4078 101.824 53.6701L101.306 65.6486C101.278 66.1972 101.043 66.7146 100.647 67.0958C100.252 67.4769 99.7257 67.693 99.1765 67.7002Z" fill="#C778FF"/>
<path d="M117.44 67.6995H105.482C105.22 67.7013 104.959 67.6493 104.717 67.5467C104.475 67.444 104.256 67.2929 104.075 67.1027C103.893 66.9124 103.753 66.6871 103.662 66.4404C103.57 66.1938 103.531 65.9311 103.545 65.6686L104.063 53.6901C104.094 53.1457 104.331 52.6334 104.725 52.2565C105.119 51.8796 105.642 51.6662 106.187 51.6592H118.16C118.423 51.6582 118.684 51.7107 118.926 51.8135C119.168 51.9164 119.386 52.0674 119.568 52.2574C119.75 52.4474 119.891 52.6724 119.983 52.9187C120.075 53.165 120.116 53.4275 120.103 53.6901L119.559 65.6686C119.529 66.2126 119.294 66.7249 118.9 67.1019C118.507 67.4789 117.985 67.6925 117.44 67.6995Z" fill="#C778FF"/>
<g opacity="0.8">
<path d="M26.0456 67.7H14.0671C13.8044 67.7011 13.5443 67.6485 13.3025 67.5456C13.0608 67.4427 12.8426 67.2916 12.6612 67.1015C12.4799 66.9115 12.3392 66.6864 12.2478 66.4401C12.1563 66.1938 12.1161 65.9314 12.1295 65.6691L12.6476 53.6906C12.6802 53.1466 12.9172 52.635 13.3111 52.2583C13.7051 51.8817 14.2268 51.6679 14.7718 51.6597H26.7709C27.0337 51.6586 27.2938 51.7112 27.5356 51.8141C27.7773 51.917 27.9955 52.0681 28.1768 52.2582C28.3582 52.4482 28.4989 52.6733 28.5903 52.9196C28.6818 53.1659 28.722 53.4282 28.7086 53.6906L28.1905 65.6691C28.1577 66.2166 27.9177 66.7312 27.5194 67.1084C27.121 67.4856 26.5942 67.6971 26.0456 67.7Z" fill="#FAFAFA"/>
<path d="M44.3298 67.7001H32.3513C32.0886 67.7011 31.8284 67.6486 31.5867 67.5457C31.345 67.4428 31.1268 67.2917 30.9454 67.1016C30.7641 66.9115 30.6234 66.6864 30.5319 66.4401C30.4405 66.1938 30.4003 65.9315 30.4136 65.6691L30.9317 53.6907C30.9632 53.1462 31.1998 52.6339 31.594 52.257C31.9882 51.8801 32.5106 51.6667 33.056 51.6597H45.0292C45.2944 51.6578 45.5572 51.7104 45.8013 51.8142C46.0453 51.918 46.2655 52.0708 46.4481 52.2631C46.6307 52.4555 46.7719 52.6833 46.8629 52.9324C46.954 53.1815 46.9929 53.4466 46.9773 53.7114L46.4592 65.6691C46.4289 66.2149 46.1919 66.7286 45.7963 67.1059C45.4008 67.4832 44.8764 67.6956 44.3298 67.7001Z" fill="#FAFAFA"/>
<path d="M62.6091 67.7001H50.6358C50.3729 67.7018 50.1123 67.6498 49.8703 67.5472C49.6282 67.4445 49.4097 67.2934 49.2282 67.1032C49.0467 66.913 48.906 66.6876 48.8148 66.441C48.7237 66.1943 48.684 65.9317 48.6981 65.6691L49.2162 53.6907C49.2476 53.1462 49.4843 52.6339 49.8785 52.257C50.2727 51.8801 50.7951 51.6667 51.3404 51.6597H63.3137C63.5766 51.6579 63.8371 51.7099 64.0792 51.8126C64.3213 51.9152 64.5398 52.0663 64.7213 52.2566C64.9028 52.4468 65.0434 52.6722 65.1346 52.9188C65.2258 53.1654 65.2655 53.4281 65.2514 53.6907L64.7333 65.6691C64.7018 66.2136 64.4652 66.7259 64.071 67.1028C63.6768 67.4797 63.1544 67.6931 62.6091 67.7001Z" fill="#FAFAFA"/>
<path d="M80.893 67.7003H68.9197C68.6568 67.7013 68.3964 67.6488 68.1544 67.546C67.9124 67.4431 67.6939 67.2921 67.5121 67.1021C67.3304 66.9121 67.1892 66.6871 67.0971 66.4408C67.0051 66.1945 66.9642 65.932 66.9769 65.6694L67.495 53.6909C67.5251 53.1469 67.7607 52.6346 68.154 52.2576C68.5474 51.8806 69.0692 51.667 69.614 51.66H81.5924C81.8592 51.6552 82.124 51.7057 82.3703 51.8082C82.6165 51.9108 82.8389 52.0633 83.0233 52.256C83.2078 52.4487 83.3503 52.6775 83.442 52.9281C83.5337 53.1786 83.5725 53.4454 83.556 53.7116L83.0379 65.6901C83.0012 66.2344 82.7594 66.7446 82.3614 67.1176C81.9633 67.4907 81.4385 67.6989 80.893 67.7003Z" fill="#FAFAFA"/>
<path d="M99.1774 67.7007H87.199C86.9363 67.7018 86.6761 67.6492 86.4344 67.5463C86.1926 67.4434 85.9744 67.2923 85.7931 67.1022C85.6117 66.9122 85.471 66.6871 85.3796 66.4408C85.2882 66.1945 85.2479 65.9322 85.2613 65.6698L85.7794 53.6913C85.807 53.1427 86.0425 52.6253 86.4381 52.2441C86.8337 51.863 87.3595 51.6469 87.9088 51.6397H99.8872C100.15 51.6386 100.41 51.6912 100.652 51.7941C100.894 51.897 101.112 52.0481 101.293 52.2381C101.474 52.4282 101.615 52.6533 101.707 52.8996C101.798 53.1459 101.838 53.4082 101.825 53.6706L101.307 65.6491C101.279 66.1977 101.044 66.7151 100.648 67.0963C100.253 67.4774 99.7267 67.6935 99.1774 67.7007Z" fill="#FAFAFA"/>
<path d="M117.435 67.7H105.478C105.215 67.7018 104.954 67.6498 104.712 67.5471C104.47 67.4445 104.251 67.2934 104.07 67.1032C103.888 66.9129 103.748 66.6876 103.657 66.4409C103.565 66.1943 103.526 65.9316 103.54 65.6691L104.058 53.6906C104.089 53.1462 104.326 52.6339 104.72 52.257C105.114 51.8801 105.637 51.6666 106.182 51.6597H118.155C118.418 51.6587 118.679 51.7112 118.921 51.814C119.163 51.9169 119.381 52.0679 119.563 52.2579C119.745 52.4479 119.886 52.6729 119.978 52.9192C120.07 53.1655 120.111 53.428 120.098 53.6906L119.554 65.6691C119.524 66.2131 119.289 66.7254 118.895 67.1024C118.502 67.4794 117.98 67.693 117.435 67.7Z" fill="#FAFAFA"/>
</g>
<path d="M25.2203 86.2784H13.2315C12.9686 86.2802 12.708 86.2281 12.466 86.1255C12.2239 86.0229 12.0054 85.8718 11.8239 85.6815C11.6424 85.4913 11.5017 85.2659 11.4106 85.0193C11.3194 84.7726 11.2797 84.51 11.2938 84.2474L11.8119 72.2741C11.8433 71.7297 12.08 71.2174 12.4742 70.8405C12.8684 70.4636 13.3908 70.2502 13.9361 70.2432H25.9146C26.1775 70.2414 26.438 70.2934 26.6801 70.3961C26.9222 70.4987 27.1407 70.6498 27.3222 70.8401C27.5037 71.0303 27.6443 71.2557 27.7355 71.5023C27.8267 71.7489 27.8664 72.0116 27.8523 72.2741L27.3342 84.2474C27.3041 84.7906 27.0692 85.3021 26.677 85.679C26.2847 86.0558 25.7642 86.27 25.2203 86.2784Z" fill="#C778FF"/>
<path d="M43.4941 86.2784H31.5157C31.2527 86.2802 30.9922 86.2282 30.7502 86.1255C30.5081 86.0229 30.2896 85.8718 30.1081 85.6816C29.9265 85.4913 29.7859 85.2659 29.6947 85.0193C29.6036 84.7727 29.5638 84.51 29.578 84.2475L30.0961 72.2742C30.1263 71.7293 30.3626 71.2163 30.757 70.8392C31.1515 70.462 31.6746 70.249 32.2203 70.2433H44.1936C44.4569 70.2407 44.718 70.2922 44.9607 70.3946C45.2034 70.4969 45.4225 70.6479 45.6046 70.8382C45.7867 71.0285 45.9278 71.2541 46.0192 71.5011C46.1107 71.7481 46.1506 72.0112 46.1364 72.2742L45.6183 84.2475C45.5893 84.7928 45.3534 85.3065 44.9587 85.6839C44.564 86.0613 44.0402 86.2739 43.4941 86.2784Z" fill="#C778FF"/>
<path d="M61.7682 86.2784H49.795C49.532 86.2802 49.2715 86.2281 49.0294 86.1255C48.7874 86.0229 48.5689 85.8718 48.3874 85.6815C48.2059 85.4913 48.0652 85.2659 47.974 85.0193C47.8829 84.7726 47.8431 84.51 47.8573 84.2474L48.3754 72.2741C48.4056 71.7293 48.6419 71.2162 49.0363 70.8391C49.4308 70.462 49.9539 70.2489 50.4996 70.2432H62.5195C62.7826 70.2415 63.0434 70.2935 63.2857 70.3961C63.528 70.4986 63.7469 70.6496 63.9288 70.8398C64.1107 71.03 64.2519 71.2553 64.3436 71.5019C64.4354 71.7486 64.4758 72.0113 64.4624 72.2741L63.9184 84.2474C63.8879 84.7968 63.6479 85.3135 63.248 85.6913C62.848 86.0691 62.3184 86.2792 61.7682 86.2784Z" fill="#C778FF"/>
<path d="M80.0515 86.2784H68.0782C67.815 86.2801 67.5543 86.2281 67.312 86.1255C67.0696 86.0229 66.8508 85.8719 66.6689 85.6818C66.487 85.4916 66.3458 85.2663 66.2541 85.0197C66.1623 84.773 66.1219 84.5102 66.1353 84.2474L66.6534 72.2741C66.6824 71.7297 66.9175 71.2167 67.3111 70.8395C67.7048 70.4622 68.2273 70.249 68.7724 70.2432H80.7509C81.0138 70.2414 81.2743 70.2934 81.5164 70.3961C81.7585 70.4987 81.977 70.6498 82.1585 70.8401C82.34 71.0303 82.4807 71.2557 82.5718 71.5023C82.663 71.7489 82.7027 72.0116 82.6886 72.2741L82.1705 84.2474C82.1403 84.7914 81.9048 85.3037 81.5114 85.6807C81.1181 86.0577 80.5963 86.2713 80.0515 86.2784Z" fill="#C778FF"/>
<path d="M98.3352 86.2784H86.3516C86.0887 86.2802 85.8282 86.2281 85.5861 86.1255C85.344 86.0229 85.1255 85.8718 84.944 85.6815C84.7625 85.4913 84.6218 85.2659 84.5307 85.0193C84.4395 84.7726 84.3998 84.51 84.4139 84.2474L84.932 72.2741C84.9634 71.7297 85.2001 71.2174 85.5943 70.8405C85.9885 70.4636 86.5109 70.2502 87.0562 70.2432H99.0347C99.2976 70.2414 99.5581 70.2934 99.8002 70.3961C100.042 70.4987 100.261 70.6498 100.442 70.8401C100.624 71.0303 100.764 71.2557 100.856 71.5023C100.947 71.7489 100.987 72.0116 100.972 72.2741L100.454 84.2474C100.423 84.791 100.187 85.3026 99.7939 85.6793C99.4008 86.0561 98.8797 86.2701 98.3352 86.2784Z" fill="#C778FF"/>
<path d="M116.62 86.2784H104.642C104.379 86.2802 104.118 86.2281 103.876 86.1255C103.634 86.0229 103.416 85.8718 103.234 85.6815C103.053 85.4913 102.912 85.2659 102.821 85.0193C102.73 84.7726 102.69 84.51 102.704 84.2474L103.222 72.2741C103.252 71.7293 103.489 71.2162 103.883 70.8391C104.277 70.462 104.801 70.2489 105.346 70.2432H117.32C117.583 70.2415 117.843 70.2935 118.086 70.3961C118.328 70.4986 118.547 70.6496 118.729 70.8398C118.911 71.03 119.052 71.2553 119.144 71.5019C119.235 71.7486 119.276 72.0113 119.262 72.2741L118.718 84.2474C118.69 84.7883 118.457 85.2984 118.068 85.6751C117.679 86.0518 117.162 86.2673 116.62 86.2784Z" fill="#C778FF"/>
<g opacity="0.8">
<path d="M25.2184 86.2793H13.2295C12.9666 86.2811 12.7061 86.2291 12.464 86.1265C12.2219 86.0238 12.0034 85.8727 11.8219 85.6825C11.6404 85.4923 11.4998 85.2669 11.4086 85.0203C11.3174 84.7736 11.2777 84.511 11.2919 84.2484L11.81 72.2751C11.8414 71.7307 12.078 71.2184 12.4722 70.8415C12.8664 70.4646 13.3888 70.2511 13.9342 70.2442H25.9126C26.1755 70.2424 26.4361 70.2944 26.6781 70.3971C26.9202 70.4997 27.1387 70.6508 27.3202 70.841C27.5017 71.0313 27.6424 71.2566 27.7336 71.5033C27.8247 71.7499 27.8644 72.0126 27.8503 72.2751L27.3322 84.2484C27.3021 84.7915 27.0673 85.3031 26.675 85.6799C26.2828 86.0568 25.7623 86.271 25.2184 86.2793Z" fill="#FAFAFA"/>
<path d="M43.4922 86.2794H31.5137C31.2508 86.2812 30.9903 86.2292 30.7482 86.1265C30.5061 86.0239 30.2876 85.8728 30.1061 85.6825C29.9246 85.4923 29.7839 85.2669 29.6928 85.0203C29.6016 84.7737 29.5619 84.511 29.576 84.2484L30.0941 72.2752C30.1243 71.7303 30.3606 71.2173 30.7551 70.8401C31.1495 70.463 31.6726 70.25 32.2183 70.2442H44.1916C44.455 70.2417 44.7161 70.2932 44.9587 70.3955C45.2014 70.4979 45.4206 70.6489 45.6026 70.8392C45.7847 71.0295 45.9258 71.2551 46.0173 71.5021C46.1088 71.7491 46.1486 72.0122 46.1345 72.2752L45.6164 84.2484C45.5874 84.7938 45.3515 85.3075 44.9568 85.6849C44.562 86.0623 44.0382 86.2749 43.4922 86.2794Z" fill="#FAFAFA"/>
<path d="M61.7712 86.2793H49.7979C49.535 86.2811 49.2745 86.2291 49.0324 86.1265C48.7903 86.0238 48.5718 85.8727 48.3903 85.6825C48.2088 85.4923 48.0681 85.2669 47.977 85.0203C47.8858 84.7736 47.8461 84.511 47.8602 84.2484L48.3783 72.2751C48.4085 71.7302 48.6448 71.2172 49.0393 70.8401C49.4337 70.463 49.9568 70.2499 50.5025 70.2442H62.5224C62.7856 70.2424 63.0463 70.2944 63.2886 70.397C63.531 70.4996 63.7498 70.6506 63.9317 70.8408C64.1136 71.0309 64.2548 71.2562 64.3465 71.5029C64.4383 71.7495 64.4787 72.0123 64.4653 72.2751L63.9213 84.2484C63.8908 84.7977 63.6509 85.3145 63.2509 85.6923C62.8509 86.0701 62.3214 86.2802 61.7712 86.2793Z" fill="#FAFAFA"/>
<path d="M80.0554 86.2793H68.0821C67.8189 86.2811 67.5582 86.2291 67.3159 86.1265C67.0735 86.0239 66.8547 85.8729 66.6728 85.6828C66.4909 85.4926 66.3497 85.2673 66.258 85.0206C66.1662 84.774 66.1258 84.5112 66.1392 84.2484L66.6573 72.2751C66.6863 71.7307 66.9214 71.2177 67.3151 70.8405C67.7087 70.4632 68.2312 70.25 68.7764 70.2442H80.7548C81.0177 70.2424 81.2783 70.2944 81.5203 70.3971C81.7624 70.4997 81.9809 70.6508 82.1624 70.841C82.3439 71.0313 82.4846 71.2566 82.5757 71.5033C82.6669 71.7499 82.7066 72.0126 82.6925 72.2751L82.1744 84.2484C82.1442 84.7924 81.9087 85.3047 81.5153 85.6817C81.122 86.0587 80.6002 86.2723 80.0554 86.2793Z" fill="#FAFAFA"/>
<path d="M98.3391 86.2793H86.3555C86.0926 86.2811 85.8321 86.2291 85.59 86.1265C85.3479 86.0238 85.1294 85.8727 84.9479 85.6825C84.7664 85.4923 84.6257 85.2669 84.5346 85.0203C84.4434 84.7736 84.4037 84.511 84.4178 84.2484L84.9359 72.2751C84.9673 71.7307 85.204 71.2184 85.5982 70.8415C85.9924 70.4646 86.5148 70.2511 87.0601 70.2442H99.0386C99.3015 70.2424 99.562 70.2944 99.8041 70.3971C100.046 70.4997 100.265 70.6508 100.446 70.841C100.628 71.0313 100.768 71.2566 100.86 71.5033C100.951 71.7499 100.99 72.0126 100.976 72.2751L100.458 84.2484C100.427 84.792 100.191 85.3036 99.7978 85.6803C99.4047 86.0571 98.8836 86.2711 98.3391 86.2793Z" fill="#FAFAFA"/>
<path d="M116.624 86.2793H104.646C104.383 86.2811 104.122 86.2291 103.88 86.1265C103.638 86.0238 103.419 85.8727 103.238 85.6825C103.056 85.4923 102.916 85.2669 102.825 85.0203C102.733 84.7736 102.694 84.511 102.708 84.2484L103.226 72.2751C103.256 71.7302 103.492 71.2172 103.887 70.8401C104.281 70.463 104.804 70.2499 105.35 70.2442H117.323C117.587 70.2424 117.847 70.2944 118.09 70.397C118.332 70.4996 118.551 70.6506 118.733 70.8408C118.915 71.0309 119.056 71.2562 119.148 71.5029C119.239 71.7495 119.28 72.0123 119.266 72.2751L118.722 84.2484C118.694 84.7893 118.461 85.2994 118.072 85.6761C117.683 86.0528 117.166 86.2683 116.624 86.2793Z" fill="#FAFAFA"/>
</g>
<path d="M21.8224 23.3714C17.4082 23.3714 13.9473 18.2371 13.9473 11.6831C13.9473 5.12918 17.4082 0 21.8224 0C26.2366 0 29.7027 5.13436 29.7027 11.6831C29.6825 11.9903 29.5463 12.2783 29.3217 12.4887C29.097 12.6992 28.8007 12.8163 28.4929 12.8163C28.1851 12.8163 27.8888 12.6992 27.6641 12.4887C27.4395 12.2783 27.3032 11.9903 27.2831 11.6831C27.2831 6.66276 24.7859 2.41434 21.8224 2.41434C18.8588 2.41434 16.3616 6.66276 16.3616 11.6831C16.3616 16.7035 18.864 20.9519 21.8224 20.9519C21.9879 20.9411 22.1539 20.9643 22.3101 21.0202C22.4663 21.0761 22.6093 21.1635 22.7304 21.2769C22.8514 21.3903 22.9479 21.5273 23.0139 21.6795C23.0799 21.8317 23.1139 21.9958 23.1139 22.1617C23.1139 22.3276 23.0799 22.4917 23.0139 22.6439C22.9479 22.7961 22.8514 22.9331 22.7304 23.0465C22.6093 23.1599 22.4663 23.2473 22.3101 23.3031C22.1539 23.359 21.9879 23.3823 21.8224 23.3714Z" fill="#C778FF"/>
<path d="M40.1066 23.3714C35.6924 23.3714 32.2314 18.2371 32.2314 11.6831C32.2314 5.12918 35.6924 0 40.1066 0C44.5208 0 48.0127 5.13436 48.0127 11.6831C47.9926 11.9903 47.8564 12.2783 47.6318 12.4887C47.4071 12.6992 47.1108 12.8163 46.803 12.8163C46.4952 12.8163 46.1989 12.6992 45.9742 12.4887C45.7495 12.2783 45.6133 11.9903 45.5932 11.6831C45.5932 6.66276 43.096 2.41434 40.1325 2.41434C37.1689 2.41434 34.6717 6.66276 34.6717 11.6831C34.6717 16.7035 37.1741 20.9519 40.1325 20.9519C40.4396 20.972 40.7276 21.1082 40.9381 21.3329C41.1485 21.5576 41.2656 21.8539 41.2656 22.1617C41.2656 22.4695 41.1485 22.7658 40.9381 22.9905C40.7276 23.2151 40.4396 23.3513 40.1325 23.3714H40.1066Z" fill="#C778FF"/>
<path d="M58.3793 23.3714C53.9599 23.3714 50.499 18.2371 50.499 11.6831C50.499 5.12918 53.9599 0 58.3793 0C62.7987 0 66.2544 5.13436 66.2544 11.6831C66.2544 12.0033 66.1272 12.3103 65.9008 12.5367C65.6745 12.7631 65.3674 12.8903 65.0472 12.8903C64.7271 12.8903 64.42 12.7631 64.1937 12.5367C63.9673 12.3103 63.8401 12.0033 63.8401 11.6831C63.8401 6.66276 61.3377 2.41434 58.3793 2.41434C55.421 2.41434 52.9186 6.66276 52.9186 11.6831C52.9186 16.7035 55.421 20.9519 58.3793 20.9519C58.6865 20.972 58.9745 21.1082 59.1849 21.3329C59.3954 21.5576 59.5125 21.8539 59.5125 22.1617C59.5125 22.4695 59.3954 22.7658 59.1849 22.9905C58.9745 23.2151 58.6865 23.3513 58.3793 23.3714Z" fill="#C778FF"/>
<path d="M76.6752 23.3714C72.2558 23.3714 68.7949 18.2371 68.7949 11.6831C68.7949 5.12918 72.2558 0 76.6752 0C81.0946 0 84.5503 5.13436 84.5503 11.6831C84.5503 12.0033 84.4231 12.3103 84.1967 12.5367C83.9704 12.7631 83.6633 12.8903 83.3432 12.8903C83.023 12.8903 82.7159 12.7631 82.4896 12.5367C82.2632 12.3103 82.136 12.0033 82.136 11.6831C82.136 6.66276 79.6336 2.41434 76.6752 2.41434C73.7169 2.41434 71.2145 6.66276 71.2145 11.6831C71.2145 16.7035 73.7117 20.9519 76.6752 20.9519C76.9824 20.972 77.2704 21.1082 77.4808 21.3329C77.6913 21.5576 77.8084 21.8539 77.8084 22.1617C77.8084 22.4695 77.6913 22.7658 77.4808 22.9905C77.2704 23.2151 76.9824 23.3513 76.6752 23.3714Z" fill="#C778FF"/>
<path d="M94.9542 23.3714C90.54 23.3714 87.0791 18.2371 87.0791 11.6831C87.0791 5.12918 90.54 0 94.9542 0C99.3684 0 102.834 5.13436 102.834 11.6831C102.814 11.9903 102.678 12.2783 102.454 12.4887C102.229 12.6992 101.933 12.8163 101.625 12.8163C101.317 12.8163 101.021 12.6992 100.796 12.4887C100.571 12.2783 100.435 11.9903 100.415 11.6831C100.415 6.66276 97.9177 2.41434 94.9542 2.41434C91.9907 2.41434 89.4934 6.66276 89.4934 11.6831C89.4934 16.7035 91.9959 20.9519 94.9542 20.9519C95.1197 20.9411 95.2857 20.9643 95.4419 21.0202C95.5981 21.0761 95.7411 21.1635 95.8622 21.2769C95.9833 21.3903 96.0798 21.5273 96.1458 21.6795C96.2117 21.8317 96.2458 21.9958 96.2458 22.1617C96.2458 22.3276 96.2117 22.4917 96.1458 22.6439C96.0798 22.7961 95.9833 22.9331 95.8622 23.0465C95.7411 23.1599 95.5981 23.2473 95.4419 23.3031C95.2857 23.359 95.1197 23.3823 94.9542 23.3714Z" fill="#C778FF"/>
<path d="M113.238 23.3714C108.824 23.3714 105.363 18.2371 105.363 11.6831C105.363 5.12918 108.824 0 113.238 0C117.653 0 121.119 5.13436 121.119 11.6831C121.099 11.9903 120.962 12.2783 120.738 12.4887C120.513 12.6992 120.217 12.8163 119.909 12.8163C119.601 12.8163 119.305 12.6992 119.08 12.4887C118.855 12.2783 118.719 11.9903 118.699 11.6831C118.699 6.66276 116.197 2.41434 113.238 2.41434C110.28 2.41434 107.778 6.66276 107.778 11.6831C107.778 16.7035 110.28 20.9519 113.238 20.9519C113.546 20.972 113.834 21.1082 114.044 21.3329C114.254 21.5576 114.372 21.8539 114.372 22.1617C114.372 22.4695 114.254 22.7658 114.044 22.9905C113.834 23.2151 113.546 23.3513 113.238 23.3714Z" fill="#C778FF"/>
<g opacity="0.3">
<path d="M21.8243 23.3714C17.4101 23.3714 13.9492 18.2371 13.9492 11.6831C13.9492 5.12918 17.4101 0 21.8243 0C26.2385 0 29.7046 5.13436 29.7046 11.6831C29.6845 11.9903 29.5483 12.2783 29.3236 12.4887C29.099 12.6992 28.8027 12.8163 28.4948 12.8163C28.187 12.8163 27.8907 12.6992 27.6661 12.4887C27.4414 12.2783 27.3052 11.9903 27.2851 11.6831C27.2851 6.66276 24.7878 2.41434 21.8243 2.41434C18.8608 2.41434 16.3636 6.66276 16.3636 11.6831C16.3636 16.7035 18.866 20.9519 21.8243 20.9519C21.9898 20.9411 22.1558 20.9643 22.312 21.0202C22.4682 21.0761 22.6112 21.1635 22.7323 21.2769C22.8534 21.3903 22.9499 21.5273 23.0159 21.6795C23.0818 21.8317 23.1159 21.9958 23.1159 22.1617C23.1159 22.3276 23.0818 22.4917 23.0159 22.6439C22.9499 22.7961 22.8534 22.9331 22.7323 23.0465C22.6112 23.1599 22.4682 23.2473 22.312 23.3031C22.1558 23.359 21.9898 23.3823 21.8243 23.3714Z" fill="black"/>
<path d="M40.1085 23.3714C35.6943 23.3714 32.2334 18.2371 32.2334 11.6831C32.2334 5.12918 35.6943 0 40.1085 0C44.5227 0 48.0147 5.13436 48.0147 11.6831C47.9946 11.9903 47.8584 12.2783 47.6337 12.4887C47.4091 12.6992 47.1128 12.8163 46.8049 12.8163C46.4971 12.8163 46.2008 12.6992 45.9762 12.4887C45.7515 12.2783 45.6153 11.9903 45.5952 11.6831C45.5952 6.66276 43.0979 2.41434 40.1344 2.41434C37.1709 2.41434 34.6736 6.66276 34.6736 11.6831C34.6736 16.7035 37.1761 20.9519 40.1344 20.9519C40.4416 20.972 40.7296 21.1082 40.94 21.3329C41.1505 21.5576 41.2676 21.8539 41.2676 22.1617C41.2676 22.4695 41.1505 22.7658 40.94 22.9905C40.7296 23.2151 40.4416 23.3513 40.1344 23.3714H40.1085Z" fill="black"/>
<path d="M58.3754 23.3714C53.956 23.3714 50.4951 18.2371 50.4951 11.6831C50.4951 5.12918 53.956 0 58.3754 0C62.7948 0 66.2505 5.13436 66.2505 11.6831C66.2505 12.0033 66.1233 12.3103 65.8969 12.5367C65.6705 12.7631 65.3635 12.8903 65.0433 12.8903C64.7232 12.8903 64.4161 12.7631 64.1897 12.5367C63.9634 12.3103 63.8362 12.0033 63.8362 11.6831C63.8362 6.66276 61.3338 2.41434 58.3754 2.41434C55.4171 2.41434 52.9146 6.66276 52.9146 11.6831C52.9146 16.7035 55.4171 20.9519 58.3754 20.9519C58.6826 20.972 58.9706 21.1082 59.181 21.3329C59.3915 21.5576 59.5086 21.8539 59.5086 22.1617C59.5086 22.4695 59.3915 22.7658 59.181 22.9905C58.9706 23.2151 58.6826 23.3513 58.3754 23.3714Z" fill="black"/>
<path d="M76.6772 23.3714C72.2578 23.3714 68.7969 18.2371 68.7969 11.6831C68.7969 5.12918 72.2578 0 76.6772 0C81.0966 0 84.5523 5.13436 84.5523 11.6831C84.5523 12.0033 84.4251 12.3103 84.1987 12.5367C83.9723 12.7631 83.6653 12.8903 83.3451 12.8903C83.0249 12.8903 82.7179 12.7631 82.4915 12.5367C82.2651 12.3103 82.1379 12.0033 82.1379 11.6831C82.1379 6.66276 79.6355 2.41434 76.6772 2.41434C73.7188 2.41434 71.2164 6.66276 71.2164 11.6831C71.2164 16.7035 73.7136 20.9519 76.6772 20.9519C76.9843 20.972 77.2723 21.1082 77.4828 21.3329C77.6932 21.5576 77.8103 21.8539 77.8103 22.1617C77.8103 22.4695 77.6932 22.7658 77.4828 22.9905C77.2723 23.2151 76.9843 23.3513 76.6772 23.3714Z" fill="black"/>
<path d="M94.9562 23.3714C90.542 23.3714 87.0811 18.2371 87.0811 11.6831C87.0811 5.12918 90.542 0 94.9562 0C99.3704 0 102.836 5.13436 102.836 11.6831C102.816 11.9903 102.68 12.2783 102.455 12.4887C102.231 12.6992 101.935 12.8163 101.627 12.8163C101.319 12.8163 101.023 12.6992 100.798 12.4887C100.573 12.2783 100.437 11.9903 100.417 11.6831C100.417 6.66276 97.9197 2.41434 94.9562 2.41434C91.9926 2.41434 89.4954 6.66276 89.4954 11.6831C89.4954 16.7035 91.9978 20.9519 94.9562 20.9519C95.1217 20.9411 95.2877 20.9643 95.4439 21.0202C95.6 21.0761 95.7431 21.1635 95.8642 21.2769C95.9852 21.3903 96.0817 21.5273 96.1477 21.6795C96.2137 21.8317 96.2477 21.9958 96.2477 22.1617C96.2477 22.3276 96.2137 22.4917 96.1477 22.6439C96.0817 22.7961 95.9852 22.9331 95.8642 23.0465C95.7431 23.1599 95.6 23.2473 95.4439 23.3031C95.2877 23.359 95.1217 23.3823 94.9562 23.3714Z" fill="black"/>
<path d="M113.24 23.3714C108.826 23.3714 105.365 18.2371 105.365 11.6831C105.365 5.12918 108.826 0 113.24 0C117.655 0 121.121 5.13436 121.121 11.6831C121.101 11.9903 120.964 12.2783 120.74 12.4887C120.515 12.6992 120.219 12.8163 119.911 12.8163C119.603 12.8163 119.307 12.6992 119.082 12.4887C118.857 12.2783 118.721 11.9903 118.701 11.6831C118.701 6.66276 116.199 2.41434 113.24 2.41434C110.282 2.41434 107.78 6.66276 107.78 11.6831C107.78 16.7035 110.282 20.9519 113.24 20.9519C113.548 20.972 113.836 21.1082 114.046 21.3329C114.256 21.5576 114.373 21.8539 114.373 22.1617C114.373 22.4695 114.256 22.7658 114.046 22.9905C113.836 23.2151 113.548 23.3513 113.24 23.3714Z" fill="black"/>
</g>
<path d="M77.8993 49.7826C73.6716 48.9433 68.9259 49.9225 67.2317 54.3781C65.8691 57.9634 67.6151 61.8491 71.3765 62.7972C74.6923 63.6314 80.4121 62.6107 81.5934 58.7871C82.9456 54.4144 77.4486 52.9948 74.3659 52.7357C73.4385 52.658 73.4437 54.1087 74.3659 54.1864C75.7699 54.3056 77.3761 54.3833 78.6195 55.1553C81.21 56.7769 80.1427 59.3778 77.9356 60.6212C75.7285 61.8647 72.3453 62.1755 70.1641 60.7974C67.7809 59.2793 67.7031 55.9428 69.1279 53.7668C70.9983 50.8913 74.4125 50.5701 77.49 51.1763C78.4019 51.3576 78.7905 49.9587 77.8734 49.7774L77.8993 49.7826Z" fill="#C778FF"/>
<path opacity="0.1" d="M77.8993 49.7826C73.6716 48.9433 68.9259 49.9225 67.2317 54.3781C65.8691 57.9634 67.6151 61.8491 71.3765 62.7972C74.6923 63.6314 80.4121 62.6107 81.5934 58.7871C82.9456 54.4144 77.4486 52.9948 74.3659 52.7357C73.4385 52.658 73.4437 54.1087 74.3659 54.1864C75.7699 54.3056 77.3761 54.3833 78.6195 55.1553C81.21 56.7769 80.1427 59.3778 77.9356 60.6212C75.7285 61.8647 72.3453 62.1755 70.1641 60.7974C67.7809 59.2793 67.7031 55.9428 69.1279 53.7668C70.9983 50.8913 74.4125 50.5701 77.49 51.1763C78.4019 51.3576 78.7905 49.9587 77.8734 49.7774L77.8993 49.7826Z" fill="#FAFAFA"/>
<path d="M31.2542 33.0951C35.2973 38.4549 39.8049 43.448 44.7248 48.0163C45.4087 48.6536 46.4397 47.6277 45.761 46.9801C40.9254 42.502 36.4925 37.6079 32.5132 32.3542C31.9588 31.6185 30.6998 32.3542 31.2646 33.0847L31.2542 33.0951Z" fill="#C778FF"/>
<path d="M32.7522 47.4101C35.809 41.9752 41.161 37.3383 46.2228 33.7893C46.9792 33.2712 46.2591 31.9967 45.4923 32.5355C40.2284 36.2347 34.6951 41.0116 31.5036 46.6744C31.416 46.8394 31.3955 47.0318 31.4462 47.2116C31.497 47.3913 31.6151 47.5446 31.7761 47.6394C31.937 47.7342 32.1283 47.7633 32.3101 47.7206C32.492 47.6779 32.6503 47.5667 32.7522 47.4101Z" fill="#C778FF"/>
<g opacity="0.2">
<path d="M31.2552 33.0955C35.2983 38.4554 39.8059 43.4485 44.7257 48.0168C45.4096 48.6541 46.4407 47.6282 45.7619 46.9806C40.9264 42.5025 36.4934 37.6084 32.5142 32.3547C31.9598 31.619 30.7008 32.3547 31.2655 33.0852L31.2552 33.0955Z" fill="black"/>
<path d="M32.7532 47.4106C35.81 41.9757 41.1619 37.3387 46.2238 33.7898C46.9802 33.2717 46.26 31.9972 45.4933 32.536C40.2294 36.2352 34.6961 41.0121 31.5046 46.6749C31.417 46.8399 31.3965 47.0323 31.4472 47.2121C31.498 47.3918 31.6161 47.5451 31.777 47.6399C31.938 47.7347 32.1293 47.7638 32.3111 47.7211C32.493 47.6784 32.6513 47.5671 32.7532 47.4106Z" fill="black"/>
</g>
<path d="M88.875 37.7341H98.3303C98.5114 37.7187 98.6802 37.6359 98.8032 37.5021C98.9262 37.3682 98.9944 37.1931 98.9944 37.0113C98.9944 36.8296 98.9262 36.6544 98.8032 36.5206C98.6802 36.3867 98.5114 36.3039 98.3303 36.2886H88.875C88.6939 36.3039 88.5251 36.3867 88.4022 36.5206C88.2792 36.6544 88.2109 36.8296 88.2109 37.0113C88.2109 37.1931 88.2792 37.3682 88.4022 37.5021C88.5251 37.6359 88.6939 37.7187 88.875 37.7341Z" fill="#C778FF"/>
<path d="M88.7683 40.4233H94.2498C94.4422 40.4233 94.6267 40.3469 94.7627 40.2109C94.8987 40.0749 94.9751 39.8904 94.9751 39.698C94.9751 39.5056 94.8987 39.3211 94.7627 39.1851C94.6267 39.0491 94.4422 38.9727 94.2498 38.9727H88.7683C88.5759 38.9727 88.3914 39.0491 88.2554 39.1851C88.1194 39.3211 88.043 39.5056 88.043 39.698C88.043 39.8904 88.1194 40.0749 88.2554 40.2109C88.3914 40.3469 88.5759 40.4233 88.7683 40.4233Z" fill="#C778FF"/>
<g opacity="0.1">
<path d="M88.875 37.7336H98.3303C98.5114 37.7182 98.6802 37.6354 98.8032 37.5016C98.9262 37.3677 98.9944 37.1926 98.9944 37.0108C98.9944 36.8291 98.9262 36.6539 98.8032 36.5201C98.6802 36.3862 98.5114 36.3034 98.3303 36.2881H88.875C88.6939 36.3034 88.5251 36.3862 88.4022 36.5201C88.2792 36.6539 88.2109 36.8291 88.2109 37.0108C88.2109 37.1926 88.2792 37.3677 88.4022 37.5016C88.5251 37.6354 88.6939 37.7182 88.875 37.7336Z" fill="#FAFAFA"/>
<path d="M88.7683 40.4229H94.2498C94.4422 40.4229 94.6267 40.3464 94.7627 40.2104C94.8987 40.0744 94.9751 39.8899 94.9751 39.6975C94.9751 39.5051 94.8987 39.3206 94.7627 39.1846C94.6267 39.0486 94.4422 38.9722 94.2498 38.9722H88.7683C88.5759 38.9722 88.3914 39.0486 88.2554 39.1846C88.1194 39.3206 88.043 39.5051 88.043 39.6975C88.043 39.8899 88.1194 40.0744 88.2554 40.2104C88.3914 40.3464 88.5759 40.4229 88.7683 40.4229Z" fill="#FAFAFA"/>
</g>
<path d="M32.2449 74.8486H40.3531C40.5455 74.8486 40.73 74.7722 40.866 74.6362C41.002 74.5002 41.0785 74.3157 41.0785 74.1233C41.0785 73.9309 41.002 73.7464 40.866 73.6104C40.73 73.4744 40.5455 73.3979 40.3531 73.3979H32.2449C32.0525 73.3979 31.868 73.4744 31.732 73.6104C31.596 73.7464 31.5195 73.9309 31.5195 74.1233C31.5195 74.3157 31.596 74.5002 31.732 74.6362C31.868 74.7722 32.0525 74.8486 32.2449 74.8486Z" fill="#C778FF"/>
<path d="M31.9539 77.9639H42.4713C42.6636 77.9639 42.8481 77.8874 42.9842 77.7514C43.1202 77.6154 43.1966 77.4309 43.1966 77.2385C43.1966 77.0461 43.1202 76.8616 42.9842 76.7256C42.8481 76.5896 42.6636 76.5132 42.4713 76.5132H31.9539C31.7615 76.5132 31.577 76.5896 31.441 76.7256C31.3049 76.8616 31.2285 77.0461 31.2285 77.2385C31.2285 77.4309 31.3049 77.6154 31.441 77.7514C31.577 77.8874 31.7615 77.9639 31.9539 77.9639Z" fill="#C778FF"/>
<path d="M31.9539 81.1694H37.2126C37.4049 81.1694 37.5894 81.093 37.7255 80.957C37.8615 80.8209 37.9379 80.6365 37.9379 80.4441C37.9379 80.2517 37.8615 80.0672 37.7255 79.9312C37.5894 79.7952 37.4049 79.7188 37.2126 79.7188H31.9539C31.7615 79.7188 31.577 79.7952 31.441 79.9312C31.3049 80.0672 31.2285 80.2517 31.2285 80.4441C31.2285 80.6365 31.3049 80.8209 31.441 80.957C31.577 81.093 31.7615 81.1694 31.9539 81.1694Z" fill="#C778FF"/>
<g opacity="0.1">
<path d="M32.2468 74.8481H40.3551C40.5474 74.8481 40.7319 74.7717 40.868 74.6357C41.004 74.4997 41.0804 74.3152 41.0804 74.1228C41.0804 73.9304 41.004 73.7459 40.868 73.6099C40.7319 73.4739 40.5474 73.3975 40.3551 73.3975H32.2468C32.0544 73.3975 31.87 73.4739 31.7339 73.6099C31.5979 73.7459 31.5215 73.9304 31.5215 74.1228C31.5215 74.3152 31.5979 74.4997 31.7339 74.6357C31.87 74.7717 32.0544 74.8481 32.2468 74.8481Z" fill="#FAFAFA"/>
<path d="M31.9558 77.9609H42.4732C42.6656 77.9609 42.8501 77.8845 42.9861 77.7485C43.1221 77.6125 43.1985 77.428 43.1985 77.2356C43.1985 77.0432 43.1221 76.8587 42.9861 76.7227C42.8501 76.5867 42.6656 76.5103 42.4732 76.5103H31.9558C31.7634 76.5103 31.5789 76.5867 31.4429 76.7227C31.3069 76.8587 31.2305 77.0432 31.2305 77.2356C31.2305 77.428 31.3069 77.6125 31.4429 77.7485C31.5789 77.8845 31.7634 77.9609 31.9558 77.9609Z" fill="#FAFAFA"/>
<path d="M31.9558 81.1689H37.2145C37.4069 81.1689 37.5914 81.0925 37.7274 80.9565C37.8634 80.8205 37.9398 80.636 37.9398 80.4436C37.9398 80.2512 37.8634 80.0667 37.7274 79.9307C37.5914 79.7947 37.4069 79.7183 37.2145 79.7183H31.9558C31.7634 79.7183 31.5789 79.7947 31.4429 79.9307C31.3069 80.0667 31.2305 80.2512 31.2305 80.4436C31.2305 80.636 31.3069 80.8205 31.4429 80.9565C31.5789 81.0925 31.7634 81.1689 31.9558 81.1689Z" fill="#FAFAFA"/>
</g>
</svg>
