<svg width="68" height="103" viewBox="0 0 68 103" fill="none" xmlns="http://www.w3.org/2000/svg">
<path d="M25.2169 31.6275C26.9688 27.398 24.9603 22.5491 20.7309 20.7972C16.5014 19.0453 11.6525 21.0538 9.90062 25.2833C8.14871 29.5127 10.1572 34.3616 14.3867 36.1135C18.6161 37.8654 23.465 35.857 25.2169 31.6275Z" fill="#C778FF"/>
<path opacity="0.5" d="M25.2169 31.6275C26.9688 27.398 24.9603 22.5491 20.7309 20.7972C16.5014 19.0453 11.6525 21.0538 9.90062 25.2833C8.14871 29.5127 10.1572 34.3616 14.3867 36.1135C18.6161 37.8654 23.465 35.857 25.2169 31.6275Z" fill="white"/>
<path d="M20.7434 25.7431C18.8117 24.276 17.5585 26.4033 17.5585 26.4033C17.5585 26.4033 16.3054 24.276 14.3737 25.7431C12.442 27.2102 14.985 31.477 17.5585 32.2106C20.1137 31.477 22.6812 27.2102 20.7434 25.7431Z" fill="white"/>
<path d="M50.3407 44.5844C49.9831 45.4489 49.8898 46.4 50.0727 47.3175C50.2555 48.235 50.7062 49.0777 51.3678 49.7391C52.0294 50.4005 52.8723 50.8509 53.7898 51.0334C54.7074 51.2159 55.6584 51.1223 56.5228 50.7644C57.3872 50.4065 58.126 49.8005 58.646 49.0228C59.166 48.2451 59.4438 47.3307 59.4442 46.3952C59.4447 45.4596 59.1678 44.545 58.6485 43.7668C58.1293 42.9886 57.391 42.3818 56.527 42.0231C55.9529 41.783 55.3369 41.6588 54.7146 41.6577C54.0923 41.6566 53.4759 41.7786 52.9009 42.0167C52.326 42.2547 51.8038 42.6042 51.3644 43.0448C50.925 43.4855 50.5771 44.0088 50.3407 44.5844Z" fill="#C778FF"/>
<path opacity="0.5" d="M50.3407 44.5844C49.9831 45.4489 49.8898 46.4 50.0727 47.3175C50.2555 48.235 50.7062 49.0777 51.3678 49.7391C52.0294 50.4005 52.8723 50.8509 53.7898 51.0334C54.7074 51.2159 55.6584 51.1223 56.5228 50.7644C57.3872 50.4065 58.126 49.8005 58.646 49.0228C59.166 48.2451 59.4438 47.3307 59.4442 46.3952C59.4447 45.4596 59.1678 44.545 58.6485 43.7668C58.1293 42.9886 57.391 42.3818 56.527 42.0231C55.9529 41.783 55.3369 41.6588 54.7146 41.6577C54.0923 41.6566 53.4759 41.7786 52.9009 42.0167C52.326 42.2547 51.8038 42.6042 51.3644 43.0448C50.925 43.4855 50.5771 44.0088 50.3407 44.5844Z" fill="white"/>
<path d="M56.9766 45.69C56.8891 45.5353 56.769 45.4016 56.6246 45.298C56.4802 45.1945 56.315 45.1237 56.1404 45.0905C55.9659 45.0573 55.7862 45.0626 55.6139 45.106C55.4416 45.1493 55.2808 45.2297 55.1427 45.3416C55.1239 45.1664 55.0674 44.9974 54.9772 44.8461C54.887 44.6948 54.7652 44.5647 54.6201 44.4649C54.4749 44.365 54.3099 44.2977 54.1364 44.2676C53.9628 44.2374 53.7848 44.2451 53.6145 44.2902C52.2696 44.6386 52.6853 47.4505 53.8712 48.398C55.4117 48.557 57.6673 46.9126 56.9766 45.69Z" fill="white"/>
<path d="M40.4102 15.4176C42.6798 11.4418 41.2967 6.37895 37.3209 4.10938C33.3452 1.83981 28.2823 3.22295 26.0127 7.19871C23.7432 11.1745 25.1263 16.2373 29.1021 18.5069C33.0778 20.7765 38.1407 19.3933 40.4102 15.4176Z" fill="#C778FF"/>
<path opacity="0.5" d="M40.4102 15.4176C42.6798 11.4418 41.2967 6.37895 37.3209 4.10938C33.3452 1.83981 28.2823 3.22295 26.0127 7.19871C23.7432 11.1745 25.1263 16.2373 29.1021 18.5069C33.0778 20.7765 38.1407 19.3933 40.4102 15.4176Z" fill="white"/>
<path d="M33.8303 8.71412C33.9728 9.01293 34.0236 9.34728 33.9762 9.67494C33.9288 10.0026 33.7854 10.3088 33.564 10.555C33.3427 10.8012 33.0534 10.9763 32.7326 11.0581C32.4118 11.14 32.074 11.1249 31.7617 11.0149C31.4495 10.9048 31.1769 10.7047 30.9783 10.4398C30.7797 10.1749 30.6641 9.85713 30.646 9.52656C30.628 9.19599 30.7083 8.86749 30.8768 8.58254C31.0454 8.29759 31.2946 8.06897 31.5929 7.92556C31.7916 7.8301 32.0071 7.77477 32.2271 7.76275C32.4472 7.75073 32.6674 7.78225 32.8753 7.85551C33.0831 7.92877 33.2745 8.04231 33.4383 8.18965C33.6022 8.33699 33.7354 8.51522 33.8303 8.71412Z" fill="white"/>
<path d="M37.7688 13.2915C36.7419 11.152 34.5962 10.0456 32.9763 10.8464C31.3564 11.6471 30.8673 13.9762 31.876 16.1218L37.7688 13.2915Z" fill="white"/>
<path d="M38.0401 25.6893C37.4924 26.2033 37.1095 26.8682 36.9399 27.5999C36.7702 28.3316 36.8215 29.0972 37.0871 29.7997C37.3527 30.5023 37.8208 31.1103 38.4321 31.5467C39.0433 31.9832 39.7704 32.2285 40.5211 32.2516C41.2718 32.2747 42.0126 32.0746 42.6495 31.6766C43.2865 31.2785 43.7911 30.7005 44.0994 30.0156C44.4078 29.3307 44.506 28.5697 44.3817 27.829C44.2574 27.0883 43.9161 26.401 43.4011 25.8543C42.7116 25.1224 41.7598 24.6939 40.7547 24.6629C39.7496 24.632 38.7733 25.0011 38.0401 25.6893Z" fill="#C778FF"/>
<path opacity="0.5" d="M38.0401 25.6893C37.4924 26.2033 37.1095 26.8682 36.9399 27.5999C36.7702 28.3316 36.8215 29.0972 37.0871 29.7997C37.3527 30.5023 37.8208 31.1103 38.4321 31.5467C39.0433 31.9832 39.7704 32.2285 40.5211 32.2516C41.2718 32.2747 42.0126 32.0746 42.6495 31.6766C43.2865 31.2785 43.7911 30.7005 44.0994 30.0156C44.4078 29.3307 44.506 28.5697 44.3817 27.829C44.2574 27.0883 43.9161 26.401 43.4011 25.8543C42.7116 25.1224 41.7598 24.6939 40.7547 24.6629C39.7496 24.632 38.7733 25.0011 38.0401 25.6893Z" fill="white"/>
<path d="M41.8574 28.3677C41.7467 28.4724 41.6074 28.542 41.4572 28.5676C41.307 28.5932 41.1526 28.5737 41.0135 28.5115C40.8744 28.4493 40.7568 28.3472 40.6757 28.2182C40.5946 28.0892 40.5536 27.939 40.5579 27.7867C40.5622 27.6344 40.6116 27.4867 40.6998 27.3625C40.788 27.2382 40.911 27.1429 41.0534 27.0886C41.1958 27.0343 41.3511 27.0235 41.4996 27.0575C41.6482 27.0915 41.7833 27.1688 41.8879 27.2796C42.028 27.428 42.1035 27.6259 42.0978 27.8299C42.092 28.034 42.0056 28.2274 41.8574 28.3677Z" fill="white"/>
<path d="M40.4057 30.7204C41.2004 29.9746 41.3838 28.8865 40.8153 28.2752C40.2468 27.6639 39.1587 27.7923 38.3701 28.5319L40.4057 30.7204Z" fill="white"/>
<path d="M59.7388 38.897C63.9783 37.1695 66.0147 32.3322 64.2871 28.0928C62.5596 23.8533 57.7224 21.8169 53.4829 23.5444C49.2434 25.2719 47.2071 30.1092 48.9346 34.3486C50.6621 38.5881 55.4993 40.6245 59.7388 38.897Z" fill="#C778FF"/>
<path opacity="0.5" d="M59.7388 38.897C63.9783 37.1695 66.0147 32.3322 64.2871 28.0928C62.5596 23.8533 57.7224 21.8169 53.4829 23.5444C49.2434 25.2719 47.2071 30.1092 48.9346 34.3486C50.6621 38.5881 55.4993 40.6245 59.7388 38.897Z" fill="white"/>
<path d="M57.8095 28.3735C55.9756 27.5971 53.9156 28.2757 53.237 29.8956C53.0181 30.4636 52.9685 31.083 53.0944 31.6786C53.2202 32.2743 53.5161 32.8206 53.9461 33.2516C53.7253 33.5147 53.4472 33.7238 53.1331 33.8629C53.3721 33.9588 53.6282 34.0051 53.8857 33.9988C54.1432 33.9925 54.3967 33.9338 54.6308 33.8262C54.8555 33.9785 55.0951 34.1075 55.346 34.2113C57.1799 34.9876 59.2399 34.3091 59.9184 32.6892C60.597 31.0693 59.6556 29.1498 57.8095 28.3735Z" fill="white"/>
<path d="M17.2545 42.0219C16.7101 41.4868 16.0191 41.1252 15.2691 40.983C14.5191 40.8408 13.7437 40.9244 13.0412 41.2231C12.3387 41.5218 11.7406 42.0223 11.3227 42.6611C10.9048 43.2999 10.6858 44.0484 10.6936 44.8117C10.7013 45.5751 10.9353 46.319 11.366 46.9492C11.7968 47.5795 12.4048 48.0677 13.1132 48.3522C13.8216 48.6367 14.5985 48.7045 15.3455 48.5472C16.0925 48.3899 16.776 48.0145 17.3095 47.4685C17.6636 47.1073 17.943 46.6798 18.1319 46.2106C18.3207 45.7414 18.4153 45.2396 18.4102 44.7338C18.4051 44.228 18.3004 43.7282 18.1021 43.2629C17.9038 42.7976 17.6158 42.3759 17.2545 42.0219Z" fill="#C778FF"/>
<path opacity="0.5" d="M17.2545 42.0219C16.7101 41.4868 16.0191 41.1252 15.2691 40.983C14.5191 40.8408 13.7437 40.9244 13.0412 41.2231C12.3387 41.5218 11.7406 42.0223 11.3227 42.6611C10.9048 43.2999 10.6858 44.0484 10.6936 44.8117C10.7013 45.5751 10.9353 46.319 11.366 46.9492C11.7968 47.5795 12.4048 48.0677 13.1132 48.3522C13.8216 48.6367 14.5985 48.7045 15.3455 48.5472C16.0925 48.3899 16.776 48.0145 17.3095 47.4685C17.6636 47.1073 17.943 46.6798 18.1319 46.2106C18.3207 45.7414 18.4153 45.2396 18.4102 44.7338C18.4051 44.228 18.3004 43.7282 18.1021 43.2629C17.9038 42.7976 17.6158 42.3759 17.2545 42.0219Z" fill="white"/>
<path d="M15.584 45.7651C15.7391 45.6263 15.8653 45.4583 15.9554 45.2707C16.0454 45.0831 16.0977 44.8795 16.109 44.6717C16.1204 44.4639 16.0906 44.2559 16.0215 44.0596C15.9524 43.8633 15.8453 43.6826 15.7063 43.5277C15.499 43.3349 15.24 43.2067 14.9609 43.159C14.6818 43.1112 14.3949 43.1459 14.1353 43.2588C14.0557 43.1184 14.0096 42.9614 14.0008 42.8003C13.9195 42.888 13.8566 42.991 13.8157 43.1033C13.7747 43.2156 13.7566 43.335 13.7624 43.4544C13.6585 43.5258 13.5622 43.6077 13.4751 43.6989C13.3051 43.8287 13.165 43.9936 13.0643 44.1823C12.9636 44.371 12.9046 44.5792 12.8915 44.7927C12.8783 45.0062 12.9113 45.22 12.988 45.4197C13.0648 45.6193 13.1836 45.8002 13.3364 45.9498C13.4892 46.0995 13.6724 46.2146 13.8736 46.2873C14.0748 46.3599 14.2893 46.3885 14.5024 46.3709C14.7156 46.3534 14.9225 46.2902 15.1092 46.1857C15.2958 46.0812 15.4578 45.9377 15.584 45.7651Z" fill="white"/>
<path d="M35.0694 53.046C39.6473 53.046 43.3585 49.3348 43.3585 44.7569C43.3585 40.1789 39.6473 36.4678 35.0694 36.4678C30.4914 36.4678 26.7803 40.1789 26.7803 44.7569C26.7803 49.3348 30.4914 53.046 35.0694 53.046Z" fill="#C778FF"/>
<path opacity="0.5" d="M35.0694 53.046C39.6473 53.046 43.3585 49.3348 43.3585 44.7569C43.3585 40.1789 39.6473 36.4678 35.0694 36.4678C30.4914 36.4678 26.7803 40.1789 26.7803 44.7569C26.7803 49.3348 30.4914 53.046 35.0694 53.046Z" fill="white"/>
<path d="M37.3788 48.5826L37.9901 49.1022L39.1027 47.9896L38.5831 47.3783C38.8769 46.9364 39.0844 46.4427 39.1944 45.9235L40.0013 45.8501V44.273L39.1944 44.1996C39.0826 43.681 38.8753 43.1876 38.5831 42.7448L39.1027 42.1335L37.9901 41.0209L37.3788 41.5405C36.939 41.2467 36.4474 41.0393 35.9301 40.9292L35.8506 40.1162H34.2796L34.2062 40.9292C33.6866 41.0381 33.1927 41.2456 32.7513 41.5405L32.1401 41.0209L31.0275 42.1335L31.5471 42.7448C31.2557 43.188 31.0484 43.6812 30.9358 44.1996L30.1289 44.273V45.8501L30.9358 45.9235C31.0484 46.4419 31.2557 46.9351 31.5471 47.3783L31.0275 47.9896L32.1401 49.1022L32.7513 48.5826C33.1927 48.8775 33.6866 49.085 34.2062 49.1939L34.2796 50.0069H35.8506L35.9301 49.1939C36.4474 49.0839 36.939 48.8764 37.3788 48.5826ZM32.9347 45.0799C32.9335 44.6577 33.0576 44.2446 33.2913 43.893C33.525 43.5413 33.8578 43.2669 34.2475 43.1045C34.6372 42.9421 35.0663 42.899 35.4806 42.9806C35.8948 43.0622 36.2755 43.265 36.5745 43.5631C36.8735 43.8612 37.0773 44.2413 37.1601 44.6553C37.2429 45.0693 37.201 45.4986 37.0397 45.8888C36.8784 46.279 36.605 46.6125 36.254 46.8472C35.9031 47.0819 35.4903 47.2072 35.0681 47.2072C34.7883 47.208 34.511 47.1536 34.2522 47.047C33.9934 46.9405 33.7582 46.7839 33.56 46.5863C33.3618 46.3887 33.2045 46.1539 33.0972 45.8954C32.99 45.6369 32.9347 45.3598 32.9347 45.0799Z" fill="white"/>
<path d="M47.3746 11.6347C46.9135 12.3128 46.6639 13.1124 46.6574 13.9324C46.6508 14.7524 46.8877 15.5559 47.338 16.2412C47.7882 16.9265 48.4317 17.4628 49.1869 17.7824C49.9421 18.1019 50.7751 18.1902 51.5805 18.0361C52.3859 17.8821 53.1275 17.4925 53.7114 16.9169C54.2954 16.3412 54.6954 15.6053 54.861 14.8021C55.0265 13.999 54.9501 13.1648 54.6415 12.4052C54.3328 11.6455 53.8057 10.9944 53.1269 10.5344C52.2179 9.91843 51.1016 9.68832 50.0231 9.89462C48.9446 10.1009 47.9921 10.7268 47.3746 11.6347Z" fill="#C778FF"/>
<path opacity="0.5" d="M47.3746 11.6347C46.9135 12.3128 46.6639 13.1124 46.6574 13.9324C46.6508 14.7524 46.8877 15.5559 47.338 16.2412C47.7882 16.9265 48.4317 17.4628 49.1869 17.7824C49.9421 18.1019 50.7751 18.1902 51.5805 18.0361C52.3859 17.8821 53.1275 17.4925 53.7114 16.9169C54.2954 16.3412 54.6954 15.6053 54.861 14.8021C55.0265 13.999 54.9501 13.1648 54.6415 12.4052C54.3328 11.6455 53.8057 10.9944 53.1269 10.5344C52.2179 9.91843 51.1016 9.68832 50.0231 9.89462C48.9446 10.1009 47.9921 10.7268 47.3746 11.6347Z" fill="white"/>
<path d="M50.6823 16.202L50.7984 16.5932L51.5687 16.4465L51.532 16.0369C51.775 15.9367 51.9969 15.7915 52.1861 15.609L52.5467 15.8046L52.9685 15.1261L52.6568 14.8694C52.7549 14.6243 52.8067 14.3631 52.8096 14.0991L53.2069 13.983L53.0541 13.2127L52.6507 13.2494C52.5505 13.0049 52.403 12.7826 52.2166 12.5953L52.4184 12.2347L51.7643 11.7946L51.5075 12.1063C51.2619 12.0091 51.0013 11.9553 50.7373 11.9474L50.6212 11.5562L49.8509 11.7029L49.8876 12.1124C49.6435 12.214 49.4198 12.359 49.2274 12.5403L48.8729 12.3447L48.4327 12.9988L48.7445 13.2555C48.6445 13.5003 48.5906 13.7614 48.5856 14.0258L48.1943 14.1419L48.341 14.9121L48.7506 14.8755C48.8509 15.1184 48.996 15.3404 49.1785 15.5295L48.9829 15.8902L49.637 16.3303L49.8937 16.0186C50.1423 16.1299 50.4101 16.1922 50.6823 16.202ZM49.8387 13.4878C49.9572 13.3141 50.1245 13.1794 50.3195 13.1008C50.5145 13.0221 50.7285 13.003 50.9343 13.0459C51.1402 13.0888 51.3287 13.1917 51.4761 13.3417C51.6235 13.4917 51.7231 13.682 51.7623 13.8886C51.8016 14.0951 51.7788 14.3087 51.6967 14.5023C51.6146 14.6959 51.477 14.8608 51.3013 14.9763C51.1255 15.0917 50.9195 15.1524 50.7092 15.1508C50.4989 15.1492 50.2939 15.0853 50.1199 14.9672C49.8875 14.8074 49.7276 14.5624 49.6749 14.2854C49.6223 14.0083 49.6811 13.7217 49.8387 13.4878Z" fill="white"/>
<path d="M43.4793 68.2997H21.4178L0.866211 47.5342H64.031L43.4793 68.2997Z" fill="#C778FF"/>
<path d="M43.4856 68.2979L39.5611 100.287H25.3363L21.418 68.2979H43.4856Z" fill="#C778FF"/>
<path opacity="0.2" d="M64.0297 47.5342L43.4842 68.2997H21.4166L0.871094 47.5342H64.0297Z" fill="black"/>
<path opacity="0.2" d="M29.8341 100.289H25.335L21.4166 68.2997L0.871094 47.5342H13.2253L27.6823 68.2997L29.8341 100.289Z" fill="black"/>
<path d="M63.8249 45.5469H1.06976C0.478948 45.5469 0 46.0258 0 46.6166V48.4444C0 49.0352 0.478948 49.5142 1.06976 49.5142H63.8249C64.4157 49.5142 64.8947 49.0352 64.8947 48.4444V46.6166C64.8947 46.0258 64.4157 45.5469 63.8249 45.5469Z" fill="#C778FF"/>
<path d="M39.5278 99.5376H25.3764C24.8767 99.5376 24.4717 99.9427 24.4717 100.442V101.659C24.4717 102.158 24.8767 102.563 25.3764 102.563H39.5278C40.0274 102.563 40.4325 102.158 40.4325 101.659V100.442C40.4325 99.9427 40.0274 99.5376 39.5278 99.5376Z" fill="#C778FF"/>
<path opacity="0.2" d="M39.5278 99.5376H25.3764C24.8767 99.5376 24.4717 99.9427 24.4717 100.442V101.659C24.4717 102.158 24.8767 102.563 25.3764 102.563H39.5278C40.0274 102.563 40.4325 102.158 40.4325 101.659V100.442C40.4325 99.9427 40.0274 99.5376 39.5278 99.5376Z" fill="black"/>
</svg>
