<svg width="81" height="99" viewBox="0 0 81 99" fill="none" xmlns="http://www.w3.org/2000/svg">
<path opacity="0.7" d="M60.0003 98.9998H15.8222C14.355 99.0085 12.9017 98.7156 11.5524 98.1394C10.2031 97.5632 8.98652 96.7159 7.97819 95.6501C6.96986 94.5843 6.19125 93.3227 5.69063 91.9435C5.19002 90.5644 4.97809 89.0971 5.06797 87.6327L8.84627 15.5223C9.15814 9.2705 14.5388 4.15509 20.7942 4.15509H64.9724C66.441 4.14398 67.8963 4.43503 69.2477 5.01015C70.5992 5.58527 71.8179 6.43218 72.8281 7.49825C73.8384 8.56432 74.6186 9.82676 75.1203 11.2071C75.622 12.5875 75.8345 14.0563 75.7445 15.5223L71.9626 87.6327C71.6364 93.8844 66.2521 98.9998 60.0003 98.9998Z" fill="#C778FF"/>
<path d="M33.9116 0H31.1621V0.358473H33.9116V0Z" fill="#C778FF"/>
<path d="M28.8144 0H19.2539V0.358473H28.8144V0Z" fill="#C778FF"/>
<path d="M4.07058 24.5887L3.92676 27.3057L4.28473 27.3246L4.42855 24.6076L4.07058 24.5887Z" fill="#C778FF"/>
<path opacity="0.6" d="M57.4578 96.4622H13.2653C11.7984 96.4708 10.3455 96.1781 8.99641 95.6021C7.64735 95.0261 6.43099 94.1791 5.42271 93.1137C4.41444 92.0483 3.63574 90.7871 3.13489 89.4084C2.63405 88.0297 2.42174 86.5628 2.51111 85.0986L6.293 12.9847C6.61921 6.7329 12.0035 1.61749 18.2552 1.61749H62.4298C63.8985 1.60638 65.3538 1.89742 66.7052 2.47255C68.0566 3.04767 69.2753 3.89458 70.2856 4.96065C71.2959 6.02672 72.0761 7.28917 72.5778 8.66954C73.0795 10.0499 73.2919 11.5187 73.2019 12.9847L69.4236 85.0986C69.0938 91.3468 63.7096 96.4622 57.4578 96.4622Z" fill="#C778FF"/>
<mask id="mask0_150_5709" style="mask-type:luminance" maskUnits="userSpaceOnUse" x="2" y="1" width="72" height="96">
<path d="M57.4617 96.4622H13.2692C11.8024 96.4708 10.3494 96.1781 9.00031 95.6021C7.65126 95.0261 6.43489 94.1791 5.42662 93.1137C4.41834 92.0483 3.63964 90.7871 3.1388 89.4084C2.63796 88.0297 2.42564 86.5628 2.51502 85.0986L6.29691 12.9847C6.62312 6.7329 12.0074 1.61749 18.2591 1.61749H62.4337C63.9024 1.60638 65.3577 1.89742 66.7091 2.47255C68.0605 3.04767 69.2793 3.89458 70.2895 4.96065C71.2998 6.02672 72.08 7.28917 72.5817 8.66954C73.0834 10.0499 73.2958 11.5187 73.2059 12.9847L69.4275 85.0986C69.0978 91.3468 63.7135 96.4622 57.4617 96.4622Z" fill="white"/>
</mask>
<g mask="url(#mask0_150_5709)">
<path d="M21.5438 86.2569C11.0406 86.2569 1.37615 82.1667 -5.67142 74.7428C-12.719 67.3188 -16.3181 57.407 -15.766 46.8823C-15.3815 39.8975 -13.2157 33.1275 -9.47482 27.2164C-5.81199 21.4225 -0.810752 16.5934 5.10786 13.1356C5.12967 13.1267 5.15414 13.1267 5.17596 13.1356C5.19972 13.1424 5.22015 13.1577 5.23332 13.1786L8.85031 20.0792C8.97936 20.0076 9.10841 19.9359 9.24105 19.8677L9.38085 19.7889C9.40299 19.7818 9.42682 19.7818 9.44896 19.7889C9.46073 19.7924 9.47161 19.7983 9.48089 19.8064C9.49016 19.8144 9.49761 19.8243 9.50273 19.8355L10.4921 21.7175C10.5025 21.738 10.5045 21.7618 10.4979 21.7838C10.4912 21.8058 10.4763 21.8244 10.4563 21.8358C1.25427 26.9798 -4.80033 36.5833 -5.33804 46.9038C-5.7467 54.6396 -3.11193 61.913 2.07876 67.3797C4.65429 70.0867 7.75914 72.235 11.2003 73.691C14.6414 75.147 18.3452 75.8796 22.0815 75.8433C22.0937 75.843 22.1059 75.8454 22.117 75.8504C22.1282 75.8553 22.1381 75.8627 22.1461 75.872C22.1549 75.8801 22.1617 75.8901 22.1661 75.9013C22.1704 75.9125 22.1722 75.9245 22.1712 75.9365L21.6334 86.1888C21.6292 86.209 21.6178 86.227 21.6013 86.2395C21.5849 86.252 21.5645 86.2582 21.5438 86.2569ZM5.11502 13.34C-6.94042 20.4019 -14.8734 33.2495 -15.5904 46.8894C-16.1388 57.3676 -12.5684 67.2148 -5.55313 74.6173C1.46219 82.0198 11.0262 86.0562 21.4506 86.0884L21.9776 76.0189C18.233 76.042 14.5234 75.2982 11.0771 73.8334C7.63083 72.3686 4.52094 70.2138 1.93895 67.5016C-3.284 61.9955 -5.94744 54.6755 -5.52803 46.893C-4.98674 36.5403 1.06786 26.901 10.2806 21.7175L9.37726 19.9932L9.31274 20.0291C9.1586 20.1115 9.00087 20.194 8.85031 20.2836C8.82729 20.2928 8.80163 20.2928 8.77861 20.2836C8.75586 20.2766 8.73662 20.2612 8.72485 20.2406L5.11502 13.34Z" fill="#C778FF"/>
<path d="M24.0968 89.9959C24.0712 89.9957 24.0467 89.9854 24.0287 89.9672C24.0208 89.9578 24.0149 89.947 24.0112 89.9353C24.0075 89.9236 24.0061 89.9113 24.0072 89.8991L24.5807 78.9334C24.5826 78.9109 24.5928 78.8899 24.6094 78.8746C24.626 78.8593 24.6478 78.8509 24.6704 78.851C41.7516 78.851 56.3773 64.953 57.2735 47.8682C57.2753 47.8457 57.2855 47.8247 57.3021 47.8094C57.3187 47.7941 57.3405 47.7856 57.3631 47.7857H59.9728C59.9844 47.7852 59.9959 47.7871 60.0068 47.7912C60.0176 47.7953 60.0276 47.8016 60.0359 47.8096C60.0443 47.8176 60.051 47.8273 60.0555 47.838C60.06 47.8487 60.0624 47.8601 60.0624 47.8717C60.0839 48.7608 60.0624 49.6641 60.0301 50.5424H68.0922C68.1044 50.5421 68.1165 50.5445 68.1277 50.5495C68.1388 50.5544 68.1487 50.5618 68.1567 50.571C68.1732 50.5913 68.1821 50.6166 68.1818 50.6427C66.9108 60.9631 62.0794 70.5168 54.5204 77.6573C46.2648 85.4971 35.1772 89.9959 24.0968 89.9959ZM24.7564 79.0302L24.19 89.8167C35.1951 89.7916 46.2002 85.3142 54.3949 77.5246C61.9005 70.4391 66.7075 60.9632 67.9918 50.7216H59.9369C59.9235 50.7216 59.9103 50.7184 59.8984 50.7121C59.8865 50.7059 59.8764 50.6968 59.8688 50.6858C59.8598 50.6778 59.8528 50.6678 59.8484 50.6566C59.844 50.6453 59.8424 50.6332 59.8437 50.6212C59.8903 49.7394 59.9011 48.8289 59.8831 47.9578H57.4455C56.5063 65.0713 41.8663 78.9836 24.7564 79.0302Z" fill="#C778FF"/>
<path d="M59.9729 47.9646C59.9494 47.9638 59.9271 47.954 59.9105 47.9374C59.8939 47.9208 59.8842 47.8985 59.8833 47.875C59.428 29.7614 44.8274 15.573 26.6278 15.573C20.6347 15.5872 14.7387 17.0874 9.46766 19.9392C9.45744 19.9454 9.44604 19.9494 9.43419 19.951C9.42234 19.9525 9.41029 19.9516 9.39882 19.9482C9.38735 19.9448 9.37672 19.9391 9.36759 19.9314C9.35846 19.9237 9.35103 19.9141 9.34579 19.9034C9.33524 19.8823 9.33307 19.858 9.33972 19.8354C9.34638 19.8128 9.36135 19.7935 9.38163 19.7815C14.6792 16.9155 20.6047 15.408 26.6278 15.3938C35.3607 15.293 43.7786 18.652 50.0431 24.7372C56.3077 30.8224 59.9097 39.1393 60.0625 47.8714C60.063 47.8832 60.0611 47.895 60.0571 47.906C60.053 47.9171 60.0468 47.9272 60.0388 47.9359C60.0308 47.9445 60.0212 47.9515 60.0105 47.9565C59.9998 47.9614 59.9882 47.9642 59.9765 47.9646H59.9729Z" fill="#C778FF"/>
<path d="M72.343 50.7212H68.0915C68.0677 50.7212 68.0449 50.7118 68.0281 50.695C68.0113 50.6782 68.0019 50.6554 68.0019 50.6316C68.0019 50.6079 68.0113 50.5851 68.0281 50.5682C68.0449 50.5514 68.0677 50.542 68.0915 50.542H72.2569C72.6963 42.3471 70.9298 34.1843 67.1415 26.9043C61.5888 16.3401 52.1143 8.62219 40.4604 5.16651C28.0644 1.48858 14.869 3.01568 3.29393 9.46819L5.23327 13.1605C5.24352 13.182 5.24514 13.2066 5.23781 13.2292C5.23048 13.2519 5.21474 13.2709 5.19384 13.2823C5.18327 13.2879 5.17171 13.2913 5.15982 13.2923C5.14793 13.2933 5.13596 13.2919 5.1246 13.2882C5.11325 13.2846 5.10275 13.2787 5.09371 13.2709C5.08467 13.2631 5.07727 13.2536 5.07196 13.2429L3.09677 9.47536C3.09117 9.46528 3.08765 9.45418 3.08642 9.44271C3.0852 9.43124 3.08629 9.41965 3.08964 9.40862C3.09298 9.39758 3.09851 9.38733 3.10589 9.37847C3.11328 9.36962 3.12236 9.36233 3.13262 9.35706C8.90737 6.1049 15.2816 4.0574 21.87 3.3383C28.1318 2.6403 34.4699 3.20343 40.5106 4.99445C52.2111 8.46446 61.725 16.2146 67.2993 26.8219C71.1166 34.155 72.8898 42.3806 72.4326 50.6352C72.4316 50.6583 72.4218 50.6802 72.4051 50.6963C72.3884 50.7123 72.3661 50.7213 72.343 50.7212Z" fill="#C778FF"/>
<path d="M8.81488 20.2834H8.78978C8.76703 20.2764 8.74779 20.261 8.73602 20.2403L5.07242 13.2573C5.06149 13.2359 5.0595 13.211 5.0669 13.1882C5.07429 13.1653 5.09046 13.1463 5.11186 13.1354C5.13325 13.1245 5.1581 13.1225 5.18096 13.1299C5.20382 13.1373 5.2228 13.1535 5.23374 13.1748L8.85072 20.0754C8.97977 20.0038 9.10883 19.9321 9.24146 19.8639L9.38127 19.7851C9.39183 19.7795 9.4034 19.7762 9.41528 19.7751C9.42717 19.7741 9.43915 19.7755 9.4505 19.7792C9.46185 19.7828 9.47236 19.7887 9.4814 19.7965C9.49044 19.8043 9.49783 19.8138 9.50315 19.8245C9.50875 19.8346 9.51226 19.8457 9.51349 19.8572C9.51472 19.8686 9.51362 19.8802 9.51028 19.8913C9.50694 19.9023 9.50141 19.9125 9.49402 19.9214C9.48664 19.9303 9.47755 19.9375 9.4673 19.9428L9.32391 20.0217C9.16977 20.1041 9.01204 20.1866 8.86148 20.2762C8.84674 20.2822 8.83076 20.2847 8.81488 20.2834Z" fill="#C778FF"/>
<g opacity="0.3">
<path d="M21.5438 86.2564C11.0406 86.2564 1.37615 82.1662 -5.67142 74.7423C-12.719 67.3183 -16.3181 57.4065 -15.766 46.8818C-15.3815 39.897 -13.2157 33.127 -9.47482 27.216C-5.81199 21.422 -0.810752 16.5929 5.10786 13.1351C5.12967 13.1262 5.15414 13.1262 5.17596 13.1351C5.19972 13.1419 5.22015 13.1572 5.23332 13.1782L8.85031 20.0788C8.97936 20.0071 9.10841 19.9354 9.24105 19.8673L9.38085 19.7884C9.40299 19.7813 9.42682 19.7813 9.44896 19.7884C9.46073 19.7919 9.47161 19.7978 9.48089 19.8059C9.49016 19.8139 9.49761 19.8238 9.50273 19.835L10.4921 21.717C10.5025 21.7375 10.5045 21.7613 10.4979 21.7833C10.4912 21.8053 10.4763 21.8239 10.4563 21.8353C1.25427 26.9794 -4.80033 36.5828 -5.33804 46.9033C-5.7467 54.6391 -3.11193 61.9125 2.07876 67.3792C4.65429 70.0863 7.75914 72.2345 11.2003 73.6905C14.6414 75.1465 18.3452 75.8791 22.0815 75.8428C22.0937 75.8425 22.1059 75.8449 22.117 75.8499C22.1282 75.8548 22.1381 75.8622 22.1461 75.8715C22.1549 75.8796 22.1617 75.8896 22.1661 75.9008C22.1704 75.912 22.1722 75.924 22.1712 75.936L21.6334 86.1883C21.6292 86.2085 21.6178 86.2265 21.6013 86.2391C21.5849 86.2516 21.5645 86.2577 21.5438 86.2564ZM5.11502 13.3395C-6.94042 20.4014 -14.8734 33.2491 -15.5904 46.8889C-16.1388 57.3671 -12.5684 67.2143 -5.55313 74.6168C1.46219 82.0193 11.0262 86.0557 21.4506 86.0879L21.9776 76.0184C18.233 76.0415 14.5234 75.2977 11.0771 73.8329C7.63083 72.3681 4.52094 70.2133 1.93895 67.5011C-3.284 61.995 -5.94744 54.675 -5.52803 46.8925C-4.98674 36.5398 1.06786 26.9005 10.2806 21.717L9.37726 19.9927L9.31274 20.0286C9.1586 20.111 9.00087 20.1935 8.85031 20.2831C8.82729 20.2923 8.80163 20.2923 8.77861 20.2831C8.75586 20.2761 8.73662 20.2608 8.72485 20.2401L5.11502 13.3395Z" fill="white"/>
<path d="M24.0968 89.9954C24.0712 89.9952 24.0467 89.9849 24.0287 89.9667C24.0208 89.9573 24.0149 89.9465 24.0112 89.9348C24.0075 89.9231 24.0061 89.9108 24.0072 89.8986L24.5807 78.9329C24.5826 78.9104 24.5928 78.8894 24.6094 78.8741C24.626 78.8589 24.6478 78.8504 24.6704 78.8505C41.7516 78.8505 56.3773 64.9525 57.2735 47.8677C57.2753 47.8452 57.2855 47.8242 57.3021 47.8089C57.3187 47.7936 57.3405 47.7852 57.3631 47.7852H59.9728C59.9844 47.7847 59.9959 47.7866 60.0068 47.7907C60.0176 47.7948 60.0276 47.8011 60.0359 47.8091C60.0443 47.8172 60.051 47.8268 60.0555 47.8375C60.06 47.8482 60.0624 47.8597 60.0624 47.8713C60.0839 48.7603 60.0624 49.6636 60.0301 50.5419H68.0922C68.1044 50.5416 68.1165 50.544 68.1277 50.549C68.1388 50.5539 68.1487 50.5613 68.1567 50.5706C68.1732 50.5908 68.1821 50.6162 68.1818 50.6423C66.9108 60.9626 62.0794 70.5163 54.5204 77.6568C46.2648 85.4966 35.1772 89.9954 24.0968 89.9954ZM24.7564 79.0297L24.19 89.8162C35.1951 89.7911 46.2002 85.3137 54.3949 77.5241C61.9005 70.4386 66.7075 60.9627 67.9918 50.7211H59.9369C59.9235 50.7211 59.9103 50.7179 59.8984 50.7116C59.8865 50.7054 59.8764 50.6963 59.8688 50.6853C59.8598 50.6773 59.8528 50.6673 59.8484 50.6561C59.844 50.6448 59.8424 50.6327 59.8437 50.6208C59.8903 49.7389 59.9011 48.8284 59.8831 47.9573H57.4455C56.5063 65.0708 41.8663 78.9831 24.7564 79.0297Z" fill="white"/>
<path d="M59.9729 47.9642C59.9494 47.9633 59.9271 47.9535 59.9105 47.9369C59.8939 47.9203 59.8842 47.898 59.8833 47.8745C59.428 29.7609 44.8274 15.5726 26.6278 15.5726C20.6347 15.5867 14.7387 17.0869 9.46766 19.9388C9.45744 19.9449 9.44604 19.9489 9.43419 19.9505C9.42234 19.952 9.41029 19.9511 9.39882 19.9477C9.38735 19.9443 9.37672 19.9386 9.36759 19.9309C9.35846 19.9232 9.35103 19.9136 9.34579 19.9029C9.33524 19.8818 9.33307 19.8575 9.33972 19.8349C9.34638 19.8123 9.36135 19.793 9.38163 19.781C14.6792 16.9151 20.6047 15.4075 26.6278 15.3933C35.3607 15.2925 43.7786 18.6516 50.0431 24.7367C56.3077 30.8219 59.9097 39.1388 60.0625 47.8709C60.063 47.8827 60.0611 47.8945 60.0571 47.9055C60.053 47.9166 60.0468 47.9267 60.0388 47.9354C60.0308 47.944 60.0212 47.951 60.0105 47.956C59.9998 47.9609 59.9882 47.9637 59.9765 47.9642H59.9729Z" fill="white"/>
<path d="M72.343 50.7207H68.0915C68.0677 50.7207 68.0449 50.7113 68.0281 50.6945C68.0113 50.6777 68.0019 50.6549 68.0019 50.6311C68.0019 50.6074 68.0113 50.5846 68.0281 50.5678C68.0449 50.551 68.0677 50.5415 68.0915 50.5415H72.2569C72.6963 42.3466 70.9298 34.1838 67.1415 26.9038C61.5888 16.3396 52.1143 8.6217 40.4604 5.16602C28.0644 1.48809 14.869 3.01519 3.29393 9.4677L5.23327 13.16C5.24352 13.1815 5.24514 13.2061 5.23781 13.2288C5.23048 13.2514 5.21474 13.2704 5.19384 13.2819C5.18327 13.2874 5.17171 13.2908 5.15982 13.2918C5.14793 13.2928 5.13596 13.2914 5.1246 13.2878C5.11325 13.2841 5.10275 13.2782 5.09371 13.2704C5.08467 13.2626 5.07727 13.2531 5.07196 13.2424L3.09677 9.47487C3.09117 9.46479 3.08765 9.45369 3.08642 9.44222C3.0852 9.43076 3.08629 9.41916 3.08964 9.40813C3.09298 9.39709 3.09851 9.38684 3.10589 9.37798C3.11328 9.36913 3.12236 9.36185 3.13262 9.35657C8.90737 6.10441 15.2816 4.05691 21.87 3.33781C28.1318 2.63982 34.4699 3.20294 40.5106 4.99396C52.2111 8.46398 61.725 16.2142 67.2993 26.8214C71.1166 34.1546 72.8898 42.3801 72.4326 50.6347C72.4316 50.6579 72.4218 50.6797 72.4051 50.6958C72.3884 50.7118 72.3661 50.7208 72.343 50.7207Z" fill="white"/>
<path d="M8.81488 20.2829H8.78978C8.76703 20.2759 8.74779 20.2605 8.73602 20.2399L5.07242 13.2568C5.06149 13.2354 5.0595 13.2106 5.0669 13.1877C5.07429 13.1648 5.09046 13.1459 5.11186 13.1349C5.13325 13.124 5.1581 13.122 5.18096 13.1294C5.20382 13.1368 5.2228 13.153 5.23374 13.1744L8.85072 20.075C8.97977 20.0033 9.10883 19.9316 9.24146 19.8635L9.38127 19.7846C9.39183 19.7791 9.4034 19.7757 9.41528 19.7747C9.42717 19.7736 9.43915 19.775 9.4505 19.7787C9.46185 19.7824 9.47236 19.7883 9.4814 19.796C9.49044 19.8038 9.49783 19.8133 9.50315 19.824C9.50875 19.8341 9.51226 19.8452 9.51349 19.8567C9.51472 19.8681 9.51362 19.8797 9.51028 19.8908C9.50694 19.9018 9.50141 19.9121 9.49402 19.9209C9.48664 19.9298 9.47755 19.937 9.4673 19.9423L9.32391 20.0212C9.16977 20.1036 9.01204 20.1861 8.86148 20.2757C8.84674 20.2818 8.83076 20.2842 8.81488 20.2829Z" fill="white"/>
</g>
</g>
<path d="M24.3183 71.3647L23.9598 77.9498C10.0188 77.9498 -0.695971 66.6436 0.0353139 52.7062C0.526422 43.3644 6.03256 35.202 13.8078 30.8394L16.8047 36.5427C13.885 38.162 11.4212 40.492 9.64157 43.3168C7.86194 46.1416 6.82405 49.3699 6.62405 52.7026C6.09709 63.0087 14.0158 71.3647 24.3183 71.3647Z" fill="#C778FF"/>
<path opacity="0.6" d="M24.3183 71.3647L23.9598 77.9498C10.0188 77.9498 -0.695971 66.6436 0.0353139 52.7062C0.526422 43.3644 6.03256 35.202 13.8078 30.8394L16.8047 36.5427C13.885 38.162 11.4212 40.492 9.64157 43.3168C7.86194 46.1416 6.82405 49.3699 6.62405 52.7026C6.09709 63.0087 14.0158 71.3647 24.3183 71.3647Z" fill="black"/>
<path d="M54.0392 53.3408C53.5878 60.6008 50.406 67.4211 45.1328 72.4316C39.8597 77.4421 32.8859 80.2716 25.6123 80.3517L25.9708 73.3042C36.9938 73.3042 46.4037 64.3639 46.9809 53.3408H54.0392Z" fill="#C778FF"/>
<path opacity="0.3" d="M54.0392 53.3408C53.5878 60.6008 50.406 67.4211 45.1328 72.4316C39.8597 77.4421 32.8859 80.2716 25.6123 80.3517L25.9708 73.3042C36.9938 73.3042 46.4037 64.3639 46.9809 53.3408H54.0392Z" fill="black"/>
<path d="M56.6173 55.1152H48.6449C49.2973 42.6295 39.7117 32.5314 27.2405 32.5314C23.2221 32.53 19.2721 33.5712 15.7765 35.5533L12.1523 28.6455C27.1114 20.2644 45.6839 25.3189 53.3122 39.837C55.7654 44.5407 56.907 49.8181 56.6173 55.1152Z" fill="#FAFAFA"/>
<path d="M55.747 75.0029H48.4055L47.6133 90.1233H54.9548L55.747 75.0029Z" fill="#FAFAFA"/>
<path d="M66.2255 70.0068H58.884L57.8301 90.1243H65.1716L66.2255 70.0068Z" fill="#C778FF"/>
<path opacity="0.6" d="M66.2255 70.0068H58.884L57.8301 90.1243H65.1716L66.2255 70.0068Z" fill="black"/>
<path d="M76.1738 75.0029H68.8323L68.04 90.1233H75.3816L76.1738 75.0029Z" fill="#C778FF"/>
<path opacity="0.3" d="M76.1738 75.0029H68.8323L68.04 90.1233H75.3816L76.1738 75.0029Z" fill="black"/>
<path d="M75.3148 91.4105H47.5439L47.5619 91.0664H75.3328L75.3148 91.4105Z" fill="#263238"/>
<path opacity="0.8" d="M79.0692 27.437H47.0576L48.004 9.35205H80.0192L79.0692 27.437Z" fill="#FAFAFA"/>
<path d="M47.6348 16.4004L47.0576 27.4378H79.0692L79.7862 13.7334C74.4736 13.7334 71.3226 19.7808 64.7518 19.7808C58.181 19.7808 56.3779 16.4004 47.6348 16.4004Z" fill="#C778FF"/>
<path opacity="0.1" d="M47.6348 16.4004L47.0576 27.4378H79.0692L79.7862 13.7334C74.4736 13.7334 71.3226 19.7808 64.7518 19.7808C58.181 19.7808 56.3779 16.4004 47.6348 16.4004Z" fill="black"/>
<path d="M47.3571 21.6766C54.5516 21.6766 57.1362 17.7334 61.1762 17.7334C65.2162 17.7334 66.9835 21.8809 72.0164 21.8809C77.2645 21.8809 79.5444 18.6188 79.5444 18.6188L79.0819 27.4444H47.0703L47.3571 21.6766Z" fill="#C778FF"/>
<path opacity="0.5" d="M47.3571 21.6766C54.5516 21.6766 57.1362 17.7334 61.1762 17.7334C65.2162 17.7334 66.9835 21.8809 72.0164 21.8809C77.2645 21.8809 79.5444 18.6188 79.5444 18.6188L79.0819 27.4444H47.0703L47.3571 21.6766Z" fill="black"/>
</svg>
