<svg width="100" height="100" viewBox="0 0 100 100" fill="none" xmlns="http://www.w3.org/2000/svg">
<path d="M49.7434 99.4868C77.216 99.4868 99.4868 77.216 99.4868 49.7434C99.4868 22.2709 77.216 0 49.7434 0C22.2709 0 0 22.2709 0 49.7434C0 77.216 22.2709 99.4868 49.7434 99.4868Z" fill="#71389A"/>
<path d="M49.7432 95.5831C75.0598 95.5831 95.583 75.0598 95.583 49.7432C95.583 24.4265 75.0598 3.90332 49.7432 3.90332C24.4265 3.90332 3.90332 24.4265 3.90332 49.7432C3.90332 75.0598 24.4265 95.5831 49.7432 95.5831Z" fill="#E3D7EB" stroke="#263238" stroke-miterlimit="10"/>
<g opacity="0.2">
<path d="M49.7438 51.2428C49.5439 51.2441 49.3457 51.2051 49.1612 51.1282C48.9766 51.0513 48.8094 50.938 48.6695 50.7952L19.836 21.1828C19.5727 20.8953 19.4318 20.5165 19.443 20.1268C19.4543 19.7371 19.6168 19.3671 19.8963 19.0952C20.1757 18.8233 20.55 18.671 20.9399 18.6704C21.3298 18.6699 21.7046 18.8212 21.9848 19.0923L50.8227 48.6822C51.0289 48.8935 51.1681 49.1608 51.223 49.4508C51.2779 49.7409 51.246 50.0406 51.1313 50.3126C51.0166 50.5845 50.8242 50.8166 50.5782 50.9797C50.3322 51.1428 50.0435 51.2296 49.7483 51.2294L49.7438 51.2428Z" fill="#263238"/>
</g>
<path opacity="0.2" d="M36.8104 59.8961C36.4878 59.8976 36.1732 59.795 35.9135 59.6036C35.6538 59.4121 35.4628 59.142 35.3688 58.8334C35.2748 58.5247 35.2828 58.194 35.3917 57.8903C35.5006 57.5866 35.7046 57.3261 35.9733 57.1475L48.9105 48.4943C49.2412 48.285 49.6406 48.2132 50.0235 48.2943C50.4064 48.3754 50.7425 48.603 50.9598 48.9285C51.1772 49.254 51.2587 49.6515 51.187 50.0363C51.1152 50.4211 50.8959 50.7625 50.5758 50.9878L37.643 59.6409C37.3967 59.8062 37.107 59.895 36.8104 59.8961Z" fill="#263238"/>
<path d="M51.6013 49.7436C51.6022 49.376 51.494 49.0163 51.2904 48.7103C51.0868 48.4042 50.7969 48.1653 50.4575 48.0241C50.1182 47.8828 49.7445 47.8453 49.3838 47.9165C49.0232 47.9877 48.6917 48.1643 48.4315 48.4239C48.1712 48.6835 47.9938 49.0145 47.9218 49.375C47.8497 49.7355 47.8863 50.1093 48.0267 50.449C48.1672 50.7887 48.4053 51.0792 48.7109 51.2835C49.0165 51.4878 49.3759 51.5969 49.7435 51.5969C50.2354 51.5969 50.7073 51.4018 51.0556 51.0543C51.4038 50.7069 51.6001 50.2355 51.6013 49.7436Z" fill="#263238" stroke="#263238" stroke-miterlimit="10" stroke-linecap="round"/>
<path d="M49.7793 8.00391V14.1995" stroke="#263238" stroke-width="2" stroke-miterlimit="10" stroke-linecap="round"/>
<path d="M49.7793 84.8037V90.9993" stroke="#263238" stroke-width="2" stroke-miterlimit="10" stroke-linecap="round"/>
<path d="M91.2772 49.5015H85.0771" stroke="#263238" stroke-width="2" stroke-miterlimit="10" stroke-linecap="round"/>
<path d="M14.4768 49.5015H8.28125" stroke="#263238" stroke-width="2" stroke-miterlimit="10" stroke-linecap="round"/>
<path d="M71.54 14.1685L68.29 19.4463" stroke="#263238" stroke-width="2" stroke-miterlimit="10" stroke-linecap="round"/>
<path d="M31.2646 79.5571L28.0146 84.835" stroke="#263238" stroke-width="2" stroke-miterlimit="10" stroke-linecap="round"/>
<path d="M86.2854 29.7734L80.833 32.719" stroke="#263238" stroke-width="2" stroke-miterlimit="10" stroke-linecap="round"/>
<path d="M18.721 66.2842L13.2686 69.2297" stroke="#263238" stroke-width="2" stroke-miterlimit="10" stroke-linecap="round"/>
<path d="M85.1128 71.2667L79.835 68.0122" stroke="#263238" stroke-width="2" stroke-miterlimit="10" stroke-linecap="round"/>
<path d="M19.7241 30.9912L14.4463 27.7412" stroke="#263238" stroke-width="2" stroke-miterlimit="10" stroke-linecap="round"/>
<path d="M69.5071 86.0126L66.5615 80.5557" stroke="#263238" stroke-width="2" stroke-miterlimit="10" stroke-linecap="round"/>
<path d="M32.9963 18.448L30.0508 12.9956" stroke="#263238" stroke-width="2" stroke-miterlimit="10" stroke-linecap="round"/>
</svg>
