<svg width="153" height="101" viewBox="0 0 153 101" fill="none" xmlns="http://www.w3.org/2000/svg">
<path d="M0 3.12081V96.086C0 98.8 2.20002 101 4.91405 101H150.355C151.383 101 152.217 100.166 152.217 99.1383V2.49201C152.217 1.11562 151.102 0 149.725 0H3.1208C1.39704 0 0 1.39704 0 3.12081Z" fill="#C778FF"/>
<path opacity="0.7" d="M0 3.12081V96.086C0 98.8 2.20002 101 5.50407 100.98H150.946C151.383 101 152.217 100.167 152.217 99.1388V2.49201C152.217 1.11562 151.102 0 149.725 0H3.1208C1.39704 0 0 1.39704 0 3.12081Z" fill="white"/>
<path d="M2.4462 0H150.266C151.344 0 152.219 0.875479 152.219 1.95334V8.10685H0V2.4462C0 1.09598 1.09598 0 2.4462 0Z" fill="#71389A"/>
<path d="M133.745 24.67H18.4756C15.7611 24.67 13.5605 22.4694 13.5605 19.7549C13.5605 17.0404 15.7611 14.8398 18.4756 14.8398H133.745C136.459 14.8398 138.66 17.0404 138.66 19.7549C138.66 22.4694 136.459 24.67 133.745 24.67Z" fill="white"/>
<path d="M134.439 21.9893L133.082 20.9256C133.099 20.9029 133.117 20.8828 133.134 20.8596C133.41 20.4564 133.556 19.9836 133.556 19.4928C133.556 18.1582 132.471 17.0723 131.136 17.0723C129.801 17.0723 128.715 18.1582 128.715 19.4928C128.715 20.8274 129.801 21.9133 131.136 21.9133C131.735 21.9133 132.306 21.6908 132.745 21.3006L134.128 22.3855C134.175 22.4218 134.229 22.4389 134.284 22.4389C134.358 22.4389 134.432 22.4057 134.482 22.3428C134.568 22.2335 134.548 22.0749 134.439 21.9893ZM131.136 21.4099C130.079 21.4099 129.218 20.55 129.218 19.4928C129.218 18.4356 130.079 17.5757 131.136 17.5757C132.193 17.5757 133.053 18.4356 133.053 19.4928C133.053 19.8815 132.938 20.256 132.719 20.5752C132.36 21.0978 131.768 21.4099 131.136 21.4099Z" fill="#C778FF"/>
<path opacity="0.4" d="M128.488 89.4554C128.417 89.8109 128.192 90.2066 127.895 90.4533C127.681 90.6325 127.001 90.9939 126.923 90.482C126.901 90.3395 127.055 89.6775 127.112 89.5405C127.28 89.1413 127.459 89.4026 127.729 89.4549C128.007 89.5088 128.267 89.2536 128.488 89.4549V89.4554ZM126.875 48.9977C126.8 48.6791 126.734 48.3418 126.637 47.9999C126.595 47.8454 126.503 47.7185 126.495 47.6007C126.48 47.3953 126.57 47.199 126.543 47.0021C126.474 46.4982 125.919 46.0008 125.5 45.9469C125.218 46.3356 125.657 46.684 125.737 47.0021C125.863 47.5061 125.625 47.9994 125.405 48.1424C125.323 48.1948 125.215 48.1716 125.119 48.2562C125.007 48.3554 124.995 48.7485 124.788 48.8553C124.547 48.9771 124.225 48.8568 123.909 48.9404C123.74 48.9857 123.475 49.3089 123.34 49.4826C123.23 49.6235 122.883 49.9633 122.89 50.1667C122.896 50.3626 123.115 50.4955 123.269 50.7371C123.396 50.9365 123.511 51.2612 123.72 51.2214C124.014 51.166 123.765 50.5096 124.004 50.3379C124.423 50.5101 124.589 49.8324 124.93 49.8244C125.062 49.8214 125.17 50.0107 125.31 49.9669C125.483 49.912 125.533 49.552 125.714 49.4534C126.097 49.2439 126.614 49.3889 126.875 48.9977ZM124.858 45.2335C124.866 45.4933 125.185 45.7541 125.38 45.8039C125.454 45.5598 125.324 45.3544 125.546 45.2914C125.735 45.2376 125.949 45.5054 126.14 45.4621C126.26 45.4349 126.375 45.1736 126.472 45.0911C126.572 45.007 126.679 45.0372 126.732 44.8917C126.713 44.495 126.43 44.5313 126.092 44.4638C125.569 44.3601 125.113 43.8355 124.882 43.8934C124.881 43.9301 124.851 43.9332 124.858 43.979C124.96 44.2876 125.142 44.4517 125.072 44.7774C125.029 44.9687 124.853 45.0699 124.858 45.233V45.2335ZM125.499 73.8877C125.535 74.0412 125.879 74.0684 125.855 73.8318C125.813 73.647 125.506 73.7044 125.499 73.8877ZM124.597 43.2958C124.998 42.9847 124.429 42.6464 124.194 42.4974C124.102 42.8191 124.354 43.1876 124.597 43.2958ZM123.459 72.7197C123.685 72.5541 124.042 72.5611 124.146 72.2062C123.671 72.0098 123.374 72.4 123.103 72.5777C122.914 72.6986 122.65 72.7715 122.652 73.0897C122.694 73.1154 122.725 73.1537 122.747 73.204C123.036 73.1713 123.23 72.8873 123.459 72.7192V72.7197ZM123.197 67.2453C123.004 67.1134 122.741 67.2176 122.462 67.2166C122.208 67.2156 121.947 67.0812 121.773 67.1028C121.547 67.1305 121.33 67.3742 121.322 67.6153C121.463 67.6753 121.501 67.5544 121.631 67.5308C122.24 67.416 123.161 67.9582 123.196 67.2453H123.197ZM122.58 70.638C122.688 70.5408 122.642 70.2564 122.652 70.0389C122.427 69.7106 122.35 69.2042 122.153 68.8422C122.278 68.5381 122.726 68.4943 122.699 68.0997C122.299 68.01 121.962 68.4304 121.678 68.3569C121.596 68.3358 121.426 68.0085 121.298 68.0156C121.042 68.0287 121.089 68.5261 121.014 68.7848C120.962 68.964 120.787 69.1503 120.8 69.3265C120.818 69.5395 121.041 69.5959 121.085 69.8692C121.136 70.1804 120.893 70.5811 121.133 70.6672C121.623 70.8414 121.289 69.4383 121.654 69.3557C121.846 69.7167 122.102 70.7482 122.58 70.638ZM121.821 72.3487C121.78 72.106 121.288 72.038 121.205 72.2631C121.246 72.4609 121.734 72.5651 121.821 72.3487ZM120.849 72.8053C120.903 73.0258 121.095 73.0781 121.276 73.1476C121.31 73.1134 121.343 73.0756 121.37 73.0328C121.364 72.765 120.982 72.5707 120.849 72.8053ZM119.97 72.1775C119.792 72.1976 119.567 72.0542 119.496 72.2631C119.546 72.5088 119.795 72.5123 120.042 72.5193C120.192 72.3033 120.609 72.5254 120.729 72.32C120.653 71.9046 120.257 72.1463 119.97 72.1775ZM133.923 81.188C133.897 81.0304 133.722 80.815 133.615 80.6171C133.504 80.4127 133.348 80.2561 133.283 80.0467C133.238 79.9042 133.248 79.7552 133.212 79.6757C133.137 79.5156 132.932 79.4964 132.856 79.3056C132.833 79.2488 132.854 79.1068 132.832 79.0197C132.786 78.8359 132.709 78.7418 132.713 78.5077C132.478 78.1311 132.115 78.1427 131.929 77.7938C131.783 77.5174 131.883 77.2043 131.835 76.8242C131.81 76.6188 131.661 76.4084 131.645 76.1682C131.635 76.0263 131.708 75.8506 131.692 75.7131C131.647 75.3149 131.313 75.3728 131.123 75.2001C131.17 74.6076 131.074 73.9063 130.79 73.5453C130.508 73.6838 130.384 74.2104 130.292 74.6005C130.259 74.7435 130.173 74.884 130.15 75.0279C130.08 75.4589 130.071 75.9573 129.913 76.3676C129.778 76.719 129.538 77.0885 129.297 77.0815C129.085 77.0739 128.976 76.8021 128.822 76.6817C128.773 76.6445 128.658 76.6198 128.585 76.568C128.499 76.506 128.365 76.3198 128.205 76.1979C127.971 76.0192 127.581 75.8667 127.588 75.5415C127.594 75.2822 127.798 75.2339 127.992 75.1427C128.062 75.0023 127.984 74.9318 128.015 74.8004C128.06 74.6146 128.248 74.4686 128.229 74.2874C128.184 73.8776 127.766 74.1817 127.54 74.1726C127.122 74.1575 126.655 73.7089 126.378 73.6883C126.266 73.8006 126.408 73.9078 126.378 74.0875C126.246 74.3413 125.977 74.1595 125.738 74.23C125.44 74.3171 125.316 74.7088 125.145 74.9998C125.027 75.1986 124.894 75.5304 124.765 75.5696C124.401 75.6809 124.245 75.1196 123.91 75.0848C123.821 75.0748 123.633 75.1382 123.531 75.1996C123.358 75.3003 123.115 75.4982 122.985 75.6265C122.798 75.8128 122.771 76.1043 122.606 76.2825C122.524 76.3701 122.288 76.5045 122.178 76.5393C122.072 76.572 121.972 76.5156 121.87 76.5675C121.662 76.6742 121.694 76.938 121.585 77.2516C121.496 77.5099 121.159 77.9418 120.921 78.107C120.704 78.258 120.45 78.2288 120.162 78.3073C119.864 78.3874 119.594 78.6039 119.379 78.6492C119.312 78.6628 119.186 78.631 119.094 78.6492C118.729 78.7207 118.437 79.1194 118.073 79.3338C117.97 79.3937 117.707 79.4965 117.645 79.6183C117.597 79.7149 117.595 79.9677 117.551 80.1026C117.456 80.3951 117.311 80.5048 117.314 80.7299C117.318 81.0486 117.483 81.0913 117.409 81.3572C117.363 81.5193 117.18 81.5394 117.147 81.7277C117.13 81.8319 117.202 81.9789 117.218 82.1551C117.23 82.2769 117.206 82.4018 117.218 82.4979C117.252 82.7648 117.383 82.9868 117.385 83.2385C117.386 83.4238 117.298 83.6231 117.29 83.8094C117.278 84.0485 117.39 84.2751 117.385 84.4644C117.378 84.7045 117.218 85.0962 117.124 85.2628C117.036 85.4184 116.766 85.5583 116.768 85.7763C116.769 86.0522 117.042 86.1302 117.195 86.2888C117.97 86.4278 118.258 85.9243 118.761 85.7481C119.268 85.5694 119.765 85.7491 120.256 85.6907C120.553 85.3912 121.084 84.9361 121.561 84.8359C121.701 84.8057 121.863 84.8525 122.011 84.8359C122.591 84.769 123.058 84.2977 123.791 84.4357C123.959 84.4674 124.46 84.6939 124.598 84.8072C124.719 84.9059 124.981 85.4954 125.002 85.6339C125.029 85.8151 124.885 86.0391 125.073 86.1182C125.273 86.1615 125.398 85.873 125.571 85.7481C125.726 85.6338 125.908 85.5896 126.046 85.5191C125.982 85.6142 125.945 85.7406 125.951 85.9178C126.124 86.0447 126.116 86.2923 126.069 86.4887C126.143 86.6724 126.321 86.7273 126.331 86.9448C126.341 87.1628 126.186 87.2725 126.212 87.5157C126.26 87.9617 126.632 87.9567 126.972 88.0856C127.133 88.1475 127.19 88.2276 127.303 88.2281C127.581 88.2306 127.73 88.0277 127.92 88.0574C128.09 88.0841 128.259 88.3499 128.443 88.3429C128.617 88.3348 128.85 88.0257 129.201 87.858C129.426 87.7508 129.645 87.776 129.89 87.7438C130.307 87.6889 130.428 87.1417 130.672 86.8023C130.841 86.5687 131.099 86.3618 131.313 86.0905C131.517 85.8322 131.703 85.5432 131.93 85.3207C132.077 85.1767 132.255 85.0932 132.405 84.9492C132.658 84.706 132.896 84.3063 133.069 83.9514C133.281 83.5199 133.553 83.1821 133.663 82.8398C133.757 82.5483 133.706 82.1823 133.757 81.8989C133.799 81.6653 133.971 81.4704 133.924 81.1865L133.923 81.188ZM118.333 72.2344C118.599 72.2812 118.908 72.471 119.115 72.2062C118.971 71.8679 118.516 71.9001 118.238 71.7224C118.236 71.5764 118.285 71.4999 118.214 71.4077C117.887 71.4546 117.613 71.1963 117.337 71.2094C117.207 71.2144 117.11 71.3297 116.981 71.3508C116.434 71.4425 116.149 70.9904 115.722 70.9234C115.393 70.8726 115.023 70.9466 115.035 71.2094C115.046 71.4641 115.842 71.8251 116.055 71.8649C116.236 71.8981 116.433 71.8362 116.625 71.8649C116.941 71.9117 117.242 72.1317 117.573 72.178C117.835 72.2137 118.092 72.1931 118.333 72.2344ZM120.35 64.5081C120.324 64.275 119.991 63.7036 119.781 63.9946C119.532 64.3385 119.522 64.7362 119.211 65.0211C119.092 65.1299 118.955 65.1324 118.808 65.2497C118.677 65.3524 118.599 65.5915 118.5 65.734C118.392 65.887 118.276 66.0643 118.121 66.1332C117.97 66.1997 117.775 66.1649 117.67 66.247C117.478 66.3945 117.519 66.7504 117.29 66.8179C117.175 66.8516 117.005 66.6991 116.839 66.7323C116.429 66.8129 116.496 67.6833 116.65 68.0725C116.756 68.3408 116.953 68.446 117.005 68.6424C117.057 68.8367 117.033 69.178 117.196 69.2983C117.274 69.3567 117.443 69.3235 117.622 69.3839C117.771 69.4333 117.853 69.5455 117.954 69.5546C118.083 69.5657 118.231 69.4675 118.357 69.469C118.688 69.474 118.886 69.8169 119.094 69.84C119.285 69.8622 119.457 69.688 119.615 69.6986C119.843 69.4489 119.728 69.0109 119.828 68.6716C119.911 68.3891 120.18 68.3332 120.279 68.1007C120.308 67.7805 120.231 67.7664 120.303 67.559C120.381 67.3349 120.738 67.3445 120.754 67.1315C120.761 67.0228 120.561 66.8431 120.493 66.6759C120.429 66.5214 120.364 66.3064 120.35 66.1906C120.267 65.4813 120.662 65.438 120.801 64.9366C120.7 64.7347 120.468 64.6904 120.35 64.5091V64.5081ZM116.085 68.7496C115.481 68.7496 115.481 69.8753 116.085 69.8753C116.689 69.8753 116.689 68.7496 116.085 68.7496ZM115.2 69.6407C115.273 69.3749 115.524 69.3854 115.533 69.1846C115.537 69.0647 115.274 68.6262 115.2 68.6137C115.02 68.5855 115.011 68.8699 114.844 68.8135C114.677 68.7818 114.653 68.5442 114.536 68.3856C114.442 68.2582 114.284 68.1933 114.251 68.0433C114.233 67.9597 114.291 67.78 114.275 67.6737C114.208 67.2453 113.719 67.0273 113.444 66.8179C113.243 66.6638 113.029 66.5888 112.875 66.4751C112.763 66.392 112.659 66.1891 112.518 66.0471C112.388 65.9147 112.22 65.8292 112.092 65.7053C111.863 65.4843 111.714 65.0795 111.499 64.9924C111.393 64.9496 111.219 64.9975 111.072 64.9642C110.845 64.9124 110.719 64.6828 110.597 64.8495C110.627 65.4798 111.2 65.7033 111.498 66.1327C111.569 66.2349 111.612 66.3809 111.688 66.4746C111.805 66.618 111.97 66.6951 112.068 66.8743C112.173 67.0671 112.182 67.3299 112.281 67.5303C112.404 67.7734 112.632 67.9335 112.757 68.157C112.898 68.4118 112.941 68.7113 113.065 68.9837C113.148 69.1674 113.311 69.3205 113.444 69.4972C113.812 69.9835 114.153 70.4165 114.584 70.7805C114.756 70.7789 114.951 70.8026 115.058 70.7241C115.251 70.5136 115.089 70.05 115.2 69.6407ZM104 62.6263C103.967 62.6419 103.942 62.6711 103.929 62.7119C103.786 63.2198 103.697 64.4759 104.166 64.565C104.397 64.6093 104.632 64.4079 104.688 64.2519C104.887 63.7026 104.205 62.7068 104 62.6263ZM90.4986 74.3458C90.3858 74.4565 90.4009 74.6438 90.332 74.7445C90.2555 74.8563 90.1115 74.8804 90.048 74.9721C89.9544 75.105 89.9483 75.3079 89.8341 75.4856C89.6991 75.695 89.4469 75.8843 89.2647 75.9991C89.0437 76.1375 88.7477 76.1174 88.5287 76.3122C88.3771 76.4481 88.2412 76.8252 88.2201 77.0548C88.1868 77.4198 88.356 77.7777 88.3389 78.1377C88.3157 78.6154 87.846 78.8974 87.7931 79.4773C87.7695 79.7376 87.8828 79.9329 87.912 80.162C87.9351 80.3442 87.8958 80.5134 87.9361 80.6755C88.0106 80.9781 88.2623 81.2399 88.5528 81.2449C88.6721 81.2469 89.1056 81.1195 89.2174 81.0455C89.5295 80.8381 89.5924 80.0764 89.7636 79.5911C89.8064 79.4683 89.9056 79.36 89.9529 79.2211C90.0828 78.839 90.1744 78.3532 90.332 77.9091C90.5152 77.3961 90.7196 76.8529 90.7357 76.2281C90.8012 76.0736 91.0096 76.0263 91.0438 75.7987C91.0559 75.7217 90.9885 75.5555 90.9739 75.4C90.923 74.9021 90.8284 74.1766 90.4986 74.3458ZM110.147 59.4053C109.988 59.4083 109.775 59.2548 109.744 59.0625C109.713 58.8873 109.819 58.7111 109.814 58.5208C109.805 58.1386 109.579 57.9906 109.411 57.7223C109.342 57.6136 109.324 57.461 109.268 57.3805C109.16 57.2254 108.954 57.1393 108.817 56.9818C108.687 56.8307 108.544 56.6132 108.485 56.4682C108.393 56.2452 108.364 55.9557 108.224 55.926C108.09 55.8979 107.936 56.1279 107.797 56.1828C107.653 56.2397 107.297 56.3132 107.156 56.3253C106.68 56.365 106.293 56.212 106.35 56.8957C106.275 57.2023 106.006 57.2058 105.827 57.3513C105.6 57.537 105.435 57.9091 105.187 58.2066C105.067 58.3521 104.892 58.4427 104.784 58.5776C104.693 58.6899 104.665 58.8701 104.57 58.9774C104.316 59.2648 103.937 59.289 103.764 59.6902C103.754 60.164 103.95 60.5224 103.906 60.9725C103.885 61.1779 103.758 61.3596 103.739 61.5716C103.724 61.7528 103.801 61.9482 103.763 62.142C103.742 62.2457 103.646 62.3001 103.573 62.4269C103.507 62.5407 103.48 62.6917 103.431 62.7688C103.351 62.8916 103.22 62.9772 103.145 63.0829C103.025 63.2541 103 63.3764 102.885 63.3965C102.365 63.4867 102.237 62.298 102.007 61.7996C101.901 61.5706 101.685 61.3642 101.58 61.0868C101.458 60.7671 101.421 60.3659 101.247 60.0034C101.1 59.6938 100.897 59.3836 100.797 59.0625C100.712 58.7911 100.639 58.4513 100.56 58.1502C100.475 57.8321 100.384 57.4318 100.37 57.1811C100.35 56.8111 100.429 56.583 100.18 56.4395C99.9511 56.5045 99.8489 56.7814 99.5867 56.7814C99.3334 56.7814 98.6538 56.2543 98.8516 55.7836C98.686 55.5016 98.2682 55.3466 97.9495 55.0138C97.7672 54.823 97.6026 54.3684 97.2855 54.3301C97.1979 54.3191 97.0841 54.3785 97.0005 54.387C96.7996 54.4082 96.4437 54.3654 96.2172 54.387C95.9327 54.4142 95.5808 54.4912 95.2209 54.4439C94.9888 54.4137 94.7008 54.3599 94.4617 54.3301C94.1576 54.2924 93.7538 54.2063 93.5842 54.016C93.479 53.8992 93.4362 53.5257 93.2509 53.4743C93.0309 53.4129 92.9101 53.6173 92.7057 53.6737C92.2707 53.7935 91.9077 53.5664 91.6137 53.3318C91.4053 53.1657 91.2155 53.0791 91.068 52.9608C90.707 52.6708 90.6426 51.7979 90.0949 51.7913C89.9046 51.7893 89.601 51.9323 89.5728 52.191C89.5542 52.3728 89.7535 52.7096 89.8341 52.847C90.1004 53.2976 90.5892 53.4668 90.7357 54.0724C90.8339 54.1187 91.0343 53.9687 91.139 54.1011C91.2306 54.3609 91.138 54.8431 91.3524 54.9564C92.3387 55.1523 92.6206 54.5028 93.0616 54.0442C93.3174 54.2451 93.2328 54.4208 93.3224 54.6423C93.4135 54.8698 93.556 55.0481 93.7256 55.1276C93.845 55.1825 93.998 55.1311 94.1767 55.2127C94.2885 55.264 94.7567 55.7956 94.7703 55.9829C94.7824 56.1506 94.4632 56.7215 94.366 56.8665C94.2719 57.0079 94.1264 57.0809 94.0816 57.2083C94.0478 57.307 94.0589 57.5164 94.0343 57.5793C93.9905 57.6931 93.7775 57.8411 93.6542 57.9781C93.5248 58.1235 93.3737 58.2363 93.2509 58.3491C93.1009 58.4875 93.0083 58.6773 92.8477 58.7488C92.532 58.8888 92.2314 58.8289 91.9697 59.0343C91.7985 59.1682 91.7975 59.4702 91.5906 59.6323C91.3736 59.8015 91.0026 59.803 90.6884 59.9752C90.4865 60.0854 90.3652 60.2994 90.191 60.3739C90.1195 60.4041 90.0304 60.3784 89.9529 60.4026C89.7953 60.4509 89.6493 60.5853 89.5018 60.6302C89.385 60.6659 89.2607 60.6483 89.1459 60.6875C88.7804 60.8144 88.4456 61.2605 88.0781 61.0007C87.9049 60.5204 87.8767 59.9158 87.6748 59.4894C87.5716 59.2719 87.3692 59.2049 87.2952 58.9769C87.2852 58.7931 87.4689 58.8435 87.4845 58.6914C87.4241 58.3833 87.182 58.2393 87.034 57.9781C86.9615 57.8507 86.9277 57.6689 86.8442 57.5224C86.5612 57.0276 86.0034 56.7708 85.8947 56.1536C85.8655 55.986 85.8997 55.854 85.8715 55.7257C85.8247 55.5147 85.7064 55.2932 85.5866 55.1276C85.496 55.0007 85.3107 54.9146 85.207 54.7279C85.138 54.605 85.1229 54.4313 85.0645 54.3004C84.8284 53.7713 84.4871 53.3041 84.1155 52.9316C83.9222 52.9653 83.7143 52.9814 83.6176 53.132C83.7138 53.505 83.8618 53.8171 84.0209 54.1298C84.1659 54.4142 84.3718 54.7208 84.4715 55.042C84.5087 55.1608 84.5022 55.3159 84.543 55.4407C84.692 55.8928 85.1612 56.0318 85.2548 56.5533C85.3177 56.9027 85.2412 57.1444 85.3263 57.4937C85.4079 57.829 85.8202 58.0274 85.9908 58.3491C86.1298 58.6119 86.1308 58.9834 86.228 59.2331C86.3699 59.5991 86.7671 59.7572 87.0586 60.0029C87.3199 60.2239 87.5072 60.5642 87.7227 60.8013C87.8495 60.9398 88.0242 60.9649 88.0549 61.1155C88.0952 61.3083 87.9875 61.3732 87.9598 61.5424C88.142 61.7704 88.3192 62.1918 88.6243 62.2271C88.7497 62.2417 88.9077 62.0896 89.0991 62.0554C89.1957 62.0388 89.3035 62.0735 89.3835 62.0554C89.5099 62.0282 89.6201 61.8928 89.7641 61.856C90.0063 61.7936 90.2872 61.8188 90.5943 61.7704C90.8842 61.7251 91.0841 61.4306 91.3061 61.5142C91.5498 61.8359 91.3751 62.2014 91.3061 62.512C91.282 62.6213 91.282 62.7345 91.2593 62.8261C91.1309 63.3336 90.7956 63.7097 90.6416 64.1658C90.5943 64.3057 90.6028 64.4769 90.5475 64.6214C90.3707 65.0785 90.0022 65.5296 89.7163 65.9047C89.5552 66.1156 89.4132 66.3064 89.242 66.4746C89.0719 66.6427 88.864 66.7343 88.6721 66.902C88.2926 67.2363 87.8969 67.715 87.6285 68.157C87.5248 68.3287 87.4755 68.5256 87.3672 68.6706C87.2127 68.878 86.9736 68.9802 86.8457 69.1841C86.7445 69.3446 86.677 69.6356 86.5607 69.9251C86.4303 70.2513 86.1575 70.4713 86.2053 70.9229C86.2229 71.0956 86.3518 71.2033 86.3951 71.3795C86.4686 71.6836 86.4122 71.9389 86.3709 72.2631C86.5053 72.6542 86.6015 73.0892 86.8457 73.3465C86.8749 73.9234 86.8059 74.4832 86.8457 74.9716C86.8709 75.2827 86.9715 75.5117 86.8693 75.7982C86.7792 76.0509 86.4349 76.4955 86.229 76.6535C86.0049 76.8272 85.6621 76.8725 85.422 77.082C85.2548 77.2275 85.1164 77.4822 84.9472 77.6529C84.6678 77.9328 84.2842 78.1951 84.2595 78.4795C84.2454 78.6431 84.3673 78.8908 84.4015 79.0489C84.4946 79.4703 84.5842 80.0754 84.4257 80.5315C84.2535 81.0249 83.3835 80.9227 83.2864 81.4437C83.2572 81.6023 83.3443 81.7287 83.3337 81.9004C83.3251 82.0459 83.1666 82.5699 83.0961 82.727C82.9914 82.9631 82.7527 83.0688 82.5982 83.2692C82.4038 83.5219 82.3057 83.8874 82.0998 84.1527C81.8199 84.5142 81.4418 84.8953 81.0793 85.2079C80.7642 85.4813 80.1983 85.7652 79.7034 85.807C79.4149 85.8317 79.1058 85.7255 78.8018 85.7788C78.6905 85.7975 78.5692 85.9208 78.4217 85.9495C78.3361 85.9661 78.2485 85.9314 78.1609 85.9495C78.0119 85.9797 77.8719 86.1222 77.7335 86.1207C77.4259 86.1167 77.0312 85.6756 77.0216 85.2371C77.0181 85.068 77.1419 84.9074 77.1404 84.7518C77.1379 84.5696 76.9521 84.3415 76.8076 84.0103C76.6692 83.6921 76.6148 83.3311 76.4759 83.0703C76.3284 82.7924 76.134 82.6606 76.0253 82.4426C75.8068 82.0041 75.7907 81.485 75.7167 80.9594C75.693 80.7883 75.5954 80.6025 75.5742 80.389C75.5486 80.1273 75.6004 79.8363 75.5511 79.6193C75.5128 79.4522 75.3588 79.2825 75.2656 79.0776C75.0985 78.7081 74.9807 78.2248 74.8387 77.9378C74.7048 77.6685 74.4355 77.3881 74.4113 77.0825C74.3952 76.8751 74.4329 76.4884 74.4586 76.284C74.4843 76.0837 74.6081 75.9251 74.6484 75.7141C74.6756 75.5737 74.6429 75.4126 74.6716 75.2575C74.7924 74.6051 75.3905 74.3674 75.3124 73.575C75.2792 73.2387 75.0814 73.0731 75.0512 72.691C75.0376 72.5123 75.1252 72.3557 75.1221 72.1775C75.1181 71.9368 74.9484 71.5794 74.8609 71.3508C74.6202 70.7215 74.4732 70.1466 74.1253 69.6689C73.936 69.4081 73.6878 69.2243 73.5323 68.9842C73.4049 68.7884 73.2493 68.4218 73.2473 68.2718C73.2448 68.1092 73.3515 68.0075 73.3898 67.8439C73.4397 67.634 73.4432 67.2358 73.5086 66.903C73.5388 66.7504 73.6758 66.3809 73.6516 66.1332C73.6274 65.8946 73.3319 65.438 73.0817 65.3635C72.7504 65.2648 72.4091 65.4908 71.9903 65.4491C71.6298 65.1747 71.6565 64.4568 71.1359 64.3657C70.4523 64.2453 69.753 64.5766 69.2848 64.8213C69.0144 64.9632 68.7396 65.1792 68.5019 65.1923C68.2764 65.2054 68.0549 65.0483 67.8379 65.0216C67.555 64.9864 67.1925 65.0191 66.9121 65.0785C66.6392 65.1369 66.393 65.371 66.1529 65.3917C65.6928 65.4335 65.2553 64.8938 64.9663 64.6219C64.7896 64.4568 64.6099 64.3209 64.4442 64.1663C64.267 63.9997 64.037 63.8985 63.8985 63.7389C63.7117 63.5214 63.7117 63.1433 63.6136 62.8548C63.4983 62.515 63.1464 62.2653 62.878 61.9426C62.6772 61.7015 62.2165 61.341 62.1662 61.0304C62.141 60.8718 62.2226 60.6891 62.2135 60.5169C62.2009 60.2672 62.0444 60.1252 62.0474 59.9465C62.0524 59.6958 62.2981 59.502 62.356 59.2905C62.3862 59.1823 62.3716 59.0297 62.4033 58.8918C62.4698 58.6023 62.6293 58.4311 62.5936 58.0078C62.579 57.8391 62.4587 57.6851 62.4511 57.4666C62.4461 57.3165 62.5332 57.233 62.5221 57.0955C62.504 56.8524 62.2412 56.8045 62.2135 56.5256C62.1858 56.2372 62.4431 55.9985 62.5936 55.6703C62.6611 55.5233 62.6983 55.2978 62.7597 55.1855C62.8926 54.9428 63.1096 54.8255 63.2108 54.5864C63.2853 54.4102 63.309 54.1484 63.377 54.0165C63.4645 53.8468 63.6382 53.7552 63.8044 53.5317C63.9393 53.3495 63.9942 53.1294 64.0888 53.0469C64.2081 52.9432 64.3863 52.918 64.5162 52.8475C64.9557 52.6069 65.2769 52.2973 65.4889 51.7918C65.4244 51.3332 65.5216 51.1394 65.6787 50.8227C65.8237 50.5297 65.9299 50.2498 66.1771 50.0811C66.4736 49.8798 66.7525 49.8606 66.9594 49.4831C67.0631 49.2938 67.2187 48.967 67.2207 48.7702C67.2232 48.4878 66.9796 48.1263 66.7696 48.0855C66.5552 48.0447 66.2254 48.2814 66.1051 48.0004C66.0668 47.9103 66.1197 47.7004 66.1051 47.6012C66.0774 47.4144 65.9445 47.283 65.9389 47.1451C65.9274 46.8773 66.1584 46.5989 66.2234 46.2898C66.312 45.8694 66.2264 45.5477 66.1992 45.0639C66.531 44.4351 67.2685 44.7472 68.003 44.8066C68.1133 44.8162 68.2397 44.7749 68.359 44.7784C68.7944 44.7905 69.1373 44.9486 69.2843 44.493C69.3397 44.3218 69.3885 43.6845 69.3558 43.5234C69.317 43.3326 69.0054 42.8377 68.8569 42.7254C68.6213 42.5452 68.2799 42.6237 68.145 42.298C68.2548 41.7347 68.7793 42.2039 69.094 42.0699C69.2546 42.0015 69.2365 41.6677 69.3794 41.6133C69.4766 41.5766 69.6004 41.7306 69.7354 41.7276C69.8501 41.7246 70.267 41.4734 70.3757 41.3848C70.5273 41.2614 70.5741 41.0062 70.7075 40.9005C70.7981 40.8295 70.9174 40.838 71.0161 40.7867C71.218 40.6825 71.4732 40.47 71.6092 40.2732C71.805 39.9908 71.8931 39.6409 72.1312 39.589C72.4494 39.519 73.1693 39.6645 73.2232 39.2462C73.274 38.848 72.9312 38.5348 73.057 38.1059C73.1562 37.7666 73.41 37.8265 73.7689 37.6211C73.9421 37.7686 73.8917 38.1905 73.9109 38.4482C74.1314 38.4502 74.5804 38.3697 74.6227 38.1346C74.6761 37.8406 74.3015 37.542 74.2195 37.3648C74.1309 37.1725 74.1117 36.8352 73.935 36.7949C73.5736 36.7114 73.2227 37.393 72.7721 37.393C72.4761 37.393 72.1619 37.1186 72.0839 36.8513C72.0396 36.6988 72.0799 36.5548 72.0597 36.3947C72.031 36.1616 71.9147 35.9195 71.9651 35.5968C72.1468 35.2227 72.5657 35.1618 72.8667 34.969C72.9805 34.896 73.0721 34.7409 73.1985 34.684C73.4115 34.5894 73.7256 34.6845 73.9345 34.5411C74.0664 34.4509 74.0292 34.2954 74.1243 34.1136C74.1837 33.9988 74.3287 33.9324 74.4088 33.8005C74.4646 33.7089 74.4712 33.5704 74.5276 33.4864C74.7335 33.1782 75.1101 33.0645 75.2631 32.7453C75.3306 32.6043 75.1463 32.5515 75.1921 32.3461C75.2686 32.1472 75.5647 32.2937 75.7373 32.2605C75.9734 32.2167 76.1914 31.8718 76.4492 31.8049C76.718 31.7349 77.0065 31.7772 77.2562 31.6624C77.4057 31.5929 77.5427 31.4303 77.6836 31.4051C77.7335 31.3966 77.8739 31.4374 77.9444 31.4338C78.035 31.4298 78.1322 31.3623 78.253 31.3483C78.4272 31.3271 78.6437 31.3996 78.8702 31.4051C79.2453 31.4152 79.6017 31.2697 79.9138 31.4338C80.077 31.5194 80.0588 31.7419 80.2693 31.8326C80.3755 31.8789 80.516 31.8144 80.673 31.8326C80.9056 31.8592 81.1483 32.0521 81.4559 32.0898C81.5656 32.1029 81.6789 32.0732 81.7876 32.0898C82.127 32.1397 82.4995 32.3541 82.8323 32.4885C83.1102 32.6018 83.6992 32.7423 83.7098 33.0589C83.7229 33.434 83.1973 33.5437 82.9743 33.5437C82.6007 33.5437 82.1063 33.282 81.7172 33.43C81.7227 34.0749 82.3022 34.5632 82.8323 34.4847C82.8786 34.1816 82.5327 34.3502 82.571 34.0572C82.8076 33.8428 83.091 34.2012 83.4253 34.1428C83.5557 34.1005 83.5341 33.8735 83.5673 33.7154C83.8492 33.5095 84.2031 33.2069 84.6351 33.4305C84.6562 33.3801 84.6884 33.3419 84.7302 33.3167C84.7584 33.0036 84.4453 32.8404 84.6114 32.5464C84.694 32.3441 85.1365 32.414 85.2045 32.5751C85.2387 32.7679 85.0947 32.7473 85.1093 32.917C85.1934 33.1445 85.3867 33.1803 85.4894 33.1737C85.7225 33.1586 85.7688 32.9079 85.9878 32.774C86.0764 32.7201 86.2063 32.7141 86.3196 32.6602C86.454 32.5963 86.5678 32.4664 86.6755 32.4322C86.7546 32.407 86.8739 32.4322 86.9841 32.4035C87.1241 32.3677 87.2726 32.2323 87.3874 32.2328C87.5303 32.2328 87.633 32.4317 87.8143 32.4609C87.9135 32.477 88.0257 32.3934 88.1702 32.3753C88.2865 32.3602 88.4068 32.3919 88.5025 32.3753C88.729 32.3355 88.8846 32.1925 89.0719 32.2041C89.2043 32.2127 89.4313 32.4271 89.5224 32.3184C89.676 32.1351 89.3175 31.9992 89.4283 31.8331C89.7918 31.8663 90.1789 31.8562 90.5434 31.9187C91.0856 32.0113 91.5961 32.334 92.0849 32.3461C92.0386 31.9499 91.661 32.0641 91.4919 31.89C91.4405 31.8366 91.2281 31.4192 91.2311 31.2909C91.2321 31.2264 91.4994 30.6782 91.5629 30.6067C91.7718 30.3706 92.458 30.3721 92.6543 30.6918C92.7888 30.9108 92.7439 31.2405 92.9388 31.234C93.1064 31.2284 93.1955 30.7331 93.3899 30.7205C93.5504 30.7104 93.632 31.0381 93.7931 31.0346C93.9899 31.0296 94.1264 30.5896 94.3866 30.578C94.5271 30.5715 94.5734 30.6646 94.7899 30.6918C94.9384 30.577 94.7406 30.426 94.8141 30.2639C95.0794 30.0323 95.685 30.2085 96.0238 30.0645C96.1185 29.9291 95.903 29.8334 96.0002 29.6935C96.2927 29.4478 96.784 29.4256 97.2819 29.3234C97.586 29.261 97.873 29.0068 98.1116 28.9806C98.3608 28.9539 98.5989 29.1563 98.8234 29.1518C98.9599 29.1487 99.119 29.0994 99.2509 29.038C99.3843 28.9751 99.4754 28.82 99.6073 28.7812C99.8152 28.7198 100.079 28.8104 100.319 28.7812C100.574 28.75 100.799 28.6312 100.983 28.6675C101.156 28.7007 101.294 28.9217 101.458 28.9524C101.958 29.046 102.474 28.8623 102.929 29.0093C103.011 29.036 103.093 29.1377 103.19 29.181C103.495 29.3149 103.703 29.2731 103.76 29.7222C104 29.8244 104.141 30.0887 104.424 30.1788C104.613 30.2382 104.804 30.1501 105.017 30.1501C105.298 30.1501 105.657 30.1632 105.895 30.207C106.031 30.2321 106.143 30.3525 106.275 30.3786C106.371 30.3973 106.498 30.3666 106.607 30.3786C106.756 30.3952 106.889 30.4688 107.01 30.4642C107.259 30.4547 107.448 30.1883 107.651 30.1501C107.76 30.1299 107.905 30.1969 108.007 30.207C108.406 30.2472 108.867 30.1445 109.193 30.2357C109.367 30.2845 109.665 30.5151 109.858 30.6913C109.997 30.8191 110.082 31.023 110.214 31.1187C110.339 31.2093 110.655 31.3724 110.784 31.3472C110.935 31.3186 110.942 31.1152 111.092 31.0341C111.563 30.9083 112.398 31.2143 112.777 31.0054C112.923 30.9239 112.894 30.7376 113.014 30.6344C113.726 30.5926 114.435 30.6696 115.102 30.6913C115.337 30.6993 115.579 30.6193 115.791 30.6631C116.025 30.7119 116.197 30.9948 116.431 31.0905C116.586 31.1539 116.861 31.1207 117.095 31.1761C117.252 31.2128 117.382 31.3266 117.498 31.3467C117.752 31.39 117.994 31.313 118.235 31.2899C118.779 31.237 119.478 31.2028 120.015 31.461C120.3 31.5985 120.42 31.8764 120.726 31.9166C121.164 31.975 121.844 31.8733 122.293 31.9166C122.4 31.9272 122.5 31.9806 122.577 31.9735C122.728 31.9604 122.819 31.8069 123.005 31.8029C123.239 31.7963 123.613 32.2429 123.954 32.1734C124.101 32.0541 123.836 31.8879 123.977 31.7742C124.111 31.6408 124.293 31.7727 124.499 31.7742C124.612 31.7757 124.749 31.7057 124.855 31.7173C125.116 31.7445 125.364 32.0259 125.686 32.116C125.942 32.188 126.293 32.2147 126.612 32.1734C126.839 32.1432 127.035 32.0511 127.252 32.0878C127.357 32.1054 127.45 32.1965 127.56 32.2308C127.661 32.2615 127.76 32.2318 127.845 32.259C127.924 32.2852 128.003 32.3743 128.083 32.4014C128.524 32.5535 129.111 32.628 129.578 32.8012C129.852 32.9029 130.133 33.1073 130.361 33.1143C130.474 33.1188 130.573 33.0559 130.717 33.0574C131.434 33.0635 132.277 33.4219 132.211 34.2269C131.373 34.4479 130.67 33.5327 129.791 33.7995C129.65 33.8418 129.495 34.0265 129.507 34.1982C129.54 34.6951 130.581 34.6533 130.669 35.1391C130.498 35.2927 130.312 35.1477 130.171 35.1678C129.957 35.198 129.597 35.4694 129.459 35.6239C129.298 35.8047 129.158 36.2673 128.984 36.3086C128.772 36.3585 128.449 36.0574 128.13 36.1374C128.013 36.1672 127.901 36.3418 127.798 36.3655C127.536 36.4254 127.203 36.1943 127.04 36.5649C127.126 36.8256 127.073 37.1881 127.253 37.3346C127.369 37.4298 127.514 37.3563 127.656 37.4202C127.823 37.4952 127.915 37.7394 128.059 37.8768C128.177 37.9886 128.303 37.9916 128.368 38.1331C128.383 38.343 128.299 38.3662 128.32 38.5036C128.358 38.7427 128.669 38.7971 128.676 38.9592C128.687 39.1651 128.48 39.1213 128.44 39.3302C128.425 39.4627 128.567 39.4979 128.582 39.6721C128.591 39.7889 128.503 39.9102 128.511 40.0431C128.521 40.2329 128.646 40.3598 128.629 40.5274C128.615 40.6714 128.511 40.7837 128.415 40.8416C127.961 40.4907 127.552 40.0079 127.062 39.5583C126.562 39.0977 125.768 38.5318 125.686 37.5627C125.684 37.4142 125.948 37.2979 125.994 37.0779C126.014 36.9878 125.965 36.8599 125.971 36.736C125.987 36.4013 126.217 36.0796 126.208 35.8807C126.197 35.6622 125.859 35.2569 125.686 35.196C125.548 35.2831 125.684 35.4558 125.662 35.5957C125.634 35.7679 125.461 35.9779 125.306 35.9945C124.857 36.0413 124.807 35.2997 124.096 35.5097C123.912 35.5645 123.653 35.8978 123.717 36.3081C123.737 36.4325 124.022 36.5664 124.001 36.7355C123.982 36.8997 123.355 36.948 123.218 36.9349C122.835 36.8981 122.638 36.5538 122.293 36.5639C122.124 36.5689 121.975 36.7345 121.842 36.7632C121.095 36.9273 119.986 36.3212 119.731 37.1051C119.694 37.2158 119.715 37.3608 119.683 37.4761C119.638 37.6412 119.528 37.7701 119.494 37.8753C119.465 37.9634 119.469 38.1366 119.422 38.274C119.379 38.3984 118.93 38.8852 119.327 39.0156C119.422 39.0458 119.466 38.9668 119.589 38.9869C119.793 39.0201 120.131 39.4133 120.371 39.4143C120.515 39.4153 120.713 39.221 120.822 39.215C121.042 39.2019 121.201 39.3725 121.368 39.4712C121.527 39.5654 121.772 39.7637 121.89 39.7562C122.114 39.7426 122.007 39.5558 122.222 39.4712C122.632 39.6172 122.825 40.1398 123.218 40.5546C123.361 40.7041 123.572 40.833 123.765 41.0394C123.872 41.1547 124.202 41.4633 124.216 41.6098C124.228 41.7457 124.123 41.8041 124.096 41.9234C124.058 42.0971 124.148 42.2245 124.049 42.3509C123.671 42.1827 123.585 41.7342 123.314 41.3531C123.213 41.2111 123.111 41.0424 122.958 40.8395C122.889 40.7484 122.637 40.4267 122.483 40.4977C122.184 40.6336 122.647 41.1774 122.721 41.2962C122.878 41.5474 123.088 41.8857 123.101 42.1515C123.11 42.3212 123.009 42.6303 123.006 42.9213C123.004 43.1176 123.047 43.2963 123.03 43.463C123.012 43.6301 122.913 43.8209 122.863 44.0052C122.807 44.2141 122.795 44.4638 122.745 44.6032C122.653 44.86 122.342 45.1626 122.127 45.1736C121.93 45.1837 121.846 44.9914 121.652 45.003C121.36 45.0196 121.306 45.3428 121.131 45.6011C121.146 45.882 121.219 45.9781 121.178 46.1714C121.114 46.4735 120.764 46.5264 120.775 46.8269C120.784 47.1053 121.094 47.1597 121.249 47.2835C121.461 47.4527 121.832 47.8293 122.033 48.1389C122.165 48.3418 122.355 48.7214 122.341 48.9368C122.323 49.2193 121.648 49.6114 121.368 49.5072C121.103 49.4086 121.194 49.104 121.131 48.8236C121.083 48.6076 120.942 48.5144 120.87 48.3387C120.833 48.2466 120.85 48.1006 120.798 47.9969C120.655 47.7069 120.405 47.865 120.11 47.6828C119.916 47.5634 119.973 47.3122 119.896 47.0837C119.795 46.7771 119.364 46.6321 119.019 46.7137C118.765 46.7726 118.686 47.0288 118.449 47.0837C118.101 46.836 118.52 46.2248 118.093 46.1714C117.766 46.1302 117.549 46.7358 117.357 46.913C117.228 47.0318 116.993 47.056 116.978 47.2261C116.95 47.5408 117.254 47.4769 117.499 47.5972C117.721 47.7064 117.747 48.009 117.95 48.0246C118.12 48.0382 118.232 47.8147 118.401 47.7965C118.692 47.7653 118.929 47.9234 119.112 48.0533C118.994 48.3987 118.355 48.6524 118.353 49.108C118.352 49.3723 118.608 49.4176 118.804 49.5928C118.97 49.7403 119.188 50.1572 119.421 50.4481C119.522 50.5735 119.685 50.6561 119.73 50.7336C119.84 50.9219 119.822 51.152 119.943 51.2758C119.963 51.4319 119.884 51.4701 119.896 51.6176C119.955 51.823 120.217 51.7843 120.276 51.9887C120.227 52.4805 120.398 52.9432 120.062 53.1289C119.908 54.011 119.733 54.7007 119.232 55.1815C118.781 55.6129 118.185 55.7403 117.641 55.9512C117.5 56.0061 117.388 56.1843 117.262 56.2362C116.947 56.365 116.384 56.2865 116.361 56.7497C116.348 56.9782 116.602 57.1157 116.622 57.3483C116.652 57.7052 116.386 58.0646 116.195 58.0898C116.057 58.1074 115.76 57.9927 115.743 57.6901C115.725 57.3503 116.094 57.2113 116.124 57.0059C116.174 56.6429 115.863 56.2895 115.507 56.3217C115.193 56.3499 114.48 57.1056 114.463 57.5194C114.45 57.828 114.972 58.4709 115.151 58.6597C115.817 59.3655 116.525 59.7884 116.408 61.5107C116.241 61.9472 115.816 62.0398 115.483 62.2804C115.229 62.4632 115.103 63.0305 114.676 63.0789C114.504 63.0084 114.604 62.6862 114.557 62.5372C114.492 62.3328 114.153 62.2326 113.94 62.0237C113.766 61.852 113.693 61.5822 113.561 61.4246C113.394 61.2282 113.146 61.187 112.943 61.054C112.816 60.9705 112.716 60.677 112.587 60.684C112.378 60.6941 112.451 60.9362 112.398 61.339C112.345 61.7357 112.105 62.0403 112.184 62.5085C112.218 62.6998 112.417 62.8548 112.516 63.0502C112.681 63.3734 112.704 63.75 112.872 63.9342C112.984 64.056 113.173 64.0827 113.299 64.1905C113.551 64.4064 113.994 64.8746 114.083 65.1319C114.186 65.4319 114.086 65.7859 114.154 66.1015C114.233 66.4665 114.63 66.7278 114.392 67.0993C114.165 67.049 113.967 66.8703 113.775 66.7283C113.449 66.4856 113.299 66.2767 113.086 65.8729C113.024 65.7546 112.932 65.6394 112.897 65.5311C112.814 65.2754 112.832 64.9859 112.755 64.6758C112.688 64.4084 112.43 63.9866 112.232 63.7625C112.065 63.5743 111.77 63.464 111.757 63.1926C111.74 62.81 111.865 62.3605 111.852 61.9094C111.849 61.8122 111.794 61.7141 111.781 61.5963C111.756 61.3773 111.8 61.1094 111.757 60.9116C111.718 60.7293 111.607 60.5652 111.543 60.3991C111.48 60.235 111.415 60.0703 111.354 59.8569C111.257 59.5271 111.15 58.8913 110.927 58.8591C110.688 58.8248 110.454 59.3947 110.143 59.4013L110.147 59.4053ZM73.8645 38.9909C73.851 39.1717 74.151 39.2698 74.3393 39.2472C74.4883 39.2301 74.5976 39.1067 74.7425 39.1047C75.0235 39.1017 75.2062 39.3554 75.3834 39.3615C75.7907 39.3751 76.1904 38.9094 76.6178 38.9617C76.8107 38.9854 76.9255 39.1495 77.0684 39.1334C77.2975 39.1072 77.4923 38.7901 77.662 38.6768C77.59 38.1965 77.6685 37.5627 78.0421 37.5365C78.2983 37.5184 78.6834 38.0636 78.7298 37.5365C78.7504 37.3074 78.5274 37.1051 78.3738 37.1086C78.2374 37.1121 78.0582 37.4333 77.9464 37.166C77.9469 36.9047 78.1911 36.9737 78.3265 36.9092C78.4272 36.8609 78.4987 36.729 78.6115 36.6812C79.1758 36.443 79.9581 36.9153 80.1776 36.3393C79.6767 35.8258 78.8244 36.5266 78.2555 36.4818C78.0129 36.4632 77.6927 36.2462 77.6152 35.9683C77.5905 35.8807 77.6111 35.7624 77.5915 35.5983C77.5698 35.416 77.4913 35.2257 77.4969 35.113C77.5205 34.5979 78.5878 34.5008 78.5878 33.8589C78.3844 33.6243 77.7868 33.6636 77.5915 33.9158C77.5215 34.0064 77.525 34.1902 77.4254 34.3724C77.2124 34.7621 76.5252 34.8079 76.3102 35.2846C76.2624 35.3903 76.1789 35.6798 76.2151 35.8545C76.2715 36.1249 76.7689 36.1979 76.785 36.4818C76.8127 36.9601 76.1768 36.9002 76.0963 37.3089C76.0605 37.4942 76.1703 37.7409 76.1441 37.9075C76.0953 38.2071 75.8546 38.12 75.5511 38.2781C75.396 38.3586 75.2455 38.6556 75.0763 38.6768C74.9198 38.6969 74.8246 38.5675 74.7204 38.5917C74.5648 38.6269 74.6167 38.8565 74.3881 38.9048C74.2059 38.9431 73.8872 38.709 73.8661 38.9904L73.8645 38.9909ZM82.2886 70.9808C82.2417 70.718 82.3419 70.4089 82.1456 70.268H82.0751C81.9029 70.7351 82.1461 71.5064 82.4784 71.5517C82.5725 71.3423 82.3283 71.2054 82.2886 70.9808ZM84.2107 73.6324C84.105 73.8695 83.9922 74.4409 84.258 74.5733C84.3678 74.3639 84.5057 73.7749 84.258 73.6324H84.2107ZM83.1429 68.073C83.0775 68.3373 83.1817 68.5467 83.0951 68.8145C83.1882 69.0255 83.4228 69.0673 83.7123 69.0421C83.8724 68.9575 83.8522 68.7959 83.9257 68.6142C84.0063 68.4168 84.1941 68.2084 84.1629 67.9592C84.0944 67.4099 83.2396 67.6803 83.1429 68.073ZM84.2812 49.398C84.2943 49.0919 84.184 48.8618 84.1624 48.4289C83.7244 48.1112 83.3971 48.7234 82.9526 48.6564C82.6792 48.6151 82.4834 48.233 82.1934 48.2864C82.0333 48.3151 81.9543 48.5633 81.7897 48.5995C81.4503 48.6745 81.2963 48.2733 80.9358 48.4289C80.4279 47.9637 80.2008 47.206 80.0815 46.3471C79.8046 45.9107 79.3822 46.2656 79.1798 46.5465C79.055 46.545 78.8994 46.4639 78.8717 46.6321C78.7781 47.1592 79.492 47.2156 79.4879 47.573C79.4854 47.8056 79.209 47.784 79.0847 47.943C78.9523 48.1122 79.0404 48.2627 78.8717 48.3705C78.4035 48.4384 78.2485 48.1308 78.2545 47.6294C78.0526 47.2609 77.7974 46.9926 77.6142 46.6885C77.5462 46.5762 77.445 46.401 77.4244 46.2319C77.4077 46.0985 77.4772 45.9293 77.448 45.7762C77.3967 45.5039 76.9748 45.299 76.712 45.149C76.4316 44.9884 76.0802 44.8363 75.8813 44.6355C75.7404 44.493 75.6739 44.2453 75.5496 44.1512C75.4433 44.0711 75.3114 44.0877 75.2168 44.0087C75.0869 43.8994 75.1085 43.7172 74.9323 43.6658C74.8432 43.6266 74.7053 43.7726 74.6479 43.8662C74.5321 44.4885 74.9535 44.5307 75.1458 44.8066C75.2782 44.9959 75.3442 45.2814 75.4786 45.4057C75.6221 45.5391 75.8164 45.5145 76.0006 45.6051C76.128 45.6675 76.2106 45.8578 76.3324 45.9469C76.5589 46.1125 76.9224 46.1412 76.9496 46.4599C76.8087 46.5752 76.4895 46.2923 76.3802 46.5747C76.352 46.76 76.5026 46.8551 76.499 47.0303C76.493 47.3112 76.2332 47.6188 76.0001 47.5725C75.977 47.4054 76.124 47.2684 76.1189 47.0872C76.1084 46.7242 75.5017 46.1709 75.1936 46.0043C75.0491 45.9258 74.8734 45.9217 74.7425 45.8326C74.5095 45.6751 74.1012 45.2874 73.9592 45.0634C73.7895 44.793 73.6445 44.2936 73.2715 44.3218C73.1195 44.3334 72.9936 44.501 72.8683 44.5786C72.7545 44.648 72.6286 44.713 72.5123 44.8061C72.3739 44.9164 72.2616 45.0276 72.1322 45.0342C71.8347 45.0493 71.5815 44.7684 71.3257 44.8348C71.2396 44.8575 71.1676 44.9501 71.0644 45.0634C71.0609 45.2295 71.1057 45.3363 71.0886 45.519C71.0111 45.6796 70.782 45.6695 70.6139 45.7762C70.3682 45.9318 70.1492 46.2515 69.9493 46.4891C69.8204 46.6417 69.7042 46.768 69.688 46.8883C69.6755 46.9825 69.7545 47.1612 69.7364 47.2881C69.7152 47.4255 69.5003 47.7105 69.3563 47.8293C69.2722 47.8982 69.1609 47.9078 69.0713 47.9717C68.8846 48.1052 68.8005 48.2783 68.6439 48.3136C68.2291 48.4067 67.4754 48.2134 67.4815 48.7415C67.485 49.0939 67.8812 49.0954 68.1224 49.0833C68.4581 49.0677 68.7431 49.1689 68.9289 49.112C69.0572 49.0733 69.1972 48.9001 69.3321 48.8271C69.4172 48.7813 69.5053 48.7803 69.5692 48.7415C69.7112 48.6559 69.7918 48.517 69.902 48.456C70.119 48.3372 70.5227 48.2446 70.7558 48.228C71.0755 48.2053 71.4103 48.2673 71.8236 48.228C71.9711 48.2144 72.1166 48.1006 72.2747 48.0855C72.533 48.0614 72.8728 48.2079 73.0812 48.1998C73.2257 48.1943 73.3868 48.0256 73.5559 48.0281C73.7473 48.0322 73.9486 48.1953 73.9834 48.3423C74.003 48.4258 73.9431 48.5587 73.9592 48.6846C73.9869 48.8915 74.1349 48.9776 74.1258 49.112C74.1133 49.2907 73.7432 49.5289 73.7936 49.7393C73.8263 49.8742 74.0921 50.0157 74.221 50.1098C74.3559 50.2085 74.5835 50.3454 74.7431 50.3661C74.8775 50.3842 74.9958 50.3213 75.1231 50.3379C75.3275 50.3646 75.6583 50.5136 75.7877 50.6228C76.0107 50.8116 75.9795 51.1137 76.2383 51.2209C76.3485 51.2667 76.5474 51.2411 76.6888 51.2788C77.0347 51.3684 77.2909 51.7128 77.5432 51.6775C77.9404 51.6222 77.7596 51.1721 77.8044 50.8509C77.9056 50.1229 79.0892 50.1562 79.3228 50.6505C79.496 50.7059 79.6475 50.6591 79.8449 50.7361C79.9587 50.7809 80.0437 50.9304 80.1535 50.9642C80.2361 50.9893 80.3564 50.9496 80.4621 50.9642C80.9172 51.0261 81.329 51.4329 81.7202 51.3629C81.9679 51.3191 82.1476 51.0392 82.3842 51.0211C82.8383 50.9873 83.1288 51.4273 83.6186 51.2204C83.9786 51.0684 83.8986 50.6198 84.0219 50.1657C84.1075 49.8496 84.2726 49.6346 84.2827 49.396L84.2812 49.398ZM85.8237 45.0075C85.5765 44.8303 85.2815 44.6762 84.9935 44.4653C84.8264 44.343 84.1911 44.1119 84.187 43.8672C84.182 43.5994 84.6598 43.5118 84.4715 43.0401C84.1468 42.9449 83.3745 43.0949 83.4278 43.5249C83.4586 43.7731 83.7032 43.6356 83.7596 43.8954C83.5275 43.9946 83.2446 44.2554 83.0004 44.2096C82.7099 44.1547 82.6349 43.7258 82.4789 43.468C82.2528 43.4766 82.1043 43.2052 81.838 43.2399C81.5591 43.2767 81.4106 43.7635 81.2681 44.0102C81.1926 44.1396 81.0723 44.2065 81.0305 44.3233C81.0058 44.3938 81.033 44.5061 81.0073 44.6083C80.9258 44.9249 80.6977 45.0412 80.7219 45.3211C80.744 45.5678 80.9675 45.6791 80.9837 45.8915C80.968 46.1105 80.6755 45.9968 80.6987 46.2626C81.1236 46.6834 81.1468 46.0637 81.3632 45.9771C81.5369 45.9071 81.8778 46.0345 82.0983 45.9771C82.2765 45.9303 82.4164 45.7264 82.6203 45.6353C82.7447 45.5789 82.8992 45.5291 83.0714 45.5205C83.8266 45.4832 84.3139 46.0733 84.9699 46.0909C85.1869 46.0969 85.5755 46.0828 85.8005 46.034C86.4434 45.8946 86.1499 45.2411 85.8242 45.008L85.8237 45.0075ZM90.7362 46.3185C90.7906 46.327 90.7624 46.2364 90.8077 46.2329C90.9633 46.1428 91.1989 46.3769 91.2815 46.1478C91.2835 45.81 90.9265 45.5583 90.5696 45.7204C90.4669 45.6353 90.4528 45.443 90.4276 45.2638C90.1588 45.0714 89.4928 44.6511 89.5018 44.2659C89.5094 43.9493 89.8497 43.7711 90.2373 43.7816C90.401 43.6326 90.2957 43.1745 90.1427 43.0688C89.529 42.9072 89.2023 43.0164 88.8136 43.3537C88.6273 43.5158 88.4194 43.6276 88.3152 43.7247C88.2195 43.8144 88.0912 44.058 88.1023 44.1804C88.1174 44.3566 88.3273 44.4603 88.4109 44.6939C88.4531 44.8142 88.4446 44.9647 88.4819 45.0649C88.5856 45.3398 88.8509 45.5175 89.0512 45.7486C89.1927 45.9122 89.5894 46.2661 89.597 46.4614C89.6045 46.624 89.4751 46.6603 89.4313 46.8325C89.3865 47.0011 89.3352 47.3988 89.3603 47.5453C89.4122 47.8585 89.682 47.8695 89.9287 48.0019C90.1739 48.1328 90.41 48.3649 90.6648 48.372C90.9361 48.3805 91.2251 48.2763 91.3766 48.087C91.4949 47.0983 90.854 47.0243 90.7357 46.3195L90.7362 46.3185ZM92.8481 43.6669C92.4701 43.7806 92.8708 44.4688 93.1336 44.4084C93.5182 44.3188 93.1376 43.5803 92.8481 43.6669ZM94.0821 32.2625C93.9955 32.1628 93.7045 32.1241 93.5847 31.8925C93.4392 31.6141 93.4593 31.2415 93.1094 31.3226C93.1059 31.3558 93.1135 31.4031 93.0853 31.4077C93.0525 32.0309 93.8082 32.188 93.7971 32.6904C93.7916 32.9542 93.56 32.9819 93.6315 33.2895C94.1893 33.4456 94.4511 32.6884 94.0821 32.2625ZM98.6618 43.2394C98.5727 43.024 98.316 43.3029 98.4252 43.4967C98.5858 43.5088 98.6432 43.397 98.6618 43.2394ZM103.645 29.7821C103.384 29.7821 103.285 29.9059 103.123 30.0101C103.034 30.067 102.852 30.0987 102.909 30.2664C103.137 30.2331 103.59 30.1098 103.645 29.7821ZM109.625 38.706C109.351 38.7629 109.549 39.1052 109.53 39.3051C109.503 39.588 109.253 39.7848 109.269 40.0748C109.178 40.2027 109.022 40.2536 109.008 40.4736C109.159 40.5989 109.225 40.3749 109.34 40.2455C109.521 40.0411 109.799 39.9198 109.862 39.6751C109.956 39.3121 109.809 38.9456 109.625 38.706ZM86.1565 32.2343C86.2415 31.9468 85.7552 31.897 85.8237 32.2056C85.872 32.3128 86.0799 32.3199 86.1565 32.2343ZM82.9058 49.2555C82.9979 49.5284 83.4218 49.3708 83.451 49.1417C83.3634 48.9333 82.9169 49.0199 82.9058 49.2555ZM74.7667 47.716C74.9404 48.0578 75.3029 48.1731 75.692 48.2577C75.832 48.1318 75.8421 47.8489 75.906 47.6304C75.5647 47.6385 75.0144 47.4759 74.7667 47.716ZM73.0344 46.2047C73.0404 46.5229 73.0626 46.7267 73.0102 47.0031C73.1633 47.3545 73.5021 47.0389 73.5801 46.8033C73.7024 46.0119 73.3601 45.7959 73.0344 46.2047ZM73.343 45.7204C73.4522 45.6418 73.5358 45.5336 73.5091 45.2924C73.2685 44.9793 73.0304 45.6539 73.343 45.7204ZM68.4073 38.9622C68.4949 39.0196 68.6142 38.9955 68.6922 39.0478C68.8277 39.1394 68.9334 39.3418 68.9062 39.5044C68.8659 39.7385 68.6112 39.6726 68.4788 39.8463C68.5014 40.178 68.2865 40.2238 68.2175 40.4454C68.2588 40.5858 68.4365 40.5622 68.4546 40.7308C68.4284 40.912 68.1586 40.9382 68.2175 41.1295C68.4717 41.3677 68.7365 41.0807 68.9767 41.0439C69.5078 40.9639 70.0515 41.123 70.3772 40.8154C70.3329 40.5108 70.6421 40.4036 70.6149 40.1312C70.5937 39.9263 70.3123 39.9022 70.1874 39.7607C70.121 39.6852 70.1029 39.5095 70.0213 39.362C69.9277 39.1928 69.7454 39.0705 69.6412 38.9053C69.5018 38.6828 69.2133 38.3616 69.2143 38.1925C69.2158 37.9982 69.4157 37.9453 69.4514 37.679C69.4101 37.4343 69.03 37.5964 69.0008 37.3371C69.0165 37.176 69.1423 37.1463 69.1433 36.9666C69.1156 36.9429 69.0789 36.9294 69.0245 36.9384C68.9027 37.1287 68.6862 37.0497 68.4788 37.1378C68.3116 37.2083 68 37.5561 67.9567 37.6795C67.8852 37.8824 67.9738 38.1084 67.9567 38.421C68.0921 38.4915 68.1757 38.8092 68.4073 38.9622ZM67.3158 40.3311C67.4503 40.2827 67.6471 40.2908 67.7196 40.1604C67.8022 40.0099 67.7287 39.7506 67.7906 39.5326C67.8596 39.293 68.0514 39.2618 68.0277 39.0478C67.997 38.7649 67.4432 38.5872 67.1266 38.8198C66.9458 38.9522 66.8864 39.1556 66.7465 39.2195C66.5541 39.3066 66.4192 39.2326 66.3905 39.4481C66.3674 39.6237 66.5134 39.7108 66.5093 39.8755C66.4394 40.0849 66.2355 40.1352 66.2007 40.388C66.4409 40.8597 67.0173 40.4383 67.3158 40.3311ZM50.9194 32.633C50.7472 32.3003 50.1799 32.628 50.2312 32.8903C50.2951 33.2175 50.9692 32.8868 50.9194 32.633ZM46.5294 35.0284C46.4363 35.0958 46.4257 35.2026 46.4343 35.2559C46.4851 35.559 46.9614 35.2992 46.9569 35.1422C46.9523 34.9881 46.6563 34.9347 46.5294 35.0284ZM58.7262 71.6645C58.774 72.7006 58.112 73.0333 57.7299 73.718C57.6499 73.8615 57.6056 74.088 57.4928 74.2884C57.2652 74.6906 57.0115 74.7747 57.0422 75.5143C57.0508 75.7172 57.1369 75.9155 57.1369 76.1416C57.1369 76.4174 57.1172 76.7779 57.0654 77.0256C57.0266 77.2144 56.8962 77.3674 56.8756 77.5391C56.8544 77.7128 56.9184 77.8472 56.8997 77.9952C56.8791 78.1598 56.7427 78.3914 56.6385 78.622C56.4195 79.1083 56.3711 79.6807 55.9266 79.876C55.6653 79.9913 55.3114 79.9269 55.0254 80.0472C54.9097 80.0961 54.7637 80.2244 54.6217 80.3035C54.2089 80.5345 53.6204 80.8462 53.5066 81.3582C53.4054 81.8148 53.648 82.1783 53.5776 82.6988C53.5041 82.8539 53.4044 83.0084 53.2931 83.1831C53.1909 83.3452 53.1396 83.5355 53.0318 83.6966C52.8894 83.9111 52.6673 84.0062 52.5813 84.2957C52.5521 84.3939 52.5702 84.5102 52.5339 84.6657C52.5203 84.7231 52.4327 84.8122 52.3915 84.922C52.3532 85.0232 52.3547 85.1531 52.32 85.2366C52.2117 85.4994 51.889 86.098 51.6554 86.1776C51.1626 86.3432 50.6435 85.9264 50.3032 86.0054C50.352 86.2913 50.5252 86.2616 50.636 86.462C50.7004 86.5798 50.7362 86.7364 50.8253 86.8612C50.932 87.0092 51.0256 87.0641 51.0392 87.2318C51.0664 87.5832 50.8384 87.9366 50.6833 88.0589C50.5413 88.1707 50.2463 88.2361 49.9951 88.2865C49.8194 88.3217 49.3663 88.3237 49.2832 88.4586C49.1609 88.6565 49.3482 89.1458 49.2601 89.3422C49.0829 89.759 48.6056 89.3306 48.3584 89.456C48.3373 89.6709 48.4032 89.8964 48.5482 89.9971C48.6977 90.1024 48.9238 89.9654 49.023 90.1688C48.9746 90.4527 48.7204 90.489 48.667 90.7679C48.6736 91.0403 48.7431 91.1112 48.7144 91.2804C48.6524 91.6469 48.1787 91.6318 48.1923 92.022C48.2129 92.6059 49.1247 92.3668 49.1413 92.9347C49.1508 93.2791 48.88 93.2826 48.7853 93.6179C48.7345 93.7976 48.8145 93.8394 48.7853 93.9884C48.7456 94.1908 48.5482 94.2492 48.5482 94.4732C48.5477 94.7461 48.8805 95.0461 49.0461 95.2716C49.2087 95.4927 49.4172 95.8078 49.6392 95.9563C49.9724 96.1773 50.4683 96.1275 50.6123 96.5262C50.5665 96.7664 50.3742 96.8303 50.1849 96.8962H49.4494C49.1317 96.7205 48.7466 96.6068 48.3579 96.4406C48.2175 96.3807 48.0594 96.2382 47.9073 96.1562C47.7931 96.0933 47.6642 96.0691 47.5751 96.0127C47.3707 95.8838 47.1406 95.466 46.9342 95.3003C46.8088 95.1991 46.6125 95.1458 46.531 95.0426C46.4529 94.9454 46.4106 94.7345 46.3412 94.6157C46.2646 94.4848 46.1237 94.3891 46.0325 94.2446C45.8357 93.93 45.584 93.5066 45.582 93.275C45.58 93.047 45.7632 92.8919 45.7008 92.6774C45.6429 92.4751 45.2784 92.5189 45.226 92.2772C45.1943 92.1317 45.3308 91.886 45.3207 91.6796C45.3152 91.5598 45.1284 91.3962 45.2024 91.2225C45.2875 91.0232 45.4481 91.2391 45.582 91.1374C45.4813 90.7256 45.59 90.0631 45.2497 89.9392C45.0745 90.1165 45.4284 90.5147 45.1309 90.6239C44.8439 90.4704 44.9104 90.0163 44.846 89.683C44.8042 89.4625 44.713 89.2646 44.704 89.027C44.6995 88.9022 44.7448 88.7577 44.7276 88.6288C44.6773 88.2447 44.3214 87.9295 44.3002 87.5444C44.2907 87.3586 44.3949 87.2016 44.419 87.0027C44.4356 86.8683 44.4034 86.7172 44.419 86.5753C44.4402 86.394 44.5232 86.2274 44.5378 86.0618C44.566 85.7486 44.5373 85.2115 44.4905 84.9492C44.4321 84.6199 44.2141 84.34 44.1819 83.9811C44.1703 83.8507 44.2182 83.6342 44.2061 83.4676C44.1945 83.313 44.124 83.1595 44.1114 82.9823C44.0994 82.8196 44.1452 82.6646 44.1588 82.4688C44.1839 82.1108 44.1009 81.7121 44.1114 81.3567C44.1145 81.2524 44.1598 81.1744 44.1588 81.0722C44.1557 80.7777 44.0742 80.4812 44.0636 80.1882C44.045 79.6465 44.1134 79.2629 44.0404 78.7624C43.9851 78.3834 43.9171 77.8034 43.8028 77.5658C43.676 77.3 43.1765 76.8494 42.9248 76.6807C42.7587 76.57 42.5598 76.5317 42.3791 76.4245C41.9925 76.1974 41.2434 75.7156 41.0742 75.256C41.0254 75.1226 41.0314 74.9469 40.9791 74.7994C40.8758 74.5069 40.6584 74.2542 40.5043 73.9722C40.2113 73.4341 39.9747 72.76 39.6736 72.2047C39.5216 71.9227 39.3897 71.6026 39.2231 71.378C39.1254 71.2456 38.8128 71.1218 38.7725 70.9214C38.7191 70.6581 38.557 70.2956 38.5827 70.0948C38.6169 69.8219 39.0579 69.6014 39.0574 69.3537C39.0569 69.1423 38.8218 69.0189 38.7725 68.8407C38.6527 68.4042 38.8425 68.1485 38.9859 67.785C39.0333 67.6662 39.0796 67.4744 39.1284 67.3863C39.2155 67.2292 39.3922 67.1854 39.5075 67.0152C39.5719 66.9201 39.6132 66.7222 39.6973 66.5878C39.878 66.2999 40.169 66.1921 40.2435 65.9319C40.3039 65.7199 40.3392 64.6612 40.2667 64.3068C40.2254 64.1019 40.0668 63.9312 40.0059 63.7364C39.8987 63.392 39.8735 63.0164 39.5785 63.0235C39.3962 63.0275 39.2684 63.2697 39.1511 63.4222C39.1229 63.6251 39.138 63.8446 38.9613 63.9065C38.6914 64.0022 38.5877 63.5652 38.2731 63.4504C38.1477 63.4046 37.9484 63.4071 37.8698 63.3648C37.6403 63.241 37.5657 62.8372 37.3241 62.6802C37.1217 62.5498 36.948 62.5951 36.8257 62.3952C36.7749 62.2578 36.8146 62.0091 36.8025 61.8248C36.5423 61.6421 36.3218 60.9604 36.0192 60.7988C35.8188 60.6916 35.5112 60.7016 35.26 60.5994C35.1422 60.5511 35.0511 60.4892 34.9272 60.457C34.7752 60.4157 34.6186 60.4137 34.5008 60.3422C34.0311 60.0623 33.7774 59.1541 33.1959 59.1737C32.9477 59.1818 32.7086 59.4602 32.4841 59.4587C32.2605 59.4571 31.886 59.2442 31.6056 59.0881C31.3141 58.9255 30.9919 58.8369 30.7517 58.6894C30.5574 58.5701 30.423 58.3516 30.2533 58.261C30.1234 58.192 29.9336 58.1799 29.8269 58.1195C29.6754 58.0329 29.5173 57.8487 29.3285 57.6911C29.1493 57.5421 28.956 57.3145 28.9484 57.1217C28.9404 56.8987 29.1191 56.7084 29.1382 56.4939C29.1991 55.8148 28.7828 55.3265 28.521 54.9257C28.3272 54.6277 28.0991 54.375 27.9043 54.0991C27.9149 53.9163 27.9149 53.8831 27.9043 53.7003C27.7568 53.5282 27.6329 53.2734 27.4769 53.0157C27.3359 52.7831 27.0615 52.5354 27.0263 52.2746C26.9825 51.9544 27.1275 51.673 27.0263 51.3619C26.8571 50.8459 26.2611 51.079 26.3376 51.7616C26.3592 51.9494 26.5797 52.2026 26.6462 52.3889C26.7147 52.5787 26.7011 52.8158 26.765 53.0449C26.8264 53.2644 27.0102 53.4537 27.0736 53.7009C27.1743 54.091 27.1713 54.5114 27.2634 54.7556C27.345 54.972 27.645 55.1774 27.4769 55.4397C27.2523 55.4956 27.1658 55.2258 27.0263 55.0687C26.9483 54.9816 26.6663 54.816 26.623 54.6131C26.5868 54.4449 26.7117 54.2194 26.6704 54.014C26.5888 53.6117 25.9127 53.6017 25.9107 53.1873C25.9097 52.9276 26.1936 52.8964 26.1961 52.6451C26.1981 52.3703 25.884 52.1377 25.816 51.9046C25.7541 51.6906 25.744 51.3503 25.7214 51.0493C25.6992 50.7668 25.7279 50.4401 25.6736 50.2221C25.6252 50.0263 25.3801 49.7569 25.223 49.6517C25.0151 49.5128 24.8504 49.5701 24.7482 49.3668C24.6596 49.189 24.6012 48.8175 24.5821 48.6257C24.5479 48.2829 24.5746 47.9078 24.5579 47.5418C24.5423 47.1753 24.5111 46.8239 24.5579 46.4302C24.6753 46.1543 24.8892 46.0184 25.009 45.7455C25.0921 45.5552 25.1042 45.3206 25.1983 45.1183C25.372 44.7457 25.7506 44.4019 26.0053 44.0349C26.2797 43.6392 26.5329 43.2606 26.6935 42.8085C26.7509 42.6479 26.9055 42.2925 26.8833 42.0956C26.8521 41.8213 26.4222 41.5952 26.4559 41.269C26.4775 41.0666 26.7172 41.0696 26.7887 40.8698C26.8254 40.7671 26.8582 40.4796 26.8602 40.3563C26.8637 40.0814 26.7429 39.7949 26.7887 39.5009C26.8274 39.2502 27.1381 39.1485 26.979 38.8736C26.8209 38.6013 26.5365 39.0201 26.3618 38.8449C26.2012 38.6828 26.394 38.487 26.4091 38.189C26.4151 38.0701 26.3517 37.9347 26.3618 37.8471C26.3764 37.7197 26.5828 37.5053 26.5279 37.4192C26.3995 37.2244 26.2555 36.729 25.9817 36.5639C25.6338 36.3539 25.2567 36.4954 24.7719 36.3927C24.4744 36.3298 24.3339 35.996 24.06 36.0227C23.8909 36.0383 23.7937 36.2709 23.5616 36.3927C23.3316 36.5135 23.0305 36.4727 22.8025 36.5352C22.5759 36.5981 22.4672 36.7859 22.2326 36.7632C22.0372 36.7456 22.0362 36.5337 21.8062 36.507C21.7166 36.4964 21.5459 36.5739 21.4029 36.5926C21.0364 36.6384 20.3739 36.661 20.0023 36.5639C19.6625 36.4753 19.4531 36.3459 19.077 36.1359C18.7946 35.9789 18.271 35.785 18.2937 35.5369C18.3083 35.3768 18.7901 35.2076 18.9819 35.1381C19.291 35.0249 19.4818 34.8421 19.7179 34.824C19.809 34.8174 19.9288 34.8919 20.0497 34.8819C20.1715 34.8713 20.321 34.7364 20.4771 34.7107C20.8084 34.6553 21.2755 34.7308 21.2363 34.3397C20.9846 34.1005 19.958 34.5169 19.9314 33.9978C19.9153 33.6842 20.321 33.5891 20.6201 33.5135C20.8919 33.4446 21.3047 33.3278 21.5454 33.3424C21.8162 33.359 22.1727 33.723 22.3287 33.3142C22.4042 33.0237 22.2366 32.7795 22.1863 32.5439C22.3876 32.2096 22.7587 32.2514 23.0406 32.2021C23.3628 32.1452 23.6261 32.0762 23.9422 31.9166C24.2196 31.7767 24.5147 31.683 24.8434 31.6312C25.1656 31.5808 25.4787 31.4348 25.7692 31.4031C26.0083 31.377 26.2278 31.4001 26.4569 31.3462C26.6603 31.2989 26.8748 31.1635 27.0983 31.1756C27.2478 31.1836 27.3752 31.3145 27.5247 31.3462C27.6657 31.3759 27.8268 31.3377 27.9758 31.3749C28.0901 31.4036 28.1933 31.4968 28.3075 31.5174C28.4873 31.5496 28.6801 31.4872 28.8533 31.5174C29.0129 31.5446 29.1483 31.6644 29.3038 31.6881C29.6693 31.745 30.0877 31.6649 30.4431 31.7455C30.578 31.7757 30.6994 31.8557 30.8464 31.8879C30.9853 31.9181 31.1384 31.8834 31.2738 31.9161C31.4626 31.9614 31.6202 32.1759 31.8195 32.2016C32.187 32.2474 32.5988 32.0098 32.982 31.973C33.2593 31.9468 33.5453 31.9866 33.8363 31.9161C34.1011 31.8517 34.3578 31.7289 34.5955 31.7168C34.7249 31.7102 34.8336 31.7641 34.9514 31.7455C35.0742 31.7253 35.2217 31.5481 35.3547 31.5743C35.5314 31.608 35.5001 31.8769 35.6874 31.9453C35.8943 31.8165 36.1002 31.9539 36.3278 31.9453C36.5498 31.9358 36.7477 31.8134 36.9923 31.8597C37.4243 31.9413 38.0279 32.4498 38.3682 32.1734C38.4538 32.1039 38.4337 31.9836 38.5107 31.8029C38.6159 31.5572 38.8223 31.2687 38.772 30.9188C38.2962 30.9279 37.8421 31.2073 37.3004 31.2325C36.7532 30.8207 37.4469 30.5649 37.8462 30.3771C38.1754 30.2216 38.4362 29.8767 38.8435 29.8067C39.1752 29.7493 39.5402 29.8948 39.9344 29.9492C40.1645 29.9809 40.3946 29.9296 40.5275 29.9774C40.7606 30.062 40.8804 30.3389 41.0732 30.4053C41.1563 30.434 41.2932 30.431 41.405 30.4627C41.6184 30.5216 41.8092 30.657 42.0222 30.4627C42.1893 30.4984 42.2094 30.7124 42.3781 30.7477C42.5357 30.6455 42.6575 30.3852 42.9002 30.3202C43.0059 30.2915 43.1166 30.3414 43.2324 30.3202C43.4258 30.283 43.6835 29.9683 43.8023 30.2623C43.754 30.4682 43.4952 30.4995 43.3512 30.6621C43.2239 30.8066 43.027 31.1388 43.0431 31.2894C43.0713 31.5612 43.4107 31.456 43.4222 31.8029C43.3719 32.0022 43.1791 31.9131 43.019 32.0022C42.873 32.0838 42.8181 32.2519 42.663 32.2872C42.2316 32.3848 41.8737 32.1568 41.5006 32.1734C41.483 32.3677 41.6854 32.481 41.7851 32.5434C42.1234 32.7574 42.3992 32.7277 42.8765 32.7146C43.1212 32.708 43.4021 32.8022 43.6125 32.629C43.7454 32.5198 43.7384 32.2786 43.8496 32.1447C43.9836 31.9841 44.2932 31.821 44.49 31.8592C44.5978 31.8809 44.7493 32.0349 44.7513 32.1447C44.7548 32.404 44.4462 32.3209 44.4427 32.6013C44.6436 32.7458 45.1737 32.4427 45.2019 32.2021C45.222 32.0264 45.0292 31.9247 45.0357 31.746C45.0473 31.4474 45.3851 31.4525 45.3444 31.1469C45.1812 30.9928 45.0111 31.1801 44.8454 31.1469C44.6124 31.1001 44.4024 30.7648 44.2997 30.5478C44.4029 30.3947 44.6184 30.4969 44.7745 30.5196C44.9487 30.2296 45.2739 30.1163 45.7234 30.063C45.8835 30.0444 46.0965 29.9678 46.1745 30.1486C46.2128 30.4189 45.8422 30.5805 45.9132 30.8901C46.2324 30.9858 46.3376 30.4682 46.6014 30.2623C46.7177 30.1717 46.8844 30.1113 47.052 30.0348C47.198 29.9678 47.3596 29.8022 47.4794 29.8067C47.6108 29.8108 47.634 29.9406 47.7644 30.0061C47.8812 30.065 48.0342 29.9658 48.073 30.1486C47.7981 30.721 46.7726 30.3917 46.5068 30.9752C46.5662 31.3664 46.3462 31.7389 46.531 32.0017C46.6629 32.189 46.9599 32.0616 47.0289 32.258C47.122 32.5208 46.7414 32.5208 46.8396 32.8284C47.0903 33.0091 47.3898 32.6562 47.6219 32.5152C47.8711 32.3632 48.1863 32.184 48.215 31.8305C48.0896 31.5411 47.6224 31.7651 47.5509 31.4605C47.5122 31.2949 47.6939 30.9239 47.7402 30.8614C47.9879 30.5282 48.8518 30.0534 49.4725 30.1199C49.5908 30.133 49.7102 30.219 49.8285 30.2341C50.2368 30.2845 50.7185 30.0222 51.0387 30.2341C51.2965 30.0534 51.6056 30.2588 51.964 30.2055C52.2404 30.4013 52.1644 30.8181 52.5813 31.0039C52.6945 31.0543 52.836 31.0185 52.9845 31.0608C53.0948 31.0925 53.2141 31.2481 53.3404 31.318C53.5202 31.4162 53.6581 31.3936 53.6964 31.5456C53.7341 31.6946 53.5655 31.7913 53.5776 31.9453C53.6803 32.0465 53.5942 32.1996 53.649 32.344C53.7512 32.6084 54.0095 32.5887 54.2652 32.7151C54.445 32.8037 54.8286 33.075 54.8115 33.2855C54.7999 33.4264 54.451 33.6741 54.3367 33.7421C54.2557 33.7894 53.8555 34.022 53.72 33.9983C53.496 33.9586 53.4084 33.4139 53.1028 33.4279C52.9699 33.4345 52.8446 33.5312 52.8415 33.7421C52.8365 34.1167 53.1904 34.1308 53.1975 34.455C53.207 34.8421 53.0213 34.8688 52.7469 35.1099C52.5505 35.0143 52.3849 34.8794 52.1297 34.8537C51.9781 35.0702 52.3789 35.1482 52.2485 35.4241C51.8674 35.5212 51.5769 35.2947 51.2285 35.1678C51.1198 35.1286 50.9627 35.1442 50.8726 35.0822C50.7377 34.9886 50.6984 34.7112 50.5871 34.5687C50.4588 34.4031 50.203 34.1685 49.9941 34.17C49.7011 34.171 49.2767 34.6085 49.0446 34.1982C49.2052 33.5453 49.9664 34.0301 50.4683 33.7995C50.6551 33.7139 50.7195 33.4763 50.8721 33.3716C51.1787 33.1616 51.6776 33.1319 51.6313 32.7161C51.6081 32.5067 51.3639 32.5092 51.228 32.4019C51.0423 32.2565 50.9003 31.7435 50.635 31.7183C50.498 31.7052 50.3999 31.8441 50.2549 31.8608C49.9483 31.8955 49.6064 31.7122 49.3296 31.8608C49.2007 31.9494 49.2878 32.0913 49.1871 32.26C49.1045 32.3984 48.9092 32.4372 48.8312 32.5736C48.74 32.7342 48.7587 32.9336 48.6414 33.0579C48.4465 33.2653 48.0342 33.2986 47.7875 33.3998C47.6773 33.4451 47.5383 33.6006 47.4316 33.6001C47.2358 33.5986 47.1517 33.2835 46.9332 33.3998C46.9141 33.7053 47.2015 33.8292 47.3838 33.9702C47.5811 34.1227 47.788 34.2747 47.8585 34.5405C47.6657 35.0329 47.3576 34.5144 47.052 34.5124C46.7152 34.5093 46.2239 35.2826 45.9369 34.6548C46.0084 34.3221 46.3135 34.2707 46.3875 33.942C46.0522 34.0104 45.7607 34.3492 45.367 34.4555C45.2014 34.4993 45.0403 34.4887 44.8923 34.5405C44.6083 34.6407 44.41 34.893 44.1099 35.0259C43.9926 35.0777 43.8522 35.0616 43.7298 35.1109C43.4434 35.2262 43.1 35.4321 42.8045 35.6244C42.5024 35.8208 42.1616 36.0277 41.9738 36.2235C41.8727 36.3288 41.6089 36.7028 41.6179 36.8216C41.63 36.9918 41.8958 37.0477 41.9024 37.2213C41.8963 37.3266 41.7483 37.5531 41.855 37.7057C41.9522 37.8446 42.1465 37.7323 42.3529 37.7625C42.7154 37.8164 42.9525 38.1764 43.2309 38.3616C43.4414 38.5011 43.7535 38.6677 43.9906 38.7035C44.3168 38.7528 44.6813 38.5892 44.7261 38.9028C44.7694 39.2044 44.4195 39.3126 44.3944 39.5019C44.5701 39.7803 44.2751 39.9137 44.2756 40.1579C44.2761 40.3557 44.4784 40.6523 44.6546 40.6704C44.8938 40.6951 45.2437 40.3875 45.3433 40.1C45.4611 39.7582 45.4108 39.2945 45.6278 39.0453C46.7333 39.0821 47.6687 38.4422 47.5972 37.0784C47.5902 36.944 47.5262 36.7703 47.5499 36.6218C47.5846 36.4013 47.8998 36.2165 47.858 35.9376C48.1676 35.8233 48.1545 35.2262 48.4752 35.1391C48.7436 35.0666 49.0476 35.3677 49.4005 35.3385C49.5158 35.3294 49.6648 35.2051 49.7806 35.2247C50.0127 35.2635 50.1522 35.6073 50.3264 35.7664C50.4804 35.9084 50.6425 35.8631 50.6823 36.0514C50.6365 36.371 50.4492 36.3791 50.4683 36.6786C50.486 36.9399 50.7115 37.1383 50.8243 37.164C50.9974 37.2027 51.2446 37.091 51.4173 36.9928C51.735 36.8121 52.0068 36.2678 52.2716 36.3368C52.4806 36.3917 52.6442 37.1901 52.6749 37.4776C52.7081 37.7857 52.6402 38.0213 52.6517 38.3047C52.6824 38.7855 53.1864 38.7367 53.4346 38.9889C53.5091 39.0654 53.5388 39.2603 53.6012 39.3599C53.7215 39.5528 53.867 39.5528 53.8857 39.7587C53.93 40.251 53.5141 40.2928 53.5529 40.8421C53.4673 41.055 53.2508 41.0424 53.2684 41.3264C53.2961 41.7764 53.8343 41.4316 53.9803 41.783C54.0593 41.9718 53.9672 42.1122 53.9088 42.3811C54.0926 42.6449 54.0916 43.0652 53.7669 43.0657C53.5695 43.0657 53.5151 42.811 53.3158 42.7521C53.205 42.7189 53.054 42.7254 52.9125 42.6952C52.7917 42.669 52.6477 42.6262 52.5334 42.6096C52.2404 42.5678 51.9238 42.67 51.7501 42.4672C52.032 42.0166 52.4076 41.572 52.7705 41.1839C52.8783 41.0681 53.1104 40.9891 53.055 40.7565C52.8531 40.5435 52.6049 40.7696 52.4146 40.899C52.2148 41.0344 51.9761 41.2292 51.7501 41.27C51.3574 41.34 50.8368 41.1315 50.5162 41.3838C50.4719 41.5992 50.8811 41.5157 50.8243 41.8404C50.6672 41.8711 50.5187 41.8862 50.3973 41.7548C50.2871 41.6355 50.35 41.4563 50.2785 41.3838C50.1567 41.2629 49.6996 41.2297 49.4952 41.27C49.246 41.3188 49.0255 41.498 48.9968 41.7543C49.2963 41.9229 49.7902 41.5806 49.8984 42.011C49.7343 42.366 49.3477 42.5613 49.4 43.0371C49.4207 43.2208 49.6019 43.466 49.7328 43.4937C49.8637 43.5209 49.9377 43.3648 50.0646 43.3789C50.1985 43.394 50.1683 43.5782 50.3259 43.5501C50.5544 43.4328 50.6808 43.0476 50.9426 43.0652C51.2567 43.5234 50.6591 43.7464 50.3259 43.8919C49.9458 44.0575 49.4524 44.1451 49.1629 44.2916C49.0114 44.3681 48.4375 45.0347 48.3564 44.5192C48.298 44.1476 48.6404 44.2549 48.7123 43.9488C48.3448 43.8632 48.0025 44.1391 47.6682 44.2916C47.1915 44.5086 46.3829 44.646 46.2677 45.2894C46.245 45.4183 46.3145 45.6595 46.2445 45.745C46.1876 45.814 45.8473 45.8266 45.6983 45.8875C45.4697 45.9817 45.2698 46.1835 45.1284 46.2293C45.0217 46.2646 44.8641 46.2545 44.7966 46.2867C44.6078 46.3743 44.5384 46.6814 44.3219 46.8848C44.2333 46.9684 44.0364 47.0288 43.9659 47.1129C43.8431 47.2599 43.827 47.6279 43.61 47.6828C43.4721 47.6974 43.3603 47.5584 43.2299 47.6541C43.2143 48.0176 43.3366 48.5124 43.2068 48.8799C42.9258 49.1548 42.6172 49.3502 42.2578 49.5928C42.0589 49.7272 41.8807 49.762 41.6406 49.9064C41.4704 50.0086 41.3143 50.2523 41.1185 50.3913C40.6654 50.7114 40.1182 51.091 40.1222 51.9026C40.1227 52.0783 40.1982 52.2676 40.2168 52.473C40.2284 52.5938 40.2048 52.7121 40.2168 52.844C40.245 53.142 40.4248 53.5216 40.2168 53.7275C39.8972 53.57 39.4909 53.5166 39.2679 53.2432C39.207 52.9613 39.3912 52.7297 39.363 52.4735C39.3404 52.2676 39.0992 51.9011 38.9593 51.8744C38.8148 51.8467 38.6819 52.0315 38.5323 52.0169C38.3551 52.0002 38.19 51.7067 37.9625 51.675C37.6287 51.6282 37.383 51.7666 37.0135 51.7037C36.6555 51.9333 36.5508 52.3426 36.1123 52.3018C35.9578 52.2882 35.8163 52.1467 35.6376 52.1024C35.4443 52.0541 35.1503 51.9721 34.9494 51.9887C34.5456 52.0209 34.2526 52.3703 33.9058 52.5867C33.5997 52.778 33.1662 53.0167 33.0751 53.4139C33.0253 53.6279 33.067 53.9284 33.0036 54.1268C32.9618 54.2571 32.8697 54.3729 32.8133 54.4968C32.5475 55.0808 32.327 55.8525 32.5289 56.6928C32.5586 56.8171 32.8229 57.5199 32.9321 57.6619C33.0544 57.8195 33.4144 58.0566 33.6203 58.0611C33.794 58.0651 33.9979 57.9554 34.166 57.9186C34.3614 57.8769 34.606 57.8733 34.7833 57.8049C35.2963 57.6075 35.1951 56.7738 35.7086 56.4934C35.9326 56.3716 36.1924 56.3469 36.5866 56.3227C36.7119 56.4496 36.7703 56.6711 36.7532 56.8644C36.7401 57.0099 36.6248 57.1418 36.5634 57.3493C36.5095 57.5315 36.498 57.7445 36.4446 57.8915C36.3736 58.0838 36.216 58.2242 36.1602 58.405C36.1229 58.5223 36.1435 58.6683 36.1128 58.775C36.0585 58.9628 35.849 59.0952 35.9462 59.2885C36.4542 59.5312 37.0689 59.219 37.5124 59.3172C37.6992 59.3585 38.0853 59.6268 38.0818 59.9732C38.0793 60.2324 37.9151 60.4026 37.892 60.686C37.8633 61.043 37.7394 61.48 37.7258 61.7689C37.7047 62.2417 38.3033 63.0582 38.7221 63.0517C39.1732 63.0446 39.4365 62.5125 39.9797 62.7954C40.16 62.8891 40.3508 63.2405 40.5496 63.2229C40.7137 63.2083 40.9619 62.8629 41.0717 62.6238C41.2051 62.3323 41.2147 62.0866 41.4508 61.9396C41.7055 61.781 41.9079 61.8575 42.2341 61.7115C42.3796 61.6466 42.506 61.5353 42.6374 61.4266C42.7527 61.3314 42.8735 61.0827 43.0175 61.2554C43.2068 61.483 42.7854 61.6109 42.9465 61.8545C43.2752 62.0639 43.4439 61.4649 43.6825 61.4558C43.7585 61.4528 44.0218 61.6335 44.1567 61.7412C44.342 61.8872 44.4049 62.0926 44.6073 62.14C44.7372 62.1707 44.9466 62.0801 45.1294 62.1113C45.3715 62.1531 45.516 62.4028 45.6993 62.3962C45.9228 62.3892 46.03 62.0967 46.2213 62.0544C46.6402 61.9622 46.7958 62.1108 46.9805 62.4254C47.1874 62.4687 47.1945 62.138 47.3838 62.2547C47.2801 62.5029 47.419 62.6177 47.5026 62.8251C47.5565 62.9586 47.5474 63.0527 47.5977 63.1106C47.711 63.24 47.9295 63.24 48.0956 63.3668C48.2708 63.4992 48.3695 63.7454 48.5704 64.0228C48.7773 64.3063 49.1247 64.6003 49.401 64.6209C49.6618 64.641 49.8738 64.5323 50.0897 64.564C50.5806 64.6365 50.8857 64.931 51.2285 65.2487C51.4203 65.4259 51.5935 65.5487 51.6554 65.7612C51.6987 65.9092 51.6776 66.1081 51.7269 66.2747C51.8316 66.6296 52.2626 66.8008 52.107 67.415C52.178 67.5947 52.3381 67.6596 52.5103 67.7855C52.6482 67.8872 52.7645 68.0986 52.9135 68.1278C53.0097 68.1465 53.1149 68.0931 53.198 68.0986C53.4678 68.1218 53.6531 68.2472 53.8867 68.3559C54.0317 68.4229 54.2174 68.4495 54.3141 68.5281C54.4344 68.6252 54.45 68.9535 54.5985 69.0401C54.6957 69.0965 54.9117 69.0184 55.0733 69.0401C55.328 69.0758 55.6739 69.2631 55.9039 69.2691C56.0434 69.2727 56.1592 69.1997 56.283 69.2117C56.8645 69.2656 57.1937 70.1008 57.7546 70.352C57.9283 70.4306 58.2041 70.3757 58.3235 70.4376C58.5339 70.5469 58.7111 71.3201 58.7267 71.663L58.7262 71.6645ZM43.2309 44.7502C43.4776 44.8862 44.1507 44.9843 44.2282 44.6078C44.1291 44.492 43.8069 44.5252 43.5869 44.5509C43.4318 44.57 43.247 44.6093 43.2309 44.7502ZM51.9399 33.4023C52.0567 33.4194 52.1226 33.3751 52.106 33.2316C52.0003 33.142 51.8467 33.2593 51.9399 33.4023ZM41.2851 43.5526C41.187 43.4136 40.6548 43.5692 40.5018 43.695C40.3971 43.7821 40.3256 43.9946 40.2174 44.1517C40.1056 44.3138 39.9802 44.4386 39.8856 44.5791C39.8 44.7059 39.3192 45.5386 39.6958 45.6338C39.8564 45.6741 40.1866 45.2738 40.2179 45.1203C40.3251 44.5977 40.5209 44.2247 40.8582 43.9795C41.0536 43.838 41.2539 43.8556 41.2856 43.5521L41.2851 43.5526ZM42.6615 45.2632C42.3242 45.1193 42.0126 45.3609 41.7362 45.4057C41.5716 45.4324 41.2715 45.3654 41.3088 45.662C41.3395 45.9036 41.6506 45.816 41.8309 45.7476C42.2059 45.6051 42.443 45.4827 42.6615 45.2632ZM41.7599 43.6095C41.7528 43.7801 41.8641 43.8073 41.855 43.98C41.6245 44.1778 41.7463 44.8404 41.9738 44.864C42.215 44.8892 42.3393 44.132 42.6615 44.0656C42.7783 44.0409 42.8382 44.1456 42.9933 44.1225C43.1796 43.9463 43.097 43.5858 42.8987 43.5234C42.8206 43.4987 42.7169 43.5923 42.59 43.5808C42.4556 43.5687 42.3217 43.4212 42.2105 43.4096C42.0212 43.39 41.8289 43.5027 41.7594 43.609L41.7599 43.6095ZM39.9329 42.5261C39.6822 42.6081 39.4441 42.6152 39.3867 42.8684C39.6112 43.315 40.0552 42.7707 40.383 42.8397C40.5491 42.8749 40.6463 43.1478 40.8104 43.1815C40.9222 43.2047 41.5726 43.1186 41.6174 43.096C42.0901 42.8538 41.5238 42.1087 41.3088 42.0407C40.9242 41.9199 40.3769 42.3801 39.9324 42.5256L39.9329 42.5261ZM38.6275 32.6043C39.069 33.0348 39.7376 32.4035 40.1942 32.8037C40.2732 32.7423 40.3946 32.6597 40.3362 32.5187C40.0744 32.3712 39.6314 32.4835 39.2452 32.4332C39.0257 32.0611 38.6592 32.0032 38.628 32.6048L38.6275 32.6043ZM38.3189 40.3593C38.5837 40.3477 38.7629 39.4073 38.3189 39.5321C38.0219 39.6157 37.9499 40.3754 38.3189 40.3593ZM36.3021 35.5404C36.1914 35.4336 36.0776 35.2897 35.9462 35.2841C35.774 35.2771 35.6915 35.4598 35.5188 35.5696C35.3184 35.6969 35.04 35.7282 35.0209 35.9401C35.3884 36.0267 35.7191 35.8344 35.9462 35.7407C36.0811 35.6844 36.2679 35.7136 36.3021 35.5404ZM34.7364 33.944C35.0637 34.0432 35.4584 33.7622 35.8274 33.6872C35.9789 33.656 36.1345 33.7381 36.2311 33.5734C36.1179 32.9457 35.3954 33.3293 34.9736 33.3741C34.8849 33.5528 34.7661 33.6948 34.7364 33.944ZM42.8518 62.3977C42.6797 62.4934 42.7693 62.8599 42.9465 62.8261C43.1343 62.7894 43.0794 62.2719 42.8518 62.3977ZM26.2651 39.4465C26.1448 39.1757 25.8241 39.3751 25.814 39.6459C25.8478 39.6998 25.887 39.7476 25.9328 39.7884C26.0778 39.7149 26.2153 39.6328 26.2656 39.4465H26.2651Z" fill="white"/>
<path d="M52.7538 63.1288C54.0743 64.5878 54.7353 66.5698 54.7353 69.0744C54.7353 71.2362 54.1342 73.1925 52.934 74.9425C51.7323 76.6929 49.9305 78.0915 47.5291 79.1381C45.1267 80.1842 42.2093 80.7078 38.7784 80.7078C35.8615 80.7078 33.0302 80.3474 30.2854 79.6269C27.5392 78.9065 25.309 77.9465 23.5938 76.7448L26.9396 69.229C28.5526 70.2932 30.4224 71.1511 32.5504 71.8025C34.6774 72.4545 36.7712 72.7807 38.8303 72.7807C42.7425 72.7807 44.6983 71.8025 44.6983 69.8467C44.6983 68.8166 44.1405 68.0534 43.0254 67.556C41.9098 67.0586 40.117 66.5351 37.6462 65.9863C34.9352 65.4033 32.6702 64.7766 30.8518 64.1075C29.0324 63.4379 27.4712 62.3661 26.1673 60.89C24.8629 59.4155 24.2115 57.4249 24.2115 54.9188C24.2115 52.7233 24.8111 50.7418 26.0128 48.9742C27.214 47.2071 29.0062 45.8086 31.392 44.7785C33.7763 43.7495 36.7022 43.2345 40.1684 43.2345C42.5361 43.2345 44.869 43.5003 47.1687 44.0319C49.4674 44.5646 51.4922 45.3444 53.2427 46.3744L50.1027 53.9411C46.6708 52.0879 43.3421 51.1616 40.1165 51.1616C38.0912 51.1616 36.6161 51.4627 35.6898 52.0623C34.7635 52.6629 34.2998 53.4442 34.2998 54.4043C34.2998 55.3643 34.8486 56.0862 35.9471 56.5665C37.0456 57.0468 38.8121 57.5442 41.2493 58.0592C43.994 58.6427 46.268 59.2685 48.0693 59.9375C49.8706 60.6071 51.4323 61.6709 52.7538 63.1288ZM69.5077 65.5222H85.516V57.9036H69.5077V51.8297H87.6782V43.9544H59.4188V79.9864H88.3473V72.1111H69.5077V65.5222ZM126.215 51.9193C124.609 49.0719 122.4 46.8411 119.586 45.2281C116.772 43.6151 113.601 42.8086 110.071 42.8086C106.541 42.8086 103.369 43.6151 100.556 45.2281C97.7414 46.8411 95.5314 49.0719 93.9259 51.9193C92.3204 54.7687 91.518 57.9761 91.518 61.545C91.518 65.1139 92.3204 68.3228 93.9259 71.1707C95.5319 74.0197 97.7414 76.2504 100.556 77.8624C103.369 79.4759 106.542 80.2819 110.071 80.2819C113.6 80.2819 116.772 79.4759 119.586 77.8624C122.4 76.2499 124.61 74.0192 126.215 71.1707C127.82 68.3228 128.624 65.1149 128.624 61.545C128.624 57.9751 127.82 54.7687 126.215 51.9193Z" fill="#C778FF"/>
<path opacity="0.3" d="M98.3733 46.707C96.5765 48.1217 95.0919 49.856 93.9289 51.9186C93.426 52.8112 93.0117 53.7426 92.6663 54.7051L92.0576 56.7647C91.7047 58.2795 91.5215 59.8709 91.5215 61.5443C91.5215 65.1142 92.3235 68.3221 93.9294 71.17C95.5349 74.019 97.745 76.2497 100.559 77.8617L110.074 61.5443L98.3738 46.707H98.3733Z" fill="black"/>
<path opacity="0.2" d="M98.373 46.7071L110.073 61.5444L110.82 42.808C110.82 42.808 104.188 42.0639 98.373 46.7071Z" fill="white"/>
<path d="M138.56 3.7799C138.56 4.13192 138.455 4.47604 138.26 4.76874C138.064 5.06144 137.786 5.28957 137.461 5.42428C137.136 5.559 136.778 5.59425 136.433 5.52557C136.087 5.4569 135.77 5.28738 135.521 5.03846C135.272 4.78954 135.103 4.47239 135.034 4.12713C134.966 3.78187 135.001 3.424 135.135 3.09877C135.27 2.77354 135.498 2.49556 135.791 2.29998C136.084 2.10441 136.428 2.00002 136.78 2.00002C137.014 1.99892 137.246 2.04422 137.462 2.13327C137.679 2.22233 137.875 2.3534 138.041 2.51889C138.206 2.68439 138.337 2.88103 138.427 3.09747C138.516 3.31391 138.561 3.54585 138.56 3.7799Z" fill="#FF5F57"/>
<path d="M144.22 3.7799C144.22 4.13227 144.115 4.47672 143.919 4.76959C143.723 5.06247 143.445 5.29059 143.119 5.42506C142.794 5.55953 142.435 5.59429 142.09 5.52494C141.744 5.45559 141.427 5.28525 141.179 5.0355C140.93 4.78575 140.761 4.46783 140.693 4.12203C140.626 3.77622 140.662 3.41809 140.798 3.09301C140.934 2.76793 141.163 2.49052 141.457 2.29595C141.751 2.10137 142.096 1.99838 142.448 2.00002C142.682 2.00002 142.913 2.04611 143.128 2.13566C143.344 2.22521 143.539 2.35645 143.704 2.52183C143.869 2.68722 143.999 2.8835 144.087 3.09939C144.176 3.31529 144.221 3.54655 144.22 3.7799Z" fill="#FEBC2E"/>
<path d="M150.001 3.7799C150.001 4.13192 149.897 4.47604 149.701 4.76874C149.506 5.06144 149.228 5.28957 148.902 5.42428C148.577 5.559 148.219 5.59425 147.874 5.52557C147.529 5.4569 147.212 5.28738 146.963 5.03846C146.714 4.78954 146.544 4.47239 146.476 4.12713C146.407 3.78187 146.442 3.424 146.577 3.09877C146.712 2.77354 146.94 2.49556 147.232 2.29998C147.525 2.10441 147.869 2.00002 148.221 2.00002C148.455 1.99892 148.687 2.04422 148.904 2.13327C149.12 2.22233 149.317 2.3534 149.482 2.51889C149.648 2.68439 149.779 2.88103 149.868 3.09747C149.957 3.31391 150.002 3.54585 150.001 3.7799Z" fill="#28C840"/>
</svg>
