<svg width="70" height="105" viewBox="0 0 70 105" fill="none" xmlns="http://www.w3.org/2000/svg">
<path d="M40.9219 7.05408C40.9219 3.18022 43.4672 0 46.6004 0C49.7336 0 52.2789 3.15082 52.2789 7.05408C52.2789 10.9573 49.7336 14.0729 46.6004 14.0729C43.4672 14.0729 40.9219 10.9279 40.9219 7.05408ZM42.0976 7.05408C42.0976 10.2754 44.1197 12.8972 46.6004 12.8972C49.0811 12.8972 51.1033 10.2754 51.1033 7.05408C51.1033 3.83272 49.087 1.17568 46.6004 1.17568C44.1138 1.17568 42.0976 3.83272 42.0976 7.05408Z" fill="#263238"/>
<path d="M29.7437 7.05408C29.7437 3.18022 32.289 0 35.4222 0C38.5554 0 41.1007 3.15082 41.1007 7.05408C41.1007 10.9573 38.5554 14.0729 35.4222 14.0729C32.289 14.0729 29.7437 10.9279 29.7437 7.05408ZM30.9193 7.05408C30.9193 10.2754 32.9356 12.8972 35.4222 12.8972C37.9088 12.8972 39.925 10.2754 39.925 7.05408C39.925 3.83272 37.9029 1.17568 35.4222 1.17568C32.9415 1.17568 30.9193 3.83272 30.9193 7.05408Z" fill="#263238"/>
<path d="M18.5654 7.05408C18.5654 3.18022 21.1167 0 24.2498 0C27.383 0 29.9284 3.15082 29.9284 7.05408C29.9284 10.9573 27.3772 14.0729 24.2498 14.0729C21.1225 14.0729 18.5654 10.9279 18.5654 7.05408ZM19.7411 7.05408C19.7411 10.2754 21.7633 12.8972 24.2498 12.8972C26.7364 12.8972 28.7527 10.2754 28.7527 7.05408C28.7527 3.83272 26.7305 1.17568 24.2498 1.17568C21.7692 1.17568 19.7411 3.83272 19.7411 7.05408Z" fill="#263238"/>
<path d="M7.38721 7.05408C7.38721 3.18022 9.93844 0 13.0716 0C16.2048 0 18.7502 3.15082 18.7502 7.05408C18.7502 10.9573 16.1989 14.0729 13.0716 14.0729C9.94431 14.0729 7.38721 10.9279 7.38721 7.05408ZM8.56289 7.05408C8.56289 10.2754 10.5851 12.8972 13.0716 12.8972C15.5582 12.8972 17.5745 10.2754 17.5745 7.05408C17.5745 3.83272 15.5523 1.17568 13.0716 1.17568C10.5909 1.17568 8.56289 3.83272 8.56289 7.05408Z" fill="#263238"/>
<path d="M52.0918 7.05408C52.0918 3.18022 54.6371 0 57.7703 0C60.9035 0 63.4547 3.15082 63.4547 7.05408C63.4547 10.9573 60.9035 14.0729 57.7703 14.0729C54.6371 14.0729 52.0918 10.9279 52.0918 7.05408ZM53.2675 7.05408C53.2675 10.2754 55.2896 12.8972 57.7703 12.8972C60.251 12.8972 62.2791 10.2754 62.2791 7.05408C62.2791 3.83272 60.2569 1.17568 57.7703 1.17568C55.2838 1.17568 53.2675 3.83272 53.2675 7.05408Z" fill="#263238"/>
<path d="M0 104.019L70 104.019L70 7.19002L0 7.19002L0 104.019Z" fill="#263238"/>
<path opacity="0.7" d="M0 104.019L70 104.019L70 7.19002L0 7.19002L0 104.019Z" fill="#FAF5FF"/>
<path d="M6.30753 104.019L70 104.019L70 7.19002L6.30753 7.19002L6.30753 104.019Z" fill="#FAF5FF"/>
<path opacity="0.2" d="M2.09663 104.017L1.80271 13.5254L1.50879 104.017H2.09663Z" fill="black"/>
<path opacity="0.2" d="M5.02729 104.019L4.73337 19.1646L4.43945 104.019H5.02729Z" fill="black"/>
<path opacity="0.2" d="M2.97412 7.25977L3.26804 75.2905L3.56196 7.25977H2.97412Z" fill="black"/>
<path d="M59.4686 11.7916C59.5289 12.105 59.6771 12.3948 59.896 12.6271C60.1148 12.8594 60.3953 13.0246 60.7045 13.1034C61.0138 13.1822 61.3391 13.1713 61.6424 13.0721C61.9457 12.9728 62.2145 12.7893 62.4174 12.543C62.6203 12.2966 62.7489 11.9976 62.7881 11.6809C62.8273 11.3642 62.7756 11.0428 62.639 10.7544C62.5023 10.466 62.2864 10.2224 62.0165 10.0522C61.7465 9.88193 61.4337 9.79202 61.1146 9.79298C60.6329 9.84353 60.1903 10.0814 59.8824 10.4553C59.5745 10.8292 59.4259 11.3092 59.4686 11.7916Z" fill="#263238"/>
<path d="M61.2186 12.3858C61.3025 12.385 61.3853 12.3662 61.4614 12.3307C61.5374 12.2952 61.605 12.2438 61.6595 12.18C62.8439 10.7365 63.4809 8.92123 63.4583 7.05408C63.4583 3.18022 60.9071 0 57.7739 0C55.4696 0 53.4062 1.70474 52.5245 4.33239C52.4998 4.40572 52.4898 4.4832 52.495 4.56041C52.5002 4.63761 52.5206 4.71304 52.555 4.78236C52.5894 4.85169 52.6371 4.91356 52.6954 4.96445C52.7537 5.01534 52.8215 5.05424 52.8948 5.07894C52.9682 5.10364 53.0456 5.11366 53.1228 5.10842C53.2 5.10318 53.2755 5.08278 53.3448 5.04839C53.4141 5.014 53.476 4.96629 53.5269 4.90799C53.5778 4.84969 53.6167 4.78194 53.6414 4.70861C54.3585 2.56299 55.9927 1.18156 57.7563 1.18156C60.2428 1.18156 62.265 3.80921 62.265 7.05997C62.2899 8.64451 61.7549 10.187 60.7542 11.4159C60.6793 11.5011 60.6307 11.6062 60.6142 11.7185C60.5978 11.8307 60.6141 11.9454 60.6614 12.0486C60.7086 12.1517 60.7847 12.239 60.8804 12.2999C60.9762 12.3608 61.0875 12.3927 61.201 12.3917L61.2186 12.3858Z" fill="#263238"/>
<g opacity="0.4">
<path d="M61.2201 12.3863C61.304 12.3854 61.3868 12.3666 61.4628 12.3312C61.5389 12.2957 61.6064 12.2443 61.661 12.1805C62.8454 10.737 63.4824 8.92172 63.4598 7.05457C63.4598 3.1807 60.9085 0.000488281 57.7754 0.000488281C55.471 0.000488281 53.4077 1.70523 52.5259 4.33288C52.5012 4.40621 52.4912 4.48369 52.4965 4.5609C52.5017 4.6381 52.5221 4.71353 52.5565 4.78285C52.5909 4.85218 52.6386 4.91405 52.6969 4.96494C52.7552 5.01582 52.8229 5.05472 52.8963 5.07943C52.9696 5.10413 53.0471 5.11415 53.1243 5.10891C53.2015 5.10367 53.2769 5.08327 53.3463 5.04888C53.4156 5.01449 53.4775 4.96678 53.5283 4.90848C53.5792 4.85018 53.6181 4.78243 53.6428 4.70909C54.36 2.56348 55.9942 1.18205 57.7577 1.18205C60.2443 1.18205 62.2665 3.8097 62.2665 7.06045C62.2914 8.64499 61.7564 10.1875 60.7557 11.4164C60.6808 11.5016 60.6322 11.6067 60.6157 11.719C60.5992 11.8312 60.6156 11.9459 60.6628 12.049C60.7101 12.1522 60.7861 12.2395 60.8819 12.3004C60.9777 12.3613 61.089 12.3932 61.2025 12.3922L61.2201 12.3863Z" fill="#FAF5FF"/>
</g>
<path d="M48.2904 11.7916C48.3517 12.1031 48.5001 12.3907 48.7185 12.6211C48.937 12.8514 49.2163 13.0149 49.5241 13.0927C49.8318 13.1704 50.1553 13.1591 50.4569 13.06C50.7585 12.961 51.0257 12.7784 51.2275 12.5333C51.4293 12.2883 51.5573 11.991 51.5967 11.676C51.636 11.3611 51.5851 11.0414 51.4498 10.7542C51.3145 10.4671 51.1004 10.2243 50.8325 10.0541C50.5646 9.88393 50.2538 9.79337 49.9364 9.79297C49.4546 9.84353 49.0121 10.0814 48.7042 10.4553C48.3963 10.8292 48.2477 11.3091 48.2904 11.7916Z" fill="#263238"/>
<path d="M50.0389 12.3858C50.1238 12.3858 50.2077 12.3674 50.2849 12.3319C50.362 12.2964 50.4305 12.2446 50.4857 12.18C51.6684 10.7359 52.3034 8.92058 52.2786 7.05408C52.2786 3.18021 49.7333 0 46.6001 0C44.2899 0 42.2324 1.70474 41.3507 4.33239C41.3008 4.4805 41.3118 4.64236 41.3812 4.78236C41.4507 4.92237 41.5729 5.02905 41.721 5.07894C41.8691 5.12883 42.031 5.11784 42.171 5.04839C42.311 4.97893 42.4177 4.85671 42.4676 4.7086C43.1847 2.56299 44.8189 1.18156 46.5824 1.18156C49.069 1.18156 51.0853 3.80921 51.0853 7.05997C51.1124 8.64385 50.5794 10.1865 49.5804 11.4159C49.5059 11.5007 49.4573 11.6053 49.4406 11.717C49.424 11.8287 49.4398 11.9429 49.4863 12.0459C49.5329 12.1488 49.608 12.2362 49.7029 12.2975C49.7978 12.3588 49.9083 12.3915 50.0213 12.3917L50.0389 12.3858Z" fill="#263238"/>
<g opacity="0.4">
<path d="M50.0384 12.3863C50.1233 12.3863 50.2073 12.3679 50.2844 12.3324C50.3615 12.2969 50.43 12.2451 50.4852 12.1805C51.6679 10.7364 52.3029 8.92107 52.2781 7.05457C52.2781 3.1807 49.7328 0.000488281 46.5996 0.000488281C44.2894 0.000488281 42.2319 1.70523 41.3502 4.33288C41.3003 4.48099 41.3113 4.64284 41.3807 4.78285C41.4502 4.92286 41.5724 5.02954 41.7205 5.07943C41.8686 5.12932 42.0305 5.11833 42.1705 5.04888C42.3105 4.97942 42.4172 4.8572 42.4671 4.70909C43.1842 2.56348 44.8184 1.18205 46.5819 1.18205C49.0685 1.18205 51.0848 3.8097 51.0848 7.06045C51.1119 8.64434 50.5789 10.1869 49.5799 11.4164C49.5054 11.5012 49.4568 11.6058 49.4402 11.7175C49.4235 11.8292 49.4393 11.9434 49.4859 12.0463C49.5324 12.1493 49.6076 12.2367 49.7024 12.298C49.7973 12.3593 49.9078 12.392 50.0208 12.3922L50.0384 12.3863Z" fill="#FAF5FF"/>
</g>
<path d="M37.1117 11.7916C37.1719 12.1048 37.3199 12.3943 37.5385 12.6265C37.7571 12.8587 38.0372 13.024 38.3461 13.103C38.6551 13.182 38.9801 13.1715 39.2833 13.0728C39.5865 12.974 39.8554 12.791 40.0586 12.5452C40.2617 12.2994 40.3908 12.0009 40.4307 11.6845C40.4705 11.3681 40.4196 11.0469 40.2839 10.7584C40.1481 10.4698 39.9331 10.2259 39.6639 10.0549C39.3946 9.88398 39.0824 9.79313 38.7635 9.79297C38.2813 9.84355 37.8382 10.0812 37.5294 10.4549C37.2205 10.8286 37.0705 11.3086 37.1117 11.7916Z" fill="#263238"/>
<path d="M38.8602 12.3858C38.9451 12.3858 39.029 12.3674 39.1061 12.3319C39.1833 12.2964 39.2518 12.2446 39.307 12.18C40.4791 10.7318 41.1035 8.91693 41.0705 7.05408C41.0705 3.18022 38.5251 0 35.392 0C33.0817 0 31.0243 1.70474 30.1425 4.33239C30.1176 4.40571 30.1075 4.48323 30.1126 4.5605C30.1178 4.63776 30.1381 4.71326 30.1726 4.78263C30.207 4.852 30.2548 4.91389 30.3132 4.96474C30.3716 5.01559 30.4394 5.0544 30.5129 5.07894C30.5862 5.10384 30.6637 5.114 30.741 5.10885C30.8183 5.1037 30.8938 5.08334 30.9631 5.04893C31.0325 5.01451 31.0944 4.96673 31.1452 4.90833C31.1961 4.84992 31.2349 4.78205 31.2594 4.70861C31.9766 2.56299 33.6108 1.18156 35.3743 1.18156C37.855 1.18156 39.8772 3.80921 39.8772 7.05997C39.9051 8.64499 39.3698 10.1885 38.3664 11.4159C38.2915 11.5011 38.2429 11.6062 38.2264 11.7185C38.2099 11.8307 38.2263 11.9454 38.2735 12.0486C38.3208 12.1517 38.3969 12.239 38.4926 12.2999C38.5884 12.3608 38.6997 12.3927 38.8132 12.3917L38.8602 12.3858Z" fill="#263238"/>
<g opacity="0.4">
<path d="M38.8622 12.3863C38.9471 12.3863 39.031 12.3679 39.1081 12.3324C39.1852 12.2969 39.2537 12.2451 39.3089 12.1805C40.4811 10.7323 41.1055 8.91741 41.0724 7.05457C41.0724 3.1807 38.5271 0.000488281 35.3939 0.000488281C33.0837 0.000488281 31.0263 1.70523 30.1445 4.33288C30.1196 4.4062 30.1094 4.48372 30.1146 4.56099C30.1197 4.63825 30.1401 4.71375 30.1745 4.78312C30.2089 4.85249 30.2567 4.91437 30.3151 4.96522C30.3735 5.01607 30.4414 5.05489 30.5148 5.07943C30.5882 5.10433 30.6657 5.11449 30.743 5.10934C30.8202 5.10419 30.8957 5.08383 30.9651 5.04941C31.0345 5.015 31.0963 4.96722 31.1472 4.90881C31.198 4.85041 31.2369 4.78254 31.2614 4.70909C31.9786 2.56348 33.6128 1.18205 35.3763 1.18205C37.857 1.18205 39.8791 3.8097 39.8791 7.06045C39.9071 8.64548 39.3718 10.189 38.3684 11.4164C38.2935 11.5016 38.2449 11.6067 38.2284 11.719C38.2119 11.8312 38.2283 11.9459 38.2755 12.049C38.3227 12.1522 38.3988 12.2395 38.4946 12.3004C38.5903 12.3613 38.7017 12.3932 38.8151 12.3922L38.8622 12.3863Z" fill="#FAF5FF"/>
</g>
<path d="M25.9334 11.7916C25.9936 12.1048 26.1417 12.3943 26.3603 12.6265C26.5788 12.8587 26.8589 13.024 27.1679 13.103C27.4768 13.182 27.8019 13.1715 28.1051 13.0728C28.4083 12.974 28.6772 12.791 28.8803 12.5452C29.0835 12.2994 29.2125 12.0009 29.2524 11.6845C29.2923 11.3681 29.2414 11.0469 29.1056 10.7584C28.9699 10.4698 28.7548 10.2259 28.4856 10.0549C28.2164 9.88398 27.9042 9.79313 27.5853 9.79297C27.1031 9.84355 26.66 10.0812 26.3511 10.4549C26.0423 10.8286 25.8923 11.3086 25.9334 11.7916Z" fill="#263238"/>
<path d="M27.6871 12.3858C27.772 12.3858 27.8559 12.3674 27.933 12.3319C28.0101 12.2964 28.0786 12.2446 28.1338 12.18C29.306 10.7318 29.9304 8.91693 29.8973 7.05408C29.8973 3.18022 27.3461 0 24.2188 0C21.9086 0 19.8512 1.70474 18.9694 4.33239C18.9385 4.40676 18.9231 4.48669 18.9244 4.56722C18.9256 4.64776 18.9434 4.72718 18.9766 4.80055C19.0098 4.87393 19.0578 4.93971 19.1175 4.99379C19.1772 5.04787 19.2473 5.0891 19.3236 5.11493C19.3999 5.14077 19.4807 5.15065 19.561 5.14396C19.6412 5.13727 19.7193 5.11417 19.7902 5.07607C19.8612 5.03797 19.9236 4.98568 19.9735 4.92247C20.0234 4.85926 20.0598 4.78647 20.0804 4.70861C20.7976 2.56299 22.4318 1.18156 24.1953 1.18156C26.676 1.18156 28.6982 3.80921 28.6982 7.05997C28.7231 8.64451 28.1881 10.187 27.1874 11.4159C27.1125 11.5011 27.0639 11.6062 27.0474 11.7185C27.0309 11.8307 27.0473 11.9454 27.0945 12.0486C27.1418 12.1517 27.2178 12.239 27.3136 12.2999C27.4094 12.3608 27.5207 12.3927 27.6342 12.3917L27.6871 12.3858Z" fill="#263238"/>
<g opacity="0.4">
<path d="M27.6856 12.3863C27.7705 12.3863 27.8544 12.3679 27.9315 12.3324C28.0087 12.2969 28.0772 12.2451 28.1324 12.1805C29.3045 10.7323 29.9289 8.91741 29.8959 7.05457C29.8959 3.1807 27.3447 0.000488281 24.2173 0.000488281C21.9071 0.000488281 19.8497 1.70523 18.9679 4.33288C18.937 4.40724 18.9217 4.48718 18.9229 4.56771C18.9242 4.64825 18.9419 4.72766 18.9752 4.80104C19.0084 4.87442 19.0563 4.9402 19.116 4.99428C19.1757 5.04836 19.2459 5.08959 19.3222 5.11542C19.3984 5.14126 19.4792 5.15114 19.5595 5.14445C19.6398 5.13776 19.7178 5.11466 19.7888 5.07656C19.8597 5.03846 19.9221 4.98617 19.972 4.92296C20.0219 4.85975 20.0583 4.78696 20.079 4.70909C20.7961 2.56348 22.4303 1.18205 24.1938 1.18205C26.6745 1.18205 28.6967 3.8097 28.6967 7.06045C28.7216 8.64499 28.1866 10.1875 27.1859 11.4164C27.111 11.5016 27.0624 11.6067 27.0459 11.719C27.0295 11.8312 27.0458 11.9459 27.0931 12.049C27.1403 12.1522 27.2164 12.2395 27.3121 12.3004C27.4079 12.3613 27.5192 12.3932 27.6327 12.3922L27.6856 12.3863Z" fill="#FAF5FF"/>
</g>
<path d="M14.7617 11.7916C14.7617 12.8968 15.5024 13.7903 16.4077 13.7903C16.8735 13.7024 17.2939 13.4546 17.5964 13.0897C17.8989 12.7247 18.0645 12.2656 18.0645 11.7916C18.0645 11.3176 17.8989 10.8585 17.5964 10.4936C17.2939 10.1287 16.8735 9.88086 16.4077 9.79297C15.5024 9.79297 14.7617 10.6747 14.7617 11.7916Z" fill="#263238"/>
<path d="M16.5176 12.3858C16.6025 12.3858 16.6864 12.3674 16.7636 12.3319C16.8407 12.2964 16.9092 12.2446 16.9644 12.18C18.1343 10.7306 18.7585 8.91653 18.7279 7.05408C18.7279 3.18022 16.1767 0 13.0494 0C10.7392 0 8.67585 1.70474 7.79997 4.33239C7.76903 4.40676 7.75371 4.48669 7.75495 4.56722C7.7562 4.64776 7.77398 4.72718 7.80719 4.80055C7.84041 4.87393 7.88834 4.93971 7.94804 4.99379C8.00773 5.04787 8.07789 5.0891 8.15418 5.11493C8.23047 5.14077 8.31126 5.15065 8.39153 5.14396C8.47179 5.13727 8.54983 5.11417 8.6208 5.07607C8.69176 5.03797 8.75414 4.98568 8.80406 4.92247C8.85398 4.85926 8.89037 4.78647 8.91098 4.70861C9.62815 2.56299 11.2623 1.18156 13.0259 1.18156C15.5066 1.18156 17.5287 3.80921 17.5287 7.05997C17.5536 8.64451 17.0186 10.187 16.018 11.4159C15.9665 11.4743 15.9272 11.5424 15.9023 11.6161C15.8774 11.6899 15.8674 11.7679 15.8729 11.8455C15.8783 11.9232 15.8992 11.999 15.9342 12.0685C15.9692 12.138 16.0176 12.1999 16.0768 12.2506C16.1373 12.3017 16.2076 12.34 16.2834 12.3632C16.3591 12.3865 16.4388 12.3941 16.5176 12.3858Z" fill="#263238"/>
<g opacity="0.4">
<path d="M16.5186 12.3863C16.6035 12.3863 16.6874 12.3679 16.7645 12.3324C16.8417 12.2969 16.9102 12.2451 16.9654 12.1805C18.1353 10.7311 18.7594 8.91702 18.7289 7.05457C18.7289 3.1807 16.1777 0.000488281 13.0504 0.000488281C10.7401 0.000488281 8.67683 1.70523 7.80094 4.33288C7.77001 4.40724 7.75469 4.48718 7.75593 4.56771C7.75717 4.64825 7.77495 4.72766 7.80817 4.80104C7.84138 4.87442 7.88932 4.9402 7.94901 4.99428C8.0087 5.04836 8.07887 5.08959 8.15516 5.11542C8.23145 5.14126 8.31223 5.15114 8.3925 5.14445C8.47277 5.13776 8.55081 5.11466 8.62177 5.07656C8.69274 5.03846 8.75511 4.98617 8.80503 4.92296C8.85495 4.85975 8.89135 4.78696 8.91196 4.70909C9.62913 2.56348 11.2633 1.18205 13.0268 1.18205C15.5075 1.18205 17.5297 3.8097 17.5297 7.06045C17.5546 8.64499 17.0196 10.1875 16.019 11.4164C15.9675 11.4748 15.9282 11.5429 15.9033 11.6166C15.8784 11.6904 15.8684 11.7683 15.8738 11.846C15.8793 11.9237 15.9002 11.9995 15.9352 12.069C15.9702 12.1385 16.0186 12.2004 16.0777 12.2511C16.1383 12.3022 16.2086 12.3405 16.2844 12.3637C16.3601 12.387 16.4398 12.3946 16.5186 12.3863Z" fill="#FAF5FF"/>
</g>
<path d="M24.702 51.7349H19.7759V60.1351H24.702V51.7349Z" fill="#C778FF"/>
<path d="M32.6771 45.6206H27.751V60.1344H32.6771V45.6206Z" fill="#C778FF"/>
<path d="M40.661 47.9141H35.7349V60.1353H40.661V47.9141Z" fill="#C778FF"/>
<path d="M48.6449 41.8018H43.7188V60.1365H48.6449V41.8018Z" fill="#C778FF"/>
<path d="M56.6243 35.6875H51.6982V60.1358H56.6243V35.6875Z" fill="#C778FF"/>
<path opacity="0.5" d="M24.702 51.7349H19.7759V60.1351H24.702V51.7349Z" fill="#FAF5FF"/>
<path opacity="0.5" d="M32.6771 45.6206H27.751V60.1344H32.6771V45.6206Z" fill="#FAF5FF"/>
<path opacity="0.5" d="M40.661 47.9141H35.7349V60.1353H40.661V47.9141Z" fill="#FAF5FF"/>
<path opacity="0.5" d="M48.6449 41.8018H43.7188V60.1365H48.6449V41.8018Z" fill="#FAF5FF"/>
<path opacity="0.5" d="M56.6243 35.6875H51.6982V60.1358H56.6243V35.6875Z" fill="#FAF5FF"/>
<path d="M63.1951 58.9731H13.0112V61.301H63.1951V58.9731Z" fill="#71389A"/>
<path d="M15.1256 53.4623L14.0439 52.0985L30.139 39.2895L38.1042 43.9099L59.6074 25.5811L60.7361 26.9037L38.2982 46.0379L30.2977 41.394L15.1256 53.4623Z" fill="#C778FF"/>
<path d="M61.4505 25.1665L58.1821 25.6721L60.4865 28.1292L61.4505 25.1665Z" fill="#C778FF"/>
<g opacity="0.3">
<path d="M41.4698 68.8695H13.0712C12.9153 68.8695 12.7658 68.8076 12.6556 68.6973C12.5453 68.5871 12.4834 68.4376 12.4834 68.2817C12.4834 68.1258 12.5453 67.9763 12.6556 67.866C12.7658 67.7558 12.9153 67.6938 13.0712 67.6938H41.4698C41.6257 67.6938 41.7752 67.7558 41.8855 67.866C41.9957 67.9763 42.0576 68.1258 42.0576 68.2817C42.0576 68.4376 41.9957 68.5871 41.8855 68.6973C41.7752 68.8076 41.6257 68.8695 41.4698 68.8695Z" fill="black"/>
</g>
<g opacity="0.3">
<path d="M63.4061 74.1107H17.1254C16.9695 74.1107 16.82 74.0488 16.7098 73.9386C16.5995 73.8283 16.5376 73.6788 16.5376 73.5229C16.5376 73.367 16.5995 73.2175 16.7098 73.1072C16.82 72.997 16.9695 72.9351 17.1254 72.9351H63.4061C63.562 72.9351 63.7115 72.997 63.8218 73.1072C63.932 73.2175 63.9939 73.367 63.9939 73.5229C63.9939 73.6788 63.932 73.8283 63.8218 73.9386C63.7115 74.0488 63.562 74.1107 63.4061 74.1107Z" fill="black"/>
<path d="M63.455 77.0546H13.0712C12.9153 77.0546 12.7658 76.9926 12.6556 76.8824C12.5453 76.7722 12.4834 76.6227 12.4834 76.4667C12.4834 76.3108 12.5453 76.1613 12.6556 76.0511C12.7658 75.9408 12.9153 75.8789 13.0712 75.8789H63.455C63.6109 75.8789 63.7604 75.9408 63.8707 76.0511C63.9809 76.1613 64.0429 76.3108 64.0429 76.4667C64.0429 76.6227 63.9809 76.7722 63.8707 76.8824C63.7604 76.9926 63.6109 77.0546 63.455 77.0546Z" fill="black"/>
<path d="M63.5371 79.9984H13.1357C12.9798 79.9984 12.8303 79.9365 12.72 79.8263C12.6098 79.716 12.5479 79.5665 12.5479 79.4106C12.5479 79.2547 12.6098 79.1052 12.72 78.9949C12.8303 78.8847 12.9798 78.8228 13.1357 78.8228H63.5371C63.693 78.8228 63.8425 78.8847 63.9528 78.9949C64.063 79.1052 64.1249 79.2547 64.1249 79.4106C64.1249 79.5665 64.063 79.716 63.9528 79.8263C63.8425 79.9365 63.693 79.9984 63.5371 79.9984Z" fill="black"/>
<path d="M55.362 82.9442H13.1962C13.0403 82.9442 12.8908 82.8823 12.7806 82.7721C12.6703 82.6618 12.6084 82.5123 12.6084 82.3564C12.6084 82.2005 12.6703 82.051 12.7806 81.9407C12.8908 81.8305 13.0403 81.7686 13.1962 81.7686H55.362C55.5179 81.7686 55.6674 81.8305 55.7777 81.9407C55.8879 82.051 55.9499 82.2005 55.9499 82.3564C55.9499 82.5123 55.8879 82.6618 55.7777 82.7721C55.6674 82.8823 55.5179 82.9442 55.362 82.9442Z" fill="black"/>
</g>
<g opacity="0.3">
<path d="M63.4061 88.2318H17.1254C16.9695 88.2318 16.82 88.1699 16.7098 88.0597C16.5995 87.9494 16.5376 87.7999 16.5376 87.644C16.5376 87.4881 16.5995 87.3386 16.7098 87.2283C16.82 87.1181 16.9695 87.0562 17.1254 87.0562H63.4061C63.562 87.0562 63.7115 87.1181 63.8218 87.2283C63.932 87.3386 63.9939 87.4881 63.9939 87.644C63.9939 87.7999 63.932 87.9494 63.8218 88.0597C63.7115 88.1699 63.562 88.2318 63.4061 88.2318Z" fill="black"/>
<path d="M63.455 91.1776H13.0712C12.9153 91.1776 12.7658 91.1157 12.6556 91.0055C12.5453 90.8952 12.4834 90.7457 12.4834 90.5898C12.4834 90.4339 12.5453 90.2844 12.6556 90.1741C12.7658 90.0639 12.9153 90.002 13.0712 90.002H63.455C63.6109 90.002 63.7604 90.0639 63.8707 90.1741C63.9809 90.2844 64.0429 90.4339 64.0429 90.5898C64.0429 90.7457 63.9809 90.8952 63.8707 91.0055C63.7604 91.1157 63.6109 91.1776 63.455 91.1776Z" fill="black"/>
<path d="M63.5371 94.1513H13.1357C12.9798 94.1513 12.8303 94.0893 12.72 93.9791C12.6098 93.8688 12.5479 93.7193 12.5479 93.5634C12.5479 93.4075 12.6098 93.258 12.72 93.1478C12.8303 93.0375 12.9798 92.9756 13.1357 92.9756H63.5371C63.693 92.9756 63.8425 93.0375 63.9528 93.1478C64.063 93.258 64.1249 93.4075 64.1249 93.5634C64.1249 93.7193 64.063 93.8688 63.9528 93.9791C63.8425 94.0893 63.693 94.1513 63.5371 94.1513Z" fill="black"/>
<path d="M55.362 97.0907H13.1962C13.0403 97.0907 12.8908 97.0288 12.7806 96.9185C12.6703 96.8083 12.6084 96.6588 12.6084 96.5029C12.6084 96.347 12.6703 96.1975 12.7806 96.0872C12.8908 95.977 13.0403 95.915 13.1962 95.915H55.362C55.5179 95.915 55.6674 95.977 55.7777 96.0872C55.8879 96.1975 55.9499 96.347 55.9499 96.5029C55.9499 96.6588 55.8879 96.8083 55.7777 96.9185C55.6674 97.0288 55.5179 97.0907 55.362 97.0907Z" fill="black"/>
</g>
<g opacity="0.3">
<path d="M41.4698 20.0355H13.0712C12.9153 20.0355 12.7658 19.9736 12.6556 19.8634C12.5453 19.7531 12.4834 19.6036 12.4834 19.4477C12.4834 19.2918 12.5453 19.1423 12.6556 19.032C12.7658 18.9218 12.9153 18.8599 13.0712 18.8599H41.4698C41.6257 18.8599 41.7752 18.9218 41.8855 19.032C41.9957 19.1423 42.0576 19.2918 42.0576 19.4477C42.0576 19.6036 41.9957 19.7531 41.8855 19.8634C41.7752 19.9736 41.6257 20.0355 41.4698 20.0355Z" fill="black"/>
</g>
</svg>
