<svg width="381" height="462" viewBox="0 0 381 462" fill="none" xmlns="http://www.w3.org/2000/svg">
<path d="M205.857 251.424C209.198 251.599 212.547 251.421 215.85 250.894C218.219 250.274 220.473 249.279 222.526 247.946C222.526 247.946 229.792 248.948 230.956 247.327C231.661 246.303 232.041 245.091 232.047 243.849L237.382 243.186L242.216 244.099L244.884 247.356C244.884 247.356 246.888 247.356 246.977 246.148C246.977 246.148 249.644 244.939 249.394 244.099C249.143 243.259 247.67 239.265 247.67 239.265L245.636 234.903C245.636 234.903 232.46 234.077 231.959 234.402C231.458 234.726 214.774 242.508 214.774 242.508L208.599 243.981L205.857 251.424Z" fill="#EB996E"/>
<path d="M212.694 229.894L233.593 225.207L248.183 224.426C248.183 224.426 260.622 230.203 260.269 235.376L262.877 236.776C262.877 236.776 262.656 240.638 259.547 239.724C258.033 239.288 256.555 238.736 255.125 238.073L258.471 243.173C257.77 243.569 256.981 243.785 256.175 243.801C255.37 243.816 254.573 243.631 253.858 243.261C252.811 242.76 245.472 237.204 245.472 237.204L239.267 237.027C239.267 237.027 227.742 244.956 222.392 245.87C217.042 246.784 207.934 244.897 207.934 244.897L212.694 229.894Z" fill="#FFBE9D"/>
<path d="M259.545 239.782C259.545 239.693 260.076 239.87 260.93 239.782C261.175 239.727 261.405 239.622 261.606 239.472C261.807 239.322 261.973 239.131 262.095 238.912C262.397 238.3 262.519 237.616 262.448 236.937L262.566 237.143L253.547 231.248L250.835 229.48C249.995 228.934 249.051 228.301 248.373 228.006H247.15H245.809H243.407C241.829 228.088 240.247 228.044 238.676 227.873C240.224 227.604 241.791 227.466 243.363 227.46L245.721 227.343H247.047H247.74H248.256C248.363 227.329 248.472 227.329 248.58 227.343C249.509 227.82 250.41 228.351 251.277 228.934L254.003 230.703C257.482 233.017 260.621 235.124 262.846 236.819L262.964 236.908V237.04C263.017 237.828 262.832 238.614 262.434 239.295C262.274 239.553 262.059 239.771 261.804 239.935C261.549 240.098 261.261 240.202 260.96 240.238C260.593 240.284 260.221 240.249 259.869 240.135C259.663 239.855 259.545 239.811 259.545 239.782Z" fill="#EB996E"/>
<path d="M258.249 242.892C257.427 242.133 256.695 241.282 256.067 240.357C254.785 238.736 253.12 236.451 251.189 233.902H251.263L251.012 233.71C250.378 233.224 249.745 232.752 249.126 232.339L248.183 231.764C247.899 231.61 247.589 231.51 247.269 231.47C246.059 231.273 244.838 231.15 243.614 231.101C242.463 231.126 241.313 231.037 240.18 230.836C241.311 230.587 242.471 230.493 243.628 230.556C244.89 230.524 246.151 230.593 247.401 230.762C247.796 230.819 248.179 230.938 248.536 231.116C248.875 231.293 249.199 231.499 249.524 231.706C250.187 232.133 250.835 232.605 251.484 233.106L251.734 233.312C253.606 235.876 255.257 238.205 256.421 239.915C257.146 240.831 257.76 241.83 258.249 242.892Z" fill="#EB996E"/>
<path d="M340.015 399.25L340.501 437.923C340.501 437.923 379.793 447.621 380.589 454.754L305.808 461.194L302.58 400.96L340.015 399.25Z" fill="#71389A"/>
<g opacity="0.6">
<path d="M317.172 435.8C316.462 436.055 315.871 436.563 315.512 437.226C315.153 437.89 315.051 438.662 315.226 439.396C315.455 440.115 315.95 440.72 316.611 441.084C317.272 441.449 318.048 441.546 318.778 441.356C319.529 441.084 320.153 440.544 320.529 439.839C320.905 439.133 321.006 438.314 320.812 437.539C320.496 436.813 319.912 436.237 319.181 435.932C318.45 435.627 317.63 435.616 316.892 435.903" fill="white"/>
</g>
<g opacity="0.6">
<path d="M305.807 461.191L305.482 455.119L377.906 451.42C378.702 451.751 379.403 452.277 379.943 452.949C380.484 453.621 380.848 454.418 381.001 455.267L305.807 461.191Z" fill="white"/>
</g>
<path d="M341.695 437.481C341.695 437.849 339.882 438.1 338.143 439.367C336.404 440.635 335.505 442.226 335.196 442.094C334.886 441.961 335.269 439.765 337.436 438.291C339.602 436.817 341.769 437.142 341.695 437.481Z" fill="#263238"/>
<path d="M349.724 440.355C349.813 440.709 348.251 441.402 347.101 443.008C345.951 444.615 345.627 446.28 345.288 446.28C344.949 446.28 344.581 444.217 346.069 442.257C347.558 440.296 349.695 440.002 349.724 440.355Z" fill="#263238"/>
<path d="M354.634 449.548C354.31 449.636 353.72 447.838 354.56 445.79C355.4 443.741 357.066 442.842 357.243 443.151C357.419 443.461 356.403 444.625 355.769 446.261C355.135 447.897 355.002 449.489 354.634 449.548Z" fill="#263238"/>
<path d="M340.619 428.682C340.472 429.021 338.777 428.609 336.713 428.844C334.65 429.08 333.073 429.817 332.867 429.508C332.66 429.198 334.149 427.828 336.581 427.577C339.012 427.326 340.781 428.388 340.619 428.682Z" fill="#263238"/>
<g opacity="0.3">
<path d="M340.103 406.912L340.206 413.795L303.493 417.73L302.992 409.049L340.103 406.912Z" fill="black"/>
</g>
<path d="M340.384 420.883C339.168 421.273 337.871 421.329 336.626 421.045C335.264 420.867 333.928 420.525 332.647 420.029C331.886 419.732 331.148 419.382 330.436 418.982C330 418.773 329.602 418.494 329.257 418.157C329.005 417.91 328.842 417.586 328.794 417.237C328.746 416.887 328.816 416.532 328.991 416.226C329.16 415.96 329.39 415.739 329.662 415.58C329.934 415.421 330.239 415.329 330.554 415.312C331.048 415.282 331.544 415.322 332.028 415.43C334.195 415.858 336.222 416.821 337.923 418.231C339.736 419.704 340.399 421.09 340.281 421.178C340.163 421.267 339.22 420.205 337.333 418.967C336.268 418.247 335.114 417.667 333.899 417.243C333.186 416.991 332.451 416.803 331.703 416.683C330.907 416.506 330.229 416.536 330.038 416.904C330.038 417.037 329.964 417.096 330.141 417.317C330.403 417.556 330.695 417.759 331.011 417.921C331.669 418.303 332.348 418.647 333.044 418.953C334.237 419.475 335.475 419.885 336.744 420.176C337.974 420.314 339.191 420.551 340.384 420.883Z" fill="#263238"/>
<path d="M339.927 421.43C339.152 420.397 338.738 419.139 338.747 417.848C338.619 416.464 338.729 415.068 339.072 413.722C339.275 412.92 339.557 412.14 339.912 411.393C340.09 410.887 340.395 410.436 340.797 410.083C341.2 409.729 341.687 409.485 342.211 409.374C342.546 409.364 342.876 409.451 343.164 409.623C343.451 409.795 343.683 410.046 343.832 410.346C344.046 410.775 344.199 411.232 344.289 411.702C344.459 412.536 344.499 413.391 344.407 414.237C344.261 415.658 343.753 417.018 342.933 418.187C341.562 420.206 340.059 420.722 339.985 420.589C339.912 420.457 341.091 419.646 342.122 417.73C342.716 416.624 343.063 415.402 343.139 414.149C343.183 413.422 343.123 412.693 342.963 411.982C342.8 411.187 342.476 410.509 342.181 410.656C341.887 410.803 341.209 411.29 340.929 411.953C340.588 412.618 340.312 413.314 340.103 414.031C339.739 415.256 339.556 416.527 339.558 417.804C339.661 420.015 340.118 421.371 339.927 421.43Z" fill="#263238"/>
<path d="M152.736 266.563C152.736 266.563 274.473 246.357 279.897 245.517C300.766 242.304 324.583 244.854 332.527 259.828C336.679 270.91 339.052 282.579 339.557 294.403C340.559 312.811 347.869 421.859 347.869 421.859L297.642 430.215L281.105 309.554L252.749 314.875C254.341 314.683 179.058 328.139 156.332 330.512C138.779 332.295 118.544 322.833 114.505 307.181C111.852 296.953 106.09 268.479 106.09 268.479L152.736 266.563Z" fill="#263238"/>
<path d="M293.001 292.885C290.57 295.212 288.318 297.719 286.266 300.386C284.433 303.213 282.808 306.168 281.402 309.229C281.506 308.208 281.78 307.212 282.213 306.282C283.085 304.023 284.239 301.884 285.647 299.915C287.05 297.941 288.688 296.144 290.525 294.565C291.252 293.872 292.089 293.304 293.001 292.885Z" fill="#455A64"/>
<path d="M49.0873 60.064C47.3021 62.9996 46.4395 66.4038 46.6113 69.8354C46.6113 73.1809 48.9105 79.9605 54.8352 80.2994C53.2582 89.8645 59.3893 96.9241 69.5733 96.9388C79.7574 96.9535 91.43 79.4741 100.877 75.6422L128.29 68.391C130.692 67.831 131.68 64.8981 131.636 62.4958C131.591 60.0935 130.958 57.4553 131.827 55.1267C133.021 51.958 136.706 50.2631 137.958 47.1091C139.432 43.5278 137.177 39.5485 134.628 36.6598C132.078 33.7711 128.983 31.0151 128.172 27.2569C127.421 23.7934 128.762 19.8878 127.023 16.7928C124.9 12.9903 119.315 12.504 116.706 9.01103C115.453 7.30141 115.055 5.0907 113.758 3.38107C111.651 0.433445 107.583 -0.28874 104.002 0.0944517C100.42 0.477643 96.9863 1.78934 93.4049 2.05463C88.4824 2.40834 83.3977 0.816631 78.6668 2.24623C73.4495 3.80847 70.2808 8.43626 66.8763 12.9167L62.4548 18.1045C61.5513 18.9976 60.5642 19.802 59.5072 20.5068C57.5372 21.5229 55.667 22.722 53.9214 24.0882C53.1141 24.9409 52.4874 25.9481 52.0792 27.0492C51.6711 28.1502 51.4897 29.3225 51.5462 30.4954C51.6026 31.6684 51.8957 32.8178 52.4077 33.8746C52.9197 34.9314 53.6402 35.8738 54.5257 36.6451C52.6373 37.2941 51.009 38.5356 49.883 40.1847C48.7571 41.8338 48.1937 43.8024 48.2767 45.7975C48.2767 45.7975 47.7904 50.3368 50.6643 52.3559C49.5602 53.2671 48.8015 54.529 48.5146 55.9315C48.2277 57.3339 48.4298 58.7924 49.0873 60.064Z" fill="#263238"/>
<path d="M67.4483 69.3353C64.994 62.4447 63.1448 55.3534 61.9215 48.1418C60.6977 40.8974 61.2953 33.4622 63.6606 26.5062C64.0438 25.4746 67.3452 18.5034 68.4358 18.6066C69.2317 18.695 67.1978 25.1945 67.5957 25.8725C71.3982 32.4015 72.4446 40.2717 71.8256 47.8029C71.1577 55.1225 69.6747 62.3447 67.4041 69.3353" fill="#263238"/>
<path d="M85.5038 133.108C69.2918 131.074 67.4643 105.105 67.4643 105.105L66.7274 41.4659C66.1379 23.1464 76.3072 7.56819 94.6415 7.43555L96.3363 7.52397C104.55 7.97614 112.292 11.5013 118.026 17.399C123.76 23.2968 127.066 31.1357 127.286 39.3584C127.714 55.2461 127.979 72.814 127.419 81.2884C126.27 98.8415 108.554 100.64 108.554 100.64C108.554 100.64 108.083 116.395 108.142 121.818C108.333 140.506 89.9842 133.52 85.4448 133.122L85.5038 133.108Z" fill="#FFBE9D"/>
<path d="M108.612 100.623C100.496 100.168 92.6802 97.3961 86.0918 92.6348C86.0918 92.6348 90.8227 106.459 108.45 105.811L108.612 100.623Z" fill="#EB996E"/>
<path d="M122.716 53.7565C122.689 54.4107 122.407 55.0284 121.931 55.4774C121.454 55.9264 120.821 56.171 120.166 56.1589C119.846 56.1667 119.527 56.1104 119.229 55.9932C118.931 55.876 118.659 55.7003 118.429 55.4764C118.2 55.2526 118.018 54.9851 117.893 54.6897C117.769 54.3943 117.705 54.077 117.705 53.7565C117.732 53.1024 118.014 52.4847 118.49 52.0357C118.967 51.5867 119.6 51.3421 120.255 51.3542C120.575 51.3464 120.894 51.4027 121.192 51.5199C121.491 51.6371 121.762 51.8128 121.992 52.0367C122.221 52.2605 122.403 52.528 122.528 52.8234C122.652 53.1188 122.716 53.436 122.716 53.7565Z" fill="#263238"/>
<path d="M123.203 46.4495C122.864 46.759 121.052 45.2409 118.34 45.1083C115.628 44.9757 113.594 46.2137 113.314 45.8599C113.034 45.5062 113.535 45.1378 114.434 44.563C115.64 43.8078 117.053 43.452 118.472 43.5461C119.878 43.6186 121.225 44.1345 122.319 45.0199C123.115 45.6978 123.365 46.2579 123.203 46.4495Z" fill="#263238"/>
<path d="M97.3371 53.7565C97.3103 54.4107 97.0284 55.0284 96.5519 55.4774C96.0754 55.9264 95.442 56.171 94.7874 56.1589C94.467 56.1667 94.1483 56.1104 93.85 55.9932C93.5517 55.876 93.2799 55.7003 93.0505 55.4764C92.8212 55.2526 92.6389 54.9851 92.5145 54.6897C92.3901 54.3943 92.3261 54.077 92.3262 53.7565C92.353 53.1024 92.6349 52.4847 93.1114 52.0357C93.5879 51.5867 94.2213 51.3421 94.8759 51.3542C95.1963 51.3464 95.515 51.4027 95.8133 51.5199C96.1116 51.6371 96.3834 51.8128 96.6128 52.0367C96.8422 52.2605 97.0244 52.528 97.1488 52.8234C97.2732 53.1188 97.3372 53.436 97.3371 53.7565Z" fill="#263238"/>
<path d="M96.7027 46.1066C96.3637 46.4309 94.5362 44.9129 91.8391 44.7802C89.1421 44.6476 87.0934 45.8856 86.8134 45.5319C86.5334 45.1781 87.0198 44.8097 87.9188 44.2349C89.1298 43.4795 90.5476 43.1238 91.9718 43.218C93.3775 43.2905 94.7241 43.8065 95.8184 44.6918C96.5995 45.3697 96.8501 45.974 96.7027 46.1066Z" fill="#263238"/>
<path d="M105.267 67.3745C106.713 67.0124 108.198 66.8293 109.688 66.8292C110.381 66.8292 111.029 66.6818 111.162 66.225C111.26 65.5124 111.136 64.7869 110.808 64.1469C110.248 62.452 109.673 60.6687 109.054 58.7969C106.623 51.1626 104.898 44.9136 105.208 44.8252C105.517 44.7367 107.743 50.8236 110.175 58.458C110.749 60.3297 111.309 62.1277 111.84 63.8374C112.231 64.6927 112.304 65.6595 112.046 66.5639C111.935 66.8009 111.771 67.0092 111.567 67.1728C111.362 67.3363 111.123 67.4507 110.867 67.5072C110.481 67.5943 110.084 67.629 109.688 67.6104C108.21 67.7236 106.724 67.6443 105.267 67.3745Z" fill="#263238"/>
<path d="M97.205 68.8173C97.6471 68.8173 97.4998 71.7649 99.8873 73.9609C102.275 76.1569 105.429 76.0242 105.429 76.4369C105.429 76.6138 104.707 76.9675 103.38 76.9233C101.663 76.864 100.022 76.1952 98.7525 75.0368C97.5315 73.925 96.7914 72.3814 96.6892 70.7333C96.6597 69.4953 97.0281 68.7878 97.205 68.8173Z" fill="#263238"/>
<path d="M97.2059 35.1588C96.9112 35.8662 94.2583 35.3799 91.0454 35.5862C87.8325 35.7925 85.2386 36.5295 84.8554 35.8515C84.6933 35.5273 85.1649 34.8641 86.2408 34.2008C87.6664 33.4008 89.256 32.9371 90.8882 32.8451C92.5204 32.7532 94.152 33.0354 95.6584 33.6703C96.7196 34.2008 97.2059 34.8051 97.2059 35.1588Z" fill="#263238"/>
<path d="M122.566 37.4113C122.05 37.9861 120.223 37.2639 117.997 37.1018C115.772 36.9397 113.841 37.2934 113.443 36.6302C113.266 36.306 113.59 35.7164 114.46 35.1564C115.599 34.5059 116.913 34.2276 118.218 34.3605C119.538 34.4581 120.793 34.9744 121.8 35.8343C122.566 36.4681 122.787 37.1166 122.566 37.4113Z" fill="#263238"/>
<path d="M67.461 54.5387C67.1663 54.3913 55.5821 50.3236 55.3168 62.3499C55.0515 74.3762 67.1957 72.1655 67.2252 71.8118C67.2547 71.4581 67.461 54.5387 67.461 54.5387Z" fill="#FFBE9D"/>
<path d="M63.6474 67.1864C63.6474 67.1864 63.441 67.319 63.0726 67.4811C62.5702 67.6768 62.0127 67.6768 61.5103 67.4811C60.2428 66.98 59.2259 64.9462 59.2112 62.7649C59.2142 61.7473 59.4353 60.7422 59.8597 59.8173C59.9797 59.4415 60.1903 59.1011 60.4731 58.8261C60.7558 58.551 61.1019 58.3499 61.4809 58.2403C61.7233 58.1811 61.9788 58.2093 62.2025 58.3198C62.4262 58.4303 62.6038 58.6161 62.7041 58.8446C62.8515 59.1835 62.7041 59.4194 62.8368 59.4341C62.9694 59.4488 63.1021 59.2425 63.0136 58.7414C62.9533 58.4413 62.792 58.1708 62.5567 57.975C62.2309 57.7204 61.818 57.6039 61.4072 57.6508C60.9098 57.7359 60.4427 57.9473 60.0504 58.2647C59.6582 58.5821 59.354 58.9949 59.167 59.4636C58.6415 60.5004 58.3688 61.6468 58.3711 62.8091C58.3711 65.2262 59.5944 67.5253 61.3187 68.0707C61.6386 68.1713 61.977 68.1984 62.3088 68.1499C62.6405 68.1014 62.9571 67.9786 63.2347 67.7906C63.6179 67.4664 63.6916 67.2011 63.6474 67.1864Z" fill="#EB996E"/>
<path d="M119.812 19.3131C121.772 18.2666 116.01 11.944 111.249 9.64483C104.057 6.28454 93.0475 4.11803 86.3564 5.91608C78.2946 8.09733 71.6182 12.0029 67.4473 19.2541C63.4848 26.6352 61.5474 34.934 61.8321 43.3068C61.7104 45.8616 62.2645 48.4034 63.4386 50.6758C65.0892 53.3582 68.2874 55.0973 68.0958 58.7376C67.9978 60.077 68.432 61.401 69.3043 62.4221C71.4709 64.795 74.1974 62.6285 75.4649 60.4472C78.1767 55.7605 78.5304 50.1305 78.8399 44.7364C79.2558 40.9109 79.0467 37.0432 78.2209 33.2848C77.6609 31.2804 76.7471 29.3645 76.2902 27.3896C76.0014 26.3821 75.9348 25.324 76.0952 24.2883C76.2555 23.2526 76.6388 22.2641 77.2187 21.3911C77.5181 21.038 77.8486 20.7125 78.2062 20.4184C79.9038 18.9757 81.9546 18.0105 84.1483 17.622C86.342 17.2335 88.5996 17.4357 90.6894 18.2077C97.4395 20.6837 108.965 24.4124 112.015 22.1575C116.437 18.9004 117.469 16.7634 117.469 16.7634L119.812 19.3131Z" fill="#263238"/>
<path d="M87.0055 4.2948C90.3143 3.17492 93.8116 2.71953 97.2968 2.95474C100.782 3.18996 104.186 4.11115 107.315 5.66546C108.989 6.46423 110.485 7.59247 111.713 8.98273C112.941 10.373 113.876 11.9967 114.463 13.7567C115.421 17.3233 113.844 21.7005 110.395 23.0417L110.159 23.1891C105.016 24.8545 101.685 24.1176 96.5853 22.2901C92.2965 20.7426 88.4941 18.0308 84.2053 16.5127C79.6025 14.8864 74.618 14.6759 69.8945 15.9085C74.4788 10.6011 80.3806 6.59543 87.0055 4.2948Z" fill="#263238"/>
<path d="M64.1152 16.1889C64.2184 16.2774 65.1911 15.1278 67.1513 13.7719C68.2832 12.9812 69.5052 12.3281 70.7916 11.8264C72.3393 11.1851 74.0122 10.9029 75.6847 11.0011C78.7527 11.3339 81.662 12.5355 84.0707 14.4646C85.9424 15.9384 86.7972 17.1764 86.9151 17.088C87.033 16.9995 86.7825 16.7195 86.3846 16.1595C85.8189 15.3759 85.1662 14.659 84.4391 14.0224C82.012 11.8797 78.9781 10.5456 75.7584 10.2052C73.9653 10.094 72.1716 10.4124 70.5263 11.1338C69.193 11.6848 67.943 12.419 66.8123 13.315C65.7224 14.074 64.8036 15.0531 64.1152 16.1889Z" fill="#455A64"/>
<path d="M100.785 3.20312C101.825 3.65671 102.887 4.05521 103.969 4.39693C109.041 6.42236 113.358 9.97652 116.319 14.5662C117.439 16.3201 117.985 17.5139 118.102 17.5139C117.875 16.3758 117.435 15.2909 116.806 14.3157C114.032 9.39457 109.523 5.6845 104.16 3.91057C103.089 3.46807 101.944 3.22819 100.785 3.20312Z" fill="#455A64"/>
<path d="M65.1633 90.4668L63.041 99.6192L112.37 130.26L110.159 114.991C105.671 110.384 100.614 106.368 95.1112 103.038C85.6335 97.7343 75.5872 93.5171 65.1633 90.4668Z" fill="#F5F5F5"/>
<path d="M61.1969 102.26C61.1969 102.26 46.0166 134.433 44.985 146.651C43.9533 158.869 48.0505 199.531 48.0505 199.531L116.524 277.643L184.865 282.183C184.865 282.183 152.514 214.152 145.278 200.887C138.042 187.623 113.709 127.506 113.709 127.506C111.815 122.53 108.892 118.01 105.131 114.242C95.861 104.411 77.8805 98.3539 61.698 95.082L61.1969 102.26Z" fill="#71389A"/>
<path d="M87.2705 115.997C97.4251 117.191 110.468 124.84 114.993 142.688L119.414 164.795L141.301 209.216L213.002 229.673L203.687 257.764C203.687 257.764 132.576 252.119 123.364 249.643C114.153 247.167 75.9222 192.945 75.9222 192.945C75.9222 192.945 56.7626 159.917 61.6999 135.584C64.1464 123.44 74.7431 114.524 87.2705 115.997Z" fill="#71389A"/>
<path d="M87.2701 115.994H85.5605C83.887 115.953 82.2135 116.076 80.5643 116.363C77.9048 116.895 75.3603 117.893 73.0478 119.311C69.9172 121.256 67.279 123.899 65.3398 127.033C64.1933 128.877 63.2823 130.858 62.628 132.929C62.4446 133.475 62.2921 134.031 62.1711 134.594C62.008 135.164 61.8897 135.745 61.8174 136.333C61.6552 137.527 61.4931 138.735 61.3163 139.973C60.9658 145.4 61.3175 150.849 62.3627 156.185C63.5431 162.285 65.2644 168.268 67.5063 174.063C69.9423 180.545 72.8485 186.84 76.2018 192.898C81.7433 200.695 87.7712 208.918 94.256 217.422C100.936 226.372 108.074 234.971 115.641 243.185C117.613 245.303 119.835 247.174 122.259 248.756C123.564 249.369 124.965 249.753 126.4 249.891C127.874 250.112 129.348 250.362 130.821 250.524C136.717 251.305 142.862 251.924 149.038 252.543C161.359 253.752 174.093 254.872 186.974 255.963L203.687 257.318L203.304 257.584C206.458 248.033 209.557 238.67 212.603 229.493L212.869 229.979L141.182 209.478H141.035V209.346L119.208 164.881C118.225 160.027 117.326 155.424 116.511 151.071C115.864 146.962 114.929 142.904 113.71 138.927C111.61 132.611 107.762 127.02 102.613 122.803C99.34 120.143 95.5659 118.169 91.5147 116.997C90.4772 116.699 89.4244 116.458 88.3608 116.274L87.2701 116.068C87.2701 116.068 87.6533 116.068 88.3755 116.201C89.45 116.345 90.5136 116.562 91.5589 116.849C95.61 117.974 99.3906 119.909 102.672 122.538C107.899 126.762 111.819 132.384 113.976 138.75C115.252 142.736 116.237 146.81 116.923 150.939C117.798 155.281 118.716 159.88 119.679 164.734L141.624 209.125L141.418 208.963L213.134 229.375L213.502 229.478L213.384 229.847C210.348 239.014 207.248 248.382 204.085 257.952L203.982 258.232H203.687L186.974 256.876C174.034 255.771 161.359 254.666 149.023 253.442C142.848 252.823 136.761 252.19 130.792 251.409C129.318 251.246 127.844 250.996 126.37 250.775C125.634 250.672 124.897 250.495 124.16 250.347C123.388 250.227 122.647 249.956 121.978 249.552C119.513 247.899 117.257 245.954 115.258 243.759C107.674 235.521 100.526 226.893 93.8434 217.909C87.3733 209.39 81.3601 201.151 75.8186 193.325C72.4683 187.232 69.567 180.903 67.1378 174.387C64.828 168.501 63.0523 162.419 61.8321 156.215C60.7983 150.842 60.4663 145.358 60.8446 139.9C61.0215 138.647 61.1984 137.409 61.3605 136.215C61.4428 135.622 61.5709 135.035 61.7437 134.461C61.8677 133.888 62.0251 133.322 62.2153 132.766C62.8857 130.657 63.8217 128.641 65.0008 126.768C66.9783 123.606 69.6686 120.951 72.8562 119.016C75.1995 117.586 77.7802 116.587 80.4759 116.068C82.1402 115.787 83.831 115.693 85.5163 115.788C86.6954 115.921 87.2701 115.994 87.2701 115.994Z" fill="#263238"/>
<path d="M128.92 226.371C129.14 225.337 129.518 224.343 130.04 223.423C131.143 221.127 132.456 218.936 133.96 216.88C135.468 214.824 137.16 212.91 139.016 211.161C139.735 210.385 140.571 209.724 141.492 209.201C141.654 209.378 138.043 212.576 134.579 217.337C131.116 222.097 129.141 226.474 128.92 226.371Z" fill="#263238"/>
<path d="M116.362 133.211C115.734 132.651 115.152 132.039 114.623 131.384C114.093 130.765 113.444 130.028 112.634 129.217C111.823 128.407 110.953 127.434 109.863 126.461C107.418 124.13 104.829 121.954 102.111 119.947C98.7645 117.509 95.2587 115.299 91.6169 113.33C84.9282 109.838 77.9138 107.01 70.674 104.885C67.9033 104.059 65.6336 103.411 64.0714 103.042C63.2463 102.872 62.4375 102.631 61.6543 102.32C62.494 102.401 63.3265 102.544 64.145 102.748C65.7368 103.057 68.0212 103.603 70.8214 104.354C78.1495 106.318 85.2412 109.075 91.9707 112.578C95.6482 114.556 99.1753 116.803 102.523 119.299C105.247 121.35 107.822 123.591 110.231 126.005C111.292 126.992 112.147 128.009 112.928 128.849C113.709 129.689 114.402 130.47 114.844 131.119C115.405 131.775 115.913 132.475 116.362 133.211Z" fill="#263238"/>
<path d="M326.425 153.093C326.113 153.001 325.786 152.97 325.463 153.003C325.139 153.037 324.826 153.134 324.54 153.288C324.254 153.443 324.001 153.652 323.796 153.905C323.591 154.157 323.437 154.447 323.344 154.759L298.408 238.147L214.872 251.117C213.577 251.32 212.415 252.028 211.642 253.086C210.868 254.144 210.546 255.466 210.745 256.762L302.254 242.495L328.061 156.159C328.245 155.536 328.177 154.865 327.871 154.291C327.565 153.717 327.045 153.287 326.425 153.093Z" fill="#E0E0E0"/>
<path d="M326.427 153.09C327.001 153.231 327.501 153.583 327.827 154.077C328.027 154.38 328.161 154.722 328.219 155.08C328.278 155.438 328.259 155.805 328.166 156.155L327.355 158.97L321.976 177.305L302.595 242.595V242.506V242.83H302.256L302.521 242.595L302.418 242.919L302.109 242.816H302.241L212.515 257.009L210.806 257.274H210.437V256.891C210.263 255.763 210.456 254.608 210.986 253.598C211.517 252.587 212.358 251.773 213.385 251.275C213.893 251.034 214.435 250.87 214.991 250.789L216.539 250.553L219.619 250.067L231.837 248.166L255.418 244.496L298.365 237.849L298.1 238.085C305.97 211.954 312.514 190.201 317.112 174.947L322.491 157.261C322.796 156.278 323.076 155.379 323.332 154.564C323.459 154.228 323.656 153.922 323.91 153.668C324.164 153.414 324.469 153.217 324.805 153.09C325.34 152.879 325.936 152.879 326.471 153.09C325.929 152.968 325.364 153.014 324.85 153.223C324.544 153.352 324.268 153.543 324.04 153.784C323.811 154.025 323.636 154.31 323.523 154.623C323.287 155.409 323.022 156.308 322.727 157.32L317.525 175.006C313 190.274 306.53 212.057 298.778 238.217V238.409H298.571L255.477 245.218L231.896 248.903L219.678 250.804L216.598 251.29C215.59 251.377 214.598 251.6 213.65 251.953C212.771 252.379 212.05 253.075 211.594 253.94C211.138 254.804 210.97 255.792 211.115 256.758L210.673 256.449L212.383 256.183L302.197 242.27H302.271L301.858 242.492V242.285H302.064L301.784 242.668V242.536C309.89 215.58 316.67 193.089 321.416 177.305C323.803 169.449 325.69 163.274 326.987 159.029L327.841 156.229C327.934 155.899 327.957 155.552 327.909 155.212C327.861 154.872 327.742 154.546 327.561 154.254C327.305 153.763 326.911 153.359 326.427 153.09Z" fill="#263238"/>
<path d="M302.272 242.552C302.095 242.67 301.211 241.639 300.12 240.401C299.03 239.163 298.16 238.116 298.307 237.954C298.455 237.792 299.59 238.603 300.71 239.9C301.83 241.197 302.449 242.435 302.272 242.552Z" fill="#455A64"/>
<path d="M288.492 241.299C288.492 241.21 288.86 240.93 289.45 241.299C289.636 241.397 289.79 241.546 289.895 241.728C289.999 241.911 290.049 242.12 290.039 242.33C290.028 242.595 289.933 242.85 289.768 243.057C289.603 243.264 289.376 243.414 289.12 243.485C288.865 243.555 288.593 243.543 288.345 243.449C288.097 243.355 287.885 243.186 287.74 242.964C287.614 242.797 287.538 242.598 287.52 242.389C287.502 242.181 287.542 241.971 287.637 241.785C287.99 241.166 288.521 241.269 288.492 241.357C288.462 241.446 288.212 241.608 288.138 241.991C288.122 242.094 288.131 242.2 288.164 242.299C288.197 242.398 288.254 242.487 288.329 242.559C288.404 242.632 288.496 242.685 288.596 242.714C288.696 242.744 288.802 242.748 288.904 242.728C289.012 242.697 289.11 242.636 289.185 242.553C289.261 242.47 289.311 242.367 289.332 242.256C289.347 242.163 289.338 242.068 289.304 241.98C289.27 241.892 289.214 241.814 289.14 241.755C288.801 241.387 288.536 241.387 288.492 241.299Z" fill="#455A64"/>
<path d="M293.824 240.474C293.824 240.386 294.192 240.106 294.782 240.474C294.969 240.571 295.125 240.72 295.229 240.903C295.334 241.086 295.383 241.295 295.371 241.506C295.353 241.768 295.254 242.018 295.088 242.221C294.921 242.425 294.696 242.571 294.443 242.641C294.19 242.702 293.925 242.688 293.681 242.598C293.437 242.509 293.225 242.35 293.072 242.14C292.946 241.972 292.87 241.773 292.852 241.565C292.834 241.357 292.874 241.147 292.969 240.961C293.337 240.342 293.853 240.43 293.824 240.519C293.794 240.607 293.544 240.784 293.47 241.152C293.45 241.249 293.454 241.35 293.483 241.445C293.511 241.54 293.562 241.627 293.632 241.698C293.706 241.781 293.801 241.844 293.907 241.88C294.013 241.916 294.126 241.925 294.236 241.904C294.343 241.87 294.438 241.808 294.513 241.726C294.589 241.643 294.64 241.542 294.664 241.432C294.682 241.337 294.674 241.239 294.64 241.148C294.606 241.057 294.548 240.977 294.472 240.916C294.163 240.577 293.868 240.577 293.824 240.474Z" fill="#455A64"/>
<path d="M87.7269 350.303L53.8145 461.709L66.1798 461.827L112.001 349.139L87.7269 350.303Z" fill="#263238"/>
<path d="M233.563 335.123C233.474 335.123 271.882 461.517 271.882 461.517L284.144 461.694L260.504 332.588L233.563 335.123Z" fill="#263238"/>
<path d="M34.7288 173.314C32.8785 171.606 30.5748 170.469 28.094 170.037C25.6131 169.606 23.0605 169.899 20.7423 170.882C11.2362 174.935 -2.67658 183.248 0.447907 196.379C4.35352 212.798 49.3049 319.885 63.8072 354.284C65.1314 357.42 67.3563 360.092 70.2003 361.963C73.0443 363.834 76.3794 364.818 79.7833 364.792L268.166 363.201C270.136 363.182 272.079 362.745 273.867 361.92C275.656 361.095 277.249 359.9 278.541 358.414C279.834 356.927 280.797 355.184 281.366 353.298C281.935 351.413 282.098 349.428 281.843 347.475L274.798 293.975C273.666 285.38 269.639 277.428 263.38 271.429C257.122 265.43 249.005 261.744 240.37 260.977L118.545 250.159L34.7288 173.314Z" fill="#455A64"/>
<path d="M57.6494 337.643C57.6 337.515 57.5654 337.381 57.5462 337.245C57.5462 336.95 57.4135 336.582 57.3104 336.11C57.104 335.049 56.824 333.575 56.4703 331.689C55.7776 327.798 54.7754 322.286 53.5227 315.477C52.2699 308.668 50.8698 300.459 49.2781 291.409C48.497 286.885 47.6569 282.124 46.8021 277.202C46.3747 274.726 45.9325 272.22 45.4904 269.671C44.8969 267.062 44.8267 264.362 45.2841 261.727C45.6066 260.388 46.2261 259.139 47.0968 258.072C47.9965 257.024 49.0931 256.162 50.3245 255.537C52.6459 254.428 55.1368 253.715 57.6936 253.429C62.7045 252.869 67.5092 252.589 72.1075 252.25C81.2893 251.616 89.5574 251.204 96.5138 250.924C103.47 250.644 109.1 250.526 112.991 250.467H117.413H118.577H118.975C118.843 250.483 118.709 250.483 118.577 250.467H117.413L112.991 250.644L96.5433 251.351C89.5869 251.69 81.3188 252.162 72.1517 252.825C67.5829 253.179 62.734 253.488 57.7967 254.048C55.3058 254.312 52.8783 255 50.6193 256.082C49.4837 256.631 48.4822 257.423 47.6853 258.4C46.8883 259.378 46.3152 260.518 46.0062 261.741C45.5712 264.281 45.6464 266.881 46.2273 269.391C46.6596 271.945 47.087 274.451 47.5095 276.907C48.3643 281.82 49.1749 286.561 49.9413 291.129C51.4151 300.193 52.8889 308.343 54.0238 315.226C55.1586 322.109 56.0724 327.577 56.7061 331.438C57.0009 333.31 57.2367 334.798 57.3988 335.86C57.3988 336.331 57.5167 336.714 57.5609 337.024C57.631 337.222 57.6611 337.433 57.6494 337.643Z" fill="#263238"/>
<path d="M273.298 332.588C273.298 332.795 224.662 332.971 164.633 332.971C104.605 332.971 55.9395 332.795 55.9395 332.588C55.9395 332.382 104.575 332.205 164.619 332.205C224.662 332.205 273.298 332.382 273.298 332.588Z" fill="#263238"/>
<path d="M79.2958 251.869C79.1337 252.016 64.2629 234.905 46.076 213.667C27.8891 192.43 13.2689 175.098 13.431 174.95C13.5931 174.803 28.4639 191.914 46.6508 213.166C64.8377 234.419 79.5169 251.736 79.2958 251.869Z" fill="#263238"/>
</svg>
