<svg width="109" height="78" viewBox="0 0 109 78" fill="none" xmlns="http://www.w3.org/2000/svg">
<path d="M102.757 58.5675C102.138 58.1798 101.367 58.7281 100.572 58.3474C99.7777 57.965 99.7854 57.5431 98.8099 57.2935C97.8311 57.042 96.9898 56.4176 96.5114 56.4004C96.0308 56.3823 96.1797 55.9036 95.5504 55.7502C94.9207 55.5925 94.5909 55.3636 94.1643 54.9646C93.7251 54.5781 92.3335 53.5946 91.726 53.3405C91.0877 53.1071 90.7812 52.3172 90.5896 51.9324C90.5239 51.8092 90.4902 51.7031 90.4745 51.6173C90.4678 51.5808 90.4859 51.5498 90.5123 51.5317C90.5123 51.5317 90.5123 51.5317 90.5123 51.5316C90.5452 51.5091 90.5905 51.5061 90.6188 51.5372C90.7557 51.6891 91 51.8937 91.349 52.0432C92.001 52.3013 91.8543 52.5781 92.6655 52.9951C93.4871 53.3874 94.0791 53.4074 94.9447 54.0441C95.8339 54.6712 96.35 54.0884 97.5903 55.0443C98.8591 55.9897 99.2875 55.305 100.752 55.7023C102.222 56.0947 103.942 57.1048 104.841 57.3846C105.071 57.4551 105.329 57.5326 105.593 57.6165L105.987 57.7982L106.11 58.0389C106.254 58.2604 106.304 58.5396 106.306 58.7004C106.312 58.8626 106.285 59.0205 106.26 59.1254C106.213 59.3297 106.14 59.5 106.077 59.6322C105.941 59.915 105.804 60.1269 105.654 60.3428C105.357 60.7644 105.028 61.1423 104.666 61.5045C103.702 62.4622 102.758 63.818 101.619 64.7368C100.478 65.6543 98.899 66.9684 98.1528 67.5621C97.4059 68.1546 97.2211 68.3066 96.7151 69.0606C96.4272 69.4957 95.9523 70.0124 95.4627 70.4119C95.223 70.6094 95.1269 70.4901 95.2399 70.1838C95.4088 69.7404 95.6919 69.48 95.6986 69.1813C95.7094 68.5933 95.7439 68.3359 96.2857 68.0152C96.831 67.6948 96.6684 67.179 96.9409 66.9559C97.2196 66.7317 97.4052 66.9183 98.4538 65.4956C99.5046 64.0807 100.133 63.3597 100.55 62.8498C100.968 62.3395 102.086 61.5198 102.728 60.6736C102.972 60.3506 103.343 59.9183 103.684 59.4723C103.86 59.2419 104.016 59.0225 104.13 58.8224C104.181 58.7354 104.225 58.6373 104.23 58.61C104.232 58.5998 104.223 58.6002 104.213 58.674C104.205 58.7281 104.197 58.9258 104.325 59.1395L104.87 59.5847C104.594 59.4982 104.339 59.43 104.145 59.3961C103.28 59.2464 103.375 58.9557 102.757 58.5675Z" fill="#71389A"/>
<path d="M52.8589 56.3176C49.905 55.011 47.2505 53.3664 44.4781 51.7165C41.0324 49.6646 37.5424 47.4952 34.4698 44.8589C31.4186 42.2425 28.589 39.3327 26.0947 36.1723C23.593 33.0042 21.4361 29.5992 19.6753 25.9754C17.9212 22.3672 16.5796 18.5656 15.6801 14.6714C15.0725 12.0466 14.6582 9.33837 14.4426 6.66556C14.3453 5.47337 14.2869 4.2939 14.2632 3.12612C14.2453 2.24934 14.2461 1.36377 14.2662 0.469386C14.269 0.34505 14.2838 0.225657 14.3079 0.137607C14.3321 0.0495623 14.3633 -8.16738e-05 14.3955 4.27696e-05C14.4277 0.000207614 14.4589 0.0501863 14.4834 0.138187C14.5078 0.226139 14.5233 0.345091 14.5279 0.468857C14.5606 1.36656 14.6128 2.25301 14.6837 3.12812C14.7626 4.09922 14.8636 5.05468 14.9927 6.04377C14.8771 6.21153 14.7989 6.43494 14.8004 6.83654C14.8011 7.04145 14.8275 7.33698 14.8796 7.54961C14.9263 7.7406 14.9848 7.88085 15.0407 8.01353C15.0993 8.15231 15.1552 8.28343 15.1936 8.4565C15.2588 8.75022 15.3572 9.02264 15.4626 9.30636C15.5007 9.40829 15.5408 9.51771 15.5805 9.62894C15.7627 10.5559 15.9669 11.4687 16.192 12.3672C16.2552 12.7195 16.3182 13.0415 16.388 13.3101C16.4509 13.5521 16.5313 13.7613 16.6225 13.9803C16.6621 14.1203 16.7022 14.26 16.7429 14.3993C17.0051 15.2984 17.2885 16.1833 17.5924 17.0537C17.7761 17.7449 17.9871 18.4823 18.317 19.4171C18.4593 19.8195 18.5924 20.2182 18.7244 20.5994C18.9196 21.163 19.1112 21.6854 19.3248 22.1294C19.4685 22.4284 19.5929 22.7537 19.7203 23.0767C19.8909 23.5099 20.0672 23.9397 20.2969 24.2938C20.4412 24.5164 20.5837 24.7151 20.7165 24.898C20.928 25.1889 21.1149 25.4399 21.2484 25.6855C21.5015 26.1512 21.7596 26.5342 21.989 26.8677C22.2653 27.2691 22.5011 27.6006 22.648 27.9274C22.6702 27.977 22.6948 28.0342 22.7226 28.0987C22.8695 28.4387 23.1039 28.9792 23.5971 29.6695C23.7728 29.915 23.9606 30.1302 24.1457 30.3391C24.4154 30.6432 24.6794 30.9346 24.8976 31.2908C24.9302 31.3441 24.9549 31.4061 24.9775 31.4627C25.0063 31.5346 25.0316 31.5973 25.0651 31.6214C25.1632 31.6922 25.3037 31.8149 25.457 31.9469C25.5696 32.0439 25.6893 32.146 25.8037 32.2369C26.4569 33.094 27.1363 33.9358 27.8348 34.7557C28.1551 35.1317 28.4789 35.5025 28.809 35.8716C28.9294 36.1019 29.0598 36.3323 29.2112 36.5641C29.4092 36.867 29.7075 37.2239 30.0997 37.6769C30.3884 38.0102 30.7282 38.3957 31.1196 38.8494C31.8448 39.6915 32.6789 40.4715 33.2382 40.9414C33.3564 41.041 33.4759 41.1403 33.6041 41.2459C34.0916 41.6447 34.6989 42.1454 35.8677 43.0705C36.9746 43.9436 37.9261 44.6719 38.6486 45.2093C39.0174 45.4835 39.3264 45.7079 39.5664 45.8755C39.977 46.1623 40.4815 46.512 40.9944 46.8569C41.7959 47.3972 42.6153 47.9201 43.0887 48.2005C43.2571 48.3005 43.4351 48.4036 43.6275 48.514C44.1603 48.8192 44.8096 49.1857 45.6982 49.6919C46.6324 50.2223 47.2028 50.5602 47.7927 50.9243C48.0329 51.072 48.2266 51.2355 48.427 51.4034C48.7114 51.6414 49.0102 51.889 49.4758 52.1064C49.5845 52.1571 49.7035 52.2054 49.828 52.2555C50.0567 52.3475 50.3042 52.4458 50.5416 52.5779C50.6244 52.6239 50.6928 52.6736 50.7599 52.7221C50.8337 52.7756 50.9062 52.8278 50.9953 52.873C51.3295 53.0422 51.6594 53.1992 51.9526 53.3366C52.3308 53.5141 52.649 53.6597 52.8406 53.7622C53.1823 53.9451 53.5748 54.104 53.9728 54.2612C54.2772 54.3815 54.5829 54.5 54.8766 54.6308C55.7147 55.0048 56.8916 55.4576 58.1158 55.8669C58.5765 56.0209 58.9596 56.1999 59.445 56.4221C59.7475 56.5605 60.0919 56.7163 60.5257 56.8922C60.7717 56.9918 60.9927 57.0393 61.1971 57.0826C61.3854 57.1225 61.5598 57.1588 61.7275 57.2287C61.8756 57.2903 61.9566 57.3668 62.0336 57.4395C62.1188 57.5202 62.2018 57.5969 62.3664 57.6415C62.4541 57.6653 62.5662 57.6773 62.6994 57.6912C62.7521 57.6968 62.8083 57.7027 62.8674 57.7096C62.8616 57.7178 62.8583 57.7256 62.8563 57.7318C62.8422 57.775 63.0001 57.8512 63.1552 57.9251C63.2171 57.9547 63.2789 57.984 63.3287 58.0108C63.512 58.1097 63.8799 58.231 64.1628 58.3152C64.2825 58.3509 64.3866 58.3972 64.5083 58.4509C64.6162 58.4986 64.738 58.5522 64.8966 58.609C64.987 58.6414 65.054 58.6748 65.1093 58.7025C65.1494 58.7225 65.1835 58.7395 65.2164 58.7509C65.2448 58.7608 65.2718 58.7551 65.3022 58.7486C65.324 58.7439 65.3477 58.7388 65.3749 58.7389C65.4401 58.7392 65.5189 58.7562 65.5716 58.7773C65.5959 58.787 65.6143 58.7976 65.6326 58.8081C65.6539 58.8203 65.675 58.8325 65.7058 58.8434C65.8464 58.8933 65.9951 58.9198 66.1465 58.9461C66.3136 58.9751 66.4876 59.0049 66.6726 59.069C66.7308 59.0892 66.7915 59.1155 66.8503 59.1409C66.9118 59.1676 66.9716 59.1933 67.0239 59.2099C67.2361 59.2772 67.4463 59.299 67.6393 59.3183C67.7676 59.3311 67.8886 59.343 67.9976 59.3665C68.1974 59.4095 68.313 59.3982 68.3982 59.3899C68.4424 59.3856 68.4784 59.382 68.5139 59.387C68.5454 59.396 68.5773 59.4053 68.6085 59.4145C68.6367 59.4245 68.6659 59.4348 68.6942 59.4408C68.6963 59.4412 68.6985 59.4416 68.7006 59.442C68.8748 59.4949 69.0449 59.5502 69.2139 59.6047C69.5898 59.7262 69.9774 59.8474 70.3907 59.9235C70.4799 59.94 70.5736 59.9445 70.6687 59.9488C70.7853 59.9542 70.9044 59.9594 71.0208 59.9863C71.2983 60.0505 71.5733 60.1362 71.8441 60.2192C72.2514 60.344 72.6495 60.4626 73.0292 60.4926C73.1547 60.5026 73.2774 60.5023 73.4054 60.5025C73.4761 60.5025 73.5471 60.5024 73.6183 60.5039C73.5998 60.5222 73.5883 60.5405 73.5776 60.5575C73.5556 60.5926 73.5366 60.6226 73.4649 60.6378C73.2945 60.6734 73.102 60.7294 73.1092 60.7984C73.1111 60.8172 73.1031 60.8361 73.0946 60.8551C73.0735 60.9027 73.0513 60.9514 73.1913 61.0018C73.2874 61.0362 73.5352 61.1194 73.7037 61.1107C73.7404 61.1088 73.7649 61.0962 73.792 61.0822C73.8408 61.057 73.8988 61.0273 74.0531 61.0456C74.079 61.0486 74.1072 61.0522 74.1363 61.0561C74.2523 61.0714 74.3821 61.0883 74.4348 61.0701C74.4955 61.0492 74.4897 61.0121 74.4831 60.969C74.4743 60.9127 74.4641 60.846 74.5962 60.7905C74.6223 60.7795 74.6681 60.7821 74.7027 60.784C74.727 60.7853 74.7456 60.7862 74.7483 60.782C74.7512 60.7771 74.7454 60.765 74.7381 60.7497C74.712 60.6955 74.6673 60.6012 74.9156 60.6396C74.9827 60.65 75.0586 60.6669 75.1266 60.6819C75.2269 60.7041 75.3101 60.7222 75.3236 60.7102C75.3287 60.7057 75.3326 60.7005 75.3361 60.695C75.4162 60.7098 75.4963 60.7245 75.5764 60.7391C75.6768 60.7721 75.8217 60.7937 76.0021 60.8198C76.0459 60.8261 76.092 60.8328 76.1399 60.8399C76.2975 60.8675 76.4549 60.8946 76.6121 60.9213C76.7367 60.9468 76.8651 60.977 77.007 61.0157C77.2903 61.0929 77.5326 61.1869 77.7695 61.2777C77.8693 61.316 77.9683 61.3538 78.0689 61.3894C78.0282 61.387 77.9914 61.3856 77.9628 61.3864C77.767 61.3923 77.6818 61.4422 77.6034 61.4882C77.5512 61.5188 77.5018 61.5477 77.4247 61.5601C77.2836 61.5828 77.2905 61.6326 77.2956 61.6696C77.2983 61.6887 77.3001 61.7044 77.2808 61.7108C77.2653 61.716 77.2311 61.7148 77.1958 61.7135C77.1651 61.7123 77.1333 61.7112 77.1124 61.7142C76.8591 61.7504 76.9263 61.8014 77.0247 61.8759C77.079 61.9169 77.1424 61.9649 77.1668 62.0215C77.1863 62.0805 77.175 62.0955 77.0437 62.0997C77.1398 62.1409 77.2359 62.1819 77.332 62.2228C77.3714 62.2263 77.4034 62.2132 77.4489 62.1905C77.5302 62.1498 77.7747 62.1634 77.9651 62.1729C78.0533 62.1773 78.13 62.181 78.1738 62.1785C78.4068 62.1654 78.3474 62.0995 78.2955 62.0416C78.2669 62.0098 78.2406 61.9803 78.2661 61.9633C78.2769 61.956 78.264 61.9458 78.2509 61.9355C78.2409 61.9275 78.2305 61.9193 78.2309 61.9123C78.2343 61.8615 78.3732 61.8407 78.5016 61.8209C78.5751 61.8096 78.6452 61.7986 78.685 61.7829C78.6972 61.7781 78.707 61.7729 78.7162 61.7678C78.7296 61.7604 78.7427 61.7534 78.7625 61.7484C78.8076 61.7369 78.8976 61.7362 78.9961 61.7352C79.0466 61.7347 79.0993 61.7341 79.1493 61.732C79.214 61.7292 79.2391 61.7118 79.2656 61.6936C79.2843 61.6807 79.3039 61.6675 79.3381 61.6586C79.4001 61.6425 79.5209 61.6475 79.6329 61.6517C79.6816 61.6536 79.7288 61.6552 79.7687 61.6551C79.7849 61.6551 79.7929 61.6524 79.7951 61.6479C79.979 61.6511 80.1542 61.6523 80.3243 61.6529C81.1935 61.6561 81.9525 61.6508 83.0482 61.7672C83.2556 61.7889 83.4785 61.7992 83.703 61.8028C84.4257 61.8587 85.1739 61.9044 85.8969 61.9373C86.0399 61.9855 86.2151 62.0264 86.4222 62.0583C86.8152 62.118 87.1959 62.1304 87.6906 62.1388C88.0491 62.1449 88.446 62.1488 88.9049 62.1656C89.6821 62.193 90.4349 62.2009 91.3555 62.1538C92.2594 62.1083 93.2408 62.0199 93.9641 61.9299C94.3614 61.8812 94.779 61.8619 95.1647 61.8392C95.7073 61.8075 96.1868 61.7686 96.4579 61.6455C96.5441 61.6063 96.6252 61.5511 96.7084 61.4962C96.7668 61.4573 96.8242 61.4191 96.8813 61.3876C97.0452 61.3604 97.2082 61.3322 97.3703 61.3033C97.6657 61.287 98.1182 61.2348 98.5215 61.0795C98.6839 61.0453 98.8453 61.0101 99.0001 60.9754C99.3285 60.9019 99.6878 60.8145 100.028 60.7261C100.14 60.697 100.252 60.6672 100.364 60.6367C100.366 60.6364 100.367 60.6361 100.368 60.6359C100.593 60.5745 100.818 60.5106 101.037 60.4459C101.131 60.4182 101.224 60.3901 101.317 60.3616C101.557 60.288 101.777 60.2181 102.026 60.1338C102.154 60.0906 102.282 60.0461 102.41 60.0008C102.617 59.9274 102.823 59.8514 103.026 59.7737C103.353 59.6482 103.672 59.5181 103.985 59.3825C104.036 59.3603 104.088 59.3437 104.128 59.3368C104.169 59.3299 104.195 59.3332 104.202 59.3468C104.208 59.3605 104.195 59.3837 104.165 59.4117C104.134 59.4396 104.09 59.4701 104.04 59.4968C103.738 59.6598 103.428 59.8176 103.109 59.971C102.912 60.0658 102.711 60.1591 102.508 60.2497C102.383 60.3056 102.258 60.3606 102.132 60.4144C101.887 60.5187 101.671 60.6086 101.435 60.7022C101.344 60.7385 101.252 60.7744 101.159 60.8101C100.943 60.8934 100.72 60.976 100.496 61.0559C100.494 61.0564 100.493 61.0568 100.492 61.0573C100.381 61.0966 100.271 61.1354 100.16 61.1733C99.823 61.2893 99.4655 61.4042 99.1385 61.5049C98.9647 61.5585 98.7819 61.6129 98.5989 61.6657C98.4971 61.6951 98.3949 61.7241 98.2942 61.7523C98.2391 61.7676 98.1832 61.783 98.1267 61.7984C96.8036 62.158 95.544 62.4299 94.1865 62.6584C92.8661 62.8807 91.5298 63.0452 90.1886 63.1599C88.8792 63.2737 87.4775 63.3397 86.1687 63.3613C77.6141 63.4782 69.0708 62.0122 60.8791 59.375C59.7181 58.9995 58.5242 58.5837 57.3702 58.1529C56.2106 57.72 55.0785 57.2694 53.9264 56.7801C53.5767 56.6316 53.2231 56.4785 52.8589 56.3176Z" fill="#71389A"/>
</svg>
