<svg width="145" height="102" viewBox="0 0 145 102" fill="none" xmlns="http://www.w3.org/2000/svg">
<path d="M135.744 5.28516H7.19141V101.296H135.744V5.28516Z" fill="#71389A"/>
<path opacity="0.8" d="M135.744 5.28516H7.19141V101.296H135.744V5.28516Z" fill="white"/>
<path d="M130.725 2.30078H2.44531V8.81014H130.725V2.30078Z" fill="#71389A"/>
<path d="M22.1041 5.95978H0.951213C0.826542 5.96046 0.702963 5.93648 0.587586 5.88924C0.47221 5.842 0.367306 5.77242 0.27891 5.6845C0.190514 5.59658 0.120374 5.49207 0.0725088 5.37695C0.0246432 5.26183 -1.84114e-06 5.13838 1.03171e-10 5.01371C1.03171e-10 4.76143 0.100218 4.51949 0.278604 4.3411C0.456991 4.16272 0.698936 4.0625 0.951213 4.0625H22.1041C22.3563 4.0625 22.5983 4.16272 22.7767 4.3411C22.9551 4.51949 23.0553 4.76143 23.0553 5.01371C23.0553 5.13838 23.0306 5.26183 22.9828 5.37695C22.9349 5.49207 22.8648 5.59658 22.7764 5.6845C22.688 5.77242 22.5831 5.842 22.4677 5.88924C22.3523 5.93648 22.2287 5.96046 22.1041 5.95978Z" fill="#71389A"/>
<path opacity="0.8" d="M22.1041 5.95978H0.951213C0.826542 5.96046 0.702963 5.93648 0.587586 5.88924C0.47221 5.842 0.367306 5.77242 0.27891 5.6845C0.190514 5.59658 0.120374 5.49207 0.0725088 5.37695C0.0246432 5.26183 -1.84114e-06 5.13838 1.03171e-10 5.01371C1.03171e-10 4.76143 0.100218 4.51949 0.278604 4.3411C0.456991 4.16272 0.698936 4.0625 0.951213 4.0625H22.1041C22.3563 4.0625 22.5983 4.16272 22.7767 4.3411C22.9551 4.51949 23.0553 4.76143 23.0553 5.01371C23.0553 5.13838 23.0306 5.26183 22.9828 5.37695C22.9349 5.49207 22.8648 5.59658 22.7764 5.6845C22.688 5.77242 22.5831 5.842 22.4677 5.88924C22.3523 5.93648 22.2287 5.96046 22.1041 5.95978Z" fill="white"/>
<path d="M113.974 3.39351C114.911 3.39351 115.671 2.63385 115.671 1.69675C115.671 0.759664 114.911 0 113.974 0C113.037 0 112.277 0.759664 112.277 1.69675C112.277 2.63385 113.037 3.39351 113.974 3.39351Z" fill="#71389A"/>
<path opacity="0.8" d="M113.974 3.39351C114.911 3.39351 115.671 2.63385 115.671 1.69675C115.671 0.759664 114.911 0 113.974 0C113.037 0 112.277 0.759664 112.277 1.69675C112.277 2.63385 113.037 3.39351 113.974 3.39351Z" fill="#28C840"/>
<path d="M119.673 3.39351C120.61 3.39351 121.37 2.63385 121.37 1.69675C121.37 0.759664 120.61 0 119.673 0C118.736 0 117.977 0.759664 117.977 1.69675C117.977 2.63385 118.736 3.39351 119.673 3.39351Z" fill="#71389A"/>
<path opacity="0.8" d="M119.673 3.39351C120.61 3.39351 121.37 2.63385 121.37 1.69675C121.37 0.759664 120.61 0 119.673 0C118.736 0 117.977 0.759664 117.977 1.69675C117.977 2.63385 118.736 3.39351 119.673 3.39351Z" fill="#FEBC2E"/>
<path d="M125.369 3.39351C126.306 3.39351 127.065 2.63385 127.065 1.69675C127.065 0.759664 126.306 0 125.369 0C124.432 0 123.672 0.759664 123.672 1.69675C123.672 2.63385 124.432 3.39351 125.369 3.39351Z" fill="#71389A"/>
<path opacity="0.8" d="M125.369 3.39351C126.306 3.39351 127.065 2.63385 127.065 1.69675C127.065 0.759664 126.306 0 125.369 0C124.432 0 123.672 0.759664 123.672 1.69675C123.672 2.63385 124.432 3.39351 125.369 3.39351Z" fill="#FF5F57"/>
<path d="M120.5 46.5565V18.4727L75.1298 18.4727V46.5565H120.5Z" fill="#71389A"/>
<path opacity="0.5" d="M120.5 46.5565V18.4727L75.1298 18.4727V46.5565H120.5Z" fill="white"/>
<path d="M119.988 40.4097V18.9844L75.6465 18.9844V40.4097H119.988Z" fill="white"/>
<path d="M96.582 44.8589L99.4974 43.481L96.582 42.1133V44.8589Z" fill="white"/>
<path d="M106.911 42.1133V43.4244L104.129 42.1133V44.8589L106.911 43.5427V44.8589H107.193V42.1133H106.911Z" fill="white"/>
<path d="M88.732 42.1133H88.4492V44.8589H88.732V43.5427L91.5188 44.8589V42.1133L88.732 43.4244V42.1133Z" fill="white"/>
<path d="M145 85.6034V57.5195H99.6299V85.6034H145Z" fill="#71389A"/>
<path opacity="0.5" d="M145 85.6034V57.5195H99.6299V85.6034H145Z" fill="white"/>
<path d="M121.818 71.5642L100.141 58.3398V84.7886L121.818 71.5642Z" fill="white"/>
<path d="M143.984 58.0391H100.629L122.306 71.2635L143.984 58.0391Z" fill="white"/>
<path d="M122.306 71.8633L100.629 85.0877H143.984L122.306 71.8633Z" fill="white"/>
<path d="M122.809 71.5642L144.486 84.7886V58.3398L122.809 71.5642Z" fill="white"/>
<path d="M141.909 52.8828H98.6517C98.3463 52.8828 98.0533 53.0042 97.8373 53.2201C97.6213 53.4361 97.5 53.7291 97.5 54.0346C97.5 54.34 97.6213 54.633 97.8373 54.8489C98.0533 55.0649 98.3463 55.1863 98.6517 55.1863H141.909C142.214 55.1863 142.507 55.0649 142.723 54.8489C142.939 54.633 143.06 54.34 143.06 54.0346C143.06 53.7291 142.939 53.4361 142.723 53.2201C142.507 53.0042 142.214 52.8828 141.909 52.8828Z" fill="#71389A"/>
<path opacity="0.5" d="M141.909 52.8828H98.6517C98.3463 52.8828 98.0533 53.0042 97.8373 53.2201C97.6213 53.4361 97.5 53.7291 97.5 54.0346C97.5 54.34 97.6213 54.633 97.8373 54.8489C98.0533 55.0649 98.3463 55.1863 98.6517 55.1863H141.909C142.214 55.1863 142.507 55.0649 142.723 54.8489C142.939 54.633 143.06 54.34 143.06 54.0346C143.06 53.7291 142.939 53.4361 142.723 53.2201C142.507 53.0042 142.214 52.8828 141.909 52.8828Z" fill="white"/>
<path d="M115.476 14.1016H72.2142C71.5781 14.1016 71.0625 14.6172 71.0625 15.2533C71.0625 15.8894 71.5781 16.405 72.2142 16.405H115.476C116.112 16.405 116.628 15.8894 116.628 15.2533C116.628 14.6172 116.112 14.1016 115.476 14.1016Z" fill="#71389A"/>
<path opacity="0.5" d="M115.476 14.1016H72.2142C71.5781 14.1016 71.0625 14.6172 71.0625 15.2533C71.0625 15.8894 71.5781 16.405 72.2142 16.405H115.476C116.112 16.405 116.628 15.8894 116.628 15.2533C116.628 14.6172 116.112 14.1016 115.476 14.1016Z" fill="white"/>
<path d="M44.6833 14.1016H1.42127C0.785184 14.1016 0.269531 14.6172 0.269531 15.2533C0.269531 15.8894 0.785184 16.405 1.42127 16.405H44.6833C45.3194 16.405 45.8351 15.8894 45.8351 15.2533C45.8351 14.6172 45.3194 14.1016 44.6833 14.1016Z" fill="#71389A"/>
<path opacity="0.5" d="M44.6833 14.1016H1.42127C0.785184 14.1016 0.269531 14.6172 0.269531 15.2533C0.269531 15.8894 0.785184 16.405 1.42127 16.405H44.6833C45.3194 16.405 45.8351 15.8894 45.8351 15.2533C45.8351 14.6172 45.3194 14.1016 44.6833 14.1016Z" fill="white"/>
<path d="M77.3317 71.0664H43.8748C43.7112 71.0664 43.5542 71.1314 43.4385 71.2471C43.3228 71.3628 43.2578 71.5198 43.2578 71.6834C43.2578 71.8471 43.3228 72.004 43.4385 72.1197C43.5542 72.2354 43.7112 72.3004 43.8748 72.3004H77.3317C77.4953 72.3004 77.6523 72.2354 77.768 72.1197C77.8837 72.004 77.9487 71.8471 77.9487 71.6834C77.9487 71.5198 77.8837 71.3628 77.768 71.2471C77.6523 71.1314 77.4953 71.0664 77.3317 71.0664Z" fill="#71389A"/>
<path opacity="0.5" d="M77.3317 71.0664H43.8748C43.7112 71.0664 43.5542 71.1314 43.4385 71.2471C43.3228 71.3628 43.2578 71.5198 43.2578 71.6834C43.2578 71.8471 43.3228 72.004 43.4385 72.1197C43.5542 72.2354 43.7112 72.3004 43.8748 72.3004H77.3317C77.4953 72.3004 77.6523 72.2354 77.768 72.1197C77.8837 72.004 77.9487 71.8471 77.9487 71.6834C77.9487 71.5198 77.8837 71.3628 77.768 71.2471C77.6523 71.1314 77.4953 71.0664 77.3317 71.0664Z" fill="white"/>
<path d="M77.3378 74.024H43.8809C43.7999 74.0273 43.7203 74.0466 43.6467 74.0807C43.5731 74.1148 43.5069 74.163 43.452 74.2227C43.3971 74.2824 43.3545 74.3524 43.3266 74.4286C43.2987 74.5047 43.2862 74.5857 43.2896 74.6667C43.2889 74.7479 43.3044 74.8285 43.3352 74.9036C43.366 74.9788 43.4114 75.0471 43.4688 75.1045C43.5262 75.162 43.5945 75.2074 43.6697 75.2381C43.7449 75.2689 43.8254 75.2844 43.9066 75.2837H77.3635C77.5271 75.2837 77.6841 75.2187 77.7998 75.103C77.9155 74.9873 77.9805 74.8303 77.9805 74.6667C77.9841 74.5813 77.97 74.4961 77.939 74.4165C77.908 74.3369 77.8608 74.2646 77.8004 74.2041C77.7399 74.1437 77.6676 74.0965 77.588 74.0655C77.5084 74.0345 77.4232 74.0204 77.3378 74.024Z" fill="#71389A"/>
<path opacity="0.5" d="M77.3378 74.024H43.8809C43.7999 74.0273 43.7203 74.0466 43.6467 74.0807C43.5731 74.1148 43.5069 74.163 43.452 74.2227C43.3971 74.2824 43.3545 74.3524 43.3266 74.4286C43.2987 74.5047 43.2862 74.5857 43.2896 74.6667C43.2889 74.7479 43.3044 74.8285 43.3352 74.9036C43.366 74.9788 43.4114 75.0471 43.4688 75.1045C43.5262 75.162 43.5945 75.2074 43.6697 75.2381C43.7449 75.2689 43.8254 75.2844 43.9066 75.2837H77.3635C77.5271 75.2837 77.6841 75.2187 77.7998 75.103C77.9155 74.9873 77.9805 74.8303 77.9805 74.6667C77.9841 74.5813 77.97 74.4961 77.939 74.4165C77.908 74.3369 77.8608 74.2646 77.8004 74.2041C77.7399 74.1437 77.6676 74.0965 77.588 74.0655C77.5084 74.0345 77.4232 74.0204 77.3378 74.024Z" fill="white"/>
<path d="M77.3317 77.0078H43.8748C43.7934 77.0078 43.7127 77.0239 43.6375 77.0553C43.5623 77.0866 43.4941 77.1325 43.4367 77.1903C43.3794 77.2482 43.334 77.3168 43.3033 77.3923C43.2726 77.4677 43.2572 77.5485 43.2578 77.63C43.2578 77.7936 43.3228 77.9505 43.4385 78.0662C43.5543 78.182 43.7112 78.247 43.8748 78.247H77.3317C77.4954 78.247 77.6523 78.182 77.768 78.0662C77.8837 77.9505 77.9487 77.7936 77.9487 77.63C77.9487 77.4659 77.8839 77.3084 77.7683 77.1919C77.6528 77.0753 77.4958 77.0092 77.3317 77.0078Z" fill="#71389A"/>
<path opacity="0.5" d="M77.3317 77.0078H43.8748C43.7934 77.0078 43.7127 77.0239 43.6375 77.0553C43.5623 77.0866 43.4941 77.1325 43.4367 77.1903C43.3794 77.2482 43.334 77.3168 43.3033 77.3923C43.2726 77.4677 43.2572 77.5485 43.2578 77.63C43.2578 77.7936 43.3228 77.9505 43.4385 78.0662C43.5543 78.182 43.7112 78.247 43.8748 78.247H77.3317C77.4954 78.247 77.6523 78.182 77.768 78.0662C77.8837 77.9505 77.9487 77.7936 77.9487 77.63C77.9487 77.4659 77.8839 77.3084 77.7683 77.1919C77.6528 77.0753 77.4958 77.0092 77.3317 77.0078Z" fill="white"/>
<path d="M77.3317 79.9922H43.8748C43.7936 79.9915 43.7131 80.007 43.6379 80.0378C43.5627 80.0686 43.4945 80.114 43.437 80.1714C43.3796 80.2288 43.3342 80.2971 43.3034 80.3723C43.2726 80.4475 43.2571 80.528 43.2578 80.6092C43.2578 80.7729 43.3228 80.9298 43.4385 81.0455C43.5543 81.1612 43.7112 81.2262 43.8748 81.2262H77.3317C77.4954 81.2262 77.6523 81.1612 77.768 81.0455C77.8837 80.9298 77.9487 80.7729 77.9487 80.6092C77.9487 80.4456 77.8837 80.2887 77.768 80.1729C77.6523 80.0572 77.4954 79.9922 77.3317 79.9922Z" fill="#71389A"/>
<path opacity="0.5" d="M77.3317 79.9922H43.8748C43.7936 79.9915 43.7131 80.007 43.6379 80.0378C43.5627 80.0686 43.4945 80.114 43.437 80.1714C43.3796 80.2288 43.3342 80.2971 43.3034 80.3723C43.2726 80.4475 43.2571 80.528 43.2578 80.6092C43.2578 80.7729 43.3228 80.9298 43.4385 81.0455C43.5543 81.1612 43.7112 81.2262 43.8748 81.2262H77.3317C77.4954 81.2262 77.6523 81.1612 77.768 81.0455C77.8837 80.9298 77.9487 80.7729 77.9487 80.6092C77.9487 80.4456 77.8837 80.2887 77.768 80.1729C77.6523 80.0572 77.4954 79.9922 77.3317 79.9922Z" fill="white"/>
<path d="M77.3317 82.9727H43.8748C43.7112 82.9727 43.5542 83.0377 43.4385 83.1534C43.3228 83.2691 43.2578 83.426 43.2578 83.5896C43.2578 83.7533 43.3228 83.9102 43.4385 84.0259C43.5542 84.1417 43.7112 84.2067 43.8748 84.2067H77.3317C77.4953 84.2067 77.6523 84.1417 77.768 84.0259C77.8837 83.9102 77.9487 83.7533 77.9487 83.5896C77.9487 83.426 77.8837 83.2691 77.768 83.1534C77.6523 83.0377 77.4953 82.9727 77.3317 82.9727Z" fill="#71389A"/>
<path opacity="0.5" d="M77.3317 82.9727H43.8748C43.7112 82.9727 43.5542 83.0377 43.4385 83.1534C43.3228 83.2691 43.2578 83.426 43.2578 83.5896C43.2578 83.7533 43.3228 83.9102 43.4385 84.0259C43.5542 84.1417 43.7112 84.2067 43.8748 84.2067H77.3317C77.4953 84.2067 77.6523 84.1417 77.768 84.0259C77.8837 83.9102 77.9487 83.7533 77.9487 83.5896C77.9487 83.426 77.8837 83.2691 77.768 83.1534C77.6523 83.0377 77.4953 82.9727 77.3317 82.9727Z" fill="white"/>
<path d="M77.3317 85.9844H43.8748C43.7112 85.9844 43.5543 86.0494 43.4385 86.1651C43.3228 86.2808 43.2578 86.4377 43.2578 86.6014C43.2571 86.6826 43.2726 86.7631 43.3034 86.8383C43.3342 86.9135 43.3796 86.9818 43.437 87.0392C43.4945 87.0966 43.5627 87.142 43.6379 87.1728C43.7131 87.2036 43.7936 87.2191 43.8748 87.2184H77.3317C77.4954 87.2184 77.6523 87.1534 77.768 87.0377C77.8837 86.9219 77.9487 86.765 77.9487 86.6014C77.9487 86.4377 77.8837 86.2808 77.768 86.1651C77.6523 86.0494 77.4954 85.9844 77.3317 85.9844Z" fill="#71389A"/>
<path opacity="0.5" d="M77.3317 85.9844H43.8748C43.7112 85.9844 43.5543 86.0494 43.4385 86.1651C43.3228 86.2808 43.2578 86.4377 43.2578 86.6014C43.2571 86.6826 43.2726 86.7631 43.3034 86.8383C43.3342 86.9135 43.3796 86.9818 43.437 87.0392C43.4945 87.0966 43.5627 87.142 43.6379 87.1728C43.7131 87.2036 43.7936 87.2191 43.8748 87.2184H77.3317C77.4954 87.2184 77.6523 87.1534 77.768 87.0377C77.8837 86.9219 77.9487 86.765 77.9487 86.6014C77.9487 86.4377 77.8837 86.2808 77.768 86.1651C77.6523 86.0494 77.4954 85.9844 77.3317 85.9844Z" fill="white"/>
<path d="M67.0542 88.9381H43.8807C43.718 88.9447 43.5644 89.0155 43.4537 89.135C43.3429 89.2544 43.2839 89.4128 43.2894 89.5756C43.2887 89.6568 43.3042 89.7374 43.335 89.8125C43.3658 89.8877 43.4112 89.956 43.4686 90.0134C43.526 90.0709 43.5943 90.1163 43.6695 90.147C43.7447 90.1778 43.8252 90.1933 43.9064 90.1926H67.08C67.2436 90.1926 67.4005 90.1276 67.5162 90.0119C67.632 89.8962 67.697 89.7393 67.697 89.5756C67.6999 89.4907 67.6852 89.406 67.6539 89.327C67.6225 89.248 67.5752 89.1763 67.5148 89.1165C67.4545 89.0566 67.3824 89.0098 67.3032 88.9791C67.2239 88.9484 67.1392 88.9345 67.0542 88.9381Z" fill="#71389A"/>
<path opacity="0.5" d="M67.0542 88.9381H43.8807C43.718 88.9447 43.5644 89.0155 43.4537 89.135C43.3429 89.2544 43.2839 89.4128 43.2894 89.5756C43.2887 89.6568 43.3042 89.7374 43.335 89.8125C43.3658 89.8877 43.4112 89.956 43.4686 90.0134C43.526 90.0709 43.5943 90.1163 43.6695 90.147C43.7447 90.1778 43.8252 90.1933 43.9064 90.1926H67.08C67.2436 90.1926 67.4005 90.1276 67.5162 90.0119C67.632 89.8962 67.697 89.7393 67.697 89.5756C67.6999 89.4907 67.6852 89.406 67.6539 89.327C67.6225 89.248 67.5752 89.1763 67.5148 89.1165C67.4545 89.0566 67.3824 89.0098 67.3032 88.9791C67.2239 88.9484 67.1392 88.9345 67.0542 88.9381Z" fill="white"/>
<path d="M65.9531 63.0621V20.6484L20.583 20.6484V63.0621H65.9531Z" fill="#71389A"/>
<path opacity="0.5" d="M65.9531 63.0621V20.6484L20.583 20.6484V63.0621H65.9531Z" fill="white"/>
<path d="M65.4297 62.5494V21.1641L21.0879 21.1641V62.5494H65.4297Z" fill="white"/>
<path d="M66.3871 20.207H65.5078V21.0863H66.3871V20.207Z" fill="#71389A"/>
<path d="M66.3871 62.6289H65.5078V63.5081H66.3871V62.6289Z" fill="#71389A"/>
<path d="M21.0159 20.1992H20.1367V21.0784H21.0159V20.1992Z" fill="#71389A"/>
<path d="M21.0159 62.6289H20.1367V63.5081H21.0159V62.6289Z" fill="#71389A"/>
</svg>
