<svg width="98" height="117" viewBox="0 0 98 117" fill="none" xmlns="http://www.w3.org/2000/svg">
<path d="M72.841 42.9649L72.9013 42.9121V42.9926C72.909 43.0566 72.9352 43.1169 72.9768 43.1662L73.0296 43.2291H72.9491C72.8851 43.2366 72.8247 43.2628 72.7756 43.3045L72.7127 43.3548V43.2769C72.7057 43.2119 72.6794 43.1506 72.6372 43.1008L72.5869 43.0404H72.6674C72.7311 43.0318 72.7912 43.0057 72.841 42.9649Z" fill="#E0E0E0"/>
<path d="M95.0651 45.051L95.1732 44.9604L95.1883 45.0988C95.2032 45.2088 95.2485 45.3125 95.3191 45.3981L95.4072 45.5038L95.2713 45.5214C95.1613 45.5363 95.0576 45.5816 94.972 45.6522L94.8638 45.7402L94.8487 45.6019C94.8333 45.492 94.7881 45.3885 94.7179 45.3026L94.6299 45.1969L94.7657 45.1793C94.8758 45.1665 94.9798 45.1219 95.0651 45.051Z" fill="#E0E0E0"/>
<path d="M96.4227 40.5417L96.6013 40.3933L96.6315 40.6247C96.6543 40.8101 96.7303 40.9848 96.8503 41.1278L96.9988 41.3064L96.7749 41.3366C96.5897 41.3601 96.4152 41.436 96.2718 41.5555L96.0932 41.7039L96.0655 41.4724C96.0406 41.2877 95.9648 41.1135 95.8467 40.9694L95.6982 40.7908L95.9272 40.7631C96.1102 40.7386 96.2823 40.6617 96.4227 40.5417Z" fill="#E0E0E0"/>
<path d="M78.2097 52.6387L78.2449 52.4072L78.421 52.5632C78.5619 52.6892 78.737 52.7706 78.9241 52.7971L79.153 52.8349L78.9971 53.0084C78.8721 53.15 78.7908 53.3247 78.7631 53.5115L78.7279 53.7404L78.5544 53.587C78.413 53.4612 78.2383 53.3791 78.0513 53.3505L77.8198 53.3153L77.9758 53.1417C78.0994 52.9993 78.1804 52.825 78.2097 52.6387Z" fill="#E0E0E0"/>
<path d="M78.5995 43.8756C78.031 44.107 77.455 44.3284 76.8915 44.5749C76.6467 44.6757 76.4268 44.8288 76.2474 45.0234C76.0679 45.2181 75.9332 45.4496 75.8526 45.7018C75.7815 45.9655 75.7656 46.241 75.8059 46.5111C75.8461 46.7812 75.9417 47.04 76.0865 47.2715C76.899 48.821 78.0713 50.3882 79.7617 51.0447C80.9203 51.4586 82.1931 51.4154 83.321 50.924C83.4161 50.8849 83.4918 50.8097 83.5314 50.7149C83.571 50.6201 83.5714 50.5134 83.5323 50.4184C83.4933 50.3233 83.4181 50.2476 83.3233 50.208C83.2285 50.1684 83.1218 50.168 83.0267 50.2071C82.1743 50.5846 81.2183 50.6591 80.3176 50.4184C79.5623 50.1724 78.8814 49.7398 78.3379 49.1606C77.813 48.6129 77.3607 47.9999 76.9921 47.3369C76.816 47.0325 76.5695 46.6703 76.5469 46.3131C76.5346 46.0996 76.5897 45.8877 76.7043 45.7071C76.819 45.5266 76.9874 45.3866 77.1858 45.3069C77.7468 45.0554 78.3253 44.839 78.8913 44.6051C78.986 44.5664 79.0615 44.4917 79.1012 44.3973C79.1408 44.303 79.1413 44.1967 79.1026 44.102C79.0639 44.0073 78.9892 43.9318 78.8948 43.8922C78.8005 43.8525 78.6942 43.852 78.5995 43.8907V43.8756Z" fill="#71389A"/>
<path d="M89.7121 40.0825C90.2479 39.8612 90.7837 39.6398 91.3195 39.4235C91.4697 39.3496 91.635 39.3111 91.8024 39.3111C91.9699 39.3111 92.1351 39.3496 92.2854 39.4235C92.6879 39.6348 92.7885 40.0498 92.9143 40.4548C93.3344 41.8886 93.5431 43.5564 92.9143 44.96C92.4667 45.8951 91.6755 46.6213 90.7057 46.9875C90.626 47.0349 90.566 47.1094 90.5366 47.1973C90.5071 47.2852 90.5102 47.3808 90.5452 47.4666C90.5802 47.5525 90.6448 47.6229 90.7274 47.6652C90.8099 47.7074 90.9049 47.7187 90.995 47.6969C92.0234 47.2993 92.8875 46.5663 93.4476 45.6166C93.892 44.7747 94.1088 43.8312 94.0764 42.8797C94.0578 42.0027 93.9215 41.1321 93.6714 40.2913C93.5356 39.8083 93.3947 39.338 93.0099 38.9883C92.7964 38.7953 92.5394 38.6568 92.2608 38.5846C91.9823 38.5123 91.6904 38.5084 91.41 38.5732C90.7283 38.7368 90.0668 39.0965 89.4178 39.3631C89.3705 39.3824 89.3276 39.4109 89.2913 39.4468C89.2551 39.4827 89.2263 39.5255 89.2065 39.5725C89.1868 39.6196 89.1765 39.6701 89.1763 39.7211C89.176 39.7722 89.1859 39.8227 89.2052 39.87C89.2245 39.9172 89.253 39.9602 89.2889 39.9964C89.3248 40.0327 89.3675 40.0615 89.4146 40.0812C89.4617 40.101 89.5122 40.1112 89.5632 40.1115C89.6143 40.1117 89.6648 40.1019 89.7121 40.0825Z" fill="#71389A"/>
<path d="M89.5302 52.3096L88.524 52.4756L88.5039 52.4907H88.4763L87.6411 53.0843C87.6411 53.0843 88.2675 54.9584 88.109 56.5557L89.8497 55.8413L89.8975 55.8212L91.6407 55.1068C90.4006 54.083 89.5302 52.3096 89.5302 52.3096Z" fill="#71389A"/>
<path d="M89.921 52.3177L87.3603 53.3692C87.2815 53.4016 87.1971 53.4182 87.112 53.4179C87.0268 53.4176 86.9425 53.4005 86.864 53.3675C86.7854 53.3346 86.7142 53.2864 86.6543 53.2258C86.5944 53.1652 86.5471 53.0934 86.5151 53.0145C86.4501 52.8557 86.4507 52.6776 86.5167 52.5192C86.5827 52.3608 86.7088 52.235 86.8673 52.1693L89.428 51.1204C89.5066 51.0878 89.5909 51.0712 89.6759 51.0713C89.761 51.0714 89.8452 51.0883 89.9237 51.121C90.0022 51.1537 90.0735 51.2016 90.1335 51.2619C90.1935 51.3223 90.2409 51.3938 90.2732 51.4725C90.3382 51.6313 90.3376 51.8094 90.2716 51.9678C90.2056 52.1262 90.0795 52.252 89.921 52.3177Z" fill="#71389A"/>
<path d="M89.4368 37.5095L83.3997 39.9898L83.0802 40.1206L77.3701 42.4625C77.3701 42.6008 81.659 54.7304 88.242 51.7924C94.9985 49.2542 89.5274 37.6152 89.4368 37.5095Z" fill="#71389A"/>
<path d="M94.2619 55.5997L86.7154 58.6938C86.6147 58.449 86.5632 58.1868 86.564 57.9221C86.5647 57.6575 86.6177 57.3956 86.7198 57.1514C86.8219 56.9072 86.9711 56.6856 87.159 56.4992C87.3469 56.3128 87.5697 56.1653 87.8147 56.0651L91.6282 54.503C91.873 54.4014 92.1355 54.3492 92.4006 54.3494C92.6658 54.3495 92.9282 54.4021 93.1729 54.504C93.4177 54.6059 93.6399 54.7552 93.8267 54.9432C94.0136 55.1313 94.1615 55.3544 94.2619 55.5997Z" fill="#71389A"/>
<path d="M95.4664 55.0038L85.3472 59.1541L87.345 64.0252L97.4642 59.875L95.4664 55.0038Z" fill="#E0E0E0"/>
<path d="M94.4738 56.8837L87.3149 59.8198L88.2943 62.2077L95.4532 59.2716L94.4738 56.8837Z" fill="#71389A"/>
<path d="M84.7269 42.959L86.2311 44.2897L88.1806 43.8017L87.3807 45.6455L88.4473 47.346L86.4475 47.1573L85.157 48.6968L84.7193 46.7372L82.8579 45.9851L84.586 44.9638L84.7269 42.959Z" fill="white"/>
<path d="M85.9018 51.6293H85.8716L85.7835 51.6444C85.6689 51.6633 85.5526 51.6709 85.4364 51.667C85.2522 51.6575 85.0699 51.6262 84.893 51.5739C84.6587 51.505 84.4326 51.4105 84.2189 51.2922C83.9608 51.1447 83.7152 50.9764 83.4844 50.7891L83.0995 50.4797C82.9712 50.369 82.848 50.2508 82.7096 50.1326C82.1455 49.6007 81.6287 49.0208 81.1651 48.3994C80.7027 47.7774 80.2768 47.129 79.8898 46.4575C79.5301 45.8386 79.2307 45.2702 78.9842 44.7897C78.7377 44.3092 78.5465 43.9143 78.4157 43.6426C78.3503 43.5068 78.3 43.3911 78.2673 43.3282L78.2271 43.2477V43.2175L78.2421 43.2452C78.2421 43.2653 78.2648 43.2905 78.2824 43.3257C78.3176 43.3986 78.3704 43.5018 78.4384 43.6376C78.5717 43.9068 78.7679 44.2967 79.0144 44.7771C79.2609 45.2576 79.5653 45.8236 79.925 46.4398C80.3075 47.1164 80.7283 47.7707 81.1852 48.3994C81.6478 49.0194 82.1629 49.5984 82.7247 50.13C82.858 50.2483 82.9763 50.3665 83.1121 50.4772L83.4919 50.7866C83.722 50.9737 83.9668 51.142 84.2239 51.2897C84.4356 51.4075 84.659 51.5028 84.8905 51.5739C85.1756 51.664 85.4766 51.6923 85.7735 51.6569L85.864 51.6418L85.9018 51.6293Z" fill="white"/>
<path d="M86.933 52.4291C86.8971 52.4577 86.8657 52.4917 86.8399 52.5297C86.8139 52.5783 86.7981 52.6317 86.7933 52.6866C86.7886 52.7415 86.795 52.7968 86.8123 52.8492C86.8543 52.9541 86.9177 53.0492 86.9984 53.1284C87.0331 53.161 87.065 53.1963 87.094 53.234C87.0522 53.2103 87.0141 53.1806 86.9808 53.146C86.8928 53.0685 86.8247 52.971 86.7821 52.8618C86.7621 52.8052 86.7551 52.7448 86.7617 52.6851C86.7682 52.6255 86.7881 52.5681 86.8198 52.5171C86.8388 52.4863 86.8658 52.4611 86.8978 52.4442C86.9179 52.4316 86.933 52.4266 86.933 52.4291Z" fill="white"/>
<path d="M88.1117 56.1772C88.0825 56.1943 88.0523 56.2094 88.0211 56.2225C87.9336 56.2587 87.8495 56.3025 87.7696 56.3533C87.5141 56.5121 87.2975 56.7261 87.1357 56.9797C86.9267 57.3129 86.816 57.6982 86.8162 58.0915C86.8162 58.1569 86.8162 58.1921 86.8162 58.1921C86.8162 58.1921 86.8162 58.1921 86.8162 58.167C86.8162 58.1418 86.8162 58.1242 86.8162 58.0915C86.808 58.0003 86.808 57.9085 86.8162 57.8173C86.8459 57.5126 86.947 57.2192 87.1113 56.9609C87.2757 56.7026 87.4986 56.4867 87.7621 56.3307C87.8423 56.2834 87.9265 56.243 88.0136 56.2099L88.084 56.1848L88.1117 56.1772Z" fill="white"/>
<path d="M91.773 104.239C95.2116 97.6536 92.6603 89.5271 86.0744 86.0885C79.4885 82.6499 71.3621 85.2013 67.9234 91.7871C64.4848 98.373 67.0362 106.499 73.622 109.938C80.2079 113.377 88.3344 110.825 91.773 104.239Z" fill="#71389A"/>
<path d="M90.4961 99.5978C91.3664 93.7186 87.3058 88.2471 81.4266 87.3768C75.5474 86.5066 70.0759 90.5671 69.2056 96.4463C68.3354 102.326 72.3959 107.797 78.2751 108.667C84.1543 109.538 89.6258 105.477 90.4961 99.5978Z" fill="#FAFAFA"/>
<path d="M82.5136 105.772C86.7477 104.346 89.024 99.7569 87.5978 95.5227C86.1715 91.2886 81.5829 89.0123 77.3487 90.4386C73.1146 91.8648 70.8383 96.4534 72.2646 100.688C73.6908 104.922 78.2795 107.198 82.5136 105.772Z" fill="#71389A"/>
<path d="M82.3861 102.776C85.007 101.374 85.9949 98.112 84.5925 95.4911C83.1901 92.8702 79.9285 91.8823 77.3076 93.2847C74.6867 94.6871 73.6989 97.9487 75.1013 100.57C76.5036 103.191 79.7652 104.178 82.3861 102.776Z" fill="#FAFAFA"/>
<path d="M82.018 99.6263C82.9011 98.4308 82.6477 96.7458 81.4522 95.8628C80.2567 94.9797 78.5717 95.2331 77.6887 96.4286C76.8057 97.6241 77.059 99.3091 78.2545 100.192C79.45 101.075 81.135 100.822 82.018 99.6263Z" fill="#71389A"/>
<path d="M80.2623 98.4177L76.5274 97.4325L77.4831 96.454L69.7588 90.1062L70.1828 89.6919L77.9529 95.9973L78.7031 94.973L80.2623 98.4177Z" fill="#E0E0E0"/>
<path d="M69.7501 90.103L69.6326 90.1715C69.348 90.3317 69.026 90.4137 68.6995 90.4091C68.3729 90.4045 68.0533 90.3135 67.7733 90.1454L64.5342 88.1882L66.7132 87.862L66.4783 85.5786L69.4597 87.6173C69.787 87.8418 70.0333 88.1658 70.162 88.5413C70.2906 88.9167 70.2949 89.3237 70.1741 89.7017L69.7501 90.103Z" fill="#E0E0E0"/>
<path d="M76.9463 19.1195C80.0644 14.7962 79.0874 8.76377 74.7641 5.6457C70.4408 2.52764 64.4084 3.50467 61.2903 7.82797C58.1722 12.1513 59.1493 18.1837 63.4726 21.3018C67.7959 24.4198 73.8283 23.4428 76.9463 19.1195Z" fill="white"/>
<path d="M64.9022 22.1412C64.9544 22.1525 65.0052 22.1697 65.0534 22.1927L65.4779 22.3599C65.7059 22.4597 65.9414 22.5414 66.1822 22.6043C66.5027 22.7116 66.8305 22.7954 67.1632 22.8552C68.0714 23.0425 69.0027 23.0923 69.9258 23.0031C71.1469 22.8928 72.3357 22.55 73.4281 21.9933C74.8512 21.2703 76.0702 20.202 76.9736 18.8861C77.8771 17.5703 78.4361 16.0489 78.5997 14.4611C78.6476 14.0104 78.6648 13.557 78.6511 13.1039C78.6287 12.6406 78.5728 12.1795 78.4839 11.7242C78.3982 11.2588 78.28 10.7999 78.1301 10.3509C77.9657 9.89737 77.7701 9.45571 77.5448 9.02912C77.0861 8.14472 76.4865 7.3409 75.7695 6.64919C74.302 5.20683 72.4037 4.28308 70.3632 4.01841C69.3803 3.88437 68.3822 3.91043 67.4076 4.0956C66.9328 4.18199 66.4643 4.30018 66.0054 4.44937C65.5648 4.61131 65.1351 4.80145 64.7189 5.01862C64.307 5.23193 63.9104 5.47372 63.5322 5.74225C63.166 6.01048 62.8189 6.30385 62.4934 6.62025C61.2667 7.80667 60.3785 9.29875 59.9205 10.9427C59.5225 12.3741 59.4674 13.8792 59.7597 15.3359C59.9945 16.5398 60.4585 17.6873 61.1265 18.716C61.6256 19.4969 62.2392 20.1984 62.9468 20.7969C63.1999 21.0225 63.4686 21.2299 63.7509 21.4176C63.9486 21.5659 64.1572 21.6992 64.3748 21.8164L64.7704 22.0479C64.8173 22.0721 64.8615 22.1013 64.9022 22.1348C64.8522 22.1204 64.8045 22.0987 64.7607 22.0705L64.3523 21.8614C64.128 21.7512 63.9129 21.6232 63.7091 21.4787C63.4202 21.2963 63.145 21.0932 62.8857 20.8708C62.1574 20.279 61.525 19.5782 61.0107 18.7932C60.247 17.6426 59.7372 16.3424 59.5154 14.9793C59.2935 13.6162 59.3648 12.2215 59.7243 10.888C60.1843 9.20445 61.0859 7.67439 62.3358 6.45622C62.6676 6.13133 63.0211 5.82939 63.3939 5.55249C63.781 5.27642 64.1873 5.02815 64.6096 4.80957C65.0397 4.58467 65.4845 4.38911 65.941 4.22424C66.4104 4.06933 66.8896 3.94578 67.3754 3.85439C68.3755 3.66491 69.3995 3.63776 70.4082 3.77398C72.5021 4.04502 74.4501 4.9925 75.956 6.4723C76.6859 7.18222 77.2963 8.00544 77.7635 8.91012C77.9937 9.34828 78.1936 9.80175 78.3617 10.2673C78.5126 10.7284 78.6329 11.199 78.7219 11.676C78.8082 12.1424 78.863 12.6141 78.8859 13.0878C78.899 13.5528 78.8797 14.0181 78.828 14.4804C78.6599 16.1021 78.0851 17.6551 77.1569 18.9954C76.2287 20.3357 74.9771 21.4199 73.5182 22.1476C72.4036 22.7065 71.1913 23.0439 69.9483 23.1414C69.0123 23.2216 68.0696 23.1565 67.1535 22.9485C66.819 22.8823 66.49 22.7909 66.1694 22.6751C65.9319 22.6053 65.7007 22.516 65.4779 22.4081L65.0566 22.2152C65.0021 22.1975 64.9502 22.1726 64.9022 22.1412Z" fill="#263238"/>
<path d="M57.844 22.7977C57.5647 22.6623 57.3318 22.447 57.1749 22.1792C57.0179 21.9114 56.9439 21.603 56.9622 21.2931C56.9805 20.9832 57.0903 20.6857 57.2777 20.4382C57.4651 20.1908 57.7216 20.0044 58.0149 19.9027C58.3082 19.8011 58.6251 19.7886 58.9255 19.8671C59.2258 19.9455 59.4962 20.1112 59.7023 20.3433C59.9085 20.5754 60.0412 20.8634 60.0837 21.1709C60.1261 21.4784 60.0764 21.7916 59.9409 22.0709C59.7585 22.4447 59.4355 22.7311 59.0425 22.8673C58.6495 23.0035 58.2186 22.9785 57.844 22.7977Z" fill="white"/>
<path d="M57.8372 22.7991C57.964 22.8158 58.0897 22.8405 58.2135 22.8731C58.5443 22.9231 58.8825 22.8656 59.1783 22.7091C59.3942 22.5929 59.5782 22.4253 59.7139 22.2211C59.8497 22.0169 59.933 21.7824 59.9566 21.5384C59.9842 21.2428 59.921 20.9458 59.7754 20.687C59.6299 20.4283 59.4089 20.22 59.142 20.09C58.8751 19.9601 58.5749 19.9146 58.2814 19.9596C57.9879 20.0046 57.7152 20.138 57.4995 20.342C57.3226 20.5115 57.1902 20.7219 57.114 20.9547C57.0377 21.1874 57.0199 21.4354 57.0621 21.6767C57.1179 22.0119 57.2844 22.3187 57.5349 22.5483C57.7118 22.7155 57.834 22.7798 57.8243 22.7991C57.6932 22.7713 57.5714 22.7104 57.4705 22.6222C57.1745 22.3977 56.9681 22.075 56.8884 21.7121C56.8277 21.4389 56.8375 21.1547 56.9168 20.8864C56.9961 20.618 57.1424 20.3742 57.3419 20.178C57.5888 19.9336 57.9055 19.7719 58.2482 19.7154C58.591 19.6589 58.9428 19.7104 59.2551 19.8626C59.5673 20.0148 59.8246 20.2604 59.9911 20.5652C60.1577 20.87 60.2255 21.2191 60.1849 21.5641C60.1513 21.8392 60.0487 22.1013 59.8868 22.3261C59.7249 22.551 59.5089 22.7314 59.2587 22.8506C58.9234 23.0121 58.5417 23.0497 58.1813 22.9567C58.055 22.9343 57.9366 22.8801 57.8372 22.7991Z" fill="#263238"/>
<path d="M69.5258 10.3204L70.3555 12.0056C70.3865 12.0673 70.4319 12.1206 70.4879 12.1609C70.5439 12.2012 70.6088 12.2274 70.6771 12.2372L72.5361 12.5074C72.6146 12.5191 72.6883 12.5524 72.7489 12.6036C72.8095 12.6548 72.8547 12.7219 72.8794 12.7973C72.9041 12.8727 72.9073 12.9536 72.8887 13.0307C72.8701 13.1079 72.8304 13.1783 72.7741 13.2342L71.4265 14.5464C71.3773 14.5946 71.3405 14.654 71.3193 14.7195C71.298 14.7851 71.2929 14.8547 71.3043 14.9227L71.6259 16.7751C71.6394 16.8534 71.6307 16.9338 71.6007 17.0074C71.5708 17.0809 71.5208 17.1446 71.4565 17.1911C71.3922 17.2377 71.3161 17.2653 71.2369 17.2708C71.1577 17.2763 71.0785 17.2594 71.0084 17.2222L69.3328 16.3474C69.2717 16.3158 69.2038 16.2993 69.135 16.2993C69.0662 16.2993 68.9984 16.3158 68.9372 16.3474L67.2713 17.2222C67.2014 17.2599 67.1223 17.277 67.043 17.2717C66.9638 17.2663 66.8877 17.2387 66.8235 17.192C66.7593 17.1452 66.7096 17.0813 66.6801 17.0076C66.6507 16.9338 66.6426 16.8532 66.657 16.7751L66.9786 14.9227C66.9909 14.8547 66.9862 14.7848 66.9648 14.7191C66.9435 14.6535 66.9063 14.5941 66.8564 14.5464L65.5121 13.2342C65.4545 13.1791 65.4137 13.1088 65.3942 13.0316C65.3747 12.9543 65.3774 12.8731 65.4019 12.7973C65.4264 12.7215 65.4717 12.654 65.5327 12.6028C65.5937 12.5515 65.6679 12.5184 65.7468 12.5074L67.6058 12.2372C67.6743 12.2282 67.7396 12.2024 67.7957 12.162C67.8519 12.1215 67.8971 12.0678 67.9274 12.0056L68.7603 10.3204C68.795 10.2483 68.8493 10.1874 68.917 10.1448C68.9847 10.1022 69.0631 10.0796 69.1431 10.0796C69.2231 10.0796 69.3014 10.1022 69.3691 10.1448C69.4369 10.1874 69.4912 10.2483 69.5258 10.3204Z" fill="#71389A"/>
<path d="M41.0557 20.0577C40.687 19.3959 40.3944 18.6946 40.1835 17.9671C39.9707 17.2334 40.012 16.4493 40.3007 15.742C40.4838 15.3388 40.7697 14.987 40.9156 14.5666C41.1129 13.9946 41.03 13.3111 41.3875 12.8192C41.9452 12.047 43.1378 12.2272 43.9986 11.8211C44.6707 11.5065 45.1426 10.8287 45.8461 10.6028C46.4638 10.4054 47.1359 10.6028 47.7308 10.8487C48.3256 11.0947 48.9062 11.4207 49.5497 11.5122C50.0107 11.538 50.4729 11.538 50.9339 11.5122C51.3995 11.4921 51.8554 11.6495 52.2094 11.9527C52.5354 12.2815 52.6041 12.8879 52.2523 13.1853C53.0588 13.048 53.8195 13.8545 53.8081 14.6753C53.7967 15.4961 53.1818 16.2139 52.4353 16.5543C51.6688 16.8519 50.8393 16.9503 50.0244 16.8403C47.7136 16.6601 45.3885 15.7821 43.8156 14.0776" fill="#263238"/>
<path d="M41.5563 17.1653L39.9805 28.6049C39.7117 30.5526 42.134 34.1246 44.0931 34.2962C45.9177 34.4563 46.544 33.1522 46.7928 31.3247C46.9101 30.4668 47.0102 27.9586 47.0274 27.8699C47.0274 27.8699 49.9788 27.9958 50.588 25.1416C50.8739 23.7603 51.2543 20.8689 51.5603 18.2492C51.715 16.8946 51.3547 15.5313 50.5511 14.4299C49.7474 13.3285 48.5591 12.5695 47.2218 12.3034L46.9358 12.2491C43.9329 11.8172 41.8938 14.1395 41.5563 17.1653Z" fill="#FFBE9D"/>
<path d="M47.0331 27.8752C45.712 27.6082 44.4952 26.9681 43.5269 26.0305C43.5269 26.0305 44.076 28.43 46.9845 28.7417L47.0331 27.8752Z" fill="#EB996E"/>
<path d="M50.4738 20.6228C50.4536 20.7299 50.3923 20.8248 50.3031 20.8873C50.2138 20.9498 50.1037 20.975 49.9962 20.9574C49.9435 20.9511 49.8927 20.9343 49.8466 20.908C49.8005 20.8818 49.7602 20.8465 49.7279 20.8044C49.6957 20.7623 49.6722 20.7142 49.6588 20.6629C49.6455 20.6115 49.6425 20.558 49.6501 20.5056C49.6697 20.3987 49.7304 20.3038 49.8191 20.2413C49.9079 20.1787 50.0177 20.1534 50.1249 20.171C50.1778 20.1769 50.229 20.1934 50.2754 20.2196C50.3218 20.2457 50.3624 20.2809 50.395 20.323C50.4275 20.3652 50.4513 20.4134 50.4648 20.4649C50.4783 20.5164 50.4814 20.5701 50.4738 20.6228Z" fill="#263238"/>
<path d="M50.6644 19.5354C50.6015 19.5812 50.3384 19.2895 49.898 19.2008C49.4575 19.1122 49.0915 19.2723 49.04 19.2008C48.9885 19.1293 49.0943 19.0864 49.2545 19.0121C49.4716 18.9185 49.7124 18.8945 49.9437 18.9434C50.1722 18.988 50.3806 19.1042 50.5386 19.2752C50.6673 19.4125 50.693 19.5183 50.6644 19.5354Z" fill="#263238"/>
<path d="M46.2799 19.8958C46.2604 20.0025 46.1996 20.0971 46.1107 20.1593C46.0218 20.2214 45.912 20.2459 45.8051 20.2276C45.7522 20.2216 45.7011 20.2051 45.6547 20.179C45.6083 20.1528 45.5676 20.1176 45.535 20.0755C45.5025 20.0334 45.4787 19.9851 45.4652 19.9336C45.4517 19.8821 45.4486 19.8284 45.4562 19.7757C45.4771 19.669 45.5385 19.5745 45.6276 19.5121C45.7166 19.4497 45.8264 19.4243 45.9338 19.4411C45.9866 19.4478 46.0375 19.4649 46.0836 19.4915C46.1297 19.518 46.17 19.5535 46.2023 19.5959C46.2345 19.6382 46.2579 19.6865 46.2713 19.738C46.2846 19.7895 46.2875 19.8432 46.2799 19.8958Z" fill="#263238"/>
<path d="M46.334 18.7571C46.2739 18.8 46.0079 18.5083 45.5704 18.4225C45.1328 18.3367 44.7639 18.4911 44.7267 18.4225C44.6895 18.3538 44.7782 18.3081 44.9383 18.2337C45.1551 18.1392 45.3959 18.1142 45.6276 18.1622C45.8566 18.207 46.0652 18.3243 46.2224 18.4968C46.334 18.6341 46.3597 18.7371 46.334 18.7571Z" fill="#263238"/>
<path d="M47.271 22.3356C47.516 22.3049 47.7639 22.3049 48.0089 22.3356C48.1232 22.3356 48.2348 22.3356 48.2691 22.2727C48.3054 22.1592 48.3054 22.0373 48.2691 21.9238C48.2176 21.6378 48.1661 21.3261 48.1089 21.0029C47.8916 19.6931 47.7572 18.6263 47.8087 18.6177C47.8601 18.6091 48.0804 19.6645 48.3006 20.9743C48.352 21.2975 48.4007 21.6035 48.4464 21.8981C48.4898 22.0476 48.4786 22.2078 48.415 22.3499C48.391 22.3866 48.3589 22.4172 48.3213 22.4396C48.2836 22.4619 48.2413 22.4752 48.1976 22.4786C48.1329 22.4849 48.0678 22.4849 48.0031 22.4786C47.7538 22.4638 47.5076 22.4157 47.271 22.3356Z" fill="#263238"/>
<path d="M45.9174 22.384C45.9889 22.384 45.8946 22.8731 46.2349 23.2935C46.5752 23.7139 47.0929 23.7625 47.0929 23.8311C47.0929 23.8998 46.9613 23.8998 46.7468 23.8626C46.4661 23.8118 46.2127 23.6628 46.0318 23.4422C45.8575 23.231 45.7723 22.9601 45.7945 22.6872C45.8059 22.4841 45.8831 22.3754 45.9174 22.384Z" fill="#263238"/>
<path d="M46.7828 17.0593C46.7171 17.1708 46.2881 17.0249 45.759 16.9849C45.2299 16.9449 44.7866 17.0021 44.738 16.8819C44.718 16.8219 44.8123 16.7246 45.004 16.6446C45.2562 16.5441 45.5287 16.5049 45.799 16.5302C46.0697 16.5515 46.3314 16.6368 46.5626 16.779C46.7371 16.8848 46.8143 17.0078 46.7828 17.0593Z" fill="#263238"/>
<path d="M50.7588 18.2353C50.6616 18.3211 50.3813 18.1553 50.0153 18.078C49.6492 18.0008 49.3289 18.0094 49.2803 17.8922C49.2602 17.835 49.3289 17.7434 49.4805 17.6777C49.6851 17.6013 49.9079 17.5877 50.1204 17.6387C50.3328 17.6896 50.5252 17.8028 50.673 17.9637C50.7817 18.0809 50.8046 18.1924 50.7588 18.2353Z" fill="#263238"/>
<path d="M41.3694 19.3289C41.3265 19.2975 39.519 18.3537 39.1901 20.3242C38.8612 22.2946 40.9061 22.2174 40.9204 22.1602C40.9347 22.103 41.3694 19.3289 41.3694 19.3289Z" fill="#FFBE9D"/>
<path d="M40.4401 21.3151C40.4401 21.3151 40.4029 21.3323 40.34 21.3494C40.2967 21.3606 40.2517 21.363 40.2075 21.3566C40.1634 21.3502 40.1209 21.3352 40.0826 21.3122C39.9687 21.2106 39.8841 21.0804 39.8373 20.9351C39.7906 20.7898 39.7834 20.6347 39.8166 20.4857C39.8407 20.3165 39.9012 20.1545 39.9939 20.011C40.0227 19.9523 40.0653 19.9016 40.1181 19.8632C40.171 19.8248 40.2324 19.8 40.2971 19.7908C40.3383 19.7867 40.3796 19.7973 40.4137 19.8209C40.4477 19.8445 40.4723 19.8794 40.483 19.9195C40.5001 19.9767 40.483 20.0138 40.483 20.0196C40.483 20.0253 40.5316 19.9938 40.5287 19.9109C40.5251 19.8601 40.505 19.812 40.4715 19.7736C40.4244 19.7238 40.3599 19.6941 40.2914 19.6907C40.2075 19.6936 40.1258 19.7178 40.0538 19.7608C39.9818 19.8038 39.9219 19.8643 39.8795 19.9366C39.769 20.0939 39.6974 20.2753 39.6707 20.4657C39.6164 20.8661 39.7565 21.2722 40.0282 21.4009C40.0786 21.4254 40.1338 21.4382 40.1898 21.4382C40.2458 21.4382 40.3011 21.4254 40.3514 21.4009C40.4286 21.3637 40.4458 21.3208 40.4401 21.3151Z" fill="#EB996E"/>
<path d="M52.1279 15.5984C51.7905 16.3277 50.0488 16.5965 48.779 16.2247C47.6036 15.8701 47.1803 15.1236 46.431 14.4744C45.9591 14.0626 45.9591 14.0626 45.1869 13.9825C44.5635 13.9196 44.063 14.5545 43.5911 14.9521C43.8542 16.5193 43.1592 18.0694 42.4786 19.5022C42.4216 19.6695 42.3097 19.8126 42.1611 19.9083C41.8952 20.0398 41.5749 19.8311 41.4176 19.5794C41.1888 19.157 41.0893 18.6766 41.1316 18.1981C41.1371 17.1091 41.3588 16.032 41.7836 15.0293C42.2149 14.0235 42.9306 13.1657 43.8428 12.5612C45.0153 11.8452 46.4204 11.6134 47.7609 11.9148C49.0925 12.2243 50.293 12.9446 51.1928 13.974C51.6309 14.4303 51.9484 14.9886 52.1165 15.5984" fill="#263238"/>
<path d="M48.1236 20.3543C48.1408 20.3543 48.1236 20.1856 48.2151 19.8967C48.327 19.4902 48.5703 19.1322 48.9072 18.8786C49.1545 18.6956 49.4433 18.5768 49.7478 18.5329C50.0522 18.4889 50.3629 18.5213 50.6518 18.6269C50.9965 18.7492 51.2958 18.9737 51.5097 19.2704C51.6765 19.5002 51.7876 19.7656 51.8343 20.0456C51.881 20.3257 51.862 20.6128 51.7788 20.8843C51.6956 21.1557 51.5505 21.4042 51.3549 21.61C51.1594 21.8158 50.9186 21.9734 50.6518 22.0703C50.3629 22.1759 50.0522 22.2083 49.7478 22.1643C49.4433 22.1204 49.1545 22.0016 48.9072 21.8186C48.5694 21.5679 48.3248 21.2116 48.2123 20.8062C48.1322 20.5202 48.1379 20.3486 48.1207 20.3486C48.1134 20.3893 48.1134 20.4309 48.1207 20.4716C48.1195 20.59 48.1329 20.7082 48.1608 20.8233C48.2564 21.2551 48.5002 21.6396 48.85 21.9101C49.057 22.0705 49.294 22.1879 49.547 22.2552C49.8001 22.3226 50.064 22.3386 50.3234 22.3024C50.5827 22.2661 50.8322 22.1783 51.057 22.0442C51.2819 21.91 51.4777 21.7322 51.6327 21.5212C51.8853 21.1824 52.0217 20.7711 52.0217 20.3486C52.0217 19.9261 51.8853 19.5148 51.6327 19.176C51.4016 18.8588 51.0794 18.6194 50.709 18.4897C50.4 18.3773 50.0678 18.3446 49.7429 18.3946C49.418 18.4446 49.1109 18.5756 48.85 18.7756C48.4999 19.0458 48.2559 19.4305 48.1608 19.8624C48.1327 19.9765 48.1192 20.0938 48.1207 20.2113C48.115 20.3086 48.1179 20.3543 48.1236 20.3543Z" fill="#263238"/>
<path d="M43.4531 19.548C43.4703 19.548 43.4531 19.3793 43.5418 19.0904C43.6557 18.6849 43.9012 18.3287 44.2396 18.078C44.4864 17.8952 44.7748 17.7765 45.0787 17.7326C45.3827 17.6887 45.6928 17.7209 45.9813 17.8263C46.3251 17.9489 46.624 18.1722 46.8393 18.4669C47.0697 18.7803 47.194 19.159 47.194 19.548C47.194 19.9369 47.0697 20.3157 46.8393 20.629C46.624 20.9238 46.3251 21.147 45.9813 21.2697C45.6928 21.3751 45.3827 21.4073 45.0787 21.3634C44.7748 21.3194 44.4864 21.2008 44.2396 21.018C43.9012 20.7672 43.6557 20.4111 43.5418 20.0056C43.4646 19.7196 43.4703 19.548 43.4531 19.548C43.4465 19.5887 43.4465 19.6302 43.4531 19.671C43.4456 19.7915 43.4523 19.9124 43.4731 20.0313C43.5694 20.4628 43.8132 20.8471 44.1624 21.1181C44.4535 21.3433 44.802 21.4824 45.1683 21.5195C45.5346 21.5565 45.9039 21.4901 46.2342 21.3278C46.5646 21.1654 46.8428 20.9136 47.0372 20.601C47.2317 20.2884 47.3345 19.9276 47.334 19.5594C47.3321 19.1377 47.1969 18.7273 46.9479 18.3869C46.7927 18.1757 46.5966 17.9977 46.3714 17.8636C46.1462 17.7294 45.8963 17.6417 45.6367 17.6057C45.377 17.5697 45.1128 17.5862 44.8595 17.654C44.6063 17.7219 44.3693 17.8398 44.1624 18.0008C43.8126 18.2713 43.5687 18.6558 43.4731 19.0875C43.4465 19.2019 43.433 19.319 43.4331 19.4365C43.4342 19.4744 43.441 19.512 43.4531 19.548Z" fill="#263238"/>
<path d="M47.298 19.6107C47.3152 19.6507 47.5668 19.5335 47.87 19.6107C48.1731 19.6879 48.3076 19.9338 48.3447 19.8967C48.3819 19.8595 48.3447 19.8137 48.2875 19.7136C48.1979 19.5842 48.0667 19.4893 47.9157 19.4448C47.7644 19.3991 47.6021 19.4062 47.4553 19.4648C47.3352 19.5363 47.2866 19.5935 47.298 19.6107Z" fill="#263238"/>
<path d="M40.8042 19.0413C41.2687 19.112 41.7395 19.1321 42.2084 19.1014C42.6778 19.1201 43.1478 19.0865 43.6098 19.0013C42.6761 18.9078 41.7348 18.9212 40.8042 19.0413Z" fill="#263238"/>
<path d="M34.6082 91.2356L29.918 98.3854L41.0716 104.897C41.6436 103.796 37.1107 98.2882 37.1107 98.2882L39.5673 94.3815L34.6082 91.2356Z" fill="#455A64"/>
<path d="M33.9214 95.7871C33.7953 95.7576 33.6628 95.7754 33.549 95.8371C33.4351 95.8987 33.3478 96 33.3037 96.1217C33.269 96.2468 33.2834 96.3805 33.344 96.4953C33.4046 96.6101 33.5068 96.6975 33.6297 96.7394C33.7639 96.7679 33.9039 96.7472 34.0242 96.681C34.1444 96.6149 34.2368 96.5077 34.2846 96.3791C34.3074 96.2451 34.2771 96.1075 34.2003 95.9954C34.1234 95.8833 34.006 95.8055 33.8728 95.7785" fill="#E0E0E0"/>
<path d="M29.9053 98.3907L30.4458 97.4441L40.9217 104.111C40.9217 104.111 41.2906 104.62 41.0275 104.934L29.9053 98.3907Z" fill="#E0E0E0"/>
<path d="M37.2991 98.3312C37.2648 98.3855 36.9788 98.2511 36.6098 98.2682C36.2409 98.2854 35.9635 98.4341 35.9263 98.3826C35.8892 98.3312 36.1523 98.0652 36.6013 98.0509C37.0503 98.0366 37.342 98.2883 37.2991 98.3312Z" fill="#E0E0E0"/>
<path d="M38.189 99.5002C38.1718 99.5602 37.8801 99.5145 37.5626 99.6374C37.2452 99.7604 37.0479 99.972 36.9907 99.9377C36.9335 99.9034 37.085 99.5745 37.4826 99.4315C37.8801 99.2885 38.2176 99.4487 38.189 99.5002Z" fill="#E0E0E0"/>
<path d="M38.0374 101.288C37.9831 101.271 38.066 100.954 38.3806 100.739C38.6952 100.525 39.0184 100.553 39.0127 100.611C39.007 100.668 38.761 100.736 38.5036 100.919C38.2462 101.102 38.0918 101.314 38.0374 101.288Z" fill="#E0E0E0"/>
<path d="M37.9706 96.9567C37.9191 96.9939 37.7132 96.7708 37.3986 96.6135C37.084 96.4562 36.7837 96.4105 36.7837 96.3475C36.7837 96.2846 37.124 96.2246 37.4987 96.4162C37.8733 96.6078 38.0363 96.9338 37.9706 96.9567Z" fill="#E0E0E0"/>
<path d="M38.4776 95.4862C38.4633 95.509 38.2288 95.4175 37.9199 95.1573C37.7392 95.0048 37.5786 94.8299 37.4423 94.6368C37.3594 94.5231 37.2848 94.4037 37.2192 94.2793C37.1778 94.2078 37.147 94.1307 37.1277 94.0505C37.1168 93.991 37.1251 93.9297 37.1513 93.8752C37.1775 93.8207 37.2203 93.776 37.2735 93.7473C37.3224 93.7247 37.376 93.7142 37.4297 93.7167C37.4835 93.7192 37.5359 93.7346 37.5824 93.7616C37.6548 93.8017 37.7204 93.8528 37.7769 93.9132C37.881 94.0118 37.9766 94.119 38.0629 94.2335C38.2004 94.4298 38.3075 94.6458 38.3803 94.8741C38.4651 95.0775 38.487 95.3017 38.4432 95.5176C38.4061 95.5176 38.3803 95.2774 38.2345 94.9256C38.1473 94.7217 38.0349 94.5296 37.8999 94.3536C37.8199 94.2514 37.7319 94.1558 37.6367 94.0676C37.5367 93.9675 37.4366 93.9103 37.3765 93.9447C37.3164 93.979 37.3479 93.9647 37.3508 94.0133C37.3667 94.0721 37.3897 94.1288 37.4194 94.182C37.4782 94.2994 37.5441 94.4131 37.6167 94.5224C37.7392 94.7096 37.879 94.8848 38.0343 95.0457C38.2945 95.3203 38.4947 95.4576 38.4776 95.4862Z" fill="#E0E0E0"/>
<path d="M38.3675 95.5271C38.3546 95.3065 38.4138 95.0876 38.5362 94.9036C38.6464 94.6897 38.7925 94.4962 38.968 94.3316C39.0732 94.2362 39.1871 94.151 39.3084 94.0771C39.3815 94.0212 39.4678 93.985 39.5589 93.972C39.6501 93.9589 39.743 93.9695 39.8289 94.0027C39.8785 94.0308 39.9186 94.0729 39.9441 94.1239C39.9696 94.1748 39.9792 94.2322 39.9719 94.2887C39.9619 94.3713 39.9407 94.4521 39.909 94.529C39.8556 94.6646 39.7813 94.7911 39.6887 94.9036C39.5373 95.0946 39.3408 95.245 39.1168 95.3412C38.7307 95.5013 38.4647 95.4356 38.4733 95.4127C38.668 95.3537 38.859 95.283 39.0453 95.201C39.2342 95.0976 39.3982 94.9542 39.5257 94.7806C39.6002 94.6796 39.6608 94.569 39.7059 94.4517C39.7574 94.3231 39.7688 94.2029 39.7059 94.1886C39.6534 94.1771 39.5991 94.1773 39.5467 94.1892C39.4943 94.201 39.4452 94.2243 39.4028 94.2573C39.2914 94.321 39.1862 94.3947 39.0882 94.4775C38.9204 94.6208 38.774 94.7874 38.6535 94.9723C38.4618 95.2926 38.4018 95.5271 38.3675 95.5271Z" fill="#E0E0E0"/>
<path d="M5.81135 92.6689L0 98.9264L9.91247 107.192C10.6446 106.196 7.10117 100.019 7.10117 100.019L10.1899 96.5727L5.81135 92.6689Z" fill="#455A64"/>
<path d="M4.40576 97.0321C4.28647 96.9813 4.15255 96.9766 4.02997 97.0188C3.90738 97.0611 3.80486 97.1474 3.74226 97.2609C3.68674 97.3782 3.67865 97.5124 3.71968 97.6355C3.76071 97.7586 3.84769 97.8611 3.96247 97.9216C4.08977 97.9714 4.23074 97.974 4.3598 97.9289C4.48886 97.8838 4.59749 97.7939 4.666 97.6756C4.70938 97.5469 4.70184 97.4064 4.64494 97.283C4.58804 97.1596 4.48609 97.0627 4.36 97.0121" fill="#E0E0E0"/>
<path d="M0 98.9279L0.686378 98.0842L9.92677 106.398C9.92677 106.398 10.2128 106.97 9.89245 107.227L0 98.9279Z" fill="#E0E0E0"/>
<path d="M7.3157 100.107C7.2728 100.153 7.01255 99.9729 6.64648 99.93C6.28041 99.8871 5.98011 99.9872 5.95151 99.93C5.92291 99.8728 6.23751 99.644 6.67222 99.7127C7.10692 99.7813 7.36432 100.067 7.3157 100.107Z" fill="#E0E0E0"/>
<path d="M8.00974 101.397C7.98114 101.454 7.70373 101.362 7.36912 101.428C7.03451 101.494 6.79714 101.674 6.75996 101.631C6.72278 101.588 6.91153 101.291 7.33194 101.214C7.75235 101.136 8.03262 101.351 8.00974 101.397Z" fill="#E0E0E0"/>
<path d="M7.54731 103.134C7.49297 103.108 7.62738 102.808 7.97343 102.648C8.31948 102.488 8.63408 102.568 8.61978 102.628C8.60548 102.688 8.34808 102.708 8.06781 102.845C7.78754 102.983 7.59879 103.169 7.54731 103.134Z" fill="#E0E0E0"/>
<path d="M8.19963 98.8585C8.14244 98.8843 7.97656 98.6326 7.68771 98.4238C7.39885 98.215 7.11572 98.1235 7.11572 98.0606C7.11572 97.9977 7.47321 97.9948 7.81068 98.2465C8.14815 98.4982 8.25397 98.8414 8.19963 98.8585Z" fill="#E0E0E0"/>
<path d="M8.94687 97.4871C8.94687 97.5071 8.71523 97.3784 8.45211 97.0695C8.30046 96.8881 8.17085 96.6894 8.06602 96.4775C8.00571 96.3512 7.95318 96.2213 7.90873 96.0885C7.87777 96.0109 7.85943 95.9289 7.85439 95.8455C7.85114 95.7831 7.86838 95.7214 7.9035 95.6697C7.93861 95.6181 7.98967 95.5794 8.04887 95.5595C8.10101 95.5459 8.15563 95.5447 8.2083 95.5561C8.26096 95.5676 8.3102 95.5912 8.35202 95.6252C8.41564 95.6771 8.4715 95.7377 8.51789 95.8054C8.6006 95.9206 8.67423 96.042 8.73811 96.1686C8.84208 96.3843 8.91157 96.6149 8.94402 96.8521C8.99575 97.0669 8.98078 97.2924 8.90111 97.4985C8.86394 97.4985 8.8811 97.2497 8.79245 96.8807C8.74159 96.6646 8.66275 96.4559 8.55793 96.2601C8.49616 96.1469 8.42539 96.0388 8.3463 95.937C8.26336 95.8197 8.1747 95.7454 8.10892 95.7682C8.04314 95.7911 8.07746 95.7854 8.0746 95.834C8.0775 95.8947 8.09005 95.9546 8.11178 96.0113C8.15093 96.1367 8.19675 96.2598 8.24905 96.3803C8.34152 96.5803 8.45159 96.7717 8.57795 96.9522C8.79531 97.2926 8.96975 97.4613 8.94687 97.4871Z" fill="#E0E0E0"/>
<path d="M8.82148 97.5029C8.7986 97.5029 8.84722 97.2426 9.09031 96.9137C9.23473 96.7223 9.41075 96.5569 9.61081 96.4247C9.72985 96.3474 9.85632 96.2823 9.98832 96.2302C10.0697 96.1867 10.1611 96.1652 10.2533 96.1677C10.3456 96.1702 10.4356 96.1967 10.5145 96.2445C10.5591 96.2808 10.5916 96.3297 10.6079 96.3848C10.6243 96.4399 10.6236 96.4986 10.6061 96.5534C10.5838 96.6331 10.5501 96.7092 10.506 96.7793C10.4289 96.9053 10.3324 97.0182 10.22 97.1139C10.0378 97.2773 9.81754 97.3924 9.57935 97.4485C9.47444 97.487 9.36281 97.5038 9.25123 97.4979C9.13965 97.492 9.03043 97.4635 8.93015 97.4142C9.1346 97.3897 9.33716 97.3515 9.53645 97.2998C9.74068 97.2293 9.92709 97.1151 10.0827 96.9652C10.172 96.881 10.249 96.7848 10.3115 96.6792C10.383 96.5619 10.4144 96.4418 10.3658 96.4218C10.3163 96.4016 10.2629 96.3926 10.2095 96.3956C10.156 96.3985 10.1039 96.4133 10.057 96.439C9.93689 96.4838 9.82108 96.5393 9.71091 96.6048C9.52274 96.7187 9.3514 96.8583 9.20184 97.0195C8.95303 97.2912 8.86437 97.5286 8.82148 97.5029Z" fill="#E0E0E0"/>
<path d="M50.471 72.271C49.8847 71.413 49.0954 70.3291 48.0544 69.065C46.2755 66.9001 43.7245 64.186 42.6406 63.0592C41.4508 61.5892 38.2334 57.0334 37.1352 55.7807C35.7482 54.1763 33.4602 52.6663 33.4602 52.6663L19.8184 54.1763L18.9604 54.9742C19.1435 56.0753 19.7183 59.5501 20.9395 61.1373C22.4295 63.0649 26.3476 66.6112 28.2752 67.1689C29.5024 67.5398 30.7066 67.983 31.8816 68.4959C34.0408 69.9888 41.2363 74.9965 41.7997 75.8058C41.8338 75.8457 41.8525 75.8964 41.8525 75.9488C41.8525 76.0013 41.8338 76.052 41.7997 76.0918C41.7997 76.0918 38.9398 79.0576 37.5327 82.0233C35.8769 85.5181 32.0303 93.4287 32.0303 93.4287L38.8712 96.9235C38.8712 96.9235 47.6025 82.8212 48.7608 81.0567C49.2155 80.3617 50.0935 78.6372 50.8171 77.1729C51.1979 76.3982 51.3666 75.5363 51.3058 74.6752C51.245 73.8141 50.957 72.9845 50.471 72.271Z" fill="#263238"/>
<path d="M33.3628 58.793L23.3074 55.321C23.3074 55.321 23.5476 59.5337 24.151 60.5976L17.7963 74.6112C17.7963 74.6112 11.5445 83.108 9.75708 85.4274C7.44055 88.4332 3.64258 94.6849 3.64258 94.6849L9.20226 98.7346L22.9813 82.3215C22.9813 82.3215 24.5057 81.658 25.0605 80.7714L35.5078 67.8046L33.3628 58.793Z" fill="#263238"/>
<path d="M63.8082 35.3411L63.5822 33.3964L64.6833 32.0494C64.6833 32.0494 65.8644 31.3802 66.016 31.1914C66.0828 31.2565 66.1301 31.3388 66.1529 31.4291C66.1756 31.5195 66.1728 31.6145 66.1447 31.7033C66.1447 31.7033 66.5251 31.2171 66.7768 31.2457C67.0284 31.2743 67.2029 31.709 67.2658 32.0122C67.4531 32.0902 67.6268 32.1974 67.7806 32.3297C67.9344 32.4679 68.043 32.6493 68.0923 32.8502L68.0208 33.242C68.1143 33.2292 68.2094 33.245 68.2936 33.2874C68.3779 33.3297 68.4473 33.3967 68.4927 33.4793C68.5873 33.707 68.6198 33.9557 68.5871 34.2C68.5871 34.2 68.8902 34.0342 69.0332 34.2773C69.1004 34.3596 69.1465 34.457 69.1675 34.5612C69.1884 34.6654 69.1835 34.7731 69.1533 34.875C69.0904 35.0809 68.1152 36.7139 67.7806 36.9713C67.446 37.2287 64.6633 39.4051 64.6633 39.4051L62.2495 36.8741L63.8082 35.3411Z" fill="#FFBE9D"/>
<path d="M68.7859 34.9731C68.6719 35.1518 68.5299 35.3112 68.3655 35.445C68.1959 35.5994 68.0142 35.74 67.8221 35.8654C67.706 35.9561 67.5633 36.0063 67.416 36.0084C67.333 36.004 67.2528 35.9772 67.1838 35.9309C67.1148 35.8845 67.0597 35.8204 67.0242 35.7453C66.9888 35.671 66.9731 35.5888 66.9786 35.5067C66.9841 35.4245 67.0106 35.3452 67.0556 35.2763C67.1337 35.1651 67.2304 35.0683 67.3416 34.9903C67.5253 34.8524 67.7162 34.7245 67.9136 34.607C68.0893 34.4843 68.282 34.388 68.4856 34.321C68.3201 34.4483 68.1472 34.5658 67.9679 34.6728C67.8106 34.7815 67.6247 34.913 67.4246 35.0732C67.3216 35.1474 67.2317 35.2383 67.1586 35.342C67.1247 35.3942 67.1048 35.4543 67.1008 35.5164C67.0968 35.5785 67.1088 35.6405 67.1357 35.6967C67.1619 35.7515 67.2022 35.7984 67.2524 35.8326C67.3027 35.8667 67.3611 35.8869 67.4217 35.8911C67.5513 35.8858 67.6757 35.8387 67.7763 35.7567C67.9667 35.6381 68.1492 35.5072 68.3226 35.3649C68.6057 35.1361 68.7716 34.9588 68.7859 34.9731Z" fill="#EB996E"/>
<path d="M67.344 32.0406C67.344 32.0549 67.1524 32.2265 66.8578 32.5296C66.7119 32.684 66.5403 32.8699 66.3687 33.1016C66.2801 33.2103 66.1943 33.3275 66.1056 33.4534C66.014 33.6026 65.8703 33.7126 65.7024 33.7622C65.6537 33.7736 65.6032 33.7749 65.5541 33.7661C65.5049 33.7572 65.458 33.7384 65.4164 33.7108C65.3411 33.6579 65.2841 33.5829 65.2534 33.4963C65.2021 33.3406 65.2144 33.171 65.2877 33.0244C65.3484 32.9015 65.4192 32.7838 65.4993 32.6726L65.6938 32.3866C65.8153 32.1897 65.954 32.004 66.1085 31.8318C66.0157 32.0344 65.9057 32.2286 65.7796 32.4123C65.6766 32.5954 65.5165 32.807 65.405 33.0501C65.3755 33.1091 65.358 33.1734 65.3536 33.2391C65.3492 33.3049 65.3579 33.3709 65.3792 33.4333C65.3967 33.4964 65.4373 33.5506 65.493 33.585C65.5487 33.6195 65.6152 33.6317 65.6795 33.6192C65.8181 33.5773 65.9357 33.4842 66.0084 33.359C66.0999 33.236 66.1914 33.1159 66.2801 33.0072C66.4429 32.8153 66.6157 32.632 66.7977 32.4581C66.9587 32.2933 67.1427 32.1526 67.344 32.0406Z" fill="#EB996E"/>
<path d="M67.9119 33.1506C67.7986 33.281 67.6783 33.4052 67.5515 33.5224C67.278 33.8454 66.9658 34.1335 66.6221 34.3804C66.5243 34.4556 66.421 34.5235 66.3132 34.5835C66.2504 34.6148 66.1791 34.6248 66.1101 34.6121C66.0519 34.5942 65.9968 34.5672 65.9471 34.532C65.8962 34.5002 65.8524 34.4584 65.8184 34.409C65.7906 34.3632 65.7686 34.3143 65.7526 34.2631C65.7232 34.1709 65.7125 34.0736 65.7212 33.9772C65.7308 33.8431 65.7795 33.7148 65.8613 33.6082C65.9214 33.5339 65.9671 33.5081 65.97 33.5138C65.876 33.6522 65.8207 33.8131 65.8098 33.98C65.8085 34.0619 65.822 34.1433 65.8499 34.2202C65.8659 34.2613 65.886 34.3006 65.9099 34.3375C65.9373 34.3725 65.9713 34.4016 66.01 34.4233C66.0486 34.4497 66.0911 34.4699 66.1359 34.4834C66.1792 34.4906 66.2237 34.4825 66.2617 34.4605C66.3607 34.4023 66.4562 34.3383 66.5477 34.2689C66.888 34.0325 67.2058 33.7654 67.4972 33.4709C67.6157 33.3408 67.756 33.2324 67.9119 33.1506Z" fill="#EB996E"/>
<path d="M68.5568 34.1391C68.3791 34.3071 68.1878 34.4602 67.9848 34.5967L67.3299 35.0628C67.2029 35.1662 67.0612 35.25 66.9095 35.3117C66.8164 35.3409 66.7166 35.3409 66.6235 35.3117C66.5735 35.2968 66.5274 35.2712 66.4884 35.2366C66.4493 35.202 66.4184 35.1593 66.3976 35.1115C66.3667 35.0207 66.3592 34.9236 66.3757 34.8291C66.3922 34.7347 66.4322 34.6459 66.4919 34.5709C66.5894 34.4436 66.6935 34.3214 66.8037 34.2049C66.9793 33.9997 67.1705 33.8085 67.3757 33.6329C67.5146 33.5148 67.6639 33.4095 67.8218 33.3183C67.8774 33.2801 67.9394 33.252 68.0048 33.2354C68.0048 33.2554 67.7675 33.3926 67.4329 33.6987C67.2371 33.8776 67.0527 34.0686 66.8809 34.2706C66.7837 34.385 66.675 34.5052 66.5949 34.631C66.5469 34.689 66.5144 34.7583 66.5004 34.8323C66.4864 34.9063 66.4914 34.9827 66.5148 35.0543C66.5487 35.1146 66.6033 35.1606 66.6685 35.1837C66.7337 35.2069 66.8051 35.2056 66.8695 35.1801C67.0095 35.1194 67.1419 35.0426 67.2641 34.9513L67.9305 34.5052C68.1288 34.366 68.3383 34.2436 68.5568 34.1391Z" fill="#EB996E"/>
<path d="M66.1691 31.658C66.212 31.6751 65.9775 32.187 65.5227 32.6932C65.4655 32.7562 65.4083 32.8162 65.3483 32.8706C65.2882 32.9249 65.2825 32.9249 65.2596 32.9478L65.2282 32.9735C65.2265 32.983 65.2265 32.9927 65.2282 33.0021C65.2308 33.1305 65.2212 33.2588 65.1996 33.3854C65.1896 33.5082 65.1461 33.6259 65.0737 33.7257C65.077 33.6075 65.0904 33.4898 65.1138 33.3739C65.121 33.2453 65.121 33.1164 65.1138 32.9878C65.1158 32.9612 65.1246 32.9356 65.1395 32.9135L65.1881 32.8591C65.2196 32.8277 65.2453 32.8105 65.2739 32.7819C65.3025 32.7533 65.3826 32.6704 65.4369 32.6103C65.6572 32.3615 65.8402 32.1213 65.9689 31.944C66.0263 31.8424 66.0934 31.7467 66.1691 31.658Z" fill="#EB996E"/>
<path d="M65.8189 34.6083C65.8018 34.6083 65.7674 34.5282 65.6788 34.4167C65.5535 34.2726 65.4208 34.1352 65.2812 34.0049C65.1469 33.8759 64.9858 33.7783 64.8094 33.7189C64.6749 33.6788 64.5806 33.6845 64.5777 33.6645C64.5748 33.6445 64.6692 33.6102 64.8294 33.6331C65.0321 33.6732 65.2182 33.7728 65.3642 33.9191C65.5119 34.0534 65.6417 34.2062 65.7503 34.3738C65.8303 34.4882 65.8361 34.5911 65.8189 34.6083Z" fill="#EB996E"/>
<path d="M11.6927 41.3775C11.6927 41.3775 11.9158 43.2364 11.8214 43.7827C11.7271 44.3289 11.1379 46.0134 11.2237 46.7684C11.1601 46.8161 11.0851 46.8462 11.0062 46.8558C10.9273 46.8654 10.8472 46.8542 10.774 46.8233C10.7008 46.7923 10.637 46.7427 10.589 46.6794C10.5409 46.6161 10.5103 46.5413 10.5001 46.4624C10.3232 45.7819 10.2882 45.0722 10.3972 44.3775C10.5002 43.9228 10.1512 43.8885 9.89671 44.1116C9.64218 44.3347 8.18076 46.1307 8.18076 46.1307C8.18076 46.1307 6.8366 48.4186 6.49913 48.4672C6.16166 48.5158 6.03868 48.1155 5.97004 47.9639C5.9014 47.8123 6.97674 45.7474 6.97674 45.7474L7.66883 44.798C7.66883 44.798 5.31226 47.635 4.94333 47.6579C4.5744 47.6808 4.48288 47.4291 4.47716 47.2117C4.47144 46.9944 5.52389 45.756 5.52389 45.756L6.82515 43.9857L3.90804 46.9114C3.90804 46.9114 3.59631 47.1488 3.37324 46.94C3.15017 46.7313 3.33606 46.268 3.33606 46.268L6.09588 43.0077C6.09588 43.0077 2.99001 43.654 2.84415 43.5139C2.6983 43.3737 2.541 43.1421 2.7126 43.0505C2.88419 42.959 6.1445 41.6206 6.1445 41.6206L8.97582 39.49L9.7194 38.918L12.0903 40.9199L11.6927 41.3775Z" fill="#FFBE9D"/>
<path d="M8.79541 39.108L15.2102 29.8761C15.601 29.3389 16.1073 28.8961 16.6918 28.5803C17.2763 28.2646 17.9242 28.0839 18.5878 28.0515L30.3878 27.4366C30.3878 27.4366 32.0837 25.3975 33.0904 25.6092C34.0971 25.8208 35.6643 26.8418 35.2325 28.715C34.8006 30.5883 32.2381 34.392 29.2867 34.7495L19.3771 34.7208L12.5305 41.802L8.79541 39.108Z" fill="#455A64"/>
<path d="M31.3433 53.9482L37.1375 55.7757C37.8868 54.9835 39.863 50.5249 39.863 50.5249L31.3433 53.9482Z" fill="#E0E0E0"/>
<path d="M39.7124 26.6009L33.1174 25.9116L29.5854 33.9709L26.7026 45.931C26.7026 45.931 17.0848 51.7309 15.2087 54.2248C14.2677 55.486 17.162 58.7006 17.162 58.7006C17.162 58.7006 20.1563 63.0448 23.0248 62.51C25.8933 61.9752 32.4139 57.1591 35.6542 54.8225C36.6094 54.1333 38.2996 52.8892 39.3435 51.3563C40.3994 49.7172 41.2007 47.9276 41.7201 46.0483L39.7124 26.6009Z" fill="#455A64"/>
<path d="M46.9213 29.7708L49.8642 33.2513C50.01 33.5001 47.6106 42.0512 46.4809 44.179C46.0405 45.0084 42.8974 48.5833 41.2415 51.6148V61.1412L37.1318 55.776L37.761 54.8579L41.7134 46.0523L47.0758 39.7833L46.9099 34.0635L46.9213 29.7708Z" fill="#455A64"/>
<path d="M57.7484 39.1655L50.4442 34.6697L49.8722 33.2397L46.2744 43.6699C46.2744 43.6699 56.7017 46.2438 58.7608 45.3258C60.82 44.4077 66.8773 38.9281 66.8773 38.9281L63.1594 35.4419L57.7484 39.1655Z" fill="#455A64"/>
<path d="M39.71 26.6026L40.2133 25.6531C41.4015 26.624 42.4925 27.7083 43.4708 28.8905C44.1669 29.8623 44.8049 30.8746 45.3812 31.922L46.9627 29.8171L47.0885 39.8011L41.7176 46.05L39.7757 27.2232L39.71 26.6026Z" fill="#E0E0E0"/>
<path d="M40.326 45.0888C40.3011 45.0285 40.281 44.9663 40.2659 44.9029C40.2288 44.7627 40.1773 44.5854 40.1172 44.3623C39.9885 43.8933 39.7855 43.2184 39.5252 42.3861C39.265 41.5539 38.9389 40.5644 38.59 39.4719C38.2411 38.3794 37.8522 37.1639 37.5261 35.8713C37.357 35.2425 37.229 34.6034 37.1429 33.958C37.0817 33.3483 37.139 32.7326 37.3116 32.1448C37.6434 31.0208 38.1954 30.1285 38.5643 29.3421C38.8833 28.7362 39.1181 28.0896 39.2621 27.4202C39.2821 27.3029 39.2993 27.1971 39.3164 27.1027C39.3336 27.0084 39.3307 26.934 39.3365 26.8654C39.3401 26.8001 39.3477 26.7352 39.3593 26.6709C39.3674 26.7364 39.3674 26.8027 39.3593 26.8682C39.3593 26.9369 39.3593 27.0169 39.3593 27.1056C39.3593 27.1943 39.3307 27.3087 39.3164 27.4288C39.1938 28.1107 38.9712 28.7709 38.6558 29.3878C38.2983 30.1829 37.7578 31.0838 37.4403 32.182C37.2771 32.754 37.2246 33.352 37.2859 33.9437C37.3741 34.5819 37.5011 35.2142 37.6663 35.8369C37.9923 37.121 38.3727 38.3308 38.7159 39.429C39.0591 40.5272 39.3765 41.5196 39.6225 42.3547C39.8684 43.1898 40.0572 43.8704 40.1687 44.3566C40.2288 44.5911 40.2659 44.777 40.2917 44.9029C40.3096 44.9635 40.3211 45.0258 40.326 45.0888Z" fill="#263238"/>
<path d="M29.1084 43.4785C29.1116 43.369 29.1289 43.2604 29.1599 43.1554C29.2085 42.918 29.2686 42.6291 29.3372 42.2974C29.4888 41.5653 29.6775 40.55 29.8377 39.4232C29.9978 38.2964 30.0922 37.2668 30.1494 36.5204C30.1752 36.1743 30.198 35.8769 30.2152 35.6366C30.2175 35.5278 30.2309 35.4195 30.2552 35.3135C30.2754 35.4209 30.2811 35.5305 30.2724 35.6395C30.2724 35.8483 30.2724 36.1514 30.2552 36.5261C30.2238 37.2754 30.1437 38.3107 29.9692 39.4432C29.7948 40.5757 29.6032 41.591 29.4259 42.3203C29.3372 42.6835 29.26 42.9781 29.1999 43.1782C29.1802 43.2813 29.1495 43.382 29.1084 43.4785Z" fill="#455A64"/>
<path d="M31.3764 41.4779C31.3392 41.5008 30.9903 40.9374 30.4956 40.291C30.0008 39.6447 29.5518 39.1613 29.5804 39.1299C29.982 39.4272 30.331 39.7897 30.6128 40.2024C30.9349 40.5832 31.1928 41.0141 31.3764 41.4779Z" fill="#455A64"/>
<path d="M32.4048 39.1036C31.9052 39.1193 31.4084 39.0215 30.952 38.8176C30.4775 38.6562 30.0448 38.3915 29.6851 38.0426C29.7137 38.0054 30.257 38.3886 31.0063 38.6803C31.7556 38.972 32.4106 39.0607 32.4048 39.1036Z" fill="#455A64"/>
<path d="M40.8247 47.1029C40.7887 47.133 40.7494 47.1589 40.7075 47.1801C40.6274 47.2259 40.513 47.3002 40.3585 47.3803C39.9222 47.6059 39.469 47.7972 39.0029 47.9523C37.4537 48.4861 35.7979 48.6353 34.1783 48.387C32.0669 48.045 30.1071 47.0765 28.5528 45.6071C28.427 45.4899 28.3355 45.3869 28.2668 45.3211C28.2321 45.2898 28.2014 45.2542 28.1753 45.2153C28.3202 45.3224 28.4577 45.4389 28.5871 45.5642C28.9574 45.8837 29.3451 46.1825 29.7482 46.4594C31.0815 47.3732 32.6 47.9815 34.1954 48.2411C35.7933 48.482 37.4252 48.3489 38.9629 47.8522C39.4285 47.702 39.8842 47.5224 40.3271 47.3145C40.4883 47.2334 40.6545 47.1627 40.8247 47.1029Z" fill="#455A64"/>
<path d="M39.6548 49.1648C39.6548 49.1648 39.589 49.2391 39.4489 49.3535C39.3088 49.4679 39.1029 49.6252 38.8369 49.8082C38.137 50.2728 37.3867 50.6565 36.6004 50.9522C35.8129 51.2487 34.9931 51.4512 34.1581 51.5556C33.9057 51.5882 33.6517 51.6073 33.3973 51.6128C33.3023 51.6243 33.2063 51.6243 33.1113 51.6128C33.1113 51.5871 33.506 51.5614 34.138 51.4584C34.9588 51.3256 35.7645 51.112 36.5432 50.8206C37.3197 50.5243 38.0665 50.1557 38.774 49.7196C39.3231 49.3821 39.6405 49.1447 39.6548 49.1648Z" fill="#263238"/>
<path d="M41.0899 52.19C41.047 52.19 41.0441 51.5437 40.924 50.76C40.8039 49.9764 40.6237 49.3644 40.6666 49.3501C41.0646 50.2382 41.211 51.2186 41.0899 52.1843V52.19Z" fill="#455A64"/>
<path d="M31.4746 34.1495C31.8358 33.8811 32.1832 33.5948 32.5156 33.2915C33.2993 32.5364 33.8787 31.595 34.1998 30.5552C34.5209 29.5154 34.5731 28.4112 34.3517 27.3458C34.2493 26.9068 34.1242 26.4734 33.977 26.0474C34.0483 26.1476 34.1051 26.2573 34.1458 26.3734C34.2768 26.6801 34.3802 26.9978 34.4546 27.3229C34.7109 28.4035 34.6743 29.5329 34.3485 30.5947C34.0227 31.6564 33.4196 32.6121 32.6014 33.363C32.357 33.5901 32.0929 33.7949 31.8121 33.9751C31.7084 34.0489 31.5948 34.1076 31.4746 34.1495Z" fill="#263238"/>
<path d="M41.2495 51.6167C41.2744 51.5525 41.306 51.4912 41.3439 51.4337C41.4125 51.3193 41.5126 51.1477 41.647 50.9332C41.9187 50.5013 42.3191 49.8836 42.8253 49.1257C43.8263 47.6071 45.2591 45.5394 46.6548 43.1428C46.8292 42.8568 46.9951 42.545 47.1524 42.2476C47.3097 41.9502 47.4613 41.6528 47.6071 41.361C47.753 41.0693 47.8702 40.7719 47.9989 40.4859C48.0676 40.3458 48.1047 40.1999 48.1591 40.0512C48.2134 39.9025 48.2677 39.7652 48.2992 39.6222C48.4382 39.0751 48.513 38.5136 48.5223 37.9492C48.5399 37.4552 48.5294 36.9605 48.4908 36.4677C48.425 35.564 48.3164 34.8347 48.2477 34.3314C48.2134 34.0911 48.1877 33.8967 48.1677 33.7594C48.1545 33.6915 48.1478 33.6226 48.1476 33.5535C48.1711 33.6182 48.1874 33.6854 48.1963 33.7537C48.2249 33.8995 48.2592 34.0911 48.3049 34.3256C48.3907 34.8261 48.5166 35.5526 48.5909 36.462C48.6357 36.9583 48.6519 37.4567 48.6395 37.9549C48.6373 38.5334 48.5653 39.1096 48.425 39.6708C48.3358 39.968 48.2356 40.2618 48.1248 40.5517C47.9961 40.8377 47.8845 41.1437 47.7329 41.4354C47.5814 41.7271 47.4469 42.0331 47.2782 42.3277C47.1095 42.6223 46.955 42.9311 46.7777 43.2286C45.3792 45.6338 43.9178 47.6929 42.9083 49.1972L41.6899 50.9761L41.3639 51.4623C41.3293 51.5163 41.2911 51.5679 41.2495 51.6167Z" fill="#263238"/>
<path d="M50.1381 36.1785C50.0763 36.448 49.9872 36.7106 49.8721 36.9621C49.6862 37.4397 49.4117 38.0918 49.0885 38.801C48.7653 39.5103 48.4479 40.1452 48.2105 40.597C48.0937 40.8486 47.9539 41.0889 47.793 41.3149C47.8772 41.051 47.9854 40.7954 48.1161 40.5513L48.9512 38.7409L49.7749 36.922C49.8751 36.6645 49.9966 36.4158 50.1381 36.1785Z" fill="#263238"/>
<path d="M51.1721 38.0952C50.9954 38.2994 50.8043 38.4905 50.6001 38.6672C50.2369 39.0132 49.7421 39.4994 49.2388 40.0686C48.7354 40.6377 48.3064 41.1896 48.009 41.5929C47.8585 41.8183 47.6942 42.0341 47.5171 42.2392C47.6239 41.9876 47.7602 41.7495 47.9232 41.53C48.2883 40.9834 48.6906 40.4626 49.1272 39.9713C49.5617 39.4779 50.031 39.0163 50.5314 38.59C50.7255 38.4012 50.9404 38.2352 51.1721 38.0952Z" fill="#263238"/>
<path d="M58.4717 42.3905C58.3054 41.9467 58.1865 41.4866 58.117 41.0177C57.998 40.5585 57.9289 40.0877 57.9111 39.6135C58.0759 40.0586 58.1938 40.5196 58.2629 40.9891C58.3804 41.4479 58.4503 41.9175 58.4717 42.3905Z" fill="#263238"/>
<path d="M59.115 42.0892C59.0721 42.0892 58.9119 41.4601 58.6459 40.6965C58.38 39.9329 58.1169 39.3323 58.1569 39.3123C58.4368 39.7213 58.6501 40.1721 58.7889 40.6478C58.9713 41.1086 59.0813 41.5948 59.115 42.0892Z" fill="#263238"/>
<path d="M17.8211 31.4797C18.2475 31.9228 18.6025 32.4293 18.8735 32.9812C19.1909 33.5081 19.4271 34.0798 19.5742 34.6771C19.5342 34.6943 19.231 33.9335 18.7448 33.0527C18.2587 32.1718 17.7868 31.5055 17.8211 31.4797Z" fill="#263238"/>
<path d="M18.6636 30.5891C18.9024 31.1606 19.0937 31.7508 19.2356 32.3537C19.4239 32.942 19.5645 33.5445 19.656 34.1554C19.4187 33.5834 19.2274 32.9933 19.084 32.3909C18.8972 31.8021 18.7567 31.1997 18.6636 30.5891Z" fill="#263238"/>
<path d="M28.5952 49.7684C28.7402 49.7363 28.8875 49.7152 29.0356 49.7054L30.2368 49.5682C31.2492 49.4538 32.6477 49.2822 34.1835 49.0191C35.7193 48.756 37.0977 48.4843 38.0959 48.2669L39.2741 48.0095C39.4177 47.9716 39.564 47.9448 39.7117 47.9294C39.575 47.9877 39.4333 48.0336 39.2884 48.0667C39.0025 48.1439 38.6164 48.2498 38.1187 48.3699C37.1263 48.613 35.745 48.9104 34.2064 49.1678C32.6677 49.4252 31.2635 49.5853 30.2482 49.674C29.7392 49.7197 29.3245 49.7483 29.0414 49.7626C28.8932 49.7788 28.7438 49.7807 28.5952 49.7684Z" fill="#263238"/>
<path d="M32.9165 45.9363C33.2082 46.0076 33.4949 46.0984 33.7745 46.208C34.3064 46.3853 35.0414 46.6198 35.8651 46.84C36.6887 47.0602 37.4438 47.2232 37.9929 47.3348C38.2917 47.3783 38.5871 47.4433 38.8766 47.5293C38.5731 47.5284 38.2704 47.4978 37.9728 47.4377C36.5261 47.2041 35.1076 46.8207 33.7402 46.2938C33.455 46.2007 33.1792 46.081 32.9165 45.9363Z" fill="#263238"/>
<path d="M28.1757 53.8069L25.7162 55.0567L21.106 50.3636L23.6885 49.6257" fill="#455A64"/>
<path d="M23.6899 49.6257C23.6328 49.6563 23.5723 49.6803 23.5098 49.6972L22.9921 49.8631L21.1246 50.4351L21.1532 50.3321L23.4926 52.6973L25.7605 55.0253H25.689L27.485 54.1387L27.9912 53.9013C28.0504 53.8706 28.1127 53.8467 28.1771 53.8298C28.126 53.8726 28.0692 53.9082 28.0084 53.9356L27.5194 54.2045L25.7462 55.1368L25.7033 55.1568L25.6719 55.1254L23.3839 52.8117L21.0617 50.4294L20.9873 50.355L21.0874 50.3264L22.9692 49.8173L23.4954 49.6829C23.5575 49.6554 23.6229 49.6362 23.6899 49.6257Z" fill="#263238"/>
<path d="M28.1746 53.8099C27.4975 53.2697 26.8511 52.692 26.2385 52.0796C25.5932 51.5017 24.9812 50.8878 24.4053 50.2407C25.0841 50.7789 25.7306 51.3567 26.3414 51.971C26.9875 52.548 27.5996 53.162 28.1746 53.8099Z" fill="#263238"/>
<path d="M40.8949 47.9446H40.9721C40.9121 47.9196 40.8475 47.9073 40.7825 47.9083C40.7174 47.9093 40.6533 47.9236 40.594 47.9504C40.5348 47.9772 40.4816 48.016 40.438 48.0642C40.3943 48.1124 40.361 48.169 40.3401 48.2306C40.3072 48.3615 40.3275 48.5 40.3967 48.6158C40.4659 48.7317 40.5782 48.8153 40.709 48.8484C40.7749 48.8551 40.8414 48.8485 40.9047 48.8292C40.968 48.8099 41.0268 48.7781 41.0777 48.7357C41.1285 48.6934 41.1704 48.6413 41.2009 48.5826C41.2314 48.5239 41.2499 48.4596 41.2553 48.3936C41.2522 48.2898 41.2154 48.1898 41.1504 48.1087C41.0853 48.0277 40.9956 47.9701 40.8949 47.9446Z" fill="#263238"/>
<path d="M37.7643 53.0761C37.7471 53.0589 38.0903 52.7415 38.5479 52.1437C39.7222 50.5763 40.6536 48.8409 41.3106 46.9959C41.5537 46.2838 41.628 45.8233 41.6538 45.8262C41.6541 45.9367 41.6426 46.047 41.6195 46.1551C41.5688 46.4453 41.499 46.7319 41.4107 47.013C41.1191 47.9558 40.736 48.8677 40.2667 49.7357C39.8053 50.609 39.2603 51.4356 38.6394 52.2038C38.4516 52.4367 38.248 52.6564 38.0303 52.8616C37.9513 52.9443 37.8619 53.0164 37.7643 53.0761Z" fill="#263238"/>
<path d="M37.0259 83.0938C37.0259 83.0938 37.046 83.0423 37.0889 82.9422C37.1318 82.8421 37.209 82.6934 37.2948 82.5104C37.4778 82.1328 37.7638 81.5923 38.1527 80.9174C38.5417 80.2424 39.0508 79.4474 39.6828 78.5694C40.0031 78.1347 40.3492 77.6771 40.7324 77.2109C40.9269 76.9793 41.1242 76.7419 41.3387 76.5074L41.6619 76.1528C41.7172 76.1017 41.7662 76.044 41.8077 75.9812C41.8392 75.924 41.8249 75.8925 41.7791 75.8668H41.762C41.3705 75.4676 40.9478 75.1004 40.4979 74.7686C40.0374 74.4111 39.557 74.0507 39.0679 73.6818C38.0755 72.9497 37.0231 72.1946 35.922 71.4253C34.492 70.4129 33.1193 69.452 31.8524 68.5654C31.0859 68.2508 30.4224 67.8161 29.7417 67.5015C29.0855 67.217 28.4037 66.9958 27.7055 66.8409C26.5434 66.5445 25.4663 65.9814 24.5596 65.1964C23.9653 64.6896 23.4196 64.1285 22.9294 63.5205C22.7607 63.306 22.6434 63.1373 22.5548 63.0229L22.4661 62.8885L22.4375 62.8398C22.4516 62.8526 22.464 62.867 22.4747 62.8827L22.5748 63.0086C22.6606 63.1201 22.7921 63.2946 22.9666 63.4891C23.4678 64.0815 24.0189 64.6297 24.6139 65.1278C25.0298 65.4803 25.4824 65.7871 25.9638 66.043C26.5277 66.3372 27.1236 66.5656 27.7398 66.7236C28.4457 66.8763 29.1352 67.0966 29.7989 67.3814C30.4939 67.6988 31.1574 68.1278 31.9095 68.4338H31.9238C33.1965 69.309 34.575 70.2699 35.9992 71.2938C37.086 72.0659 38.1413 72.821 39.1308 73.5588C39.6285 73.9287 40.1051 74.2929 40.5608 74.6513C41.0193 74.9918 41.4497 75.3686 41.8478 75.7781L41.8192 75.7581C41.8472 75.77 41.8723 75.7879 41.8926 75.8107C41.9128 75.8334 41.9278 75.8604 41.9364 75.8896C41.9439 75.9174 41.9458 75.9464 41.9418 75.9749C41.9379 76.0034 41.9283 76.0308 41.9135 76.0555C41.8653 76.1286 41.8086 76.1958 41.7448 76.2557L41.4216 76.6075C41.21 76.8391 41.0098 77.0737 40.8153 77.3053C40.4292 77.7658 40.0803 78.2176 39.76 78.6495C39.1223 79.5074 38.616 80.3082 38.2099 80.9717C37.8038 81.6352 37.515 82.1729 37.3205 82.5447L37.0974 82.9651C37.0774 83.01 37.0535 83.0531 37.0259 83.0938Z" fill="#455A64"/>
<path d="M45.0765 31.4052C44.9977 31.3718 44.9228 31.3296 44.8534 31.2794C44.6566 31.1555 44.4282 31.091 44.1956 31.0935C44.0352 31.1077 43.8803 31.1596 43.7438 31.2451C43.5835 31.3511 43.4358 31.4749 43.3033 31.614C42.9985 31.9675 42.6625 32.2929 42.2995 32.5864L42.2109 32.6493L42.1908 32.5435C42.0852 32.048 41.9447 31.5606 41.7704 31.0849C41.3548 29.9892 40.8774 28.9178 40.3405 27.8761L39.8629 26.9209C39.7997 26.8058 39.747 26.6852 39.7056 26.5605C39.7858 26.6641 39.8557 26.7752 39.9143 26.8923C40.0402 27.1125 40.2204 27.43 40.432 27.8275C40.9995 28.8607 41.4927 29.933 41.9077 31.0363C42.0859 31.5173 42.2255 32.0117 42.3253 32.5149L42.2166 32.4691C42.5745 32.1833 42.9083 31.8687 43.2147 31.5282C43.3567 31.3861 43.5151 31.2613 43.6866 31.1564C43.8382 31.0651 44.0102 31.013 44.1871 31.0049C44.4356 31.0097 44.6764 31.0916 44.8763 31.2394C44.9495 31.2863 45.0168 31.342 45.0765 31.4052Z" fill="#263238"/>
<path d="M46.8774 32.1338C46.8946 32.1338 46.9032 32.2597 46.8288 32.4455C46.7233 32.7007 46.5236 32.9056 46.2711 33.0175L46.1682 33.0633V32.946C46.1682 32.8602 46.1682 32.7744 46.1682 32.6858C46.1184 32.2494 45.9997 31.8237 45.8164 31.4246C45.8336 31.4246 45.9394 31.5247 46.0595 31.742C46.2112 32.0318 46.2989 32.3507 46.3169 32.6772C46.3231 32.7724 46.3231 32.868 46.3169 32.9632L46.2139 32.8946C46.4371 32.7979 46.6228 32.6313 46.743 32.4198C46.8345 32.2454 46.8574 32.131 46.8774 32.1338Z" fill="#263238"/>
<path d="M45.0741 32.5273C45.081 32.5738 45.081 32.621 45.0741 32.6675C45.0588 32.7762 45.0416 32.9106 45.0226 33.0707C44.974 33.4168 44.8996 33.9287 44.7995 34.5407C44.5965 35.7791 44.2904 37.4893 43.85 39.3568C43.4767 40.9511 43.0097 42.522 42.4515 44.0614C42.2313 44.6534 42.0425 45.1253 41.8995 45.4456C41.8309 45.5914 41.7766 45.7144 41.7308 45.8145C41.7135 45.8578 41.6914 45.899 41.665 45.9375C41.6709 45.8908 41.6844 45.8454 41.7051 45.8031C41.7423 45.7001 41.788 45.5743 41.8452 45.4227C41.971 45.0967 42.1455 44.6191 42.3514 44.0271C42.7632 42.8431 43.2609 41.1843 43.7042 39.3196C44.1474 37.455 44.4678 35.7562 44.6937 34.5207L44.9797 33.0593C45.0102 32.901 45.0359 32.7695 45.0569 32.6646C45.0581 32.6184 45.0638 32.5724 45.0741 32.5273Z" fill="#263238"/>
<g opacity="0.3">
<path d="M21.913 51.1865L20.6289 51.6127L24.6385 55.7795L27.7673 54.0121L25.7682 54.893L21.913 51.1865Z" fill="black"/>
</g>
<g opacity="0.3">
<path d="M38.842 48.9141C35.9506 50.3841 32.6303 50.7015 29.4043 50.9961C32.1527 51.6281 36.0565 51.0876 38.842 48.9141Z" fill="black"/>
</g>
<path d="M47.0806 43.8608H47.1892L47.5067 43.9151L48.7222 44.1353L53.2008 44.9361C54.1446 45.0963 55.1827 45.2822 56.3009 45.4137C56.8694 45.4954 57.446 45.505 58.0169 45.4423C58.6112 45.3004 59.1725 45.045 59.6699 44.6902C60.2186 44.3471 60.7459 43.9708 61.2486 43.5634C61.772 43.1544 62.2953 42.7225 62.8273 42.2821C63.8883 41.3984 64.9722 40.4689 66.079 39.5051L66.8169 38.8588V38.9675L63.099 35.4784H63.1876L57.7795 39.1963L57.7452 39.2191L57.7137 39.1991L52.4057 35.9016L50.9472 34.9836L50.5668 34.7405C50.481 34.6833 50.441 34.6519 50.441 34.6519C50.441 34.6519 50.4896 34.6747 50.5754 34.7234L50.9643 34.955L52.4429 35.8444L57.7709 39.1133H57.7052L63.1018 35.3783L63.1476 35.3468L63.1905 35.3869L66.9084 38.8702L66.9684 38.9274L66.9084 38.9818L66.1676 39.6281C65.0609 40.5919 63.9741 41.5214 62.9102 42.4051C62.3783 42.8455 61.8549 43.2774 61.3287 43.6863C60.8208 44.1001 60.2878 44.4822 59.7328 44.8303C59.2161 45.195 58.6333 45.4553 58.0169 45.5968C57.4304 45.6598 56.8382 45.6464 56.2552 45.5567C55.1312 45.4223 54.0959 45.2278 53.1493 45.0648C51.2589 44.7216 49.7346 44.4242 48.6793 44.2068L47.4695 43.958L47.1549 43.8894C47.1295 43.8817 47.1046 43.8722 47.0806 43.8608Z" fill="#263238"/>
</svg>
