<svg width="115" height="108" viewBox="0 0 115 108" fill="none" xmlns="http://www.w3.org/2000/svg">
<path d="M72.7504 84.2581V100.093C72.7532 100.535 72.6686 100.973 72.5014 101.382C72.3342 101.791 72.0878 102.163 71.7763 102.476C71.4649 102.789 71.0945 103.037 70.6866 103.207C70.2786 103.376 69.8412 103.463 69.3995 103.463H42.6906C42.2474 103.466 41.808 103.38 41.3979 103.212C40.9879 103.044 40.6153 102.796 40.3019 102.482C39.9884 102.169 39.7404 101.796 39.5721 101.386C39.4037 100.976 39.3185 100.537 39.3214 100.093V84.2581H34.4482V100.706C34.4482 101.866 34.9091 102.979 35.7293 103.799C36.5496 104.619 37.6621 105.08 38.8221 105.08H73.2557C73.8304 105.08 74.3995 104.968 74.9305 104.748C75.4615 104.528 75.944 104.206 76.3505 103.8C76.757 103.394 77.0794 102.911 77.2994 102.381C77.5194 101.85 77.6327 101.281 77.6327 100.706V84.2581H72.7504Z" fill="#263238" stroke="#263238" stroke-width="0.305376" stroke-linecap="round" stroke-linejoin="round"/>
<path d="M76.8317 84.2581V100.093C76.8345 100.535 76.7499 100.973 76.5827 101.382C76.4156 101.791 76.1691 102.163 75.8577 102.476C75.5462 102.789 75.1758 103.037 74.7679 103.207C74.3599 103.376 73.9225 103.463 73.4808 103.463H43.611C43.1677 103.466 42.7283 103.38 42.3183 103.212C41.9082 103.044 41.5357 102.796 41.2222 102.482C40.9088 102.169 40.6607 101.796 40.4924 101.386C40.3241 100.976 40.2389 100.537 40.2417 100.093V84.2581H38.5234V100.706C38.5234 101.866 38.9842 102.979 39.8045 103.799C40.6248 104.619 41.7373 105.08 42.8973 105.08H74.173C74.7477 105.08 75.3168 104.968 75.8478 104.748C76.3788 104.528 76.8613 104.206 77.2678 103.8C77.6743 103.394 77.9967 102.911 78.2167 102.381C78.4367 101.85 78.55 101.281 78.55 100.706V84.2581H76.8317Z" fill="white" stroke="#263238" stroke-width="0.305376" stroke-linecap="round" stroke-linejoin="round"/>
<path d="M90.0768 104.959H21.0166V107.153H90.0768V104.959Z" fill="#263238" stroke="#263238" stroke-width="0.305376" stroke-linecap="round" stroke-linejoin="round"/>
<path d="M90.0792 104.959H38.0674V107.153H90.0792V104.959Z" fill="white" stroke="#263238" stroke-width="0.305376" stroke-linecap="round" stroke-linejoin="round"/>
<path d="M109.38 0.152588H2.76197C1.32072 0.152588 0.152344 1.32096 0.152344 2.76222V84.163C0.152344 85.6042 1.32072 86.7726 2.76197 86.7726H109.38C110.821 86.7726 111.99 85.6042 111.99 84.163V2.76222C111.99 1.32096 110.821 0.152588 109.38 0.152588Z" fill="#263238" stroke="#263238" stroke-width="0.305376" stroke-linecap="round" stroke-linejoin="round"/>
<path d="M111.848 0.152588H5.22975C3.78849 0.152588 2.62012 1.32096 2.62012 2.76222V84.163C2.62012 85.6042 3.78849 86.7726 5.22975 86.7726H111.848C113.289 86.7726 114.457 85.6042 114.457 84.163V2.76222C114.457 1.32096 113.289 0.152588 111.848 0.152588Z" fill="#71389A" stroke="#263238" stroke-width="0.305376" stroke-linecap="round" stroke-linejoin="round"/>
<path d="M7.33917 1.77002H109.733C110.425 1.77002 111.089 2.04496 111.579 2.53436C112.068 3.02376 112.343 3.68753 112.343 4.37965V78.4355H4.72954V4.39496C4.72752 4.05097 4.79353 3.70998 4.92377 3.3916C5.05401 3.07321 5.24592 2.78372 5.48844 2.53977C5.73097 2.29582 6.01934 2.10222 6.33696 1.97012C6.65457 1.83802 6.99517 1.77001 7.33917 1.77002Z" fill="white" stroke="#263238" stroke-width="0.305376" stroke-linecap="round" stroke-linejoin="round"/>
<path d="M97.0009 15.2045C96.0917 12.9305 94.4466 11.0269 92.3284 9.79761C90.2103 8.56836 87.7413 8.08444 85.3158 8.42315C68.5217 10.7877 19.0061 18.1694 17.9126 23.1957C16.5986 29.2481 14.2371 64.2545 19.7504 65.5715C25.2637 66.8886 100.814 70.0434 103.445 63.2008C105.445 58.0183 102.609 29.147 97.0009 15.2045Z" fill="#71389A"/>
<path opacity="0.7" d="M97.0009 15.2045C96.0917 12.9305 94.4466 11.0269 92.3284 9.79761C90.2103 8.56836 87.7413 8.08444 85.3158 8.42315C68.5217 10.7877 19.0061 18.1694 17.9126 23.1957C16.5986 29.2481 14.2371 64.2545 19.7504 65.5715C25.2637 66.8886 100.814 70.0434 103.445 63.2008C105.445 58.0183 102.609 29.147 97.0009 15.2045Z" fill="white"/>
<path d="M69.8625 36.228C73.3116 35.885 75.8295 32.8108 75.4865 29.3617C75.1434 25.9126 72.0693 23.3947 68.6202 23.7377C65.1711 24.0808 62.6531 27.1549 62.9961 30.604C63.3392 34.0531 66.4134 36.5711 69.8625 36.228Z" fill="white" stroke="#263238" stroke-width="0.305376" stroke-linecap="round" stroke-linejoin="round"/>
<path d="M65.6172 34.0975C65.9622 33.4536 66.4726 32.9134 67.0958 32.5323C67.719 32.1513 68.4325 31.9432 69.1629 31.9294C69.8932 31.9157 70.614 32.0969 71.2511 32.4542C71.8882 32.8116 72.4185 33.3323 72.7875 33.9627" fill="white"/>
<path d="M65.6172 34.0975C65.9622 33.4536 66.4726 32.9134 67.0958 32.5323C67.719 32.1513 68.4325 31.9432 69.1629 31.9294C69.8932 31.9157 70.614 32.0969 71.2511 32.4542C71.8882 32.8116 72.4185 33.3323 72.7875 33.9627" stroke="#263238" stroke-width="0.305376" stroke-linecap="round" stroke-linejoin="round"/>
<path d="M67.7471 28.8279C67.7471 29.5446 67.5358 30.1265 67.2754 30.1265C67.0151 30.1265 66.8037 29.5446 66.8037 28.8279C66.8037 28.1111 67.0151 27.5322 67.2754 27.5322C67.5358 27.5322 67.7471 28.1142 67.7471 28.8279Z" fill="#263238" stroke="#263238" stroke-width="0.305376" stroke-linecap="round" stroke-linejoin="round"/>
<path d="M71.2862 28.8279C71.2862 29.5446 71.0748 30.1265 70.8145 30.1265C70.5541 30.1265 70.3428 29.5446 70.3428 28.8279C70.3428 28.1111 70.5541 27.5322 70.8145 27.5322C71.0748 27.5322 71.2862 28.1142 71.2862 28.8279Z" fill="#263238" stroke="#263238" stroke-width="0.305376" stroke-linecap="round" stroke-linejoin="round"/>
<path d="M62.6634 19.8732C64.0065 16.6779 62.5051 12.9987 59.3098 11.6555C56.1145 10.3124 52.4354 11.8138 51.0922 15.0091C49.749 18.2044 51.2505 21.8835 54.4457 23.2267C57.641 24.5699 61.3202 23.0685 62.6634 19.8732Z" fill="white" stroke="#263238" stroke-width="0.305376" stroke-linecap="round" stroke-linejoin="round"/>
<path d="M60.4262 18.8877C60.0811 19.5315 59.5707 20.0718 58.9475 20.4528C58.3243 20.8339 57.6109 21.042 56.8805 21.0557C56.1502 21.0694 55.4294 20.8883 54.7923 20.5309C54.1552 20.1736 53.6249 19.6529 53.2559 19.0225" fill="white"/>
<path d="M60.4262 18.8877C60.0811 19.5315 59.5707 20.0718 58.9475 20.4528C58.3243 20.8339 57.6109 21.042 56.8805 21.0557C56.1502 21.0694 55.4294 20.8883 54.7923 20.5309C54.1552 20.1736 53.6249 19.6529 53.2559 19.0225" stroke="#263238" stroke-width="0.305376" stroke-linecap="round" stroke-linejoin="round"/>
<path d="M55.3868 16.2784C55.3868 16.9952 55.1754 17.574 54.9151 17.574C54.6547 17.574 54.4434 16.9952 54.4434 16.2784C54.4434 15.5617 54.6547 14.9797 54.9151 14.9797C55.1754 14.9797 55.3868 15.5556 55.3868 16.2784Z" fill="#263238" stroke="#263238" stroke-width="0.305376" stroke-linecap="round" stroke-linejoin="round"/>
<path d="M58.9258 16.2784C58.9258 16.9952 58.7175 17.574 58.4541 17.574C58.1907 17.574 57.9824 16.9952 57.9824 16.2784C57.9824 15.5617 58.1938 14.9797 58.4541 14.9797C58.7145 14.9797 58.9258 15.5556 58.9258 16.2784Z" fill="#263238" stroke="#263238" stroke-width="0.305376" stroke-linecap="round" stroke-linejoin="round"/>
<path d="M51.3997 41.6058C52.7429 38.4105 51.2414 34.7314 48.0461 33.3882C44.8509 32.045 41.1717 33.5465 39.8285 36.7418C38.4853 39.9371 39.9868 43.6162 43.1821 44.9594C46.3774 46.3026 50.0565 44.8011 51.3997 41.6058Z" fill="white" stroke="#263238" stroke-width="0.305376" stroke-linecap="round" stroke-linejoin="round"/>
<path d="M44.1182 38.0117C44.1182 38.7284 43.9068 39.3104 43.6465 39.3104C43.3861 39.3104 43.1748 38.7284 43.1748 38.0117C43.1748 37.295 43.3861 36.7161 43.6465 36.7161C43.9068 36.7161 44.1182 37.3041 44.1182 38.0117Z" fill="#263238" stroke="#263238" stroke-width="0.305376" stroke-linecap="round" stroke-linejoin="round"/>
<path d="M47.6573 38.0117C47.6573 38.7284 47.449 39.3104 47.1856 39.3104C46.9221 39.3104 46.7139 38.7284 46.7139 38.0117C46.7139 37.295 46.9252 36.7161 47.1856 36.7161C47.4459 36.7161 47.6573 37.3041 47.6573 38.0117Z" fill="#263238" stroke="#263238" stroke-width="0.305376" stroke-linecap="round" stroke-linejoin="round"/>
<path d="M42.6357 35.4932L44.7859 36.8623" stroke="#263238" stroke-width="0.305376" stroke-linecap="round" stroke-linejoin="round"/>
<path d="M48.2028 35.4932L46.0557 36.8623" stroke="#263238" stroke-width="0.305376" stroke-linecap="round" stroke-linejoin="round"/>
<path d="M44.6914 41.8398H46.3515" stroke="#263238" stroke-width="0.305376" stroke-linecap="round" stroke-linejoin="round"/>
<path d="M49.2214 47.7454H41.3037V72.5613H49.2214V47.7454Z" fill="#ADADAD" stroke="#263238" stroke-width="0.305376" stroke-linecap="round" stroke-linejoin="round"/>
<path d="M60.7253 25.7881H52.8076V72.5623H60.7253V25.7881Z" fill="#71389A" stroke="#263238" stroke-width="0.305376" stroke-linecap="round" stroke-linejoin="round"/>
<path d="M72.3767 37.885H64.459V72.5575H72.3767V37.885Z" fill="#263238" stroke="#263238" stroke-width="0.305376" stroke-linecap="round" stroke-linejoin="round"/>
<path d="M44.4483 3.32446L45.0364 5.13466H46.9385L45.3978 6.25264L45.9859 8.06284L44.4483 6.94486L42.9077 8.06284L43.4957 6.25264L41.9551 5.13466H43.8602L44.4483 3.32446Z" fill="#263238"/>
<path d="M51.0673 3.32446L51.6554 5.13466H53.5606L52.0199 6.25264L52.608 8.06284L51.0673 6.94486L49.5297 8.06284L50.1178 6.25264L48.5771 5.13466H50.4792L51.0673 3.32446Z" fill="#263238"/>
<path d="M57.6894 3.32446L58.2775 5.13466H60.1826L58.642 6.25264L59.2301 8.06284L57.6894 6.94486L56.1487 8.06284L56.7368 6.25264L55.1992 5.13466H57.1013L57.6894 3.32446Z" fill="#263238"/>
<path d="M64.3106 3.32446L64.8987 5.13466H66.8008L65.2632 6.25264L65.8513 8.06284L64.3106 6.94486L62.77 8.06284L63.358 6.25264L61.8174 5.13466H63.7225L64.3106 3.32446Z" fill="#263238"/>
<path d="M70.9335 3.32446L71.5247 5.13466H73.4268L71.8861 6.25264L72.4742 8.06284L70.9335 6.94486L69.3959 8.06284L69.984 6.25264L68.4434 5.13466H70.3454L70.9335 3.32446Z" fill="#263238"/>
<path d="M10.1456 47.615L10.7337 49.4252H12.6357L11.0982 50.5462L11.6862 52.3564L10.1456 51.2384L8.60492 52.3564L9.193 50.5462L7.65234 49.4252H9.55749L10.1456 47.615Z" fill="#263238"/>
<path d="M16.7667 47.615L17.3548 49.4252H19.2568L17.7162 50.5462L18.3043 52.3564L16.7667 51.2384L15.226 52.3564L15.8141 50.5462L14.2734 49.4252H16.1786L16.7667 47.615Z" fill="#263238"/>
<path opacity="0.2" d="M23.3857 47.615L23.9738 49.4252H25.8789L24.3383 50.5462L24.9263 52.3564L23.3857 51.2384L21.845 52.3564L22.4362 50.5462L20.8955 49.4252H22.7976L23.3857 47.615Z" fill="#263238"/>
<path opacity="0.2" d="M30.0117 47.615L30.5997 49.4252H32.5018L30.9642 50.5462L31.5523 52.3564L30.0117 51.2384L28.471 52.3564L29.0591 50.5462L27.5215 49.4252H29.4236L30.0117 47.615Z" fill="#263238"/>
<path opacity="0.2" d="M36.629 47.615L37.2171 49.4252H39.1191L37.5785 50.5462L38.1696 52.3564L36.629 51.2384L35.0883 52.3564L35.6764 50.5462L34.1357 49.4252H36.0409L36.629 47.615Z" fill="#263238"/>
<path d="M78.1669 34.3279L78.755 36.1381H80.6571L79.1195 37.2561L79.7076 39.0663L78.1669 37.9483L76.6263 39.0663L77.2144 37.2561L75.6768 36.1381H77.5788L78.1669 34.3279Z" fill="#263238"/>
<path d="M84.7921 34.3279L85.3801 36.1381H87.2822L85.7416 37.2561L86.3297 39.0663L84.7921 37.9483L83.2514 39.0663L83.8395 37.2561L82.2988 36.1381H84.204L84.7921 34.3279Z" fill="#263238"/>
<path d="M91.4101 34.3279L91.9982 36.1381H93.9033L92.3627 37.2561L92.9507 39.0663L91.4101 37.9483L89.8725 39.0663L90.4606 37.2561L88.9199 36.1381H90.822L91.4101 34.3279Z" fill="#263238"/>
<path opacity="0.2" d="M98.0322 34.3279L98.6202 36.1381H100.525L98.9847 37.2561L99.5728 39.0663L98.0322 37.9483L96.4915 39.0663L97.0796 37.2561L95.542 36.1381H97.4441L98.0322 34.3279Z" fill="#263238"/>
<path opacity="0.2" d="M104.653 34.3279L105.241 36.1381H107.144L105.606 37.2561L106.194 39.0663L104.653 37.9483L103.113 39.0663L103.701 37.2561L102.16 36.1381H104.065L104.653 34.3279Z" fill="#263238"/>
</svg>
