<svg width="85" height="104" viewBox="0 0 85 104" fill="none" xmlns="http://www.w3.org/2000/svg">
<path d="M0.359593 80.6536L0 83.6991L1.65117 84.2862C1.67425 85.3294 1.81957 86.3664 2.08416 87.3757L0.616447 88.4178L1.81997 91.2431L3.55187 90.9129C4.09378 91.8032 4.73648 92.6281 5.46723 93.3713L4.73337 94.9931L7.25049 96.8425L8.57877 95.705C9.49191 96.2111 10.4627 96.6053 11.4702 96.8792L11.6536 98.6404L14.6991 99.0073L15.2862 97.3488C16.3295 97.327 17.3666 97.1817 18.3757 96.9159L19.4178 98.3469L22.2358 97.136L21.9276 95.3748C22.8179 94.8328 23.6428 94.1901 24.386 93.4594L26.0078 94.1932L27.8425 91.7422L26.705 90.3992C27.2092 89.4878 27.6034 88.5196 27.8792 87.5152L29.6404 87.3244L30 84.2789L28.3488 83.6918C28.3258 82.6486 28.1804 81.6116 27.9159 80.6022L29.3836 79.5602L28.1727 76.7348L26.4481 77.0504C25.9009 76.1643 25.2533 75.3443 24.5181 74.6067L25.252 72.9848L22.7348 71.1575L21.3992 72.295C20.4901 71.7932 19.5244 71.4015 18.5225 71.1282L18.339 69.3669L15.2935 69L14.7065 70.6585C13.6632 70.6811 12.6262 70.8264 11.6169 71.0915L10.5749 69.6898L7.74951 70.8933L8.06507 72.6252C7.17438 73.1666 6.34941 73.8094 5.60665 74.5406L3.98484 73.8068L2.1502 76.2652L3.28768 77.6008C2.78465 78.5154 2.39057 79.4858 2.11351 80.4922L0.359593 80.6536ZM7.42662 83.09C7.60552 81.5943 8.22387 80.1852 9.20351 79.0409C10.1832 77.8965 11.4801 77.0683 12.9304 76.661C14.3806 76.2537 15.9191 76.2855 17.3513 76.7524C18.7835 77.2194 20.0451 78.1005 20.9766 79.2843C21.9081 80.4682 22.4677 81.9017 22.5846 83.4035C22.7015 84.9053 22.3705 86.4081 21.6334 87.7219C20.8963 89.0356 19.7862 90.1013 18.4436 90.7843C17.1009 91.4672 15.5859 91.7367 14.09 91.5587C12.084 91.318 10.2554 90.291 9.00604 88.7031C7.75666 87.1152 7.1886 85.0964 7.42662 83.09Z" fill="#263238"/>
<path d="M47.3369 6.89062H32.7344V10.2581H47.3369V6.89062Z" fill="#71389A"/>
<path d="M42.3308 11.7578H32.7344V15.1253H42.3308V11.7578Z" fill="#71389A"/>
<path d="M38.2585 16.625H32.7344V19.9925H38.2585V16.625Z" fill="#71389A"/>
<path opacity="0.2" d="M47.3369 6.89062H32.7344V10.2581H47.3369V6.89062Z" fill="black"/>
<path opacity="0.2" d="M42.3308 11.7578H32.7344V15.1253H42.3308V11.7578Z" fill="black"/>
<path opacity="0.2" d="M38.2585 16.625H32.7344V19.9925H38.2585V16.625Z" fill="black"/>
<path d="M12.3308 44.1914H7.37891V54.3361H12.3308V44.1914Z" fill="#71389A"/>
<path d="M19.4792 47.6797H14.5273V54.3424H19.4792V47.6797Z" fill="#71389A"/>
<path d="M26.6393 50.5078H21.6875V54.3452H26.6393V50.5078Z" fill="#71389A"/>
<path opacity="0.2" d="M12.3308 44.1914H7.37891V54.3361H12.3308V44.1914Z" fill="black"/>
<path opacity="0.2" d="M19.4792 47.6797H14.5273V54.3424H19.4792V47.6797Z" fill="black"/>
<path opacity="0.2" d="M26.6393 50.5078H21.6875V54.3452H26.6393V50.5078Z" fill="black"/>
<path d="M66.2294 62.0186H6.27114C5.44817 62.0202 4.63297 61.8594 3.87219 61.5456C3.11141 61.2318 2.41999 60.771 1.8375 60.1896C1.25502 59.6082 0.792896 58.9177 0.477595 58.1575C0.162293 57.3973 -1.52468e-06 56.5825 0 55.7595V6.25909C0.00318434 4.60005 0.663642 3.00988 1.83676 1.83677C3.00988 0.66365 4.60005 0.00318724 6.25909 2.89925e-06H66.2174C67.0401 -0.000788583 67.855 0.160481 68.6154 0.474601C69.3758 0.788721 70.0669 1.24954 70.6493 1.83075C71.2316 2.41196 71.6937 3.10218 72.0093 3.86199C72.3249 4.62181 72.4877 5.43634 72.4885 6.25909V55.7595C72.4885 57.4195 71.8291 59.0115 70.6553 60.1853C69.4815 61.3591 67.8895 62.0186 66.2294 62.0186ZM6.27114 0.572299C4.75749 0.575483 3.30675 1.17819 2.23644 2.2485C1.16613 3.31881 0.563424 4.76954 0.560241 6.28319V55.7836C0.563424 57.2972 1.16613 58.748 2.23644 59.8183C3.30675 60.8886 4.75749 61.4913 6.27114 61.4945H66.2294C67.7431 61.4913 69.1938 60.8886 70.2641 59.8183C71.3344 58.748 71.9372 57.2972 71.9403 55.7836V6.25909C71.9372 4.74544 71.3344 3.29471 70.2641 2.2244C69.1938 1.15409 67.7431 0.551386 66.2294 0.548202L6.27114 0.572299Z" fill="#263238"/>
<path d="M65.4578 44.4688H44.0781V45.0169H65.4578V44.4688Z" fill="#263238"/>
<path d="M65.4578 46.7656H44.0781V47.3138H65.4578V46.7656Z" fill="#263238"/>
<path d="M65.4578 49.0547H44.0781V49.6029H65.4578V49.0547Z" fill="#263238"/>
<path d="M65.4578 51.3438H44.0781V51.8919H65.4578V51.3438Z" fill="#263238"/>
<path d="M65.4578 53.6328H44.0781V54.181H65.4578V53.6328Z" fill="#263238"/>
<path d="M28.1023 7.12109H6.72266V7.66929H28.1023V7.12109Z" fill="#263238"/>
<path d="M28.1023 9.41016H6.72266V9.95835H28.1023V9.41016Z" fill="#263238"/>
<path d="M28.1023 11.6992H6.72266V12.2474H28.1023V11.6992Z" fill="#263238"/>
<path d="M28.1023 13.9883H6.72266V14.5365H28.1023V13.9883Z" fill="#263238"/>
<path d="M28.1023 16.2773H6.72266V16.8255H28.1023V16.2773Z" fill="#263238"/>
<path d="M61.2341 25.6117L65.0654 27.6237L64.6257 16.8164L55.487 22.5996L59.3184 24.6056L56.4328 30.0936C55.9243 30.093 55.4301 30.2627 55.0292 30.5756L49.9388 28.2201V28.19C49.9607 27.5759 49.7399 26.9778 49.3242 26.5253C48.9084 26.0728 48.3312 25.8022 47.7174 25.7721C47.1036 25.742 46.5027 25.9548 46.0447 26.3645C45.5866 26.7742 45.3084 27.3478 45.2701 27.9611C45.2641 28.0373 45.2641 28.1138 45.2701 28.19C45.2732 28.5243 45.3449 28.8544 45.4809 29.1599L38.8544 36.3888C38.6419 36.3221 38.4205 36.2876 38.1978 36.2864C38.0824 36.2865 37.9673 36.2987 37.8544 36.3226L28.3121 24.208C28.5302 23.6479 28.5234 23.0252 28.2933 22.4699C28.0632 21.9146 27.6275 21.4696 27.0772 21.2279C26.5268 20.9861 25.9044 20.9663 25.3398 21.1725C24.7752 21.3787 24.312 21.795 24.047 22.3345C23.9151 22.626 23.8473 22.9423 23.8482 23.2622C23.8555 23.5016 23.8961 23.7388 23.9687 23.9671L13.0951 35.1117C12.6626 34.9557 12.1936 34.931 11.7471 35.0409C11.3005 35.1507 10.8965 35.3902 10.5857 35.7291C10.2749 36.068 10.0713 36.4912 10.0005 36.9456C9.92965 37.3999 9.99476 37.8651 10.1876 38.2825C10.3805 38.6999 10.6924 39.051 11.0843 39.2916C11.4762 39.5321 11.9305 39.6515 12.39 39.6345C12.8495 39.6175 13.2938 39.4651 13.6668 39.1963C14.0399 38.9274 14.3252 38.5543 14.4867 38.1238C14.578 37.8665 14.6248 37.5956 14.6253 37.3226C14.6259 37.1311 14.5996 36.9405 14.547 36.7563L25.541 25.4731C25.7567 25.5447 25.9824 25.5814 26.2097 25.5815C26.3534 25.5824 26.4967 25.5683 26.6374 25.5394L36.1254 37.5877C35.8275 38.1373 35.76 38.7827 35.938 39.3821C36.1159 39.9814 36.5246 40.4855 37.0742 40.7835C37.6239 41.0814 38.2693 41.1489 38.8687 40.9709C39.468 40.793 39.9721 40.3843 40.2701 39.8347C40.4384 39.529 40.5352 39.1892 40.5532 38.8407C40.5592 38.7625 40.5592 38.6839 40.5532 38.6057C40.5495 38.3621 40.5089 38.1204 40.4327 37.8889L47.2159 30.5033C47.345 30.5272 47.4761 30.5393 47.6075 30.5394C48.0711 30.5392 48.5241 30.4008 48.9087 30.1418L54.0894 32.5515C54.0989 32.8609 54.1699 33.1653 54.2983 33.4469C54.4266 33.7286 54.6098 33.9819 54.8371 34.192C55.0644 34.4022 55.3312 34.5649 55.6221 34.6708C55.9129 34.7767 56.222 34.8236 56.5312 34.8088C56.8403 34.794 57.1435 34.7178 57.4229 34.5846C57.7023 34.4514 57.9524 34.2639 58.1586 34.033C58.3648 33.8022 58.5229 33.5325 58.6238 33.2399C58.7246 32.9473 58.7662 32.6375 58.7461 32.3286C58.7234 31.8959 58.5794 31.4784 58.3304 31.1238L61.2341 25.6117Z" fill="#263238"/>
<path d="M43.5542 65.014C42.611 65.0156 41.707 65.3914 41.0406 66.0589C40.3743 66.7264 40 67.6311 40 68.5743V99.4239C40 100.367 40.3745 101.271 41.041 101.937C41.7076 102.604 42.6116 102.978 43.5542 102.978H80.9039C81.8471 102.978 82.7518 102.604 83.4193 101.938C84.0868 101.271 84.4626 100.367 84.4642 99.4239V68.5562C84.4626 67.613 84.0868 66.709 83.4193 66.0426C82.7518 65.3762 81.8471 65.002 80.9039 65.002L43.5542 65.014Z" stroke="#263238" stroke-width="0.420796" stroke-linejoin="round"/>
<path d="M45.7827 69.218H42.9453V69.5975H45.7827V69.218Z" fill="#263238"/>
<path d="M45.7827 72.3149H42.9453V72.6945H45.7827V72.3149Z" fill="#263238"/>
<path d="M45.7827 75.4116H42.9453V75.7911H45.7827V75.4116Z" fill="#263238"/>
<path d="M45.7827 78.5134H42.9453V78.893H45.7827V78.5134Z" fill="#263238"/>
<path d="M45.6743 72.3149H42.8369V72.6945H45.6743V72.3149Z" fill="#263238"/>
<path d="M45.7827 81.6101H42.9453V81.9896H45.7827V81.6101Z" fill="#263238"/>
<path d="M64.3903 98.3704C67.0826 98.426 69.7308 97.6816 71.9998 96.2314C74.2688 94.7812 76.0565 92.6905 77.1368 90.2238C78.217 87.7572 78.5411 85.0254 78.0681 82.3745C77.5951 79.7235 76.3463 77.2725 74.4797 75.3316C72.613 73.3907 70.2125 72.0472 67.582 71.4712C64.9515 70.8952 62.2093 71.1126 59.7023 72.0958C57.1954 73.079 55.0365 74.7839 53.499 76.9946C51.9615 79.2053 51.1144 81.8225 51.0649 84.5149C50.9971 88.1186 52.3624 91.6019 54.8608 94.1997C57.3593 96.7976 60.7867 98.2977 64.3903 98.3704ZM64.8662 75.1534C66.7722 75.1919 68.6241 75.7948 70.1874 76.8858C71.7508 77.9768 72.9556 79.507 73.6493 81.2827C74.343 83.0584 74.4945 85 74.0848 86.8619C73.675 88.7237 72.7223 90.4223 71.3471 91.7426C69.972 93.063 68.2361 93.946 66.3592 94.2798C64.4822 94.6136 62.5484 94.3833 60.8023 93.618C59.0562 92.8527 57.5763 91.5868 56.5497 89.9804C55.5231 88.374 54.9959 86.4993 55.0348 84.5932C55.087 82.0378 56.1521 79.6077 57.9957 77.8375C59.8394 76.0672 62.3108 75.1017 64.8662 75.1534Z" fill="#71389A"/>
<path opacity="0.2" d="M64.3903 98.3704C67.0826 98.426 69.7308 97.6816 71.9998 96.2314C74.2688 94.7812 76.0565 92.6905 77.1368 90.2238C78.217 87.7572 78.5411 85.0254 78.0681 82.3745C77.5951 79.7235 76.3463 77.2725 74.4797 75.3316C72.613 73.3907 70.2125 72.0472 67.582 71.4712C64.9515 70.8952 62.2093 71.1126 59.7023 72.0958C57.1954 73.079 55.0365 74.7839 53.499 76.9946C51.9615 79.2053 51.1144 81.8225 51.0649 84.5149C50.9971 88.1186 52.3624 91.6019 54.8608 94.1997C57.3593 96.7976 60.7867 98.2977 64.3903 98.3704ZM64.8662 75.1534C66.7722 75.1919 68.6241 75.7948 70.1874 76.8858C71.7508 77.9768 72.9556 79.507 73.6493 81.2827C74.343 83.0584 74.4945 85 74.0848 86.8619C73.675 88.7237 72.7223 90.4223 71.3471 91.7426C69.972 93.063 68.2361 93.946 66.3592 94.2798C64.4822 94.6136 62.5484 94.3833 60.8023 93.618C59.0562 92.8527 57.5763 91.5868 56.5497 89.9804C55.5231 88.374 54.9959 86.4993 55.0348 84.5932C55.087 82.0378 56.1521 79.6077 57.9957 77.8375C59.8394 76.0672 62.3108 75.1017 64.8662 75.1534Z" fill="black"/>
<path d="M54.8994 94.5019C56.1805 95.7943 57.7036 96.8217 59.3818 97.5254C61.0601 98.2291 62.8604 98.5954 64.6802 98.6032C66.5 98.611 68.3035 98.2603 69.9877 97.5711C71.6719 96.8818 73.2038 95.8676 74.4959 94.5862C74.5434 94.5332 74.5696 94.4645 74.5696 94.3934C74.5696 94.3223 74.5434 94.2537 74.4959 94.2006L71.6706 91.3573C71.6457 91.3311 71.6158 91.3101 71.5827 91.2956C71.5496 91.2811 71.514 91.2734 71.4778 91.2729C71.4049 91.2772 71.3353 91.3046 71.2791 91.3512C70.3906 92.2423 69.3298 92.9429 68.1614 93.41C66.9931 93.8772 65.7417 94.1011 64.4838 94.0681H63.8151C61.7702 93.9539 59.82 93.1683 58.2669 91.8332C58.1283 91.7066 57.9838 91.5801 57.8512 91.4476C56.2643 89.8631 55.2882 87.7688 55.0953 85.5346C54.9024 83.3003 55.5051 81.0697 56.797 79.2367C56.8093 79.2199 56.8194 79.2017 56.8271 79.1825C56.8874 79.0981 56.9536 79.0258 57.0259 78.9415C57.9524 77.768 59.1476 76.8347 60.5106 76.2203C61.8737 75.6059 63.3645 75.3284 64.8573 75.4113C64.8929 75.4121 64.9283 75.4059 64.9615 75.393C64.9947 75.3801 65.0251 75.3608 65.0508 75.3362C65.0765 75.3116 65.0971 75.2822 65.1115 75.2496C65.1258 75.217 65.1336 75.1819 65.1344 75.1463L65.2127 71.1523C65.2144 71.0798 65.1876 71.0095 65.138 70.9566C65.0885 70.9037 65.0201 70.8723 64.9477 70.8691C62.1901 70.8228 59.4814 71.6005 57.1683 73.1027C54.8553 74.6049 53.0433 76.7632 51.9641 79.3013C50.8849 81.8394 50.5878 84.6418 51.1107 87.3498C51.6336 90.0577 52.9528 92.548 54.8994 94.5019Z" fill="#263238"/>
<path d="M64.9513 70.875C68.7062 70.879 72.3058 72.3739 74.9588 75.0312C77.6118 77.6884 79.101 81.2904 79.099 85.0453C79.097 88.8002 77.6039 92.4006 74.9481 95.055C72.2923 97.7094 68.6911 99.2005 64.9362 99.2005C61.1813 99.2005 57.5801 97.7094 54.9243 95.055C52.2685 92.4006 50.7754 88.8002 50.7734 85.0453C50.7714 81.2904 52.2606 77.6884 54.9136 75.0312C57.5666 72.3739 61.1663 70.879 64.9212 70.875H64.9513ZM64.397 98.0861C67.0347 98.1403 69.6291 97.4112 71.8523 95.9908C74.0755 94.5704 75.8275 92.5226 76.8867 90.1064C77.9459 87.6902 78.2648 85.0141 77.803 82.4167C77.3412 79.8193 76.1194 77.4171 74.2923 75.5141C72.4651 73.6111 70.1146 72.2927 67.5381 71.7257C64.9616 71.1587 62.2747 71.3685 59.8175 72.3286C57.3602 73.2887 55.2429 74.956 53.7333 77.1196C52.2237 79.2832 51.3897 81.8459 51.3367 84.4835C51.2657 88.0196 52.6014 91.4392 55.0503 93.9909C57.4992 96.5426 60.8611 98.0177 64.397 98.0921V98.0861ZM64.8729 74.869C66.829 74.9087 68.7293 75.5276 70.3337 76.6474C71.938 77.7672 73.1742 79.3377 73.8859 81.1601C74.5977 82.9825 74.753 84.975 74.3323 86.8857C73.9116 88.7964 72.9337 90.5394 71.5224 91.8943C70.111 93.2492 68.3295 94.1552 66.4033 94.4976C64.477 94.84 62.4924 94.6035 60.7006 93.818C58.9087 93.0324 57.3901 91.7332 56.3367 90.0846C55.2833 88.4359 54.7424 86.5119 54.7825 84.5558C54.8363 81.9333 55.9295 79.4395 57.8218 77.6229C59.7141 75.8063 62.2504 74.8157 64.8729 74.869ZM64.4814 94.092C66.329 94.1298 68.1464 93.6188 69.7036 92.6236C71.2608 91.6285 72.488 90.1938 73.2298 88.5012C73.9717 86.8086 74.1949 84.934 73.8713 83.1145C73.5478 81.295 72.6918 79.6123 71.4119 78.2793C70.1319 76.9463 68.4854 76.0227 66.6806 75.6255C64.8757 75.2283 62.9936 75.3752 61.2722 76.0477C59.5509 76.7202 58.0676 77.888 57.01 79.4036C55.9524 80.9191 55.368 82.7142 55.3307 84.5619C55.2823 87.038 56.2189 89.432 57.9348 91.2179C59.6506 93.0038 62.0053 94.0354 64.4814 94.086V94.092Z" fill="#263238"/>
</svg>
