<svg width="133" height="107" viewBox="0 0 133 107" fill="none" xmlns="http://www.w3.org/2000/svg">
<path d="M132.569 0.219971H0.219727V106.782H132.569V0.219971Z" fill="white" stroke="#263238" stroke-width="0.440051" stroke-linejoin="round"/>
<path d="M102.732 63.261H89.3818V76.5546H102.732V63.261Z" fill="#71389A"/>
<path d="M132.569 0.219971H0.219727V9.34674H132.569V0.219971Z" fill="#71389A" stroke="#263238" stroke-width="0.440051" stroke-linejoin="round"/>
<path d="M132.569 0.219971H0.219727V3.15625H132.569V0.219971Z" fill="#263238" stroke="#263238" stroke-width="0.440051" stroke-linejoin="round"/>
<path d="M126.152 1.72748C126.152 1.59209 126.112 1.45975 126.037 1.34718C125.962 1.23462 125.855 1.14688 125.73 1.09508C125.605 1.04327 125.467 1.02971 125.334 1.05612C125.201 1.08253 125.079 1.14773 124.984 1.24346C124.888 1.33919 124.823 1.46116 124.796 1.59394C124.77 1.72672 124.784 1.86435 124.835 1.98943C124.887 2.1145 124.975 2.22141 125.087 2.29662C125.2 2.37184 125.332 2.41198 125.468 2.41198C125.649 2.41198 125.823 2.33987 125.952 2.2115C126.08 2.08313 126.152 1.90902 126.152 1.72748Z" fill="white" stroke="#263238" stroke-width="0.440051" stroke-linejoin="round"/>
<path d="M128.114 1.72747C128.114 1.59192 128.074 1.45943 127.999 1.34679C127.923 1.23414 127.816 1.14641 127.691 1.09471C127.565 1.04302 127.428 1.02968 127.295 1.0564C127.162 1.08311 127.04 1.14868 126.944 1.24478C126.849 1.34089 126.784 1.46321 126.758 1.59623C126.732 1.72926 126.746 1.86701 126.798 1.99202C126.851 2.11703 126.939 2.22367 127.052 2.29844C127.165 2.3732 127.298 2.41271 127.433 2.41197C127.523 2.41197 127.612 2.39424 127.695 2.3598C127.778 2.32535 127.853 2.27487 127.916 2.21126C127.979 2.14765 128.029 2.07216 128.063 1.98913C128.097 1.90611 128.115 1.81718 128.114 1.72747Z" fill="white" stroke="#263238" stroke-width="0.440051" stroke-linejoin="round"/>
<path d="M130.084 1.72731C130.084 1.59257 130.044 1.46084 129.969 1.34862C129.895 1.2364 129.789 1.14869 129.665 1.09647C129.54 1.04425 129.404 1.02985 129.271 1.05507C129.139 1.08029 129.017 1.14401 128.921 1.23825C128.824 1.33249 128.758 1.45305 128.73 1.58484C128.702 1.71662 128.713 1.85375 128.763 1.97906C128.812 2.10437 128.898 2.21227 129.008 2.28926C129.119 2.36624 129.25 2.40888 129.384 2.41182C129.476 2.41381 129.566 2.39758 129.651 2.36407C129.736 2.33057 129.813 2.28046 129.878 2.2167C129.943 2.15294 129.995 2.0768 130.03 1.99277C130.066 1.90873 130.084 1.81848 130.084 1.72731Z" fill="white" stroke="#263238" stroke-width="0.440051" stroke-linejoin="round"/>
<path d="M15.2018 35.701C15.1122 35.7554 15.0108 35.7875 14.9062 35.7945V35.5963C14.9917 35.5988 15.0754 35.5719 15.1435 35.5202C15.2115 35.4685 15.2598 35.395 15.2803 35.312H15.4449V37.4553H15.2092L15.2018 35.701Z" fill="#263238"/>
<path d="M19.1459 35.8226C19.1459 36.4697 18.4202 36.7017 18.4202 37.1954V37.2291H19.1234V37.446H18.1846V37.2627C18.1846 36.5707 18.9102 36.4361 18.9102 35.8339C18.9102 35.6132 18.8354 35.4972 18.6559 35.4972C18.4763 35.4972 18.4053 35.6207 18.4053 35.8114V36.0022H18.1846V35.8264C18.1846 35.501 18.3342 35.2803 18.6634 35.2803C18.9925 35.2803 19.1459 35.4972 19.1459 35.8226Z" fill="#263238"/>
<path d="M22.7259 35.8189V35.875C22.737 35.9667 22.7178 36.0594 22.6712 36.1391C22.6246 36.2189 22.5532 36.2811 22.4679 36.3164C22.5535 36.3523 22.625 36.4153 22.6716 36.4956C22.7182 36.576 22.7373 36.6693 22.7259 36.7615V36.9261C22.7259 37.2515 22.5763 37.4684 22.2434 37.4684C21.9105 37.4684 21.7646 37.2515 21.7646 36.9261V36.7802H21.9853V36.941C21.9853 37.1356 22.0676 37.2515 22.2397 37.2515C22.4117 37.2515 22.4903 37.1355 22.4903 36.9186V36.754C22.4903 36.5446 22.4005 36.4436 22.221 36.4361H22.0901V36.2229H22.2322C22.2693 36.2226 22.3059 36.2145 22.3397 36.1991C22.3734 36.1837 22.4034 36.1612 22.4278 36.1333C22.4522 36.1053 22.4704 36.0725 22.4812 36.037C22.492 36.0015 22.4951 35.9642 22.4903 35.9274V35.8301C22.4903 35.6094 22.4117 35.4972 22.2397 35.4972C22.0676 35.4972 21.9853 35.6169 21.9853 35.8077V35.9199H21.7646V35.8189C21.7646 35.4935 21.918 35.2803 22.2434 35.2803C22.5689 35.2803 22.7259 35.4935 22.7259 35.8189Z" fill="#263238"/>
<path d="M26.1317 37.0184V37.4486H25.8961V37.0184H25.2041V36.7977L25.8699 35.3015H26.1317V36.7977H26.3001V37.0184H26.1317ZM25.4248 36.7977H25.8961V35.7541L25.4248 36.7977Z" fill="#263238"/>
<path d="M3.73808 39.8488C3.77002 39.7925 3.81705 39.7462 3.87389 39.7151C3.93072 39.684 3.99509 39.6695 4.05976 39.673C4.33282 39.673 4.45625 39.875 4.45625 40.1817V40.6007C4.45625 40.9261 4.29915 41.143 3.97373 41.143C3.64831 41.143 3.49121 40.9261 3.49121 40.6007V40.4548H3.71564V40.6156C3.71564 40.8064 3.79419 40.9223 3.96625 40.9223C4.13831 40.9223 4.21686 40.8064 4.21686 40.6156V40.1892C4.21686 39.9947 4.13831 39.8787 3.96625 39.8787C3.93518 39.8772 3.90412 39.882 3.87492 39.8927C3.84573 39.9035 3.81899 39.92 3.7963 39.9413C3.77362 39.9626 3.75545 39.9882 3.74288 40.0167C3.7303 40.0451 3.72358 40.0758 3.72312 40.1069V40.1555H3.50243L3.55854 38.9661H4.40389V39.1793H3.77175L3.73808 39.8488Z" fill="#263238"/>
<path d="M8.38447 39.4942V39.5316H8.16004V39.4755C8.16004 39.2847 8.08149 39.1725 7.90569 39.1725C7.72988 39.1725 7.64759 39.2885 7.64759 39.5166V39.9992C7.67136 39.928 7.718 39.8666 7.78023 39.8247C7.84247 39.7828 7.91682 39.7626 7.99172 39.7672C8.26852 39.7672 8.38821 39.9655 8.38821 40.276V40.6014C8.38821 40.9268 8.22737 41.1437 7.89821 41.1437C7.56905 41.1437 7.4082 40.9268 7.4082 40.6014V39.5092C7.4082 39.1688 7.56156 38.9556 7.89821 38.9556C8.23485 38.9556 8.38447 39.165 8.38447 39.4942ZM7.63637 40.2947V40.6163C7.63637 40.8071 7.71492 40.9231 7.88699 40.9231C8.05905 40.9231 8.14134 40.8071 8.14134 40.6163V40.2947C8.14134 40.1002 8.05905 39.9842 7.88699 39.9842C7.71492 39.9842 7.64759 40.1002 7.64759 40.2947H7.63637Z" fill="#263238"/>
<path d="M11.8057 39.1934H11.0801V38.9802H12.0489V39.1897L11.499 41.1235H11.2596L11.8057 39.1934Z" fill="#263238"/>
<path d="M15.6745 39.4852V39.5525C15.6864 39.6429 15.6688 39.7347 15.6243 39.8142C15.5799 39.8937 15.5109 39.9568 15.4276 39.9939C15.5118 40.033 15.5811 40.0981 15.6256 40.1796C15.67 40.261 15.6871 40.3546 15.6745 40.4465V40.6036C15.6745 40.6699 15.6614 40.7356 15.636 40.7968C15.6107 40.8581 15.5735 40.9138 15.5266 40.9607C15.4797 41.0075 15.424 41.0447 15.3628 41.0701C15.3015 41.0955 15.2358 41.1086 15.1695 41.1086C15.1032 41.1086 15.0375 41.0955 14.9763 41.0701C14.915 41.0447 14.8594 41.0075 14.8125 40.9607C14.7656 40.9138 14.7284 40.8581 14.703 40.7968C14.6776 40.7356 14.6646 40.6699 14.6646 40.6036V40.4465C14.6513 40.3545 14.6682 40.2607 14.7127 40.1791C14.7572 40.0975 14.8269 40.0325 14.9114 39.9939C14.8278 39.9573 14.7584 39.8943 14.7139 39.8147C14.6693 39.735 14.652 39.6429 14.6646 39.5525V39.4852C14.6646 39.4189 14.6776 39.3532 14.703 39.2919C14.7284 39.2307 14.7656 39.175 14.8125 39.1281C14.8594 39.0812 14.915 39.044 14.9763 39.0187C15.0375 38.9933 15.1032 38.9802 15.1695 38.9802C15.2358 38.9802 15.3015 38.9933 15.3628 39.0187C15.424 39.044 15.4797 39.0812 15.5266 39.1281C15.5735 39.175 15.6107 39.2307 15.636 39.2919C15.6614 39.3532 15.6745 39.4189 15.6745 39.4852ZM14.9002 39.4852V39.5862C14.9002 39.7956 15.0012 39.8892 15.1695 39.8892C15.3378 39.8892 15.4388 39.7956 15.4388 39.5862V39.4852C15.4388 39.2645 15.3378 39.1635 15.1695 39.1635C15.0012 39.1635 14.8815 39.272 14.8815 39.4927L14.9002 39.4852ZM14.9002 40.4091V40.5924C14.9002 40.8131 14.9975 40.9141 15.1695 40.9141C15.3416 40.9141 15.4351 40.8131 15.4388 40.5924V40.4091C15.4388 40.2034 15.3453 40.1024 15.1695 40.1024C14.9937 40.1024 14.8815 40.2108 14.8815 40.4166L14.9002 40.4091Z" fill="#263238"/>
<path d="M19.1468 39.495V40.5872C19.1468 40.9276 18.9935 41.1445 18.6493 41.1445C18.3052 41.1445 18.1668 40.9313 18.1668 40.6059V40.5648H18.3913V40.6209C18.3913 40.8116 18.4735 40.9239 18.6456 40.9239C18.8177 40.9239 18.9074 40.8079 18.9074 40.5835V40.1009C18.8823 40.1717 18.8347 40.2324 18.7719 40.2736C18.7091 40.3148 18.6345 40.3343 18.5596 40.3291C18.2865 40.3291 18.1631 40.1346 18.1631 39.8242V39.495C18.1631 39.1696 18.3239 38.9564 18.6531 38.9564C18.7229 38.9523 18.7928 38.9638 18.8576 38.9901C18.9225 39.0164 18.9806 39.0568 19.0279 39.1084C19.0752 39.16 19.1104 39.2214 19.1309 39.2883C19.1515 39.3552 19.1569 39.4258 19.1468 39.495ZM18.3987 39.495V39.8167C18.3987 40.0112 18.481 40.1271 18.6531 40.1271C18.8251 40.1271 18.9074 40.0112 18.9074 39.8167V39.495C18.9074 39.3005 18.8289 39.1845 18.6531 39.1845C18.4773 39.1845 18.3987 39.2893 18.3987 39.4838V39.495Z" fill="#263238"/>
<path d="M21.6949 39.3692C21.6053 39.4236 21.504 39.4557 21.3994 39.4627V39.2645C21.4849 39.267 21.5686 39.2401 21.6366 39.1884C21.7047 39.1367 21.753 39.0632 21.7735 38.9802H21.938V41.1235H21.7024L21.6949 39.3692Z" fill="#263238"/>
<path d="M22.2715 39.4942C22.2715 39.1688 22.4323 38.9556 22.7577 38.9556C23.0832 38.9556 23.2515 39.1688 23.2515 39.4942V40.6163C23.2515 40.9418 23.0906 41.1587 22.7577 41.1587C22.4248 41.1587 22.2715 40.9418 22.2715 40.6163V39.4942ZM22.5071 40.6163C22.5071 40.8071 22.5894 40.9231 22.7577 40.9231C22.9261 40.9231 23.0121 40.8071 23.0121 40.6163V39.4942C23.0121 39.2997 22.9335 39.1837 22.7577 39.1837C22.5819 39.1837 22.5071 39.2997 22.5071 39.4942V40.6163Z" fill="#263238"/>
<path d="M25.2682 39.3692C25.1786 39.4236 25.0772 39.4557 24.9727 39.4627V39.2645C25.0581 39.267 25.1418 39.2401 25.2099 39.1884C25.2779 39.1367 25.3262 39.0632 25.3467 38.9802H25.5113V41.1235H25.2756L25.2682 39.3692Z" fill="#263238"/>
<path d="M26.3129 39.3692C26.2222 39.4241 26.1195 39.4561 26.0137 39.4627V39.2645C26.0991 39.267 26.1828 39.2401 26.2509 39.1884C26.319 39.1367 26.3672 39.0632 26.3877 38.9802H26.5523V41.1235H26.3166L26.3129 39.3692Z" fill="#263238"/>
<path d="M3.93791 43.0409C3.84738 43.0956 3.74441 43.1265 3.63867 43.1306V42.9361C3.72412 42.9386 3.80784 42.9118 3.8759 42.86C3.94395 42.8083 3.99224 42.7348 4.01272 42.6519H4.18104V44.7951H3.94539L3.93791 43.0409Z" fill="#263238"/>
<path d="M5.49727 43.1838C5.49727 43.8309 4.77162 44.0628 4.74917 44.5566V44.5902H5.45239V44.8072H4.53223V44.6239C4.53223 43.9319 5.25788 43.7972 5.25788 43.1913C5.25788 42.9743 5.18307 42.8546 5.00727 42.8546C4.83147 42.8546 4.75666 42.9818 4.75666 43.1726V43.3596H4.53223V43.1838C4.53223 42.8546 4.68185 42.6377 5.01475 42.6377C5.34765 42.6377 5.49727 42.8434 5.49727 43.1838Z" fill="#263238"/>
<path d="M7.3453 43.0409C7.25614 43.0957 7.15438 43.1266 7.0498 43.1306V42.9361C7.13525 42.9386 7.21897 42.9118 7.28703 42.86C7.35509 42.8083 7.40337 42.7348 7.42385 42.6519H7.58843V44.7951H7.35279L7.3453 43.0409Z" fill="#263238"/>
<path d="M8.89001 43.18V43.2361C8.90111 43.3278 8.88188 43.4205 8.83527 43.5002C8.78867 43.5799 8.71725 43.6422 8.63192 43.6775C8.71725 43.7128 8.78867 43.775 8.83527 43.8547C8.88188 43.9344 8.90111 44.0272 8.89001 44.1188V44.2872C8.89001 44.6126 8.73665 44.8258 8.40749 44.8258C8.07833 44.8258 7.92871 44.6126 7.92871 44.2872V44.1375H8.1494V44.3021C8.1494 44.4929 8.23169 44.6089 8.40001 44.6089C8.56833 44.6089 8.65436 44.4966 8.65436 44.2797V44.1151C8.65436 43.9019 8.56459 43.8009 8.38505 43.7972H8.25413V43.554H8.39627C8.43338 43.555 8.47025 43.5478 8.50428 43.533C8.53832 43.5182 8.5687 43.4961 8.5933 43.4683C8.6179 43.4405 8.6361 43.4076 8.64665 43.3721C8.6572 43.3365 8.65984 43.299 8.65436 43.2623V43.18C8.65436 42.9593 8.57581 42.8433 8.40001 42.8433C8.22421 42.8433 8.1494 42.963 8.1494 43.1575V43.266H7.92871V43.18C7.92871 42.8546 8.08207 42.6414 8.40749 42.6414C8.73291 42.6414 8.89001 42.8396 8.89001 43.18Z" fill="#263238"/>
<path d="M10.9957 43.0409C10.9065 43.0957 10.8048 43.1266 10.7002 43.1306V42.9361C10.7856 42.9386 10.8694 42.9118 10.9374 42.86C11.0055 42.8083 11.0538 42.7348 11.0742 42.6519H11.2388V44.7951H11.0032L10.9957 43.0409Z" fill="#263238"/>
<path d="M12.461 44.3579V44.7918H12.2291V44.3579H11.5371V44.141L12.2029 42.6448H12.461V44.141H12.6331V44.3579H12.461ZM11.7578 44.141H12.2291V43.0936L11.7578 44.141Z" fill="#263238"/>
<path d="M14.6041 43.0409C14.5149 43.0957 14.4132 43.1266 14.3086 43.1306V42.9361C14.394 42.9386 14.4778 42.9118 14.5458 42.86C14.6139 42.8083 14.6622 42.7348 14.6826 42.6519H14.8472V44.7951H14.6116L14.6041 43.0409Z" fill="#263238"/>
<path d="M15.4353 43.5223C15.4667 43.4663 15.513 43.4201 15.5692 43.3891C15.6254 43.358 15.6892 43.3433 15.7533 43.3465C16.0301 43.3465 16.1535 43.5485 16.1535 43.8552V44.2742C16.1535 44.5996 15.9964 44.8128 15.6673 44.8128C15.3381 44.8128 15.1885 44.5996 15.1885 44.2742V44.1283H15.4129V44.3041C15.4129 44.4949 15.4915 44.6108 15.6635 44.6108C15.8356 44.6108 15.9141 44.4949 15.9141 44.3041V43.8852C15.9141 43.6944 15.8356 43.5784 15.6635 43.5784C15.6324 43.5769 15.6014 43.5817 15.5722 43.5924C15.543 43.6032 15.5163 43.6197 15.4936 43.641C15.4709 43.6623 15.4527 43.6879 15.4401 43.7164C15.4276 43.7448 15.4209 43.7755 15.4204 43.8066V43.8552H15.196L15.2558 42.6658H16.1012V42.879H15.469L15.4353 43.5223Z" fill="#263238"/>
<path d="M18.1108 43.0409C18.02 43.0951 17.9172 43.1259 17.8115 43.1306V42.9361C17.897 42.9386 17.9807 42.9118 18.0487 42.86C18.1168 42.8083 18.1651 42.7348 18.1856 42.6519H18.3539V44.7951H18.1182L18.1108 43.0409Z" fill="#263238"/>
<path d="M19.6677 43.1841V43.2253H19.4432V43.1692C19.4432 42.9784 19.3647 42.8624 19.1889 42.8624C19.0131 42.8624 18.9308 42.9821 18.9308 43.2103V43.6891C18.9552 43.6186 19.0021 43.5581 19.0643 43.5169C19.1265 43.4756 19.2005 43.456 19.2749 43.4609C19.5517 43.4609 19.6752 43.6592 19.6752 43.9696V44.2951C19.6752 44.6205 19.5106 44.8337 19.1852 44.8337C18.8597 44.8337 18.6914 44.6205 18.6914 44.2951V43.1841C18.6914 42.8475 18.8448 42.6343 19.1852 42.6343C19.5255 42.6343 19.6677 42.84 19.6677 43.1841ZM18.9196 43.9883V44.3063C18.9196 44.497 18.9981 44.613 19.1739 44.613C19.3497 44.613 19.4283 44.497 19.4283 44.3063V43.9846C19.4283 43.7901 19.346 43.6741 19.1739 43.6741C19.0019 43.6741 18.9308 43.7751 18.9308 43.9696L18.9196 43.9883Z" fill="#263238"/>
<path d="M21.6987 43.0409C21.6081 43.0956 21.5052 43.1265 21.3994 43.1306V42.9361C21.4849 42.9386 21.5686 42.9118 21.6366 42.86C21.7047 42.8083 21.753 42.7348 21.7735 42.6519H21.938V44.7951H21.7024L21.6987 43.0409Z" fill="#263238"/>
<path d="M23.0049 42.8651H22.2568V42.6519H23.2294V42.8613L22.6758 44.7951H22.4364L23.0049 42.8651Z" fill="#263238"/>
<path d="M25.19 43.0409C25.1009 43.0957 24.9991 43.1266 24.8945 43.1306V42.9361C24.98 42.9386 25.0637 42.9118 25.1318 42.86C25.1998 42.8083 25.2481 42.7348 25.2686 42.6519H25.4332V44.7951H25.1975L25.19 43.0409Z" fill="#263238"/>
<path d="M26.767 43.1602V43.2276C26.7787 43.3174 26.7614 43.4086 26.7176 43.488C26.6739 43.5674 26.6061 43.6307 26.5239 43.6689C26.6077 43.7082 26.6767 43.7734 26.7205 43.855C26.7643 43.9365 26.7806 44.03 26.767 44.1215V44.2786C26.767 44.4126 26.7138 44.541 26.6191 44.6357C26.5244 44.7304 26.396 44.7836 26.2621 44.7836C26.1282 44.7836 25.9997 44.7304 25.905 44.6357C25.8103 44.541 25.7571 44.4126 25.7571 44.2786V44.1215C25.7441 44.0291 25.7616 43.935 25.8068 43.8534C25.852 43.7717 25.9225 43.707 26.0077 43.6689C25.9234 43.6329 25.8532 43.5703 25.808 43.4905C25.7627 43.4108 25.7448 43.3184 25.7571 43.2276V43.1602C25.7571 43.0263 25.8103 42.8979 25.905 42.8032C25.9997 42.7085 26.1282 42.6553 26.2621 42.6553C26.396 42.6553 26.5244 42.7085 26.6191 42.8032C26.7138 42.8979 26.767 43.0263 26.767 43.1602ZM25.9928 43.1602V43.265C25.9928 43.4744 26.0938 43.5642 26.2621 43.5642C26.4304 43.5642 26.5314 43.4744 26.5314 43.265V43.1827C26.5314 42.962 26.4304 42.861 26.2621 42.861C26.0938 42.861 25.9928 42.9433 25.9928 43.1827V43.1602ZM25.9928 44.0879V44.2712C25.9928 44.4919 26.0938 44.5928 26.2621 44.5928C26.4304 44.5928 26.5314 44.4919 26.5314 44.2712V44.0879C26.5314 43.8822 26.4416 43.7812 26.2621 43.7812C26.0825 43.7812 25.9928 43.8859 25.9928 44.0916V44.0879Z" fill="#263238"/>
<path d="M3.93791 46.7159C3.84738 46.7707 3.74441 46.8016 3.63867 46.8057V46.6112C3.72412 46.6137 3.80784 46.5868 3.8759 46.5351C3.94395 46.4834 3.99224 46.4099 4.01272 46.3269H4.18104V48.4702H3.94539L3.93791 46.7159Z" fill="#263238"/>
<path d="M5.48765 46.8375V47.9297C5.48765 48.2701 5.33429 48.4833 4.99391 48.4833C4.65352 48.4833 4.50765 48.2738 4.50765 47.9446V47.9072H4.73208V47.9596C4.73208 48.1541 4.81437 48.2663 4.98643 48.2663C5.15849 48.2663 5.24826 48.1504 5.24826 47.9259V47.4434C5.22383 47.5139 5.17692 47.5744 5.11475 47.6156C5.05257 47.6569 4.97857 47.6765 4.90414 47.6716C4.62734 47.6716 4.50391 47.4733 4.50391 47.1666V46.8375C4.50391 46.512 4.66475 46.2988 4.99391 46.2988C5.32307 46.2988 5.48765 46.512 5.48765 46.8375ZM4.73956 46.8375V47.1591C4.73956 47.3499 4.82559 47.4659 4.99391 47.4659C5.16223 47.4659 5.24826 47.3499 5.24826 47.1591V46.8375C5.24826 46.6392 5.16971 46.527 4.99391 46.527C4.81811 46.527 4.73956 46.628 4.73956 46.8262V46.8375Z" fill="#263238"/>
<path d="M7.78746 46.8412C7.78746 47.4883 7.06181 47.7202 7.03936 48.214V48.2476H7.74631V48.4646H6.80371V48.2813C6.80371 47.5893 7.52936 47.4546 7.52936 46.8487C7.52936 46.628 7.4583 46.512 7.27875 46.512C7.09921 46.512 7.02814 46.6392 7.02814 46.83V47.017H6.80371V46.8449C6.80371 46.5158 6.95707 46.2988 7.28623 46.2988C7.6154 46.2988 7.78746 46.512 7.78746 46.8412Z" fill="#263238"/>
<path d="M7.99219 46.8375C7.99219 46.512 8.15677 46.2988 8.48219 46.2988C8.80761 46.2988 8.97594 46.512 8.97594 46.8375V47.9596C8.97594 48.285 8.81509 48.4982 8.48219 48.4982C8.14929 48.4982 7.99219 48.285 7.99219 47.9596V46.8375ZM8.22784 47.9596C8.22784 48.1504 8.31013 48.2663 8.48219 48.2663C8.65425 48.2663 8.73654 48.1504 8.73654 47.9596V46.8375C8.73654 46.6392 8.65799 46.5233 8.48219 46.5233C8.30639 46.5233 8.22784 46.6392 8.22784 46.8375V47.9596Z" fill="#263238"/>
<path d="M11.5424 46.8412C11.5424 47.4883 10.8167 47.7202 10.8167 48.214V48.2476H11.5199V48.4646H10.5811V48.2813C10.5811 47.5893 11.303 47.4546 11.303 46.8487C11.303 46.628 11.2319 46.512 11.0524 46.512C10.8728 46.512 10.8017 46.6392 10.8017 46.83V47.017H10.5811V46.8449C10.5811 46.5158 10.7307 46.2988 11.0598 46.2988C11.389 46.2988 11.5424 46.512 11.5424 46.8412Z" fill="#263238"/>
<path d="M12.1988 46.7159C12.1097 46.7707 12.0079 46.8016 11.9033 46.8057V46.6112C11.9888 46.6137 12.0725 46.5868 12.1405 46.5351C12.2086 46.4834 12.2569 46.4099 12.2774 46.3269H12.442V48.4702H12.2063L12.1988 46.7159Z" fill="#263238"/>
<path d="M15.0609 46.8412C15.0609 47.4883 14.3352 47.7202 14.3128 48.214V48.2476H15.016V48.4646H14.0771V48.2813C14.0771 47.5893 14.8028 47.4546 14.8028 46.8487C14.8028 46.628 14.728 46.512 14.5522 46.512C14.3764 46.512 14.3016 46.6392 14.3016 46.83V47.017H14.0771V46.8449C14.0771 46.5158 14.2268 46.2988 14.5559 46.2988C14.8851 46.2988 15.0609 46.512 15.0609 46.8412Z" fill="#263238"/>
<path d="M16.2375 46.8412C16.2375 47.4883 15.5119 47.7202 15.5081 48.214V48.2476H16.2151V48.4646H15.2725V48.2813C15.2725 47.5893 15.9981 47.4546 15.9981 46.8487C15.9981 46.628 15.927 46.512 15.7475 46.512C15.568 46.512 15.4969 46.6392 15.4969 46.83V47.017H15.2725V46.8449C15.2725 46.5158 15.4258 46.2988 15.755 46.2988C16.0841 46.2988 16.2375 46.512 16.2375 46.8412Z" fill="#263238"/>
<path d="M18.5588 46.8412C18.5588 47.4883 17.8331 47.7202 17.8294 48.214V48.2476H18.5364V48.4646H17.5938V48.2813C17.5938 47.5893 18.3194 47.4546 18.3194 46.8487C18.3194 46.628 18.2483 46.512 18.0688 46.512C17.8892 46.512 17.8182 46.6392 17.8182 46.83V47.017H17.5938V46.8449C17.5938 46.5158 17.7434 46.2988 18.0763 46.2988C18.4092 46.2988 18.5588 46.512 18.5588 46.8412Z" fill="#263238"/>
<path d="M19.7299 46.8419V46.898C19.6512 46.9418 19.5856 47.0058 19.5399 47.0834C19.4943 47.161 19.4702 47.2494 19.4702 47.3394C19.4702 47.4294 19.4943 47.5178 19.5399 47.5954C19.5856 47.6731 19.6512 47.737 19.7299 47.7808V47.9491C19.7299 48.2745 19.5802 48.4877 19.2473 48.4877C18.9144 48.4877 18.7686 48.2745 18.7686 47.9491V47.7995H18.9892V47.9641C18.9892 48.1548 19.0715 48.2708 19.2436 48.2708C19.4157 48.2708 19.4942 48.1586 19.4942 47.9416V47.777C19.4942 47.5638 19.4044 47.4628 19.2249 47.4591H19.094V47.2422H19.2361C19.2732 47.2431 19.3101 47.2359 19.3441 47.2211C19.3782 47.2063 19.4085 47.1842 19.4331 47.1564C19.4577 47.1286 19.4759 47.0958 19.4865 47.0602C19.497 47.0246 19.4997 46.9871 19.4942 46.9504V46.8531C19.4942 46.6325 19.4157 46.5165 19.2436 46.5165C19.0715 46.5165 18.9892 46.6362 18.9892 46.8307V46.9242H18.7686V46.827C18.7686 46.5015 18.9219 46.2883 19.2473 46.2883C19.5728 46.2883 19.7299 46.5165 19.7299 46.8419Z" fill="#263238"/>
<path d="M22.1293 46.8412C22.1293 47.4883 21.4036 47.7202 21.3812 48.214V48.2476H22.0881V48.4646H21.1455V48.2813C21.1455 47.5893 21.8712 47.4546 21.8712 46.8487C21.8712 46.628 21.8001 46.512 21.6206 46.512C21.441 46.512 21.3699 46.6392 21.3699 46.83V47.017H21.1455V46.8449C21.1455 46.5158 21.2951 46.2988 21.628 46.2988C21.9609 46.2988 22.1293 46.512 22.1293 46.8412Z" fill="#263238"/>
<path d="M23.2159 48.0471V48.481H22.984V48.0471H22.292V47.8302L22.9578 46.334H23.2159V47.8302H23.388V48.0471H23.2159ZM22.5127 47.8302H22.984V46.7828L22.5127 47.8302Z" fill="#263238"/>
<path d="M25.6555 46.8412C25.6555 47.4883 24.9298 47.7202 24.9261 48.214V48.2476H25.6293V48.4646H24.6904V48.2813C24.6904 47.5893 25.4161 47.4546 25.4161 46.8487C25.4161 46.628 25.3413 46.512 25.1655 46.512C24.9897 46.512 24.9149 46.6392 24.9149 46.83V47.017H24.6904V46.8449C24.6904 46.5158 24.84 46.2988 25.1729 46.2988C25.5059 46.2988 25.6555 46.512 25.6555 46.8412Z" fill="#263238"/>
<path d="M26.109 47.1984C26.14 47.1421 26.1863 47.0957 26.2426 47.0646C26.2988 47.0335 26.3628 47.0189 26.427 47.0226C26.7 47.0226 26.8234 47.2246 26.8234 47.5276V47.9503C26.8234 48.2757 26.6663 48.4889 26.3409 48.4889C26.0155 48.4889 25.8584 48.2757 25.8584 47.9503V47.8044H26.0828V47.9652C26.0828 48.156 26.1614 48.272 26.3334 48.272C26.5055 48.272 26.5841 48.156 26.5841 47.9652V47.5463C26.5841 47.3555 26.5055 47.2396 26.3334 47.2396C26.3024 47.2375 26.2713 47.2419 26.2421 47.2525C26.2128 47.2631 26.1861 47.2796 26.1636 47.3011C26.1411 47.3225 26.1233 47.3484 26.1113 47.3771C26.0993 47.4058 26.0935 47.4367 26.0941 47.4678V47.5164H25.8696L25.9257 46.3269H26.7711V46.5513H26.1502L26.109 47.1984Z" fill="#263238"/>
<path d="M4.45742 50.5188C4.45742 51.1621 3.73176 51.3978 3.73176 51.8878V51.9215H4.45742V52.1609H3.51855V51.9738C3.51855 51.2818 4.24421 51.1472 4.24421 50.545C4.24421 50.3243 4.1694 50.2083 3.98986 50.2083C3.81031 50.2083 3.73924 50.3355 3.73924 50.5263V50.7133H3.51855V50.5412C3.51855 50.2121 3.66817 49.9951 3.99734 49.9951C4.3265 49.9951 4.45742 50.1896 4.45742 50.5188Z" fill="#263238"/>
<path d="M5.6413 50.509V50.5502H5.41688V50.494C5.41688 50.3033 5.33833 50.1873 5.16626 50.1873C4.9942 50.1873 4.90443 50.3033 4.90443 50.5352V51.014C4.9299 50.9442 4.97705 50.8844 5.03898 50.8433C5.1009 50.8023 5.17435 50.7821 5.24856 50.7858C5.52535 50.7858 5.64879 50.984 5.64879 51.2945V51.6162C5.64879 51.9454 5.4842 52.1586 5.15878 52.1586C4.83336 52.1586 4.66504 51.9454 4.66504 51.6162V50.524C4.66504 50.1836 4.8184 49.9741 5.15878 49.9741C5.49917 49.9741 5.6413 50.1836 5.6413 50.509ZM4.89321 51.3132V51.6312C4.89321 51.8257 4.97176 51.9416 5.14756 51.9416C5.32336 51.9416 5.40191 51.8257 5.40191 51.6312V51.3132C5.40191 51.1187 5.31962 51.0028 5.14756 51.0028C4.9755 51.0028 4.90443 51.1187 4.90443 51.3132H4.89321Z" fill="#263238"/>
<path d="M7.79429 50.5188C7.79429 51.1621 7.06864 51.3978 7.0462 51.8878V51.9215H7.75315V52.1609H6.81055V51.9738C6.81055 51.2818 7.5362 51.1472 7.5362 50.545C7.5362 50.3243 7.46513 50.2083 7.28559 50.2083C7.10604 50.2083 7.03498 50.3355 7.03498 50.5263V50.7133H6.81055V50.5412C6.81055 50.2121 6.96017 49.9951 7.29307 49.9951C7.62597 49.9951 7.79429 50.1896 7.79429 50.5188Z" fill="#263238"/>
<path d="M8.72661 50.212H7.97852V49.9988H8.9473V50.2045L8.41615 52.1608H8.19546L8.72661 50.212Z" fill="#263238"/>
<path d="M11.4611 50.5188C11.4611 51.1621 10.7355 51.3978 10.7317 51.8878V51.9215H11.4387V52.1609H10.4961V51.9738C10.4961 51.2818 11.2217 51.1472 11.2217 50.545C11.2217 50.3243 11.1507 50.2083 10.9711 50.2083C10.7916 50.2083 10.7205 50.3355 10.7205 50.5263V50.7133H10.4961V50.5412C10.4961 50.2121 10.6495 49.9951 10.9786 49.9951C11.3078 49.9951 11.4611 50.1896 11.4611 50.5188Z" fill="#263238"/>
<path d="M12.6645 50.5072V50.5745C12.6762 50.6643 12.6585 50.7555 12.614 50.8344C12.5695 50.9133 12.5006 50.9757 12.4177 51.0121C12.5021 51.0519 12.5716 51.1177 12.616 51.1998C12.6604 51.2819 12.6774 51.376 12.6645 51.4685V51.6256C12.6645 51.6919 12.6515 51.7575 12.6261 51.8188C12.6007 51.8801 12.5635 51.9357 12.5166 51.9826C12.4697 52.0295 12.4141 52.0667 12.3528 52.0921C12.2915 52.1175 12.2259 52.1305 12.1596 52.1305C12.0933 52.1305 12.0276 52.1175 11.9663 52.0921C11.9051 52.0667 11.8494 52.0295 11.8025 51.9826C11.7556 51.9357 11.7184 51.8801 11.693 51.8188C11.6677 51.7575 11.6546 51.6919 11.6546 51.6256V51.4685C11.6417 51.376 11.6587 51.2819 11.7031 51.1998C11.7475 51.1177 11.817 51.0519 11.9015 51.0121C11.8178 50.9767 11.7481 50.9145 11.7035 50.8354C11.6588 50.7562 11.6416 50.6645 11.6546 50.5745V50.5072C11.6546 50.4409 11.6677 50.3752 11.693 50.3139C11.7184 50.2527 11.7556 50.197 11.8025 50.1501C11.8494 50.1032 11.9051 50.066 11.9663 50.0406C12.0276 50.0153 12.0933 50.0022 12.1596 50.0022C12.2259 50.0022 12.2915 50.0153 12.3528 50.0406C12.4141 50.066 12.4697 50.1032 12.5166 50.1501C12.5635 50.197 12.6007 50.2527 12.6261 50.3139C12.6515 50.3752 12.6645 50.4409 12.6645 50.5072ZM11.8902 50.5072V50.6119C11.8902 50.8214 11.9912 50.9111 12.1596 50.9111C12.3279 50.9111 12.4289 50.8214 12.4289 50.6119V50.5072C12.4289 50.2865 12.3279 50.1855 12.1596 50.1855C11.9912 50.1855 11.8902 50.2902 11.8902 50.5109V50.5072ZM11.8902 51.4348V51.6143C11.8902 51.835 11.9875 51.9398 12.1596 51.9398C12.3316 51.9398 12.4251 51.835 12.4289 51.6143V51.4348C12.4289 51.2291 12.3354 51.1243 12.1596 51.1243C11.9838 51.1243 11.8902 51.2328 11.8902 51.4385V51.4348Z" fill="#263238"/>
<path d="M15.0531 50.5188C15.0531 51.1621 14.3274 51.3978 14.305 51.8878V51.9215H15.0082V52.1609H14.0693V51.9738C14.0693 51.2818 14.795 51.1472 14.795 50.545C14.795 50.3243 14.7202 50.2083 14.5444 50.2083C14.3686 50.2083 14.2938 50.3355 14.2938 50.5263V50.7133H14.0693V50.5412C14.0693 50.2121 14.219 49.9951 14.5481 49.9951C14.8773 49.9951 15.0531 50.1896 15.0531 50.5188Z" fill="#263238"/>
<path d="M16.2347 50.5128V51.605C16.2347 51.9454 16.0814 52.1586 15.7372 52.1586C15.3931 52.1586 15.2547 51.9491 15.2547 51.6199V51.5825H15.4791V51.6349C15.4791 51.8294 15.5614 51.9416 15.7298 51.9416C15.8981 51.9416 15.9953 51.8257 15.9953 51.6012V51.1187C15.9697 51.1891 15.922 51.2494 15.8593 51.2905C15.7966 51.3316 15.7223 51.3514 15.6475 51.3469C15.3744 51.3469 15.251 51.1486 15.251 50.8419V50.5128C15.251 50.1836 15.4081 49.9741 15.741 49.9741C16.0739 49.9741 16.2347 50.1836 16.2347 50.5128ZM15.4866 50.5128V50.8344C15.4866 51.0252 15.5689 51.1411 15.741 51.1411C15.913 51.1411 15.9953 51.0252 15.9953 50.8344V50.5128C15.9953 50.3145 15.9168 50.2023 15.741 50.2023C15.5652 50.2023 15.4866 50.2883 15.4866 50.5015V50.5128Z" fill="#263238"/>
<path d="M18.5441 50.5128V50.5689C18.5537 50.6608 18.5334 50.7534 18.4863 50.8329C18.4391 50.9124 18.3676 50.9746 18.2823 51.0102C18.3683 51.0449 18.4406 51.1069 18.4879 51.1866C18.5352 51.2664 18.555 51.3595 18.5441 51.4516V51.6162C18.5441 51.9454 18.3908 52.1586 18.0616 52.1586C17.7325 52.1586 17.5791 51.9454 17.5791 51.6162V51.4703H17.8035V51.6312C17.8035 51.8257 17.8821 51.9416 18.0541 51.9416C18.2262 51.9416 18.3048 51.8294 18.3048 51.6124V51.4479C18.3048 51.2347 18.215 51.1337 18.0354 51.1262H17.9232V50.913H18.0616C18.2225 50.913 18.3197 50.8082 18.3197 50.6212V50.5202C18.3197 50.3033 18.2449 50.1873 18.0691 50.1873C17.8933 50.1873 17.8185 50.307 17.8185 50.5015V50.61H17.5941V50.5128C17.5941 50.1836 17.7474 49.9741 18.0766 49.9741C18.4057 49.9741 18.5441 50.1836 18.5441 50.5128Z" fill="#263238"/>
<path d="M18.7539 50.5128C18.7539 50.1836 18.9185 49.9741 19.2439 49.9741C19.5693 49.9741 19.7377 50.1836 19.7377 50.5128V51.6349C19.7377 51.9641 19.5768 52.1773 19.2439 52.1773C18.911 52.1773 18.7539 51.9641 18.7539 51.6349V50.5128ZM18.9896 51.6349C18.9896 51.8294 19.0718 51.9453 19.2439 51.9453C19.416 51.9453 19.4983 51.8294 19.4983 51.6349V50.5128C19.4983 50.3145 19.4197 50.1985 19.2439 50.1985C19.0681 50.1985 18.9896 50.3145 18.9896 50.5128V51.6349Z" fill="#263238"/>
<path d="M4.42419 31.5497V31.6058H4.19602V31.5347C4.19602 31.344 4.12122 31.228 3.9529 31.228C3.78457 31.228 3.70602 31.344 3.70602 31.531C3.70602 32.0135 4.42419 32.0584 4.42419 32.6531C4.42419 32.9786 4.27083 33.1918 3.94167 33.1918C3.61251 33.1918 3.46289 32.9786 3.46289 32.6531V32.5334H3.68358V32.6681C3.68358 32.8589 3.76587 32.9748 3.93419 32.9748C4.10251 32.9748 4.18854 32.8589 4.18854 32.6681C4.18854 32.1893 3.47037 32.1444 3.47037 31.546C3.47037 31.2131 3.62373 31.0073 3.94541 31.0073C4.26709 31.0073 4.42419 31.213 4.42419 31.5497Z" fill="#263238"/>
<path d="M8.00212 33.175H7.77395L7.3999 31.4693V33.1787H7.19043V31.0354H7.52333L7.87494 32.7485L8.21532 31.0354H8.55196V33.1787H8.32379V31.4543L8.00212 33.175Z" fill="#263238"/>
<path d="M11.4482 33.1787V31.2523H11.0518V31.0354H12.0766V31.2523H11.6839V33.1787H11.4482Z" fill="#263238"/>
<path d="M14.951 33.1787H14.6256L14.3301 31.0354H14.5545L14.8051 32.8608L15.0445 31.0391H15.3026L15.5383 32.8645L15.7814 31.0354H15.9871L15.6991 33.1787H15.3812L15.1792 31.7236L14.951 33.1787Z" fill="#263238"/>
<path d="M18.5371 33.1787V31.2523H18.1631V31.0354H19.188V31.2523H18.7915V33.1787H18.5371Z" fill="#263238"/>
<path d="M22.5827 32.0341V32.2511H22.089V33.1787H21.8496V31.0354H22.7024V31.2523H22.089V32.0341H22.5827Z" fill="#263238"/>
<path d="M26.2289 31.5497V31.6058H26.0007V31.5347C26.0007 31.344 25.9259 31.228 25.7576 31.228C25.5893 31.228 25.5107 31.344 25.5107 31.531C25.5107 32.0135 26.2289 32.0584 26.2289 32.6531C26.2289 32.9786 26.0755 33.1918 25.7464 33.1918C25.4172 33.1918 25.2676 32.9786 25.2676 32.6531V32.5334H25.4883V32.6681C25.4883 32.8589 25.5706 32.9748 25.7389 32.9748C25.9072 32.9748 25.9932 32.8589 25.9932 32.6681C25.9932 32.1893 25.2751 32.1444 25.2751 31.546C25.2751 31.2131 25.4284 31.0073 25.7501 31.0073C26.0718 31.0073 26.2289 31.213 26.2289 31.5497Z" fill="#263238"/>
<path d="M4.64591 25.9486V26.0048H4.42896V25.9374C4.42896 25.7541 4.36163 25.6457 4.19705 25.6457C4.03247 25.6457 3.96514 25.7541 3.96514 25.9374C3.96514 26.3938 4.64965 26.4386 4.64965 27.0109C4.64965 27.3214 4.50003 27.5234 4.18957 27.5234C3.87911 27.5234 3.72949 27.3214 3.72949 27.0109V26.895H3.9427V27.0222C3.9427 27.2054 4.02125 27.3139 4.18209 27.3139C4.34293 27.3139 4.42148 27.2054 4.42148 27.0222C4.42148 26.5696 3.74071 26.5247 3.74071 25.9486C3.74071 25.6344 3.88659 25.4399 4.19331 25.4399C4.50003 25.4399 4.64591 25.6419 4.64591 25.9486Z" fill="#263238"/>
<path d="M5.57429 26.3485V26.5542H5.0768V27.2799H5.6865V27.4856H4.84863V25.447H5.6865V25.6527H5.0768V26.3485H5.57429Z" fill="#263238"/>
<path d="M6.34534 25.4609C6.66328 25.4609 6.80168 25.648 6.80168 25.9584V26.2016C6.80168 26.527 6.64832 26.6953 6.32664 26.6953H6.12465V27.4995H5.89648V25.4609H6.34534ZM6.34534 26.4896C6.51367 26.4896 6.59595 26.411 6.59595 26.2165V25.9472C6.59595 25.7602 6.52863 25.6667 6.36404 25.6667H6.14336V26.4896H6.34534Z" fill="#263238"/>
<path d="M7.26956 27.4995V25.6667H6.89551V25.4609H7.87177V25.6667H7.49773V27.4995H7.26956Z" fill="#263238"/>
<path d="M8.75299 26.3485V26.5542H8.25551V27.2799H8.86521V27.4856H8.02734V25.447H8.86521V25.6527H8.25551V26.3485H8.75299Z" fill="#263238"/>
<path d="M9.83484 27.4958H9.6179L9.28125 25.8724V27.4995H9.08301V25.4609H9.39721L9.73385 27.088L10.0593 25.4609H10.3772V27.4995H10.1603V25.8574L9.83484 27.4958Z" fill="#263238"/>
<path d="M11.0579 25.4609C11.3758 25.4609 11.503 25.6106 11.503 25.9098V26.007C11.503 26.224 11.4394 26.3587 11.2636 26.411C11.4619 26.4671 11.5367 26.6242 11.5367 26.8487V27.0207C11.5465 27.0849 11.5413 27.1504 11.5214 27.2122C11.5015 27.2739 11.4676 27.3303 11.4223 27.3767C11.3769 27.4231 11.3214 27.4584 11.2602 27.4797C11.1989 27.501 11.1335 27.5078 11.0691 27.4995H10.6016V25.4609H11.0579ZM11.0018 26.325C11.1851 26.325 11.2786 26.2651 11.2786 26.0557V25.936C11.2786 25.7527 11.215 25.6667 11.0542 25.6667H10.8148V26.325H11.0018ZM11.0691 27.2938C11.2374 27.2938 11.3123 27.204 11.3123 27.017V26.8337C11.3123 26.6093 11.2225 26.5307 11.028 26.5307H10.8148V27.2788L11.0691 27.2938Z" fill="#263238"/>
<path d="M12.4669 26.3485V26.5542H11.9694V27.2799H12.5828V27.4856H11.7412V25.447H12.5828V25.6527H11.9694V26.3485H12.4669Z" fill="#263238"/>
<path d="M13.2417 25.4609C13.5633 25.4609 13.698 25.6218 13.698 25.9248V26.0931C13.7131 26.1818 13.6957 26.2731 13.649 26.35C13.6023 26.427 13.5294 26.4845 13.4436 26.512C13.6307 26.5681 13.7017 26.7177 13.7017 26.9384V27.2564C13.6943 27.3392 13.7071 27.4227 13.7391 27.4995H13.511C13.4795 27.4212 13.4667 27.3367 13.4736 27.2526V26.9309C13.4736 26.7028 13.3651 26.628 13.1743 26.628H13.0135V27.4995H12.7891V25.4609H13.2417ZM13.1856 26.4222C13.3651 26.4222 13.4736 26.3624 13.4736 26.1417V25.9472C13.4736 25.7639 13.4062 25.6667 13.2379 25.6667H13.0135V26.4148L13.1856 26.4222Z" fill="#263238"/>
<path d="M16.6254 25.9516C16.6254 26.565 15.9372 26.7894 15.9334 27.257V27.2907H16.603V27.4964H15.709V27.3206C15.709 26.6623 16.401 26.5351 16.401 25.9591C16.401 25.7496 16.3299 25.6411 16.1616 25.6411C15.9933 25.6411 15.9222 25.7608 15.9222 25.9404V26.1199H15.709V25.974C15.709 25.6598 15.8511 25.4541 16.1653 25.4541C16.4795 25.4541 16.6254 25.6411 16.6254 25.9516Z" fill="#263238"/>
<path d="M16.8271 25.9524C16.8271 25.6419 16.9805 25.4399 17.291 25.4399C17.6014 25.4399 17.7623 25.6419 17.7623 25.9524V27.0072C17.7623 27.3177 17.6089 27.5234 17.291 27.5234C16.973 27.5234 16.8271 27.3177 16.8271 27.0072V25.9524ZM17.0516 27.0184C17.0516 27.2054 17.1301 27.3139 17.291 27.3139C17.4518 27.3139 17.5341 27.2054 17.5341 27.0184V25.9412C17.5341 25.7541 17.4593 25.6457 17.291 25.6457C17.1226 25.6457 17.0516 25.7541 17.0516 25.9412V27.0184Z" fill="#263238"/>
<path d="M18.8938 25.9516C18.8938 26.565 18.2018 26.7894 18.1981 27.257V27.2907H18.8713V27.4964H17.9736V27.3206C17.9736 26.6623 18.6656 26.5351 18.6656 25.9591C18.6656 25.7496 18.5945 25.6411 18.4262 25.6411C18.2579 25.6411 18.1868 25.7608 18.1868 25.9404V26.1199H17.9736V25.974C17.9736 25.6598 18.1195 25.4541 18.4337 25.4541C18.7479 25.4541 18.8938 25.6411 18.8938 25.9516Z" fill="#263238"/>
<path d="M19.513 25.8312C19.4274 25.8814 19.3314 25.9109 19.2324 25.9173V25.7303C19.3127 25.733 19.3915 25.7076 19.455 25.6584C19.5185 25.6093 19.5629 25.5394 19.5803 25.4609H19.7374V27.4995H19.513V25.8312Z" fill="#263238"/>
<path d="M26.8409 26.4551L25.3447 27.3192V25.5911L26.8409 26.4551Z" fill="#263238"/>
<path d="M21.8066 26.4551L23.3028 27.3192V25.5911L21.8066 26.4551Z" fill="#263238"/>
<path d="M78.4614 25.3859C78.3701 25.4397 78.2677 25.4717 78.1621 25.4794V25.2812C78.2481 25.2835 78.3322 25.2561 78.4003 25.2036C78.4684 25.1512 78.5164 25.0768 78.5362 24.9932H78.7007V27.1514H78.4651L78.4614 25.3859Z" fill="#263238"/>
<path d="M92.3207 25.5145C92.3207 26.1654 91.5913 26.401 91.5726 26.8948V26.9284H92.2833V27.1491H91.3369V26.9658C91.3369 26.2664 92.0663 26.1317 92.0663 25.5258C92.0663 25.3051 91.9915 25.1854 91.8157 25.1854C91.6399 25.1854 91.5613 25.3126 91.5613 25.5033V25.6941H91.3369V25.5183C91.3369 25.1891 91.4865 24.9722 91.8194 24.9722C92.1523 24.9722 92.3207 25.1854 92.3207 25.5145Z" fill="#263238"/>
<path d="M105.719 25.5145V25.5669C105.73 25.6595 105.71 25.7532 105.663 25.8336C105.616 25.914 105.543 25.9767 105.457 26.012C105.543 26.0474 105.616 26.11 105.663 26.1904C105.71 26.2708 105.73 26.3645 105.719 26.4571V26.6255C105.719 26.9546 105.565 27.1716 105.233 27.1716C104.9 27.1716 104.75 26.9546 104.75 26.6255V26.4758H104.974V26.6404C104.974 26.8349 105.053 26.9509 105.229 26.9509C105.405 26.9509 105.479 26.8387 105.479 26.618V26.4534C105.479 26.2402 105.39 26.1392 105.21 26.1317H105.079V25.9148H105.221C105.382 25.9148 105.479 25.81 105.479 25.6193V25.522C105.479 25.3013 105.401 25.1854 105.229 25.1854C105.057 25.1854 104.974 25.3051 104.974 25.4996V25.6118H104.75V25.5145C104.75 25.1816 104.903 24.9722 105.233 24.9722C105.562 24.9722 105.719 25.1816 105.719 25.5145Z" fill="#263238"/>
<path d="M118.793 26.7208V27.1547H118.561V26.7208H117.861V26.5001L118.531 25.0039H118.793V26.5001H118.965V26.7208H118.793ZM118.086 26.5001H118.561V25.449L118.086 26.5001Z" fill="#263238"/>
<path d="M37.2018 39.0692C37.2336 39.0124 37.2804 38.9656 37.3372 38.9339C37.394 38.9022 37.4585 38.8869 37.5235 38.8896C37.8003 38.8896 37.9237 39.0954 37.9237 39.4021V39.8173C37.9237 40.1464 37.7666 40.3634 37.4374 40.3634C37.1083 40.3634 36.9512 40.1464 36.9512 39.8173V39.6714H37.1756V39.8173C37.1756 40.0118 37.2579 40.1277 37.43 40.1277C37.602 40.1277 37.6843 40.0118 37.6843 39.8173V39.3983C37.6843 39.2038 37.602 39.0879 37.43 39.0879C37.3987 39.0869 37.3676 39.0921 37.3383 39.1033C37.3091 39.1144 37.2824 39.1313 37.2598 39.1529C37.2372 39.1745 37.2191 39.2004 37.2065 39.229C37.194 39.2577 37.1873 39.2885 37.1868 39.3198V39.3684H36.9624L37.0185 38.1677H37.8713V38.3847H37.2354L37.2018 39.0692Z" fill="#263238"/>
<path d="M52.0941 38.6918V38.7329H51.8697V38.6918C51.8697 38.4973 51.7874 38.3813 51.6116 38.3813C51.4358 38.3813 51.3497 38.501 51.3497 38.7292V39.2155C51.3749 39.1437 51.423 39.0821 51.4865 39.0402C51.55 38.9984 51.6254 38.9784 51.7013 38.9835C51.9781 38.9835 52.1016 39.1855 52.1016 39.496V39.8139C52.1016 40.1431 51.937 40.36 51.6078 40.36C51.2787 40.36 51.1104 40.1431 51.1104 39.8139V38.7142C51.1104 38.3739 51.2637 38.1606 51.6078 38.1606C51.952 38.1606 52.0941 38.3701 52.0941 38.6918ZM51.346 39.4997V39.8139C51.346 40.0084 51.4283 40.1244 51.6041 40.1244C51.7799 40.1244 51.8584 40.0084 51.8584 39.8139V39.4923C51.8584 39.2977 51.7762 39.1818 51.6041 39.1818C51.432 39.1818 51.3497 39.3127 51.3497 39.5072L51.346 39.4997Z" fill="#263238"/>
<path d="M65.0323 38.3988H64.2842V38.1819H65.2604V38.3914L64.7031 40.3401H64.4637L65.0323 38.3988Z" fill="#263238"/>
<path d="M78.9241 38.694V38.7613C78.9362 38.8522 78.9188 38.9446 78.8743 39.0248C78.8299 39.105 78.7607 39.1687 78.6772 39.2065C78.7616 39.2462 78.8311 39.312 78.8756 39.3941C78.92 39.4762 78.937 39.5703 78.9241 39.6628V39.8162C78.9241 39.9511 78.8705 40.0805 78.7751 40.1759C78.6797 40.2713 78.5503 40.3249 78.4154 40.3249C78.2805 40.3249 78.1511 40.2713 78.0557 40.1759C77.9603 40.0805 77.9067 39.9511 77.9067 39.8162V39.6553C77.8935 39.5624 77.9107 39.4677 77.9559 39.3854C78.0011 39.3031 78.0718 39.2377 78.1573 39.199C78.0727 39.1623 78.0024 39.0989 77.9571 39.0186C77.9119 38.9382 77.8942 38.8452 77.9067 38.7539V38.694C77.9067 38.5591 77.9603 38.4297 78.0557 38.3343C78.1511 38.2389 78.2805 38.1853 78.4154 38.1853C78.5503 38.1853 78.6797 38.2389 78.7751 38.3343C78.8705 38.4297 78.9241 38.5591 78.9241 38.694ZM78.1423 38.694V38.7987C78.1423 39.0082 78.2433 39.1017 78.4116 39.1017C78.58 39.1017 78.6847 39.0082 78.6847 38.7987V38.694C78.6847 38.4733 78.58 38.3686 78.4116 38.3686C78.2433 38.3686 78.1423 38.4808 78.1423 38.694ZM78.1423 39.6254V39.8162C78.1423 40.0368 78.2396 40.1416 78.4116 40.1416C78.5837 40.1416 78.6809 40.0368 78.6847 39.8162V39.6329C78.6847 39.4234 78.5912 39.3224 78.4116 39.3224C78.2321 39.3224 78.1423 39.4421 78.1423 39.6329V39.6254Z" fill="#263238"/>
<path d="M92.3135 38.6925V39.8147C92.3135 40.155 92.1601 40.372 91.8123 40.372C91.4644 40.372 91.326 40.1588 91.326 39.8296V39.7885H91.5504V39.8446C91.5504 40.0391 91.6365 40.1513 91.8085 40.1513C91.9806 40.1513 92.0704 40.0353 92.0704 39.8072V39.3247C92.0452 39.3954 91.9976 39.4561 91.9348 39.4973C91.872 39.5385 91.7974 39.558 91.7225 39.5528C91.4457 39.5528 91.3223 39.3546 91.3223 39.0441V38.6925C91.3223 38.3634 91.4831 38.1501 91.816 38.1501C92.1489 38.1501 92.3135 38.3746 92.3135 38.6925ZM91.5654 38.6925V39.0179C91.5654 39.2124 91.6477 39.3284 91.8198 39.3284C91.9918 39.3284 92.0741 39.2124 92.0741 39.0179V38.6925C92.0741 38.498 91.9956 38.3821 91.8198 38.3821C91.644 38.3821 91.5617 38.4943 91.5617 38.6925H91.5654Z" fill="#263238"/>
<path d="M104.677 38.5746C104.586 38.6289 104.484 38.661 104.378 38.6681V38.4699C104.464 38.4722 104.548 38.4448 104.616 38.3924C104.684 38.3399 104.732 38.2656 104.752 38.1819H104.917V40.3401H104.681L104.677 38.5746Z" fill="#263238"/>
<path d="M105.257 38.6925C105.257 38.3634 105.418 38.1501 105.747 38.1501C106.076 38.1501 106.244 38.3634 106.244 38.6925V39.8147C106.244 40.1438 106.08 40.3608 105.747 40.3608C105.414 40.3608 105.257 40.1438 105.257 39.8147V38.6925ZM105.492 39.8147C105.492 40.0092 105.575 40.1251 105.747 40.1251C105.919 40.1251 106.005 40.0092 106.005 39.8147V38.6925C106.005 38.498 105.923 38.3783 105.747 38.3783C105.571 38.3783 105.492 38.498 105.492 38.6925V39.8147Z" fill="#263238"/>
<path d="M117.932 38.5746C117.843 38.629 117.741 38.6611 117.637 38.6681V38.4699C117.723 38.4722 117.807 38.4448 117.875 38.3924C117.943 38.3399 117.991 38.2656 118.011 38.1819H118.168V40.3401H117.928L117.932 38.5746Z" fill="#263238"/>
<path d="M118.977 38.5746C118.886 38.6284 118.783 38.6604 118.678 38.6681V38.4699C118.764 38.4722 118.848 38.4448 118.916 38.3924C118.984 38.3399 119.032 38.2656 119.052 38.1819H119.216V40.3401H118.981L118.977 38.5746Z" fill="#263238"/>
<path d="M37.3979 51.7594C37.3066 51.8132 37.2042 51.8452 37.0986 51.8529V51.6546C37.1841 51.6571 37.2678 51.6303 37.3359 51.5786C37.4039 51.5268 37.4522 51.4534 37.4727 51.3704H37.641V53.5249H37.4053L37.3979 51.7594Z" fill="#263238"/>
<path d="M38.9719 51.8989C38.9719 52.546 38.2238 52.7816 38.2238 53.2791V53.3128H38.9307V53.5297H37.9844V53.3465C37.9844 52.6507 38.7325 52.5123 38.7325 51.9064C38.7325 51.6857 38.6614 51.5697 38.4819 51.5697C38.3023 51.5697 38.2275 51.6932 38.2275 51.8839V52.0747H38.0031V51.8989C38.0031 51.5697 38.1527 51.3528 38.4856 51.3528C38.8185 51.3528 38.9719 51.5697 38.9719 51.8989Z" fill="#263238"/>
<path d="M51.0502 51.7594C50.959 51.8132 50.8566 51.8452 50.751 51.8529V51.6546C50.8364 51.6571 50.9201 51.6303 50.9882 51.5786C51.0563 51.5268 51.1045 51.4534 51.125 51.3704H51.2896V53.5249H51.054L51.0502 51.7594Z" fill="#263238"/>
<path d="M52.6109 51.8952V51.9513C52.6214 52.0438 52.6011 52.1373 52.5531 52.2171C52.5051 52.2969 52.432 52.3586 52.3453 52.3926C52.4326 52.428 52.5059 52.4911 52.5539 52.5722C52.6018 52.6533 52.6219 52.7479 52.6109 52.8415V53.0061C52.6109 53.3352 52.4538 53.5522 52.1209 53.5522C51.788 53.5522 51.6383 53.3352 51.6383 53.0061V52.8602H51.8628V53.021C51.8628 53.2155 51.9451 53.3352 52.1171 53.3352C52.2892 53.3352 52.3677 53.2193 52.3677 53.0023V52.834C52.3677 52.6208 52.278 52.5198 52.0984 52.5123H51.96V52.2991H52.1022C52.1394 52.2995 52.1764 52.2918 52.2104 52.2766C52.2444 52.2613 52.2748 52.2389 52.2993 52.2108C52.3238 52.1827 52.342 52.1497 52.3525 52.1139C52.363 52.0781 52.3657 52.0405 52.3603 52.0036V51.9026C52.3603 51.6819 52.2854 51.5697 52.1096 51.5697C51.9338 51.5697 51.8553 51.6894 51.8553 51.8839V51.9924H51.6309V51.8952C51.6309 51.566 51.7842 51.3528 52.1134 51.3528C52.4425 51.3528 52.6109 51.566 52.6109 51.8952Z" fill="#263238"/>
<path d="M64.2113 51.7594C64.1201 51.8132 64.0177 51.8452 63.9121 51.8529V51.6546C63.9976 51.6571 64.0813 51.6303 64.1493 51.5786C64.2174 51.5268 64.2657 51.4534 64.2862 51.3704H64.4507V53.5249H64.2151L64.2113 51.7594Z" fill="#263238"/>
<path d="M65.6835 53.094V53.5279H65.4516V53.094H64.7559V52.8771L65.4217 51.3809H65.6835V52.8771H65.8593V53.094H65.6835ZM64.9765 52.8771H65.4516V51.8222L64.9765 52.8771Z" fill="#263238"/>
<path d="M77.8637 51.7594C77.7729 51.8142 77.6703 51.8463 77.5645 51.8529V51.6546C77.6499 51.6571 77.7336 51.6303 77.8017 51.5786C77.8697 51.5268 77.918 51.4534 77.9385 51.3704H78.1068V53.5249H77.8674L77.8637 51.7594Z" fill="#263238"/>
<path d="M78.7086 52.2456C78.7406 52.1893 78.7876 52.143 78.8444 52.1119C78.9013 52.0809 78.9656 52.0663 79.0303 52.0698C79.3071 52.0698 79.4305 52.2718 79.4305 52.5785V53.0012C79.4305 53.3304 79.2734 53.5473 78.9443 53.5473C78.6151 53.5473 78.458 53.3304 78.458 53.0012V52.8591H78.6862V53.0162C78.6862 53.2107 78.7647 53.3304 78.9368 53.3304C79.1089 53.3304 79.1911 53.2107 79.1911 53.0162V52.5972C79.1911 52.4027 79.1089 52.2868 78.9368 52.2868C78.9055 52.2858 78.8744 52.291 78.8452 52.3022C78.816 52.3133 78.7893 52.3302 78.7666 52.3518C78.744 52.3734 78.7259 52.3993 78.7134 52.4279C78.7008 52.4566 78.6941 52.4874 78.6937 52.5187V52.5673H78.4692L78.5291 51.3704H79.3782V51.5836H78.7423L78.7086 52.2456Z" fill="#263238"/>
<path d="M91.2699 51.7594C91.1787 51.8132 91.0763 51.8452 90.9707 51.8529V51.6546C91.0561 51.6571 91.1399 51.6303 91.2079 51.5786C91.276 51.5268 91.3243 51.4534 91.3448 51.3704H91.5093V53.5249H91.2737L91.2699 51.7594Z" fill="#263238"/>
<path d="M92.8343 51.8914V51.9326H92.6099V51.8765C92.6099 51.6819 92.5276 51.5697 92.3518 51.5697C92.176 51.5697 92.09 51.6857 92.09 51.9176V52.4001C92.1152 52.3283 92.1632 52.2668 92.2267 52.2249C92.2902 52.183 92.3657 52.1631 92.4416 52.1682C92.7184 52.1682 92.8418 52.3702 92.8418 52.6807V53.0061C92.8418 53.3352 92.6772 53.5522 92.3481 53.5522C92.0189 53.5522 91.8506 53.3352 91.8506 53.0061V51.9064C91.8506 51.566 92.004 51.3528 92.3481 51.3528C92.6922 51.3528 92.8343 51.5623 92.8343 51.8914ZM92.0862 52.6994V53.021C92.0862 53.2155 92.1685 53.3352 92.3443 53.3352C92.5201 53.3352 92.5987 53.2155 92.5987 53.021V52.6994C92.5987 52.5049 92.5164 52.3889 92.3443 52.3889C92.1723 52.3889 92.09 52.5049 92.09 52.6994H92.0862Z" fill="#263238"/>
<path d="M104.677 51.7594C104.586 51.8132 104.484 51.8452 104.378 51.8529V51.6546C104.463 51.6571 104.547 51.6303 104.615 51.5786C104.683 51.5268 104.731 51.4534 104.752 51.3704H104.917V53.5249H104.681L104.677 51.7594Z" fill="#263238"/>
<path d="M105.998 51.5836H105.25V51.3704H106.226V51.5798L105.673 53.5249H105.452L105.998 51.5836Z" fill="#263238"/>
<path d="M117.851 51.7594C117.76 51.8142 117.658 51.8463 117.552 51.8529V51.6546C117.637 51.6571 117.721 51.6303 117.789 51.5786C117.857 51.5268 117.905 51.4534 117.926 51.3704H118.094V53.5249H117.855L117.851 51.7594Z" fill="#263238"/>
<path d="M119.438 51.8791V51.9464C119.451 52.0373 119.434 52.13 119.389 52.2103C119.345 52.2906 119.275 52.3542 119.191 52.3915C119.276 52.4313 119.345 52.4971 119.39 52.5792C119.434 52.6613 119.451 52.7554 119.438 52.8479V53.0087C119.438 53.1436 119.385 53.273 119.289 53.3684C119.194 53.4638 119.065 53.5174 118.93 53.5174C118.795 53.5174 118.665 53.4638 118.57 53.3684C118.474 53.273 118.421 53.1436 118.421 53.0087V52.8479C118.409 52.755 118.427 52.6608 118.472 52.5788C118.517 52.4968 118.587 52.4312 118.672 52.3915C118.587 52.3548 118.517 52.2915 118.471 52.2111C118.426 52.1307 118.408 52.0378 118.421 51.9464V51.8791C118.421 51.7441 118.474 51.6148 118.57 51.5194C118.665 51.424 118.795 51.3704 118.93 51.3704C119.065 51.3704 119.194 51.424 119.289 51.5194C119.385 51.6148 119.438 51.7441 119.438 51.8791ZM118.66 51.8791V51.9838C118.66 52.1933 118.761 52.2868 118.93 52.2868C119.098 52.2868 119.203 52.1933 119.203 51.9838V51.8791C119.203 51.6584 119.102 51.5574 118.93 51.5574C118.758 51.5574 118.66 51.6659 118.66 51.8865V51.8791ZM118.66 52.8142V52.9937C118.66 53.2182 118.758 53.3229 118.93 53.3229C119.102 53.3229 119.199 53.2182 119.203 52.9937V52.8142C119.203 52.6047 119.109 52.5 118.93 52.5C118.75 52.5 118.66 52.6122 118.66 52.8217V52.8142Z" fill="#263238"/>
<path d="M37.3979 64.9513C37.3066 65.005 37.2042 65.037 37.0986 65.0448V64.8465C37.1841 64.849 37.2678 64.8222 37.3359 64.7704C37.4039 64.7187 37.4522 64.6452 37.4727 64.5623H37.641V66.7168H37.4053L37.3979 64.9513Z" fill="#263238"/>
<path d="M38.9688 65.0836V66.1833C38.9688 66.5237 38.8154 66.7407 38.4675 66.7407C38.1197 66.7407 37.9813 66.5275 37.9813 66.1983V66.1571H38.2057V66.2133C38.2057 66.4078 38.2917 66.5237 38.4638 66.5237C38.6359 66.5237 38.7294 66.404 38.7294 66.1758V65.6933C38.7041 65.7648 38.6559 65.8259 38.5923 65.8671C38.5287 65.9084 38.4533 65.9275 38.3778 65.9215C38.101 65.9215 37.9775 65.7232 37.9775 65.4128V65.0836C37.9775 64.7545 38.1384 64.5413 38.4713 64.5413C38.8042 64.5413 38.9688 64.7545 38.9688 65.0836ZM38.2207 65.0836V65.4053C38.2207 65.5998 38.303 65.7158 38.475 65.7158C38.6471 65.7158 38.7331 65.5998 38.7331 65.4053V65.0836C38.7331 64.8854 38.6508 64.7694 38.475 64.7694C38.2992 64.7694 38.2169 64.8779 38.2169 65.0724L38.2207 65.0836Z" fill="#263238"/>
<path d="M51.5033 65.0848C51.5033 65.7356 50.7552 65.9675 50.7552 66.465V66.4987H51.4659V66.7156H50.5195V66.5323C50.5195 65.8366 51.2489 65.7019 51.2489 65.0922C51.2489 64.8715 51.1741 64.7556 50.9983 64.7556C50.8225 64.7556 50.744 64.879 50.744 65.0698V65.2493H50.5195V65.0735C50.5195 64.7406 50.6691 64.5237 51.0021 64.5237C51.335 64.5237 51.5033 64.7556 51.5033 65.0848Z" fill="#263238"/>
<path d="M51.708 65.0836C51.708 64.7545 51.8688 64.5413 52.2017 64.5413C52.5347 64.5413 52.6955 64.7545 52.6955 65.0836V66.2058C52.6955 66.5349 52.5309 66.7519 52.2017 66.7519C51.8726 66.7519 51.708 66.5349 51.708 66.2058V65.0836ZM51.9437 66.2058C51.9437 66.4003 52.0259 66.52 52.2017 66.52C52.3776 66.52 52.4561 66.4003 52.4561 66.2058V65.0836C52.4561 64.8854 52.3738 64.7694 52.2017 64.7694C52.0297 64.7694 51.9437 64.8854 51.9437 65.0836V66.2058Z" fill="#263238"/>
<path d="M64.759 65.0848C64.759 65.7356 64.0109 65.9675 64.0109 66.465V66.4987H64.7178V66.7156H63.7715V66.5323C63.7715 65.8366 64.5196 65.7019 64.5196 65.0922C64.5196 64.8715 64.4448 64.7556 64.2652 64.7556C64.0857 64.7556 64.0146 64.879 64.0146 65.0698V65.2493H63.7864V65.0735C63.7864 64.7406 63.9398 64.5237 64.2727 64.5237C64.6056 64.5237 64.759 64.7556 64.759 65.0848Z" fill="#263238"/>
<path d="M65.4281 64.9513C65.3374 65.0061 65.2347 65.0382 65.1289 65.0448V64.8465C65.2144 64.849 65.2981 64.8222 65.3661 64.7704C65.4342 64.7187 65.4825 64.6452 65.503 64.5623H65.6675V66.7168H65.4281V64.9513Z" fill="#263238"/>
<path d="M78.3195 65.0848C78.3195 65.7356 77.5714 65.9675 77.5714 66.465V66.4987H78.2784V66.7156H77.332V66.5323C77.332 65.8366 78.0614 65.7019 78.0614 65.0922C78.0614 64.8715 77.9904 64.7556 77.8108 64.7556C77.6313 64.7556 77.5565 64.879 77.5565 65.0698V65.2493H77.332V65.0735C77.332 64.7406 77.4854 64.5237 77.8183 64.5237C78.1512 64.5237 78.3195 64.7556 78.3195 65.0848Z" fill="#263238"/>
<path d="M79.5121 65.0848C79.5121 65.7356 78.764 65.9675 78.764 66.465V66.4987H79.4747V66.7156H78.5283V66.5323C78.5283 65.8366 79.2577 65.7019 79.2577 65.0922C79.2577 64.8715 79.1866 64.7556 79.0071 64.7556C78.8276 64.7556 78.7528 64.879 78.7528 65.0698V65.2493H78.5283V65.0735C78.5283 64.7406 78.6779 64.5237 79.0108 64.5237C79.3437 64.5237 79.5121 64.7556 79.5121 65.0848Z" fill="#263238"/>
<path d="M91.7298 65.0848C91.7298 65.7356 91.0004 65.9675 90.9817 66.465V66.4987H91.6887V66.7156H90.7461V66.5323C90.7461 65.8366 91.4755 65.7019 91.4755 65.0922C91.4755 64.8715 91.4007 64.7556 91.2211 64.7556C91.0416 64.7556 90.9705 64.879 90.9705 65.0698V65.2493H90.7461V65.0735C90.7461 64.7406 90.8957 64.5237 91.2286 64.5237C91.5615 64.5237 91.7298 64.7556 91.7298 65.0848Z" fill="#263238"/>
<path d="M92.9034 65.0836V65.1397C92.9142 65.2318 92.8944 65.3249 92.8471 65.4047C92.7998 65.4845 92.7275 65.5465 92.6415 65.5811C92.7285 65.6166 92.8014 65.6799 92.8487 65.761C92.8961 65.8422 92.9153 65.9368 92.9034 66.03V66.1945C92.9034 66.5237 92.75 66.7407 92.4171 66.7407C92.0842 66.7407 91.9346 66.5237 91.9346 66.1945V66.0487H92.159V66.2095C92.159 66.404 92.2413 66.5237 92.4134 66.5237C92.5854 66.5237 92.664 66.4078 92.664 66.1908V66.0225C92.664 65.8093 92.5742 65.7083 92.3947 65.7045H92.2637V65.4876H92.4059C92.4432 65.488 92.4801 65.4803 92.5141 65.4651C92.5481 65.4498 92.5785 65.4274 92.603 65.3993C92.6275 65.3712 92.6457 65.3382 92.6562 65.3024C92.6667 65.2666 92.6694 65.229 92.664 65.1921V65.0911C92.664 64.8704 92.5892 64.7582 92.4134 64.7582C92.2375 64.7582 92.159 64.8779 92.159 65.0724V65.1809H91.9346V65.0836C91.9346 64.7545 92.0879 64.5413 92.4171 64.5413C92.7463 64.5413 92.9034 64.7545 92.9034 65.0836Z" fill="#263238"/>
<path d="M105.111 65.0848C105.111 65.7356 104.363 65.9675 104.363 66.465V66.4987H105.074V66.7156H104.139V66.5323C104.139 65.8366 104.887 65.7019 104.887 65.0922C104.887 64.8715 104.812 64.7556 104.632 64.7556C104.453 64.7556 104.382 64.879 104.382 65.0698V65.2493H104.154V65.0735C104.154 64.7406 104.307 64.5237 104.64 64.5237C104.973 64.5237 105.111 64.7556 105.111 65.0848Z" fill="#263238"/>
<path d="M106.195 66.2825V66.7164H105.959V66.2825H105.264V66.0655L105.933 64.5693H106.195V66.0655H106.367V66.2825H106.195ZM105.488 66.0655H105.959V65.0107L105.488 66.0655Z" fill="#263238"/>
<path d="M118.315 65.0848C118.315 65.7356 117.585 65.9675 117.567 66.465V66.4987H118.273V66.7156H117.327V66.5323C117.327 65.8366 118.075 65.7019 118.075 65.0922C118.075 64.8715 118 64.7556 117.821 64.7556C117.641 64.7556 117.57 64.879 117.57 65.0698V65.2493H117.342V65.0735C117.342 64.7406 117.495 64.5237 117.828 64.5237C118.161 64.5237 118.315 64.7556 118.315 65.0848Z" fill="#263238"/>
<path d="M118.776 65.4375C118.808 65.3812 118.855 65.3349 118.912 65.3038C118.969 65.2728 119.033 65.2582 119.098 65.2617C119.375 65.2617 119.498 65.4637 119.498 65.7704V66.1931C119.498 66.5223 119.341 66.7392 119.012 66.7392C118.683 66.7392 118.529 66.5223 118.529 66.1931V66.051H118.754V66.2081C118.754 66.4026 118.832 66.5223 119.004 66.5223C119.176 66.5223 119.259 66.4026 119.259 66.2081V65.7891C119.259 65.5946 119.176 65.4787 119.004 65.4787C118.973 65.4777 118.942 65.4829 118.913 65.4941C118.884 65.5052 118.857 65.5221 118.834 65.5437C118.812 65.5653 118.793 65.5911 118.781 65.6198C118.768 65.6485 118.762 65.6793 118.761 65.7106V65.7592H118.544L118.604 64.5623H119.453V64.7755H118.817L118.776 65.4375Z" fill="#263238"/>
<path d="M37.9271 78.2759C37.9271 78.9267 37.1977 79.1586 37.179 79.6561V79.6898H37.8897V79.9067H36.9434V79.7234C36.9434 79.0277 37.6915 78.893 37.6915 78.2833C37.6915 78.0626 37.6166 77.9467 37.4371 77.9467C37.2576 77.9467 37.1865 78.0701 37.1865 78.2646V78.4554H36.9621V78.2796C36.9621 77.9504 37.1117 77.7297 37.4446 77.7297C37.7775 77.7297 37.9271 77.9467 37.9271 78.2759Z" fill="#263238"/>
<path d="M39.1166 78.2684V78.3095H38.8921V78.2534C38.8921 78.0589 38.8136 77.9467 38.6378 77.9467C38.462 77.9467 38.3759 78.0626 38.3759 78.2946V78.7771C38.401 78.7059 38.4484 78.6449 38.5112 78.603C38.5739 78.5612 38.6485 78.5409 38.7238 78.5452C39.0006 78.5452 39.124 78.7472 39.124 79.0576V79.383C39.124 79.7159 38.9595 79.9291 38.6303 79.9291C38.3011 79.9291 38.1328 79.7159 38.1328 79.383V78.2833C38.1328 77.9429 38.2899 77.7297 38.6303 77.7297C38.9707 77.7297 39.1166 77.9392 39.1166 78.2684ZM38.3685 79.0763V79.4017C38.3685 79.5925 38.447 79.7122 38.6228 79.7122C38.7986 79.7122 38.8772 79.5925 38.8772 79.4017V79.0913C38.8772 78.8968 38.7949 78.7808 38.6228 78.7808C38.4508 78.7808 38.3759 78.8818 38.3759 79.0913L38.3685 79.0763Z" fill="#263238"/>
<path d="M51.5033 78.2759C51.5033 78.9267 50.7739 79.1586 50.7552 79.6561V79.6898H51.4659V79.9067H50.5195V79.7234C50.5195 79.0277 51.2489 78.893 51.2489 78.2833C51.2489 78.0626 51.1741 77.9467 50.9946 77.9467C50.815 77.9467 50.744 78.0701 50.744 78.2646V78.4554H50.5195V78.2796C50.5195 77.9504 50.6692 77.7297 51.0021 77.7297C51.335 77.7297 51.5033 77.9467 51.5033 78.2759Z" fill="#263238"/>
<path d="M52.4424 77.9676H51.6943V77.7544H52.6706V77.9676L52.117 79.9127H51.8776L52.4424 77.9676Z" fill="#263238"/>
<path d="M64.6805 78.2759C64.6805 78.9267 63.9324 79.1586 63.9324 79.6561V79.6898H64.6394V79.9067H63.708V79.7234C63.708 79.0277 64.4561 78.893 64.4561 78.2833C64.4561 78.0626 64.385 77.9467 64.2055 77.9467C64.026 77.9467 63.9511 78.0701 63.9511 78.2646V78.4554H63.7267V78.2796C63.7267 77.9504 63.8801 77.7297 64.213 77.7297C64.5459 77.7297 64.6805 77.9467 64.6805 78.2759Z" fill="#263238"/>
<path d="M65.886 78.2637V78.3423C65.8986 78.4327 65.8813 78.5247 65.8367 78.6044C65.7922 78.6841 65.7228 78.747 65.6392 78.7836C65.7236 78.8234 65.7931 78.8892 65.8375 78.9713C65.8819 79.0534 65.8989 79.1475 65.886 79.24V79.4008C65.8921 79.471 65.8834 79.5418 65.8607 79.6085C65.838 79.6752 65.8017 79.7364 65.754 79.7884C65.7063 79.8403 65.6484 79.8817 65.5839 79.9101C65.5194 79.9385 65.4497 79.9531 65.3792 79.9531C65.3087 79.9531 65.239 79.9385 65.1745 79.9101C65.11 79.8817 65.0521 79.8403 65.0044 79.7884C64.9567 79.7364 64.9204 79.6752 64.8977 79.6085C64.875 79.5418 64.8663 79.471 64.8724 79.4008V79.24C64.8595 79.1475 64.8765 79.0534 64.9209 78.9713C64.9653 78.8892 65.0348 78.8234 65.1192 78.7836C65.0356 78.747 64.9662 78.6841 64.9217 78.6044C64.8771 78.5247 64.8598 78.4327 64.8724 78.3423V78.2749C64.8663 78.2047 64.875 78.134 64.8977 78.0673C64.9204 78.0006 64.9567 77.9393 65.0044 77.8874C65.0521 77.8355 65.11 77.794 65.1745 77.7657C65.239 77.7373 65.3087 77.7227 65.3792 77.7227C65.4497 77.7227 65.5194 77.7373 65.5839 77.7657C65.6484 77.794 65.7063 77.8355 65.754 77.8874C65.8017 77.9393 65.838 78.0006 65.8607 78.0673C65.8834 78.134 65.8921 78.2047 65.886 78.2749V78.2637ZM65.108 78.2637V78.3685C65.108 78.5779 65.209 78.6714 65.3773 78.6714C65.5456 78.6714 65.6504 78.5779 65.6504 78.3685V78.2637C65.6504 78.043 65.5494 77.942 65.3773 77.942C65.2053 77.942 65.108 78.0468 65.108 78.2675V78.2637ZM65.108 79.1988V79.3784C65.108 79.6028 65.2053 79.7075 65.3773 79.7075C65.5494 79.7075 65.6466 79.6028 65.6504 79.3784V79.1988C65.6504 78.9894 65.5569 78.8884 65.3773 78.8884C65.1978 78.8884 65.108 78.9931 65.108 79.2026V79.1988Z" fill="#263238"/>
<path d="M78.3195 78.2759C78.3195 78.9267 77.5901 79.1586 77.5714 79.6561V79.6898H78.2784V79.9067H77.332V79.7234C77.332 79.0277 78.0801 78.893 78.0801 78.2833C78.0801 78.0626 78.0053 77.9467 77.8258 77.9467C77.6462 77.9467 77.5752 78.0701 77.5752 78.2646V78.4554H77.347V78.2796C77.347 77.9504 77.5004 77.7297 77.8333 77.7297C78.1662 77.7297 78.3195 77.9467 78.3195 78.2759Z" fill="#263238"/>
<path d="M79.5049 78.2721V79.3718C79.5049 79.7159 79.3515 79.9291 79.0037 79.9291C78.6558 79.9291 78.5174 79.7159 78.5174 79.3868V79.3494H78.7418V79.4017C78.7418 79.5962 78.8279 79.7122 78.9999 79.7122C79.172 79.7122 79.2655 79.5925 79.2655 79.3643V78.8818C79.2402 78.9533 79.192 79.0143 79.1285 79.0556C79.0649 79.0969 78.9895 79.116 78.9139 79.11C78.6371 79.11 78.5137 78.9117 78.5137 78.6013V78.2721C78.5137 77.9429 78.6745 77.7297 79.0074 77.7297C79.3403 77.7297 79.5049 77.9429 79.5049 78.2721ZM78.7568 78.2721V78.5938C78.7568 78.7883 78.8391 78.9043 79.0112 78.9043C79.1832 78.9043 79.2693 78.7883 79.2693 78.5938V78.2721C79.2693 78.0739 79.187 77.9617 79.0112 77.9617C78.8354 77.9617 78.7531 78.0626 78.7531 78.2609L78.7568 78.2721Z" fill="#263238"/>
<path d="M91.7118 78.2713V78.3424C91.722 78.4344 91.7019 78.5272 91.6547 78.6069C91.6075 78.6865 91.5356 78.7486 91.4499 78.7837C91.5366 78.8198 91.609 78.8831 91.6563 78.9642C91.7036 79.0452 91.723 79.1395 91.7118 79.2326V79.3972C91.7118 79.7301 91.5584 79.9433 91.2255 79.9433C90.8926 79.9433 90.7393 79.7301 90.7393 79.3972V79.2513H90.9674V79.4159C90.9674 79.6067 91.046 79.7264 91.218 79.7264C91.3901 79.7264 91.4724 79.6104 91.4724 79.3934V79.2251C91.4724 79.0119 91.3826 78.9109 91.1993 78.9072H91.0722V78.6902H91.2106C91.248 78.6905 91.285 78.6828 91.3192 78.6676C91.3534 78.6524 91.3839 78.6301 91.4087 78.6021C91.4335 78.5741 91.452 78.5411 91.463 78.5053C91.474 78.4695 91.4772 78.4318 91.4724 78.3947V78.2975C91.4724 78.0731 91.3938 77.9609 91.218 77.9609C91.0422 77.9609 90.9674 78.0805 90.9674 78.275V78.3835H90.7393V78.2863C90.7393 77.9571 90.8964 77.7439 91.2255 77.7439C91.5547 77.7439 91.7118 77.9421 91.7118 78.2713Z" fill="#263238"/>
<path d="M91.9209 78.2721C91.9209 77.9429 92.0855 77.7297 92.4146 77.7297C92.7438 77.7297 92.9121 77.9429 92.9121 78.2721V79.3943C92.9121 79.7272 92.7475 79.9404 92.4146 79.9404C92.0817 79.9404 91.9209 79.7272 91.9209 79.3943V78.2721ZM92.1603 79.3943C92.1603 79.585 92.2426 79.7047 92.4146 79.7047C92.5867 79.7047 92.6727 79.585 92.6727 79.3943V78.2534C92.6727 78.0552 92.5904 77.9392 92.4146 77.9392C92.2388 77.9392 92.1603 78.0552 92.1603 78.2534V79.3943Z" fill="#263238"/>
<path d="M103.779 78.2721C103.779 77.9429 103.944 77.7297 104.273 77.7297C104.602 77.7297 104.767 77.9429 104.767 78.2721V79.3943C104.767 79.7234 104.606 79.9366 104.273 79.9366C103.94 79.9366 103.779 79.7234 103.779 79.3943V78.2721ZM104.015 79.3943C104.015 79.5888 104.101 79.7047 104.273 79.7047C104.445 79.7047 104.527 79.5888 104.527 79.3943V78.2534C104.527 78.0589 104.449 77.9429 104.273 77.9429C104.097 77.9429 104.015 78.0589 104.015 78.2534V79.3943Z" fill="#CCCCCC"/>
<path d="M105.948 78.2725V78.467H105.72V78.2613C105.72 78.0668 105.641 77.9508 105.466 77.9508C105.29 77.9508 105.215 78.0668 105.215 78.2613V79.4021C105.215 79.5929 105.294 79.7126 105.466 79.7126C105.638 79.7126 105.72 79.5929 105.72 79.4021V79.1216H105.948V79.3872C105.948 79.7163 105.795 79.9295 105.462 79.9295C105.129 79.9295 104.976 79.7163 104.976 79.3872V78.265C104.976 77.9396 105.129 77.7227 105.462 77.7227C105.795 77.7227 105.948 77.9471 105.948 78.2725Z" fill="#CCCCCC"/>
<path d="M106.477 79.9052V77.9677H106.08V77.7507H107.112V77.9677H106.716V79.9052H106.477Z" fill="#CCCCCC"/>
<path d="M107.318 79.6113V79.9068H107.086V79.6113H107.318Z" fill="#CCCCCC"/>
<path d="M108.482 78.1397C108.392 78.1963 108.289 78.2285 108.183 78.2332V78.035C108.268 78.0375 108.352 78.0106 108.42 77.9589C108.488 77.9072 108.536 77.8337 108.557 77.7507H108.725V79.9052H108.486L108.482 78.1397Z" fill="#CCCCCC"/>
<path d="M118.909 78.2759C118.909 78.9267 118.16 79.1586 118.16 79.6561V79.6898H118.871V79.9067H117.925V79.7234C117.925 79.0277 118.654 78.893 118.654 78.2833C118.654 78.0626 118.579 77.9467 118.4 77.9467C118.22 77.9467 118.149 78.0701 118.149 78.2646V78.4554H117.925V78.2796C117.925 77.9504 118.074 77.7297 118.407 77.7297C118.74 77.7297 118.909 77.9467 118.909 78.2759Z" fill="#CCCCCC"/>
<path d="M37.9159 91.4606V91.5167C37.9257 91.6091 37.9055 91.7023 37.8584 91.7824C37.8113 91.8626 37.7396 91.9255 37.654 91.9618C37.7408 91.9966 37.8135 92.0592 37.8608 92.1397C37.9082 92.2203 37.9276 92.3142 37.9159 92.4069V92.5752C37.9159 92.9044 37.7625 93.1176 37.4296 93.1176C37.0967 93.1176 36.9434 92.9044 36.9434 92.5752V92.4256H37.1715V92.5902C37.1715 92.7847 37.2501 92.9007 37.4221 92.9007C37.5942 92.9007 37.6765 92.7847 37.6765 92.5678V92.3994C37.6765 92.19 37.5867 92.0852 37.4034 92.0815H37.2763V91.8646H37.4147C37.4521 91.8649 37.4891 91.8572 37.5233 91.8419C37.5575 91.8267 37.588 91.8044 37.6128 91.7764C37.6376 91.7484 37.6561 91.7154 37.6671 91.6796C37.6781 91.6439 37.6813 91.6062 37.6765 91.5691V91.4718C37.6765 91.2474 37.5979 91.1352 37.4221 91.1352C37.2463 91.1352 37.1715 91.2549 37.1715 91.4494V91.5616H36.9434V91.4606C36.9434 91.1314 37.1005 90.9182 37.4296 90.9182C37.7588 90.9182 37.9159 91.1314 37.9159 91.4606Z" fill="#CCCCCC"/>
<path d="M51.9919 92.6594V93.0971H51.7563V92.6594H51.0605V92.4425L51.7301 90.9463H51.9919V92.4425H52.164V92.6594H51.9919ZM51.2812 92.4425H51.7563V91.3877L51.2812 92.4425Z" fill="#CCCCCC"/>
<path d="M64.5494 91.8099C64.5805 91.7526 64.6273 91.7053 64.6842 91.6735C64.7412 91.6417 64.806 91.6268 64.8711 91.6304C65.1479 91.6304 65.2714 91.8324 65.2714 92.1428V92.5655C65.2714 92.8947 65.1143 93.1079 64.7851 93.1079C64.4559 93.1079 64.2988 92.8947 64.2988 92.5655V92.4196H64.5233V92.5805C64.5233 92.775 64.6055 92.8909 64.7776 92.8909C64.9497 92.8909 65.0282 92.775 65.0282 92.5805V92.184C65.0282 91.9895 64.9497 91.8698 64.7776 91.8698C64.7462 91.8683 64.7149 91.8731 64.6854 91.8841C64.656 91.8951 64.6291 91.9119 64.6063 91.9336C64.5836 91.9553 64.5655 91.9814 64.5531 92.0103C64.5408 92.0392 64.5344 92.0703 64.5345 92.1017V92.1503H64.3026L64.3587 90.9534H65.2115V91.1703H64.5756L64.5494 91.8099Z" fill="#CCCCCC"/>
<path d="M78.8892 91.4568V91.498H78.6648V91.4344C78.6648 91.2399 78.5862 91.1277 78.4104 91.1277C78.2346 91.1277 78.1486 91.2436 78.1486 91.4755V91.9581C78.1741 91.8873 78.2217 91.8265 78.2843 91.7848C78.3469 91.7431 78.4213 91.7225 78.4964 91.7262C78.7732 91.7262 78.8967 91.9281 78.8967 92.2386V92.5678C78.8967 92.8969 78.7321 93.1101 78.4029 93.1101C78.0738 93.1101 77.9092 92.8969 77.9092 92.5678V91.4718C77.9092 91.1314 78.0625 90.9182 78.4029 90.9182C78.7433 90.9182 78.8892 91.1277 78.8892 91.4568ZM78.1411 92.2648V92.5902C78.1411 92.7847 78.2196 92.9007 78.3954 92.9007C78.5712 92.9007 78.6535 92.7847 78.6535 92.5902V92.2648C78.6535 92.0703 78.5675 91.9543 78.3954 91.9543C78.2234 91.9543 78.1635 92.0703 78.1635 92.2648H78.1411Z" fill="#CCCCCC"/>
<path d="M92.0704 91.1564H91.3223V90.9395H92.2985V91.1489L91.7449 93.0977H91.5018L92.0704 91.1564Z" fill="#CCCCCC"/>
<path d="M105.744 91.4516V91.5189C105.756 91.6093 105.739 91.701 105.694 91.7806C105.65 91.8601 105.581 91.9232 105.497 91.9603C105.581 92.001 105.65 92.0669 105.694 92.1488C105.738 92.2306 105.756 92.3243 105.744 92.4166V92.5775C105.744 92.7124 105.691 92.8418 105.595 92.9372C105.5 93.0326 105.37 93.0862 105.236 93.0862C105.101 93.0862 104.971 93.0326 104.876 92.9372C104.78 92.8418 104.727 92.7124 104.727 92.5775V92.4166C104.714 92.3242 104.731 92.23 104.775 92.1479C104.82 92.0658 104.889 92.0001 104.974 91.9603C104.89 91.9237 104.821 91.8607 104.776 91.781C104.732 91.7014 104.714 91.6093 104.727 91.5189V91.4516C104.727 91.3167 104.78 91.1873 104.876 91.0919C104.971 90.9965 105.101 90.9429 105.236 90.9429C105.37 90.9429 105.5 90.9965 105.595 91.0919C105.691 91.1873 105.744 91.3167 105.744 91.4516ZM104.963 91.4516V91.5563C104.963 91.7658 105.064 91.8593 105.236 91.8593C105.408 91.8593 105.505 91.7658 105.505 91.5563V91.4516C105.505 91.2309 105.404 91.1299 105.236 91.1299C105.067 91.1299 104.963 91.2346 104.963 91.4553V91.4516ZM104.963 92.3867V92.57C104.963 92.7907 105.064 92.8954 105.236 92.8954C105.408 92.8954 105.501 92.7907 105.505 92.57V92.3867C105.505 92.1772 105.411 92.0762 105.236 92.0762C105.06 92.0762 104.963 92.181 104.963 92.3904V92.3867Z" fill="#CCCCCC"/>
<path d="M118.916 91.4595V92.5554C118.916 92.8995 118.759 93.1127 118.415 93.1127C118.071 93.1127 117.929 92.8995 117.929 92.5704V92.5554H118.153V92.6078C118.153 92.8023 118.235 92.9182 118.407 92.9182C118.579 92.9182 118.673 92.8023 118.673 92.5741V92.0879C118.648 92.159 118.601 92.22 118.538 92.2613C118.475 92.3026 118.4 92.3218 118.325 92.316C118.048 92.316 117.925 92.1178 117.925 91.8073V91.4782C117.925 91.149 118.086 90.9358 118.419 90.9358C118.751 90.9358 118.916 91.1303 118.916 91.4595ZM118.168 91.4595V91.7811C118.168 91.9756 118.25 92.0953 118.422 92.0953C118.594 92.0953 118.677 91.9756 118.677 91.7811V91.4333C118.677 91.235 118.598 91.1228 118.422 91.1228C118.246 91.1228 118.168 91.25 118.168 91.4333V91.4595Z" fill="#CCCCCC"/>
<path d="M41.9953 19.8383V19.8944H41.7671V19.827C41.7671 19.6325 41.6961 19.5166 41.524 19.5166C41.352 19.5166 41.2771 19.6325 41.2771 19.8233C41.2771 20.3058 41.9991 20.3507 41.9991 20.9455C41.9991 21.2709 41.842 21.4841 41.5128 21.4841C41.1836 21.4841 41.0303 21.2709 41.0303 20.9455V20.822H41.2547V20.9567C41.2547 21.1512 41.3333 21.2634 41.5053 21.2634C41.6774 21.2634 41.7597 21.1512 41.7597 20.9567C41.7597 20.4742 41.0378 20.4293 41.0378 19.8345C41.0378 19.5016 41.1911 19.2959 41.5165 19.2959C41.842 19.2959 41.9953 19.5091 41.9953 19.8383Z" fill="#263238"/>
<path d="M55.8223 21.4864H55.5904L55.2163 19.7695V21.4864H55.0068V19.3169H55.3435L55.6988 21.0413L56.0392 19.3169H56.3759V21.4864H56.1477V19.7508L55.8223 21.4864Z" fill="#263238"/>
<path d="M68.7676 21.4857V19.5481H68.3711V19.3274H69.4035V19.5481H69.007V21.4857H68.7676Z" fill="#263238"/>
<path d="M82.318 21.4857H81.9889L81.6934 19.3274H81.929L82.1796 21.164L82.419 19.3311H82.6584L82.894 21.1677L83.1372 19.3274H83.3467L83.0549 21.4857H82.737L82.5312 20.0231L82.318 21.4857Z" fill="#263238"/>
<path d="M95.8125 21.4857V19.5481H95.416V19.3274H96.4484V19.5481H96.0519V21.4857H95.8125Z" fill="#263238"/>
<path d="M109.675 20.3231V20.54H109.189V21.4864H108.949V19.3169H109.806V19.5376H109.189V20.3231H109.675Z" fill="#263238"/>
<path d="M123.009 19.8383V19.8944H122.781V19.827C122.781 19.6325 122.706 19.5166 122.534 19.5166C122.362 19.5166 122.287 19.6325 122.287 19.8233C122.287 20.3058 123.009 20.3507 123.009 20.9455C123.009 21.2709 122.852 21.4841 122.523 21.4841C122.193 21.4841 122.04 21.2709 122.04 20.9455V20.822H122.264V20.9567C122.264 21.1512 122.343 21.2634 122.519 21.2634C122.695 21.2634 122.769 21.1512 122.769 20.9567C122.769 20.4742 122.048 20.4293 122.048 19.8345C122.048 19.5016 122.205 19.2959 122.526 19.2959C122.848 19.2959 123.009 19.5091 123.009 19.8383Z" fill="#263238"/>
<path d="M49.3376 23.3826H36.0439V36.6762H49.3376V23.3826Z" stroke="#263238" stroke-width="0.440051" stroke-linejoin="round"/>
<path d="M62.6872 23.3826H49.3936V36.6762H62.6872V23.3826Z" stroke="#263238" stroke-width="0.440051" stroke-linejoin="round"/>
<path d="M76.0378 23.3826H62.7441V36.6762H76.0378V23.3826Z" stroke="#263238" stroke-width="0.440051" stroke-linejoin="round"/>
<path d="M89.3884 23.3826H76.0947V36.6762H89.3884V23.3826Z" stroke="#263238" stroke-width="0.440051" stroke-linejoin="round"/>
<path d="M102.731 23.3826H89.4375V36.6762H102.731V23.3826Z" stroke="#263238" stroke-width="0.440051" stroke-linejoin="round"/>
<path d="M116.082 23.3826H102.788V36.6762H116.082V23.3826Z" stroke="#263238" stroke-width="0.440051" stroke-linejoin="round"/>
<path d="M129.432 23.3826H116.139V36.6762H129.432V23.3826Z" stroke="#263238" stroke-width="0.440051" stroke-linejoin="round"/>
<path d="M49.3376 36.6799H36.0439V49.9736H49.3376V36.6799Z" stroke="#263238" stroke-width="0.440051" stroke-linejoin="round"/>
<path d="M62.6872 36.6799H49.3936V49.9736H62.6872V36.6799Z" stroke="#263238" stroke-width="0.440051" stroke-linejoin="round"/>
<path d="M76.0378 36.6799H62.7441V49.9736H76.0378V36.6799Z" stroke="#263238" stroke-width="0.440051" stroke-linejoin="round"/>
<path d="M89.3884 36.6799H76.0947V49.9736H89.3884V36.6799Z" stroke="#263238" stroke-width="0.440051" stroke-linejoin="round"/>
<path d="M102.731 36.6799H89.4375V49.9736H102.731V36.6799Z" stroke="#263238" stroke-width="0.440051" stroke-linejoin="round"/>
<path d="M116.082 36.6799H102.788V49.9736H116.082V36.6799Z" stroke="#263238" stroke-width="0.440051" stroke-linejoin="round"/>
<path d="M129.432 36.6799H116.139V49.9736H129.432V36.6799Z" stroke="#263238" stroke-width="0.440051" stroke-linejoin="round"/>
<path d="M49.3376 49.967H36.0439V63.2607H49.3376V49.967Z" stroke="#263238" stroke-width="0.440051" stroke-linejoin="round"/>
<path d="M62.6872 49.967H49.3936V63.2607H62.6872V49.967Z" stroke="#263238" stroke-width="0.440051" stroke-linejoin="round"/>
<path d="M76.0378 49.967H62.7441V63.2607H76.0378V49.967Z" stroke="#263238" stroke-width="0.440051" stroke-linejoin="round"/>
<path d="M89.3884 49.967H76.0947V63.2607H89.3884V49.967Z" stroke="#263238" stroke-width="0.440051" stroke-linejoin="round"/>
<path d="M102.731 49.967H89.4375V63.2607H102.731V49.967Z" stroke="#263238" stroke-width="0.440051" stroke-linejoin="round"/>
<path d="M116.082 49.967H102.788V63.2607H116.082V49.967Z" stroke="#263238" stroke-width="0.440051" stroke-linejoin="round"/>
<path d="M129.432 49.967H116.139V63.2607H129.432V49.967Z" stroke="#263238" stroke-width="0.440051" stroke-linejoin="round"/>
<path d="M49.3376 63.261H36.0439V76.5546H49.3376V63.261Z" stroke="#263238" stroke-width="0.440051" stroke-linejoin="round"/>
<path d="M62.6872 63.261H49.3936V76.5546H62.6872V63.261Z" stroke="#263238" stroke-width="0.440051" stroke-linejoin="round"/>
<path d="M76.0378 63.261H62.7441V76.5546H76.0378V63.261Z" stroke="#263238" stroke-width="0.440051" stroke-linejoin="round"/>
<path d="M89.3884 63.261H76.0947V76.5546H89.3884V63.261Z" stroke="#263238" stroke-width="0.440051" stroke-linejoin="round"/>
<path d="M102.731 63.261H89.4375V76.5546H102.731V63.261Z" stroke="#263238" stroke-width="0.440051" stroke-linejoin="round"/>
<path d="M116.082 63.261H102.788V76.5546H116.082V63.261Z" stroke="#263238" stroke-width="0.440051" stroke-linejoin="round"/>
<path d="M129.432 63.261H116.139V76.5546H129.432V63.261Z" stroke="#263238" stroke-width="0.440051" stroke-linejoin="round"/>
<path d="M49.3376 76.5515H36.0439V89.8452H49.3376V76.5515Z" stroke="#263238" stroke-width="0.440051" stroke-linejoin="round"/>
<path d="M62.6872 76.5515H49.3936V89.8452H62.6872V76.5515Z" stroke="#263238" stroke-width="0.440051" stroke-linejoin="round"/>
<path d="M76.0378 76.5515H62.7441V89.8452H76.0378V76.5515Z" stroke="#263238" stroke-width="0.440051" stroke-linejoin="round"/>
<path d="M89.3884 76.5515H76.0947V89.8452H89.3884V76.5515Z" stroke="#263238" stroke-width="0.440051" stroke-linejoin="round"/>
<path d="M102.731 76.5515H89.4375V89.8452H102.731V76.5515Z" stroke="#263238" stroke-width="0.440051" stroke-linejoin="round"/>
<path d="M116.082 76.5515H102.788V89.8452H116.082V76.5515Z" stroke="#263238" stroke-width="0.440051" stroke-linejoin="round"/>
<path d="M129.432 76.5515H116.139V89.8452H129.432V76.5515Z" stroke="#263238" stroke-width="0.440051" stroke-linejoin="round"/>
<path d="M49.3376 89.8455H36.0439V103.139H49.3376V89.8455Z" stroke="#263238" stroke-width="0.440051" stroke-linejoin="round"/>
<path d="M62.6872 89.8455H49.3936V103.139H62.6872V89.8455Z" stroke="#263238" stroke-width="0.440051" stroke-linejoin="round"/>
<path d="M76.0378 89.8455H62.7441V103.139H76.0378V89.8455Z" stroke="#263238" stroke-width="0.440051" stroke-linejoin="round"/>
<path d="M89.3884 89.8455H76.0947V103.139H89.3884V89.8455Z" stroke="#263238" stroke-width="0.440051" stroke-linejoin="round"/>
<path d="M102.731 89.8455H89.4375V103.139H102.731V89.8455Z" stroke="#263238" stroke-width="0.440051" stroke-linejoin="round"/>
<path d="M116.082 89.8455H102.788V103.139H116.082V89.8455Z" stroke="#263238" stroke-width="0.440051" stroke-linejoin="round"/>
<path d="M129.432 89.8455H116.139V103.139H129.432V89.8455Z" stroke="#263238" stroke-width="0.440051" stroke-linejoin="round"/>
<path d="M129.829 16.8796H2.95605" stroke="#263238" stroke-width="0.440051" stroke-linejoin="round"/>
<path d="M95.0318 10.9465H87.0459V14.5972H95.0318V10.9465Z" fill="#CCCCCC"/>
<path d="M103.698 10.9465H95.7119V14.5972H103.698V10.9465Z" fill="#CCCCCC"/>
<path d="M112.371 10.9465H104.385V14.5972H112.371V10.9465Z" fill="#CCCCCC"/>
<path d="M121.044 10.9465H113.058V14.5972H121.044V10.9465Z" fill="#CCCCCC"/>
<path d="M129.716 10.9465H121.73V14.5972H129.716V10.9465Z" fill="#CCCCCC"/>
<path d="M41.33 10.9465H36.6133V14.5972H41.33V10.9465Z" fill="#CCCCCC"/>
<path d="M46.7109 10.9465H41.9941V14.5972H46.7109V10.9465Z" fill="#CCCCCC"/>
<path d="M45.4992 12.7059L43.2324 14.0151V11.3967L45.4992 12.7059Z" fill="#263238"/>
<path d="M37.6758 12.7059L39.9425 14.0151V11.3967L37.6758 12.7059Z" fill="#263238"/>
<path d="M49.4738 12.0928V12.1639H49.2008V12.0779C49.2008 11.846 49.111 11.7038 48.9015 11.7038C48.6921 11.7038 48.606 11.8422 48.606 12.0779C48.606 12.6614 49.4776 12.7175 49.4776 13.4469C49.4776 13.8396 49.2868 14.0977 48.8903 14.0977C48.4938 14.0977 48.3105 13.8396 48.3105 13.4469V13.301H48.5986V13.4618C48.5986 13.6975 48.6958 13.8359 48.9015 13.8359C49.1073 13.8359 49.2083 13.7012 49.2083 13.4618C49.2083 12.8858 48.3405 12.8297 48.3405 12.0966C48.3405 11.6963 48.5238 11.4495 48.9128 11.4495C49.3018 11.4495 49.4738 11.7001 49.4738 12.0928Z" fill="#263238"/>
<path d="M50.6492 12.619V12.8809H50.017V13.8048H50.795V14.0666H49.7178V11.4707H50.7876V11.7325H50.017V12.619H50.6492Z" fill="#263238"/>
<path d="M51.6291 11.4707C52.0368 11.4707 52.2126 11.7101 52.2126 12.1028V12.417C52.2262 12.5005 52.22 12.586 52.1946 12.6666C52.1693 12.7473 52.1254 12.8209 52.0665 12.8816C52.0077 12.9423 51.9354 12.9884 51.8556 13.0162C51.7757 13.044 51.6905 13.0527 51.6067 13.0417H51.3486V14.0666H51.0605V11.4707H51.6291ZM51.6067 12.7836C51.8199 12.7836 51.9246 12.6826 51.9246 12.4357V12.0879C51.9246 11.8522 51.8386 11.7138 51.6291 11.7138H51.3486V12.7649L51.6067 12.7836Z" fill="#263238"/>
<path d="M52.809 14.0666V11.7325H52.334V11.4707H53.5758V11.7325H53.0821V14.0666H52.809Z" fill="#263238"/>
<path d="M54.6925 12.619V12.8809H54.0566V13.8048H54.8346V14.0666H53.7686V11.4707H54.8346V11.7325H54.0566V12.619H54.6925Z" fill="#263238"/>
<path d="M56.0804 14.0629H55.7999L55.3698 11.9981V14.0666H55.1191V11.4707H55.5231L55.9495 13.5429L56.361 11.4707H56.765V14.0666H56.4919V11.9794L56.0804 14.0629Z" fill="#263238"/>
<path d="M57.6304 11.4707C58.0344 11.4707 58.1952 11.6615 58.1952 12.0467V12.1664C58.1952 12.4432 58.1167 12.6115 57.8885 12.6826C58.1428 12.7537 58.2401 12.9519 58.2401 13.2399V13.4569C58.2522 13.5385 58.2454 13.6217 58.22 13.7002C58.1947 13.7787 58.1515 13.8502 58.0939 13.9093C58.0364 13.9683 57.9659 14.0132 57.8881 14.0405C57.8103 14.0678 57.7272 14.0767 57.6454 14.0666H57.0469V11.4707H57.6304ZM57.5593 12.5704C57.7912 12.5704 57.9072 12.4993 57.9072 12.2263V12.0729C57.9072 11.8448 57.8324 11.7325 57.6229 11.7325H57.3386V12.5704H57.5593ZM57.6454 13.8048C57.8548 13.8048 57.9521 13.6925 57.9521 13.4494V13.2212C57.9521 12.9332 57.8361 12.8472 57.578 12.8472H57.3274V13.816L57.6454 13.8048Z" fill="#263238"/>
<path d="M59.4405 12.619V12.8809H58.8046V13.8048H59.5826V14.0666H58.5166V11.4707H59.5826V11.7325H58.8046V12.619H59.4405Z" fill="#263238"/>
<path d="M60.4112 11.4707C60.8226 11.4707 60.9909 11.6764 60.9909 12.0654V12.2749C61.0086 12.3876 60.9861 12.503 60.9272 12.6008C60.8684 12.6986 60.7771 12.7725 60.6693 12.8098C60.9049 12.8809 60.9947 13.0716 60.9947 13.3522V13.7561C60.9863 13.8624 61.0043 13.969 61.047 14.0666H60.7553C60.7144 13.9672 60.6977 13.8595 60.7067 13.7524V13.3447C60.7067 13.0492 60.5683 12.9706 60.3326 12.9706H60.1269V14.0928H59.8389V11.4969L60.4112 11.4707ZM60.3401 12.6938C60.5683 12.6938 60.7141 12.619 60.7141 12.3385V12.0879C60.7141 11.856 60.6281 11.7138 60.4149 11.7138H60.1306V12.6751L60.3401 12.6938Z" fill="#263238"/>
<path d="M63.6853 12.0976C63.6853 12.8831 62.8063 13.1636 62.8025 13.7621V13.8033H63.6553V14.0651H62.5332V13.8407C62.5332 13.0028 63.4122 12.842 63.4122 12.1088C63.4122 11.8433 63.3224 11.7011 63.1092 11.7011C62.896 11.7011 62.8063 11.8545 62.8063 12.0752V12.3071H62.5332V12.0939C62.5332 11.6974 62.7165 11.4355 63.1167 11.4355C63.5169 11.4355 63.6853 11.7011 63.6853 12.0976Z" fill="#263238"/>
<path d="M63.9326 12.0969C63.9326 11.7004 64.1271 11.446 64.5274 11.446C64.9276 11.446 65.1221 11.7004 65.1221 12.0969V13.436C65.1221 13.8325 64.9276 14.0943 64.5274 14.0943C64.1271 14.0943 63.9326 13.8325 63.9326 13.436V12.0969ZM64.2169 13.4547C64.2169 13.6903 64.3179 13.8287 64.5274 13.8287C64.7368 13.8287 64.8341 13.6903 64.8341 13.4547V12.0819C64.8341 11.8463 64.7368 11.7079 64.5274 11.7079C64.3179 11.7079 64.2169 11.85 64.2169 12.0819V13.4547Z" fill="#263238"/>
<path d="M66.5715 12.0976C66.5715 12.8831 65.6925 13.1636 65.6888 13.7621V13.8033H66.5528V14.0651H65.4307V13.8407C65.4307 13.0028 66.3097 12.842 66.3097 12.1088C66.3097 11.8433 66.2199 11.7011 66.003 11.7011C65.786 11.7011 65.7 11.8545 65.7 12.0752V12.3071H65.4307V12.0939C65.4307 11.6974 65.6102 11.4355 66.0104 11.4355C66.4107 11.4355 66.5715 11.7011 66.5715 12.0976Z" fill="#263238"/>
<path d="M67.3662 11.942C67.2533 12.0111 67.1245 12.0497 66.9922 12.0542V11.8148C67.0945 11.8168 67.1944 11.7837 67.2754 11.7212C67.3563 11.6586 67.4134 11.5702 67.4373 11.4707H67.6356V14.0666H67.3513L67.3662 11.942Z" fill="#263238"/>
<path d="M3.54004 58.9775H27.0677" stroke="#263238" stroke-width="0.440051" stroke-linejoin="round"/>
<path d="M3.54004 63.5073H27.0677" stroke="#263238" stroke-width="0.440051" stroke-linejoin="round"/>
<path d="M3.54004 68.0371H27.0677" stroke="#263238" stroke-width="0.440051" stroke-linejoin="round"/>
<path d="M3.54004 72.574H27.0677" stroke="#263238" stroke-width="0.440051" stroke-linejoin="round"/>
<path d="M63.655 4.45776H9.5752V7.54366H63.655V4.45776Z" fill="white" stroke="#263238" stroke-width="0.440051" stroke-linejoin="round"/>
<path d="M126.407 5.41455H130.174" stroke="#263238" stroke-width="0.440051" stroke-linejoin="round"/>
<path d="M126.407 6.43799H130.174" stroke="#263238" stroke-width="0.440051" stroke-linejoin="round"/>
<path d="M126.407 7.46826H130.174" stroke="#263238" stroke-width="0.440051" stroke-linejoin="round"/>
</svg>
