<svg width="229" height="239" viewBox="0 0 229 239" fill="none" xmlns="http://www.w3.org/2000/svg">
<path d="M0 233.606C37.2152 235.139 73.9658 224.895 105.022 204.331C135.777 183.85 153.489 150.026 166.233 115.343L192.021 124.193C192.021 124.193 175.671 202.545 130.985 238.749H0V233.606Z" fill="#71389A"/>
<g opacity="0.6">
<path d="M0 233.606C37.2152 235.139 73.9658 224.895 105.022 204.331C135.777 183.85 153.489 150.026 166.233 115.343L192.021 124.193C192.021 124.193 175.671 206.14 130.985 238.749H0V233.606Z" fill="white"/>
</g>
<path d="M163.317 124.527C163.509 124.594 163.43 125.346 163.102 126.719C162.938 127.403 162.712 128.245 162.43 129.234L161.955 130.822C161.774 131.387 161.559 131.953 161.333 132.608C160.881 133.863 160.372 135.259 159.796 136.779C159.22 138.299 158.479 139.904 157.728 141.645C156.976 143.386 156.032 145.205 155.117 147.15C154.201 149.094 153.059 151.077 151.912 153.18L151.036 154.773C150.714 155.299 150.398 155.83 150.07 156.367L148.075 159.651L147.561 160.493L146.995 161.323L145.865 163.019C145.102 164.149 144.356 165.313 143.531 166.461C141.836 168.721 140.191 171.134 138.269 173.452C137.326 174.621 136.399 175.842 135.387 177.012C134.376 178.182 133.347 179.363 132.302 180.561L131.516 181.465L130.691 182.341L129.046 184.093L127.351 185.879C126.786 186.478 126.181 187.01 125.588 187.626C124.389 188.784 123.203 189.977 121.959 191.135L118.128 194.571C112.719 199.25 107.013 203.571 101.043 207.508C89.4862 215.05 77.0803 221.204 64.0823 225.841L59.6402 227.373L55.2603 228.701L53.1127 229.345L50.9764 229.91L46.8056 230.978C45.4323 231.295 44.0703 231.543 42.7422 231.854C41.4141 232.165 40.1086 232.419 38.7862 232.628L34.994 233.256C34.3723 233.352 33.762 233.471 33.1516 233.55L31.3488 233.764C28.9639 234.041 26.7033 234.33 24.567 234.465C22.4307 234.601 20.3905 234.799 18.486 234.793C16.5814 234.787 14.8182 234.878 13.1905 234.855C11.5629 234.833 10.0766 234.731 8.7428 234.663C8.07592 234.623 7.44861 234.601 6.86085 234.55L5.20496 234.358C4.18204 234.233 3.32301 234.109 2.62788 233.99C1.23761 233.759 0.514218 233.533 0.525521 233.329C0.536824 233.126 1.28282 232.956 2.67309 232.809C3.37388 232.736 4.2329 232.668 5.24452 232.606L6.87781 232.527L8.73715 232.368C10.0483 232.263 11.5007 232.156 13.0945 232.046C14.6825 231.905 16.4062 231.696 18.2543 231.515C20.1023 231.334 22.069 231.018 24.1544 230.741C26.2398 230.464 28.4496 230.012 30.7102 229.639L32.4565 229.328C33.0216 229.221 33.632 229.079 34.2254 228.949L37.8876 228.158C39.1366 227.915 40.3855 227.559 41.6684 227.237L45.5849 226.231L49.5918 225.05L51.6433 224.445L53.7061 223.756L57.9165 222.348L62.189 220.749C74.6659 215.97 86.6008 209.881 97.7934 202.585C103.553 198.787 109.083 194.651 114.352 190.197L118.099 186.93C119.314 185.828 120.479 184.67 121.66 183.596C122.225 183.031 122.841 182.511 123.395 181.94C123.949 181.369 124.525 180.81 125.056 180.245L126.707 178.549L127.526 177.724L128.306 176.871L131.38 173.508C132.392 172.378 133.319 171.248 134.268 170.117C136.201 167.93 137.885 165.653 139.603 163.516C140.445 162.437 141.214 161.323 141.999 160.261L143.164 158.679L143.729 157.893L144.294 157.102L146.391 153.999L147.408 152.501L148.346 150.998C149.578 149.015 150.81 147.155 151.833 145.313C152.856 143.47 153.935 141.792 154.783 140.136C155.631 138.48 156.479 136.971 157.253 135.57C158.027 134.168 158.626 132.834 159.231 131.664C159.536 131.099 159.796 130.534 160.09 130.009C160.384 129.483 160.587 128.997 160.808 128.539C161.26 127.629 161.661 126.844 162 126.279C162.673 125.069 163.125 124.459 163.317 124.527Z" fill="#71389A"/>
<path d="M164.742 136.581C162.097 139.568 160.069 143.048 158.774 146.822C158.593 147.361 158.587 147.943 158.756 148.486C158.925 149.029 159.26 149.505 159.715 149.847C160.17 150.188 160.721 150.378 161.289 150.389C161.858 150.4 162.415 150.231 162.883 149.907L162.939 149.868C161.096 154.387 159.549 159.021 158.311 163.742C158.135 164.404 158.168 165.104 158.404 165.747C158.64 166.39 159.068 166.945 159.631 167.336C160.193 167.727 160.863 167.935 161.548 167.932C162.233 167.929 162.9 167.715 163.459 167.32C173.535 160.178 180.677 149.623 183.562 137.615L164.742 136.581Z" fill="#71389A"/>
<g opacity="0.3">
<path d="M165.64 141.43C165.153 141.913 164.769 142.49 164.509 143.125C164.385 143.443 164.356 143.79 164.425 144.124C164.495 144.458 164.659 144.765 164.899 145.007C165.674 145.663 167.002 145.267 167.725 145.962C168.448 146.657 168.041 148.002 167.527 148.952L165.9 151.964C165.504 152.699 165.114 153.66 165.628 154.315C166.143 154.971 167.358 154.79 168.188 154.372C170.104 153.376 171.749 151.93 172.983 150.158C174.216 148.386 175.001 146.341 175.27 144.199L165.64 141.43Z" fill="black"/>
</g>
<path d="M210.455 101.017L210.608 101.237C214.94 107.714 217.762 115.081 218.868 122.795C219.973 130.508 219.333 138.372 216.994 145.805L214.027 155.248L199.361 136.333L210.455 101.017Z" fill="#71389A"/>
<path d="M210.456 101.016L210.405 101.192L210.247 101.706C210.106 102.158 209.908 102.836 209.648 103.661C209.117 105.357 208.348 107.855 207.387 110.98C205.443 117.197 202.708 126.03 199.475 136.366V136.242L212.847 153.479L214.141 155.175L213.886 155.226C214.482 153.342 215.066 151.486 215.638 149.659C216.204 147.828 216.808 146.031 217.289 144.25C218.252 140.833 218.866 137.326 219.12 133.784C219.353 130.582 219.281 127.365 218.905 124.176C218.769 122.673 218.475 121.249 218.244 119.875C218.012 118.502 217.679 117.197 217.294 115.982C216.202 112.091 214.656 108.343 212.688 104.814C212.033 103.548 211.405 102.638 211.027 101.988L210.433 101.011C210.433 101.011 210.49 101.079 210.609 101.242L211.072 101.955C211.468 102.593 212.118 103.497 212.767 104.78C214.768 108.296 216.337 112.039 217.441 115.931C217.837 117.151 218.091 118.474 218.419 119.836C218.656 121.215 218.956 122.662 219.097 124.154C219.488 127.352 219.57 130.581 219.34 133.795C219.093 137.357 218.483 140.885 217.52 144.324C217.04 146.121 216.43 147.907 215.87 149.738C215.311 151.569 214.74 153.423 214.124 155.305L214.039 155.576L213.864 155.35C213.457 154.824 213.01 154.253 212.57 153.654L199.209 136.406L199.17 136.35V136.282L207.252 110.822C208.241 107.725 209.02 105.266 209.563 103.571C209.829 102.74 210.038 102.101 210.179 101.655L210.428 101.158C210.433 101.11 210.442 101.063 210.456 101.016Z" fill="#263238"/>
<path d="M156.898 84.2041L156.643 84.3002C149.486 87.0986 143.047 91.4682 137.804 97.0866C132.56 102.705 128.644 109.429 126.346 116.762L123.424 126.076L145.956 119.034L156.898 84.2041Z" fill="#71389A"/>
<path d="M156.896 84.2037C156.896 84.2037 156.896 84.2546 156.851 84.3619C156.806 84.4693 156.766 84.6445 156.704 84.848C156.569 85.2888 156.371 85.9274 156.139 86.7469L153.912 93.9073L146.096 119.062V119.136H146.029L125.491 125.567L123.496 126.189L123.23 126.273L123.315 126.002L125.011 120.515C125.576 118.712 126.107 116.926 126.706 115.202C127.868 111.876 129.364 108.676 131.171 105.651C132.803 102.92 134.695 100.354 136.822 97.9877C137.789 96.8574 138.834 95.8571 139.806 94.8737C140.778 93.8904 141.79 93.0313 142.796 92.2627C145.886 89.7437 149.27 87.6071 152.873 85.8991C154.127 85.2549 155.133 84.8932 155.84 84.5993L156.62 84.2828L156.896 84.1924L155.862 84.6502C155.19 84.961 154.167 85.3396 152.923 85.9952C149.352 87.747 145.997 89.9092 142.926 92.4379C141.931 93.2122 140.982 94.1334 139.959 95.0546C138.936 95.9758 137.958 97.0269 137.003 98.1629C134.899 100.526 133.027 103.087 131.414 105.809C129.627 108.813 128.147 111.988 126.994 115.287C126.378 116.982 125.864 118.797 125.299 120.594C124.734 122.391 124.169 124.233 123.603 126.087L123.423 125.9L125.418 125.279L145.961 118.87L145.87 118.96C149.097 108.788 151.855 100.113 153.782 93.9695C154.76 90.8951 155.54 88.4536 156.077 86.7695C156.343 85.9387 156.552 85.2944 156.693 84.848C156.761 84.6332 156.817 84.4693 156.857 84.345C156.867 84.297 156.88 84.2497 156.896 84.2037Z" fill="#263238"/>
<path d="M212.69 0.137124C208.451 -1.19098 197.216 7.32018 184.223 23.3535C171.434 39.1438 166.139 54.7701 166.139 54.7701L141.391 133.569L162.154 140.091L174.186 143.866L194.95 150.388L217.409 78.8851C219.613 71.8999 221.144 64.72 221.981 57.4433C222.841 50.1488 223.115 42.7972 222.8 35.459C221.772 14.9327 216.957 1.47088 212.713 0.137124" fill="#F5F5F5"/>
<path d="M212.688 0.137156L212.875 0.204974L213.106 0.295398L213.406 0.464944C214.052 0.887827 214.617 1.42389 215.073 2.04736C216.322 3.65804 217.661 6.38771 218.831 10.0838C220.208 14.6056 221.2 19.2356 221.798 23.9243C222.177 26.6709 222.482 29.621 222.697 32.7689C222.912 35.9168 223.042 39.2512 223.002 42.7607C222.963 46.2703 222.776 49.9495 222.437 53.7812C222.098 57.7731 221.559 61.7455 220.821 65.6832C220.016 69.9157 218.979 74.1004 217.712 78.2182C216.382 82.4606 215.013 86.833 213.604 91.3354C207.952 109.318 201.707 129.251 195.061 150.433L195.022 150.574L194.88 150.529L168.103 142.12L141.321 133.705L141.18 133.665L141.225 133.524C147.882 112.342 154.15 92.4092 159.807 74.4261C161.22 69.9275 162.593 65.557 163.927 61.3146C164.594 59.1972 165.251 57.1099 165.899 55.0528C166.594 53.0069 167.425 51.0571 168.273 49.1582C171.443 42.1498 175.27 35.4569 179.7 29.1689C183.389 24.0652 187.4 19.2025 191.71 14.6106C194.913 11.1279 198.374 7.89172 202.063 4.92963C205.109 2.53339 207.715 1.00749 209.676 0.368868C210.401 0.109113 211.167 -0.0154009 211.936 0.00151953L212.276 0.0297787L212.519 0.0862929L212.705 0.137156L212.513 0.103247L212.276 0.0523831L211.936 0.024126C211.165 0.0204944 210.4 0.154462 209.676 0.419731C207.754 1.06965 205.155 2.60686 202.108 5.0144C198.452 7.9821 195.02 11.216 191.84 14.6898C187.558 19.2967 183.574 24.1705 179.909 29.2819C175.497 35.5645 171.688 42.2497 168.533 49.2487C167.691 51.1476 166.837 53.0973 166.176 55.1262L164.21 61.3881C162.88 65.6305 161.51 70.0028 160.101 74.5052C154.449 92.4883 148.233 112.427 141.553 133.614L141.457 133.428L168.216 141.848L194.993 150.264L194.807 150.36L213.383 91.2675L217.503 78.1617C218.765 74.0493 219.799 69.8702 220.6 65.6437C221.386 61.5633 221.883 57.5903 222.233 53.7755C222.584 49.9608 222.765 46.276 222.799 42.7664C222.833 39.2568 222.731 35.9337 222.516 32.7915C222.301 29.6493 222.007 26.6992 221.634 23.9582C221.051 19.275 220.075 14.6491 218.718 10.129C217.588 6.43292 216.249 3.70325 215.017 2.09257C214.569 1.46875 214.014 0.929177 213.378 0.498852L213.084 0.323657L212.858 0.233231L212.688 0.137156Z" fill="#263238"/>
<path d="M207.306 76.1986C219.143 69.8254 223.571 55.0635 217.198 43.2271C210.825 31.3907 196.063 26.962 184.227 33.3352C172.39 39.7085 167.961 54.4703 174.335 66.3067C180.708 78.1431 195.47 82.5719 207.306 76.1986Z" fill="white"/>
<path d="M214.842 43.2248C214.704 43.2388 214.564 43.2246 214.431 43.1831C214.299 43.1415 214.176 43.0736 214.07 42.9832C213.965 42.8929 213.878 42.7821 213.817 42.6575C213.755 42.533 213.719 42.3972 213.712 42.2584C213.699 41.7024 213.888 41.1604 214.243 40.7325C214.594 40.3067 214.892 39.8399 215.13 39.3423C215.299 38.8674 215.311 38.351 215.164 37.8689C215.018 37.3868 214.721 36.9643 214.316 36.6634C214.587 36.5448 214.832 36.3726 215.035 36.1573C215.237 35.942 215.395 35.688 215.497 35.4104C215.599 35.1328 215.645 34.8375 215.63 34.542C215.616 34.2465 215.542 33.957 215.413 33.6908C215.096 33.2304 214.736 32.8009 214.339 32.4079C214.139 32.1597 213.963 31.8928 213.813 31.611C214.181 31.8333 214.591 31.9757 215.017 32.0292C215.364 32.0601 215.714 32.0028 216.033 31.8625C216.352 31.7221 216.631 31.5035 216.843 31.2267C217.048 30.9448 217.169 30.6112 217.194 30.2635C217.219 29.9159 217.146 29.5683 216.984 29.26C216.815 28.9548 216.556 28.7092 216.243 28.5564C215.929 28.4037 215.576 28.3514 215.232 28.4066C214.575 28.5998 213.995 28.9953 213.576 29.5369L213.147 30.006C212.672 28.6722 212.254 27.3215 211.118 26.5473C210.089 25.8465 208.75 25.8465 207.591 25.417C206.749 25.0835 206.02 24.5127 205.189 24.1454C204.358 23.778 203.319 23.6593 202.595 24.2019C202.166 24.5184 201.906 25.0214 201.465 25.3322C200.578 25.9821 199.204 25.6769 198.402 26.4286C197.752 27.0446 197.774 28.0845 197.334 28.8587C196.893 29.633 195.898 30.1303 195.073 30.6333C194.248 31.1363 193.412 31.9275 193.485 32.8939C193.547 33.7416 194.304 34.4311 194.355 35.2845C194.299 35.9045 194.126 36.5084 193.847 37.0647C193.649 37.6298 193.666 38.438 194.203 38.7601L200.25 42.5693C202.228 44.2082 204.274 45.881 206.726 46.6496C209.179 47.4182 212.169 47.0622 213.842 45.1124C213.488 44.9834 213.197 44.7248 213.028 44.389C213.398 44.3443 213.754 44.2164 214.068 44.0148C214.382 43.8132 214.647 43.5431 214.842 43.2248Z" fill="#263238"/>
<path d="M208.79 43.5911C209.898 42.1183 210.878 40.5527 211.718 38.9117C212.558 37.2612 212.975 35.4282 212.933 33.5767C212.933 33.2998 212.656 31.3726 212.367 31.3161C212.175 31.2765 212.17 33.0115 212.023 33.1246C210.651 34.4684 209.719 36.1965 209.35 38.0809C208.955 39.8907 208.766 41.739 208.784 43.5911" fill="#263238"/>
<path d="M198.205 56.8953C203.105 58.5907 206.084 52.1932 206.084 52.1932L211.068 36.9342C212.594 32.5712 211.328 28.0444 206.926 26.6372L206.513 26.5298C204.501 26.0135 202.368 26.2741 200.54 27.2596C198.711 28.2451 197.321 29.8833 196.646 31.8478C195.34 35.64 193.95 39.8391 193.441 41.9245C192.396 46.2365 196.521 48.0055 196.521 48.0055C196.521 48.0055 196.239 48.9888 195.86 50.2378C195.012 53.0636 195.685 56.3301 196.804 56.5788L198.205 56.8953Z" fill="#F9C0AB"/>
<path d="M196.519 48.0329C198.505 48.5351 200.594 48.4587 202.538 47.8125C202.538 47.8125 200.373 50.5874 196.186 49.101L196.519 48.0329Z" fill="#896357"/>
<path d="M197.43 35.5999C197.387 35.7595 197.408 35.9298 197.49 36.0737C197.571 36.2177 197.706 36.3236 197.865 36.3685C197.942 36.3949 198.023 36.4057 198.103 36.4003C198.184 36.3948 198.263 36.3733 198.335 36.337C198.407 36.3006 198.471 36.2502 198.524 36.1886C198.576 36.127 198.615 36.0556 198.64 35.9785C198.683 35.8189 198.662 35.6486 198.58 35.5046C198.499 35.3607 198.364 35.2548 198.204 35.2099C198.128 35.1835 198.047 35.1727 197.967 35.1781C197.886 35.1835 197.807 35.205 197.735 35.2414C197.663 35.2777 197.599 35.3282 197.546 35.3898C197.494 35.4513 197.455 35.5228 197.43 35.5999Z" fill="#263238"/>
<path d="M197.102 33.8709C197.159 33.9726 197.712 33.7465 198.374 33.9161C199.035 34.0856 199.431 34.5434 199.504 34.4812C199.577 34.4191 199.504 34.2891 199.334 34.08C199.101 33.8032 198.787 33.6057 198.436 33.5148C198.093 33.4271 197.731 33.4489 197.402 33.577C197.181 33.7013 197.074 33.8257 197.102 33.8709Z" fill="#263238"/>
<path d="M203.333 37.3813C203.291 37.5408 203.313 37.7105 203.395 37.854C203.476 37.9976 203.61 38.1038 203.768 38.1499C203.845 38.1763 203.926 38.1871 204.006 38.1817C204.087 38.1763 204.166 38.1548 204.238 38.1184C204.31 38.0821 204.374 38.0316 204.427 37.97C204.479 37.9085 204.518 37.837 204.543 37.7599C204.586 37.6011 204.566 37.4314 204.485 37.2876C204.405 37.1438 204.271 37.0374 204.113 36.9913C204.036 36.9649 203.955 36.954 203.874 36.9593C203.793 36.9647 203.714 36.9861 203.641 37.0224C203.569 37.0588 203.504 37.1092 203.451 37.1708C203.398 37.2324 203.358 37.304 203.333 37.3813Z" fill="#263238"/>
<path d="M203.506 35.7983C203.563 35.8943 204.117 35.6739 204.772 35.8435C205.428 36.013 205.835 36.4651 205.903 36.4086C205.97 36.3521 205.903 36.2221 205.733 36.013C205.503 35.7343 205.19 35.5363 204.84 35.4479C204.498 35.3541 204.134 35.376 203.806 35.51C203.586 35.6005 203.478 35.7531 203.506 35.7983Z" fill="#263238"/>
<path d="M199.837 40.2622C199.515 40.0673 199.171 39.9099 198.814 39.7931C198.65 39.7366 198.497 39.6575 198.497 39.5388C198.529 39.3597 198.613 39.1943 198.74 39.0641L199.565 37.9338C200.308 36.964 200.971 35.9358 201.549 34.8594C200.731 35.767 199.986 36.7384 199.322 37.7642L198.514 38.9341C198.357 39.1105 198.267 39.3366 198.26 39.5727C198.268 39.6395 198.291 39.7034 198.329 39.7594C198.366 39.8153 198.416 39.8617 198.475 39.8949C198.561 39.9415 198.652 39.9794 198.746 40.0079C199.097 40.1385 199.464 40.224 199.837 40.2622Z" fill="#263238"/>
<path d="M201.662 41.218C201.555 41.184 201.374 41.9018 200.628 42.2522C199.882 42.6026 199.142 42.3313 199.108 42.4274C199.074 42.5235 199.243 42.6139 199.566 42.7043C199.983 42.8165 200.427 42.7785 200.82 42.5969C201.2 42.4217 201.496 42.1054 201.645 41.7153C201.747 41.4271 201.713 41.2519 201.662 41.218Z" fill="#263238"/>
<path d="M204.213 33.1253C204.213 33.3231 204.914 33.4079 205.665 33.6905C206.417 33.973 206.988 34.3573 207.129 34.2217C207.27 34.0861 207.129 33.9617 206.92 33.7187C206.642 33.4161 206.295 33.1854 205.908 33.0462C205.524 32.8953 205.109 32.8391 204.699 32.8823C204.399 32.9275 204.213 33.0349 204.213 33.1253Z" fill="#263238"/>
<path d="M197.938 31.7455C198.018 31.9264 198.504 31.8868 199.069 32.0224C199.634 32.1581 200.052 32.3785 200.199 32.2485C200.346 32.1185 200.227 32.0168 200.063 31.8246C199.837 31.5808 199.541 31.413 199.216 31.3442C198.894 31.2659 198.556 31.2916 198.249 31.4177C197.995 31.5194 197.905 31.6438 197.938 31.7455Z" fill="#263238"/>
<path d="M209.903 40.0309C209.982 40.0309 213.08 39.9123 212.232 42.8567C211.384 45.8011 208.637 44.3204 208.654 44.2356C208.671 44.1509 209.903 40.0309 209.903 40.0309Z" fill="#F9C0AB"/>
<path d="M209.863 43.3603C209.863 43.3603 209.903 43.4112 209.976 43.4733C210.084 43.5574 210.219 43.5995 210.355 43.592C210.694 43.592 211.095 43.1568 211.265 42.6369C211.345 42.389 211.368 42.1263 211.333 41.8683C211.333 41.7692 211.308 41.6716 211.262 41.584C211.216 41.4963 211.149 41.4213 211.067 41.3653C211.012 41.334 210.948 41.3221 210.886 41.3313C210.823 41.3405 210.766 41.3704 210.722 41.4162C210.66 41.4897 210.666 41.5518 210.649 41.5518C210.632 41.5518 210.598 41.484 210.649 41.371C210.689 41.3055 210.748 41.2541 210.818 41.224C210.916 41.1844 211.026 41.1844 211.124 41.224C211.236 41.2818 211.332 41.3679 211.402 41.4739C211.471 41.58 211.511 41.7023 211.519 41.8287C211.57 42.1173 211.551 42.4139 211.463 42.6934C211.27 43.2586 210.813 43.7389 210.332 43.7389C210.247 43.7386 210.164 43.719 210.087 43.6819C210.011 43.6447 209.944 43.5908 209.892 43.5242C209.863 43.4338 209.863 43.3603 209.863 43.3603Z" fill="#896357"/>
<path d="M199.967 27.603C199.577 27.2018 201.442 26.0997 202.758 25.9076C204.742 25.642 207.557 25.9528 209.032 26.8909C210.801 28.0212 212.123 29.4737 212.569 31.5308C212.965 33.6081 212.803 35.7531 212.1 37.7475C211.937 38.3711 211.611 38.9405 211.157 39.3977C210.558 39.9177 209.659 40.0872 209.427 40.9858C209.351 41.3155 209.148 41.602 208.862 41.7826C208.156 42.1896 207.67 41.4605 207.528 40.8388C207.229 39.5107 207.568 38.1318 207.901 36.8093C208.089 35.8563 208.431 34.9401 208.913 34.0966C209.201 33.6558 209.569 33.2658 209.834 32.8137C209.979 32.5925 210.074 32.3426 210.113 32.0812C210.152 31.8197 210.134 31.5529 210.06 31.2991C210.016 31.1901 209.962 31.0859 209.896 30.9883C209.598 30.5144 209.179 30.1282 208.683 29.869C208.186 29.6099 207.63 29.4871 207.071 29.5132C205.262 29.6037 202.21 29.6263 201.645 28.852C201.227 28.3571 200.919 27.7793 200.741 27.1566L199.967 27.603Z" fill="#263238"/>
<path d="M208.998 26.4676C208.287 25.9475 207.48 25.5734 206.624 25.3668C205.767 25.1602 204.878 25.1252 204.008 25.2638C203.544 25.3287 203.098 25.4868 202.697 25.7287C202.296 25.9705 201.948 26.2911 201.674 26.6711C201.414 27.0598 201.299 27.5279 201.35 27.9931C201.4 28.4582 201.613 28.8906 201.951 29.2142L201.996 29.2651C203.127 30.0563 203.969 30.1298 205.331 30.0733C206.461 30.0224 207.591 29.6607 208.722 29.6211C209.951 29.5775 211.165 29.9022 212.209 30.5536C211.515 28.934 210.408 27.525 208.998 26.4676Z" fill="#263238"/>
<path d="M213.604 31.0784C213.57 31.0784 213.423 30.7393 213.038 30.2646C212.824 29.9897 212.579 29.7395 212.309 29.5186C211.981 29.2463 211.594 29.0529 211.179 28.9534C210.422 28.8088 209.639 28.8773 208.918 29.1512C208.353 29.366 208.059 29.5977 208.037 29.5694C208.014 29.5412 208.099 29.4903 208.235 29.3886C208.428 29.2416 208.639 29.1183 208.862 29.0212C209.609 28.6891 210.44 28.5963 211.241 28.7556C211.683 28.8638 212.092 29.0771 212.434 29.3773C212.711 29.6094 212.955 29.8796 213.157 30.1798C213.368 30.4443 213.52 30.7506 213.604 31.0784Z" fill="#455A64"/>
<path d="M213.571 32.1748C213.454 32.4521 213.291 32.7081 213.09 32.9321C212.63 33.4958 212.075 33.9757 211.451 34.3506C210.826 34.7237 210.142 34.9875 209.428 35.1305C209.137 35.2056 208.834 35.2267 208.535 35.1927C209.526 35.0084 210.48 34.6649 211.361 34.1754C212.198 33.629 212.944 32.9538 213.571 32.1748Z" fill="#455A64"/>
<path d="M214.6 33.0119C214.588 33.1272 214.557 33.2398 214.509 33.3454C214.396 33.6401 214.26 33.9254 214.103 34.1987C213.571 35.0997 212.828 35.8581 211.938 36.4085C211.046 36.9552 210.032 37.2718 208.988 37.3297C208.674 37.3578 208.358 37.3578 208.044 37.3297C207.928 37.3241 207.814 37.3012 207.705 37.2618C207.705 37.2223 208.197 37.2618 208.977 37.211C209.989 37.1135 210.965 36.7864 211.832 36.2546C212.699 35.7229 213.433 35.0004 213.978 34.1422C214.385 33.464 214.566 33.0006 214.6 33.0119Z" fill="#455A64"/>
<path d="M205.766 25.1622C205.481 25.1949 205.194 25.2119 204.907 25.2131C203.532 25.3138 202.224 25.8436 201.166 26.7277C200.764 27.0611 200.544 27.2928 200.521 27.2928C200.668 27.038 200.859 26.8121 201.087 26.6259C202.126 25.6529 203.489 25.101 204.913 25.0774C205.2 25.0575 205.488 25.0862 205.766 25.1622Z" fill="#455A64"/>
<path d="M216.844 29.0449C216.563 29.6107 216.133 30.0889 215.6 30.4276C215.067 30.7664 214.452 30.9527 213.82 30.9664C214.409 30.7889 214.977 30.5502 215.516 30.2543C215.999 29.8977 216.444 29.4924 216.844 29.0449Z" fill="#455A64"/>
<path d="M216.763 58.7715C215.548 56.1887 206.59 52.0631 206.59 52.0631C205.746 53.517 204.575 54.7552 203.171 55.6801C200.911 57.0873 198.237 56.5843 196.22 55.0641C194.315 53.6229 194.971 50.8085 194.971 50.8085C194.971 50.8085 185.12 50.3112 182.283 51.8597C179.446 53.4082 177.864 57.9463 177.864 57.9463L174.32 65.9828L178.045 71.4308L179.678 73.0132C179.678 73.0132 183.99 77.4044 191.947 78.7778C199.373 80.0606 205.816 76.9015 205.816 76.9015C209.772 75.5734 213.225 72.3803 216.401 67.9834C216.413 68.0004 218.176 61.8007 216.763 58.7715Z" fill="#455A64"/>
<path d="M177.905 53.2611C177.905 53.2611 180.222 50.3563 180.403 49.192L181.318 42.9754C181.318 42.9754 180.979 42.2746 180.098 43.0715C179.216 43.8683 179.425 45.3999 179.425 45.3999L178.685 46.711L178.261 45.4395L178.589 41.2008C178.589 41.2008 178.894 38.1547 178.357 38.3242C177.82 38.4938 177.453 39.3019 177.317 40.6187C177.182 41.9355 177.023 43.5971 177.023 43.5971C177.023 43.5971 176.939 44.1113 176.713 43.1449C176.486 42.1785 176.978 38.5446 176.933 38.0247C176.888 37.5047 177.176 36.2332 176.447 36.0975C175.718 35.9619 175.673 37.6686 175.673 37.6686L174.876 43.0263C174.876 43.0263 174.802 40.7657 174.78 40.3701C174.757 39.9745 174.881 38.7876 174.819 38.1095C174.757 37.4313 174.486 36.9792 174.158 36.9452C174.005 36.9104 173.845 36.9355 173.711 37.0155C173.576 37.0954 173.477 37.224 173.435 37.3748L173.226 42.0938C173.226 42.0938 173.226 44.2752 173.158 44.3883C173.09 44.5013 172.593 43.3258 172.593 43.3258L172.434 41.7321C172.434 41.7321 172.547 39.5675 172.016 39.3528C171.485 39.138 171.349 39.5449 171.349 39.5449L171.18 43.501L171.621 48.1748L172.683 52.8768L174.412 53.2159L177.905 53.2611Z" fill="#F9C0AB"/>
<path d="M173.693 49.7296C173.97 49.4585 174.227 49.1676 174.462 48.8593C175.021 48.1435 175.827 47.6619 176.723 47.5086C177.158 47.4501 177.601 47.5418 177.977 47.7686L178.102 47.8477L178.181 47.7064C178.52 47.0847 178.904 46.5365 179.119 46.1409C179.334 45.7453 179.458 45.4967 179.424 45.4854C179.254 45.6557 179.104 45.8453 178.978 46.0505C178.601 46.5485 178.25 47.0653 177.926 47.599L178.13 47.5368C177.703 47.2656 177.196 47.1517 176.694 47.2147C176.154 47.2751 175.64 47.4823 175.208 47.8138C174.866 48.076 174.56 48.3819 174.298 48.7237C174.038 49.0204 173.834 49.361 173.693 49.7296Z" fill="#896357"/>
<path d="M194.797 50.8144L196.221 48.582L199.923 53.4423L199.516 55.6294L200.397 53.5271L207.089 49.6276L206.806 52.4194L203.777 56.3415L199.776 58.0031L196.826 56.901C196.826 56.901 194.525 56.0646 194.565 55.8781C194.605 55.6916 194.797 50.8144 194.797 50.8144Z" fill="#455A64"/>
<path d="M198.039 55.7428L198.378 57.6021L199.746 57.9582L200.984 56.5848L200.673 54.9629L199.051 54.5107L198.039 55.7428Z" fill="#71389A"/>
<path d="M199.921 53.4429C199.769 53.7499 199.579 54.0366 199.356 54.2963C198.966 54.8106 198.406 55.5283 197.751 56.3421L197.609 56.5173L197.513 56.3139C197.344 55.9522 197.163 55.5679 196.948 55.1836C196.383 53.9628 195.869 52.8495 195.518 52.0357C195.304 51.6069 195.132 51.1583 195.004 50.6963C195.291 51.0811 195.536 51.4961 195.733 51.934C196.134 52.7252 196.671 53.8272 197.242 55.0479L197.779 56.1782L197.536 56.15C198.208 55.3475 198.796 54.6523 199.231 54.172C199.431 53.9023 199.663 53.6576 199.921 53.4429Z" fill="#263238"/>
<path d="M206.958 51.9219C206.598 52.3344 206.201 52.7128 205.771 53.0522C205.014 53.736 203.951 54.6685 202.77 55.6801L201.143 57.076L200.962 57.2286L200.922 56.9969C200.741 55.9796 200.594 55.115 200.498 54.499C200.429 54.1777 200.395 53.8499 200.397 53.5213C200.526 53.825 200.615 54.1441 200.662 54.4707C200.803 55.0754 200.984 55.9344 201.188 56.9461L200.967 56.8669L202.578 55.471C203.759 54.4594 204.839 53.5552 205.635 52.9109C206.047 52.5436 206.489 52.2127 206.958 51.9219Z" fill="#263238"/>
<path d="M221.329 69.0858L222.053 65.1015C221.202 63.7545 220.182 62.5219 219.018 61.4337C217.804 60.1761 216.193 59.3773 214.457 59.1731C212.197 58.9922 210.066 60.179 208.201 61.4732C206.336 62.7674 204.505 64.2424 202.306 64.785C201.473 65.0447 200.575 64.9966 199.775 64.6493C198.605 64.0503 198.136 62.5526 198.333 61.2584C198.625 59.9713 199.182 58.7589 199.967 57.698L198.486 57.2402C197.575 58.5013 196.784 59.8446 196.124 61.2528C195.589 62.5012 195.474 63.8894 195.796 65.2088C196.117 66.1702 196.692 67.0274 197.458 67.6906C198.225 68.3538 199.156 68.7986 200.153 68.9784C202.165 69.3134 204.23 68.9399 205.997 67.9216C207.608 67.0625 209.066 65.8249 210.846 65.3953C212.074 65.1386 213.35 65.2591 214.508 65.7413C215.666 66.2234 216.651 67.0445 217.334 68.0968L221.329 69.0858Z" fill="#71389A"/>
<path d="M179.276 72.901C179.197 72.901 179.841 69.4649 180.678 65.2602C181.514 61.0554 182.294 57.6589 182.373 57.6758C182.452 57.6928 181.808 61.112 180.966 65.3167C180.124 69.5214 179.344 72.9405 179.276 72.901Z" fill="#263238"/>
<path d="M171.506 52.7471L179.13 53.3122L178.779 70.894L178.683 72.1035C178.683 72.1035 172.404 65.2256 171.901 59.6702C171.794 58.489 171.54 57.5508 171.478 56.7201C171.28 53.6231 171.506 52.7471 171.506 52.7471Z" fill="#455A64"/>
<path d="M178.661 70.6398C178.631 70.4128 178.631 70.183 178.661 69.9559C178.661 69.4586 178.689 68.8256 178.706 68.1023C178.745 66.5368 178.757 64.3666 178.779 61.976C178.802 59.5855 178.841 57.4096 178.926 55.8385C178.966 55.0586 179.005 54.42 179.05 53.9848C179.054 53.7556 179.086 53.5278 179.147 53.3066C179.168 53.5341 179.168 53.763 179.147 53.9905C179.147 54.4878 179.147 55.1208 179.147 55.8498C179.147 57.4831 179.107 59.6137 179.084 61.976C179.062 64.3384 179.017 66.5424 178.926 68.1079C178.881 68.8935 178.836 69.5264 178.785 69.9673C178.766 70.195 178.724 70.4203 178.661 70.6398Z" fill="#263238"/>
<path d="M171.838 50.2949C171.847 50.353 171.847 50.4121 171.838 50.4701C171.838 50.6001 171.804 50.7697 171.782 50.9788C171.737 51.4252 171.635 52.1091 171.561 52.9342C171.303 57.0099 172.054 61.0864 173.748 64.8023C175.43 68.4649 177.995 71.6519 181.214 74.0764C183.03 75.4262 185.023 76.5196 187.137 77.326C189.245 78.1469 191.461 78.657 193.715 78.8406C195.813 79.0372 197.927 78.9459 200 78.5694C201.88 78.2454 203.713 77.6931 205.459 76.9248C206.252 76.5877 207.027 76.2104 207.782 75.7945C208.5 75.3819 209.172 74.9411 209.805 74.5229C210.438 74.1047 211.009 73.6469 211.5 73.1891C211.992 72.7314 212.512 72.3188 212.93 71.8836L214.1 70.6573L214.993 69.5552L215.372 69.0862L215.677 68.651L216.146 67.9672L216.446 67.5489C216.477 67.4985 216.513 67.4512 216.553 67.4077C216.553 67.4077 216.553 67.4642 216.468 67.5659L216.197 67.9954L215.745 68.7019L215.456 69.1483C215.338 69.2953 215.213 69.4592 215.083 69.6287L214.202 70.759L213.072 72.0023C212.653 72.4488 212.145 72.8614 211.642 73.3361C211.139 73.8108 210.511 74.2177 209.946 74.6981C209.381 75.1785 208.641 75.5741 207.917 75.9979C207.16 76.4316 206.379 76.8222 205.578 77.1678C199.705 79.7613 193.045 79.9259 187.052 77.6256C184.904 76.8045 182.881 75.69 181.039 74.3138C177.786 71.8577 175.201 68.6242 173.522 64.9097C171.831 61.1507 171.112 57.0268 171.431 52.9172C171.522 52.0695 171.646 51.4139 171.708 50.9675L171.787 50.4588C171.799 50.4026 171.816 50.3477 171.838 50.2949Z" fill="#263238"/>
<path d="M219.262 61.1164C219.284 60.8242 219.333 60.5347 219.409 60.2517C219.533 59.6866 219.669 58.8897 219.793 57.895C220.104 55.2866 220.005 52.6455 219.499 50.0677C219.212 48.6533 218.811 47.2642 218.301 45.9139C217.868 44.8162 217.364 43.7477 216.792 42.7151C216.56 42.2686 216.312 41.8843 216.103 41.5452C215.893 41.2062 215.707 40.9123 215.537 40.6806C215.363 40.4439 215.206 40.1946 215.068 39.9346C215.277 40.1432 215.466 40.3702 215.634 40.6128C215.848 40.8826 216.048 41.1637 216.233 41.4548C216.459 41.7883 216.719 42.1669 216.967 42.5851C217.571 43.611 218.098 44.6802 218.544 45.7839C219.078 47.1454 219.494 48.5502 219.787 49.9829C220.299 52.59 220.37 55.2645 219.996 57.895C219.885 58.6879 219.725 59.4731 219.516 60.2461C219.457 60.5432 219.372 60.8344 219.262 61.1164Z" fill="#263238"/>
<path d="M195.299 30.4121C195.03 30.4726 194.755 30.5048 194.48 30.5082C194.214 30.5082 193.915 30.5534 193.519 30.6043C193.123 30.6551 192.716 30.689 192.253 30.7795C191.159 30.9551 190.077 31.2005 189.015 31.5142C187.717 31.9083 186.452 32.3995 185.228 32.9835C184.013 33.5829 182.844 34.2705 181.73 35.0407C180.826 35.6804 179.963 36.3769 179.147 37.1261C178.785 37.4369 178.492 37.7478 178.22 38.0077C177.949 38.2677 177.729 38.5107 177.553 38.7029C177.382 38.9077 177.193 39.0969 176.988 39.268C177.135 39.0321 177.303 38.8107 177.491 38.6068C177.655 38.3977 177.864 38.149 178.124 37.8721C178.384 37.5952 178.689 37.273 179.023 36.9509C179.829 36.1749 180.689 35.4555 181.594 34.7977C183.819 33.1934 186.305 31.9869 188.941 31.2316C190.018 30.9272 191.115 30.7005 192.225 30.5534C192.699 30.4743 193.129 30.4573 193.508 30.4178C193.886 30.3782 194.208 30.3726 194.48 30.3726C194.753 30.3642 195.027 30.3774 195.299 30.4121Z" fill="#263238"/>
<path d="M192.406 79.0315C192.327 79.0315 193.152 76.1662 194.242 72.6848C195.333 69.2035 196.283 66.4004 196.362 66.423C196.441 66.4456 195.616 69.2883 194.525 72.7696C193.434 76.2509 192.479 79.0541 192.406 79.0315Z" fill="#263238"/>
<path d="M216.961 24.998C216.961 24.998 216.961 25.0546 216.961 25.1619C216.921 25.3202 216.852 25.4697 216.758 25.6028C216.585 25.8552 216.351 26.0587 216.076 26.1934C215.802 26.3281 215.497 26.3894 215.192 26.3714C214.775 26.316 214.382 26.1413 214.062 25.8684C213.736 25.5767 213.327 25.3948 212.892 25.3484C212.413 25.3462 211.947 25.5055 211.569 25.8006C211.154 26.1366 210.775 26.5154 210.439 26.9309C209.741 27.7412 208.919 28.4355 208.003 28.988C207.245 29.4336 206.398 29.7075 205.522 29.7905C204.934 29.8422 204.341 29.7789 203.776 29.604C203.573 29.5477 203.382 29.4559 203.211 29.3327C203.955 29.5715 204.739 29.6561 205.517 29.5814C206.356 29.4763 207.164 29.193 207.885 28.7506C208.766 28.201 209.559 27.5207 210.236 26.7331C210.59 26.3149 210.988 25.936 211.423 25.6028C211.855 25.2726 212.387 25.0993 212.932 25.1111C213.414 25.1682 213.867 25.3758 214.226 25.7045C214.51 25.9604 214.861 26.1309 215.237 26.1962C215.508 26.2062 215.776 26.1514 216.021 26.0364C216.266 25.9213 216.48 25.7494 216.645 25.5349C216.768 25.3672 216.874 25.1873 216.961 24.998Z" fill="#263238"/>
<path d="M216.905 29.1289C216.905 29.1289 217.041 29.1289 217.267 29.1911C217.595 29.2798 217.908 29.419 218.194 29.6036C218.419 29.745 218.604 29.9408 218.734 30.1729C218.863 30.405 218.932 30.666 218.934 30.9317C218.888 31.2501 218.773 31.5546 218.598 31.824C218.422 32.0934 218.189 32.3213 217.917 32.4915C217.398 32.8506 216.784 33.0473 216.153 33.0567C215.64 33.0574 215.135 32.9292 214.684 32.6837C214.386 32.5215 214.12 32.3071 213.898 32.0507C213.746 31.8642 213.689 31.7456 213.701 31.7342C214.029 32.0299 214.392 32.286 214.78 32.4972C215.207 32.6982 215.676 32.7969 216.148 32.7854C216.722 32.7534 217.275 32.5572 217.741 32.2203C217.979 32.0726 218.184 31.8774 218.342 31.6469C218.501 31.4164 218.61 31.1556 218.663 30.8809C218.662 30.6586 218.608 30.4397 218.505 30.2429C218.401 30.0461 218.252 29.8772 218.069 29.7506C217.807 29.5617 217.525 29.4024 217.227 29.2758C217.018 29.208 216.899 29.1459 216.905 29.1289Z" fill="#263238"/>
<path d="M198.425 137.424C198.425 137.503 186.489 133.903 171.824 129.393C157.158 124.883 145.262 121.159 145.307 121.079C145.352 121 157.243 124.6 171.914 129.11C186.585 133.62 198.448 137.327 198.425 137.424Z" fill="#263238"/>
<path d="M197.431 139.735C197.431 139.814 185.495 136.22 170.829 131.71C156.163 127.2 144.307 123.476 144.307 123.397C144.307 123.318 156.237 126.912 170.908 131.428C185.58 135.943 197.465 139.662 197.431 139.735Z" fill="#263238"/>
<path d="M196.689 142.272C196.689 142.346 184.753 138.751 170.087 134.241C155.422 129.732 143.525 126.007 143.57 125.928C143.616 125.849 155.501 129.443 170.172 133.959C184.843 138.474 196.711 142.193 196.689 142.272Z" fill="#263238"/>
<path d="M195.939 144.804C195.939 144.884 184.003 141.284 169.337 136.774C154.672 132.264 142.775 128.539 142.82 128.46C142.866 128.381 154.756 131.981 169.428 136.491C184.099 141.001 195.961 144.725 195.939 144.804Z" fill="#263238"/>
<path d="M195.169 147.337C195.141 147.416 183.233 143.821 168.568 139.306C153.902 134.79 142.006 131.072 142.051 130.998C142.096 130.925 154.004 134.502 168.675 139.023C183.346 143.545 195.215 147.258 195.169 147.337Z" fill="#263238"/>
<path d="M183.761 92.6807C183.758 92.8106 183.739 92.9398 183.704 93.065C183.67 93.3249 183.557 93.681 183.433 94.1557C183.179 95.0939 182.783 96.4163 182.274 98.1118C181.257 101.44 179.799 106.024 178.166 111.054C176.532 116.084 175.012 120.661 173.904 123.95C173.339 125.572 172.904 126.895 172.576 127.844C172.424 128.279 172.294 128.63 172.198 128.901C172.162 129.027 172.112 129.148 172.051 129.263C172.067 129.132 172.098 129.003 172.141 128.878L172.469 127.81C172.769 126.85 173.192 125.516 173.707 123.888L177.883 110.963C179.516 105.939 180.991 101.356 182.071 98.0496C182.596 96.422 183.02 95.0882 183.326 94.1331C183.461 93.6697 183.591 93.308 183.648 93.065C183.678 92.9348 183.716 92.8065 183.761 92.6807Z" fill="#E0E0E0"/>
<path d="M199.921 57.7989C199.921 57.878 199.537 57.861 199.102 57.7593C198.666 57.6576 198.327 57.5106 198.344 57.4315C198.361 57.3524 198.729 57.3694 199.169 57.4711C199.61 57.5728 199.938 57.7197 199.921 57.7989Z" fill="#263238"/>
<path d="M210.456 101.017C210.428 101.09 198.52 97.4282 183.855 92.8336C169.189 88.2389 157.293 84.4524 157.338 84.3563C157.383 84.2603 169.268 87.9394 183.94 92.534C198.611 97.1287 210.479 100.938 210.456 101.017Z" fill="#EBEBEB"/>
<path d="M179.909 120.029C180.028 119.948 180.167 119.903 180.31 119.899C180.706 119.859 181.104 119.952 181.441 120.164C181.699 120.316 181.912 120.533 182.059 120.795C182.206 121.056 182.281 121.351 182.277 121.651C182.283 122.023 182.173 122.389 181.964 122.697C181.754 123.005 181.454 123.241 181.105 123.372C180.756 123.503 180.375 123.523 180.014 123.429C179.654 123.336 179.331 123.133 179.089 122.849C178.884 122.624 178.743 122.347 178.682 122.049C178.62 121.751 178.64 121.441 178.739 121.153C178.851 120.775 179.088 120.446 179.412 120.221C179.522 120.126 179.658 120.067 179.802 120.051C179.802 120.051 179.672 120.136 179.485 120.311C179.209 120.546 179.012 120.86 178.92 121.21C178.85 121.458 178.846 121.72 178.907 121.971C178.969 122.221 179.094 122.452 179.27 122.64C179.477 122.878 179.752 123.048 180.058 123.126C180.364 123.204 180.687 123.186 180.983 123.075C181.279 122.965 181.534 122.766 181.713 122.506C181.893 122.247 181.989 121.938 181.989 121.622C181.998 121.365 181.941 121.109 181.822 120.88C181.703 120.651 181.527 120.457 181.311 120.317C181.017 120.112 180.668 120 180.31 119.995C180.039 120.012 179.909 120.057 179.909 120.029Z" fill="#E0E0E0"/>
<path d="M184.956 104.887C185.074 104.806 185.213 104.761 185.357 104.758C185.753 104.719 186.15 104.812 186.487 105.023C186.744 105.176 186.957 105.393 187.103 105.654C187.249 105.915 187.323 106.21 187.318 106.509C187.324 106.882 187.214 107.248 187.005 107.556C186.795 107.864 186.495 108.099 186.146 108.231C185.797 108.362 185.416 108.382 185.055 108.288C184.695 108.195 184.372 107.992 184.13 107.708C183.925 107.483 183.784 107.206 183.723 106.908C183.661 106.61 183.681 106.3 183.78 106.012C183.896 105.651 184.124 105.337 184.43 105.114C184.541 105.022 184.677 104.965 184.82 104.95C184.82 104.95 184.696 105.034 184.503 105.204C184.229 105.442 184.032 105.757 183.938 106.108C183.866 106.356 183.86 106.618 183.921 106.869C183.981 107.12 184.106 107.35 184.283 107.538C184.499 107.758 184.772 107.915 185.07 107.991C185.369 108.068 185.683 108.062 185.979 107.973C186.267 107.851 186.516 107.649 186.694 107.391C186.872 107.132 186.973 106.829 186.984 106.515C186.995 106.259 186.939 106.004 186.821 105.776C186.703 105.548 186.527 105.355 186.312 105.215C186.015 105.012 185.666 104.898 185.306 104.887C185.108 104.871 184.961 104.916 184.956 104.887Z" fill="#E0E0E0"/>
<path d="M176.907 80.4339C177.026 80.3537 177.165 80.3087 177.308 80.3039C177.704 80.2641 178.102 80.3576 178.439 80.5695C178.697 80.7213 178.91 80.9388 179.057 81.1999C179.204 81.4609 179.279 81.7563 179.275 82.0559C179.281 82.4285 179.171 82.7939 178.962 83.102C178.752 83.4101 178.452 83.6459 178.103 83.777C177.754 83.9082 177.373 83.9283 177.012 83.8347C176.652 83.741 176.329 83.5382 176.088 83.254C175.882 83.0289 175.741 82.7527 175.68 82.4543C175.618 82.156 175.638 81.8465 175.737 81.5585C175.849 81.1805 176.086 80.8517 176.41 80.626C176.52 80.5317 176.656 80.4727 176.8 80.4565C176.8 80.4565 176.675 80.5413 176.483 80.7108C176.209 80.9493 176.012 81.2641 175.918 81.615C175.848 81.8634 175.844 82.1255 175.905 82.376C175.967 82.6265 176.092 82.8569 176.268 83.0449C176.475 83.2835 176.75 83.4531 177.056 83.531C177.363 83.6089 177.685 83.5913 177.981 83.4806C178.277 83.3699 178.532 83.1714 178.711 82.9117C178.891 82.6519 178.987 82.3435 178.987 82.0276C178.996 81.7699 178.939 81.5143 178.82 81.2855C178.701 81.0567 178.525 80.8626 178.309 80.7221C178.015 80.5175 177.666 80.4053 177.308 80.4C177.082 80.4169 176.913 80.4621 176.907 80.4339Z" fill="#E0E0E0"/>
<path d="M176.028 69.0909C176.101 69.0909 174.79 73.4369 173.1 78.7437C171.41 84.0504 169.969 88.3512 169.89 88.3117C169.811 88.2721 171.122 83.9656 172.818 78.6532C174.513 73.3408 175.954 69.0683 176.028 69.0909Z" fill="#EBEBEB"/>
<g opacity="0.3">
<path d="M146.243 118.113C146.243 118.113 153.946 95.411 156.896 84.2041C153.002 88.8609 148.611 94.2073 146.322 99.8248C144.019 105.698 143.991 112.22 146.243 118.113Z" fill="black"/>
</g>
<path d="M154.676 178.442C153.944 178.609 153.307 179.056 152.901 179.688C152.496 180.32 152.354 181.085 152.508 181.82C152.661 182.555 153.096 183.201 153.721 183.618C154.345 184.035 155.108 184.19 155.845 184.051C156.583 183.911 157.236 183.488 157.665 182.871C158.094 182.255 158.263 181.495 158.137 180.755C158.012 180.015 157.6 179.354 156.992 178.914C156.384 178.474 155.627 178.29 154.885 178.402" fill="#71389A"/>
<path d="M65.043 152.896L56.4131 152.929L56.6191 209.143L41.917 209.196L41.7109 152.983L32.7676 153.018L48.9902 132.605L65.043 152.896Z" fill="url(#paint0_linear_236_16953)"/>
<path d="M83.0693 138.775L78.252 138.793L78.3682 170.184L70.1572 170.214L70.041 138.823L65.043 138.842L74.1064 127.443L83.0693 138.775Z" fill="url(#paint1_linear_236_16953)"/>
<path d="M18.3382 191.354C18.3382 195.435 15.3463 198.988 8.78057 198.988C5.5933 198.988 2.23566 198.099 0 196.519L2.10268 192.439C4.01048 193.808 6.30374 194.535 8.65175 194.516C11.3154 194.516 12.961 193.399 12.961 191.524C12.961 189.713 11.7767 188.528 7.59625 188.528H1.67882L2.86314 175.567H16.9129V179.843H7.30537L6.94384 184.219H8.81797C15.6288 184.215 18.3382 187.273 18.3382 191.354Z" fill="#263238"/>
<path d="M20.498 187.077C20.498 179.476 24.7117 175.167 30.3674 175.167C36.023 175.167 40.2367 179.476 40.2367 187.077C40.2367 194.677 36.0604 198.986 30.3674 198.986C24.6743 198.986 20.498 194.677 20.498 187.077ZM34.8761 187.077C34.8761 181.845 33.031 179.676 30.3674 179.676C27.7037 179.676 25.896 181.845 25.896 187.077C25.896 192.308 27.7369 194.478 30.3674 194.478C32.9978 194.478 34.8761 192.308 34.8761 187.077Z" fill="#263238"/>
<path d="M43.8711 182.083C43.8711 180.42 44.8892 179.353 46.3353 179.353C47.7814 179.353 48.7829 180.4 48.7829 182.083C48.7829 183.766 47.7773 184.817 46.3353 184.817C44.8933 184.817 43.8711 183.753 43.8711 182.083ZM47.37 182.083C47.37 181.023 46.9545 180.512 46.3353 180.512C45.7161 180.512 45.3006 181.036 45.3006 182.083C45.3006 183.13 45.7161 183.653 46.3353 183.653C46.9545 183.653 47.37 183.167 47.37 182.083ZM52.2403 179.465H53.9025L47.1332 189.376H45.4502L52.2403 179.465ZM50.6113 186.758C50.6113 185.095 51.6294 184.023 53.0589 184.023C54.4884 184.023 55.5231 185.087 55.5231 186.758C55.5231 188.428 54.505 189.488 53.0589 189.488C51.6128 189.488 50.6113 188.428 50.6113 186.758ZM54.0936 186.758C54.0936 185.71 53.6781 185.183 53.0589 185.183C52.4397 185.183 52.0283 185.694 52.0283 186.758C52.0283 187.821 52.4439 188.328 53.0589 188.328C53.6739 188.328 54.077 187.805 54.077 186.758H54.0936Z" fill="#263238"/>
<defs>
<linearGradient id="paint0_linear_236_16953" x1="39.1074" y1="142.179" x2="79.2624" y2="164.741" gradientUnits="userSpaceOnUse">
<stop stop-color="#71389A"/>
<stop offset="1" stop-color="#CB84FF"/>
</linearGradient>
<linearGradient id="paint1_linear_236_16953" x1="68.5839" y1="132.79" x2="91.0094" y2="145.392" gradientUnits="userSpaceOnUse">
<stop stop-color="#71389A"/>
<stop offset="1" stop-color="#CB84FF"/>
</linearGradient>
</defs>
</svg>
