<svg width="400" height="298" viewBox="0 0 400 298" fill="none" xmlns="http://www.w3.org/2000/svg">
<path d="M359.393 274.39H332.936V274.589H359.393V274.39Z" fill="#EBEBEB"/>
<path d="M264.586 276.562H257.645V276.761H264.586V276.562Z" fill="#EBEBEB"/>
<path d="M332.134 266.977H316.805V267.176H332.134V266.977Z" fill="#EBEBEB"/>
<path d="M76.4057 268.318H41.9043V268.518H76.4057V268.318Z" fill="#EBEBEB"/>
<path d="M88.5839 268.318H83.5273V268.518H88.5839V268.318Z" fill="#EBEBEB"/>
<path d="M179.854 271.689H105.02V271.889H179.854V271.689Z" fill="#EBEBEB"/>
<path d="M189.32 225.909H35.0748C33.8665 225.906 32.7083 225.425 31.8546 224.57C31.001 223.715 30.5215 222.556 30.5215 221.347V4.52137C30.532 3.31995 31.0161 2.1712 31.8687 1.32463C32.7212 0.478065 33.8733 0.00205809 35.0748 0H189.32C190.53 0 191.69 0.480565 192.546 1.33598C193.401 2.19139 193.882 3.35157 193.882 4.56131V221.347C193.882 222.557 193.401 223.717 192.546 224.573C191.69 225.428 190.53 225.909 189.32 225.909ZM35.0748 0.159766C33.9194 0.161882 32.8121 0.622339 31.9958 1.44007C31.1796 2.2578 30.7212 3.36598 30.7212 4.52137V221.347C30.7212 222.503 31.1796 223.611 31.9958 224.429C32.8121 225.246 33.9194 225.707 35.0748 225.709H189.32C190.477 225.707 191.585 225.247 192.402 224.429C193.22 223.612 193.68 222.503 193.682 221.347V4.52137C193.68 3.36525 193.22 2.25708 192.402 1.43958C191.585 0.62208 190.477 0.161878 189.32 0.159766H35.0748Z" fill="#EBEBEB"/>
<path d="M362.116 225.909H207.862C206.653 225.906 205.494 225.425 204.639 224.57C203.784 223.715 203.303 222.556 203.301 221.347V4.52137C203.313 3.31922 203.799 2.17048 204.653 1.32413C205.507 0.477786 206.66 0.00203565 207.862 0H362.116C363.316 0.0041575 364.466 0.481093 365.317 1.32743C366.168 2.17378 366.651 3.32133 366.661 4.52137V221.347C366.661 222.554 366.183 223.712 365.331 224.567C364.479 225.422 363.323 225.904 362.116 225.909ZM207.862 0.159766C206.706 0.161878 205.598 0.62208 204.78 1.43958C203.963 2.25708 203.503 3.36525 203.5 4.52137V221.347C203.503 222.503 203.963 223.612 204.78 224.429C205.598 225.247 206.706 225.707 207.862 225.709H362.116C363.272 225.707 364.38 225.247 365.198 224.429C366.015 223.612 366.475 222.503 366.477 221.347V4.52137C366.475 3.36525 366.015 2.25708 365.198 1.43958C364.38 0.62208 363.272 0.161878 362.116 0.159766H207.862Z" fill="#EBEBEB"/>
<path d="M399.414 261.536H0V261.736H399.414V261.536Z" fill="#EBEBEB"/>
<path d="M97.7432 207.959C98.542 208.95 99.3408 210.116 99.0852 211.354C98.9056 212.032 98.4766 212.617 97.884 212.991C97.2915 213.366 96.5792 213.503 95.8899 213.375C95.2088 213.223 94.5774 212.901 94.0549 212.439C93.5323 211.976 93.1358 211.389 92.9023 210.731C92.5907 209.932 92.4709 209.053 92.1594 208.247C91.2647 205.906 88.9641 204.476 86.7913 203.214C86.6555 205.61 88.0294 207.911 89.659 209.716C91.2887 211.522 93.2218 213.064 94.6278 215.045C96.0337 217.026 96.8405 219.678 95.8739 221.907C95.8079 222.096 95.692 222.264 95.5384 222.394C95.2977 222.536 95.0113 222.579 94.7396 222.514C92.1993 222.17 90.4659 219.782 89.3475 217.473C88.2291 215.164 87.3105 212.592 85.2495 211.082C86.1602 214.142 88.6046 216.491 89.9067 219.398C90.7197 221.283 91.0379 223.345 90.831 225.387C90.6241 227.43 89.899 229.385 88.7244 231.069C88.6406 231.22 88.5263 231.352 88.3888 231.457C88.2513 231.561 88.0935 231.636 87.9256 231.676C87.4303 231.724 87.0708 231.221 86.8631 230.774C84.7862 226.236 86.312 220.117 82.7172 216.666L81.0557 220.293C80.769 221.055 80.3223 221.747 79.7456 222.322C79.4527 222.604 79.0791 222.788 78.6768 222.848C78.2745 222.908 77.8635 222.842 77.5009 222.657C76.4305 221.97 76.7021 220.357 77.1734 219.167C78.3636 216.11 79.8316 213.168 81.5589 210.379C80.3527 209.812 79.1624 211.05 78.2518 212.057C77.3411 213.064 75.6875 213.942 74.8727 212.856C74.6306 212.497 74.5179 212.066 74.5532 211.634C74.5532 209.533 75.9991 207.703 77.5249 206.258C79.0506 204.812 80.8 203.51 81.8225 201.664C80.6759 202.015 79.4557 202.048 78.2917 201.76C77.1654 201.369 76.2547 200.083 76.6941 198.98C78.0516 197.438 79.5551 196.031 81.1835 194.778C83.0128 194.195 84.8022 195.889 86.1921 196.895C90.5217 200.048 94.407 203.769 97.7432 207.959Z" fill="#EBEBEB"/>
<path d="M87.6465 225.804C87.6465 225.197 87.6465 224.598 87.6465 223.998C87.4468 206.792 84.4032 200.369 83.6523 200.185L83.5645 199.387C83.6977 199.373 83.8323 199.389 83.9582 199.435C84.0841 199.481 84.198 199.554 84.2914 199.65C85.889 201.016 88.2855 208.629 88.4852 223.982C88.4852 224.582 88.4852 225.181 88.4852 225.788L87.6465 225.804Z" fill="#E0E0E0"/>
<path d="M87.6387 234.688C87.6387 234.177 87.6387 226.851 87.6387 224.095V223.017C87.6387 206.545 90.147 198.365 91.8245 196.887C91.9194 196.79 92.0342 196.715 92.1612 196.667C92.2881 196.618 92.424 196.598 92.5595 196.608L92.4556 197.407C91.6568 197.606 88.4615 204.508 88.4615 223.025V224.103C88.4615 226.859 88.4615 234.185 88.4615 234.68L87.6387 234.688Z" fill="#E0E0E0"/>
<path d="M98.9296 261.297H77.3532L75.2363 235.343H101.038L98.9296 261.297Z" fill="#F0F0F0"/>
<path d="M102.712 236.684H73.3475L72.8203 233.233H103.24L102.712 236.684Z" fill="#FAFAFA"/>
<path d="M59.2486 193.564C57.7548 193.524 56.0533 193.612 55.0707 194.706C54.5621 195.357 54.3153 196.174 54.3788 196.998C54.4424 197.821 54.8117 198.591 55.4142 199.156C56.0442 199.694 56.8005 200.063 57.6122 200.23C58.4239 200.396 59.2645 200.354 60.0554 200.106C61.0459 199.827 61.9566 199.308 62.9472 199.036C65.799 198.237 68.8026 199.387 71.5425 200.538C69.3378 202.399 66.2144 202.711 63.3386 202.455C60.4628 202.199 57.619 201.464 54.7352 201.552C51.8514 201.64 48.728 202.759 47.3381 205.299C47.2062 205.496 47.129 205.725 47.1144 205.962C47.1554 206.293 47.3211 206.596 47.5777 206.809C49.7186 208.973 53.2174 208.917 56.2051 208.326C59.1927 207.735 62.2921 206.777 65.2158 207.631C61.677 208.949 57.6989 208.302 54.0322 209.149C51.6658 209.724 49.4849 210.893 47.6958 212.545C45.9066 214.197 44.5683 216.278 43.8072 218.591C43.7244 218.777 43.6816 218.979 43.6816 219.182C43.6816 219.386 43.7244 219.587 43.8072 219.774C44.1108 220.285 44.8457 220.269 45.4049 220.141C51.1804 218.879 55.9015 213.063 61.7409 214.006L59.4882 218.176C58.9667 218.991 58.6287 219.909 58.4977 220.868C58.4308 221.352 58.5192 221.845 58.7504 222.276C58.9815 222.706 59.3433 223.053 59.7838 223.264C61.1977 223.792 62.5238 222.362 63.3226 221.084C65.3825 217.768 67.1339 214.27 68.5549 210.635C69.9609 211.37 69.6573 213.415 69.3538 214.965C69.0502 216.514 69.3538 218.735 70.9514 218.759C71.4654 218.732 71.9552 218.532 72.3414 218.192C74.3225 216.666 75.0414 214.022 75.321 211.538C75.6006 209.053 75.5846 206.465 76.6071 204.18C77.0917 205.521 77.9344 206.704 79.0435 207.599C80.2178 208.398 82.0791 208.334 82.806 207.112C83.3029 204.725 83.5704 202.297 83.6049 199.859C82.854 197.71 79.9702 197.215 78.0131 196.624C71.9266 194.754 65.6135 193.725 59.2486 193.564Z" fill="#F5F5F5"/>
<path d="M97.0437 221.276C97.7067 222.61 98.5695 224.048 100.007 224.423C100.822 224.569 101.662 224.404 102.36 223.96C103.058 223.516 103.564 222.826 103.778 222.027C103.958 221.219 103.929 220.378 103.694 219.584C103.46 218.79 103.026 218.069 102.436 217.489C101.733 216.746 100.838 216.179 100.135 215.436C98.0822 213.296 97.7387 210.092 97.4351 207.137C100.111 208.215 101.861 210.827 102.979 213.527C104.097 216.227 104.784 219.039 106.214 221.515C107.644 223.992 110.081 226.229 112.964 226.308C113.2 226.334 113.438 226.292 113.651 226.189C113.925 226 114.116 225.714 114.187 225.39C115.097 222.482 113.388 219.415 111.479 217.05C109.569 214.685 107.253 212.401 106.638 209.421C109.465 211.93 110.76 215.748 113.236 218.6C114.852 220.422 116.907 221.8 119.205 222.606C121.503 223.411 123.969 223.616 126.369 223.201C126.573 223.189 126.772 223.134 126.953 223.041C127.135 222.947 127.295 222.817 127.423 222.658C127.727 222.155 127.367 221.515 126.984 221.06C123.157 216.547 115.8 215.109 113.907 209.509H118.644C119.608 209.584 120.578 209.453 121.488 209.126C121.938 208.95 122.322 208.639 122.586 208.235C122.851 207.832 122.984 207.355 122.966 206.873C122.774 205.379 120.889 204.876 119.387 204.772C115.491 204.507 111.579 204.598 107.7 205.044C107.7 203.446 109.641 202.775 111.159 202.336C112.677 201.896 114.482 200.53 113.755 199.14C113.491 198.7 113.086 198.362 112.605 198.182C110.328 197.143 107.652 197.758 105.328 198.677C103.003 199.596 100.726 200.81 98.2339 200.986C99.1832 199.924 99.8313 198.628 100.111 197.231C100.255 195.825 99.3124 194.204 97.9144 194.14C95.5746 194.823 93.3061 195.729 91.1404 196.848C89.5986 198.525 90.5093 201.297 90.9007 203.294C92.1217 209.539 94.1884 215.589 97.0437 221.276Z" fill="#F0F0F0"/>
<path opacity="0.2" d="M215.516 25.858C215.516 26.1376 215.516 26.4092 215.516 26.6568V47.3305H187.109L185.6 45.9006L187.109 25.834C187.109 22.0671 188.606 18.4545 191.269 15.7909C193.933 13.1273 197.546 11.6309 201.313 11.6309C205.079 11.6309 208.692 13.1273 211.356 15.7909C214.019 18.4545 215.516 22.0671 215.516 25.834V25.858Z" fill="black"/>
<path d="M214.006 24.4287C214.006 24.7003 214.006 24.9799 214.006 25.2276V45.9012H185.6V24.4287C185.6 22.5636 185.967 20.7166 186.681 18.9934C187.395 17.2702 188.441 15.7045 189.76 14.3856C191.079 13.0667 192.644 12.0205 194.367 11.3067C196.091 10.593 197.938 10.2256 199.803 10.2256C201.668 10.2256 203.515 10.593 205.238 11.3067C206.961 12.0205 208.527 13.0667 209.846 14.3856C211.165 15.7045 212.211 17.2702 212.925 18.9934C213.639 20.7166 214.006 22.5636 214.006 24.4287Z" fill="#F0F0F0"/>
<path d="M210.125 26.354C211.006 20.928 207.321 15.8152 201.895 14.9344C196.469 14.0537 191.356 17.7384 190.476 23.1645C189.595 28.5906 193.28 33.7033 198.706 34.584C204.132 35.4648 209.244 31.7801 210.125 26.354Z" fill="#E0E0E0"/>
<path d="M199.139 34.525C204.636 34.525 209.092 30.0687 209.092 24.5716C209.092 19.0745 204.636 14.6182 199.139 14.6182C193.642 14.6182 189.186 19.0745 189.186 24.5716C189.186 30.0687 193.642 34.525 199.139 34.525Z" fill="white"/>
<path d="M199.801 25.2354C199.801 25.3933 199.754 25.5478 199.666 25.6792C199.578 25.8105 199.454 25.9129 199.308 25.9734C199.162 26.0338 199.001 26.0497 198.846 26.0188C198.691 25.988 198.549 25.9119 198.437 25.8002C198.325 25.6885 198.249 25.5462 198.218 25.3912C198.188 25.2362 198.203 25.0756 198.264 24.9297C198.324 24.7837 198.427 24.6589 198.558 24.5712C198.69 24.4834 198.844 24.4365 199.002 24.4365C199.214 24.4365 199.417 24.5207 199.567 24.6705C199.717 24.8203 199.801 25.0235 199.801 25.2354Z" fill="#E0E0E0"/>
<path d="M198.9 25.5381L195.465 22.3028L195.8 21.9434L198.916 24.8751L204.5 19.9463L204.819 20.3058L198.9 25.5381Z" fill="#E0E0E0"/>
<path d="M106.108 118.857C101.93 119.656 94.1252 120.159 85.1543 120.159C76.1835 120.159 68.379 119.64 64.2011 118.857C64.0123 119.291 63.741 119.685 63.4023 120.015C62.0363 121.373 59.3442 120.886 58.4735 120.015C57.6028 119.145 57.1155 116.453 58.4735 115.095C58.7691 114.799 59.2723 114.767 59.4561 114.416C60.8939 111.508 58.3297 105.948 58.3297 99.9408C58.3297 93.9336 60.8939 88.3898 59.4481 85.4741C58.8729 84.3078 57.459 83.7246 57.459 82.3347C57.459 80.9447 58.8729 80.3695 59.4481 79.2033C60.886 76.2875 58.3297 70.7277 58.3297 64.7285C58.3297 58.7293 60.8939 53.1695 59.4561 50.2537C59.2803 49.9102 58.7691 49.8703 58.4735 49.5827C57.1155 48.2247 57.6028 45.5327 58.4735 44.6619C59.3442 43.7912 62.0363 43.3039 63.4023 44.6619C63.7378 45.0054 63.7697 45.5966 64.2011 45.8202C67.9236 47.8652 76.1835 44.5102 85.1543 44.5102C94.1252 44.5102 102.385 47.8652 106.108 45.8202C106.507 45.5966 106.531 45.0214 106.906 44.6619C108.264 43.3039 110.964 43.7912 111.827 44.6619C112.69 45.5327 113.193 48.2247 111.827 49.5827C111.54 49.8703 111.028 49.9102 110.853 50.2537C109.415 53.1695 111.979 58.7293 111.979 64.7285C111.979 70.7277 109.415 76.2875 110.853 79.2033C111.436 80.3695 112.85 80.9447 112.85 82.3347C112.85 83.7246 111.436 84.3078 110.853 85.4741C109.415 88.3898 111.979 93.9496 111.979 99.9408C111.979 105.932 109.415 111.508 110.853 114.416C111.028 114.767 111.54 114.799 111.827 115.095C113.193 116.453 112.698 119.145 111.827 120.015C110.956 120.886 108.264 121.373 106.906 120.015C106.563 119.689 106.29 119.294 106.108 118.857Z" fill="#E0E0E0"/>
<path d="M107.696 117.269C103.518 118.068 95.7132 118.579 86.7424 118.579C77.7716 118.579 69.967 118.052 65.7812 117.269C65.5983 117.706 65.3262 118.101 64.9823 118.427C63.6243 119.785 60.9323 119.298 60.0616 118.427C59.1908 117.557 58.7036 114.864 60.0616 113.506C60.3491 113.219 60.8604 113.179 61.0361 112.835C62.474 109.92 59.9098 104.36 59.9098 98.3607C59.9098 92.3615 62.474 86.8016 61.0361 83.8859C60.461 82.7196 59.0391 82.1365 59.0391 80.7545C59.0391 79.3725 60.461 78.7814 61.0361 77.6151C62.506 74.6994 59.9098 69.1395 59.9098 63.1084C59.9098 57.0772 62.474 51.5493 61.0361 48.6336C60.8684 48.2901 60.3491 48.2582 60.0616 47.9626C58.7036 46.6046 59.1908 43.9125 60.0616 43.0418C60.9323 42.1711 63.6243 41.6838 64.9823 43.0418C65.3258 43.3853 65.3498 43.9844 65.7812 44.2001C69.5117 46.2451 77.7636 42.8901 86.7424 42.8901C95.7212 42.8901 103.965 46.2451 107.696 44.2001C108.095 43.9844 108.119 43.4013 108.495 43.0418C109.853 41.6838 112.545 42.1711 113.415 43.0418C114.286 43.9125 114.773 46.6046 113.415 47.9626C113.128 48.2582 112.616 48.2901 112.441 48.6336C111.003 51.5493 113.567 57.1092 113.567 63.1084C113.567 69.1076 111.003 74.6674 112.441 77.5831C113.016 78.7494 114.438 79.3326 114.438 80.7225C114.438 82.1125 113.016 82.6877 112.441 83.8539C111.003 86.7697 113.567 92.3295 113.567 98.3287C113.567 104.328 111.003 109.888 112.441 112.803C112.616 113.147 113.128 113.187 113.415 113.474C114.773 114.833 114.286 117.525 113.415 118.395C112.545 119.266 109.853 119.753 108.495 118.395C108.154 118.078 107.882 117.695 107.696 117.269Z" fill="#FAFAFA"/>
<path d="M65.7647 112.004H107.703L107.703 49.4956L65.7647 49.4956V112.004Z" fill="#EBEBEB"/>
<path d="M248.969 49.2238C248.969 49.2238 269.93 28.7578 298.36 28.7578C326.791 28.7578 345.092 49.2238 345.092 49.2238V212.185H248.969V49.2238Z" fill="#F5F5F5"/>
<path d="M342.695 50.0061C330.504 38.1862 314.19 31.5762 297.21 31.5762C280.229 31.5762 263.916 38.1862 251.725 50.0061V210.091H342.695V50.0061ZM339.851 207.231H254.552V51.2203C266.127 40.4242 281.366 34.4204 297.194 34.4204C313.022 34.4204 328.261 40.4242 339.835 51.2203L339.851 207.231Z" fill="#E0E0E0"/>
<path d="M347.648 215.045H246.732V47.9298L247.459 47.1948C260.651 34.0089 278.539 26.6016 297.19 26.6016C315.842 26.6016 333.73 34.0089 346.921 47.1948L347.648 47.9298V215.045ZM251.709 210.092H342.696V50.0067C330.504 38.1868 314.191 31.5768 297.21 31.5768C280.23 31.5768 263.916 38.1868 251.725 50.0067L251.709 210.092Z" fill="#EBEBEB"/>
<path d="M310.695 34.0771V47.0821H283.686V34.0771C282.009 34.4366 280.347 34.876 278.717 35.3393V47.0821H256.622C255.304 48.1525 254.01 49.2709 252.771 50.4611V52.0588H278.717V101.011H252.771V105.98H278.717V155.179H252.771V160.156H278.717V209.005H283.686V160.156H310.695V209.005H315.671V160.156H341.609V155.179H315.671V105.98H341.609V101.011H315.671V52.0588H341.609V50.4611C340.371 49.2709 339.085 48.1525 337.767 47.0821H315.671V35.3393C314.034 34.852 312.34 34.4366 310.695 34.0771ZM310.695 155.179H283.686V105.98H310.695V155.179ZM310.695 101.011H283.686V52.0588H310.695V101.011Z" fill="#E6E6E6"/>
<path d="M355.751 215.46H237.676V225.637H355.751V215.46Z" fill="#F0F0F0"/>
<path d="M199.705 297.172C285.246 297.172 354.59 293.124 354.59 288.13C354.59 283.135 285.246 279.087 199.705 279.087C114.165 279.087 44.8203 283.135 44.8203 288.13C44.8203 293.124 114.165 297.172 199.705 297.172Z" fill="#F5F5F5"/>
<path d="M277.992 249.506C277.992 249.506 281.187 250.241 282.673 254.219C284.159 258.198 288.681 260.666 291.596 260.522C292.771 260.466 293.873 261.017 295.167 261.768L296.293 262.415C296.245 262.024 296.205 261.617 296.181 261.193C295.87 260.954 295.558 260.69 295.255 260.394C295.19 260.324 295.12 260.257 295.047 260.195C291.532 256.816 291.436 253.261 287.338 250.066C283.24 246.87 277.992 249.506 277.992 249.506Z" fill="#71389A"/>
<path d="M312.102 245.975C311.061 246.482 310.156 247.23 309.461 248.157C308.766 249.083 308.302 250.162 308.107 251.303C307.205 255.449 303.067 258.533 300.119 258.796C298.953 258.908 297.938 259.595 296.764 260.538C296.437 260.785 296.101 261.057 295.742 261.336C295.742 260.937 295.742 260.538 295.678 260.106C295.957 259.819 296.221 259.523 296.477 259.204C296.532 259.124 296.596 259.052 296.652 258.98C299.656 255.138 299.256 251.607 302.859 247.86C306.462 244.114 312.102 245.975 312.102 245.975Z" fill="#71389A"/>
<path d="M296.828 260.537C296.924 262.761 296.693 264.987 296.141 267.143C294.168 274.812 293.969 271.976 293.969 271.976C293.969 271.976 295.87 264.787 295.806 261.344C295.806 260.945 295.806 260.545 295.742 260.114C295.626 258.587 295.318 257.081 294.823 255.632C292.738 249.609 288.577 247.748 286.931 241.253C285.285 234.759 290.989 230.182 290.989 230.182C290.989 230.182 290.19 234.24 294.056 237.962C297.923 241.685 298.442 248.155 296.796 251.446C295.838 253.364 296.445 255.768 296.725 258.963C296.772 259.483 296.804 260.002 296.828 260.537Z" fill="#71389A"/>
<path d="M300.361 293.266H287.58C286.921 293.266 286.284 293.027 285.787 292.594C285.291 292.161 284.968 291.562 284.88 290.909L281.477 265.658H306.44L303.029 290.909C302.941 291.557 302.623 292.151 302.133 292.584C301.643 293.016 301.014 293.258 300.361 293.266Z" fill="#71389A"/>
<path d="M308.525 265.57V270.212H305.833L303.037 290.901C302.951 291.554 302.631 292.154 302.135 292.587C301.64 293.021 301.003 293.259 300.345 293.258H287.58C286.922 293.256 286.287 293.016 285.792 292.583C285.298 292.15 284.976 291.553 284.888 290.901L282.092 270.212H278.992V265.57H308.525Z" fill="#71389A"/>
<path opacity="0.5" d="M308.525 265.57V270.212H305.833L303.037 290.901C302.951 291.554 302.631 292.154 302.135 292.587C301.64 293.021 301.003 293.259 300.345 293.258H287.58C286.922 293.256 286.287 293.016 285.792 292.583C285.298 292.15 284.976 291.553 284.888 290.901L282.092 270.212H278.992V265.57H308.525Z" fill="black"/>
<path d="M156.929 213.199C156.853 213.966 156.497 214.678 155.93 215.199C155.363 215.721 154.624 216.015 153.853 216.027C153.491 216.034 153.132 215.963 152.799 215.82C152.466 215.677 152.168 215.465 151.924 215.197C151.679 214.929 151.495 214.613 151.383 214.268C151.271 213.924 151.233 213.559 151.273 213.199C151.361 212.437 151.72 211.732 152.285 211.213C152.849 210.694 153.582 210.395 154.349 210.372C154.711 210.365 155.07 210.435 155.403 210.579C155.736 210.722 156.034 210.934 156.279 211.202C156.523 211.469 156.707 211.786 156.819 212.13C156.931 212.475 156.969 212.839 156.929 213.199Z" fill="#71389A"/>
<path d="M158.782 211.273C158.702 211.27 158.624 211.249 158.553 211.214C158.481 211.178 158.418 211.127 158.368 211.065C158.317 211.004 158.281 210.932 158.26 210.855C158.239 210.778 158.234 210.697 158.247 210.618C158.391 209.021 156.737 207.718 154.484 207.718C152.232 207.718 150.299 209.652 150.219 210.618C150.207 210.788 150.135 210.948 150.014 211.069C149.894 211.189 149.734 211.262 149.564 211.273C149.484 211.27 149.406 211.249 149.334 211.214C149.263 211.178 149.2 211.127 149.149 211.065C149.099 211.004 149.062 210.932 149.041 210.855C149.02 210.778 149.016 210.697 149.028 210.618C149.196 208.717 151.8 206.4 154.62 206.4C157.44 206.4 159.661 208.254 159.453 210.618C159.441 210.791 159.367 210.953 159.243 211.074C159.119 211.195 158.955 211.266 158.782 211.273Z" fill="#71389A"/>
<path d="M160.356 207.567C160.276 207.564 160.198 207.543 160.127 207.508C160.055 207.472 159.992 207.421 159.942 207.359C159.891 207.298 159.854 207.226 159.833 207.149C159.813 207.072 159.808 206.991 159.821 206.912C159.957 205.314 157.68 204.012 154.74 204.012C151.657 204.012 149.228 206.041 149.148 206.912C149.137 207.082 149.064 207.242 148.944 207.363C148.824 207.483 148.663 207.556 148.493 207.567C148.414 207.564 148.335 207.543 148.264 207.508C148.193 207.472 148.13 207.421 148.079 207.359C148.029 207.298 147.992 207.226 147.971 207.149C147.95 207.072 147.946 206.991 147.958 206.912C148.126 205.011 151.337 202.694 154.852 202.694C158.567 202.694 161.243 204.508 161.003 206.912C160.992 207.081 160.92 207.24 160.802 207.36C160.683 207.481 160.525 207.554 160.356 207.567Z" fill="#71389A"/>
<path d="M161.9 204.18C161.819 204.177 161.74 204.157 161.668 204.12C161.596 204.084 161.533 204.033 161.482 203.97C161.432 203.907 161.395 203.834 161.375 203.756C161.354 203.678 161.351 203.597 161.365 203.517C161.484 202.119 158.968 200.626 154.974 200.626C150.98 200.626 148.136 202.775 148.072 203.517C148.065 203.688 147.995 203.85 147.875 203.973C147.756 204.095 147.596 204.169 147.425 204.18C147.344 204.177 147.265 204.156 147.193 204.12C147.12 204.084 147.057 204.033 147.005 203.97C146.954 203.908 146.916 203.835 146.895 203.757C146.874 203.679 146.869 203.597 146.882 203.517C147.05 201.624 150.876 199.308 155.094 199.308C159.631 199.308 162.779 201.081 162.563 203.517C162.553 203.69 162.48 203.853 162.358 203.976C162.236 204.098 162.073 204.171 161.9 204.18Z" fill="#71389A"/>
<path d="M299.24 173.314H87.1836L98.9423 38.8789H310.999L299.24 173.314Z" fill="#71389A"/>
<path d="M296.369 183.835H87.3553C85.9807 183.859 84.6167 183.59 83.3542 183.046C82.0916 182.502 80.9594 181.695 80.0328 180.679C79.1063 179.664 78.4067 178.462 77.9806 177.155C77.5545 175.848 77.4117 174.465 77.5617 173.099L89.2485 39.5105C89.5481 36.602 90.9009 33.9034 93.052 31.923C95.2031 29.9426 98.004 28.817 100.927 28.7583H309.893C311.267 28.7342 312.631 29.0032 313.894 29.5473C315.156 30.0913 316.289 30.8981 317.215 31.9138C318.142 32.9295 318.841 34.1309 319.267 35.438C319.694 36.7451 319.836 38.128 319.686 39.4946L308 173.099C307.697 175.996 306.35 178.684 304.209 180.661C302.068 182.637 299.281 183.765 296.369 183.835Z" fill="#263238"/>
<path d="M296.359 173.314H96.0527L107.819 38.8789H308.118L296.359 173.314Z" fill="#71389A"/>
<path d="M296.317 173.361H96.0352L107.794 38.9346H308.076L296.317 173.361Z" fill="white"/>
<path d="M306.593 55.9736H106.303L107.797 38.9346H308.079L306.593 55.9736Z" fill="#71389A"/>
<path d="M197.284 101.141C199.821 98.7128 200.074 94.8607 197.85 92.5374C195.626 90.2142 191.767 90.2994 189.23 92.7279C186.693 95.1564 186.44 99.0084 188.664 101.332C190.888 103.655 194.747 103.57 197.284 101.141Z" fill="#71389A"/>
<path d="M117.851 126.356C120.379 123.933 120.63 120.091 118.411 117.775C116.192 115.46 112.343 115.547 109.815 117.97C107.286 120.393 107.035 124.235 109.255 126.55C111.474 128.866 115.322 128.779 117.851 126.356Z" fill="#263238"/>
<path d="M178.852 134.883C178.682 136.531 177.915 138.061 176.695 139.182C175.475 140.304 173.886 140.94 172.229 140.97C171.45 140.984 170.677 140.831 169.961 140.523C169.245 140.214 168.603 139.757 168.078 139.181C167.552 138.605 167.156 137.924 166.914 137.183C166.673 136.442 166.592 135.658 166.677 134.883C166.847 133.234 167.614 131.705 168.834 130.584C170.054 129.462 171.643 128.826 173.3 128.796C174.079 128.782 174.852 128.934 175.568 129.243C176.284 129.551 176.926 130.009 177.451 130.585C177.977 131.161 178.373 131.842 178.615 132.583C178.856 133.324 178.937 134.108 178.852 134.883Z" fill="#71389A"/>
<path d="M114.035 86.8971L114.602 85.8347C115.077 86.1501 115.631 86.3246 116.2 86.3379C116.799 86.3379 117.047 86.1702 117.071 85.9225C117.143 85.1237 114.187 85.6989 114.355 83.8056C114.435 82.895 115.241 82.1441 116.751 82.1441C117.384 82.1334 118.009 82.2876 118.565 82.5914L118.029 83.6698C117.611 83.4201 117.135 83.2826 116.647 83.2704C116.04 83.2704 115.801 83.4781 115.777 83.7337C115.713 84.5326 118.66 83.9255 118.501 85.8107C118.421 86.7054 117.606 87.4643 116.104 87.4643C115.374 87.4809 114.655 87.2838 114.035 86.8971Z" fill="#263238"/>
<path d="M138.391 87.3608L138.606 84.6528L137.105 86.8576H136.457L135.339 84.7247L135.107 87.3608H133.773L134.205 82.2803H135.395L136.929 85.2359L138.998 82.2803H140.188L139.757 87.3928L138.391 87.3608Z" fill="#263238"/>
<path d="M155.279 83.3983H153.682L153.785 82.248H158.363L158.267 83.3983H156.669L156.318 87.3925H154.872L155.279 83.3983Z" fill="#263238"/>
<path d="M181.4 82.28L179.299 87.3925H177.749L177.047 84.285L175.744 87.3605H174.195L172.98 82.248H174.474L175.217 85.5153L176.583 82.248H177.909L178.652 85.5392L180.018 82.248L181.4 82.28Z" fill="#263238"/>
<path d="M193.469 83.3983H191.871L191.975 82.248H196.552L196.512 83.3983H194.915L194.563 87.3925H193.117L193.469 83.3983Z" fill="#263238"/>
<path d="M212.922 83.3664L212.826 84.4928H215.087L214.983 85.6111H212.73L212.579 87.3605H211.133L211.58 82.248H215.574L215.47 83.3664H212.922Z" fill="#263238"/>
<path d="M229.904 86.8971L230.479 85.8347C230.965 86.1574 231.534 86.3322 232.117 86.3379C232.716 86.3379 232.964 86.1702 232.988 85.9225C233.06 85.1237 230.104 85.6989 230.264 83.8056C230.344 82.895 231.158 82.1441 232.66 82.1441C233.293 82.1334 233.918 82.2876 234.474 82.5914L233.938 83.6698C233.519 83.4211 233.044 83.2836 232.556 83.2704C231.949 83.2704 231.71 83.4781 231.686 83.7337C231.622 84.5326 234.569 83.9255 234.402 85.8107C234.33 86.7054 233.515 87.4643 232.005 87.4643C231.265 87.4839 230.534 87.2868 229.904 86.8971Z" fill="#263238"/>
<path d="M155.119 94.8369L154.672 99.9494H153.226L153.578 95.9553H152.627L152.723 94.8369H155.119Z" fill="#263238"/>
<path d="M175.625 98.799L175.521 99.9493H171.527L171.607 99.0386L173.676 97.2492C174.124 96.8738 174.203 96.6421 174.219 96.4504C174.235 96.2587 174.044 95.9232 173.604 95.9232C173.418 95.9224 173.233 95.967 173.068 96.0533C172.902 96.1396 172.76 96.2649 172.654 96.4185L171.631 95.8193C171.883 95.4724 172.217 95.1936 172.603 95.0081C172.989 94.8226 173.416 94.7363 173.844 94.7569C175.018 94.7569 175.777 95.364 175.689 96.3146C175.647 96.6377 175.534 96.9478 175.361 97.2236C175.187 97.4993 174.956 97.7343 174.683 97.9123L173.636 98.799H175.625Z" fill="#263238"/>
<path d="M194.752 98.3438C194.672 99.2145 193.953 100.045 192.355 100.045C191.674 100.06 191.002 99.8857 190.414 99.542L191.037 98.4556C191.443 98.7356 191.926 98.8834 192.419 98.879C192.906 98.879 193.218 98.6873 193.274 98.3438C193.33 98.0003 193.09 97.8485 192.539 97.8485H191.932L192.012 96.9378L193.01 95.9553H191.005L191.109 94.8369H194.8L194.72 95.7396L193.561 96.8819C193.736 96.8989 193.905 96.9502 194.06 97.0331C194.214 97.1159 194.351 97.2286 194.462 97.3645C194.572 97.5005 194.655 97.657 194.705 97.8251C194.755 97.9932 194.77 98.1695 194.752 98.3438Z" fill="#263238"/>
<path d="M214.673 98.968H213.874L213.786 99.9506H212.38L212.46 98.968H209.76L209.848 98.0254L212.42 94.8301H213.914L211.573 97.8177H212.612L212.683 96.947H214.089L214.01 97.8177H214.808L214.673 98.968Z" fill="#263238"/>
<path d="M233.019 98.3038C232.939 99.2145 232.18 100.045 230.623 100.045C229.944 100.061 229.274 99.8866 228.689 99.542L229.305 98.4556C229.711 98.7356 230.193 98.8834 230.687 98.879C231.174 98.879 231.485 98.6793 231.549 98.3438C231.613 98.0083 231.382 97.8245 230.599 97.8245H229.265L229.776 94.8369H233.035L232.939 95.9553H230.862L230.734 96.6982H231.078C232.572 96.6982 233.099 97.4011 233.019 98.3038Z" fill="#263238"/>
<path d="M116.4 110.894C116.332 111.406 116.069 111.873 115.666 112.198C115.263 112.522 114.75 112.679 114.235 112.635C112.805 112.635 111.942 111.772 112.086 110.119C112.092 109.739 112.174 109.364 112.327 109.017C112.48 108.669 112.702 108.356 112.978 108.096C113.254 107.835 113.58 107.632 113.936 107.5C114.291 107.367 114.67 107.307 115.05 107.323C115.564 107.303 116.074 107.43 116.519 107.69L115.904 108.729C115.635 108.544 115.312 108.451 114.986 108.465C114.645 108.447 114.309 108.56 114.049 108.782C113.789 109.003 113.624 109.316 113.588 109.655C113.928 109.395 114.349 109.262 114.778 109.28C114.996 109.258 115.216 109.284 115.422 109.357C115.628 109.43 115.816 109.548 115.971 109.703C116.126 109.857 116.245 110.044 116.319 110.25C116.393 110.456 116.421 110.676 116.4 110.894ZM114.994 110.958C115.004 110.87 114.995 110.782 114.966 110.699C114.937 110.616 114.889 110.541 114.827 110.479C114.764 110.418 114.689 110.371 114.605 110.343C114.522 110.315 114.434 110.307 114.347 110.318C114.16 110.305 113.977 110.366 113.835 110.487C113.693 110.608 113.604 110.78 113.588 110.966C113.548 111.341 113.803 111.605 114.243 111.605C114.338 111.617 114.434 111.609 114.526 111.583C114.618 111.557 114.703 111.512 114.778 111.451C114.852 111.391 114.912 111.316 114.956 111.231C115 111.146 115.027 111.053 115.034 110.958H114.994Z" fill="#263238"/>
<path d="M135.908 107.427L135.828 108.33L133.663 112.532H132.065L134.134 108.538H132.792L132.72 109.336H131.49L131.658 107.403L135.908 107.427Z" fill="#263238"/>
<path d="M155.917 111.038C155.838 112.02 154.879 112.635 153.521 112.635C152.163 112.635 151.356 112.012 151.444 111.038C151.463 110.787 151.547 110.546 151.687 110.337C151.827 110.129 152.018 109.96 152.243 109.847C152.082 109.732 151.955 109.575 151.875 109.394C151.795 109.213 151.765 109.014 151.788 108.817C151.867 107.914 152.746 107.331 153.952 107.331C155.159 107.331 155.941 107.914 155.862 108.817C155.841 109.026 155.773 109.228 155.662 109.406C155.551 109.585 155.401 109.736 155.222 109.847C155.447 109.949 155.635 110.118 155.76 110.332C155.884 110.545 155.939 110.792 155.917 111.038ZM154.472 110.998C154.472 110.598 154.216 110.359 153.761 110.359C153.57 110.338 153.379 110.394 153.23 110.514C153.08 110.634 152.984 110.807 152.962 110.998C152.962 111.389 153.209 111.629 153.673 111.629C153.863 111.647 154.052 111.59 154.202 111.471C154.351 111.352 154.448 111.179 154.472 110.99V110.998ZM153.281 108.881C153.281 109.216 153.473 109.416 153.84 109.416C153.919 109.425 153.999 109.418 154.075 109.396C154.151 109.374 154.222 109.337 154.284 109.287C154.345 109.237 154.397 109.176 154.434 109.106C154.472 109.036 154.496 108.96 154.504 108.881C154.504 108.545 154.296 108.346 153.936 108.346C153.78 108.33 153.623 108.376 153.501 108.475C153.378 108.574 153.299 108.717 153.281 108.873V108.881Z" fill="#263238"/>
<path d="M174.945 109.839C174.939 110.22 174.857 110.595 174.703 110.943C174.55 111.291 174.328 111.605 174.05 111.865C173.773 112.126 173.447 112.329 173.09 112.461C172.733 112.593 172.354 112.652 171.974 112.635C171.461 112.654 170.954 112.526 170.512 112.268L171.127 111.229C171.396 111.414 171.719 111.507 172.045 111.493C172.384 111.507 172.715 111.393 172.972 111.174C173.23 110.955 173.395 110.647 173.435 110.311C173.095 110.565 172.678 110.695 172.253 110.678C172.039 110.696 171.823 110.667 171.621 110.594C171.419 110.52 171.235 110.403 171.083 110.25C170.931 110.098 170.814 109.915 170.74 109.713C170.666 109.511 170.637 109.295 170.656 109.08C170.723 108.57 170.984 108.106 171.383 107.782C171.783 107.458 172.292 107.3 172.804 107.339C174.234 107.323 175.097 108.186 174.945 109.839ZM173.451 108.992C173.451 108.617 173.236 108.353 172.796 108.353C172.611 108.34 172.428 108.401 172.287 108.522C172.147 108.643 172.06 108.815 172.045 109C172.035 109.088 172.045 109.176 172.073 109.259C172.102 109.342 172.15 109.417 172.212 109.479C172.275 109.54 172.351 109.587 172.434 109.615C172.517 109.643 172.606 109.651 172.693 109.639C172.88 109.655 173.066 109.596 173.21 109.474C173.353 109.353 173.443 109.18 173.459 108.992H173.451Z" fill="#263238"/>
<path d="M192.209 107.426L191.762 112.53H190.316L190.667 108.536H189.717L189.813 107.426H192.209Z" fill="#263238"/>
<path d="M192.752 109.974C192.896 108.289 193.934 107.322 195.244 107.322C196.554 107.322 197.401 108.289 197.257 109.974C197.114 111.66 196.075 112.634 194.773 112.634C193.471 112.634 192.608 111.668 192.752 109.974ZM195.803 109.974C195.899 108.904 195.596 108.505 195.14 108.505C194.685 108.505 194.302 108.904 194.206 109.974C194.11 111.045 194.414 111.452 194.877 111.452C195.34 111.452 195.716 111.037 195.803 109.974Z" fill="#263238"/>
<path d="M211.299 107.426L210.852 112.53H209.406L209.757 108.536H208.807L208.91 107.426H211.299Z" fill="#263238"/>
<path d="M214.264 107.426L213.816 112.53H212.371L212.722 108.536H211.771L211.867 107.426H214.264Z" fill="#263238"/>
<path d="M230.403 107.426L229.955 112.53H228.509L228.861 108.536H227.91L228.006 107.426H230.403Z" fill="#263238"/>
<path d="M234.77 111.389L234.666 112.531H230.672L230.752 111.628L232.821 109.839C233.268 109.464 233.348 109.224 233.364 109.04C233.364 108.713 233.188 108.513 232.749 108.513C232.562 108.512 232.378 108.557 232.212 108.643C232.047 108.729 231.905 108.855 231.798 109.008L230.776 108.409C231.027 108.062 231.361 107.783 231.748 107.598C232.134 107.412 232.56 107.326 232.988 107.347C234.163 107.347 234.922 107.954 234.834 108.896C234.792 109.22 234.68 109.53 234.506 109.806C234.332 110.082 234.101 110.317 233.827 110.494L232.781 111.389H234.77Z" fill="#263238"/>
<path d="M113.436 120.009L112.988 125.121H111.542L111.894 121.127H110.943L111.039 120.009H113.436Z" fill="white"/>
<path d="M117.814 123.524C117.742 124.386 117.015 125.225 115.418 125.225C114.735 125.242 114.062 125.065 113.477 124.714L114.1 123.627C114.504 123.906 114.983 124.054 115.474 124.051C115.969 124.051 116.272 123.867 116.336 123.524C116.4 123.18 116.153 123.02 115.593 123.02H115.034L115.114 122.11L116.113 121.127H114.076L114.172 120.009H117.87L117.79 120.911L116.632 122.054C116.807 122.071 116.977 122.122 117.131 122.206C117.286 122.289 117.423 122.403 117.533 122.54C117.643 122.677 117.724 122.834 117.773 123.003C117.821 123.172 117.835 123.349 117.814 123.524Z" fill="white"/>
<path d="M132.848 120.009L132.4 125.121H130.955L131.298 121.127H130.355L130.451 120.009H132.848Z" fill="#263238"/>
<path d="M138.069 124.139H137.27L137.182 125.121H135.8L135.88 124.139H133.18L133.26 123.196L135.832 120.001H137.334L135.001 123.021H136.031L136.111 122.15H137.477L137.397 123.021H138.196L138.069 124.139Z" fill="#263238"/>
<path d="M152.914 120.009L152.467 125.121H151.021L151.372 121.127H150.422L150.518 120.009H152.914Z" fill="#263238"/>
<path d="M157.373 123.474C157.293 124.385 156.534 125.224 154.976 125.224C154.296 125.242 153.625 125.064 153.043 124.712L153.658 123.626C154.062 123.904 154.542 124.052 155.032 124.049C155.527 124.049 155.831 123.858 155.903 123.514C155.975 123.171 155.775 123.019 154.976 123.019H153.586L154.105 120.031H157.373L157.269 121.15H155.216L155.08 121.893H155.423C156.949 121.869 157.476 122.572 157.373 123.474Z" fill="#263238"/>
<path d="M172.008 120.009L171.561 125.121H170.155L170.498 121.127H169.516L169.619 120.009H172.008Z" fill="#263238"/>
<path d="M176.845 123.475C176.777 123.987 176.515 124.453 176.114 124.779C175.713 125.104 175.203 125.263 174.688 125.224C173.258 125.224 172.395 124.361 172.539 122.7C172.545 122.32 172.627 121.945 172.78 121.598C172.934 121.25 173.155 120.937 173.431 120.677C173.707 120.416 174.033 120.213 174.389 120.081C174.744 119.948 175.123 119.888 175.503 119.904C176.018 119.886 176.528 120.017 176.972 120.279L176.357 121.318C176.089 121.13 175.766 121.037 175.439 121.054C175.098 121.036 174.763 121.149 174.502 121.371C174.242 121.592 174.077 121.905 174.041 122.244C174.381 121.981 174.802 121.846 175.231 121.861C175.448 121.841 175.666 121.87 175.871 121.944C176.076 122.018 176.262 122.136 176.416 122.29C176.569 122.444 176.688 122.63 176.762 122.835C176.836 123.039 176.864 123.258 176.845 123.475ZM175.439 123.539C175.449 123.451 175.44 123.363 175.411 123.28C175.382 123.197 175.334 123.122 175.272 123.06C175.209 122.999 175.134 122.952 175.05 122.924C174.967 122.896 174.879 122.888 174.792 122.9C174.6 122.879 174.408 122.936 174.258 123.058C174.108 123.179 174.013 123.355 173.993 123.547C173.982 123.636 173.992 123.726 174.022 123.81C174.052 123.895 174.1 123.971 174.165 124.034C174.229 124.096 174.306 124.143 174.392 124.171C174.477 124.199 174.567 124.207 174.656 124.194C174.751 124.205 174.847 124.196 174.938 124.169C175.03 124.142 175.115 124.096 175.188 124.034C175.261 123.973 175.321 123.898 175.365 123.812C175.408 123.727 175.433 123.634 175.439 123.539Z" fill="#263238"/>
<path d="M191.104 120.009L190.656 125.121H189.21L189.562 121.127H188.611L188.707 120.009H191.104Z" fill="#263238"/>
<path d="M196.027 120.007L195.947 120.91L193.782 125.12H192.185L194.253 121.126H192.911L192.84 121.924H191.609L191.777 119.991L196.027 120.007Z" fill="#263238"/>
<path d="M210.198 120.009L209.758 125.121H208.312L208.656 121.127H207.697L207.801 120.009H210.198Z" fill="#263238"/>
<path d="M215.062 123.61C214.982 124.592 214.024 125.208 212.666 125.208C211.307 125.208 210.501 124.576 210.589 123.61C210.61 123.36 210.694 123.12 210.834 122.911C210.974 122.703 211.164 122.534 211.387 122.42C211.227 122.305 211.1 122.15 211.02 121.97C210.94 121.791 210.91 121.593 210.932 121.397C211.012 120.486 211.891 119.903 213.097 119.903C214.303 119.903 215.086 120.486 215.006 121.397C214.984 121.605 214.915 121.805 214.805 121.982C214.694 122.159 214.544 122.309 214.367 122.42C214.591 122.522 214.778 122.692 214.903 122.905C215.027 123.118 215.083 123.364 215.062 123.61ZM213.616 123.57C213.616 123.179 213.36 122.939 212.905 122.939C212.716 122.919 212.526 122.973 212.377 123.091C212.227 123.209 212.13 123.381 212.106 123.57C212.106 123.961 212.354 124.209 212.817 124.209C213.007 124.225 213.196 124.168 213.344 124.049C213.493 123.93 213.59 123.759 213.616 123.57ZM212.426 121.461C212.426 121.797 212.618 121.996 212.985 121.996C213.064 122.005 213.144 121.998 213.22 121.976C213.296 121.954 213.367 121.917 213.428 121.867C213.49 121.817 213.541 121.756 213.579 121.686C213.617 121.616 213.64 121.54 213.648 121.461C213.648 121.118 213.44 120.918 213.081 120.918C213.002 120.91 212.923 120.918 212.847 120.941C212.771 120.964 212.701 121.002 212.64 121.053C212.579 121.103 212.529 121.166 212.492 121.236C212.455 121.306 212.433 121.382 212.426 121.461Z" fill="#263238"/>
<path d="M229.264 120.009L228.816 125.121H227.371L227.722 121.127H226.771L226.867 120.009H229.264Z" fill="#263238"/>
<path d="M234.098 122.421C234.093 122.802 234.011 123.178 233.858 123.527C233.705 123.876 233.483 124.191 233.206 124.453C232.928 124.714 232.601 124.917 232.244 125.05C231.887 125.183 231.507 125.242 231.126 125.225C230.613 125.241 230.106 125.111 229.664 124.85L230.279 123.811C230.547 124 230.871 124.093 231.198 124.075C231.536 124.091 231.868 123.978 232.127 123.758C232.385 123.539 232.55 123.229 232.588 122.892C232.249 123.15 231.831 123.282 231.406 123.268C231.191 123.285 230.976 123.255 230.775 123.181C230.573 123.106 230.39 122.989 230.238 122.837C230.087 122.685 229.969 122.502 229.895 122.301C229.821 122.1 229.791 121.884 229.808 121.67C229.874 121.159 230.134 120.692 230.533 120.367C230.933 120.041 231.443 119.882 231.957 119.921C233.379 119.905 234.241 120.768 234.098 122.421ZM232.604 121.582C232.644 121.199 232.388 120.935 231.949 120.935C231.763 120.922 231.58 120.983 231.44 121.104C231.299 121.225 231.212 121.397 231.198 121.582C231.186 121.67 231.194 121.759 231.223 121.843C231.251 121.927 231.298 122.004 231.361 122.066C231.424 122.129 231.5 122.176 231.584 122.204C231.668 122.233 231.757 122.241 231.845 122.229C232.031 122.243 232.215 122.182 232.357 122.061C232.499 121.94 232.587 121.768 232.604 121.582Z" fill="#263238"/>
<path d="M113.731 136.6L113.635 137.742H109.641L109.721 136.839L111.837 135.002C112.285 134.619 112.365 134.387 112.381 134.203C112.397 134.019 112.205 133.676 111.766 133.676C111.579 133.675 111.395 133.72 111.229 133.806C111.063 133.892 110.921 134.018 110.815 134.171L109.792 133.572C110.044 133.226 110.379 132.947 110.765 132.762C111.151 132.576 111.577 132.49 112.005 132.51C113.179 132.51 113.938 133.117 113.85 134.059C113.808 134.382 113.696 134.693 113.522 134.968C113.348 135.244 113.117 135.479 112.844 135.657L111.758 136.6H113.731Z" fill="#263238"/>
<path d="M114.271 135.146C114.415 133.461 115.454 132.494 116.764 132.494C118.074 132.494 118.921 133.461 118.777 135.146C118.633 136.832 117.595 137.806 116.293 137.806C114.99 137.806 114.128 136.832 114.271 135.146ZM117.323 135.146C117.419 134.076 117.115 133.676 116.66 133.676C116.205 133.676 115.861 134.076 115.725 135.146C115.59 136.217 115.933 136.624 116.396 136.624C116.86 136.624 117.227 136.225 117.323 135.146Z" fill="#263238"/>
<path d="M133.159 136.6L133.055 137.743H129.061L129.14 136.84L131.209 135.051C131.649 134.667 131.729 134.436 131.745 134.252C131.761 134.068 131.577 133.725 131.138 133.725C130.949 133.722 130.764 133.766 130.597 133.853C130.429 133.939 130.286 134.065 130.179 134.22L129.156 133.621C129.409 133.275 129.743 132.997 130.129 132.811C130.515 132.626 130.941 132.539 131.369 132.558C132.543 132.558 133.302 133.165 133.222 134.108C133.178 134.431 133.064 134.742 132.889 135.017C132.714 135.293 132.482 135.528 132.208 135.706L131.169 136.6H133.159Z" fill="#263238"/>
<path d="M136.124 132.605L135.676 137.718H134.207L134.55 133.724H133.607L133.703 132.605H136.124Z" fill="#263238"/>
<path d="M153.227 136.601L153.123 137.743H149.129L149.209 136.84L151.278 135.051C151.725 134.667 151.805 134.436 151.821 134.252C151.837 134.068 151.645 133.725 151.206 133.725C151.019 133.724 150.835 133.769 150.669 133.855C150.504 133.941 150.362 134.066 150.255 134.22L149.233 133.621C149.485 133.275 149.819 132.996 150.205 132.811C150.591 132.625 151.018 132.539 151.446 132.558C152.62 132.558 153.379 133.166 153.291 134.108C153.248 134.431 153.136 134.741 152.962 135.017C152.789 135.293 152.557 135.528 152.284 135.706L151.254 136.601H153.227Z" fill="#263238"/>
<path d="M157.602 136.601L157.498 137.743H153.504L153.584 136.84L155.653 135.051C156.092 134.667 156.172 134.436 156.196 134.252C156.22 134.068 156.02 133.725 155.581 133.725C155.393 133.725 155.208 133.77 155.041 133.856C154.875 133.942 154.731 134.067 154.622 134.22L153.608 133.621C153.858 133.275 154.191 132.996 154.576 132.811C154.961 132.625 155.386 132.539 155.813 132.558C156.995 132.558 157.746 133.166 157.666 134.108C157.623 134.432 157.51 134.743 157.334 135.019C157.159 135.295 156.926 135.529 156.651 135.706L155.613 136.601H157.602Z" fill="#263238"/>
<path d="M172.315 136.599L172.219 137.742H168.225L168.304 136.839L170.389 135.002C170.829 134.618 170.909 134.387 170.925 134.203C170.941 134.019 170.757 133.676 170.318 133.676C170.129 133.674 169.944 133.718 169.777 133.804C169.609 133.89 169.466 134.016 169.359 134.171L168.336 133.572C168.589 133.226 168.923 132.948 169.309 132.763C169.695 132.577 170.121 132.49 170.549 132.509C171.723 132.509 172.482 133.117 172.402 134.059C172.358 134.383 172.244 134.693 172.069 134.968C171.894 135.244 171.662 135.479 171.388 135.657L170.349 136.552L172.315 136.599Z" fill="#263238"/>
<path d="M176.717 136.105C176.645 136.975 175.918 137.806 174.32 137.806C173.639 137.822 172.967 137.647 172.379 137.303L173.002 136.217C173.406 136.495 173.885 136.643 174.376 136.64C174.871 136.64 175.175 136.448 175.239 136.105C175.303 135.761 175.055 135.609 174.496 135.609H173.889L173.969 134.699L174.967 133.708H172.954L173.05 132.59H176.748L176.669 133.501L175.51 134.635C175.687 134.65 175.859 134.7 176.016 134.782C176.173 134.865 176.311 134.978 176.424 135.115C176.536 135.252 176.62 135.41 176.67 135.58C176.721 135.75 176.736 135.929 176.717 136.105Z" fill="#263238"/>
<path d="M191.414 136.599L191.311 137.741H187.316L187.396 136.838L189.481 135.001C189.929 134.618 190.008 134.386 190.024 134.202C190.04 134.019 189.849 133.675 189.409 133.675C189.223 133.674 189.038 133.719 188.873 133.805C188.707 133.892 188.565 134.017 188.459 134.17L187.436 133.571C187.688 133.224 188.022 132.946 188.408 132.76C188.794 132.575 189.221 132.488 189.649 132.509C190.823 132.509 191.582 133.116 191.494 134.059C191.452 134.382 191.34 134.692 191.166 134.968C190.992 135.243 190.761 135.478 190.488 135.656L189.441 136.599H191.414Z" fill="#263238"/>
<path d="M196.608 136.728H195.809L195.721 137.702H194.355L194.443 136.728H191.719L191.799 135.785L194.371 132.59H195.865L193.524 135.577H194.563L194.634 134.715H196L195.929 135.577H196.687L196.608 136.728Z" fill="#263238"/>
<path d="M210.506 136.6L210.41 137.743H206.416L206.496 136.84L208.565 135.051C209.004 134.667 209.084 134.436 209.1 134.252C209.116 134.068 208.932 133.725 208.493 133.725C208.305 133.722 208.119 133.766 207.952 133.853C207.785 133.939 207.641 134.065 207.534 134.22L206.512 133.621C206.764 133.275 207.099 132.997 207.485 132.811C207.871 132.626 208.297 132.539 208.725 132.558C209.899 132.558 210.658 133.165 210.578 134.108C210.533 134.431 210.42 134.742 210.245 135.017C210.069 135.293 209.837 135.528 209.563 135.706L208.525 136.6H210.506Z" fill="#263238"/>
<path d="M214.996 136.064C214.916 136.975 214.157 137.806 212.599 137.806C211.92 137.822 211.251 137.648 210.666 137.303L211.281 136.216C211.685 136.495 212.165 136.642 212.655 136.64C213.15 136.64 213.454 136.44 213.526 136.096C213.598 135.753 213.358 135.577 212.575 135.577H211.185L211.689 132.605H214.948L214.844 133.724H212.791L212.655 134.475H212.999C214.548 134.459 215.076 135.154 214.996 136.064Z" fill="#263238"/>
<path d="M229.612 136.599L229.508 137.741H225.514L225.594 136.838L227.671 135.001C228.118 134.618 228.19 134.386 228.214 134.202C228.238 134.019 228.038 133.675 227.599 133.675C227.412 133.674 227.228 133.719 227.062 133.805C226.896 133.892 226.754 134.017 226.648 134.17L225.626 133.571C225.877 133.224 226.211 132.946 226.597 132.76C226.984 132.575 227.41 132.488 227.838 132.509C229.013 132.509 229.771 133.116 229.684 134.059C229.641 134.382 229.529 134.692 229.355 134.968C229.181 135.243 228.95 135.478 228.677 135.656L227.671 136.599H229.612Z" fill="#263238"/>
<path d="M234.438 136.065C234.371 136.576 234.109 137.042 233.708 137.366C233.306 137.69 232.796 137.847 232.282 137.806C230.852 137.806 229.989 136.943 230.133 135.29C230.139 134.91 230.221 134.535 230.374 134.188C230.527 133.84 230.749 133.527 231.025 133.266C231.301 133.006 231.627 132.803 231.982 132.671C232.338 132.538 232.717 132.478 233.096 132.494C233.611 132.474 234.121 132.601 234.566 132.861L233.951 133.9C233.682 133.715 233.359 133.622 233.033 133.636C232.691 133.618 232.356 133.731 232.096 133.952C231.836 134.174 231.671 134.487 231.635 134.826C231.976 134.567 232.396 134.434 232.825 134.451C233.042 134.43 233.261 134.457 233.466 134.531C233.672 134.604 233.858 134.723 234.013 134.877C234.167 135.031 234.285 135.218 234.359 135.423C234.432 135.628 234.46 135.847 234.438 136.065ZM233.033 136.128C233.044 136.041 233.036 135.951 233.007 135.867C232.979 135.784 232.932 135.707 232.869 135.645C232.807 135.582 232.73 135.535 232.646 135.506C232.563 135.478 232.473 135.47 232.385 135.481C232.29 135.469 232.192 135.477 232.099 135.503C232.006 135.53 231.92 135.576 231.845 135.637C231.77 135.698 231.709 135.774 231.664 135.86C231.62 135.946 231.593 136.04 231.587 136.136C231.587 136.512 231.802 136.775 232.242 136.775C232.337 136.788 232.433 136.78 232.525 136.754C232.617 136.728 232.702 136.683 232.776 136.622C232.851 136.562 232.911 136.487 232.955 136.402C232.999 136.317 233.026 136.224 233.033 136.128Z" fill="#263238"/>
<path d="M112.637 149.141L112.541 150.291H108.547L108.643 149.381L110.712 147.599C111.151 147.216 111.231 146.984 111.247 146.801C111.263 146.617 111.071 146.281 110.64 146.281C110.451 146.278 110.265 146.321 110.098 146.408C109.93 146.494 109.787 146.621 109.681 146.777L108.643 146.185C108.893 145.837 109.227 145.557 109.613 145.37C110 145.183 110.427 145.095 110.855 145.115C112.03 145.115 112.789 145.722 112.701 146.673C112.66 146.996 112.548 147.307 112.374 147.583C112.201 147.859 111.968 148.094 111.694 148.27L110.648 149.157L112.637 149.141Z" fill="#263238"/>
<path d="M117.551 145.179L117.471 146.082L115.298 150.292H113.7L115.769 146.297H114.427L114.355 147.096H113.125L113.293 145.163L117.551 145.179Z" fill="#263238"/>
<path d="M132.055 149.142L131.951 150.292H127.957L128.037 149.381L130.106 147.6C130.545 147.216 130.625 146.985 130.649 146.801C130.673 146.617 130.473 146.282 130.034 146.282C129.846 146.28 129.66 146.324 129.493 146.41C129.326 146.496 129.183 146.622 129.075 146.777L128.061 146.178C128.309 145.829 128.641 145.548 129.027 145.361C129.412 145.174 129.838 145.087 130.266 145.107C131.448 145.107 132.199 145.715 132.119 146.665C132.074 146.989 131.961 147.299 131.786 147.574C131.611 147.85 131.378 148.085 131.104 148.263L130.066 149.15L132.055 149.142Z" fill="#263238"/>
<path d="M136.922 148.79C136.835 149.764 135.884 150.387 134.526 150.387C133.168 150.387 132.361 149.756 132.441 148.79C132.461 148.54 132.546 148.299 132.685 148.091C132.825 147.882 133.016 147.713 133.24 147.599C133.078 147.485 132.951 147.328 132.871 147.147C132.79 146.965 132.761 146.766 132.784 146.569C132.856 145.658 133.743 145.075 134.949 145.075C136.156 145.075 136.93 145.658 136.859 146.569C136.837 146.778 136.769 146.98 136.658 147.158C136.547 147.337 136.397 147.488 136.219 147.599C136.445 147.701 136.634 147.87 136.76 148.083C136.886 148.296 136.943 148.543 136.922 148.79ZM135.477 148.742C135.477 148.35 135.221 148.111 134.766 148.111C134.576 148.09 134.387 148.145 134.237 148.263C134.088 148.381 133.991 148.553 133.967 148.742C133.967 149.133 134.214 149.381 134.678 149.381C134.867 149.397 135.056 149.34 135.205 149.221C135.353 149.102 135.451 148.93 135.477 148.742ZM134.286 146.633C134.286 146.968 134.478 147.168 134.845 147.168C134.924 147.177 135.004 147.17 135.08 147.148C135.156 147.126 135.227 147.089 135.289 147.039C135.35 146.989 135.402 146.928 135.439 146.858C135.477 146.788 135.501 146.712 135.508 146.633C135.508 146.289 135.293 146.09 134.941 146.09C134.863 146.082 134.783 146.09 134.707 146.113C134.632 146.136 134.562 146.174 134.501 146.225C134.44 146.275 134.389 146.337 134.353 146.407C134.316 146.477 134.293 146.554 134.286 146.633Z" fill="#263238"/>
<path d="M152.123 149.141L152.027 150.292H148.033L148.105 149.381L150.182 147.6C150.621 147.216 150.701 146.984 150.717 146.801C150.733 146.617 150.542 146.281 150.11 146.281C149.922 146.278 149.736 146.321 149.568 146.408C149.401 146.494 149.258 146.621 149.152 146.777L148.129 146.178C148.38 145.829 148.713 145.549 149.1 145.362C149.486 145.175 149.913 145.088 150.342 145.107C151.516 145.107 152.275 145.714 152.187 146.665C152.146 146.989 152.035 147.299 151.861 147.575C151.687 147.851 151.455 148.086 151.181 148.263L150.182 149.141H152.123Z" fill="#263238"/>
<path d="M156.93 147.6C156.924 147.98 156.841 148.356 156.688 148.704C156.534 149.052 156.312 149.365 156.035 149.626C155.758 149.887 155.431 150.089 155.074 150.222C154.718 150.354 154.338 150.413 153.958 150.396C153.445 150.412 152.938 150.282 152.496 150.02L153.111 148.982C153.379 149.171 153.703 149.264 154.03 149.246C154.368 149.262 154.7 149.149 154.959 148.929C155.217 148.71 155.382 148.4 155.42 148.063C155.079 148.318 154.663 148.451 154.238 148.439C154.023 148.457 153.807 148.428 153.605 148.354C153.403 148.281 153.22 148.163 153.067 148.011C152.915 147.859 152.798 147.676 152.724 147.473C152.65 147.271 152.622 147.056 152.64 146.841C152.706 146.33 152.966 145.863 153.365 145.538C153.765 145.212 154.275 145.053 154.789 145.092C156.211 145.076 157.073 145.938 156.93 147.6ZM155.436 146.753C155.446 146.665 155.436 146.576 155.407 146.492C155.378 146.408 155.33 146.332 155.267 146.27C155.203 146.207 155.127 146.16 155.043 146.132C154.958 146.103 154.869 146.095 154.781 146.106C154.595 146.093 154.413 146.154 154.272 146.275C154.131 146.396 154.044 146.568 154.03 146.753C154.017 146.841 154.024 146.93 154.051 147.014C154.078 147.098 154.125 147.174 154.187 147.237C154.249 147.3 154.325 147.347 154.409 147.376C154.492 147.404 154.581 147.413 154.669 147.4C154.856 147.414 155.041 147.354 155.184 147.233C155.327 147.112 155.418 146.94 155.436 146.753Z" fill="#263238"/>
<path d="M171.246 148.695C171.166 149.557 170.407 150.396 168.849 150.396C168.168 150.409 167.497 150.235 166.908 149.893L167.531 148.798C167.937 149.078 168.42 149.226 168.913 149.222C169.401 149.222 169.712 149.038 169.768 148.695C169.824 148.351 169.584 148.199 169.033 148.199H168.426L168.506 147.281L169.504 146.298H167.491L167.587 145.18H171.278L171.198 146.082L170.04 147.225C170.216 147.24 170.388 147.29 170.545 147.372C170.702 147.455 170.841 147.568 170.953 147.705C171.066 147.842 171.149 148 171.2 148.17C171.25 148.34 171.266 148.518 171.246 148.695Z" fill="#263238"/>
<path d="M171.797 147.735C171.949 146.05 172.979 145.075 174.289 145.075C175.599 145.075 176.446 146.05 176.302 147.735C176.158 149.421 175.12 150.395 173.818 150.395C172.516 150.395 171.653 149.421 171.797 147.735ZM174.848 147.735C174.944 146.665 174.641 146.257 174.185 146.257C173.73 146.257 173.347 146.665 173.251 147.735C173.155 148.806 173.458 149.213 173.922 149.213C174.385 149.213 174.753 148.806 174.848 147.735Z" fill="#263238"/>
<path d="M118.386 63.4912L115.686 66.2392L117.874 69.2747L118.386 63.4912Z" fill="#263238"/>
<path d="M236.941 63.4912L239.154 66.2392L236.43 69.2747L236.941 63.4912Z" fill="#263238"/>
<path d="M201.498 69.2747H153.033L153.536 63.4912H202.001L201.498 69.2747Z" fill="#263238"/>
<path d="M296.32 173.361H241.32L251.593 55.9736H306.593L296.32 173.361Z" fill="#71389A"/>
<path d="M296.32 173.361H241.32L251.593 55.9736H306.593L296.32 173.361Z" fill="black"/>
<path d="M261.22 103.049H255.867C255.559 103.055 255.253 102.996 254.969 102.875C254.685 102.754 254.43 102.575 254.22 102.349C254.01 102.122 253.851 101.854 253.752 101.562C253.653 101.27 253.617 100.96 253.647 100.653L255.356 81.1614C255.428 80.5093 255.736 79.906 256.221 79.4647C256.706 79.0234 257.336 78.7746 257.992 78.7649H263.352C263.661 78.7603 263.966 78.8205 264.249 78.9417C264.533 79.0628 264.787 79.2423 264.997 79.4683C265.206 79.6943 265.366 79.9618 265.465 80.2535C265.564 80.5452 265.601 80.8545 265.573 81.1614L263.872 100.653C263.798 101.307 263.487 101.911 262.999 102.353C262.511 102.794 261.878 103.042 261.22 103.049Z" fill="white"/>
<path d="M261.217 92.7678C261.137 93.6385 260.418 94.4693 258.82 94.4693C258.139 94.4839 257.467 94.3097 256.879 93.966L257.502 92.8796C257.908 93.1596 258.391 93.3075 258.884 93.303C259.371 93.303 259.683 93.1113 259.739 92.7678C259.795 92.4243 259.555 92.2725 259.004 92.2725H258.397L258.477 91.3618L259.475 90.3713H257.454L257.558 89.2529H261.248L261.169 90.1636L260.01 91.2979C260.187 91.3128 260.359 91.363 260.516 91.4455C260.673 91.5279 260.811 91.641 260.924 91.7781C261.036 91.9151 261.12 92.0733 261.17 92.2433C261.221 92.4133 261.236 92.5916 261.217 92.7678Z" fill="#263238"/>
<path d="M294.408 103.049H268.231C267.922 103.055 267.616 102.996 267.332 102.875C267.048 102.754 266.793 102.575 266.583 102.349C266.374 102.122 266.214 101.854 266.115 101.562C266.017 101.27 265.981 100.96 266.01 100.653L267.711 81.1614C267.787 80.5093 268.097 79.9068 268.583 79.466C269.069 79.0252 269.699 78.7761 270.356 78.7649H296.541C296.849 78.7601 297.154 78.8203 297.437 78.9416C297.72 79.0629 297.974 79.2424 298.183 79.4686C298.392 79.6948 298.551 79.9624 298.649 80.2541C298.747 80.5458 298.783 80.855 298.754 81.1614L297.052 100.653C296.977 101.305 296.667 101.907 296.181 102.348C295.695 102.789 295.065 103.038 294.408 103.049Z" fill="#71389A"/>
<path d="M291.812 132.678H265.634C265.326 132.683 265.02 132.623 264.737 132.501C264.454 132.38 264.199 132.201 263.99 131.975C263.78 131.749 263.621 131.481 263.521 131.19C263.422 130.898 263.385 130.589 263.413 130.282L265.123 110.79C265.198 110.138 265.508 109.536 265.994 109.095C266.481 108.654 267.111 108.405 267.767 108.394H293.969C294.277 108.389 294.582 108.449 294.866 108.571C295.149 108.692 295.404 108.871 295.613 109.097C295.822 109.323 295.982 109.591 296.081 109.882C296.181 110.174 296.217 110.483 296.189 110.79L294.48 130.282C294.404 130.938 294.091 131.544 293.599 131.985C293.108 132.426 292.472 132.673 291.812 132.678Z" fill="#263238"/>
<path d="M289.225 162.314H263.039C262.731 162.319 262.426 162.259 262.143 162.137C261.86 162.016 261.606 161.837 261.397 161.61C261.188 161.384 261.029 161.117 260.931 160.825C260.833 160.533 260.797 160.224 260.826 159.918L262.528 140.426C262.603 139.774 262.913 139.172 263.399 138.731C263.886 138.29 264.516 138.041 265.172 138.03H291.35C291.658 138.024 291.964 138.083 292.248 138.204C292.532 138.325 292.787 138.504 292.997 138.73C293.207 138.957 293.366 139.225 293.465 139.517C293.564 139.809 293.6 140.119 293.57 140.426L291.861 159.918C291.789 160.57 291.481 161.173 290.996 161.614C290.51 162.056 289.881 162.304 289.225 162.314Z" fill="#71389A"/>
<path d="M258.641 132.678H253.281C252.973 132.683 252.668 132.623 252.385 132.501C252.102 132.38 251.848 132.201 251.639 131.974C251.43 131.748 251.272 131.481 251.173 131.189C251.075 130.897 251.039 130.588 251.068 130.282L252.77 110.79C252.845 110.138 253.155 109.536 253.641 109.095C254.128 108.654 254.758 108.405 255.414 108.394H260.774C261.082 108.389 261.387 108.449 261.67 108.571C261.953 108.692 262.207 108.871 262.416 109.098C262.625 109.324 262.784 109.591 262.882 109.883C262.981 110.175 263.016 110.484 262.987 110.79L261.285 130.282C261.21 130.934 260.9 131.536 260.414 131.977C259.928 132.418 259.298 132.667 258.641 132.678Z" fill="white"/>
<path d="M255.914 117.276L255.467 122.389H254.029L254.38 118.395H253.43L253.526 117.276H255.914Z" fill="#263238"/>
<path d="M260.31 120.791C260.238 121.662 259.511 122.493 257.914 122.493C257.233 122.508 256.561 122.334 255.973 121.989L256.588 120.903C256.996 121.178 257.477 121.325 257.97 121.326C258.457 121.326 258.769 121.135 258.824 120.791C258.88 120.448 258.649 120.296 258.09 120.296H257.482L257.562 119.385L258.561 118.395H256.548L256.644 117.276H260.342L260.262 118.187L259.104 119.321C259.281 119.335 259.454 119.385 259.611 119.467C259.768 119.549 259.908 119.662 260.02 119.799C260.133 119.937 260.217 120.095 260.267 120.266C260.316 120.436 260.331 120.615 260.31 120.791Z" fill="#263238"/>
<path d="M256.04 162.314H250.688C250.379 162.32 250.073 162.26 249.789 162.14C249.505 162.019 249.25 161.84 249.04 161.613C248.831 161.387 248.671 161.119 248.572 160.827C248.474 160.534 248.438 160.225 248.467 159.917L250.168 140.426C250.244 139.774 250.554 139.171 251.04 138.731C251.526 138.29 252.156 138.041 252.813 138.03H258.173C258.481 138.025 258.786 138.085 259.07 138.206C259.353 138.327 259.608 138.507 259.817 138.733C260.027 138.959 260.186 139.226 260.285 139.518C260.385 139.81 260.421 140.119 260.393 140.426L258.684 159.917C258.609 160.57 258.299 161.172 257.812 161.613C257.326 162.054 256.696 162.303 256.04 162.314Z" fill="white"/>
<path d="M295.13 69.6821H262.074L262.617 63.4912H295.665L295.13 69.6821Z" fill="white"/>
<path d="M180.541 47.7546C180.626 46.8549 181.052 46.0222 181.733 45.4278C182.414 44.8334 183.296 44.5225 184.199 44.5593C184.686 44.5295 185.173 44.6196 185.617 44.8215C186.062 45.0234 186.45 45.3311 186.747 45.7176L185.549 46.7241C185.396 46.4994 185.19 46.3162 184.949 46.1907C184.708 46.0653 184.439 46.0015 184.167 46.0051C183.687 45.9943 183.223 46.1724 182.873 46.5012C182.523 46.83 182.317 47.283 182.298 47.7626C182.258 47.9851 182.268 48.2138 182.329 48.4316C182.39 48.6493 182.5 48.8504 182.65 49.0196C182.8 49.1888 182.986 49.3218 183.195 49.4085C183.404 49.4951 183.63 49.5333 183.856 49.52C184.146 49.516 184.432 49.449 184.695 49.3234C184.957 49.1979 185.188 49.017 185.373 48.793L186.388 49.7996C186.04 50.1789 185.615 50.4787 185.14 50.6786C184.666 50.8785 184.154 50.9737 183.64 50.9579C183.214 50.9955 182.786 50.9376 182.386 50.7884C181.985 50.6392 181.623 50.4024 181.326 50.0954C181.029 49.7884 180.805 49.4189 180.669 49.0139C180.533 48.6089 180.489 48.1786 180.541 47.7546Z" fill="white"/>
<path d="M191.176 49.6314H188.579L187.988 50.8297H186.215L189.466 44.6787H191.184L193.364 50.8297H191.559L191.176 49.6314ZM190.784 48.3453L190.161 46.3802L189.202 48.3453H190.784Z" fill="white"/>
<path d="M194.397 44.6787H196.138L195.723 49.4717H198.654L198.534 50.8537H193.861L194.397 44.6787Z" fill="white"/>
<path d="M204.277 49.4797L204.157 50.8297H199.221L199.756 44.6787H204.549L204.429 46.0207H201.33L201.242 47.0592H203.974L203.862 48.3533H201.13L201.026 49.4797H204.277Z" fill="white"/>
<path d="M211.513 44.6787L210.978 50.8297H209.54L207.143 47.5465L206.856 50.8297H205.154L205.689 44.6787H207.127L209.524 47.9539L209.811 44.6787H211.513Z" fill="white"/>
<path d="M212.745 44.6787H215.685C217.722 44.6787 219.016 45.861 218.88 47.7542C218.744 49.6474 217.21 50.8297 215.173 50.8297H212.266L212.745 44.6787ZM215.141 49.4717C215.378 49.489 215.615 49.4589 215.839 49.383C216.064 49.3071 216.27 49.1871 216.448 49.03C216.625 48.8729 216.769 48.6819 216.871 48.4683C216.973 48.2547 217.032 48.0227 217.043 47.7862C217.08 47.5638 217.065 47.3358 216.999 47.1202C216.933 46.9045 216.819 46.707 216.664 46.543C216.509 46.379 216.319 46.2531 216.107 46.1749C215.896 46.0968 215.669 46.0686 215.445 46.0926H214.351L214.055 49.4717H215.141Z" fill="white"/>
<path d="M223.599 49.6314H221.003L220.412 50.8297H218.639L221.89 44.6787H223.607L225.788 50.8297H223.983L223.599 49.6314ZM223.208 48.3453L222.585 46.3802L221.626 48.3453H223.208Z" fill="white"/>
<path d="M229.113 49.192H228.17L228.027 50.7897H226.285L226.82 44.6387H229.632C231.31 44.6387 232.292 45.5014 232.165 46.9153C232.138 47.3344 231.995 47.7377 231.752 48.0804C231.51 48.4231 231.177 48.6918 230.791 48.8565L231.949 50.7897H230.064L229.113 49.192ZM229.409 46.0446H228.466L228.306 47.85H229.265C229.992 47.85 230.375 47.5145 230.423 46.9553C230.471 46.3961 230.128 46.0446 229.409 46.0446Z" fill="white"/>
<path d="M117.432 49.7592H116.634C116.47 49.7624 116.309 49.7309 116.159 49.6667C116.009 49.6026 115.874 49.5073 115.764 49.3872C115.654 49.2671 115.57 49.1249 115.519 48.97C115.468 48.8152 115.45 48.6513 115.467 48.4891L115.539 47.6903C115.574 47.3462 115.734 47.0269 115.989 46.7928C116.244 46.5588 116.575 46.4262 116.921 46.4201H117.72C117.883 46.417 118.045 46.4485 118.195 46.5127C118.345 46.5768 118.479 46.6721 118.589 46.7922C118.7 46.9123 118.783 47.0545 118.834 47.2093C118.886 47.3642 118.903 47.5281 118.886 47.6903L118.814 48.4891C118.779 48.8332 118.619 49.1525 118.364 49.3866C118.11 49.6206 117.778 49.7532 117.432 49.7592Z" fill="white"/>
<path d="M122.46 49.7593H121.662C121.499 49.7626 121.337 49.731 121.188 49.6668C121.038 49.6026 120.904 49.5072 120.794 49.3869C120.685 49.2666 120.602 49.1243 120.552 48.9695C120.502 48.8146 120.485 48.6509 120.503 48.4891L120.575 47.6903C120.61 47.3462 120.77 47.0269 121.025 46.7928C121.28 46.5588 121.611 46.4262 121.957 46.4202H122.756C122.919 46.4169 123.08 46.4484 123.23 46.5126C123.379 46.5768 123.514 46.6722 123.623 46.7925C123.733 46.9128 123.816 47.0551 123.866 47.2099C123.916 47.3648 123.933 47.5285 123.914 47.6903L123.85 48.4891C123.813 48.8339 123.652 49.1533 123.396 49.3872C123.14 49.6211 122.807 49.7534 122.46 49.7593Z" fill="white"/>
<path d="M127.472 49.7593H126.673C126.511 49.7626 126.349 49.731 126.199 49.6668C126.05 49.6026 125.916 49.5072 125.806 49.3869C125.696 49.2666 125.614 49.1243 125.563 48.9695C125.513 48.8146 125.497 48.6509 125.515 48.4891L125.587 47.6903C125.62 47.3469 125.779 47.0277 126.032 46.7935C126.285 46.5593 126.616 46.4264 126.961 46.4202H127.76C127.922 46.4169 128.084 46.4484 128.234 46.5126C128.383 46.5768 128.517 46.6722 128.627 46.7925C128.737 46.9128 128.819 47.0551 128.87 47.2099C128.92 47.3648 128.936 47.5285 128.918 47.6903L128.846 48.4891C128.813 48.8325 128.654 49.1517 128.401 49.3859C128.148 49.6202 127.817 49.753 127.472 49.7593Z" fill="white"/>
<path d="M253.965 152.376L253.861 153.519H249.867L249.947 152.616L252.016 150.827C252.455 150.443 252.535 150.211 252.559 150.028C252.559 149.692 252.384 149.5 251.944 149.5C251.756 149.5 251.571 149.544 251.404 149.631C251.237 149.717 251.094 149.842 250.986 149.996L249.971 149.397C250.219 149.048 250.552 148.767 250.937 148.58C251.322 148.393 251.748 148.306 252.176 148.326C253.35 148.326 254.109 148.933 254.029 149.884C253.984 150.207 253.871 150.517 253.696 150.793C253.521 151.069 253.288 151.304 253.015 151.482L251.976 152.376H253.965Z" fill="#263238"/>
<path d="M258.371 151.921C258.291 152.792 257.532 153.623 255.974 153.623C255.293 153.637 254.621 153.463 254.033 153.119L254.656 152.033C255.064 152.31 255.546 152.457 256.038 152.456C256.526 152.456 256.837 152.265 256.893 151.921C256.949 151.578 256.709 151.426 256.158 151.426H255.551L255.631 150.507L256.629 149.525H254.608L254.712 148.406H258.403L258.323 149.317L257.165 150.451C257.341 150.466 257.513 150.516 257.67 150.599C257.827 150.681 257.966 150.794 258.078 150.931C258.191 151.068 258.274 151.227 258.325 151.397C258.375 151.567 258.391 151.745 258.371 151.921Z" fill="#263238"/>
<path d="M293.147 88.6465H271.562L271.634 87.8477H293.219L293.147 88.6465Z" fill="white"/>
<path d="M282.034 92.248H271.25L271.314 91.4492H282.106L282.034 92.248Z" fill="white"/>
<path d="M287.961 147.879H266.377L266.449 147.08H288.033L287.961 147.879Z" fill="white"/>
<path d="M276.862 151.489H266.07L266.134 150.69H276.926L276.862 151.489Z" fill="white"/>
<path d="M290.577 118.067H268.992L269.056 117.269H290.64L290.577 118.067Z" fill="white"/>
<path d="M279.464 121.67H268.672L268.744 120.871H279.536L279.464 121.67Z" fill="white"/>
<path d="M293.355 82.8556C293.827 81.7212 293.523 80.8984 294.641 80.8984C295.76 80.8984 295.193 81.6973 295.592 82.8556C295.8 83.4227 295.049 83.3189 294.434 83.3189C293.819 83.3189 293.108 83.4387 293.355 82.8556Z" fill="white"/>
<path d="M294.61 81.2644C294.564 81.2646 294.517 81.255 294.474 81.2362C294.431 81.2173 294.393 81.1897 294.361 81.1551C294.33 81.1205 294.306 81.0796 294.291 81.0352C294.276 80.9907 294.27 80.9436 294.275 80.8969C294.286 80.798 294.333 80.7064 294.406 80.6389C294.48 80.5715 294.575 80.5326 294.674 80.5295C294.722 80.528 294.769 80.5367 294.812 80.5551C294.856 80.5735 294.895 80.6011 294.927 80.636C294.959 80.6709 294.983 80.7123 294.997 80.7573C295.011 80.8024 295.016 80.85 295.01 80.8969C295.002 80.9972 294.956 81.0908 294.882 81.1589C294.808 81.227 294.711 81.2647 294.61 81.2644ZM294.658 80.7212C294.611 80.7228 294.565 80.7413 294.53 80.7736C294.495 80.8058 294.472 80.8496 294.467 80.8969C294.464 80.9192 294.467 80.9417 294.474 80.963C294.481 80.9843 294.492 81.0038 294.507 81.0204C294.522 81.0369 294.541 81.0502 294.561 81.0592C294.582 81.0682 294.604 81.0728 294.626 81.0727C294.674 81.0711 294.72 81.0525 294.755 81.0203C294.79 80.988 294.812 80.9443 294.818 80.8969C294.82 80.8746 294.818 80.8521 294.811 80.8309C294.804 80.8096 294.792 80.79 294.777 80.7735C294.762 80.7569 294.744 80.7437 294.723 80.7347C294.703 80.7257 294.681 80.7211 294.658 80.7212Z" fill="white"/>
<path d="M290.775 112.636C291.246 111.501 290.943 110.687 292.061 110.687C293.179 110.687 292.612 111.485 293.012 112.636C293.219 113.203 292.468 113.107 291.853 113.107C291.238 113.107 290.503 113.203 290.775 112.636Z" fill="white"/>
<path d="M292.003 111.038C291.956 111.038 291.91 111.028 291.867 111.01C291.824 110.991 291.785 110.963 291.754 110.929C291.722 110.894 291.698 110.853 291.683 110.809C291.668 110.764 291.663 110.717 291.668 110.67C291.677 110.571 291.723 110.478 291.797 110.41C291.871 110.343 291.967 110.304 292.067 110.303C292.114 110.301 292.161 110.31 292.205 110.329C292.248 110.347 292.287 110.374 292.319 110.409C292.351 110.444 292.375 110.486 292.389 110.531C292.404 110.576 292.408 110.623 292.402 110.67C292.393 110.77 292.347 110.863 292.273 110.93C292.199 110.998 292.103 111.036 292.003 111.038ZM292.051 110.495C292.003 110.496 291.958 110.515 291.923 110.547C291.887 110.579 291.865 110.623 291.859 110.67C291.857 110.693 291.859 110.715 291.867 110.736C291.874 110.758 291.885 110.777 291.9 110.794C291.915 110.81 291.933 110.824 291.954 110.833C291.974 110.842 291.997 110.846 292.019 110.846C292.067 110.845 292.112 110.826 292.147 110.794C292.183 110.761 292.205 110.718 292.211 110.67C292.214 110.647 292.213 110.624 292.206 110.602C292.2 110.58 292.189 110.559 292.173 110.542C292.158 110.524 292.139 110.51 292.118 110.501C292.097 110.491 292.074 110.486 292.051 110.487V110.495Z" fill="white"/>
<path d="M288.146 142.375C288.618 141.241 288.314 140.418 289.432 140.418C290.551 140.418 289.984 141.217 290.383 142.375C290.591 142.934 289.84 142.838 289.225 142.838C288.61 142.838 287.899 142.99 288.146 142.375Z" fill="white"/>
<path d="M289.4 140.786C289.353 140.786 289.306 140.776 289.263 140.758C289.22 140.739 289.182 140.711 289.15 140.677C289.119 140.642 289.095 140.601 289.08 140.557C289.065 140.512 289.06 140.465 289.064 140.418C289.075 140.319 289.122 140.228 289.195 140.16C289.269 140.093 289.364 140.054 289.463 140.051C289.511 140.049 289.558 140.058 289.601 140.077C289.645 140.095 289.684 140.123 289.716 140.157C289.748 140.192 289.772 140.234 289.786 140.279C289.8 140.324 289.805 140.371 289.799 140.418C289.789 140.518 289.743 140.611 289.669 140.678C289.596 140.746 289.5 140.784 289.4 140.786ZM289.447 140.243C289.4 140.244 289.354 140.263 289.319 140.295C289.284 140.327 289.261 140.371 289.256 140.418C289.254 140.441 289.256 140.463 289.263 140.484C289.27 140.506 289.281 140.525 289.296 140.542C289.312 140.558 289.33 140.572 289.35 140.581C289.371 140.59 289.393 140.594 289.416 140.594C289.464 140.594 289.51 140.576 289.546 140.544C289.581 140.511 289.603 140.466 289.607 140.418C289.609 140.396 289.607 140.374 289.6 140.352C289.593 140.331 289.582 140.312 289.566 140.295C289.551 140.278 289.533 140.265 289.513 140.256C289.492 140.247 289.47 140.243 289.447 140.243Z" fill="white"/>
<path opacity="0.2" d="M125.29 28.8467L83.8711 183.763H97.8106L138.775 28.8467H125.29Z" fill="white"/>
<path opacity="0.2" d="M146.796 28.8467L105.377 183.763H133.016L173.98 28.8467H146.796Z" fill="white"/>
<path opacity="0.4" d="M98.8701 104.696C99.621 101.514 97.6505 98.3259 94.4688 97.575C91.287 96.824 88.099 98.7945 87.348 101.976C86.5971 105.158 88.5676 108.346 91.7493 109.097C94.931 109.848 98.1191 107.877 98.8701 104.696Z" fill="white"/>
<path opacity="0.4" d="M311.087 103.345C311.087 103.931 310.913 104.504 310.587 104.992C310.261 105.479 309.798 105.859 309.256 106.083C308.714 106.307 308.118 106.366 307.543 106.251C306.968 106.136 306.44 105.853 306.025 105.437C305.611 105.022 305.33 104.493 305.216 103.918C305.103 103.342 305.163 102.746 305.388 102.205C305.614 101.663 305.995 101.201 306.483 100.876C306.972 100.552 307.545 100.379 308.132 100.381C308.521 100.381 308.906 100.458 309.265 100.607C309.624 100.756 309.95 100.974 310.225 101.249C310.499 101.525 310.717 101.851 310.865 102.211C311.013 102.571 311.089 102.956 311.087 103.345Z" fill="white"/>
<path d="M269.766 50.8864C269.737 51.1691 269.606 51.4314 269.397 51.6241C269.188 51.8168 268.916 51.9266 268.632 51.9329C268.498 51.9348 268.366 51.9083 268.243 51.8551C268.121 51.8018 268.011 51.7231 267.921 51.6241C267.831 51.5252 267.763 51.4082 267.722 51.281C267.68 51.1538 267.667 51.0193 267.682 50.8864C267.711 50.6045 267.842 50.3431 268.051 50.1517C268.261 49.9604 268.532 49.8523 268.816 49.8479C268.949 49.8448 269.082 49.8703 269.204 49.9226C269.327 49.9749 269.437 50.0528 269.527 50.1512C269.617 50.2496 269.685 50.3661 269.726 50.4929C269.768 50.6197 269.781 50.7539 269.766 50.8864Z" fill="white"/>
<path d="M270.915 47.7866L270.412 48.6414C269.835 48.3921 269.211 48.2695 268.582 48.2819C268.013 48.2805 267.451 48.4061 266.937 48.6494L266.529 47.7946C267.216 47.4758 267.965 47.3105 268.722 47.3105C269.48 47.3105 270.228 47.4758 270.915 47.7946V47.7866Z" fill="white"/>
<path d="M272.332 45.3742L271.821 46.237C270.865 45.7878 269.817 45.5689 268.761 45.5979C267.739 45.5986 266.731 45.8336 265.813 46.2849L265.414 45.4381C266.481 44.9078 267.657 44.6342 268.849 44.6393C270.052 44.6022 271.246 44.8543 272.332 45.3742Z" fill="white"/>
<path d="M273.754 42.9211L273.242 43.8078C271.905 43.1534 270.424 42.8457 268.937 42.9131C267.455 42.8997 265.992 43.2335 264.663 43.8877L264.271 43.0889C265.748 42.3554 267.376 41.9753 269.024 41.9785C270.654 41.8993 272.279 42.2231 273.754 42.9211Z" fill="white"/>
<path d="M287.866 52.1001C287.209 52.1106 286.556 51.9813 285.953 51.7208C285.349 51.4602 284.807 51.0743 284.364 50.5886C283.921 50.103 283.585 49.5286 283.381 48.9037C283.176 48.2787 283.107 47.6174 283.177 46.9636C283.321 45.5723 283.969 44.2819 284.999 43.3357C286.03 42.3894 287.37 41.8529 288.769 41.8271V42.0508C287.432 42.0753 286.151 42.5888 285.168 43.4941C284.185 44.3994 283.567 45.6338 283.433 46.9636C283.365 47.5889 283.43 48.2214 283.625 48.8193C283.821 49.4172 284.141 49.9667 284.565 50.4314C284.988 50.896 285.506 51.2652 286.084 51.5143C286.661 51.7635 287.285 51.8869 287.914 51.8764L287.866 52.1001Z" fill="white"/>
<path d="M288.051 52.2993H287.851C287.167 52.3151 286.487 52.1841 285.857 51.9151C285.227 51.6461 284.663 51.2452 284.201 50.7396C283.739 50.234 283.391 49.6353 283.18 48.9839C282.969 48.3325 282.901 47.6434 282.978 46.9631C283.13 45.5188 283.804 44.1795 284.873 43.1969C285.942 42.2143 287.334 41.656 288.786 41.627H288.985L288.93 42.25H288.73C287.448 42.2746 286.219 42.7675 285.276 43.6358C284.333 44.5041 283.74 45.6877 283.609 46.9631C283.543 47.5629 283.606 48.1699 283.793 48.7436C283.98 49.3173 284.287 49.8447 284.694 50.2905C285.1 50.7364 285.597 51.0906 286.151 51.3295C286.705 51.5684 287.304 51.6866 287.907 51.6762H288.107L288.051 52.2993Z" fill="white"/>
<path d="M287.867 52.0999V51.8762C289.204 51.8517 290.485 51.3382 291.468 50.4329C292.451 49.5276 293.069 48.2932 293.203 46.9634C293.271 46.3382 293.206 45.7056 293.011 45.1077C292.815 44.5098 292.495 43.9603 292.071 43.4956C291.648 43.031 291.13 42.6618 290.552 42.4127C289.975 42.1635 289.351 42.0401 288.722 42.0506V41.8269C289.38 41.8149 290.032 41.9433 290.636 42.2035C291.24 42.4637 291.782 42.8498 292.225 43.3359C292.668 43.822 293.002 44.397 293.205 45.0225C293.408 45.6481 293.476 46.3097 293.403 46.9634C293.262 48.346 292.622 49.6299 291.603 50.5751C290.585 51.5204 289.256 52.0624 287.867 52.0999Z" fill="white"/>
<path d="M287.848 52.2994H287.648L287.704 51.6763H287.904C289.186 51.6518 290.414 51.1588 291.358 50.2905C292.301 49.4223 292.894 48.2387 293.025 46.9633C293.09 46.3634 293.028 45.7565 292.841 45.1828C292.654 44.609 292.347 44.0817 291.94 43.6358C291.534 43.19 291.037 42.8358 290.483 42.5969C289.929 42.3579 289.33 42.2398 288.727 42.2502H288.527L288.583 41.6271H288.783C289.467 41.6124 290.146 41.7443 290.774 42.0138C291.403 42.2834 291.967 42.6843 292.428 43.1898C292.888 43.6953 293.236 44.2936 293.446 44.9444C293.657 45.5953 293.725 46.2837 293.648 46.9633C293.5 48.4076 292.828 49.7477 291.76 50.7308C290.691 51.7139 289.3 52.2719 287.848 52.2994Z" fill="white"/>
<path d="M290.942 46.9633H290.718C290.862 45.3017 290.215 43.073 288.689 42.0345L288.825 41.8428C290.415 42.9292 291.094 45.2378 290.942 46.9633Z" fill="white"/>
<path d="M291.125 47.1316H290.501V46.9319C290.637 45.3342 290.014 43.1694 288.544 42.1389L288.393 42.035L288.776 41.5078L288.928 41.6117C290.573 42.73 291.324 45.1185 291.125 46.8999V47.1316Z" fill="white"/>
<path d="M287.95 51.9252L287.838 51.7335C288.647 51.1691 289.324 50.4364 289.823 49.5856C290.322 48.7349 290.632 47.7862 290.73 46.8047H290.961C290.857 47.8245 290.534 48.8097 290.014 49.6933C289.494 50.577 288.79 51.3382 287.95 51.9252Z" fill="white"/>
<path d="M287.858 52.2038L287.57 51.6766L287.746 51.5728C288.529 51.0232 289.183 50.3098 289.664 49.4822C290.144 48.6546 290.438 47.7325 290.526 46.7798V46.5801H291.149V46.7798C291.04 47.8342 290.705 48.8527 290.166 49.7654C289.626 50.6782 288.897 51.4636 288.026 52.068L287.858 52.2038Z" fill="white"/>
<path d="M285.919 46.9633H285.695C285.798 45.9431 286.121 44.9572 286.641 44.0734C287.16 43.1896 287.865 42.4286 288.707 41.8428L288.811 42.0345C288.003 42.6004 287.327 43.3335 286.828 44.1839C286.329 45.0344 286.019 45.9823 285.919 46.9633Z" fill="white"/>
<path d="M286.1 47.1309H285.477V46.9312C285.584 45.8772 285.918 44.859 286.456 43.9462C286.994 43.0335 287.722 42.2477 288.592 41.6429L288.768 41.5391L289.063 42.0663L288.888 42.1701C288.104 42.7197 287.448 43.4329 286.967 44.2604C286.486 45.0879 286.19 46.01 286.1 46.9631V47.1309Z" fill="white"/>
<path d="M287.82 51.9252C286.222 50.8388 285.559 48.5302 285.703 46.8047H285.934C285.791 48.4662 286.438 50.695 287.963 51.7335L287.82 51.9252Z" fill="white"/>
<path d="M287.857 52.2041L287.697 52.1003C286.052 50.9819 285.349 48.5934 285.501 46.812V46.6123H286.124V46.812C285.98 48.4097 286.603 50.5745 288.073 51.605L288.233 51.7088L287.857 52.2041Z" fill="white"/>
<path d="M287.989 51.9877H287.766L288.644 41.9385H288.876L287.989 51.9877Z" fill="white"/>
<path d="M288.17 52.1879H287.547L288.466 41.7393H289.089L288.17 52.1879Z" fill="white"/>
<path d="M292.799 44.3985H284.291L284.315 44.1748H292.814L292.799 44.3985Z" fill="white"/>
<path d="M292.981 44.5987H284.074L284.13 43.9756H293.029L292.981 44.5987Z" fill="white"/>
<path d="M293.323 47.1631H283.281L283.297 46.9395H293.338L293.323 47.1631Z" fill="white"/>
<path d="M293.507 47.3623H283.059L283.115 46.7393H293.563L293.507 47.3623Z" fill="white"/>
<path d="M292.198 49.919H283.922L283.938 49.6953H292.222L292.198 49.919Z" fill="white"/>
<path d="M292.381 50.1182H283.697L283.753 49.4951H292.436L292.381 50.1182Z" fill="white"/>
<path d="M197.743 284.208L203.423 279.495L189.092 265.891L182.973 271.115L197.743 284.208Z" fill="#CB7A63"/>
<path d="M208.042 277.673C207.393 277.477 206.696 277.511 206.069 277.768C205.685 277.88 205.27 278.008 204.934 278.144C204.599 278.28 204.399 278.344 204.192 278.432L203.552 278.711C203.518 278.724 203.488 278.747 203.467 278.777C203.445 278.807 203.434 278.842 203.433 278.879C203.423 278.905 203.423 278.933 203.433 278.959C203.461 279.001 203.504 279.032 203.552 279.047C204.361 279.261 205.187 279.4 206.021 279.462C206.427 279.517 206.841 279.487 207.235 279.374H207.291C207.516 279.302 207.733 279.205 207.938 279.087C208.068 278.98 208.17 278.844 208.236 278.69C208.301 278.535 208.328 278.367 208.313 278.2C208.317 278.096 208.294 277.993 208.246 277.901C208.199 277.809 208.128 277.73 208.042 277.673ZM207.962 278.192C207.98 278.305 207.966 278.42 207.922 278.526C207.879 278.632 207.807 278.723 207.714 278.791C207.524 278.931 207.302 279.022 207.067 279.055C206.746 279.113 206.418 279.129 206.093 279.103C205.586 279.077 205.081 279.016 204.583 278.919L204.207 278.839C204.884 278.516 205.594 278.269 206.324 278.104C206.713 278.01 207.108 277.943 207.507 277.904C207.627 277.901 207.746 277.931 207.85 277.992C207.884 278.013 207.912 278.043 207.931 278.078C207.951 278.113 207.961 278.152 207.962 278.192Z" fill="#71389A"/>
<path d="M205.429 274.676C205.247 274.705 205.072 274.772 204.917 274.873C204.761 274.973 204.629 275.105 204.527 275.259C204.463 275.354 204.409 275.456 204.367 275.563C204.055 276.486 203.995 277.476 204.191 278.43C204.191 278.43 204.191 278.47 204.191 278.47C204.196 278.503 204.209 278.534 204.23 278.56C204.252 278.585 204.28 278.604 204.311 278.614C204.329 278.622 204.348 278.626 204.367 278.626C204.386 278.626 204.405 278.622 204.423 278.614C204.451 278.611 204.477 278.596 204.495 278.574C204.648 278.438 204.792 278.291 204.926 278.135C205.179 277.835 205.406 277.514 205.605 277.176C206.1 276.378 206.452 275.467 206.236 274.996C206.156 274.796 205.949 274.588 205.429 274.676ZM205.909 275.147C206.045 275.459 205.773 276.17 205.374 276.873C205.13 277.302 204.841 277.704 204.511 278.071C204.4 277.349 204.439 276.613 204.623 275.906C204.669 275.753 204.739 275.607 204.83 275.475C204.96 275.278 205.155 275.134 205.382 275.067H205.493C205.829 274.988 205.893 275.115 205.909 275.147Z" fill="#71389A"/>
<path d="M202.689 279.15L195.547 282.784C195.411 282.849 195.302 282.96 195.24 283.098C195.179 283.235 195.169 283.391 195.212 283.535L197.321 290.221C197.371 290.38 197.453 290.527 197.561 290.654C197.669 290.78 197.802 290.884 197.951 290.958C198.1 291.033 198.262 291.076 198.428 291.087C198.595 291.098 198.761 291.075 198.918 291.02L199.046 290.972C211.276 286.667 215.023 283.623 216.309 282.928C219.952 280.939 217.907 278.359 216.541 278.678C210.437 280.14 208.392 279.765 205.748 279.086C204.738 278.864 203.689 278.886 202.689 279.15Z" fill="#263238"/>
<path opacity="0.2" d="M189.092 265.897L196.353 272.328L190.234 277.552L182.973 271.122L189.092 265.897Z" fill="black"/>
<path d="M186.841 277.503L195.964 269.084L193.959 265.553L183.398 274.619L186.841 277.503Z" fill="#71389A"/>
<path d="M192.523 266.808L191.301 267.863L189.479 269.46L188.385 270.395L185.19 273.127L184.575 273.654C184.575 273.654 171.57 266.329 164.332 260.074C159.372 255.785 158.924 254.195 158.397 254.594C151.407 259.914 130.718 278.303 118.983 287.873C118.607 287.921 118.224 287.953 117.84 287.985C111.578 288.441 106.657 287.762 102.823 286.3C102.783 281.211 107.128 269.333 107.488 268.182C107.488 268.182 124.79 250.976 152.837 236.421C153.109 236.285 153.396 236.165 153.684 236.045C153.971 235.926 154.411 235.734 154.778 235.606C156.151 235.058 157.601 234.729 159.076 234.632C160.319 234.582 161.559 234.777 162.727 235.207C163.394 235.442 164.043 235.728 164.668 236.061C165.217 236.347 165.75 236.662 166.265 237.004C167.128 237.555 167.967 238.17 168.766 238.777C170.555 240.159 184.103 257.606 191.389 265.658C191.812 266.01 192.171 266.433 192.523 266.808Z" fill="#71389A"/>
<path d="M192.523 266.808L191.301 267.863L189.479 269.46L188.385 270.395L185.19 273.127L184.575 273.654C184.575 273.654 171.57 266.329 164.332 260.074C159.372 255.785 158.924 254.195 158.397 254.594C151.407 259.914 130.718 278.303 118.983 287.873C118.607 287.921 118.224 287.953 117.84 287.985C111.578 288.441 106.657 287.762 102.823 286.3C102.783 281.211 107.128 269.333 107.488 268.182C107.488 268.182 124.79 250.976 152.837 236.421C153.109 236.285 153.396 236.165 153.684 236.045C153.971 235.926 154.411 235.734 154.778 235.606C156.151 235.058 157.601 234.729 159.076 234.632C160.319 234.582 161.559 234.777 162.727 235.207C163.394 235.442 164.043 235.728 164.668 236.061C165.217 236.347 165.75 236.662 166.265 237.004C167.128 237.555 167.967 238.17 168.766 238.777C170.555 240.159 184.103 257.606 191.389 265.658C191.812 266.01 192.171 266.433 192.523 266.808Z" fill="black"/>
<path d="M201.019 287.785L207.178 281.778L195.26 266.808L187.814 271.201L201.019 287.785Z" fill="#CB7A63"/>
<path d="M213.466 279.933C212.779 279.693 211.382 280.46 210.271 281.139L209.56 281.61L209.448 281.69L208.969 282.033C208.933 282.053 208.905 282.085 208.89 282.122C208.874 282.16 208.871 282.202 208.881 282.241C208.891 282.281 208.914 282.316 208.945 282.342C208.977 282.368 209.016 282.383 209.057 282.385C209.793 282.413 210.529 282.389 211.262 282.313L211.741 282.257C212.272 282.219 212.784 282.042 213.227 281.746C213.382 281.643 213.529 281.528 213.666 281.402C213.782 281.264 213.861 281.098 213.896 280.921C213.93 280.743 213.92 280.56 213.866 280.388C213.838 280.287 213.788 280.193 213.718 280.114C213.649 280.036 213.563 279.973 213.466 279.933ZM213.466 280.5C213.508 280.615 213.518 280.74 213.495 280.86C213.473 280.981 213.419 281.094 213.339 281.187C213.009 281.513 212.583 281.726 212.124 281.794C211.584 281.92 211.033 281.995 210.479 282.017C210.223 282.017 209.952 282.017 209.68 282.017L209.944 281.81L210.135 281.674C210.992 281.072 211.935 280.604 212.931 280.284C213.054 280.248 213.184 280.248 213.307 280.284C213.36 280.291 213.409 280.317 213.445 280.356C213.482 280.395 213.503 280.446 213.506 280.5H213.466Z" fill="#71389A"/>
<path d="M210.046 277.392C209.865 277.464 209.701 277.572 209.564 277.709C209.426 277.846 209.319 278.011 209.247 278.191C208.744 279.421 209.487 281.307 209.615 281.602C209.628 281.634 209.65 281.663 209.678 281.684C209.706 281.705 209.74 281.718 209.774 281.722C209.813 281.734 209.855 281.734 209.894 281.722C209.908 281.72 209.921 281.715 209.933 281.707C209.944 281.698 209.953 281.687 209.958 281.674C210.087 281.504 210.199 281.322 210.294 281.131C210.885 280.021 211.436 278.167 210.957 277.528C210.829 277.352 210.565 277.193 210.046 277.392ZM209.846 281.155C209.631 280.524 209.247 279.19 209.599 278.359C209.688 278.122 209.861 277.925 210.086 277.808L210.19 277.752C210.533 277.616 210.621 277.752 210.653 277.752C210.997 278.247 210.469 280.132 209.846 281.187V281.155Z" fill="#71389A"/>
<path opacity="0.2" d="M194.636 265.891L200.243 273.072L192.655 277.298L186.959 270.308L194.636 265.891Z" fill="black"/>
<path d="M199.344 269.101L197.786 269.979L195.11 271.489L192.713 272.831L190.245 274.221L189.326 274.796L188.735 274.365L188.232 273.998C187.641 273.558 186.826 272.943 185.835 272.192C180.875 268.27 172.048 260.569 169.42 253.564C167.718 255.593 165.737 258.181 163.356 260.937C144.84 282.433 125.061 297.587 97.9004 291.06C86.1018 288.225 86.5491 271.889 86.5491 271.889C86.5491 265.714 91.1264 259.363 91.1264 259.363L127.257 262.167C132.258 256.096 142.275 246.59 152.524 240.599C152.764 240.447 153.012 240.303 153.259 240.175C153.507 240.047 153.874 239.824 154.178 239.656C157.267 237.907 160.57 236.564 164.003 235.662C164.706 235.494 165.401 235.342 166.08 235.246C166.784 235.139 167.494 235.069 168.205 235.039C173.062 234.815 177.28 236.636 180.14 241.469L198.808 268.374L199.344 269.101Z" fill="#71389A"/>
<path opacity="0.5" d="M199.344 269.101L197.786 269.979L195.11 271.489L192.713 272.831L190.245 274.221L189.326 274.796L188.735 274.365L188.232 273.998C187.641 273.558 186.826 272.943 185.835 272.192C180.875 268.27 172.048 260.569 169.42 253.564C167.718 255.593 165.737 258.181 163.356 260.937C144.84 282.433 125.061 297.587 97.9004 291.06C86.1018 288.225 86.5491 271.889 86.5491 271.889C86.5491 265.714 91.1264 259.363 91.1264 259.363L127.257 262.167C132.258 256.096 142.275 246.59 152.524 240.599C152.764 240.447 153.012 240.303 153.259 240.175C153.507 240.047 153.874 239.824 154.178 239.656C157.267 237.907 160.57 236.564 164.003 235.662C164.706 235.494 165.401 235.342 166.08 235.246C166.784 235.139 167.494 235.069 168.205 235.039C173.062 234.815 177.28 236.636 180.14 241.469L198.808 268.374L199.344 269.101Z" fill="black"/>
<path d="M187.79 276.474L199.724 270.506L198.702 266.265L185.098 272.472L187.79 276.474Z" fill="#71389A"/>
<path d="M206.7 281.131L198.472 283.624C198.316 283.668 198.181 283.766 198.09 283.901C197.999 284.035 197.959 284.197 197.977 284.359L198.975 291.82C199.036 292.168 199.23 292.479 199.517 292.686C199.803 292.894 200.159 292.981 200.509 292.93H200.653C214.393 290.637 218.93 288.137 220.408 287.61C224.634 286.18 222.94 283.072 221.446 283.16C214.712 283.576 212.619 282.801 209.951 281.563C208.919 281.154 207.803 281.006 206.7 281.131Z" fill="#263238"/>
<path d="M165.406 242.124H139.844C139.676 242.127 139.509 242.094 139.355 242.028C139.2 241.962 139.062 241.863 138.949 241.739C138.835 241.616 138.75 241.469 138.697 241.309C138.645 241.149 138.627 240.981 138.646 240.814L140.068 224.469C140.103 224.115 140.267 223.785 140.529 223.544C140.791 223.302 141.133 223.165 141.489 223.159H167.052C167.22 223.156 167.387 223.189 167.541 223.255C167.695 223.321 167.834 223.42 167.947 223.544C168.061 223.667 168.146 223.814 168.199 223.974C168.251 224.134 168.268 224.302 168.25 224.469L166.82 240.822C166.782 241.173 166.617 241.498 166.357 241.738C166.097 241.977 165.76 242.114 165.406 242.124Z" fill="#263238"/>
<path opacity="0.9" d="M165.418 240.838H140.902L142.348 224.382H166.856L165.418 240.838Z" fill="white"/>
<path opacity="0.4" d="M141.257 231.915C141.257 232.06 141.214 232.2 141.134 232.32C141.053 232.44 140.939 232.533 140.806 232.588C140.673 232.643 140.526 232.656 140.385 232.628C140.244 232.599 140.114 232.529 140.013 232.427C139.911 232.324 139.843 232.194 139.816 232.052C139.789 231.911 139.804 231.764 139.86 231.632C139.917 231.499 140.011 231.386 140.132 231.307C140.252 231.228 140.394 231.187 140.538 231.189C140.633 231.189 140.727 231.207 140.815 231.244C140.902 231.281 140.982 231.334 141.049 231.402C141.116 231.47 141.169 231.55 141.204 231.638C141.24 231.726 141.258 231.82 141.257 231.915Z" fill="black"/>
<path opacity="0.4" d="M167.276 231.548C167.276 231.619 167.254 231.689 167.215 231.748C167.175 231.807 167.119 231.853 167.054 231.88C166.988 231.907 166.916 231.914 166.846 231.901C166.776 231.887 166.712 231.852 166.662 231.802C166.612 231.752 166.577 231.688 166.564 231.618C166.55 231.548 166.557 231.476 166.584 231.41C166.611 231.345 166.657 231.289 166.716 231.249C166.776 231.21 166.845 231.188 166.916 231.188C167.011 231.188 167.103 231.226 167.17 231.294C167.238 231.361 167.276 231.453 167.276 231.548Z" fill="black"/>
<path d="M105.081 194.914C105.991 199.915 104.665 206.617 101.143 209.9C105.137 217.489 111.104 224.838 116.704 231.309C124.628 218.591 117.83 210.323 117.83 210.323C112.278 208.926 112.446 206.673 113.461 202.822L105.081 194.914Z" fill="#CB7A63"/>
<path d="M101.404 207.735C101.986 206.451 102.982 205.399 104.232 204.747C105.446 204.037 117.013 205.371 119.849 206.729C121.529 207.505 122.867 208.869 123.612 210.563L101.404 207.735Z" fill="#71389A"/>
<path d="M133.988 190.76L139.132 193.156C139.551 194.501 139.698 195.916 139.563 197.318C139.268 199.076 138.477 199.659 135.569 198.445C132.981 195.169 133.988 190.76 133.988 190.76Z" fill="#CB7A63"/>
<path d="M137.399 187.509L137.974 188.739L138.997 189.322C139.261 189.485 139.468 189.727 139.587 190.014C139.706 190.3 139.731 190.617 139.66 190.92L139.125 193.124L133.988 190.728L134.963 188.787C135.858 187.421 136.561 187.029 137.311 187.389L137.399 187.509Z" fill="#CB7A63"/>
<path d="M131.946 219.613C134.894 213.151 136.132 210.123 139.344 198.165L135.078 197.686C130.804 209.117 125.899 213.966 125.899 213.966C125.899 213.966 101.839 209.916 98.8511 211.33C94.0102 213.614 96.5984 218.607 99.6499 219.869C102.701 221.131 119.932 223.967 127.904 222.984C128.811 222.816 129.658 222.418 130.366 221.827C131.074 221.237 131.618 220.475 131.946 219.613Z" fill="#CB7A63"/>
<path d="M150.477 192.724L150.46 192.741L150.451 192.732L150.477 192.724Z" fill="black"/>
<path d="M132.306 219.725C137.147 235.374 121.034 237.627 125.116 262.798L91.1582 259.323C93.0354 246.35 97.3012 249.737 94.3056 224.502C94.05 222.369 93.9461 216.314 96.8379 211.186C97.9523 209.177 99.7277 207.616 101.862 206.768C104.531 205.738 115.443 208.182 120.395 209.165C125.907 209.077 131.547 217.752 132.306 219.725Z" fill="#71389A"/>
<path d="M125.185 189.634C124.866 190.209 124.929 190.8 125.289 191C125.648 191.2 126.192 190.92 126.503 190.361C126.815 189.802 126.759 189.195 126.399 188.995C126.04 188.795 125.489 189.083 125.185 189.634Z" fill="#263238"/>
<path d="M126.215 188.938L127.757 189.289C127.757 189.289 126.502 189.952 126.215 188.938Z" fill="#263238"/>
<path d="M125.283 190.808C125.578 192.327 126.084 193.797 126.785 195.177C126.425 195.345 126.032 195.431 125.635 195.431C125.237 195.431 124.845 195.345 124.484 195.177L125.283 190.808Z" fill="#A02724"/>
<path d="M127.614 185.639C127.674 185.616 127.728 185.578 127.77 185.53C127.811 185.481 127.84 185.422 127.854 185.359C127.872 185.262 127.852 185.161 127.796 185.078C127.741 184.996 127.655 184.939 127.558 184.92C126.98 184.798 126.381 184.816 125.811 184.973C125.241 185.13 124.717 185.421 124.283 185.822C124.24 185.853 124.205 185.891 124.178 185.936C124.151 185.981 124.134 186.031 124.128 186.083C124.121 186.135 124.126 186.187 124.141 186.237C124.156 186.287 124.182 186.333 124.216 186.373C124.25 186.413 124.292 186.445 124.339 186.467C124.386 186.49 124.437 186.502 124.489 186.504C124.541 186.505 124.593 186.496 124.642 186.476C124.69 186.457 124.734 186.427 124.77 186.39L124.818 186.342C125.167 186.031 125.583 185.808 126.034 185.688C126.485 185.569 126.958 185.557 127.414 185.655C127.481 185.67 127.551 185.664 127.614 185.639Z" fill="#263238"/>
<path d="M104.744 184.057C103.826 191.798 103.267 195.057 106.422 199.691C111.167 206.656 120.897 206.081 124.1 198.788C126.992 192.198 128.014 180.646 121.072 176.237C119.546 175.255 117.794 174.679 115.983 174.566C114.172 174.452 112.362 174.804 110.725 175.588C109.088 176.372 107.679 177.562 106.632 179.044C105.585 180.527 104.935 182.253 104.744 184.057Z" fill="#CB7A63"/>
<path d="M124.291 198.324C123.717 197.795 123.295 197.122 123.069 196.375C123.062 196.333 123.07 196.291 123.092 196.256C123.114 196.22 123.149 196.194 123.189 196.183C123.229 196.175 123.271 196.182 123.306 196.203C123.341 196.223 123.368 196.256 123.381 196.295C123.583 196.938 123.94 197.522 124.419 197.996L124.291 198.324Z" fill="#263238"/>
<path d="M129.986 181.533C130.002 182.334 129.717 183.111 129.188 183.712C128.658 184.313 127.922 184.692 127.126 184.776C126.088 187.588 123.212 191.878 120.687 190.256C122.157 190.208 124.841 186.877 122.573 184.273C120.911 182.372 118.658 177.379 122.573 176.157C125.6 175.214 129.978 178.466 129.986 181.533Z" fill="#263238"/>
<path d="M123.207 178.378C122.112 173.848 115.586 170.317 110.929 170.461C106.272 170.605 101.99 173.153 98.5789 176.325C96.8055 177.97 95.1519 179.887 94.5208 182.228C93.8897 184.569 94.5208 187.38 96.5658 188.699C89.1367 196.024 94.6646 198.995 95.767 198.492C95.9267 200.329 94.6726 201.416 92.9871 202.622C91.4853 203.692 91.1098 204.963 90.5906 206.728C90.0713 208.493 90.5906 210.722 92.1882 211.521C92.0738 211.248 92.0181 210.953 92.0248 210.657C92.0314 210.36 92.1002 210.069 92.2267 209.801C92.3532 209.533 92.5346 209.294 92.7592 209.1C92.9837 208.907 93.2464 208.763 93.5303 208.677C93.1336 209.598 93.0242 210.617 93.2165 211.601C93.4087 212.585 93.8936 213.487 94.6076 214.191C95.3216 214.895 96.2314 215.366 97.218 215.544C98.2046 215.722 99.2218 215.598 100.137 215.188C99.4016 215.004 98.3712 214.285 98.2513 213.534C100.361 214.438 102.597 215.009 104.882 215.228C107.174 215.315 109.619 214.573 111.033 212.767C111.12 211.457 112.894 210.147 114.228 210.195C114.886 210.238 115.505 210.525 115.964 210.998C116.423 211.472 116.69 212.1 116.712 212.759C118.166 212.44 118.765 210.834 118.845 209.356C118.877 208.568 118.637 207.793 118.166 207.159C117.898 206.845 117.57 206.587 117.201 206.402C116.832 206.217 116.429 206.108 116.017 206.081C115.309 205.875 114.709 205.398 114.348 204.755C114.21 204.393 114.171 204.002 114.234 203.62C114.297 203.238 114.461 202.88 114.707 202.582C120.483 194.338 117.759 189.21 118.142 188.203C118.526 187.197 120.379 188.491 120.379 188.491C122.056 186.374 123.822 181.014 123.207 178.378Z" fill="#263238"/>
<path d="M114.633 189.705C114.49 191.5 115.064 193.278 116.231 194.65C117.788 196.463 119.889 195.385 120.552 193.228C121.159 191.287 121.071 188.004 118.955 186.981C116.838 185.959 114.825 187.516 114.633 189.705Z" fill="#CB7A63"/>
<path d="M91.1535 256.704L89.9793 259.675C89.8355 259.899 90.0991 260.163 90.4825 260.203L125.455 263.797C125.759 263.797 126.03 263.701 126.07 263.51L125.607 260.179C125.655 259.979 125.399 259.771 125.064 259.739L91.7447 256.544C91.6407 256.518 91.5319 256.519 91.4284 256.547C91.325 256.575 91.2304 256.629 91.1535 256.704Z" fill="#71389A"/>
<path d="M121.786 263.708H120.86C120.676 263.708 120.532 263.612 120.548 263.501L121.035 259.507C121.035 259.395 121.211 259.299 121.395 259.299H122.321C122.505 259.299 122.649 259.395 122.633 259.515L122.146 263.509C122.13 263.612 121.97 263.708 121.786 263.708Z" fill="#263238"/>
<path d="M109.28 262.286H108.354C108.178 262.286 108.034 262.183 108.05 262.071L108.537 258.077C108.537 257.965 108.713 257.877 108.897 257.877H109.823C109.999 257.877 110.151 257.973 110.127 258.101L109.648 262.055C109.632 262.207 109.44 262.286 109.28 262.286Z" fill="#71389A"/>
<path d="M109.28 262.286H108.354C108.178 262.286 108.034 262.183 108.05 262.071L108.537 258.077C108.537 257.965 108.713 257.877 108.897 257.877H109.823C109.999 257.877 110.151 257.973 110.127 258.101L109.648 262.055C109.632 262.207 109.44 262.286 109.28 262.286Z" fill="#263238"/>
<path opacity="0.2" d="M117.622 218.599C117.622 218.599 115.314 222.09 119.348 232.602L121.049 236.892C121.609 238.314 126.785 236.229 128.542 233.928C128.542 233.928 119.995 227.202 117.622 218.599Z" fill="black"/>
<path d="M157.61 239.649L163.904 235.87L163.857 241.63C163.857 241.63 159.064 245.568 156.939 242.429C156.939 242.444 156.228 240.24 157.61 239.649Z" fill="#CB7A63"/>
<path d="M168.355 237.715L168.092 239.808C168.054 240.125 167.915 240.42 167.697 240.652C167.478 240.883 167.191 241.039 166.878 241.094L163.834 241.63L163.882 235.87L166.941 236.062C167.135 236.068 167.326 236.112 167.502 236.193C167.679 236.273 167.838 236.387 167.97 236.529C168.102 236.671 168.205 236.837 168.272 237.019C168.34 237.201 168.371 237.394 168.363 237.588C168.364 237.63 168.362 237.673 168.355 237.715Z" fill="#CB7A63"/>
<path d="M128.652 243.354C130.777 247.157 134.013 250.544 138.15 251.894C143.023 253.491 154.239 247.157 159.335 243.154C159.335 241.189 158.912 240.662 157.019 240.143C157.019 240.143 151.595 243.154 141.961 244.137C138.845 244.456 137.224 241.109 135.155 236.276C134.124 233.88 130.13 219.405 128.764 217.153C126.607 213.534 118.979 214.964 120.888 223.248C121.711 226.754 126.919 240.247 128.652 243.354Z" fill="#CB7A63"/>
<path d="M129.7 214.485C134.302 219.917 135.756 228.688 135.756 228.688L122.671 234.552C122.671 234.552 115.369 220.972 117.51 216.818C119.188 213.623 121.784 211.689 124.852 211.889C125.793 211.972 126.708 212.245 127.541 212.691C128.375 213.138 129.109 213.748 129.7 214.485Z" fill="#71389A"/>
<path d="M95.5002 261.025L94.5735 260.929C94.3978 260.889 94.262 260.81 94.286 260.69L95.0848 256.783C95.0848 256.664 95.2765 256.592 95.4602 256.608L96.3869 256.704C96.5626 256.704 96.6984 256.831 96.6744 256.943L95.8756 260.857C95.8455 260.927 95.7902 260.983 95.7206 261.015C95.6511 261.046 95.5724 261.049 95.5002 261.025Z" fill="#263238"/>
<path d="M91.7861 256.118L91.709 256.913L125.031 260.145L125.109 259.35L91.7861 256.118Z" fill="#263238"/>
</svg>
