<svg width="202" height="232" viewBox="0 0 202 232" fill="none" xmlns="http://www.w3.org/2000/svg">
<path d="M157.666 116.565L160.688 114.858C160.688 114.858 176.737 62.5088 178.231 59.4782C179.725 56.4475 177.028 54.8938 174.133 56.5585L23.489 143.38C20.6035 145.088 19.6901 147.341 17.1204 152.335C14.5508 157.33 0.04637 205.436 0.04637 205.436C-0.0566162 205.983 0.0129043 206.549 0.245349 207.055C0.477794 207.561 0.861684 207.983 1.34399 208.262L35.6372 228.127L193.222 137.182L157.666 116.565Z" fill="#71389A"/>
<path opacity="0.35" d="M157.666 116.565L160.688 114.858C160.688 114.858 176.737 62.5088 178.231 59.4782C179.725 56.4475 177.028 54.8938 174.133 56.5585L23.489 143.38C20.6035 145.088 19.6901 147.341 17.1204 152.335C14.5508 157.33 0.04637 205.436 0.04637 205.436C-0.0566162 205.983 0.0129043 206.549 0.245349 207.055C0.477794 207.561 0.861684 207.983 1.34399 208.262L35.6372 228.127L193.222 137.182L157.666 116.565Z" fill="white"/>
<path d="M19.0135 153.546C17.0585 157.328 1.93945 206.476 1.93945 206.476L162.598 113.712C162.598 113.712 178.528 63.7623 180.124 60.6377C181.721 57.5132 178.912 56.0533 176.027 57.7266L25.3821 144.591C22.4881 146.256 20.9941 149.756 19.0135 153.546Z" fill="#71389A"/>
<path opacity="0.15" d="M19.0135 153.546C17.0585 157.328 1.93945 206.476 1.93945 206.476L162.598 113.712C162.598 113.712 178.528 63.7623 180.124 60.6377C181.721 57.5132 178.912 56.0533 176.027 57.7266L25.3821 144.591C22.4881 146.256 20.9941 149.756 19.0135 153.546Z" fill="black"/>
<path d="M159.545 115.49L1.96875 206.461L36.8681 226.608L194.436 135.638L159.545 115.49Z" fill="#71389A"/>
<path d="M170.516 0.760505L18.7024 88.248C15.3729 90.1688 14.3399 93.2763 14.9205 97.3741L32.8909 223.457C33.4714 227.555 36.7411 229.954 40.0705 228.033L190.536 141.195C193.865 139.274 196.085 134.365 195.496 130.293L177.568 4.70461C177.013 0.589766 173.812 -1.11764 170.516 0.760505Z" fill="#71389A"/>
<path opacity="0.35" d="M170.516 0.760505L18.7024 88.248C15.3729 90.1688 14.3399 93.2763 14.9205 97.3741L32.8909 223.457C33.4714 227.555 36.7411 229.954 40.0705 228.033L190.536 141.195C193.865 139.274 196.085 134.365 195.496 130.293L177.568 4.70461C177.013 0.589766 173.812 -1.11764 170.516 0.760505Z" fill="white"/>
<path d="M180.744 3.43135C180.068 3.20013 179.349 3.12608 178.64 3.21484C177.931 3.3036 177.252 3.55283 176.655 3.94357L26.1809 90.7822C24.4945 91.8402 23.1581 93.3727 22.3393 95.1873L17.4902 93.1299C18.5574 90.7993 20.4184 89.9456 22.0149 89.0151L172.471 2.17641C173.095 1.76458 173.809 1.50986 174.552 1.43404C175.296 1.35822 176.046 1.46354 176.74 1.74102L180.744 3.43135Z" fill="#455A64"/>
<path d="M37.7633 229.296C36.2779 228.69 35.2022 227.137 34.8437 224.883L17.0439 99.9178C16.6769 97.3567 16.5573 95.0602 17.4879 93.1309L22.3454 95.1883C22.2174 95.4529 22.0979 95.7261 21.9783 96.042C21.8588 96.3579 21.8162 96.4945 21.7479 96.7164C21.7405 96.7531 21.7405 96.7908 21.7479 96.8274C21.6542 97.084 21.5772 97.3463 21.5174 97.6128C21.4491 97.886 21.3808 98.1592 21.3381 98.4665C21.2976 98.6724 21.2691 98.8805 21.2527 99.0897C21.1332 99.9735 21.1332 100.869 21.2527 101.753L39.1805 227.341C39.5134 229.621 40.6403 231.183 42.1514 231.789L37.7633 229.296Z" fill="#263238"/>
<path d="M176.644 3.95238L24.8382 91.4399C21.5088 93.3607 20.4673 96.4682 21.0563 100.566L39.1121 227.281C39.7012 231.379 42.877 233.146 46.2064 231.225L196.663 144.387C199.992 142.466 202.221 137.557 201.632 133.485L183.704 7.88795C183.149 3.79018 179.973 2.02301 176.644 3.95238Z" fill="#37474F"/>
<path d="M187.469 143.815L53.1219 221.314C51.4145 222.313 49.7497 221.4 49.4509 219.274L31.7366 94.9833C31.6052 93.8971 31.7746 92.7956 32.2262 91.7991C32.6778 90.8025 33.3944 89.9491 34.2977 89.3318L168.602 11.8241C170.31 10.8252 171.974 11.7472 172.273 13.8729L190.03 138.164C190.162 139.25 189.992 140.351 189.541 141.348C189.089 142.344 188.372 143.198 187.469 143.815Z" fill="#263238"/>
<path d="M31.7372 94.9825L49.4515 219.273C49.4474 219.356 49.4474 219.438 49.4515 219.521L183.799 142.013C184.702 141.396 185.419 140.542 185.87 139.546C186.322 138.549 186.491 137.448 186.36 136.361L168.611 11.8232L34.3068 89.3736C33.4089 89.9864 32.695 90.8325 32.2422 91.8208C31.7894 92.8091 31.6148 93.9022 31.7372 94.9825Z" fill="#FAFAFA"/>
<path d="M38.5822 171.944C38.6464 172.491 38.5594 173.045 38.3307 173.547C38.1019 174.048 37.7401 174.477 37.2846 174.787C36.4309 175.282 35.5772 174.829 35.4406 173.754C35.3764 173.207 35.4625 172.654 35.6897 172.153C35.9168 171.652 36.2764 171.222 36.7297 170.911C37.6004 170.416 38.4285 170.877 38.5822 171.944Z" fill="#263238"/>
<path d="M32.7099 142.842C32.3549 143.082 32.073 143.416 31.8953 143.806C31.7176 144.196 31.6509 144.628 31.7025 145.053L34.6393 165.542C34.7588 166.396 35.3991 166.729 36.0735 166.336C36.4285 166.096 36.7104 165.762 36.8881 165.372C37.0659 164.982 37.1325 164.55 37.0809 164.125L34.1441 143.636C34.0246 142.808 33.3843 142.449 32.7099 142.842Z" fill="#263238"/>
<path d="M46.6069 152.241L47.6484 152.684C47.9229 152.789 48.2157 152.837 48.5091 152.825C48.8025 152.813 49.0905 152.742 49.3558 152.616L104.343 120.867C104.566 120.731 104.748 120.537 104.868 120.305C104.989 120.073 105.043 119.813 105.026 119.552L97.0095 63.592C96.9429 63.3161 96.8134 63.0593 96.6313 62.8417C96.4492 62.624 96.2193 62.4513 95.9595 62.3371L94.9179 61.8931C94.643 61.7907 94.3505 61.7439 94.0574 61.7557C93.7642 61.7674 93.4764 61.8373 93.2105 61.9614L38.2235 93.7106C37.9994 93.8476 37.8173 94.0433 37.6969 94.2767C37.5764 94.51 37.5224 94.7719 37.5406 95.0339L45.5568 150.994C45.6247 151.268 45.7546 151.523 45.9367 151.74C46.1188 151.956 46.3481 152.127 46.6069 152.241Z" fill="#F0F0F0"/>
<path d="M49.4183 152.617L104.405 120.868C104.629 120.733 104.81 120.538 104.931 120.307C105.051 120.075 105.106 119.814 105.088 119.554L97.072 63.5933C97.0659 63.4893 97.0312 63.389 96.9716 63.3036C96.912 63.2181 96.8298 63.1509 96.7343 63.1093C96.6388 63.0677 96.5336 63.0535 96.4304 63.0681C96.3273 63.0827 96.2302 63.1256 96.15 63.1921L41.163 94.9413C40.9389 95.0782 40.7567 95.274 40.6363 95.5073C40.5159 95.7407 40.4618 96.0026 40.48 96.2646L48.4963 152.225C48.556 152.694 48.9743 152.874 49.4183 152.617Z" fill="white"/>
<path d="M49.0165 152.892C48.9158 152.892 48.8165 152.868 48.7263 152.824C48.6177 152.768 48.5253 152.685 48.458 152.584C48.3907 152.482 48.3508 152.365 48.3421 152.243L40.3258 96.2914C40.3012 95.9976 40.3593 95.7027 40.4936 95.4401C40.6279 95.1776 40.8329 94.9579 41.0856 94.806L96.0641 63.0653C96.1782 62.9916 96.3081 62.9462 96.4433 62.9329C96.5784 62.9195 96.7147 62.9385 96.841 62.9884C96.9496 63.044 97.042 63.1266 97.1093 63.2283C97.1766 63.33 97.2165 63.4473 97.2251 63.569L105.241 119.529C105.264 119.822 105.206 120.115 105.071 120.376C104.937 120.636 104.733 120.855 104.482 121.006L49.4946 152.755C49.349 152.84 49.1848 152.887 49.0165 152.892ZM96.5422 63.2531C96.4309 63.2588 96.3226 63.291 96.2263 63.347L41.2393 95.0962C41.0509 95.2129 40.8959 95.3765 40.7897 95.5711C40.6834 95.7656 40.6295 95.9844 40.6332 96.206L48.6494 152.166C48.6512 152.238 48.6718 152.308 48.7092 152.37C48.7467 152.431 48.7997 152.482 48.8629 152.516C48.9423 152.544 49.027 152.552 49.1102 152.54C49.1933 152.528 49.2724 152.496 49.3409 152.448L104.328 120.707C104.525 120.585 104.685 120.412 104.792 120.206C104.898 120 104.948 119.769 104.934 119.538L96.9178 63.5775C96.9124 63.5076 96.8901 63.4401 96.8529 63.3806C96.8158 63.3211 96.7648 63.2716 96.7044 63.236C96.6511 63.2233 96.5955 63.2233 96.5422 63.236V63.2531Z" fill="#E0E0E0"/>
<path d="M49.2949 152.677C48.7758 152.878 48.2005 152.878 47.6814 152.677L46.6399 152.234C46.381 152.12 46.1517 151.949 45.9697 151.733C45.7876 151.517 45.6576 151.261 45.5898 150.987L37.5735 95.0269C37.5458 94.7693 37.5995 94.5096 37.7272 94.2842L40.6298 95.522C40.5082 95.7495 40.4576 96.0083 40.4847 96.2648L48.4924 152.225C48.4995 152.316 48.5288 152.403 48.5778 152.48C48.6267 152.557 48.6938 152.62 48.7731 152.665C48.8524 152.71 48.9414 152.734 49.0324 152.736C49.1234 152.739 49.2135 152.718 49.2949 152.677Z" fill="#E0E0E0"/>
<path d="M89.5492 123.317L85.1868 92.8053L81.7891 91.3711L86.1515 121.874L89.5492 123.317Z" fill="#71389A"/>
<path opacity="0.2" d="M89.5492 123.317L85.1868 92.8053L81.7891 91.3711L86.1515 121.874L89.5492 123.317Z" fill="black"/>
<path d="M89.5499 123.318L98.104 118.375L93.7416 87.8721L85.1875 92.8065L89.5499 123.318Z" fill="#71389A"/>
<path d="M93.7409 87.8705L90.3432 86.4277L81.7891 91.3707L85.1868 92.8049L93.7409 87.8705Z" fill="#71389A"/>
<path opacity="0.25" d="M93.7409 87.8705L90.3432 86.4277L81.7891 91.3707L85.1868 92.8049L93.7409 87.8705Z" fill="white"/>
<path opacity="0.3" d="M93.7409 87.8721L85.2039 92.6955L81.7891 91.3722L85.0844 92.9857C85.1356 93.8821 89.2846 122.413 89.5492 123.318C89.5492 122.404 85.5283 93.8053 85.3319 92.9431L93.7409 87.8721Z" fill="white"/>
<path d="M73.5178 132.58L70.0091 108.071L66.6113 106.628L70.12 131.138L73.5178 132.58Z" fill="#71389A"/>
<path opacity="0.1" d="M73.5178 132.58L70.0091 108.071L66.6113 106.628L70.12 131.138L73.5178 132.58Z" fill="white"/>
<path d="M73.5185 132.581L82.0726 127.638L78.5639 103.137L70.0098 108.071L73.5185 132.581Z" fill="#71389A"/>
<path opacity="0.3" d="M73.5185 132.581L82.0726 127.638L78.5639 103.137L70.0098 108.071L73.5185 132.581Z" fill="white"/>
<path d="M78.5632 103.135L75.1654 101.692L66.6113 106.627L70.0091 108.07L78.5632 103.135Z" fill="#71389A"/>
<path opacity="0.55" d="M78.5632 103.135L75.1654 101.692L66.6113 106.627L70.0091 108.07L78.5632 103.135Z" fill="white"/>
<path opacity="0.3" d="M70.1371 108.155L78.5632 103.161L70.0261 107.985C68.9505 107.532 66.6113 106.653 66.6113 106.653C66.6113 106.653 68.7968 107.686 69.8981 108.164C69.992 109.086 73.3129 131.666 73.5178 132.605C73.4495 131.632 70.2993 109.009 70.1371 108.155Z" fill="white"/>
<path d="M57.4778 141.835L54.5325 121.269L51.1348 119.826L54.08 140.392L57.4778 141.835Z" fill="#71389A"/>
<path opacity="0.45" d="M57.4778 141.835L54.5325 121.269L51.1348 119.826L54.08 140.392L57.4778 141.835Z" fill="black"/>
<path d="M57.4765 141.835L66.0306 136.9L63.0854 116.326L54.5312 121.269L57.4765 141.835Z" fill="#71389A"/>
<path opacity="0.3" d="M57.4765 141.835L66.0306 136.9L63.0854 116.326L54.5312 121.269L57.4765 141.835Z" fill="black"/>
<path d="M63.0866 116.326L59.6889 114.892L51.1348 119.826L54.5325 121.269L63.0866 116.326Z" fill="#71389A"/>
<path opacity="0.15" d="M63.0866 116.326L59.6889 114.892L51.1348 119.826L54.5325 121.269L63.0866 116.326Z" fill="black"/>
<path opacity="0.3" d="M63.0866 116.326L54.5496 121.15L51.1348 119.826L54.4215 121.406C54.4215 121.406 57.2558 141.28 57.4778 141.835C57.5375 141.271 54.6862 121.406 54.6862 121.406L63.0866 116.326Z" fill="white"/>
<path d="M91.0526 74.5468L90.1733 74.1797L83.4205 76.6469L85.1621 77.8421L67.7892 96.9821L63.1366 93.7807L62.2658 93.4051L48.709 108.345L50.792 109.771L51.6713 110.146L63.4695 97.1358L67.7892 100.038L69.1039 100.602L87.9879 79.7885L88.9867 80.4544L89.866 80.83L91.0526 74.5468Z" fill="#71389A"/>
<path opacity="0.25" d="M91.0526 74.5468L90.1733 74.1797L83.4205 76.6469L85.1621 77.8421L67.7892 96.9821L63.1366 93.7807L62.2658 93.4051L48.709 108.345L50.792 109.771L51.6713 110.146L63.4695 97.1358L67.7892 100.038L69.1039 100.602L87.9879 79.7885L88.9867 80.4544L89.866 80.83L91.0526 74.5468Z" fill="white"/>
<path d="M91.0549 74.5459L89.8683 80.8292L88.1267 79.6425L69.1062 100.601L63.7108 96.8873L51.6736 110.145L49.582 108.72L63.1388 93.7798L68.5428 97.4934L86.0351 78.2083L84.2936 77.0216L91.0549 74.5459Z" fill="#71389A"/>
<path d="M63.7078 96.8877L63.4688 97.1353L67.7885 100.038L69.1032 100.601L63.7078 96.8877Z" fill="#71389A"/>
<path opacity="0.2" d="M63.7078 96.8877L63.4688 97.1353L67.7885 100.038L69.1032 100.601L63.7078 96.8877Z" fill="black"/>
<path d="M85.1615 77.8407L86.0323 78.2078L84.2907 77.0211L83.4199 76.6455L85.1615 77.8407Z" fill="#71389A"/>
<path opacity="0.2" d="M85.1615 77.8407L86.0323 78.2078L84.2907 77.0211L83.4199 76.6455L85.1615 77.8407Z" fill="black"/>
<path d="M87.9883 79.7867L88.1249 79.6416L89.8664 80.8282L88.9871 80.4526L87.9883 79.7867Z" fill="#71389A"/>
<path opacity="0.2" d="M87.9883 79.7867L88.1249 79.6416L89.8664 80.8282L88.9871 80.4526L87.9883 79.7867Z" fill="black"/>
<path d="M48.709 108.344L49.5798 108.719L51.6713 110.145L50.792 109.769L48.709 108.344Z" fill="#71389A"/>
<path opacity="0.2" d="M48.709 108.344L49.5798 108.719L51.6713 110.145L50.792 109.769L48.709 108.344Z" fill="black"/>
<path opacity="0.5" d="M54.0449 103.795L63.1795 94.0715L68.5408 97.4949L63.1369 93.7812L54.0449 103.795Z" fill="white"/>
<path opacity="0.5" d="M76.5566 88.6576L86.2718 78.1997L84.5985 77.0729L91.0525 74.5459L84.2912 77.0216L86.0327 78.2083L76.5566 88.6576Z" fill="white"/>
<path d="M106.923 127.041C106.771 127 106.611 126.992 106.455 127.017C106.299 127.042 106.15 127.1 106.018 127.187L50.9971 158.961C50.6417 159.179 50.3527 159.49 50.1615 159.86C49.9704 160.23 49.8844 160.646 49.9129 161.062L56.4864 206.948C56.499 207.1 56.5492 207.247 56.6327 207.376C56.7161 207.504 56.8302 207.609 56.9645 207.682C56.7169 207.563 54.4887 206.641 54.2156 206.521C54.0763 206.449 53.9572 206.344 53.8693 206.214C53.7813 206.084 53.7272 205.935 53.7119 205.779L47.1469 159.892C47.1158 159.475 47.2006 159.057 47.3919 158.685C47.5833 158.313 47.8737 158.001 48.2311 157.783L103.252 126.008C103.394 125.915 103.556 125.856 103.725 125.835C103.894 125.815 104.065 125.833 104.225 125.889C104.465 126 106.368 126.802 106.923 127.041Z" fill="#71389A"/>
<g opacity="0.2">
<path d="M106.923 127.041C106.393 126.802 104.464 126 104.225 125.889C104.065 125.833 103.893 125.815 103.725 125.835C103.556 125.856 103.394 125.915 103.252 126.008L48.2307 157.783C47.8668 158.006 47.5714 158.325 47.377 158.705L50.143 159.883C50.3324 159.5 50.6289 159.18 50.9967 158.961L106.018 127.187C106.15 127.1 106.299 127.042 106.455 127.017C106.611 126.992 106.77 127 106.923 127.041Z" fill="white"/>
</g>
<path d="M50.9965 158.959L106.018 127.184C106.726 126.775 107.384 127.056 107.495 127.808L114.051 173.694C114.082 174.11 113.998 174.527 113.808 174.899C113.619 175.271 113.33 175.584 112.975 175.803L57.9456 207.578C57.237 207.979 56.5797 207.706 56.4772 206.946L49.9123 161.085C49.8769 160.665 49.9597 160.243 50.1513 159.868C50.3429 159.492 50.6356 159.177 50.9965 158.959Z" fill="#71389A"/>
<g opacity="0.5">
<path d="M50.9965 158.959L106.018 127.184C106.726 126.775 107.384 127.056 107.495 127.808L114.051 173.694C114.082 174.11 113.998 174.527 113.808 174.899C113.619 175.271 113.33 175.584 112.975 175.803L57.9456 207.578C57.237 207.979 56.5797 207.706 56.4772 206.946L49.9123 161.085C49.8769 160.665 49.9597 160.243 50.1513 159.868C50.3429 159.492 50.6356 159.177 50.9965 158.959Z" fill="white"/>
</g>
<path d="M50.1498 159.881L47.3838 158.703C47.1789 159.063 47.0951 159.479 47.1448 159.89L53.7098 205.776C53.7251 205.932 53.7792 206.082 53.8672 206.212C53.9551 206.341 54.0742 206.447 54.2135 206.519C54.4867 206.639 56.7148 207.561 56.9624 207.68C56.8281 207.607 56.714 207.502 56.6306 207.373C56.5471 207.245 56.4969 207.098 56.4843 206.946L49.9108 161.085C49.8645 160.669 49.948 160.248 50.1498 159.881Z" fill="#71389A"/>
<path opacity="0.15" d="M50.1498 159.881L47.3838 158.703C47.1789 159.063 47.0951 159.479 47.1448 159.89L53.7098 205.776C53.7251 205.932 53.7792 206.082 53.8672 206.212C53.9551 206.341 54.0742 206.447 54.2135 206.519C54.4867 206.639 56.7148 207.561 56.9624 207.68C56.8281 207.607 56.714 207.502 56.6306 207.373C56.5471 207.245 56.4969 207.098 56.4843 206.946L49.9108 161.085C49.8645 160.669 49.948 160.248 50.1498 159.881Z" fill="black"/>
<path opacity="0.95" d="M90.5637 172.645L96.053 178.1L72.5335 162.443L54.8789 195.737L56.4839 206.912C56.5863 207.672 57.2437 207.945 57.9522 207.544L112.982 175.769C113.337 175.549 113.625 175.236 113.816 174.865C114.007 174.493 114.093 174.077 114.066 173.66L113.212 167.522L96.0445 158.422L90.5637 172.645Z" fill="#FAFAFA"/>
<path opacity="0.95" d="M89.2265 145.367C91.7876 143.89 94.1951 144.906 94.5792 147.647C94.9634 150.387 93.2133 153.802 90.6437 155.279C88.074 156.756 85.6837 155.748 85.291 153.008C84.8982 150.267 86.6654 146.853 89.2265 145.367Z" fill="#FAFAFA"/>
<path d="M106.689 127.543C106.809 127.543 106.851 127.799 106.851 127.833L113.425 173.72C113.439 174.041 113.367 174.361 113.217 174.646C113.067 174.931 112.844 175.171 112.571 175.342L57.55 207.117C57.4658 207.172 57.3687 207.204 57.2682 207.211C57.1402 207.211 57.0975 206.954 57.0975 206.92L50.524 161.034C50.5117 160.712 50.584 160.393 50.7339 160.108C50.8837 159.824 51.1057 159.584 51.3777 159.412L106.365 127.645C106.45 127.585 106.55 127.549 106.655 127.543M106.57 126.997C106.361 127.011 106.159 127.076 105.981 127.184L50.9594 158.959C50.6026 159.175 50.3126 159.486 50.1212 159.856C49.9299 160.227 49.8447 160.643 49.8752 161.059L56.4487 206.946C56.4596 207.165 56.5544 207.371 56.7133 207.522C56.8723 207.673 57.0832 207.757 57.3024 207.757C57.5105 207.747 57.7129 207.685 57.8914 207.578L112.921 175.803C113.276 175.583 113.564 175.271 113.754 174.899C113.944 174.527 114.028 174.11 113.997 173.694L107.492 127.791C107.481 127.572 107.386 127.365 107.227 127.214C107.068 127.063 106.857 126.979 106.638 126.979L106.57 126.997Z" fill="#71389A"/>
<path d="M104.661 61.0993C104.472 61.1 104.287 61.0506 104.123 60.9561C103.96 60.8616 103.824 60.7254 103.73 60.5614C103.588 60.3133 103.549 60.0187 103.622 59.742C103.696 59.4653 103.876 59.229 104.123 59.0845L163.029 25.1498C163.281 25.0106 163.579 24.9773 163.856 25.0574C164.132 25.1374 164.366 25.3242 164.506 25.5767C164.645 25.8291 164.678 26.1266 164.598 26.4035C164.518 26.6805 164.331 26.9144 164.079 27.0536L105.173 60.9883C105.015 61.0702 104.839 61.1085 104.661 61.0993Z" fill="#E0E0E0"/>
<path d="M105.784 68.808C105.545 68.8109 105.312 68.7341 105.121 68.5895C104.93 68.445 104.793 68.241 104.732 68.0098C104.67 67.7786 104.687 67.5335 104.78 67.3132C104.874 67.0928 105.038 66.9099 105.247 66.7932L164.152 32.8585C164.275 32.7879 164.41 32.7421 164.551 32.7239C164.691 32.7056 164.834 32.7152 164.971 32.752C165.107 32.7889 165.235 32.8523 165.348 32.9387C165.46 33.0251 165.554 33.1327 165.625 33.2555C165.695 33.3783 165.741 33.5137 165.759 33.6542C165.778 33.7946 165.768 33.9373 165.731 34.074C165.694 34.2108 165.631 34.3389 165.544 34.4512C165.458 34.5634 165.35 34.6575 165.228 34.7281L106.322 68.6628C106.16 68.7604 105.974 68.8106 105.784 68.808Z" fill="#E0E0E0"/>
<path d="M106.92 76.5184C106.729 76.518 106.542 76.4673 106.377 76.3713C106.212 76.2754 106.076 76.1377 105.981 75.972C105.91 75.8496 105.863 75.7141 105.845 75.5736C105.827 75.4332 105.836 75.2904 105.874 75.1537C105.911 75.017 105.975 74.8891 106.063 74.7775C106.15 74.6659 106.258 74.5728 106.382 74.5037L165.288 40.569C165.41 40.4973 165.545 40.4506 165.685 40.4316C165.825 40.4125 165.967 40.4216 166.104 40.4581C166.241 40.4947 166.369 40.558 166.481 40.6444C166.592 40.7309 166.686 40.8387 166.756 40.9617C166.899 41.2098 166.938 41.5044 166.864 41.7811C166.791 42.0578 166.611 42.2941 166.363 42.4386L107.458 76.3733C107.294 76.4669 107.109 76.5169 106.92 76.5184Z" fill="#E0E0E0"/>
<path d="M108.074 84.2516C107.836 84.2508 107.605 84.1713 107.416 84.0257C107.227 83.8801 107.092 83.6763 107.031 83.446C106.969 83.2156 106.986 82.9715 107.077 82.7514C107.169 82.5313 107.33 82.3475 107.536 82.2284L166.442 48.2937C166.688 48.1767 166.969 48.1565 167.229 48.2371C167.489 48.3177 167.709 48.4932 167.846 48.7288C167.982 48.9643 168.025 49.2427 167.966 49.5085C167.907 49.7742 167.75 50.008 167.526 50.1633L108.621 84.1065C108.454 84.2005 108.266 84.2505 108.074 84.2516Z" fill="#E0E0E0"/>
<path d="M109.194 91.935C109.004 91.9372 108.816 91.8885 108.651 91.794C108.486 91.6994 108.349 91.5624 108.255 91.3972C108.183 91.2741 108.137 91.138 108.119 90.9969C108.1 90.8557 108.11 90.7123 108.147 90.5749C108.184 90.4375 108.249 90.3089 108.336 90.1966C108.423 90.0842 108.532 89.9903 108.656 89.9203L167.562 55.9856C167.685 55.9002 167.824 55.8412 167.971 55.8123C168.118 55.7834 168.269 55.7854 168.416 55.8179C168.562 55.8505 168.7 55.913 168.821 56.0016C168.942 56.0901 169.043 56.2027 169.118 56.3323C169.193 56.4619 169.24 56.6056 169.257 56.7545C169.274 56.9034 169.26 57.0541 169.216 57.1972C169.171 57.3403 169.098 57.4726 169 57.5859C168.902 57.6991 168.781 57.7908 168.646 57.8552L109.74 91.7899C109.575 91.8877 109.386 91.9379 109.194 91.935Z" fill="#E0E0E0"/>
<path d="M110.328 99.6195C110.092 99.6174 109.863 99.538 109.675 99.3935C109.488 99.249 109.354 99.0473 109.292 98.8191C109.23 98.591 109.244 98.3489 109.333 98.1296C109.421 97.9104 109.579 97.7261 109.782 97.6048L145.637 76.9366C145.76 76.866 145.896 76.8203 146.036 76.802C146.176 76.7837 146.319 76.7933 146.456 76.8301C146.593 76.867 146.721 76.9304 146.833 77.0168C146.945 77.1032 147.039 77.2109 147.11 77.3336C147.181 77.4564 147.226 77.5919 147.245 77.7323C147.263 77.8727 147.253 78.0154 147.216 78.1522C147.18 78.2889 147.116 78.4171 147.03 78.5293C146.943 78.6415 146.836 78.7356 146.713 78.8063L110.857 99.4744C110.697 99.5692 110.514 99.6194 110.328 99.6195Z" fill="#E0E0E0"/>
<path d="M112.589 115.055C112.399 115.054 112.213 115.003 112.05 114.907C111.887 114.811 111.751 114.674 111.658 114.509C111.515 114.261 111.477 113.966 111.55 113.69C111.624 113.413 111.804 113.177 112.051 113.032L170.956 79.0975C171.206 78.9554 171.501 78.9178 171.778 78.993C172.055 79.0682 172.29 79.25 172.433 79.4987C172.505 79.6211 172.551 79.7566 172.569 79.8971C172.588 80.0376 172.578 80.1803 172.541 80.317C172.503 80.4537 172.439 80.5816 172.352 80.6932C172.264 80.8048 172.156 80.8979 172.032 80.9671L113.127 114.91C112.962 115.003 112.777 115.052 112.589 115.055Z" fill="#E0E0E0"/>
<path d="M113.724 122.755C113.485 122.757 113.251 122.681 113.061 122.536C112.87 122.391 112.733 122.188 112.671 121.956C112.609 121.725 112.627 121.48 112.72 121.26C112.813 121.039 112.977 120.856 113.186 120.74L172.1 86.8136C172.223 86.743 172.358 86.6972 172.499 86.6789C172.639 86.6607 172.782 86.6702 172.919 86.7071C173.055 86.744 173.183 86.8074 173.296 86.8938C173.408 86.9802 173.502 87.0878 173.573 87.2106C173.643 87.3333 173.689 87.4688 173.707 87.6092C173.726 87.7497 173.716 87.8924 173.679 88.0291C173.642 88.1659 173.579 88.294 173.492 88.4062C173.406 88.5185 173.298 88.6126 173.176 88.6832L114.27 122.618C114.105 122.714 113.915 122.761 113.724 122.755Z" fill="#E0E0E0"/>
<path d="M114.904 130.463C114.664 130.466 114.431 130.389 114.24 130.245C114.05 130.1 113.913 129.896 113.851 129.665C113.789 129.434 113.806 129.189 113.9 128.968C113.993 128.748 114.157 128.565 114.366 128.448L173.271 94.5138C173.519 94.3712 173.814 94.3328 174.09 94.4073C174.366 94.4817 174.601 94.6628 174.744 94.9108C174.886 95.1587 174.925 95.4531 174.85 95.7293C174.776 96.0055 174.595 96.2408 174.347 96.3834L115.441 130.318C115.279 130.416 115.093 130.466 114.904 130.463Z" fill="#E0E0E0"/>
<path d="M115.996 138.172C115.805 138.171 115.618 138.12 115.453 138.025C115.288 137.929 115.152 137.791 115.057 137.625C114.986 137.503 114.94 137.367 114.921 137.227C114.903 137.086 114.912 136.944 114.95 136.807C114.987 136.67 115.051 136.542 115.139 136.431C115.226 136.319 115.335 136.226 115.458 136.157L174.364 102.214C174.613 102.07 174.909 102.031 175.187 102.105C175.464 102.18 175.701 102.362 175.845 102.611C175.989 102.86 176.028 103.156 175.953 103.433C175.879 103.711 175.697 103.948 175.448 104.092L116.543 138.026C116.376 138.122 116.188 138.172 115.996 138.172Z" fill="#E0E0E0"/>
<path d="M117.131 145.882C116.893 145.881 116.661 145.801 116.472 145.656C116.284 145.51 116.148 145.306 116.087 145.076C116.026 144.846 116.042 144.601 116.134 144.381C116.225 144.161 116.387 143.977 116.593 143.858L175.499 109.924C175.744 109.807 176.025 109.786 176.285 109.867C176.546 109.948 176.766 110.123 176.902 110.359C177.039 110.594 177.082 110.873 177.023 111.138C176.964 111.404 176.806 111.638 176.583 111.793L117.677 145.736C117.51 145.83 117.322 145.88 117.131 145.882Z" fill="#E0E0E0"/>
<path d="M118.269 153.582C118.03 153.585 117.796 153.509 117.605 153.364C117.415 153.219 117.278 153.015 117.216 152.784C117.154 152.553 117.172 152.308 117.265 152.088C117.358 151.867 117.522 151.684 117.731 151.568L176.636 117.633C176.759 117.548 176.899 117.489 177.046 117.46C177.193 117.431 177.344 117.433 177.491 117.465C177.637 117.498 177.775 117.56 177.895 117.649C178.016 117.738 178.117 117.85 178.193 117.98C178.268 118.109 178.315 118.253 178.332 118.402C178.349 118.551 178.335 118.702 178.29 118.845C178.246 118.988 178.172 119.12 178.074 119.233C177.976 119.347 177.856 119.438 177.721 119.503L118.815 153.437C118.65 153.535 118.461 153.585 118.269 153.582Z" fill="#E0E0E0"/>
<path d="M119.402 161.29C119.166 161.288 118.937 161.209 118.75 161.064C118.563 160.92 118.428 160.718 118.366 160.49C118.304 160.262 118.318 160.02 118.407 159.8C118.495 159.581 118.653 159.397 118.856 159.276L177.762 125.341C177.884 125.27 178.02 125.225 178.16 125.206C178.301 125.188 178.443 125.198 178.58 125.234C178.717 125.271 178.845 125.335 178.957 125.421C179.069 125.507 179.164 125.615 179.234 125.738C179.305 125.861 179.351 125.996 179.369 126.137C179.387 126.277 179.378 126.42 179.341 126.556C179.304 126.693 179.24 126.821 179.154 126.934C179.068 127.046 178.96 127.14 178.837 127.211L119.932 161.145C119.771 161.24 119.589 161.29 119.402 161.29Z" fill="#E0E0E0"/>
<path d="M120.54 169C120.301 169.001 120.068 168.923 119.878 168.778C119.688 168.633 119.551 168.43 119.489 168.199C119.426 167.968 119.442 167.723 119.533 167.502C119.625 167.281 119.786 167.097 119.993 166.977L142.634 153.933C142.881 153.81 143.166 153.787 143.43 153.867C143.694 153.948 143.918 154.126 144.055 154.366C144.192 154.605 144.233 154.888 144.169 155.157C144.104 155.425 143.94 155.659 143.709 155.811L121.078 168.855C120.913 168.948 120.728 168.998 120.54 169Z" fill="#E0E0E0"/>
</svg>
