<svg width="383" height="270" viewBox="0 0 383 270" fill="none" xmlns="http://www.w3.org/2000/svg">
<path d="M258.477 206.856L264.343 210.38L258.388 213.91L252.434 217.446L252.523 210.392L252.618 203.338L258.477 206.856Z" fill="#E0E0E0"/>
<path d="M27.7988 241.973V269.405H67.9132H112.164V241.973H27.7988Z" fill="#F5F5F5"/>
<path d="M24.2578 234.301V241.973H115.112V234.301H67.9141H24.2578Z" fill="#E0E0E0"/>
<path d="M69.6831 269.405H112.163V241.973H115.11V234.301H67.9121V241.26L69.6831 269.405Z" fill="#E0E0E0"/>
<path d="M56.7033 246.394H39.5938V250.524H56.7033V246.394Z" fill="#E0E0E0"/>
<path d="M59.3614 255.689H37.3906V264.408H59.3614V255.689Z" fill="#FAF5FF"/>
<path d="M40.7773 206.904V234.337H80.8917H125.142V206.904H40.7773Z" fill="#F5F5F5"/>
<path d="M37.2383 199.231V206.904H128.093V199.231H80.8946H37.2383Z" fill="#E0E0E0"/>
<path d="M82.6636 234.336H125.143V206.904H128.091V199.231H80.8926V206.196L82.6636 234.336Z" fill="#E0E0E0"/>
<path d="M69.6837 211.326H52.5742V215.456H69.6837V211.326Z" fill="#E0E0E0"/>
<path d="M72.3497 220.62H50.3789V229.338H72.3497V220.62Z" fill="#FAF5FF"/>
<path d="M364.893 107.141H265.546C262.963 107.141 260.869 109.235 260.869 111.818V169.832C260.869 172.415 262.963 174.509 265.546 174.509H364.893C367.476 174.509 369.57 172.415 369.57 169.832V111.818C369.57 109.235 367.476 107.141 364.893 107.141Z" fill="#E0E0E0"/>
<path d="M315.22 150.019C319.792 150.019 323.498 146.312 323.498 141.74C323.498 137.168 319.792 133.462 315.22 133.462C310.648 133.462 306.941 137.168 306.941 141.74C306.941 146.312 310.648 150.019 315.22 150.019Z" fill="#EBEBEB"/>
<path d="M313.229 144.159V139.274C313.229 139.219 313.243 139.166 313.27 139.119C313.297 139.072 313.336 139.033 313.383 139.006C313.43 138.979 313.483 138.965 313.538 138.965C313.592 138.965 313.645 138.979 313.692 139.006L318.054 141.467C318.102 141.493 318.143 141.532 318.171 141.58C318.199 141.628 318.214 141.682 318.214 141.737C318.214 141.792 318.199 141.846 318.171 141.894C318.143 141.942 318.102 141.981 318.054 142.007L313.686 144.432C313.639 144.458 313.586 144.471 313.532 144.47C313.478 144.469 313.425 144.454 313.379 144.426C313.333 144.399 313.295 144.36 313.268 144.313C313.242 144.266 313.228 144.213 313.229 144.159Z" fill="#FAF5FF"/>
<path d="M267.09 166.772V166.944H266.27V166.808L266.71 166.386C266.747 166.359 266.778 166.324 266.799 166.284C266.821 166.244 266.833 166.199 266.835 166.154C266.835 166.053 266.769 165.999 266.633 165.999C266.583 165.996 266.534 166.005 266.488 166.025C266.443 166.044 266.403 166.074 266.371 166.112L266.229 165.999C266.28 165.938 266.345 165.89 266.418 165.858C266.491 165.826 266.571 165.811 266.65 165.815C266.888 165.815 267.043 165.94 267.043 166.136C267.042 166.205 267.024 166.272 266.992 166.333C266.96 166.394 266.914 166.447 266.858 166.487L266.561 166.772H267.09Z" fill="#FAF5FF"/>
<path d="M267.197 166.219C267.197 166.193 267.205 166.167 267.219 166.146C267.234 166.124 267.254 166.108 267.278 166.098C267.302 166.088 267.328 166.085 267.354 166.09C267.379 166.095 267.402 166.108 267.42 166.126C267.439 166.144 267.451 166.168 267.456 166.193C267.461 166.218 267.459 166.245 267.449 166.269C267.439 166.293 267.422 166.313 267.401 166.327C267.379 166.342 267.354 166.349 267.328 166.349C267.293 166.349 267.26 166.336 267.236 166.311C267.211 166.287 267.197 166.253 267.197 166.219ZM267.197 166.813C267.197 166.778 267.211 166.745 267.236 166.72C267.26 166.696 267.293 166.682 267.328 166.682C267.363 166.682 267.396 166.696 267.42 166.72C267.445 166.745 267.459 166.778 267.459 166.813C267.459 166.848 267.445 166.881 267.42 166.905C267.396 166.93 267.363 166.944 267.328 166.944C267.293 166.944 267.26 166.93 267.236 166.905C267.211 166.881 267.197 166.848 267.197 166.813Z" fill="#FAF5FF"/>
<path d="M267.975 165.833V166.944H267.767V166.005H267.535V165.833H267.975Z" fill="#FAF5FF"/>
<path d="M269.18 166.69H268.984V166.945H268.794V166.69H268.199V166.565L268.746 165.852H268.966L268.455 166.535H268.794V166.309H268.984V166.535H269.18V166.69Z" fill="#FAF5FF"/>
<path d="M355.177 166.22H270.99V166.665H355.177V166.22Z" fill="#FAF5FF"/>
<path d="M297.245 165.75H270.936V166.939H297.245V165.75Z" fill="#EBEBEB"/>
<path d="M298.085 166.439C298.086 166.693 298.012 166.942 297.871 167.154C297.73 167.366 297.53 167.532 297.295 167.63C297.06 167.727 296.802 167.753 296.552 167.704C296.303 167.655 296.073 167.532 295.894 167.352C295.714 167.173 295.591 166.943 295.542 166.694C295.493 166.444 295.519 166.186 295.616 165.951C295.714 165.716 295.88 165.516 296.092 165.375C296.304 165.234 296.553 165.16 296.807 165.161C297.146 165.163 297.47 165.298 297.709 165.537C297.948 165.776 298.083 166.1 298.085 166.439Z" fill="#EBEBEB"/>
<path d="M357.296 166.427C357.295 166.479 357.284 166.529 357.263 166.575C357.242 166.622 357.211 166.663 357.173 166.698C357.135 166.732 357.091 166.757 357.042 166.773C356.994 166.789 356.943 166.795 356.892 166.79C356.589 166.79 356.41 166.594 356.41 166.237C356.401 166.162 356.408 166.085 356.431 166.012C356.454 165.939 356.493 165.872 356.544 165.816C356.595 165.759 356.658 165.715 356.729 165.685C356.799 165.655 356.875 165.641 356.951 165.643C357.053 165.639 357.154 165.664 357.242 165.714L357.171 165.875C357.107 165.836 357.032 165.818 356.957 165.821C356.749 165.821 356.618 165.946 356.618 166.202C356.657 166.162 356.703 166.132 356.754 166.112C356.806 166.093 356.861 166.085 356.915 166.089C356.963 166.084 357.011 166.089 357.057 166.104C357.103 166.118 357.145 166.142 357.18 166.174C357.216 166.206 357.245 166.245 357.265 166.289C357.285 166.332 357.295 166.38 357.296 166.427ZM357.094 166.427C357.094 166.309 357.011 166.237 356.874 166.237C356.737 166.237 356.648 166.315 356.648 166.427C356.648 166.54 356.731 166.612 356.88 166.612C356.905 166.615 356.931 166.613 356.956 166.606C356.981 166.599 357.004 166.587 357.024 166.571C357.044 166.555 357.06 166.535 357.072 166.512C357.084 166.49 357.092 166.465 357.094 166.439V166.427Z" fill="#FAF5FF"/>
<path d="M357.401 166.047C357.401 166.03 357.403 166.012 357.41 165.996C357.416 165.98 357.426 165.965 357.438 165.953C357.45 165.94 357.465 165.931 357.481 165.924C357.497 165.918 357.515 165.915 357.532 165.916C357.567 165.916 357.6 165.93 357.625 165.954C357.649 165.979 357.663 166.012 357.663 166.047C357.663 166.082 357.649 166.115 357.625 166.139C357.6 166.164 357.567 166.178 357.532 166.178C357.515 166.179 357.497 166.176 357.481 166.169C357.465 166.163 357.45 166.154 357.438 166.141C357.426 166.129 357.416 166.114 357.41 166.098C357.403 166.082 357.401 166.064 357.401 166.047ZM357.401 166.641C357.4 166.624 357.402 166.606 357.408 166.589C357.413 166.572 357.423 166.557 357.436 166.545C357.448 166.532 357.463 166.522 357.48 166.517C357.497 166.511 357.515 166.509 357.532 166.51C357.549 166.51 357.566 166.512 357.582 166.519C357.598 166.525 357.613 166.535 357.625 166.547C357.637 166.559 357.646 166.574 357.651 166.591C357.657 166.607 357.659 166.624 357.657 166.641C357.661 166.66 357.661 166.68 357.656 166.699C357.652 166.718 357.643 166.736 357.631 166.751C357.619 166.766 357.603 166.778 357.586 166.787C357.568 166.795 357.549 166.8 357.529 166.8C357.51 166.8 357.49 166.795 357.473 166.787C357.455 166.778 357.44 166.766 357.427 166.751C357.415 166.736 357.406 166.718 357.402 166.699C357.397 166.68 357.397 166.66 357.401 166.641Z" fill="#FAF5FF"/>
<path d="M357.793 166.218C357.793 165.85 357.989 165.624 358.256 165.624C358.524 165.624 358.72 165.832 358.72 166.218C358.72 166.605 358.518 166.813 358.256 166.813C357.995 166.813 357.793 166.563 357.793 166.218ZM358.512 166.218C358.512 165.945 358.405 165.826 358.256 165.826C358.108 165.826 358.001 165.945 358.001 166.218C358.001 166.492 358.102 166.605 358.256 166.605C358.411 166.605 358.53 166.486 358.53 166.218H358.512Z" fill="#FAF5FF"/>
<path d="M358.857 166.218C358.857 165.85 359.059 165.624 359.321 165.624C359.582 165.624 359.785 165.832 359.785 166.218C359.785 166.605 359.588 166.813 359.321 166.813C359.054 166.813 358.857 166.563 358.857 166.218ZM359.577 166.218C359.577 165.945 359.475 165.826 359.321 165.826C359.166 165.826 359.065 165.945 359.065 166.218C359.065 166.492 359.172 166.605 359.321 166.605C359.47 166.605 359.577 166.486 359.577 166.218Z" fill="#FAF5FF"/>
<path d="M361.608 166.148H361.162V165.013H362.297V165.458H361.608V166.148Z" fill="#FAF5FF"/>
<path d="M362.297 167.621H361.162V166.486H361.608V167.176H362.297V167.621Z" fill="#FAF5FF"/>
<path d="M364.092 167.621H362.957V167.176H363.646V166.486H364.092V167.621Z" fill="#FAF5FF"/>
<path d="M364.092 166.148H363.646V165.458H362.957V165.013H364.092V166.148Z" fill="#FAF5FF"/>
<path d="M349.734 113.673C350.493 113.578 351.258 113.536 352.022 113.548H352.147V113.673C352.147 114.54 352.147 115.521 352.147 116.579V116.953L351.88 116.686C351.785 116.59 351.678 116.489 351.577 116.382C351.309 116.115 351.054 115.854 350.798 115.604H351.006L349.818 116.674L349.592 116.876V116.573C349.592 115.675 349.639 114.926 349.663 114.421C349.658 114.168 349.68 113.915 349.728 113.667C349.774 113.946 349.796 114.228 349.794 114.51C349.824 115.022 349.853 115.735 349.865 116.573L349.639 116.472L350.828 115.378L350.935 115.283L351.036 115.384L351.82 116.157L352.123 116.466L351.862 116.573C351.862 115.515 351.862 114.534 351.892 113.667L352.011 113.791C350.697 113.779 349.776 113.714 349.734 113.673Z" fill="#FAF5FF"/>
<path d="M358.157 114.053C358.157 114.053 357.979 114.291 357.604 114.76C357.23 115.23 356.665 115.919 355.976 116.698L355.72 116.983V116.597C355.72 116.139 355.72 115.658 355.72 115.153V115.016L355.768 115.123L354.752 114.136L354.49 113.881H354.853C355.863 113.881 356.725 113.946 357.301 113.982C357.59 113.984 357.877 114.006 358.163 114.047C358.163 114.047 357.759 114.047 357.165 114.101C356.57 114.154 355.774 114.172 354.853 114.172L354.954 113.922L355.982 114.897L356.029 114.939V115.147C356.029 115.652 356.029 116.133 356.029 116.591L355.768 116.49C356.41 115.789 356.992 115.212 357.432 114.772C357.872 114.333 358.127 114.065 358.157 114.053Z" fill="#FAF5FF"/>
<path d="M358.155 114.053C358.191 114.13 357.703 114.41 357.067 114.677C356.703 114.88 356.296 114.996 355.879 115.016C355.843 114.933 356.33 114.653 356.96 114.422C357.59 114.19 358.119 113.97 358.155 114.053Z" fill="#FAF5FF"/>
<path d="M362.265 113.672C362.265 113.672 362.408 113.619 362.675 113.672C363.057 113.75 363.398 113.96 363.638 114.266C363.821 114.495 363.943 114.767 363.992 115.056C364.041 115.345 364.015 115.642 363.917 115.919C363.785 116.249 363.557 116.533 363.262 116.732C362.967 116.932 362.619 117.039 362.262 117.039C361.906 117.039 361.558 116.932 361.263 116.732C360.968 116.533 360.74 116.249 360.607 115.919C360.513 115.64 360.491 115.342 360.544 115.053C360.597 114.764 360.723 114.493 360.91 114.266C361.152 113.959 361.496 113.749 361.879 113.672C362.141 113.631 362.289 113.672 362.289 113.672C362.164 113.715 362.037 113.75 361.909 113.779C361.577 113.884 361.287 114.092 361.083 114.373C360.939 114.576 360.847 114.811 360.815 115.058C360.782 115.304 360.811 115.555 360.898 115.788C360.977 115.982 361.096 116.157 361.247 116.302C361.398 116.447 361.578 116.558 361.776 116.629C361.973 116.699 362.183 116.727 362.392 116.711C362.6 116.694 362.803 116.634 362.987 116.534C363.171 116.433 363.332 116.295 363.458 116.129C363.585 115.962 363.675 115.77 363.722 115.566C363.77 115.362 363.774 115.15 363.733 114.945C363.693 114.739 363.61 114.545 363.49 114.373C363.286 114.094 362.999 113.886 362.669 113.779C362.533 113.752 362.398 113.717 362.265 113.672Z" fill="#FAF5FF"/>
<path d="M362.817 116.002C362.751 116.062 362.395 115.8 362.014 115.408L361.967 115.36V115.295C361.967 114.748 362.038 114.309 362.121 114.309C362.204 114.309 362.276 114.748 362.276 115.295L362.234 115.188C362.615 115.58 362.876 115.943 362.817 116.002Z" fill="#FAF5FF"/>
<path d="M322.871 115.895C322.871 115.978 311.699 116.049 297.911 116.049C284.124 116.049 272.951 115.978 272.951 115.895C272.951 115.812 284.118 115.74 297.911 115.74C311.705 115.74 322.871 115.806 322.871 115.895Z" fill="#FAF5FF"/>
<path d="M270.634 115.895C270.635 116.286 270.52 116.668 270.304 116.993C270.087 117.319 269.779 117.572 269.418 117.722C269.058 117.873 268.66 117.912 268.277 117.836C267.894 117.76 267.542 117.572 267.265 117.296C266.989 117.02 266.801 116.668 266.725 116.284C266.649 115.901 266.689 115.504 266.839 115.143C266.989 114.782 267.243 114.474 267.568 114.258C267.893 114.041 268.276 113.927 268.666 113.928C269.188 113.928 269.689 114.135 270.057 114.504C270.426 114.873 270.634 115.373 270.634 115.895Z" fill="#FAF5FF"/>
<path d="M318.423 215.979C318.37 216.044 317.906 215.765 317.389 215.385C316.872 215.004 316.492 214.577 316.551 214.505C316.61 214.434 317.068 214.713 317.591 215.129C318.114 215.545 318.482 215.89 318.423 215.979Z" fill="#263238"/>
<path d="M332.553 194.864C332.642 192.891 332.695 190.864 332.071 188.992C331.447 187.12 330.003 185.397 328.072 184.999C325.867 184.541 323.603 185.932 322.367 187.816C321.13 189.7 320.708 191.976 320.34 194.21C317.824 209.547 316.896 225.103 317.571 240.63L326.604 241.896C330.597 225.696 331.833 211.528 332.553 194.864Z" fill="#455A64"/>
<path d="M326.817 184.927C326.817 184.927 326.817 184.975 326.776 185.07L326.627 185.48C326.478 185.86 326.282 186.383 326.033 187.037C325.908 187.382 325.735 187.75 325.605 188.166C325.474 188.582 325.319 189.046 325.165 189.533C325.01 190.02 324.838 190.549 324.66 191.108C324.482 191.666 324.357 192.296 324.19 192.891C323.441 195.826 322.86 198.803 322.449 201.805C321.962 205.198 321.641 208.936 321.385 212.912C320.928 220.822 320.856 228.007 320.648 233.201C320.553 235.798 320.464 237.896 320.363 239.346C320.316 240.053 320.28 240.612 320.25 241.016C320.25 241.194 320.25 241.337 320.215 241.45C320.221 241.499 320.221 241.549 320.215 241.598C320.21 241.549 320.21 241.499 320.215 241.45C320.215 241.331 320.215 241.188 320.215 241.016C320.215 240.62 320.232 240.061 320.268 239.34C320.333 237.89 320.387 235.774 320.452 233.195C320.595 228.001 320.631 220.816 321.094 212.894C321.35 208.936 321.688 205.169 322.182 201.763C322.608 198.744 323.216 195.754 324 192.807L324.493 191.025L325.022 189.456C325.189 188.968 325.343 188.511 325.492 188.089C325.64 187.667 325.807 187.304 325.943 186.971L326.603 185.432L326.781 185.034C326.787 184.987 326.811 184.921 326.817 184.927Z" fill="#263238"/>
<path d="M327.653 184.934C328.123 185.488 328.495 186.119 328.752 186.8C329.446 188.665 329.728 190.657 329.578 192.641C329.341 197.634 328.889 204.527 328.301 212.098C327.712 219.67 327.041 226.551 326.518 231.514C326.25 233.998 326.019 236.001 325.852 237.385C325.763 238.057 325.698 238.574 325.644 238.978C325.644 239.144 325.603 239.281 325.585 239.394C325.59 239.441 325.59 239.489 325.585 239.537C325.579 239.487 325.579 239.437 325.585 239.388C325.585 239.275 325.585 239.138 325.585 238.972C325.62 238.58 325.674 238.045 325.733 237.373C325.87 235.953 326.06 233.956 326.328 231.49C326.803 226.528 327.427 219.664 328.021 212.075C328.616 204.486 329.103 197.61 329.4 192.636C329.565 190.678 329.322 188.707 328.687 186.847C328.399 186.18 328.053 185.54 327.653 184.934Z" fill="#263238"/>
<path d="M333.91 208.3C333.318 208.257 332.738 208.108 332.198 207.86C331.624 207.71 331.082 207.457 330.6 207.111C331.766 207.305 332.887 207.708 333.91 208.3Z" fill="#263238"/>
<path d="M334.999 199.101C334.512 199.492 333.961 199.798 333.371 200.004C332.816 200.306 332.213 200.507 331.588 200.598C332.075 200.205 332.626 199.898 333.216 199.689C333.772 199.391 334.375 199.192 334.999 199.101Z" fill="#263238"/>
<path d="M334.436 191.589C333.544 191.738 332.63 191.675 331.768 191.405C332.206 191.278 332.667 191.253 333.117 191.333C333.57 191.313 334.023 191.401 334.436 191.589Z" fill="#263238"/>
<path d="M325.116 186.769C325.045 186.816 324.647 186.323 324.237 185.669C323.947 185.295 323.744 184.86 323.643 184.398C323.72 184.35 324.112 184.843 324.528 185.497C324.944 186.151 325.194 186.727 325.116 186.769Z" fill="#263238"/>
<path d="M322.042 191.315C321.633 191.464 321.195 191.511 320.764 191.452C320.329 191.492 319.891 191.427 319.486 191.262C319.897 191.113 320.337 191.066 320.77 191.125C321.477 191.143 322.048 191.226 322.042 191.315Z" fill="#263238"/>
<path d="M319.83 200.402C319.359 200.382 318.898 200.256 318.481 200.034C317.768 199.749 317.221 199.44 317.251 199.362C317.724 199.382 318.185 199.51 318.6 199.737C319.307 200.022 319.866 200.319 319.83 200.402Z" fill="#263238"/>
<path d="M319.593 208.045C319.593 208.134 319.094 208.318 318.441 208.455C318.058 208.583 317.649 208.613 317.252 208.544C317.252 208.455 317.745 208.277 318.399 208.14C318.783 208.009 319.194 207.976 319.593 208.045Z" fill="#263238"/>
<path d="M318.551 220.549C318.551 220.638 318.022 220.81 317.333 220.929C316.643 221.048 316.073 221.083 316.055 220.994C316.037 220.905 316.59 220.739 317.279 220.614C317.969 220.489 318.539 220.459 318.551 220.549Z" fill="#263238"/>
<path d="M317.859 227.449C317.901 227.526 317.449 227.853 316.843 228.168C316.237 228.483 315.72 228.685 315.654 228.608C315.589 228.53 316.065 228.204 316.671 227.883C317.277 227.562 317.818 227.372 317.859 227.449Z" fill="#263238"/>
<path d="M323.495 235.281C323.418 235.329 323.026 234.776 322.61 234.057C322.318 233.642 322.115 233.17 322.016 232.672C322.093 232.631 322.491 233.177 322.901 233.896C323.196 234.31 323.398 234.782 323.495 235.281Z" fill="#263238"/>
<path d="M325.124 222.266C325.19 222.332 324.744 222.861 324.138 223.455C323.532 224.049 322.985 224.483 322.949 224.418C322.914 224.352 323.33 223.823 323.936 223.229C324.542 222.635 325.065 222.201 325.124 222.266Z" fill="#263238"/>
<path d="M324.758 215.437C324.692 215.497 324.282 215.158 323.843 214.683C323.403 214.207 323.1 213.773 323.165 213.714C323.23 213.654 323.641 213.987 324.08 214.463C324.52 214.938 324.823 215.378 324.758 215.437Z" fill="#263238"/>
<path d="M325.884 206.708C325.949 206.767 325.581 207.302 325.058 207.896C324.535 208.491 324.059 208.901 323.994 208.841C323.928 208.782 324.297 208.247 324.82 207.653C325.343 207.059 325.842 206.648 325.884 206.708Z" fill="#263238"/>
<path d="M326.513 200.378C326.454 200.438 325.919 200.034 325.366 199.475C324.813 198.916 324.386 198.405 324.445 198.34C324.504 198.274 325.039 198.685 325.592 199.243C326.145 199.802 326.578 200.313 326.513 200.378Z" fill="#263238"/>
<path d="M327.745 191.816C327.822 191.863 327.567 192.41 327.151 193.099C326.735 193.789 326.378 194.288 326.301 194.217C326.224 194.145 326.479 193.622 326.895 192.933C327.311 192.244 327.674 191.768 327.745 191.816Z" fill="#263238"/>
<path d="M330.077 183.881C330.007 184.343 329.832 184.782 329.566 185.165C329.203 185.831 328.853 186.354 328.77 186.294C328.843 185.834 329.017 185.395 329.281 185.01C329.643 184.345 330.006 183.84 330.077 183.881Z" fill="#263238"/>
<path d="M332.713 187.489C332.748 187.566 332.392 187.821 331.904 188.083C331.417 188.344 330.995 188.434 330.959 188.356C330.924 188.279 331.28 188.023 331.768 187.792C332.255 187.56 332.671 187.405 332.713 187.489Z" fill="#263238"/>
<path d="M332.777 215.979C332.156 215.988 331.543 215.841 330.994 215.551C330.41 215.358 329.885 215.021 329.467 214.57C330.578 215.012 331.678 215.482 332.765 215.979H332.777Z" fill="#263238"/>
<path d="M331.695 222.01C331.695 222.1 331.166 222.278 330.507 222.409C329.847 222.539 329.247 222.581 329.229 222.492C329.211 222.403 329.758 222.224 330.418 222.094C330.831 221.966 331.269 221.937 331.695 222.01Z" fill="#263238"/>
<path d="M330.367 232.357C329.307 231.719 328.513 230.718 328.133 229.54C328.544 229.976 328.916 230.447 329.244 230.948C329.659 231.384 330.035 231.856 330.367 232.357Z" fill="#263238"/>
<path d="M315.86 237.093C315.8 237.022 316.169 236.612 316.674 236.178C317.179 235.744 317.649 235.441 317.708 235.512C317.767 235.584 317.399 235.988 316.888 236.422C316.377 236.855 315.913 237.159 315.86 237.093Z" fill="#263238"/>
<path d="M311.679 214.51C311.085 212.674 309.992 210.535 308.066 210.505C307.493 210.536 306.939 210.72 306.462 211.039C305.985 211.358 305.603 211.8 305.356 212.317C304.828 213.343 304.576 214.487 304.625 215.64C304.87 223.813 306.27 231.91 308.785 239.69H315.839C315.75 231.134 314.347 222.641 311.679 214.51Z" fill="#455A64"/>
<path d="M298.935 202.958C297.949 199.012 295.007 196.885 291.596 196.688C288.476 197.235 287.269 200.302 286.901 203.446C286.532 206.589 287.495 209.715 288.47 212.728C291.56 222.403 294.652 232.078 297.746 241.753L306.518 240.796C303.743 227.835 302.15 215.819 298.935 202.958Z" fill="#455A64"/>
<path d="M308.072 210.505C307.847 210.821 307.648 211.155 307.478 211.503C307.12 212.5 307.007 213.568 307.151 214.617C307.288 215.96 307.436 217.589 307.662 219.342C307.888 221.095 308.215 223.056 308.607 225.077C309.403 229.13 310.307 232.767 310.871 235.411C311.162 236.737 311.382 237.789 311.519 238.555C311.578 238.9 311.626 239.185 311.668 239.417C311.682 239.517 311.682 239.62 311.668 239.72C311.668 239.72 311.62 239.625 311.572 239.429C311.525 239.233 311.448 238.924 311.364 238.585C311.18 237.8 310.925 236.743 310.622 235.465C310.027 232.832 309.065 229.207 308.244 225.142C307.846 223.11 307.537 221.16 307.323 219.378C307.21 218.486 307.133 217.642 307.062 216.846C306.991 216.05 306.913 215.319 306.872 214.635C306.748 213.553 306.901 212.457 307.317 211.45C307.496 211.083 307.754 210.761 308.072 210.505Z" fill="#263238"/>
<path d="M291.717 196.438C291.33 196.885 290.976 197.36 290.659 197.859C289.849 199.26 289.39 200.836 289.322 202.453C289.283 204.851 289.651 207.238 290.409 209.513C291.176 212.122 292.026 214.986 292.911 217.993C294.659 224.007 296.245 229.445 297.398 233.445L298.723 238.128C298.866 238.663 298.985 239.084 299.068 239.411C299.117 239.558 299.151 239.709 299.169 239.863C299.103 239.723 299.049 239.578 299.009 239.429C298.908 239.108 298.771 238.692 298.605 238.163L297.178 233.51C295.99 229.534 294.385 224.103 292.602 218.106L290.124 209.614C289.369 207.305 289.021 204.881 289.096 202.453C289.185 200.808 289.685 199.212 290.552 197.811C290.86 197.291 291.254 196.827 291.717 196.438Z" fill="#263238"/>
<path d="M304.598 239.857C304.521 239.725 304.455 239.585 304.402 239.441C304.289 239.156 304.099 238.752 303.903 238.205C303.487 237.13 302.946 235.543 302.393 233.546C301.84 231.549 301.288 229.154 300.759 226.474C300.23 223.794 299.689 220.84 299.095 217.75C298.5 214.66 297.805 211.742 297.021 209.133C296.338 206.819 295.482 204.56 294.459 202.376C293.766 200.902 292.972 199.479 292.082 198.115C291.785 197.622 291.488 197.265 291.345 197.009C291.251 196.887 291.17 196.756 291.102 196.617C291.21 196.728 291.309 196.847 291.399 196.974C291.577 197.217 291.868 197.568 292.189 198.043C293.12 199.387 293.945 200.802 294.655 202.275C295.721 204.456 296.609 206.72 297.312 209.044C298.165 211.881 298.869 214.762 299.422 217.673C300.016 220.769 300.551 223.717 301.05 226.403C301.549 229.089 302.09 231.484 302.613 233.475C303.136 235.466 303.641 237.041 304.021 238.152C304.2 238.699 304.366 239.115 304.461 239.406C304.522 239.551 304.568 239.703 304.598 239.857Z" fill="#263238"/>
<path d="M288.623 211.277C288.623 211.366 288.166 211.556 287.56 211.705C286.953 211.854 286.436 211.901 286.418 211.812C286.401 211.723 286.87 211.539 287.482 211.39C288.094 211.241 288.605 211.194 288.623 211.277Z" fill="#263238"/>
<path d="M287.694 205.294C287.213 205.43 286.713 205.484 286.214 205.455C285.718 205.525 285.213 205.509 284.723 205.407C285.186 205.196 285.694 205.1 286.202 205.128C286.706 205.058 287.219 205.115 287.694 205.294Z" fill="#263238"/>
<path d="M288.681 199.844C288.622 199.91 288.147 199.601 287.618 199.149C287.089 198.697 286.702 198.281 286.762 198.216C286.821 198.151 287.297 198.454 287.826 198.905C288.355 199.357 288.741 199.755 288.681 199.844Z" fill="#263238"/>
<path d="M291.371 194.762C291.46 194.762 291.436 195.208 291.424 195.725C291.412 196.242 291.424 196.67 291.317 196.682C291.21 196.694 291.085 196.266 291.103 195.713C291.121 195.16 291.27 194.744 291.371 194.762Z" fill="#263238"/>
<path d="M296.824 197.146C296.901 197.199 296.687 197.633 296.348 198.115C296.01 198.596 295.677 198.947 295.606 198.893C295.534 198.84 295.748 198.412 296.081 197.93C296.414 197.449 296.752 197.098 296.824 197.146Z" fill="#263238"/>
<path d="M300.37 203.313C300.406 203.397 299.954 203.658 299.36 203.908C298.765 204.157 298.254 204.276 298.219 204.193C298.183 204.11 298.641 203.848 299.235 203.599C299.829 203.349 300.34 203.23 300.37 203.313Z" fill="#263238"/>
<path d="M302.525 209.655C301.673 210.237 300.632 210.472 299.613 210.315C300.079 210.13 300.566 210.007 301.063 209.946C301.536 209.786 302.027 209.688 302.525 209.655Z" fill="#263238"/>
<path d="M292.643 207.854C292.554 207.824 292.643 207.39 292.78 206.873C292.917 206.356 293.136 205.964 293.226 205.994C293.315 206.023 293.226 206.457 293.083 206.968C292.94 207.479 292.726 207.878 292.643 207.854Z" fill="#263238"/>
<path d="M294.025 215.818C294.053 215.354 294.187 214.903 294.418 214.499C294.721 213.804 295.012 213.275 295.113 213.31C295.084 213.773 294.948 214.223 294.715 214.624C294.412 215.295 294.103 215.854 294.025 215.818Z" fill="#263238"/>
<path d="M290.614 217.993C290.179 217.989 289.751 217.896 289.354 217.72C288.682 217.506 288.136 217.316 288.165 217.226C288.195 217.137 288.76 217.197 289.455 217.411C290.15 217.625 290.649 217.916 290.614 217.993Z" fill="#263238"/>
<path d="M292.561 224.489C292.614 224.561 292.234 224.917 291.723 225.286C291.212 225.654 290.748 225.88 290.695 225.82C290.641 225.761 291.015 225.393 291.533 225.024C292.05 224.656 292.525 224.418 292.561 224.489Z" fill="#263238"/>
<path d="M294.16 230.961C294.16 231.05 293.714 231.234 293.12 231.377C292.525 231.519 292.026 231.573 292.008 231.484C291.99 231.394 292.448 231.21 293.042 231.068C293.637 230.925 294.136 230.871 294.16 230.961Z" fill="#263238"/>
<path d="M302.705 215.063C302.746 215.134 302.348 215.455 301.772 215.657C301.195 215.859 300.684 215.901 300.672 215.817C300.66 215.734 301.106 215.562 301.659 215.354C302.211 215.146 302.669 214.985 302.705 215.063Z" fill="#263238"/>
<path d="M303.919 225.131C303.883 225.214 303.408 225.071 302.861 224.81C302.314 224.548 301.904 224.281 301.94 224.215C301.975 224.15 302.451 224.275 302.997 224.53C303.544 224.786 303.96 225.053 303.919 225.131Z" fill="#263238"/>
<path d="M306.076 232.339C305.589 232.316 305.113 232.188 304.68 231.965C303.943 231.673 303.366 231.37 303.402 231.287C303.889 231.312 304.365 231.439 304.799 231.662C305.268 231.793 305.704 232.024 306.076 232.339Z" fill="#263238"/>
<path d="M294.498 237.985C294.457 237.902 295.027 237.516 295.687 236.993C296.346 236.47 296.875 236 296.935 236.066C296.994 236.131 296.578 236.702 295.889 237.254C295.501 237.621 295.02 237.874 294.498 237.985Z" fill="#263238"/>
<path d="M300.203 234.313C300.107 234.313 299.983 233.837 299.763 233.279C299.543 232.72 299.317 232.268 299.388 232.215C299.46 232.161 299.834 232.554 300.066 233.16C300.298 233.766 300.292 234.313 300.203 234.313Z" fill="#263238"/>
<path d="M298.685 225.654C298.638 225.725 298.269 225.547 297.865 225.262C297.461 224.976 297.182 224.667 297.235 224.608C297.289 224.549 297.651 224.709 298.055 225C298.459 225.291 298.739 225.583 298.685 225.654Z" fill="#263238"/>
<path d="M311.966 212.069C312.019 212.146 311.663 212.497 311.17 212.865C310.676 213.234 310.231 213.46 310.177 213.394C310.124 213.329 310.48 212.966 310.974 212.604C311.467 212.241 311.913 211.998 311.966 212.069Z" fill="#263238"/>
<path d="M313.96 217.541C313.96 217.631 313.407 217.749 312.712 217.672C312.017 217.595 311.523 217.363 311.523 217.28C311.523 217.197 312.118 217.28 312.748 217.351C313.378 217.423 313.96 217.452 313.96 217.541Z" fill="#263238"/>
<path d="M305.367 218.772C305.367 218.855 304.868 219.039 304.179 219.087C303.489 219.134 302.99 219.015 302.99 218.926C302.99 218.837 303.525 218.807 304.179 218.766C304.833 218.724 305.35 218.682 305.367 218.772Z" fill="#263238"/>
<path d="M306.104 213.595C306.104 213.685 305.57 213.696 304.999 213.429C304.429 213.162 304.09 212.757 304.149 212.698C304.209 212.639 304.607 212.9 305.13 213.138C305.653 213.375 306.116 213.512 306.104 213.595Z" fill="#263238"/>
<path d="M314.704 223.42C314.657 223.491 314.11 223.241 313.516 222.855C312.921 222.469 312.44 222.089 312.488 222.017C312.535 221.946 313.082 222.19 313.676 222.582C314.27 222.974 314.752 223.343 314.704 223.42Z" fill="#263238"/>
<path d="M335.698 238.775H289.795V246.911H335.698V238.775Z" fill="#71389A"/>
<path d="M293.227 245.295L298.807 269.607H326.168L332.271 245.295H293.227Z" fill="#71389A"/>
<path d="M335.677 246.917C335.677 247.006 325.325 247.084 312.553 247.084C299.782 247.084 289.424 247.006 289.424 246.917C289.424 246.828 299.776 246.757 312.553 246.757C325.331 246.757 335.677 246.834 335.677 246.917Z" fill="#263238"/>
<path d="M310.148 218.95C310.071 218.998 309.762 218.629 309.447 218.13C309.132 217.631 308.948 217.191 309.019 217.144C309.091 217.096 309.411 217.465 309.72 217.958C310.029 218.451 310.226 218.903 310.148 218.95Z" fill="#263238"/>
<path d="M310.17 225.493C310.147 225.068 310.228 224.644 310.408 224.257C310.628 223.604 310.871 223.098 310.954 223.128C311.038 223.158 310.954 223.722 310.717 224.358C310.479 224.994 310.253 225.523 310.17 225.493Z" fill="#263238"/>
<path d="M312.402 232.369C312.319 232.405 311.98 231.858 311.636 231.139C311.379 230.724 311.217 230.257 311.16 229.772C311.243 229.736 311.582 230.283 311.927 231.002C312.186 231.416 312.349 231.884 312.402 232.369Z" fill="#263238"/>
<path d="M307.557 237.878C307.491 237.819 307.765 237.391 308.151 236.927C308.537 236.464 308.941 236.131 309.007 236.184C309.072 236.238 308.799 236.672 308.412 237.135C308.026 237.599 307.628 237.955 307.557 237.878Z" fill="#263238"/>
<path d="M306.537 227.858C306.537 227.942 306.079 227.942 305.55 227.858C305.022 227.775 304.606 227.621 304.617 227.531C304.629 227.442 305.075 227.448 305.604 227.531C306.133 227.615 306.555 227.775 306.537 227.858Z" fill="#263238"/>
<path d="M205.446 104.615L173.948 93.3232C176.011 117.891 178.013 143.071 171.482 166.842C170.775 169.416 170.151 172.637 172.195 174.348C173.42 175.37 175.167 175.406 176.765 175.359C180.03 175.26 183.289 175.02 186.541 174.639C190 174.241 193.673 173.564 196.151 171.103C198.213 169.035 199.045 166.076 199.717 163.241C204.423 144.074 206.352 124.33 205.446 104.615Z" fill="#263238"/>
<path d="M153.881 206.024L157.613 201.133L160.109 188.059L165.79 156.235C165.79 156.235 168.292 144.266 176.012 140.837L177.646 172.631L161.898 212.585L153.881 206.024Z" fill="#71389A"/>
<path d="M187.729 132.184L183.088 137.675L176.01 140.825C176.01 140.825 160.428 170.586 160.036 170.866C159.643 171.145 157.118 179.631 158.508 186.864C159.899 194.096 160.885 203.557 160.731 210.368C160.576 217.178 151.668 239.583 151.121 244.73C150.575 249.876 148.744 269.767 148.744 269.767L227.475 269.173C226.761 264.173 225.785 259.213 224.551 254.315C224.551 254.315 224.272 234.561 221.354 230.805C221.354 230.805 223.577 225.659 223.303 222.741C223.03 219.823 234.987 204.241 237.352 198.815C239.718 193.389 249.036 180.986 249.173 172.108C249.309 163.229 247.919 155.694 243.468 149.572C239.016 143.451 230.952 139.279 227.612 137.057L221.075 128.707L187.729 132.184Z" fill="#71389A"/>
<path d="M159.664 269.767C159.656 269.688 159.656 269.608 159.664 269.529C159.664 269.357 159.664 269.125 159.664 268.828C159.664 268.198 159.73 267.3 159.777 266.147C159.878 263.806 160.015 260.442 160.187 256.294C160.258 254.214 160.336 251.932 160.365 249.484C160.365 248.295 160.365 246.999 160.365 245.698C160.341 244.344 160.474 242.992 160.764 241.669C161.432 238.86 162.292 236.1 163.337 233.408C163.872 231.989 164.327 230.541 164.698 229.07C164.846 228.312 164.947 227.546 165.001 226.776L165.233 224.399C165.554 221.237 165.863 218.153 166.16 215.169C166.314 213.678 166.457 212.198 166.605 210.778C166.754 209.357 166.932 207.943 166.974 206.57C167.307 201.713 167.968 196.885 168.953 192.117C169.755 188.028 170.492 184.736 170.968 182.454C171.205 181.331 171.389 180.451 171.514 179.833L171.663 179.15C171.676 179.071 171.696 178.994 171.722 178.918C171.719 178.998 171.709 179.077 171.693 179.156C171.663 179.328 171.627 179.554 171.58 179.845C171.461 180.439 171.294 181.349 171.086 182.484C170.647 184.772 169.945 188.064 169.167 192.159C168.212 196.937 167.573 201.773 167.253 206.635C167.218 208.014 167.021 209.411 166.891 210.849C166.76 212.287 166.605 213.749 166.457 215.241L165.536 224.476L165.304 226.853C165.246 227.635 165.141 228.413 164.989 229.183C164.619 230.667 164.161 232.127 163.616 233.557C162.571 236.235 161.71 238.981 161.037 241.776C160.751 243.075 160.613 244.403 160.627 245.734C160.669 247.047 160.663 248.313 160.627 249.537C160.585 251.986 160.496 254.291 160.413 256.348C160.235 260.508 160.045 263.877 159.908 266.201C159.831 267.354 159.771 268.251 159.73 268.881C159.706 269.174 159.688 269.406 159.676 269.576C159.675 269.64 159.671 269.703 159.664 269.767Z" fill="#263238"/>
<path d="M171.924 178.639C171.924 178.003 174.717 167.217 180.553 158.202C186.389 149.186 187.684 141.318 187.684 141.318L187.779 129.682L188.279 131.179L217.874 126.889L218.771 131.168L198.964 149.061C198.964 149.061 189.812 150.844 189.455 151.094C189.099 151.344 171.924 178.639 171.924 178.639Z" fill="#EFBDA8"/>
<path d="M227.617 137.068C227.542 137.213 227.455 137.35 227.355 137.478C227.177 137.746 226.91 138.138 226.559 138.631C225.858 139.624 224.812 141.038 223.486 142.762C222.161 144.485 220.551 146.512 218.815 148.8C217.948 149.947 217.032 151.177 216.141 152.425C215.917 152.759 215.669 153.077 215.398 153.376C215.103 153.703 214.7 153.914 214.263 153.97C213.823 153.973 213.392 153.849 213.021 153.613C212.653 153.399 212.32 153.174 211.969 152.948L207.892 150.333C207.233 149.911 206.591 149.483 205.955 149.097C205.379 148.68 204.68 148.471 203.97 148.502C203.301 148.626 202.675 148.918 202.152 149.352C201.617 149.756 201.088 150.166 200.535 150.505C199.512 151.133 198.397 151.596 197.231 151.878C195.548 152.3 193.791 152.34 192.09 151.997C191.824 151.948 191.56 151.884 191.3 151.807C191.074 151.741 190.884 151.688 190.706 151.628C190.549 151.582 190.397 151.518 190.254 151.438C190.413 151.472 190.57 151.515 190.723 151.569C190.878 151.616 191.068 151.664 191.318 151.718C191.578 151.784 191.842 151.838 192.108 151.878C193.791 152.175 195.518 152.104 197.171 151.67C198.31 151.377 199.396 150.91 200.392 150.285C200.927 149.952 201.438 149.548 201.985 149.132C202.542 148.662 203.212 148.347 203.928 148.217C204.699 148.168 205.465 148.377 206.104 148.811C206.751 149.21 207.387 149.626 208.053 150.048L212.13 152.657C212.825 153.078 213.496 153.667 214.233 153.631C214.597 153.585 214.931 153.408 215.172 153.132C215.434 152.845 215.675 152.539 215.891 152.217C216.801 150.951 217.71 149.739 218.584 148.598C220.331 146.315 221.965 144.307 223.338 142.601C224.711 140.896 225.751 139.499 226.482 138.53L227.331 137.413C227.42 137.293 227.515 137.177 227.617 137.068Z" fill="#263238"/>
<path d="M183.092 171.02C183.21 170.725 183.357 170.442 183.532 170.176C183.829 169.647 184.286 168.886 184.863 167.959C186.051 166.105 187.703 163.591 189.718 160.929C191.733 158.266 193.688 155.967 195.162 154.35C195.899 153.542 196.505 152.9 196.945 152.466C197.155 152.229 197.386 152.01 197.634 151.812C197.458 152.073 197.259 152.318 197.04 152.543C196.606 153.049 196.029 153.702 195.34 154.493C193.92 156.145 191.988 158.463 189.991 161.119C187.995 163.775 186.277 166.26 185.077 168.078C184.482 168.958 184.025 169.683 183.662 170.241C183.494 170.516 183.303 170.777 183.092 171.02Z" fill="#263238"/>
<path d="M185.646 173.301H185.758L186.097 173.373L187.411 173.652C188.564 173.902 190.251 174.246 192.403 174.704C193.478 174.918 194.673 175.15 195.968 175.375C196.622 175.488 197.3 175.583 198.007 175.69C198.714 175.797 199.445 175.976 200.188 176.172C201.673 176.552 203.231 177.051 204.853 177.616C205.667 177.901 206.493 178.21 207.337 178.537C207.759 178.704 208.181 178.87 208.609 179.054L209.245 179.333L209.566 179.488L209.732 179.577L209.815 179.631L209.857 179.666C209.897 179.702 209.924 179.75 209.934 179.803V179.839L203.73 199.652C203.388 200.29 202.991 200.897 202.541 201.465C202.093 202.066 201.565 202.604 200.972 203.063C200.752 203.231 200.508 203.363 200.247 203.456L199.51 203.705L198.048 204.198L195.184 205.191L189.609 207.063L189.526 207.093L189.461 207.033L183.631 201.631L182.252 200.347C181.785 199.936 181.341 199.499 180.921 199.04C180.508 198.566 180.236 197.985 180.137 197.364C180.059 196.771 180.071 196.17 180.172 195.581C180.969 191.029 181.866 187.041 182.68 183.731C183.494 180.421 184.243 177.788 184.772 176.005L185.402 173.955L185.574 173.432C185.591 173.37 185.615 173.31 185.646 173.254C185.646 173.254 185.646 173.319 185.604 173.438C185.562 173.557 185.515 173.747 185.455 173.973L184.861 176.029C184.362 177.812 183.643 180.445 182.852 183.755C182.062 187.065 181.188 191.059 180.422 195.593C180.324 196.157 180.312 196.732 180.386 197.299C180.479 197.872 180.735 198.406 181.123 198.838C181.533 199.287 181.968 199.714 182.425 200.116L183.809 201.447L189.645 206.837H189.497L195.065 204.953L197.953 203.979L199.415 203.485L200.152 203.236C200.381 203.152 200.595 203.034 200.788 202.885C201.357 202.44 201.864 201.923 202.297 201.346C202.726 200.785 203.106 200.189 203.433 199.563L209.679 179.761L209.791 179.803C206.652 178.453 203.429 177.309 200.14 176.38C199.403 176.184 198.678 176.017 197.983 175.893C197.288 175.768 196.592 175.679 195.939 175.56C194.637 175.328 193.443 175.084 192.373 174.858C190.222 174.401 188.54 174.009 187.393 173.735L186.085 173.414L185.753 173.325C185.681 173.319 185.64 173.307 185.646 173.301Z" fill="#263238"/>
<g opacity="0.3">
<path d="M186.297 241.936C179.415 240.896 169.853 238.026 162.008 236.386C159.209 235.791 156.784 235.126 153.985 234.543L153.504 236.094C161.452 237.809 169.144 240.552 176.384 244.254C180.734 246.482 185.049 249.085 189.886 249.793C195.3 250.589 200.738 248.925 205.932 247.279C208.903 246.346 211.964 245.33 214.062 243.071C215.541 241.473 216.385 239.405 217.164 237.372C219.212 231.996 221.005 226.528 222.542 220.97C213.2 231.465 200.185 244.04 186.297 241.936Z" fill="black"/>
</g>
<path d="M218.739 174.205L198.961 210.575C198.961 210.575 194.373 211.497 194.373 216.352C194.373 216.352 192.775 215.074 190.451 216.459C188.959 217.344 184.758 218.527 182.434 219.769C181.878 220.064 181.44 220.54 181.191 221.118C180.943 221.696 180.899 222.342 181.067 222.948L187.206 245.252C187.206 245.252 194.665 245.252 195.324 243.404L205.552 240.201C205.552 240.201 212.155 238.471 214.71 234.062C217.265 229.652 232.491 206.974 232.491 206.974" fill="#71389A"/>
<path d="M232.489 206.975C232.489 206.975 232.447 207.058 232.352 207.206C232.257 207.355 232.109 207.575 231.93 207.86L230.266 210.386L224.038 219.799C222.713 221.82 221.251 224.043 219.676 226.455C218.101 228.868 216.408 231.459 214.708 234.27C213.779 235.715 212.538 236.934 211.077 237.836C209.569 238.805 207.943 239.578 206.239 240.136L195.37 243.547L195.465 243.452C195.303 243.798 195.029 244.079 194.686 244.248C194.369 244.417 194.034 244.553 193.688 244.652C193 244.859 192.297 245.008 191.584 245.098C190.132 245.295 188.669 245.398 187.204 245.407H187.086V245.294L183.621 232.707C182.995 230.445 182.379 228.205 181.773 225.986C181.475 224.869 181.178 223.799 180.881 222.67C180.789 222.08 180.878 221.476 181.139 220.938C181.399 220.401 181.817 219.956 182.337 219.663C184.328 218.733 186.367 217.911 188.446 217.202C188.946 217.006 189.439 216.81 189.914 216.608C190.38 216.344 190.862 216.112 191.358 215.913C191.872 215.722 192.422 215.655 192.966 215.716C193.51 215.777 194.032 215.964 194.49 216.263L194.253 216.376C194.227 214.974 194.699 213.608 195.584 212.519C196.467 211.496 197.65 210.776 198.965 210.463L198.87 210.534C204.777 199.718 209.74 190.638 213.222 184.249L217.293 176.844C217.769 175.995 218.131 175.347 218.381 174.889L218.666 174.396C218.695 174.338 218.729 174.282 218.767 174.229C218.767 174.229 218.767 174.289 218.684 174.402L218.416 174.913C218.179 175.371 217.822 176.03 217.37 176.886C216.437 178.615 215.082 181.135 213.371 184.326L199.108 210.665V210.719H199.043C197.79 211.023 196.664 211.711 195.822 212.686C194.981 213.722 194.536 215.024 194.568 216.358V216.638L194.336 216.471C193.916 216.204 193.44 216.037 192.945 215.986C192.45 215.934 191.949 215.999 191.483 216.174C190.999 216.37 190.529 216.599 190.075 216.858C189.587 217.089 189.088 217.292 188.583 217.488C186.518 218.193 184.492 219.01 182.515 219.936C182.051 220.199 181.677 220.598 181.444 221.079C181.212 221.56 181.131 222.1 181.214 222.628C181.47 223.692 181.808 224.809 182.099 225.909C182.706 228.123 183.322 230.366 183.948 232.636C185.136 236.945 186.295 241.17 187.406 245.217L187.264 245.104C188.715 245.099 190.164 245 191.602 244.807C192.3 244.716 192.989 244.571 193.664 244.373C193.988 244.279 194.301 244.152 194.597 243.993C194.878 243.859 195.106 243.635 195.245 243.357L195.275 243.292H195.34L206.21 239.904C207.884 239.354 209.481 238.593 210.964 237.64C212.395 236.761 213.612 235.576 214.53 234.169C216.241 231.358 217.947 228.773 219.522 226.36L223.919 219.722L230.159 210.303L231.859 207.801L232.305 207.159C232.43 207.016 232.489 206.975 232.489 206.975Z" fill="#263238"/>
<path d="M221.786 222.146C221.732 222.036 221.694 221.917 221.673 221.796C221.602 221.534 221.519 221.201 221.412 220.785C221.18 219.858 220.871 218.592 220.485 217.035C219.706 213.88 218.607 209.518 217.311 204.722C216.016 199.926 214.768 195.605 213.847 192.479L212.759 188.777L212.468 187.773C212.428 187.655 212.402 187.534 212.391 187.41C212.45 187.519 212.495 187.635 212.527 187.755L212.872 188.741C213.163 189.609 213.567 190.863 214.061 192.414C215.035 195.522 216.313 199.843 217.626 204.639C218.94 209.434 220.003 213.814 220.717 216.988C221.079 218.575 221.364 219.864 221.549 220.756L221.751 221.784C221.771 221.904 221.782 222.025 221.786 222.146Z" fill="#FAF5FF"/>
<path d="M214.575 233.516C214.492 233.516 212.84 224.917 210.891 214.279C208.941 203.641 207.42 194.994 207.503 194.977C207.586 194.959 209.239 203.576 211.194 214.22C213.149 224.863 214.658 233.504 214.575 233.516Z" fill="#FAF5FF"/>
<path d="M182.027 183.037C182.074 183.108 179.174 185.165 175.555 187.631C171.936 190.097 168.952 192.035 168.905 191.963C168.857 191.892 171.757 189.836 175.377 187.375C178.996 184.915 181.979 182.966 182.027 183.037Z" fill="#FAF5FF"/>
<path d="M180.101 190.798C179.977 190.965 179.833 191.117 179.673 191.25C179.382 191.529 178.96 191.915 178.425 192.385C177.355 193.33 175.857 194.601 174.152 195.95C172.446 197.299 170.871 198.482 169.713 199.308C169.118 199.724 168.661 200.051 168.328 200.271C168.16 200.393 167.981 200.499 167.793 200.586C167.929 200.428 168.085 200.288 168.257 200.17L169.582 199.13C170.711 198.262 172.262 197.062 173.962 195.707C175.661 194.352 177.183 193.116 178.282 192.212L179.596 191.154C179.748 191.014 179.917 190.894 180.101 190.798Z" fill="#FAF5FF"/>
<path d="M167.167 191.641C167.096 191.695 165.028 188.979 162.55 185.586C160.071 182.192 158.11 179.393 158.182 179.34C158.253 179.286 160.315 182.002 162.799 185.401C165.283 188.801 167.244 191.594 167.167 191.641Z" fill="#FAF5FF"/>
<path d="M166.139 202.06C165.752 201.798 165.399 201.491 165.087 201.145C164.492 200.55 163.649 199.683 162.799 198.678C161.949 197.674 161.236 196.723 160.748 196.01C160.46 195.645 160.219 195.246 160.029 194.821C160.365 195.141 160.666 195.496 160.927 195.879C161.456 196.557 162.192 197.478 163.036 198.476C163.88 199.475 164.671 200.36 165.241 200.996C165.575 201.32 165.875 201.676 166.139 202.06Z" fill="#FAF5FF"/>
<path d="M220.188 146.274C219.677 145.981 219.188 145.652 218.726 145.288L215.303 142.792C213.965 141.811 212.771 140.908 211.921 140.23C211.441 139.887 210.995 139.499 210.59 139.071C211.103 139.357 211.592 139.685 212.052 140.052L215.487 142.542C216.824 143.522 218.024 144.426 218.874 145.103C219.351 145.448 219.791 145.84 220.188 146.274Z" fill="#FAF5FF"/>
<path d="M222.897 142.519C221.404 141.482 219.972 140.361 218.606 139.161C217.174 138.037 215.805 136.835 214.506 135.56C216.002 136.597 217.437 137.72 218.803 138.923C220.234 140.043 221.602 141.244 222.897 142.519Z" fill="#FAF5FF"/>
<path d="M194.347 180.232C194.43 180.232 193.372 186.175 191.97 193.419C190.567 200.663 189.379 206.559 189.296 206.547C189.212 206.535 190.276 200.604 191.673 193.36C193.069 186.115 194.264 180.184 194.347 180.232Z" fill="#FAF5FF"/>
<path d="M209.396 224.458C209.216 224.398 209.044 224.317 208.884 224.214C208.558 224.042 208.106 223.769 207.553 223.412C206.131 222.464 204.806 221.38 203.595 220.173C202.386 218.966 201.301 217.64 200.356 216.215C200 215.669 199.726 215.217 199.554 214.89C199.45 214.73 199.37 214.556 199.316 214.373C199.358 214.373 199.78 215.039 200.541 216.091C201.527 217.465 202.622 218.759 203.815 219.959C205.016 221.149 206.308 222.244 207.678 223.234C208.736 223.989 209.425 224.411 209.396 224.458Z" fill="#263238"/>
<path d="M210.048 213.048C209.5 213.218 208.933 213.319 208.36 213.351C205.598 213.635 202.806 213.34 200.165 212.483C199.61 212.333 199.077 212.114 198.578 211.829C198.578 211.788 199.214 212.002 200.23 212.275C201.547 212.637 202.89 212.891 204.248 213.036C205.608 213.177 206.977 213.21 208.342 213.137C208.909 213.074 209.478 213.044 210.048 213.048Z" fill="#263238"/>
<path d="M167.548 156.55C167.541 156.599 167.527 156.647 167.506 156.692L167.346 157.097C167.215 157.453 166.989 157.97 166.686 158.624C166.092 159.937 165.064 161.768 163.745 163.972C162.136 166.525 160.767 169.22 159.656 172.025L159.442 172.619L159.264 173.214C159.151 173.63 159.032 174.057 158.919 174.485C158.792 174.915 158.699 175.354 158.64 175.799C158.568 176.244 158.491 176.696 158.414 177.154C158.307 178.069 158.247 179.008 158.194 179.959C158.194 180.434 158.194 180.916 158.194 181.403C158.194 181.89 158.194 182.372 158.235 182.859C158.524 186.567 159.036 190.254 159.769 193.901C160.35 196.874 160.759 199.878 160.993 202.898C161.112 204.182 161.052 205.359 161.07 206.387C160.987 207.409 160.939 208.294 160.85 209.013C160.761 209.733 160.63 210.255 160.559 210.654L160.476 211.076C160.468 211.125 160.454 211.173 160.434 211.218C160.428 211.169 160.428 211.119 160.434 211.07C160.434 210.959 160.452 210.816 160.488 210.642C160.541 210.244 160.619 209.691 160.72 209.002C160.821 208.312 160.821 207.403 160.886 206.381C160.85 205.359 160.886 204.194 160.761 202.91C160.495 199.904 160.066 196.914 159.478 193.954C158.731 190.319 158.211 186.641 157.921 182.942C157.879 182.449 157.873 181.961 157.879 181.468C157.885 180.975 157.879 180.5 157.879 180.012C157.938 179.055 157.998 178.105 158.105 177.177C158.188 176.72 158.265 176.262 158.342 175.811C158.402 175.36 158.495 174.915 158.622 174.479C158.747 174.046 158.865 173.618 158.984 173.196L159.163 172.566C159.234 172.358 159.311 172.156 159.382 171.972C160.508 169.157 161.901 166.456 163.542 163.907C164.88 161.702 165.92 159.896 166.561 158.6C166.876 157.952 167.12 157.453 167.275 157.102C167.346 156.942 167.405 156.817 167.459 156.71C167.478 156.652 167.509 156.597 167.548 156.55Z" fill="#263238"/>
<path d="M187.735 132.183L187.657 132.308L187.42 132.653C187.212 132.962 186.873 133.396 186.427 133.942C185.53 135.042 184.169 136.575 182.451 138.459C181.602 139.41 180.669 140.444 179.658 141.561C178.648 142.678 177.602 143.903 176.598 145.269C174.544 148.358 173.228 151.878 172.753 155.557L172.461 155.473C172.941 154.564 173.499 153.699 174.131 152.888C174.452 152.454 174.773 152.021 175.07 151.581C175.219 151.361 175.368 151.141 175.498 150.915L175.694 150.576L175.789 150.404L175.831 150.315V150.273L175.867 150.22C175.886 150.197 175.911 150.179 175.939 150.169C175.967 150.158 175.998 150.156 176.027 150.16C176.055 150.165 176.081 150.176 176.104 150.193C176.126 150.209 176.145 150.231 176.158 150.256V150.291V150.339L176.194 150.434L176.265 150.624C176.318 150.747 176.36 150.874 176.39 151.004C176.468 151.261 176.525 151.523 176.562 151.789C176.646 152.307 176.68 152.833 176.663 153.358C176.524 155.328 176.197 157.28 175.688 159.188C174.993 162.896 173.721 166.069 172.967 168.797C172.303 170.936 171.934 173.155 171.867 175.394C171.859 176.001 171.887 176.608 171.95 177.212C171.95 177.403 171.992 177.563 172.004 177.682C172.013 177.737 172.013 177.793 172.004 177.848C171.823 177.043 171.733 176.219 171.736 175.394C171.758 173.138 172.1 170.897 172.753 168.738C173.484 165.986 174.726 162.795 175.403 159.128C175.899 157.237 176.217 155.303 176.354 153.352C176.368 152.845 176.334 152.337 176.253 151.836C176.217 151.583 176.162 151.332 176.087 151.088C176.061 150.963 176.023 150.842 175.974 150.725L175.902 150.547L175.873 150.458V150.41C175.92 150.41 175.754 150.452 175.986 150.351C175.885 150.297 176.128 150.416 176.098 150.41V150.452L176.087 150.517L175.992 150.701L175.789 151.052C175.647 151.284 175.504 151.509 175.35 151.729C175.047 152.175 174.726 152.609 174.405 153.049C173.785 153.841 173.237 154.686 172.765 155.574L172.325 156.501L172.473 155.491C172.956 151.764 174.301 148.201 176.402 145.085C177.418 143.706 178.493 142.5 179.498 141.377C180.502 140.254 181.459 139.232 182.327 138.293C184.062 136.426 185.447 134.917 186.362 133.847C186.819 133.306 187.17 132.89 187.396 132.593L187.657 132.266C187.693 132.213 187.729 132.177 187.735 132.183Z" fill="#263238"/>
<path d="M188.961 217C189.039 217.058 189.109 217.126 189.169 217.202L189.722 217.826C190.017 218.15 190.293 218.491 190.548 218.848C190.851 219.264 191.225 219.722 191.564 220.269C191.903 220.815 192.307 221.41 192.663 222.081C193.02 222.753 193.394 223.472 193.769 224.244C194.529 225.942 195.141 227.701 195.599 229.504C196.026 231.314 196.298 233.157 196.413 235.013C196.413 235.869 196.479 236.683 196.413 237.443C196.403 238.151 196.355 238.857 196.271 239.559C196.229 240.207 196.11 240.783 196.033 241.288C195.97 241.723 195.883 242.154 195.771 242.578L195.569 243.386C195.553 243.483 195.523 243.577 195.48 243.666C195.475 243.568 195.485 243.469 195.51 243.374C195.552 243.149 195.599 242.881 195.653 242.554C195.706 242.227 195.807 241.77 195.861 241.259C195.914 240.748 196.027 240.183 196.057 239.535C196.086 238.888 196.164 238.198 196.158 237.438C196.152 236.677 196.158 235.88 196.11 235.031C195.981 233.195 195.702 231.372 195.278 229.581C194.828 227.796 194.232 226.051 193.495 224.363C193.133 223.597 192.806 222.86 192.426 222.206C192.045 221.552 191.712 220.934 191.368 220.393C191.023 219.853 190.684 219.371 190.399 218.955C190.114 218.539 189.84 218.183 189.615 217.903L189.11 217.244C189.051 217.168 189.001 217.087 188.961 217Z" fill="#263238"/>
<path d="M207.828 184.629C207.52 184.556 207.22 184.454 206.931 184.326L204.512 183.44C202.462 182.697 199.609 181.753 196.4 180.903C193.191 180.053 190.237 179.453 188.08 179.078L185.537 178.65C185.222 178.614 184.91 178.555 184.604 178.472C184.922 178.462 185.24 178.482 185.554 178.531C186.149 178.591 187.034 178.704 188.116 178.864C190.918 179.294 193.695 179.873 196.436 180.6C199.204 181.332 201.932 182.211 204.607 183.232C205.623 183.63 206.438 183.963 206.984 184.219C207.277 184.331 207.559 184.468 207.828 184.629Z" fill="#263238"/>
<g opacity="0.3">
<path d="M204.604 226.545C204.169 225.741 203.603 225.016 202.928 224.399L194.395 215.711V216.353C196.29 217.642 196.694 220.257 197.241 222.486C197.788 224.714 198.263 227.097 199.814 228.791C200.427 229.504 201.266 229.985 202.192 230.152C202.65 230.231 203.121 230.179 203.552 230.004C203.982 229.829 204.355 229.536 204.628 229.16C204.841 228.756 204.95 228.306 204.946 227.849C204.942 227.393 204.824 226.945 204.604 226.545Z" fill="black"/>
</g>
<g opacity="0.3">
<path d="M192.889 205.934C191.979 206.362 190.967 206.521 189.971 206.392C189.127 206.117 188.368 205.63 187.766 204.978L180.664 198.506C182.697 201.477 184.325 204.52 186.357 207.509C186.904 208.318 187.51 209.167 188.425 209.5C189.341 209.833 190.446 209.542 191.397 209.179C194.813 207.865 197.903 205.826 200.454 203.201L192.889 205.934Z" fill="black"/>
</g>
<g opacity="0.3">
<path d="M183.961 169.232C190.599 166.052 192.988 157.221 199.579 153.935C201.478 153.016 203.588 152.62 205.691 152.79C207.794 152.959 209.814 153.687 211.542 154.898C212.683 155.718 213.949 156.811 215.304 156.425C216.326 156.134 216.914 155.094 217.396 154.149C219.044 150.924 220.692 147.695 222.34 144.462L215.856 152.104C215.442 152.701 214.855 153.158 214.174 153.412C212.867 153.751 211.922 152.283 210.716 151.682C206.96 149.81 204.321 147.451 202.229 149.032C202.229 149.032 198.574 151.546 197.113 151.813L183.961 168.982" fill="black"/>
</g>
<g opacity="0.3">
<path d="M172.66 175.697C172.113 172.773 172.767 169.54 173.973 166.824C175.18 164.108 176.695 161.476 177.438 158.611C178.032 156.306 178.116 153.898 177.682 151.557C177.474 150.464 177.159 149.352 177.397 148.265C177.58 147.576 177.882 146.925 178.288 146.339C179.79 143.935 181.525 141.686 183.47 139.624L187.63 133.384C187.63 133.384 187.808 140.634 187.672 141.318C187.229 143.465 186.633 145.578 185.889 147.641C184.666 151.008 183.088 154.235 181.182 157.268C178.939 160.76 176.985 164.429 175.34 168.239L172.66 175.697Z" fill="black"/>
</g>
<path d="M198.962 149.061C190.541 147.076 187.955 142.886 187.854 135.481L187.73 126.056C187.73 126.056 178.405 125.575 176.23 111.686C175.148 104.781 174.21 93.6199 174.816 84.349C175.356 76.029 184.009 61.3382 192.3 62.2356L215.085 73.319C216.3 73.4511 217.421 74.034 218.228 74.9527C219.034 75.8714 219.467 77.0591 219.441 78.2813L217.658 132.106" fill="#EFBDA8"/>
<path d="M178.377 94.5766C178.377 95.0373 178.555 95.4803 178.874 95.8127C179.193 96.1451 179.628 96.341 180.089 96.3595C180.315 96.3781 180.543 96.351 180.759 96.2799C180.975 96.2088 181.175 96.095 181.346 95.9454C181.517 95.7958 181.657 95.6133 181.756 95.4088C181.855 95.2043 181.913 94.982 181.925 94.7549C181.925 94.2951 181.748 93.853 181.43 93.5208C181.112 93.1886 180.679 92.992 180.219 92.972C179.992 92.9543 179.764 92.9819 179.548 93.0532C179.332 93.1246 179.133 93.2383 178.961 93.3877C178.79 93.5371 178.65 93.7192 178.549 93.9233C178.449 94.1275 178.39 94.3495 178.377 94.5766Z" fill="#263238"/>
<path d="M177.271 90.7445C177.461 90.9109 178.863 90.7445 180.723 91.1784C182.584 91.6122 183.855 92.462 184.075 92.3669C184.188 92.3669 184.004 92.0698 183.451 91.6954C182.634 91.1769 181.736 90.7992 180.795 90.5781C179.89 90.3424 178.949 90.2759 178.019 90.382C177.407 90.4949 177.175 90.6613 177.271 90.7445Z" fill="#263238"/>
<path d="M196.205 95.1118C196.205 95.5735 196.384 96.0173 196.704 96.3499C197.024 96.6824 197.461 96.8777 197.923 96.8946C198.149 96.9124 198.377 96.8847 198.592 96.8133C198.808 96.7419 199.007 96.6281 199.178 96.4786C199.349 96.3291 199.489 96.147 199.589 95.9429C199.688 95.7388 199.746 95.5168 199.759 95.29C199.759 94.8293 199.581 94.3863 199.262 94.0539C198.943 93.7216 198.508 93.5256 198.047 93.5072C197.821 93.4894 197.593 93.517 197.377 93.5884C197.161 93.6597 196.961 93.7735 196.789 93.9229C196.618 94.0722 196.478 94.2543 196.378 94.4585C196.277 94.6626 196.219 94.8847 196.205 95.1118Z" fill="#263238"/>
<path d="M196.137 92.2354C196.416 92.3008 197.646 91.3618 199.655 90.827C201.664 90.2921 203.322 90.4407 203.494 90.2327C203.583 90.1436 203.268 89.9712 202.543 89.888C201.492 89.8017 200.433 89.9044 199.417 90.1911C198.427 90.4363 197.495 90.8723 196.672 91.4748C196.137 91.9086 196.006 92.2057 196.137 92.2354Z" fill="#263238"/>
<path d="M189.102 104.852C189.102 104.745 187.913 104.537 185.988 104.288C185.501 104.234 185.037 104.139 184.954 103.8C184.916 103.296 185.032 102.793 185.287 102.356C185.75 101.168 186.232 99.9316 186.743 98.6302C188.763 93.3351 190.225 88.9789 190.011 88.8957C189.797 88.8125 187.985 93.0557 185.964 98.3449L184.573 102.089C184.261 102.677 184.168 103.358 184.312 104.008C184.379 104.186 184.487 104.346 184.626 104.476C184.765 104.606 184.932 104.702 185.114 104.757C185.386 104.831 185.665 104.869 185.946 104.87C187.89 104.953 189.09 104.965 189.102 104.852Z" fill="#263238"/>
<path d="M187.734 126.193C194.268 126.308 200.706 124.607 206.33 121.278C206.33 121.278 201.641 131.06 187.734 129.717V126.193Z" fill="#D1967C"/>
<path d="M189.406 109.512C190.357 108.091 191.783 107.135 193.091 107.081C193.528 107.04 193.968 107.131 194.353 107.343C194.737 107.555 195.049 107.878 195.248 108.27C195.456 108.786 195.536 109.346 195.482 109.9C195.429 110.454 195.242 110.988 194.939 111.455C194.645 111.947 194.214 112.341 193.699 112.591C193.183 112.84 192.606 112.933 192.039 112.858C191.109 112.584 190.281 112.04 189.662 111.295C189.448 111.108 189.281 110.874 189.174 110.611C189.124 110.443 189.112 110.265 189.139 110.092C189.166 109.918 189.23 109.752 189.329 109.607" fill="#D1967C"/>
<path d="M194.738 106.19C194.423 106.19 194.417 108.252 192.634 109.755C190.851 111.259 188.64 110.991 188.622 111.283C188.593 111.413 189.116 111.687 190.049 111.717C191.267 111.732 192.452 111.323 193.4 110.558C194.309 109.817 194.893 108.751 195.029 107.586C195.1 106.695 194.88 106.178 194.738 106.19Z" fill="#263238"/>
<path d="M194.571 83.8622C194.808 84.3614 196.686 83.9276 198.951 83.9751C201.215 84.0227 203.081 84.4565 203.336 83.9751C203.443 83.7374 203.081 83.2798 202.302 82.8519C201.269 82.3325 200.131 82.055 198.975 82.0406C197.819 82.0262 196.674 82.2752 195.628 82.7687C194.838 83.1729 194.464 83.6186 194.571 83.8622Z" fill="#263238"/>
<path d="M176.679 86.5246C177.101 86.9584 178.741 86.5246 180.708 86.477C182.675 86.4295 184.351 86.7623 184.737 86.3106C184.904 86.0848 184.636 85.651 183.911 85.2409C182.897 84.7274 181.767 84.4838 180.631 84.5337C179.503 84.5414 178.396 84.8446 177.422 85.4133C176.732 85.8649 176.5 86.3344 176.679 86.5246Z" fill="#263238"/>
<path d="M239.383 136.165C236.358 131.274 233.886 119.086 232.846 112.911C231.806 106.736 228.519 86.9228 223.254 76.5109C217.989 66.099 211.79 61.8915 205.711 60.2512C203.405 59.5653 200.961 59.4849 198.614 60.0179C196.268 60.5508 194.099 61.6791 192.315 63.294C189.57 65.7484 188.631 72.9036 188.631 72.9036C188.631 72.9036 203.304 76.1662 208.242 84.5338C213.918 94.1434 215.297 98.975 215.297 98.975L217.133 104.234C217.133 104.234 215.409 114.409 214.756 119.442C214.102 124.476 215.13 129.141 219.272 131.179L227.592 137.069C227.592 137.069 238.48 144.468 238.979 144.848C241.302 146.631 245.861 153.388 245.861 153.388C245.861 153.388 245.569 146.167 239.383 136.165Z" fill="#263238"/>
<path d="M188.206 72.9928C188.206 72.9928 179.814 72.0716 176.712 81.5802C175.315 85.865 174.24 98.2202 174.24 98.2202C174.24 98.2202 173.016 88.3907 173.467 82.7688C173.919 77.1468 176.718 70.0629 181.021 66.1288C185.181 62.3075 188.746 60.5128 196.205 60.9704C196.205 60.9704 192.722 62.1589 190.809 65.0056C189.852 66.4497 189.436 67.6561 188.206 72.9928Z" fill="#263238"/>
<path d="M215.187 99.7053C215.336 96.6328 218.682 94.5885 221.344 96.1396C222.806 96.9894 223.929 98.6891 223.793 101.946C223.436 110.646 214.777 108.483 214.771 108.239C214.771 108.067 215.003 103.307 215.187 99.7053Z" fill="#EFBDA8"/>
<path d="M217.564 105.036C217.605 105.036 217.712 105.149 217.962 105.28C218.315 105.449 218.72 105.472 219.091 105.345C220.024 105.048 220.874 103.622 220.969 102.059C221.02 101.314 220.904 100.567 220.63 99.872C220.557 99.6011 220.421 99.3517 220.231 99.1449C220.042 98.938 219.806 98.7797 219.543 98.6834C219.37 98.6294 219.183 98.638 219.016 98.7075C218.849 98.777 218.711 98.9031 218.627 99.0638C218.503 99.3015 218.55 99.4738 218.503 99.4916C218.455 99.5095 218.324 99.3371 218.407 98.9806C218.464 98.7664 218.592 98.5779 218.77 98.4457C219.02 98.2792 219.323 98.2133 219.62 98.2615C219.973 98.3482 220.299 98.5236 220.566 98.771C220.834 99.0185 221.033 99.3299 221.147 99.6759C221.486 100.443 221.631 101.282 221.569 102.118C221.444 103.872 220.481 105.476 219.192 105.785C218.956 105.844 218.711 105.848 218.473 105.799C218.235 105.75 218.012 105.647 217.819 105.5C217.569 105.25 217.534 105.054 217.564 105.036Z" fill="#D1967C"/>
<path d="M202.236 59.7044C202.236 59.7698 201.047 59.7044 199.151 59.9837C198.05 60.1333 196.98 60.4541 195.978 60.9346C194.766 61.5472 193.684 62.3887 192.793 63.4127C191.136 65.2661 189.93 67.4768 189.268 69.8726C188.763 71.7149 188.704 72.9094 188.638 72.9035C188.622 72.6239 188.632 72.3433 188.668 72.0656C188.743 71.3085 188.872 70.5577 189.054 69.8192C189.669 67.3641 190.872 65.0958 192.561 63.2107C194.213 61.2618 196.556 60.0286 199.098 59.7698C199.856 59.6853 200.618 59.6476 201.38 59.6569C201.666 59.6436 201.953 59.6595 202.236 59.7044Z" fill="#455A64"/>
<path d="M223.23 105.994C223.222 105.947 223.222 105.899 223.23 105.851L223.301 105.447C223.336 105.263 223.384 105.043 223.432 104.788C223.479 104.532 223.515 104.193 223.562 103.884C223.811 101.953 223.785 99.9962 223.485 98.0722C223.049 95.2204 222.025 92.4905 220.478 90.0552C218.505 87.1211 215.895 84.6709 212.841 82.8881C211.278 81.9384 209.657 81.0889 207.986 80.3446C206.376 79.6017 204.759 79.0253 203.232 78.3478C200.613 77.1221 198.092 75.6976 195.69 74.0867C193.628 72.7199 192.024 71.5194 190.936 70.6696C190.395 70.2417 189.973 69.9089 189.7 69.6712L189.385 69.4038C189.314 69.3384 189.278 69.3087 189.284 69.3027L189.403 69.38L189.736 69.6237L191.013 70.5745C192.125 71.3946 193.747 72.5654 195.815 73.9025C198.233 75.4765 200.766 76.867 203.392 78.0625C204.872 78.7281 206.5 79.3046 208.147 80.0415C209.829 80.7896 211.463 81.6431 213.037 82.5969C216.134 84.4036 218.776 86.8936 220.763 89.8769C222.319 92.3498 223.332 95.125 223.735 98.0187C224.024 99.9592 224.024 101.932 223.735 103.872L223.574 104.782C223.515 105.031 223.461 105.251 223.42 105.435L223.313 105.839C223.253 105.946 223.235 106 223.23 105.994Z" fill="#455A64"/>
<path d="M225.247 102.713C225.243 102.665 225.243 102.617 225.247 102.57C225.247 102.457 225.247 102.32 225.247 102.154C225.247 101.786 225.288 101.251 225.247 100.555C225.2 95.6882 224.086 90.8905 221.984 86.5005C220.446 83.3019 218.394 80.3769 215.911 77.8417C213.379 75.3516 210.515 73.2237 207.4 71.5185C204.56 69.8902 201.879 68.6362 199.675 67.5487C197.47 66.4611 195.639 65.5816 194.409 64.9279C193.815 64.6129 193.328 64.3336 193.007 64.1672L192.644 63.9592C192.601 63.9368 192.561 63.9088 192.525 63.876C192.525 63.876 192.573 63.876 192.662 63.9295L193.036 64.1077L194.463 64.8209C195.705 65.4152 197.523 66.3007 199.77 67.3466C202.016 68.3926 204.702 69.6524 207.567 71.2689C210.712 72.9744 213.603 75.1129 216.154 77.6218C218.659 80.1848 220.725 83.1422 222.269 86.3757C223.51 89.0223 224.401 91.8191 224.92 94.6957C225.262 96.6316 225.419 98.5956 225.389 100.561C225.389 101.257 225.324 101.797 225.306 102.16C225.306 102.326 225.277 102.463 225.271 102.576C225.268 102.622 225.261 102.668 225.247 102.713Z" fill="#455A64"/>
<path d="M224.991 135.214C224.937 135.133 224.893 135.045 224.861 134.953L224.534 134.18C224.391 133.841 224.225 133.425 224.07 132.932C223.916 132.439 223.708 131.88 223.553 131.244C223.47 130.924 223.381 130.597 223.292 130.252C223.203 129.907 223.137 129.539 223.054 129.164C222.876 128.41 222.769 127.596 222.626 126.746C222.383 124.885 222.243 123.012 222.204 121.136C222.176 117.731 222.345 114.328 222.709 110.944C222.846 109.648 222.965 108.602 223.06 107.877C223.108 107.544 223.143 107.283 223.173 107.045C223.183 106.946 223.203 106.849 223.232 106.754C223.246 106.852 223.246 106.952 223.232 107.051L223.173 107.889C223.108 108.662 223.024 109.672 222.923 110.967C222.721 113.564 222.442 117.16 222.507 121.13C222.544 122.993 222.677 124.854 222.906 126.704C223.036 127.554 223.137 128.368 223.298 129.081C223.375 129.456 223.434 129.818 223.518 130.169L223.761 131.155C223.898 131.791 224.088 132.344 224.231 132.849C224.373 133.354 224.516 133.764 224.641 134.109C224.766 134.454 224.837 134.703 224.914 134.899C224.959 134.999 224.985 135.105 224.991 135.214Z" fill="#455A64"/>
<path d="M114.979 215.045C114.979 215.045 124.428 227.168 127.815 228.119C131.203 229.07 144.033 232.25 144.033 232.25L186.138 241.978L181.182 223.93L141.305 223.389L114.979 215.045Z" fill="#EFBDA8"/>
<path d="M60.8412 153.311C63.9969 161.137 79.9 196.943 83.5846 205.234C83.8241 205.774 84.1758 206.256 84.6165 206.65C85.0571 207.043 85.5764 207.338 86.14 207.516L136.191 223.407L185.849 227.115V225.481L145.705 213.316L133.023 211.83L114.089 164.881C113.663 163.823 112.975 162.89 112.091 162.169C111.207 161.448 110.154 160.962 109.032 160.757L61.8337 152.104C61.6772 152.077 61.5162 152.091 61.3672 152.147C61.2182 152.202 61.0865 152.295 60.9856 152.418C60.8847 152.541 60.8181 152.688 60.7928 152.845C60.7674 153.002 60.7841 153.162 60.8412 153.311Z" fill="#455A64"/>
<path d="M185.85 225.48H185.689L185.232 225.445L183.449 225.284L176.942 224.631L167.296 223.614L155.476 222.426C151.28 222.01 147.281 221.695 143.638 221.487L138.462 221.166C138.062 221.141 137.665 221.09 137.273 221.011C137.067 220.974 136.868 220.91 136.679 220.821C136.487 220.727 136.329 220.575 136.227 220.387C135.916 219.726 135.642 219.047 135.407 218.355C134.438 215.794 133.624 213.708 133.095 212.24C132.834 211.533 132.632 210.974 132.501 210.57L132.346 210.13C132.327 210.082 132.313 210.032 132.305 209.981C132.305 209.981 132.305 210.023 132.376 210.124L132.554 210.546C132.721 210.944 132.941 211.497 133.226 212.198L135.633 218.284C135.867 218.958 136.139 219.619 136.447 220.263C136.528 220.411 136.652 220.531 136.803 220.607C136.971 220.68 137.147 220.734 137.326 220.768C137.719 220.842 138.116 220.887 138.515 220.904C140.131 220.982 141.873 221.101 143.691 221.208C147.34 221.398 151.352 221.701 155.547 222.117L167.368 223.305L177.013 224.381L183.514 225.13L185.297 225.35L185.755 225.409L185.85 225.48Z" fill="#263238"/>
<path d="M160.184 215.889C160.184 215.889 160.903 211.171 160.184 210.238C159.465 209.305 154.408 204.758 154.408 204.758L151.537 202.06L145.208 201.092C144.834 201.034 144.452 201.088 144.108 201.246C143.765 201.405 143.476 201.661 143.277 201.983L142.629 203.023L140.912 202.738L139.396 200.545H135.177L132.057 203.915V208.467C132.057 208.467 132.479 209.733 133.578 208.806C134.677 207.878 134.767 205.311 134.767 205.311L136.639 207.035L134.648 213.108C134.648 213.108 136.044 214.38 137.061 213.108C138.077 211.836 139.503 209.988 139.503 209.988C139.503 209.988 141.191 214.54 144.055 215.889C146.92 217.238 153.837 218.469 155.275 218.148C156.714 217.827 159.911 218.415 160.184 215.889Z" fill="#EFBDA8"/>
<path d="M150.17 205.536C150.17 205.536 150.17 205.607 150.057 205.708C149.919 205.852 149.748 205.96 149.558 206.023C149.262 206.125 148.95 206.169 148.637 206.154C148.275 206.154 147.876 206.065 147.449 206.023C146.994 205.944 146.526 206.017 146.117 206.231C145.695 206.575 145.321 206.975 145.006 207.42C144.591 207.933 144.079 208.36 143.499 208.675C142.918 208.99 142.281 209.188 141.625 209.256C141.081 209.296 140.536 209.197 140.042 208.967C139.548 208.737 139.121 208.384 138.802 207.943L138.736 207.847L138.82 207.764C139.929 206.596 140.952 205.349 141.88 204.032C142.564 203.052 142.932 202.451 142.968 202.469C142.916 202.631 142.842 202.785 142.748 202.927C142.593 203.212 142.356 203.628 142.029 204.115C141.154 205.479 140.16 206.761 139.057 207.948V207.764C139.35 208.163 139.739 208.482 140.188 208.69C140.637 208.898 141.131 208.988 141.625 208.953C142.868 208.817 144.009 208.201 144.804 207.235C145.143 206.775 145.543 206.363 145.993 206.011C146.454 205.776 146.982 205.703 147.49 205.803C147.936 205.863 148.328 205.958 148.679 205.981C148.972 206.007 149.267 205.983 149.552 205.91C149.782 205.829 149.992 205.701 150.17 205.536Z" fill="#D1967C"/>
<path d="M155.135 215.639C155.1 215.639 155.064 215.372 154.874 214.926C154.597 214.299 154.228 213.716 153.78 213.197C153.233 212.519 152.479 211.782 151.795 210.82C151.431 210.309 151.165 209.734 151.011 209.126C150.852 208.464 150.862 207.774 151.041 207.117C151.217 206.467 151.527 205.859 151.95 205.334C152.15 205.066 152.411 204.848 152.71 204.698C152.866 204.628 153.036 204.594 153.207 204.599C153.378 204.604 153.546 204.648 153.697 204.728C154.198 205.04 154.559 205.534 154.701 206.107C154.851 206.561 155.05 206.998 155.296 207.408C155.644 207.997 156.099 208.515 156.639 208.936C157.019 209.239 157.263 209.37 157.233 209.393C156.988 209.312 156.757 209.191 156.55 209.037C155.965 208.635 155.468 208.12 155.088 207.521C154.839 207.104 154.64 206.659 154.493 206.196C154.357 205.702 154.038 205.277 153.602 205.007C153.486 204.95 153.359 204.921 153.23 204.921C153.102 204.921 152.975 204.95 152.859 205.007C152.604 205.141 152.384 205.332 152.217 205.566C151.825 206.064 151.538 206.636 151.373 207.248C151.203 207.857 151.188 208.498 151.332 209.114C151.478 209.686 151.726 210.228 152.063 210.713C152.71 211.658 153.447 212.412 153.982 213.119C154.426 213.666 154.776 214.282 155.016 214.944C155.079 215.125 155.123 215.312 155.147 215.503C155.151 215.594 155.147 215.639 155.135 215.639Z" fill="#D1967C"/>
<path d="M139.06 204.002C138.718 204.006 138.39 204.14 138.144 204.377C137.617 205.038 137.233 205.8 137.015 206.617C136.671 207.568 136.373 208.436 136.13 209.054C136.025 209.402 135.863 209.729 135.648 210.023C135.697 209.666 135.789 209.317 135.922 208.983C136.112 208.347 136.379 207.467 136.724 206.51C136.954 205.652 137.393 204.864 138.002 204.216C138.213 204.027 138.485 203.92 138.768 203.913C138.971 203.889 139.066 203.955 139.06 204.002Z" fill="#D1967C"/>
<path d="M139.514 203.896C139.514 203.931 139.252 203.985 138.819 203.931C138.234 203.849 137.684 203.604 137.232 203.224H137.458L137.071 203.563C136.37 204.224 135.601 204.81 134.777 205.31C135.401 204.575 136.102 203.909 136.869 203.325L137.261 202.992L137.362 202.909L137.458 202.992C137.872 203.346 138.362 203.6 138.89 203.735C139.102 203.771 139.311 203.825 139.514 203.896Z" fill="#D1967C"/>
<path d="M146.205 214.766C146.296 214.385 146.449 214.022 146.657 213.69C147.101 212.863 147.64 212.089 148.261 211.385C148.882 210.677 149.58 210.041 150.341 209.489C150.643 209.236 150.984 209.036 151.352 208.895C150.352 209.737 149.398 210.631 148.493 211.575C147.671 212.595 146.908 213.66 146.205 214.766Z" fill="#D1967C"/>
<path d="M110.525 161.506C110.56 161.552 110.586 161.605 110.603 161.66L110.805 162.124L111.542 163.907L114.192 170.503C116.415 176.102 119.463 183.804 122.839 192.308C126.215 200.812 129.204 208.544 131.397 214.148C132.472 216.935 133.346 219.193 133.964 220.78L134.642 222.563C134.713 222.759 134.766 222.914 134.814 223.038C134.836 223.092 134.852 223.148 134.861 223.205C134.831 223.156 134.805 223.104 134.784 223.05C134.733 222.931 134.667 222.777 134.588 222.587C134.41 222.159 134.16 221.559 133.851 220.804L131.195 214.207C128.978 208.609 125.923 200.907 122.548 192.397C119.172 183.887 116.189 176.167 113.99 170.563L111.429 163.931C111.138 163.158 110.912 162.552 110.745 162.118L110.573 161.649C110.555 161.602 110.539 161.554 110.525 161.506Z" fill="#263238"/>
<path d="M99.805 188.493C101.084 187.568 101.099 185.404 99.837 183.659C98.5754 181.914 96.5156 181.25 95.2363 182.175C93.957 183.1 93.9427 185.264 95.2043 187.009C96.4659 188.754 98.5257 189.418 99.805 188.493Z" fill="#FAF5FF"/>
<path d="M383 269.767C383 269.85 297.256 269.921 191.509 269.921C85.7615 269.921 0 269.85 0 269.767C0 269.684 85.7496 269.612 191.533 269.612C297.316 269.612 383 269.678 383 269.767Z" fill="#263238"/>
<path d="M139.327 62.6162H22.4544C19.8713 62.6162 17.7773 64.7102 17.7773 67.2933V136.171C17.7773 138.754 19.8713 140.848 22.4544 140.848H139.327C141.91 140.848 144.004 138.754 144.004 136.171V67.2933C144.004 64.7102 141.91 62.6162 139.327 62.6162Z" fill="#263238"/>
<path d="M80.889 112.412C86.1995 112.412 90.5046 108.107 90.5046 102.796C90.5046 97.4857 86.1995 93.1807 80.889 93.1807C75.5785 93.1807 71.2734 97.4857 71.2734 102.796C71.2734 108.107 75.5785 112.412 80.889 112.412Z" fill="#71389A"/>
<path d="M78.5691 105.608V99.9322C78.5692 99.8689 78.5859 99.8067 78.6175 99.7519C78.6491 99.697 78.6945 99.6514 78.7492 99.6196C78.8039 99.5877 78.866 99.5707 78.9292 99.5703C78.9925 99.5699 79.0548 99.5861 79.1099 99.6172L84.1792 102.476C84.2348 102.507 84.281 102.553 84.3132 102.609C84.3453 102.664 84.3622 102.727 84.3622 102.791C84.3622 102.855 84.3453 102.918 84.3132 102.973C84.281 103.028 84.2348 103.074 84.1792 103.106L79.1099 105.946C79.053 105.979 78.9885 105.995 78.9231 105.994C78.8577 105.992 78.7939 105.973 78.7384 105.938C78.683 105.904 78.638 105.855 78.6082 105.796C78.5784 105.738 78.5649 105.673 78.5691 105.608Z" fill="#FAF5FF"/>
<path d="M24.9906 131.857V132.094H24.0397V131.934L24.5568 131.447C24.5993 131.416 24.6343 131.376 24.659 131.329C24.6838 131.283 24.6976 131.232 24.6994 131.179C24.6994 131.06 24.6221 130.995 24.4617 130.995C24.4045 130.992 24.3475 131.002 24.2949 131.025C24.2424 131.048 24.1958 131.082 24.1586 131.126L23.9922 131.001C24.0512 130.93 24.126 130.873 24.2106 130.836C24.2951 130.799 24.3872 130.782 24.4795 130.787C24.7648 130.787 24.943 130.924 24.943 131.155C24.9412 131.235 24.9209 131.313 24.8838 131.383C24.8467 131.453 24.7937 131.513 24.7291 131.559L24.3844 131.886L24.9906 131.857Z" fill="#FAF5FF"/>
<path d="M25.1368 131.221C25.136 131.201 25.1393 131.181 25.1464 131.162C25.1535 131.144 25.1643 131.126 25.1782 131.112C25.1921 131.098 25.2087 131.086 25.2271 131.078C25.2456 131.07 25.2654 131.066 25.2854 131.066C25.3264 131.066 25.3657 131.083 25.3947 131.112C25.4236 131.141 25.4399 131.18 25.4399 131.221C25.4399 131.262 25.4236 131.301 25.3947 131.33C25.3657 131.359 25.3264 131.375 25.2854 131.375C25.2654 131.375 25.2456 131.371 25.2271 131.364C25.2087 131.356 25.1921 131.344 25.1782 131.33C25.1643 131.315 25.1535 131.298 25.1464 131.28C25.1393 131.261 25.136 131.241 25.1368 131.221ZM25.1368 131.922C25.136 131.902 25.1393 131.882 25.1464 131.863C25.1535 131.845 25.1643 131.828 25.1782 131.813C25.1921 131.799 25.2087 131.787 25.2271 131.78C25.2456 131.772 25.2654 131.768 25.2854 131.768C25.3264 131.768 25.3657 131.784 25.3947 131.813C25.4236 131.842 25.4399 131.881 25.4399 131.922C25.4399 131.963 25.4236 132.002 25.3947 132.031C25.3657 132.06 25.3264 132.077 25.2854 132.077C25.2654 132.077 25.2456 132.073 25.2271 132.065C25.2087 132.057 25.1921 132.046 25.1782 132.031C25.1643 132.017 25.1535 132 25.1464 131.981C25.1393 131.962 25.136 131.942 25.1368 131.922Z" fill="#FAF5FF"/>
<path d="M26.0248 130.775V132.095H25.7811V131.007H25.5137V130.805L26.0248 130.775Z" fill="#FAF5FF"/>
<path d="M27.4246 131.767H27.1987V132.064H26.967V131.767H26.2598V131.6L26.9135 130.774H27.169L26.5747 131.565H26.9967V131.309H27.2225V131.565H27.4483L27.4246 131.767Z" fill="#FAF5FF"/>
<path d="M127.291 131.257H29.5312V131.703H127.291V131.257Z" fill="#FAF5FF"/>
<path d="M60.0113 130.775H29.459V131.964H60.0113V130.775Z" fill="#71389A"/>
<path d="M60.991 131.499C60.991 131.793 60.9038 132.08 60.7406 132.325C60.5773 132.569 60.3453 132.76 60.0738 132.872C59.8023 132.984 59.5036 133.014 59.2154 132.957C58.9272 132.899 58.6625 132.758 58.4547 132.55C58.2469 132.342 58.1054 132.077 58.0481 131.789C57.9908 131.501 58.0202 131.202 58.1326 130.931C58.2451 130.659 58.4355 130.427 58.6798 130.264C58.9242 130.101 59.2114 130.014 59.5052 130.014C59.8993 130.014 60.2772 130.17 60.5558 130.449C60.8344 130.727 60.991 131.105 60.991 131.499Z" fill="#71389A"/>
<path d="M129.729 131.465C129.727 131.524 129.714 131.582 129.689 131.635C129.664 131.689 129.629 131.736 129.585 131.775C129.54 131.814 129.489 131.844 129.433 131.862C129.377 131.88 129.318 131.887 129.259 131.881C128.908 131.881 128.7 131.655 128.7 131.239C128.687 131.15 128.693 131.06 128.72 130.974C128.746 130.888 128.791 130.809 128.853 130.743C128.914 130.677 128.989 130.626 129.073 130.594C129.157 130.561 129.247 130.548 129.336 130.556C129.453 130.553 129.568 130.581 129.669 130.639L129.586 130.817C129.509 130.775 129.423 130.755 129.336 130.758C129.099 130.758 128.944 130.906 128.944 131.198C128.988 131.151 129.042 131.115 129.102 131.092C129.161 131.068 129.225 131.058 129.289 131.061C129.345 131.055 129.402 131.061 129.455 131.079C129.509 131.096 129.558 131.125 129.6 131.164C129.641 131.202 129.674 131.249 129.697 131.3C129.719 131.352 129.73 131.408 129.729 131.465ZM129.497 131.465C129.497 131.328 129.396 131.245 129.241 131.245C129.209 131.242 129.177 131.245 129.147 131.254C129.117 131.264 129.088 131.279 129.064 131.3C129.039 131.32 129.019 131.345 129.005 131.374C128.991 131.402 128.982 131.433 128.98 131.465C128.98 131.584 129.075 131.679 129.247 131.679C129.277 131.687 129.308 131.688 129.338 131.683C129.369 131.679 129.398 131.667 129.423 131.65C129.449 131.634 129.471 131.612 129.488 131.586C129.505 131.56 129.516 131.531 129.521 131.501L129.497 131.465Z" fill="#FAF5FF"/>
<path d="M129.871 131.019C129.87 130.999 129.874 130.979 129.881 130.961C129.888 130.943 129.899 130.926 129.913 130.912C129.927 130.898 129.944 130.887 129.962 130.88C129.98 130.873 130 130.869 130.02 130.87C130.04 130.869 130.06 130.873 130.078 130.88C130.097 130.887 130.114 130.898 130.129 130.912C130.143 130.925 130.155 130.942 130.162 130.961C130.17 130.979 130.174 130.999 130.174 131.019C130.174 131.06 130.158 131.099 130.129 131.128C130.1 131.157 130.061 131.173 130.02 131.173C130 131.173 129.98 131.169 129.962 131.161C129.943 131.154 129.926 131.142 129.913 131.128C129.899 131.113 129.888 131.096 129.881 131.077C129.874 131.059 129.87 131.039 129.871 131.019ZM129.871 131.72C129.87 131.7 129.874 131.681 129.881 131.662C129.888 131.644 129.899 131.627 129.913 131.613C129.927 131.599 129.944 131.588 129.962 131.581C129.98 131.574 130 131.571 130.02 131.572C130.04 131.571 130.06 131.574 130.078 131.581C130.097 131.588 130.114 131.599 130.129 131.613C130.143 131.627 130.155 131.643 130.162 131.662C130.17 131.68 130.174 131.7 130.174 131.72C130.174 131.761 130.158 131.8 130.129 131.829C130.1 131.858 130.061 131.875 130.02 131.875C130 131.875 129.98 131.871 129.962 131.863C129.943 131.855 129.926 131.843 129.913 131.829C129.899 131.815 129.888 131.797 129.881 131.779C129.874 131.76 129.87 131.74 129.871 131.72Z" fill="#FAF5FF"/>
<path d="M130.324 131.221C130.324 130.793 130.556 130.556 130.859 130.556C131.162 130.556 131.4 130.793 131.4 131.221C131.4 131.649 131.168 131.881 130.859 131.881C130.55 131.881 130.324 131.643 130.324 131.221ZM131.156 131.221C131.156 130.906 131.037 130.764 130.859 130.764C130.681 130.764 130.562 130.906 130.562 131.221C130.562 131.536 130.687 131.673 130.859 131.673C131.031 131.673 131.162 131.53 131.162 131.221H131.156Z" fill="#FAF5FF"/>
<path d="M131.566 131.221C131.566 130.793 131.798 130.556 132.101 130.556C132.404 130.556 132.642 130.793 132.642 131.221C132.642 131.649 132.41 131.881 132.101 131.881C131.792 131.881 131.566 131.643 131.566 131.221ZM132.404 131.221C132.404 130.906 132.28 130.764 132.101 130.764C131.923 130.764 131.804 130.906 131.804 131.221C131.804 131.536 131.929 131.673 132.101 131.673C132.274 131.673 132.404 131.53 132.404 131.221Z" fill="#FAF5FF"/>
<path d="M134.719 131.137H134.273V129.854H135.557V130.299H134.719V131.137Z" fill="#FAF5FF"/>
<path d="M135.557 132.813H134.273V131.535H134.719V132.367H135.557V132.813Z" fill="#FAF5FF"/>
<path d="M137.606 132.814H136.322V132.368H137.16V131.53H137.606V132.814Z" fill="#FAF5FF"/>
<path d="M137.606 131.138H137.16V130.3H136.322V129.854H137.606V131.138Z" fill="#FAF5FF"/>
<path d="M120.972 70.2176C121.197 70.1738 121.427 70.1539 121.656 70.1581C122.113 70.1581 122.797 70.1106 123.629 70.0928H123.783V70.2176C123.783 71.216 123.783 72.357 123.813 73.5991V73.9735L123.546 73.706L123.189 73.3495L122.286 72.4462H122.494L121.085 73.6941L120.854 73.8962V73.5931C120.854 72.5531 120.895 71.6855 120.919 71.1031C120.914 70.8043 120.938 70.5058 120.99 70.2116C120.99 70.2116 121.026 70.592 121.056 71.1863C121.085 71.7805 121.109 72.6125 121.121 73.5634L120.895 73.4624L122.286 72.1906L122.393 72.0955L122.494 72.1966L123.403 73.0999L123.754 73.4505L123.492 73.5634C123.492 72.3213 123.492 71.1863 123.492 70.1819L123.617 70.3067C122.838 70.3067 122.191 70.2651 121.721 70.2413C121.471 70.2509 121.221 70.243 120.972 70.2176Z" fill="#FAF5FF"/>
<path d="M130.747 70.6391C130.541 70.9256 130.321 71.2014 130.087 71.4652C129.647 72.0001 128.993 72.8023 128.197 73.6938L127.942 73.985V73.5987C127.942 73.0698 127.942 72.5052 127.942 71.9228V71.7564L127.989 71.8693L126.801 70.7223L126.539 70.4668H126.902C128.09 70.4668 129.065 70.5322 129.73 70.5678C130.396 70.6035 130.776 70.6213 130.747 70.6332C130.717 70.6451 130.283 70.6332 129.594 70.6867C128.904 70.7402 127.983 70.758 126.902 70.758L127.003 70.5084L128.191 71.6375L128.239 71.6851V71.9169C128.239 72.5111 128.239 73.0638 128.239 73.5927L127.983 73.4917C128.732 72.6716 129.409 71.9882 129.909 71.4771C130.408 70.966 130.717 70.657 130.747 70.6391Z" fill="#FAF5FF"/>
<path d="M130.75 70.6396C130.786 70.7228 130.215 71.0319 129.478 71.3409C129.051 71.5743 128.579 71.7159 128.094 71.7569C128.888 71.1975 129.795 70.8163 130.75 70.6396Z" fill="#FAF5FF"/>
<path d="M135.52 70.2178C135.675 70.175 135.84 70.175 135.995 70.2178C136.431 70.3011 136.823 70.5371 137.101 70.8834C137.311 71.1458 137.451 71.4577 137.508 71.7895C137.564 72.1213 137.534 72.462 137.421 72.7791C137.284 73.1735 137.026 73.5153 136.686 73.7571C136.345 73.9989 135.938 74.1288 135.52 74.1288C135.102 74.1288 134.694 73.9989 134.354 73.7571C134.013 73.5153 133.756 73.1735 133.618 72.7791C133.506 72.4623 133.476 72.1222 133.531 71.7906C133.586 71.459 133.724 71.1468 133.933 70.8834C134.212 70.5335 134.606 70.2935 135.044 70.2059C135.2 70.1631 135.364 70.1631 135.52 70.2059C135.52 70.2356 135.353 70.2415 135.074 70.3247C134.686 70.4447 134.347 70.689 134.111 71.0201C133.92 71.2804 133.805 71.5886 133.778 71.9105C133.752 72.2323 133.815 72.5552 133.961 72.8434C134.107 73.1315 134.33 73.3735 134.605 73.5426C134.88 73.7117 135.197 73.8012 135.52 73.8012C135.843 73.8012 136.159 73.7117 136.434 73.5426C136.71 73.3735 136.933 73.1315 137.078 72.8434C137.224 72.5552 137.288 72.2323 137.261 71.9105C137.234 71.5886 137.119 71.2804 136.928 71.0201C136.692 70.689 136.354 70.4447 135.965 70.3247C135.674 70.2534 135.52 70.2475 135.52 70.2178Z" fill="#FAF5FF"/>
<path d="M136.16 72.9037C136.101 72.9631 135.69 72.6541 135.245 72.2143L135.203 72.1668V72.0717C135.203 71.4417 135.269 70.9307 135.358 70.9307C135.447 70.9307 135.512 71.4417 135.512 72.0717L135.465 71.9647C135.91 72.4342 136.219 72.8443 136.16 72.9037Z" fill="#FAF5FF"/>
<path d="M89.7946 72.7785C89.7946 72.8677 76.8213 72.9331 60.8231 72.9331C44.8249 72.9331 31.8457 72.8677 31.8457 72.7785C31.8457 72.6894 44.819 72.624 60.8231 72.624C76.8273 72.624 89.7946 72.6953 89.7946 72.7785Z" fill="#FAF5FF"/>
<path d="M26.829 75.0662C28.0926 75.0662 29.117 74.0419 29.117 72.7782C29.117 71.5146 28.0926 70.4902 26.829 70.4902C25.5654 70.4902 24.541 71.5146 24.541 72.7782C24.541 74.0419 25.5654 75.0662 26.829 75.0662Z" fill="#FAF5FF"/>
<path d="M341.795 0.158203H255.113C252.53 0.158203 250.436 2.25219 250.436 4.83524V55.0049C250.436 57.588 252.53 59.682 255.113 59.682H341.795C344.378 59.682 346.472 57.588 346.472 55.0049V4.83524C346.472 2.25219 344.378 0.158203 341.795 0.158203Z" fill="#F5F5F5"/>
<path d="M331.231 26.1939C328.937 24.7914 326.369 23.5969 323.677 23.6979C319.856 23.8405 316.671 26.5208 313.806 29.0465L300.435 40.9322C299.924 41.3898 299.311 41.8771 298.652 41.7761C298.121 41.6321 297.657 41.3086 297.338 40.8609L285.494 27.7272C283.04 24.9994 280.235 22.0933 276.58 21.7368C273.609 21.4515 270.792 22.9253 268.302 24.5656C261.172 29.2273 255.132 35.3711 250.592 42.5784L250.449 54.999C251.234 57.6792 253.629 59.682 256.166 59.682H340.781C342.214 59.6692 343.592 59.1258 344.648 58.1566C345.703 57.1874 346.363 55.8613 346.498 54.4344V42.727C343.077 35.8816 337.782 30.1482 331.231 26.1939Z" fill="#455A64"/>
<path d="M255.923 52.8423V53.0266H255.204V52.9018L255.59 52.5333C255.685 52.4442 255.703 52.3907 255.703 52.3312C255.703 52.2718 255.643 52.1946 255.525 52.1946C255.481 52.1915 255.437 52.1991 255.396 52.2167C255.356 52.2343 255.32 52.2613 255.293 52.2956L255.168 52.1946C255.212 52.1405 255.269 52.0977 255.333 52.0698C255.397 52.0419 255.467 52.0296 255.536 52.0341C255.75 52.0341 255.887 52.1411 255.887 52.3134C255.885 52.3736 255.87 52.4326 255.842 52.4861C255.814 52.5396 255.775 52.5862 255.727 52.6224L255.465 52.872L255.923 52.8423Z" fill="#263238"/>
<path d="M256.023 52.3602C256.022 52.3449 256.024 52.3296 256.029 52.3152C256.035 52.3008 256.043 52.2876 256.053 52.2765C256.064 52.2654 256.077 52.2566 256.091 52.2505C256.105 52.2445 256.12 52.2414 256.135 52.2414C256.151 52.2405 256.167 52.243 256.182 52.2487C256.197 52.2543 256.21 52.2631 256.221 52.2743C256.233 52.2855 256.241 52.2989 256.247 52.3138C256.253 52.3286 256.255 52.3444 256.254 52.3602C256.254 52.3756 256.251 52.3908 256.245 52.4049C256.239 52.419 256.23 52.4317 256.219 52.4423C256.208 52.4528 256.195 52.461 256.18 52.4663C256.166 52.4716 256.151 52.474 256.135 52.4732C256.105 52.4732 256.077 52.4613 256.056 52.4401C256.034 52.4189 256.023 52.3902 256.023 52.3602ZM256.023 52.8892C256.022 52.8741 256.024 52.859 256.029 52.8449C256.035 52.8308 256.043 52.8181 256.054 52.8074C256.064 52.7967 256.077 52.7884 256.091 52.7831C256.105 52.7777 256.12 52.7754 256.135 52.7762C256.151 52.7754 256.166 52.7778 256.18 52.7831C256.195 52.7884 256.208 52.7966 256.219 52.8071C256.23 52.8177 256.239 52.8304 256.245 52.8445C256.251 52.8586 256.254 52.8738 256.254 52.8892C256.258 52.9066 256.258 52.9246 256.254 52.942C256.25 52.9594 256.242 52.9757 256.231 52.9897C256.22 53.0036 256.206 53.0149 256.19 53.0227C256.174 53.0304 256.156 53.0344 256.138 53.0344C256.121 53.0344 256.103 53.0304 256.087 53.0227C256.071 53.0149 256.057 53.0036 256.045 52.9897C256.034 52.9757 256.026 52.9594 256.023 52.942C256.019 52.9246 256.019 52.9066 256.023 52.8892Z" fill="#263238"/>
<path d="M256.709 52.0156V53.0259H256.53V52.1999H256.322V52.0453L256.709 52.0156Z" fill="#263238"/>
<path d="M257.776 52.7769H257.58V53.0265H257.402V52.8066H256.867V52.6758L257.349 52.0459H257.58L257.123 52.6402H257.444V52.4322H257.58V52.6283H257.753L257.776 52.7769Z" fill="#263238"/>
<path d="M333.764 52.3301H259.383V52.7758H333.764V52.3301Z" fill="#263238"/>
<path d="M282.567 51.873H259.324V53.0616H282.567V51.873Z" fill="#71389A"/>
<path d="M283.317 52.55C283.318 52.7748 283.253 52.9948 283.129 53.1823C283.005 53.3697 282.828 53.5161 282.62 53.603C282.413 53.6898 282.185 53.7131 281.964 53.67C281.744 53.6269 281.541 53.5192 281.381 53.3607C281.222 53.2022 281.113 53 281.069 52.7796C281.025 52.5593 281.047 52.3307 281.133 52.123C281.218 51.9152 281.364 51.7376 281.551 51.6126C281.738 51.4876 281.957 51.4209 282.182 51.4209C282.482 51.4209 282.77 51.5397 282.982 51.7512C283.195 51.9628 283.315 52.25 283.317 52.55Z" fill="#71389A"/>
<path d="M335.627 52.5385C335.627 52.5835 335.617 52.628 335.598 52.669C335.58 52.71 335.553 52.7467 335.519 52.7769C335.486 52.807 335.446 52.8299 335.404 52.8441C335.361 52.8583 335.316 52.8635 335.271 52.8594C335.003 52.8594 334.849 52.6871 334.849 52.3721C334.841 52.3059 334.848 52.2388 334.868 52.1754C334.889 52.1119 334.923 52.0537 334.968 52.0046C335.013 51.9555 335.068 51.9168 335.13 51.891C335.191 51.8652 335.258 51.8529 335.324 51.8551C335.415 51.8507 335.506 51.8712 335.586 51.9145L335.514 52.0512C335.46 52.016 335.395 51.9993 335.33 52.0036C335.146 52.0036 335.033 52.1166 335.033 52.3424C335.066 52.3069 335.107 52.2793 335.152 52.2618C335.197 52.2443 335.246 52.2373 335.295 52.2414C335.336 52.2372 335.378 52.2418 335.418 52.2548C335.458 52.2678 335.495 52.289 335.526 52.3169C335.557 52.3448 335.583 52.3789 335.6 52.4171C335.617 52.4552 335.627 52.4966 335.627 52.5385ZM335.455 52.5385C335.455 52.4375 335.378 52.3721 335.259 52.3721C335.235 52.3688 335.21 52.3705 335.186 52.3773C335.162 52.384 335.14 52.3955 335.121 52.4111C335.103 52.4268 335.087 52.4461 335.076 52.4681C335.065 52.49 335.058 52.514 335.057 52.5385C335.057 52.6336 335.134 52.7049 335.259 52.7049C335.302 52.7051 335.343 52.6894 335.375 52.6609C335.407 52.6323 335.427 52.5929 335.431 52.5504L335.455 52.5385Z" fill="#263238"/>
<path d="M335.713 52.205C335.712 52.1891 335.715 52.1733 335.72 52.1585C335.726 52.1437 335.735 52.1302 335.746 52.119C335.757 52.1078 335.771 52.0991 335.785 52.0934C335.8 52.0877 335.816 52.0852 335.832 52.0861C335.847 52.0861 335.862 52.0892 335.877 52.0952C335.891 52.1013 335.903 52.1101 335.914 52.1213C335.924 52.1324 335.933 52.1455 335.938 52.1599C335.943 52.1743 335.946 52.1896 335.945 52.205C335.945 52.2349 335.933 52.2636 335.912 52.2848C335.891 52.306 335.862 52.3179 335.832 52.3179C335.817 52.3187 335.801 52.3164 335.787 52.311C335.772 52.3057 335.759 52.2975 335.748 52.287C335.737 52.2764 335.728 52.2637 335.722 52.2496C335.716 52.2355 335.713 52.2203 335.713 52.205ZM335.713 52.7398C335.712 52.724 335.715 52.7081 335.72 52.6933C335.726 52.6785 335.735 52.6651 335.746 52.6539C335.757 52.6427 335.771 52.6339 335.785 52.6283C335.8 52.6226 335.816 52.6201 335.832 52.621C335.847 52.6209 335.862 52.624 335.877 52.6301C335.891 52.6361 335.903 52.645 335.914 52.6561C335.924 52.6672 335.933 52.6804 335.938 52.6948C335.943 52.7092 335.946 52.7245 335.945 52.7398C335.945 52.7698 335.933 52.7985 335.912 52.8197C335.891 52.8408 335.862 52.8527 335.832 52.8527C335.817 52.8535 335.801 52.8512 335.787 52.8459C335.772 52.8406 335.759 52.8324 335.748 52.8218C335.737 52.8113 335.728 52.7985 335.722 52.7844C335.716 52.7703 335.713 52.7552 335.713 52.7398Z" fill="#263238"/>
<path d="M336.07 52.3547C336.07 52.0338 336.243 51.8555 336.474 51.8555C336.706 51.8555 336.884 52.0338 336.884 52.3547C336.884 52.6756 336.712 52.8598 336.474 52.8598C336.237 52.8598 336.07 52.6756 336.07 52.3547ZM336.706 52.3547C336.706 52.117 336.611 52.01 336.474 52.01C336.338 52.01 336.255 52.117 336.255 52.3547C336.255 52.5924 336.344 52.6994 336.474 52.6994C336.605 52.6994 336.706 52.5924 336.706 52.3547Z" fill="#263238"/>
<path d="M337.004 52.3547C337.004 52.0338 337.182 51.8555 337.414 51.8555C337.646 51.8555 337.824 52.0338 337.824 52.3547C337.824 52.6756 337.646 52.8598 337.414 52.8598C337.182 52.8598 337.004 52.6756 337.004 52.3547ZM337.64 52.3547C337.64 52.117 337.551 52.01 337.414 52.01C337.277 52.01 337.188 52.117 337.188 52.3547C337.188 52.5924 337.283 52.6994 337.414 52.6994C337.545 52.6994 337.64 52.5924 337.64 52.3547Z" fill="#263238"/>
<path d="M339.467 52.2948H339.021V51.2607H340.05V51.7065H339.467V52.2948Z" fill="#263238"/>
<path d="M340.05 53.6199H339.021V52.5918H339.467V53.1742H340.05V53.6199Z" fill="#263238"/>
<path d="M341.661 53.6199H340.633V53.1742H341.215V52.5918H341.661V53.6199Z" fill="#263238"/>
<path d="M341.661 52.2889H341.215V51.7065H340.633V51.2607H341.661V52.2889Z" fill="#263238"/>
<path d="M328.949 5.94004C329.621 5.85348 330.298 5.81377 330.976 5.82119H331.095V5.95193C331.095 6.67696 331.095 7.56245 331.095 8.51925V8.89365L330.827 8.62622L330.56 8.35879L329.876 7.66942H330.084L329.009 8.61434L328.777 8.81639V8.51331C328.766 7.65366 328.81 6.7942 328.908 5.94004C329.002 6.7945 329.048 7.65365 329.044 8.51331L328.819 8.41228L329.876 7.44359L329.983 7.34851L330.084 7.44953L330.774 8.13296L331.041 8.40634L330.78 8.51331C330.78 7.55651 330.78 6.67102 330.78 5.94599L330.904 6.06485C330.251 6.06199 329.598 6.02031 328.949 5.94004Z" fill="#263238"/>
<path d="M336.39 6.26805C336.246 6.48668 336.087 6.69517 335.914 6.89205C335.582 7.30211 335.088 7.92611 334.476 8.61548L334.221 8.90074V8.51445C334.221 8.11033 334.221 7.68245 334.221 7.23673V7.11193L334.268 7.22485L333.371 6.35125L333.109 6.0957H333.472C334.369 6.0957 335.136 6.16107 335.641 6.19673C335.894 6.19841 336.146 6.22027 336.396 6.2621C336.366 6.2621 336.033 6.26211 335.504 6.31559C334.975 6.36908 334.28 6.3869 333.472 6.3869L333.573 6.1373L334.482 6.99902L334.53 7.04062V7.26645C334.53 7.71216 334.53 8.14005 334.53 8.54417L334.268 8.44314C334.862 7.84885 335.35 7.32588 335.742 6.93959C336.134 6.5533 336.36 6.27993 336.39 6.26805Z" fill="#263238"/>
<path d="M336.391 6.26737C336.427 6.34463 335.999 6.60017 335.44 6.86166C334.882 7.12314 334.4 7.22417 334.371 7.14097C334.341 7.05777 334.763 6.80817 335.321 6.5764C335.88 6.34463 336.361 6.18417 336.391 6.26737Z" fill="#263238"/>
<path d="M340.018 5.93984C340.138 5.90417 340.266 5.90417 340.386 5.93984C340.727 6.00089 341.034 6.18485 341.248 6.45687C341.412 6.65965 341.521 6.90114 341.565 7.15819C341.608 7.41523 341.585 7.6792 341.498 7.92476C341.395 8.23811 341.196 8.51108 340.929 8.70463C340.663 8.89818 340.341 9.00241 340.012 9.00241C339.682 9.00241 339.361 8.89818 339.094 8.70463C338.827 8.51108 338.628 8.23811 338.526 7.92476C338.438 7.6792 338.415 7.41523 338.459 7.15819C338.503 6.90114 338.612 6.65965 338.776 6.45687C338.99 6.18485 339.297 6.00089 339.637 5.93984C339.875 5.90418 340.006 5.93984 340 5.93984C339.994 5.93984 339.875 5.97549 339.667 6.04681C339.379 6.14162 339.128 6.32714 338.954 6.57572C338.814 6.76907 338.73 6.9974 338.711 7.23549C338.693 7.47359 338.74 7.71217 338.849 7.9249C338.957 8.13762 339.123 8.31621 339.326 8.44094C339.53 8.56566 339.764 8.63167 340.003 8.63167C340.242 8.63167 340.476 8.56566 340.68 8.44094C340.883 8.31621 341.048 8.13762 341.157 7.9249C341.265 7.71217 341.313 7.47359 341.295 7.23549C341.276 6.9974 341.192 6.76907 341.052 6.57572C340.877 6.32714 340.627 6.14162 340.339 6.04681C340.148 5.97549 340.018 5.96955 340.018 5.93984Z" fill="#263238"/>
<path d="M340.507 7.98474C340.441 8.04417 340.121 7.82429 339.782 7.48554L339.74 7.438V7.36668C339.74 6.88531 339.806 6.49902 339.895 6.49902C339.984 6.49902 340.049 6.88531 340.049 7.36668L340.002 7.25377C340.34 7.6044 340.566 7.92531 340.507 7.98474Z" fill="#263238"/>
<path d="M305.233 7.88987C305.233 7.97901 295.362 8.04438 283.191 8.04438C271.02 8.04438 261.148 7.97901 261.148 7.88987C261.148 7.80072 271.02 7.73535 283.196 7.73535C295.373 7.73535 305.233 7.80667 305.233 7.88987Z" fill="#263238"/>
<path d="M259.059 7.88963C259.06 8.23452 258.959 8.57199 258.768 8.85925C258.577 9.14651 258.305 9.37061 257.987 9.50314C257.668 9.63566 257.318 9.67064 256.979 9.60365C256.641 9.53665 256.33 9.37069 256.086 9.12682C255.842 8.88294 255.676 8.57213 255.609 8.23381C255.542 7.89548 255.577 7.54488 255.71 7.22647C255.842 6.90805 256.066 6.63617 256.354 6.44529C256.641 6.25441 256.978 6.15313 257.323 6.15431C257.783 6.15587 258.224 6.33921 258.549 6.6643C258.874 6.9894 259.057 7.42987 259.059 7.88963Z" fill="#263238"/>
<path d="M341.796 59.6822C341.796 59.6822 342.07 59.6822 342.575 59.593C343.329 59.4641 344.038 59.1473 344.637 58.6719C345.129 58.294 345.541 57.8209 345.847 57.2809C346.154 56.7409 346.348 56.1448 346.42 55.5281C346.479 54.0662 346.42 52.3546 346.42 50.4351C346.42 42.7628 346.39 31.6675 346.372 17.9573C346.372 14.5342 346.372 10.9388 346.372 7.20071C346.372 6.26768 346.372 5.30493 346.372 4.37785C346.271 3.42928 345.877 2.53581 345.244 1.82203C344.612 1.10826 343.772 0.609781 342.842 0.396126C342.362 0.304225 341.874 0.266352 341.386 0.283213H339.883H314.138H255.161C254.528 0.281574 253.902 0.413594 253.323 0.670638C252.744 0.927682 252.226 1.30396 251.803 1.77487C251.38 2.24354 251.056 2.7934 250.852 3.39105C250.648 3.9887 250.567 4.62166 250.615 5.25145V12.9772C250.615 18.0682 250.615 23.084 250.615 28.0245V42.5489C250.615 44.926 250.615 47.2735 250.615 49.5912V54.7674C250.597 55.323 250.673 55.8776 250.841 56.4077C251.181 57.4562 251.893 58.344 252.843 58.9037C253.312 59.1766 253.825 59.3656 254.359 59.4623C254.9 59.5343 255.447 59.5581 255.993 59.5336H275.01L297.397 59.5633L329.875 59.6168H338.7H341H341.778C341.778 59.6168 341.517 59.6168 341 59.6168H338.7L329.875 59.6465L297.397 59.6941H274.969H262.489H255.951C255.39 59.7212 254.827 59.6953 254.27 59.6168C253.409 59.4686 252.605 59.088 251.945 58.5161C251.286 57.9442 250.795 57.2027 250.526 56.372C250.352 55.8145 250.272 55.2322 250.288 54.6486V52.937C250.288 51.7841 250.288 50.6312 250.288 49.4723V42.5548C250.288 37.8005 250.288 32.9591 250.288 28.0305V5.28117C250.251 4.61813 250.334 3.95387 250.532 3.32002C250.851 2.35451 251.467 1.51439 252.292 0.919067C253.117 0.323748 254.108 0.00351798 255.125 0.0038971H314.102H339.847H341.374C341.88 -0.0136738 342.387 0.0282143 342.884 0.128699C343.875 0.353381 344.769 0.885932 345.439 1.65007C346.101 2.4005 346.516 3.33617 346.628 4.3303C346.675 5.30493 346.628 6.23202 346.628 7.17694C346.628 10.915 346.628 14.5104 346.628 17.9335C346.628 31.6437 346.586 42.7391 346.574 50.4113C346.574 52.3308 346.574 54.0305 346.533 55.5162C346.456 56.1407 346.257 56.7438 345.946 57.2906C345.634 57.8374 345.218 58.317 344.72 58.7016C344.107 59.1721 343.386 59.4825 342.622 59.6049C342.426 59.6373 342.227 59.6532 342.028 59.6525L341.796 59.6822Z" fill="#263238"/>
<path d="M300.064 27.3825C303.589 27.3825 306.447 24.5249 306.447 20.9998C306.447 17.4748 303.589 14.6172 300.064 14.6172C296.539 14.6172 293.682 17.4748 293.682 20.9998C293.682 24.5249 296.539 27.3825 300.064 27.3825Z" fill="#455A64"/>
<path d="M188.985 48.8109C189.526 48.7598 190.046 48.5716 190.495 48.2642C191.024 47.876 191.403 47.318 191.57 46.6834C191.656 46.2733 191.686 45.8535 191.659 45.4354C191.659 44.9837 191.659 44.4964 191.659 43.9853C191.659 39.855 191.701 33.93 191.737 26.6143C191.737 24.7839 191.737 22.8584 191.772 20.8616C191.772 19.8573 191.772 18.841 191.772 17.801C191.8 17.2914 191.782 16.7802 191.719 16.2737C191.626 15.8017 191.399 15.3664 191.065 15.0198C190.714 14.6436 190.252 14.3895 189.746 14.2947C189.21 14.2515 188.672 14.2416 188.135 14.265H184.742L177.658 14.3066L146.113 14.479C145.477 14.4964 144.871 14.7492 144.411 15.1883C143.951 15.6275 143.67 16.2218 143.623 16.8561C143.623 18.2269 143.605 19.5918 143.57 20.9508C143.546 23.6726 143.52 26.3548 143.492 28.9974C143.433 34.2747 143.379 39.3618 143.332 44.2111C143.332 44.8054 143.332 45.3997 143.332 45.994C143.301 46.5465 143.438 47.0954 143.724 47.5689C144.003 48.0217 144.42 48.3736 144.913 48.5732C145.44 48.7292 145.993 48.7817 146.541 48.7277H153.227H165.22H182.614H187.339H188.563C188.703 48.7148 188.845 48.7148 188.985 48.7277C188.845 48.7381 188.704 48.7381 188.563 48.7277L187.369 48.8941L182.644 48.9654L165.279 49.1378L153.28 49.2269L146.601 49.2745C146 49.3266 145.395 49.2641 144.818 49.0902C144.217 48.862 143.706 48.445 143.362 47.9017C143.026 47.3522 142.862 46.7146 142.892 46.0713C142.892 45.477 142.892 44.8827 142.892 44.2884C142.934 39.439 142.981 34.346 143.023 29.0687C143.047 26.4301 143.07 23.7479 143.094 21.0221C143.094 19.6552 143.112 18.2685 143.148 16.8621C143.208 16.0958 143.549 15.379 144.107 14.85C144.665 14.321 145.398 14.0173 146.167 13.9976L177.676 13.8312H184.76H188.159C188.724 13.8111 189.29 13.829 189.853 13.8847C190.436 13.9944 190.971 14.2807 191.386 14.7048C191.787 15.1214 192.063 15.6424 192.182 16.2083C192.248 16.7446 192.264 17.2857 192.23 17.8248C192.23 18.8648 192.23 19.887 192.194 20.8854C192.17 22.8901 192.147 24.8097 192.123 26.644C192.016 33.9538 191.933 39.8847 191.873 44.0091C191.873 44.5261 191.873 45.0075 191.844 45.4651C191.864 45.8967 191.822 46.329 191.719 46.7487C191.532 47.4091 191.123 47.9844 190.56 48.3771C190.215 48.6131 189.821 48.7657 189.407 48.8228C189.266 48.8373 189.125 48.8333 188.985 48.8109Z" fill="#71389A"/>
<path d="M169.378 28.5583L175.238 32.0765L169.283 35.6125L163.328 39.1425L163.417 32.0884L163.512 25.0342L169.378 28.5583Z" fill="#71389A"/>
</svg>
