<svg width="130" height="241" viewBox="0 0 130 241" fill="none" xmlns="http://www.w3.org/2000/svg">
<path d="M58.3208 155.217L56.6124 165.474L45.0285 235.259H43.1543L51.5809 165.474L52.828 155.217H58.3208Z" fill="#DBDBDB"/>
<path d="M52.8252 155.217H58.318L56.6096 165.474H51.5781L52.8252 155.217Z" fill="#A6A6A6"/>
<path d="M94.7153 235.259H92.8483L81.2572 165.474L79.5488 155.217H85.0416L86.2887 165.474L94.7153 235.259Z" fill="#DBDBDB"/>
<path d="M85.0416 155.217L86.2887 165.474H81.2572L79.5488 155.217H85.0416Z" fill="#A6A6A6"/>
<path d="M129.475 235.259H127.608L116.017 165.474L114.309 155.217H119.801L121.048 165.474L129.475 235.259Z" fill="#DBDBDB"/>
<path d="M121.048 165.474H116.017L114.309 155.217H119.801L121.048 165.474Z" fill="#A6A6A6"/>
<path d="M126.511 160.032H41.5957V151.087H73.3847L84.0676 88.9287H123.274L126.511 160.032Z" fill="#DBDBDB"/>
<path d="M126.513 160.032H121.886L118.865 88.9287H123.277L126.513 160.032Z" fill="#A6A6A6"/>
<path d="M46.0164 237.919C47.6167 238.121 91.6672 229.002 93.0872 227.626C93.2602 227.474 92.5178 223.474 91.4149 218.017V217.909C90.7301 214.449 78.8146 186.278 78.8146 186.278L50.2333 193.335L62.3434 219.509C62.3434 219.509 56.8939 223.2 52.2084 226.717C50.1401 228.178 48.1614 229.762 46.2831 231.461C44.8703 233.147 44.4161 237.732 46.0164 237.919Z" fill="#F9C0AB"/>
<path d="M46.0171 237.92C47.6174 238.122 91.6607 229.003 93.0879 227.626C93.2609 227.475 92.5185 223.474 91.4156 218.018V217.909C91.1633 216.626 89.3396 211.89 87.1626 206.47C82.4628 207.587 65.6023 211.609 59.4752 213.303L62.3586 219.51C62.3586 219.51 56.909 223.208 52.2236 226.718C50.1548 228.181 48.1761 229.767 46.2983 231.468C44.871 233.155 44.4169 237.74 46.0171 237.92Z" fill="#EBEBEB"/>
<path d="M45.8643 238.128C47.5151 238.316 91.5944 229.082 93.0505 227.669C93.6055 227.136 92.8486 220.201 90.6645 212.812L62.2851 218.795C62.2851 218.795 47.5367 229.774 46.1094 231.497C44.6822 233.219 44.2208 237.934 45.8643 238.128Z" fill="#71389A"/>
<path d="M46.1323 236.233C53.4849 234.503 83.2916 228.217 90.6946 227.063C90.7523 227.063 90.7595 227.063 90.6946 227.114C83.4429 228.988 53.5858 235.043 46.1467 236.348C46.0025 236.377 45.9737 236.269 46.1323 236.233Z" fill="#263238"/>
<path d="M60.1228 220.057C63.071 219.394 66.7184 219.718 69.0612 221.751C69.1549 221.83 69.0612 221.96 68.9458 221.931C66.0763 221.119 63.1281 220.616 60.1516 220.432C60.1019 220.436 60.0527 220.419 60.0148 220.387C59.977 220.355 59.9536 220.308 59.9498 220.259C59.9459 220.209 59.962 220.16 59.9945 220.122C60.0269 220.084 60.0731 220.061 60.1228 220.057Z" fill="#263238"/>
<path d="M57.9958 221.391C60.944 220.735 64.5915 221.059 66.9414 223.092C67.0279 223.171 66.9414 223.301 66.8189 223.272C63.9497 222.457 61.0015 221.952 58.0247 221.766C57.9749 221.77 57.9258 221.754 57.8879 221.721C57.8501 221.689 57.8266 221.643 57.8228 221.593C57.819 221.543 57.8351 221.494 57.8675 221.456C57.9 221.418 57.9461 221.395 57.9958 221.391Z" fill="#263238"/>
<path d="M55.8982 222.76C58.8464 222.104 62.4938 222.429 64.8438 224.461C64.9303 224.541 64.8438 224.663 64.7212 224.642C61.8521 223.827 58.9038 223.321 55.927 223.135C55.8773 223.139 55.8281 223.123 55.7903 223.09C55.7524 223.058 55.729 223.012 55.7252 222.962C55.7213 222.912 55.7374 222.863 55.7699 222.825C55.8023 222.787 55.8485 222.764 55.8982 222.76Z" fill="#263238"/>
<path d="M53.8005 224.13C56.756 223.466 60.4034 223.798 62.7461 225.831C62.8326 225.91 62.7461 226.033 62.6236 226.011C59.7544 225.196 56.8062 224.691 53.8293 224.504C53.7796 224.508 53.7305 224.492 53.6926 224.46C53.6547 224.427 53.6313 224.381 53.6275 224.331C53.6237 224.282 53.6398 224.232 53.6722 224.195C53.7047 224.157 53.7508 224.133 53.8005 224.13Z" fill="#263238"/>
<path opacity="0.1" d="M45.8722 238.121C46.384 238.178 51.019 237.328 57.2038 236.074L53.2248 225.636C49.8657 228.231 46.7372 230.739 46.0812 231.496C44.6612 233.212 44.2215 237.926 45.8722 238.121Z" fill="black"/>
<path d="M61.1832 220.207L91.5233 213.042C91.5233 213.042 65.4361 153.263 67.6563 150.329C68.7736 148.851 97.0233 148.419 106.005 140.793C117.675 130.895 109.847 115.765 109.847 115.765L78.2959 114.813C78.2959 114.813 78.678 121.416 77.4453 122.411C76.638 123.074 39.0462 126.232 34.9158 138.918C29.8483 154.46 61.1832 220.207 61.1832 220.207Z" fill="#455A64"/>
<path d="M61.1965 215.508C61.9894 215.133 69.8466 212.827 71.6126 212.372C75.1592 211.464 78.7201 210.578 82.2883 209.756C84.1552 209.33 88.1487 208.401 88.3938 208.444C88.5091 208.444 88.5307 208.667 88.3938 208.703C84.9338 209.849 81.4233 210.815 77.9128 211.789C74.4023 212.762 62.3138 215.681 61.2542 215.753C61.1749 215.732 61.0812 215.566 61.1965 215.508Z" fill="#263238"/>
<path d="M62.2856 147.691C63.0028 147.249 63.8224 147.001 64.6644 146.971C69.2201 146.216 73.7854 145.452 78.3604 144.678C82.6205 143.958 86.9095 143.33 91.1481 142.516C94.6585 141.838 98.2339 140.923 101.24 139.02C104.214 137.142 106.416 134.259 107.446 130.896C108.406 127.512 108.678 123.97 108.246 120.48C108.167 119.636 108.008 118.786 107.85 117.95C107.85 117.885 107.944 117.863 107.951 117.95C109.111 124.437 109.212 131.927 104.347 137.088C101.982 139.596 98.7385 141.074 95.4298 142.033C91.6507 142.998 87.8191 143.744 83.9541 144.267L70.287 146.531C68.1244 146.899 65.8682 147.18 63.6913 147.634C63.2554 147.694 62.8455 147.876 62.5091 148.16C62.3487 148.388 62.247 148.652 62.2131 148.929C62.1791 149.205 62.214 149.486 62.3145 149.746C62.5307 150.82 62.8263 151.908 63.129 152.932C65.6159 161.423 84.7542 206.433 85.23 207.363C85.2366 207.382 85.236 207.403 85.2283 207.422C85.2206 207.442 85.2064 207.457 85.1882 207.467C85.1699 207.476 85.1488 207.479 85.1288 207.475C85.1087 207.47 85.0909 207.458 85.0786 207.442C80.8977 199.988 66.3944 164.191 63.6336 156.176C62.9046 154.133 62.3075 152.045 61.8459 149.926C61.6874 149.126 61.5648 148.261 62.2856 147.691Z" fill="#263238"/>
<path d="M0.889674 239.837C2.41785 240.348 47.3982 240.183 49.0634 239.116C49.2652 239 49.3301 234.935 49.3373 229.363V229.255C49.3373 225.73 50.4402 195.584 50.4402 195.584L22.2914 195.354L20.5325 225.038C20.5325 225.038 14.4559 227.568 9.16492 230.084C6.84827 231.105 4.5952 232.266 2.41787 233.558C0.709483 234.928 -0.638505 239.332 0.889674 239.837Z" fill="#F9C0AB"/>
<path d="M0.892702 239.83C2.42088 240.349 47.4013 240.183 49.0664 239.109C49.2682 239.001 49.3331 234.928 49.3475 229.363V229.255C49.3475 229.01 49.3475 228.758 49.3475 228.534C49.3475 228.311 49.3475 228.174 49.3475 227.994C49.3475 227.813 49.3475 227.46 49.3475 227.186C49.4052 224.843 49.5205 221.037 49.6647 216.871L20.9825 216.684L20.4923 225.06C20.4923 225.06 14.4157 227.59 9.1247 230.106C6.80874 231.129 4.55574 232.289 2.37765 233.58C0.719721 234.928 -0.642686 239.332 0.892702 239.83Z" fill="#EBEBEB"/>
<path d="M0.703131 240.003C2.28177 240.522 47.3126 240.248 48.9994 239.152C49.6481 238.741 50.2824 231.792 49.6193 224.115L20.5839 224.324C20.5839 224.324 3.9469 232.145 2.20247 233.551C0.458036 234.957 -0.875507 239.52 0.703131 240.003Z" fill="#71389A"/>
<path d="M1.33769 238.201C8.88488 237.97 39.3547 237.747 46.8298 238.093C46.8947 238.093 46.8947 238.136 46.8298 238.136C39.3547 238.532 8.88488 238.504 1.33769 238.323C1.1791 238.316 1.1791 238.201 1.33769 238.201Z" fill="#263238"/>
<path d="M18.2485 225.102C21.2688 225.044 24.7793 226.089 26.6751 228.547C26.7472 228.648 26.6102 228.749 26.5165 228.699C23.8667 227.331 21.0779 226.251 18.198 225.477C18.1574 225.461 18.1233 225.432 18.1011 225.394C18.079 225.357 18.0701 225.313 18.076 225.269C18.0818 225.226 18.1019 225.186 18.1332 225.156C18.1645 225.125 18.2051 225.106 18.2485 225.102Z" fill="#263238"/>
<path d="M15.9208 226.024C18.9411 225.959 22.4516 227.005 24.3474 229.463C24.4195 229.564 24.2825 229.665 24.1888 229.621C21.5391 228.251 18.7504 227.169 15.8703 226.392C15.8269 226.38 15.7895 226.352 15.7648 226.314C15.7402 226.276 15.73 226.231 15.7361 226.186C15.7423 226.142 15.7643 226.101 15.7982 226.071C15.8321 226.041 15.8757 226.025 15.9208 226.024Z" fill="#263238"/>
<path d="M13.5927 226.948C16.613 226.883 20.1235 227.928 22.0193 230.394C22.0914 230.487 21.9544 230.588 21.8679 230.545C19.2153 229.176 16.4243 228.093 13.5422 227.316C13.4988 227.303 13.4614 227.276 13.4367 227.238C13.412 227.2 13.4019 227.155 13.408 227.11C13.4141 227.065 13.4362 227.024 13.4701 226.995C13.504 226.965 13.5476 226.948 13.5927 226.948Z" fill="#263238"/>
<path d="M11.2645 227.87C14.2921 227.805 17.7953 228.85 19.6912 231.316C19.7632 231.409 19.6263 231.51 19.5398 231.467C16.8882 230.095 14.097 229.013 11.2141 228.238C11.1707 228.225 11.1332 228.198 11.1086 228.16C11.0839 228.122 11.0737 228.077 11.0799 228.032C11.086 227.987 11.1081 227.946 11.142 227.917C11.1759 227.887 11.2194 227.87 11.2645 227.87Z" fill="#263238"/>
<path d="M18.9707 225.463H50.6876C50.6876 225.463 50.2912 166.657 52.7781 163.471C56.0939 159.226 102.516 159.326 112.471 145.486C121.409 133.059 113.862 115.478 113.862 115.478L78.7066 114.433C79.5007 118.203 80.5902 121.905 81.9648 125.505C81.9648 125.505 39.6227 133.319 27.7577 146.308C19.7564 155.088 18.9707 225.463 18.9707 225.463Z" fill="#455A64"/>
<path d="M75.8153 123.103C76.8355 123.328 77.8323 123.649 78.7924 124.062C79.8015 124.444 80.7963 124.883 81.7694 125.359C83.677 126.306 85.5322 127.355 87.3271 128.502C87.3848 128.538 87.3271 128.617 87.2694 128.588C85.3736 127.601 83.4057 126.707 81.4379 125.864L78.5977 124.638C77.6157 124.265 76.6533 123.841 75.7144 123.37C75.6842 123.353 75.6612 123.326 75.6493 123.293C75.6375 123.261 75.6377 123.225 75.65 123.193C75.6622 123.16 75.6856 123.134 75.7159 123.117C75.7463 123.101 75.7815 123.096 75.8153 123.103Z" fill="#263238"/>
<path d="M77.9207 114.432C78.3244 116.032 78.6776 117.654 79.1389 119.24C79.348 119.961 79.557 120.682 79.8598 121.403C80.0904 121.994 80.4436 122.678 81.1356 122.844C81.8276 123.01 82.1592 122.311 82.0944 121.655C82.0295 120.999 81.8349 120.213 81.6907 119.492C81.5249 118.656 81.3519 117.827 81.2005 116.991C81.1284 116.573 81.0491 116.155 80.9771 115.737C80.9771 115.629 80.8834 114.828 80.8257 114.598C80.824 114.608 80.8187 114.617 80.8107 114.624C80.8028 114.63 80.7928 114.634 80.7824 114.634C80.7702 114.634 80.7584 114.63 80.7491 114.622C80.7398 114.614 80.7337 114.603 80.732 114.591C80.724 114.569 80.724 114.546 80.732 114.525C80.7399 114.504 80.7553 114.486 80.7752 114.475C80.7752 114.475 80.8185 114.475 80.8473 114.475C80.9987 114.562 81.0059 114.771 81.0564 114.922C81.1861 115.326 81.3159 115.73 81.4384 116.14C81.6619 116.912 81.8781 117.676 82.0727 118.447C82.2674 119.218 82.4548 119.997 82.6422 120.768C82.8449 121.341 82.8995 121.956 82.8008 122.556C82.7283 122.839 82.5665 123.092 82.3393 123.276C82.1121 123.461 81.8316 123.567 81.5393 123.579L81.6258 123.738C81.6979 123.897 81.7484 124.062 81.806 124.221C81.8637 124.38 81.9214 124.553 81.9718 124.726C81.9933 124.806 82.0077 124.888 82.0151 124.971C82.0151 125.064 82.0151 125.158 82.0151 125.252C82.0182 125.283 82.0108 125.313 81.9941 125.339C81.9774 125.365 81.9525 125.385 81.9232 125.395C81.894 125.405 81.8622 125.405 81.8331 125.395C81.804 125.384 81.7792 125.364 81.7628 125.338C81.7195 125.259 81.6619 125.194 81.6114 125.115C81.5656 125.029 81.5271 124.94 81.4961 124.848C81.4456 124.69 81.3951 124.524 81.3591 124.365C81.3231 124.207 81.2654 124.034 81.2366 123.875C81.2298 123.777 81.2298 123.678 81.2366 123.579C80.9012 123.545 80.5807 123.423 80.3067 123.226C79.8576 122.846 79.5252 122.346 79.348 121.785C79.1101 121.121 78.9227 120.429 78.7353 119.745C78.2394 118.054 77.8968 116.321 77.7117 114.569C77.6179 114.309 77.8775 114.237 77.9207 114.432Z" fill="#263238"/>
<path d="M98.8242 118.353C98.9683 119.154 99.062 119.961 99.2495 120.747C99.4369 121.532 99.6387 122.289 99.891 123.046C100.12 123.778 100.45 124.474 100.871 125.115C101.311 125.716 101.836 126.25 102.428 126.701C103.564 127.599 104.837 128.307 106.198 128.798C106.882 129.045 107.58 129.25 108.289 129.411C108.656 129.49 109.01 129.555 109.406 129.606C109.717 129.615 110.024 129.686 110.307 129.815C110.334 129.831 110.356 129.853 110.372 129.881C110.387 129.908 110.395 129.938 110.395 129.97C110.395 130.001 110.387 130.032 110.372 130.059C110.356 130.086 110.334 130.109 110.307 130.125C109.767 130.288 109.193 130.308 108.642 130.182C108.042 130.12 107.447 130.014 106.862 129.865C105.676 129.55 104.542 129.064 103.495 128.423C102.432 127.825 101.481 127.047 100.684 126.124C99.9361 125.156 99.4206 124.029 99.1774 122.83C98.8062 121.365 98.6413 119.856 98.6872 118.346C98.68 118.281 98.8097 118.267 98.8242 118.353Z" fill="#263238"/>
<path d="M46.1515 184.23C46.4591 179.233 46.8724 174.249 47.3914 169.28C47.5211 168.055 47.6437 166.822 47.795 165.597C47.8821 164.642 48.0905 163.702 48.415 162.8C49.1358 160.933 50.7 159.989 52.5814 159.513C54.8016 158.951 57.1011 158.612 59.3573 158.251C61.6135 157.891 63.9851 157.531 66.3062 157.213C70.9989 156.565 75.6771 155.959 80.3698 155.173C85.0325 154.429 89.6431 153.389 94.1738 152.059C98.3259 150.805 102.586 149.255 105.909 146.379C113.067 140.173 113.327 129.8 112.454 121.085C112.332 119.859 112.18 118.634 112.029 117.409C112.029 117.344 112.123 117.322 112.13 117.409C112.692 122.303 113.355 127.234 112.851 132.164C112.538 136.245 111.194 140.178 108.944 143.597C106.522 147.071 102.932 149.313 99.0611 150.877C94.7913 152.528 90.3843 153.799 85.8914 154.676C76.6142 156.615 67.1496 157.444 57.8147 159.037C56.6614 159.239 55.5152 159.448 54.3691 159.671C53.3028 159.828 52.258 160.106 51.2551 160.5C49.1358 161.452 48.5519 163.513 48.2924 165.647C47.6797 170.599 47.2688 175.588 46.9084 180.561C46.1876 190.588 45.8055 200.673 45.82 210.728C45.82 211.976 45.82 217.591 45.82 218.831C45.82 218.946 45.6541 218.932 45.6541 218.831C45.3874 208.732 45.5172 194.286 46.1515 184.23Z" fill="#263238"/>
<path d="M20.4774 220.777C21.3481 220.642 22.2273 220.567 23.1084 220.554C24.0311 220.503 24.9538 220.446 25.8837 220.41C27.7002 220.338 29.5191 220.297 31.3404 220.287C35.0095 220.287 38.6714 220.287 42.3404 220.366C44.2507 220.41 48.345 220.482 48.5757 220.59C48.6838 220.633 48.655 220.835 48.5396 220.842C44.9355 221.102 41.2664 221.181 37.6189 221.267C33.9715 221.354 30.3457 221.433 26.7054 221.34C25.6963 221.34 24.6943 221.267 23.6851 221.224C22.62 221.237 21.5552 221.175 20.499 221.037C20.3765 220.994 20.3332 220.777 20.4774 220.777Z" fill="#263238"/>
<path d="M50.8081 186.256C50.8514 182.825 50.9523 179.401 51.0244 175.97C51.0965 172.733 51.0244 169.482 51.6515 166.253C51.911 164.97 52.1417 163.262 53.5185 162.649C54.251 162.373 55.0027 162.152 55.7675 161.986C56.5748 161.777 57.3966 161.568 58.2183 161.387C62.0027 160.573 65.8376 160.061 69.6797 159.542C69.7446 159.542 69.7734 159.636 69.6797 159.65C66.4359 160.277 63.1921 160.912 59.9628 161.647C58.3553 162.014 56.7406 162.368 55.1476 162.836C54.4988 163.016 53.605 163.139 53.1508 163.68C52.7352 164.335 52.4671 165.073 52.3651 165.842C51.6443 168.971 51.6804 172.236 51.5939 175.429C51.5074 178.745 51.428 182.054 51.3343 185.37C51.2262 189.082 51.1253 192.809 50.873 196.521C50.873 196.542 50.8647 196.562 50.8498 196.577C50.8349 196.592 50.8147 196.6 50.7937 196.6C50.7727 196.6 50.7525 196.592 50.7376 196.577C50.7228 196.562 50.7144 196.542 50.7144 196.521C50.664 193.119 50.7504 189.687 50.8081 186.256Z" fill="#263238"/>
<path d="M81.7473 125.626C75.2575 126.403 68.8438 127.719 62.573 129.562C56.2495 131.339 50.0649 133.577 44.069 136.259C40.7027 137.772 37.4445 139.466 34.2224 141.24C34.1575 141.276 34.2224 141.369 34.28 141.333C40.1085 138.323 46.1285 135.698 52.301 133.476C58.4187 131.243 64.6802 129.424 71.0428 128.034C74.647 127.255 78.2512 126.65 81.8554 126.052C82.0861 125.987 82.0212 125.576 81.7473 125.626Z" fill="#263238"/>
<path d="M79.1746 78.4838C79.8234 91.8266 76.385 109.256 74.5324 110.705C71.267 113.264 51.2853 118.635 47.0396 119.211C45.3745 119.442 43.976 119.608 42.9885 119.73C40.5448 120.019 35.6431 104.038 37.2722 101.969C37.6543 101.493 39.2473 101.053 41.5036 100.642C49.0868 99.2728 65.731 97.9609 66.6536 97.4491C67.7853 96.822 68.5495 87.1051 72.6582 77.4098C75.5488 70.5978 78.8646 71.3908 79.1746 78.4838Z" fill="#F9C0AB"/>
<path d="M46.0156 99.8711L50.0307 120.581C50.0307 120.581 69.1402 115.492 74.9717 111.318C78.1074 109.076 80.0176 86.55 79.7004 79.183C79.3689 71.9314 75.9593 68.2191 72.3695 76.4583C68.9744 84.2433 66.9849 96.2597 66.4154 96.7066C65.8459 97.1536 46.0156 99.8711 46.0156 99.8711Z" fill="#71389A"/>
<path d="M51.2486 109.047C50.917 107.605 50.5782 106.164 50.2322 104.722C49.8862 103.28 49.5906 101.839 49.1365 100.397C49.1365 100.332 49.0068 100.346 49.014 100.397C49.187 101.839 49.5258 103.223 49.8069 104.628C50.088 106.034 50.4124 107.598 50.7296 109.076C51.3495 112.01 52.0847 114.907 52.8921 117.805C52.8984 117.817 52.9089 117.827 52.9216 117.832C52.9343 117.837 52.9485 117.838 52.9616 117.834C52.9747 117.829 52.9857 117.82 52.9928 117.808C52.9999 117.797 53.0025 117.783 53.0002 117.769C52.4668 114.864 51.9189 111.93 51.2486 109.047Z" fill="#263238"/>
<path opacity="0.1" d="M62.2852 116.839C64.08 116.234 65.8894 115.578 67.6122 114.907L68.369 114.605L68.6718 114.482C69.6233 114.093 70.5388 113.696 71.3821 113.293C71.8074 113.098 72.2111 112.896 72.5931 112.709L73.3717 112.291L74.1718 111.822C74.4601 111.649 74.7268 111.469 74.9647 111.296C78.1004 109.054 80.0106 86.528 79.6862 79.161V78.743C79.3691 73.5817 77.4444 70.374 75.044 72.3275C71.3605 84.625 65.3631 106.488 62.2852 116.839Z" fill="black"/>
<path d="M70.1123 124.314C71.2801 125.179 117.291 123.305 117.464 122.981C117.637 122.656 102.327 74.5691 85.1851 69.4223C82.4675 68.6078 78.1641 69.2349 75.6844 71.7651C68.3391 79.2546 69.3771 123.766 70.1123 124.314Z" fill="#71389A"/>
<path d="M77.6382 78.0949C80.954 78.0949 83.9527 73.2509 84.6591 69.762C84.7096 69.5241 83.7293 67.4625 82.6552 64.9108C82.0065 63.3538 81.3217 61.6093 80.8171 59.9658L71.3164 65.6532C72.5381 67.5196 73.5258 69.529 74.2574 71.6362C74.3278 71.8711 74.3737 72.1127 74.3944 72.357C74.3922 72.3955 74.3922 72.434 74.3944 72.4724C74.6034 73.7843 75.1368 78.0949 77.6382 78.0949Z" fill="#F9C0AB"/>
<path d="M71.3164 65.6454C72.535 67.5135 73.5226 69.5225 74.2574 71.6284C74.3278 71.8633 74.3737 72.1049 74.3944 72.3492C74.3916 72.3876 74.3916 72.4262 74.3944 72.4645C74.7602 72.4108 75.12 72.3214 75.4684 72.1978C81.6316 69.9777 80.7234 62.3728 80.3485 60.2607L71.3164 65.6454Z" fill="#263238"/>
<path d="M77.0489 47.1056C79.6944 50.0899 82.4552 60.9457 81.0135 64.3121C78.9231 69.1849 73.214 72.1764 68.4925 69.1417C63.9152 66.2007 60.5633 51.9929 62.3942 48.6987C65.0758 43.8474 73.1348 42.7301 77.0489 47.1056Z" fill="#F9C0AB"/>
<path d="M69.8965 57.9482C69.8965 57.9482 69.9614 57.9482 69.9686 57.9987C70.1127 58.7195 70.4083 59.5557 71.1219 59.6422V59.6855C70.293 59.7576 69.9181 58.6691 69.8965 57.9482Z" fill="#263238"/>
<path d="M70.3709 57.0308C71.5242 56.6704 72.1586 59.0059 71.0917 59.3375C70.0249 59.6691 69.405 57.3336 70.3709 57.0308Z" fill="#263238"/>
<path d="M65.6509 59.1006C65.6509 59.1006 65.6004 59.151 65.6148 59.1799C65.8311 59.9007 65.968 60.7585 65.377 61.1766C66.1627 60.8811 65.9753 59.7421 65.6509 59.1006Z" fill="#263238"/>
<path d="M64.8004 58.5241C63.611 58.7548 64.1589 61.1119 65.2546 60.8957C66.3502 60.6794 65.7952 58.3295 64.8004 58.5241Z" fill="#263238"/>
<path d="M70.8701 56.3829C70.5374 56.3771 70.2053 56.353 69.8753 56.3108C69.5237 56.3308 69.175 56.2373 68.8805 56.0441C68.7995 55.9649 68.7471 55.8611 68.7315 55.7489C68.7158 55.6368 68.7378 55.5226 68.794 55.4242C68.9345 55.248 69.1194 55.1123 69.3298 55.0312C69.5401 54.9501 69.7682 54.9265 69.9906 54.9629C70.4546 54.9673 70.9009 55.1417 71.2449 55.453C71.319 55.5291 71.3695 55.6252 71.39 55.7294C71.4106 55.8337 71.4004 55.9416 71.3606 56.0402C71.3209 56.1387 71.2534 56.2236 71.1663 56.2845C71.0792 56.3453 70.9763 56.3795 70.8701 56.3829Z" fill="#263238"/>
<path d="M63.576 57.5938C63.8721 57.4489 64.1586 57.2851 64.4338 57.1037C64.7615 56.9713 65.0372 56.736 65.2195 56.4333C65.2583 56.3261 65.2602 56.2091 65.225 56.1007C65.1897 55.9923 65.1193 55.8988 65.0249 55.835C64.8204 55.7383 64.5941 55.6975 64.3688 55.7164C64.1435 55.7354 63.9271 55.8136 63.7418 55.9431C63.3258 56.1467 63.0016 56.4992 62.8335 56.9307C62.7993 57.0312 62.7955 57.1395 62.8224 57.2422C62.8494 57.3449 62.906 57.4374 62.9852 57.5081C63.0643 57.5788 63.1626 57.6247 63.2677 57.6399C63.3727 57.6552 63.48 57.6391 63.576 57.5938Z" fill="#263238"/>
<path d="M70.9352 62.2927C70.8317 62.6292 70.6589 62.9402 70.428 63.2059C70.1971 63.4716 69.9131 63.686 69.5944 63.8353C69.3187 63.9721 69.0251 64.0691 68.7222 64.1237L68.3834 64.1669C68.3431 64.1694 68.3031 64.1588 68.2694 64.1367C68.2356 64.1146 68.2099 64.0823 68.196 64.0444L67.8211 62.4874C67.6481 62.646 66.7399 63.3956 66.675 63.1001C66.0541 60.5748 65.6918 57.9929 65.5938 55.3943C65.5985 55.3799 65.6077 55.3673 65.62 55.3584C65.6323 55.3495 65.647 55.3447 65.6622 55.3447C65.6774 55.3447 65.6922 55.3495 65.7045 55.3584C65.7168 55.3673 65.726 55.3799 65.7307 55.3943C66.3146 57.7298 66.4876 60.1446 67.0426 62.4946C67.3657 62.223 67.7247 61.9974 68.1095 61.8242C68.1527 61.8242 68.5204 63.7488 68.5276 63.7632C68.9965 63.6849 69.4449 63.5131 69.8461 63.258C70.2474 63.0029 70.5932 62.6697 70.8631 62.2783C70.8847 62.1918 70.9352 62.1918 70.9352 62.2927Z" fill="#263238"/>
<path d="M80.9553 54.9843C78.4036 56.3107 75.6644 53.7661 75.1886 50.9764C75.1886 50.9764 68.5857 54.9411 65.8177 49.4699C65.6553 50.4464 65.2546 51.3677 64.6511 52.1523C64.0475 52.9369 63.2598 53.5605 62.3577 53.9679L62.473 56.3827C61.6657 56.4837 60.015 54.7753 61.0746 52.4109C60.4523 50.6354 60.5402 48.6881 61.3197 46.9758C61.667 46.251 62.2166 45.6422 62.9021 45.2227C63.5877 44.8032 64.3799 44.5909 65.1834 44.6114C66.0196 43.1987 67.3709 42.1651 68.9534 41.7281C69.7846 41.5149 70.6548 41.5038 71.4913 41.6957C72.3277 41.8876 73.1061 42.2768 73.7614 42.831C73.7614 42.831 77.5241 41.9876 79.1821 44.1933C79.6674 44.809 80.0172 45.5202 80.2085 46.2805C80.3998 47.0408 80.4283 47.8328 80.2922 48.6049C80.2922 48.6049 81.5825 49.196 82.051 51.4882C82.3393 52.9804 81.7482 54.5879 80.9553 54.9843Z" fill="#263238"/>
<path d="M65.7383 48.9072C65.8849 49.3874 66.0805 49.8512 66.3222 50.2912C66.5488 50.7268 66.8271 51.1334 67.1511 51.5022C67.7878 52.2428 68.6817 52.7142 69.6524 52.8214C70.6376 52.8923 71.6256 52.7293 72.5358 52.3456C72.9827 52.1366 73.4513 51.9564 73.891 51.7185C74.3307 51.4806 74.756 51.2211 75.2029 50.9977C74.7992 51.3004 74.3883 51.5815 73.9775 51.8843C73.5666 52.187 73.0836 52.3672 72.6367 52.6051C71.6981 53.0434 70.6646 53.2392 69.6308 53.1746C68.5814 53.0486 67.6236 52.5153 66.9637 51.6897C66.3298 50.8787 65.9086 49.9223 65.7383 48.9072Z" fill="#263238"/>
<path d="M73.7461 42.8456C74.64 42.468 75.6015 42.2767 76.5718 42.2834C77.5754 42.2744 78.5502 42.6189 79.3254 43.2565C79.6854 43.5958 79.9895 43.99 80.2265 44.4243C80.4768 44.8502 80.6523 45.3159 80.7454 45.8011C80.9471 46.7661 80.7799 47.7717 80.2769 48.6195C80.6432 47.7484 80.7141 46.7812 80.4787 45.8659C80.2519 44.9646 79.7686 44.1484 79.0875 43.516C78.748 43.2032 78.3516 42.9584 77.9198 42.7952C77.4809 42.6487 77.0258 42.5567 76.5646 42.5213C75.6138 42.4784 74.6623 42.5879 73.7461 42.8456Z" fill="#263238"/>
<path d="M65.1692 44.6188C64.4046 44.6625 63.6523 44.8305 62.9418 45.1162C62.2436 45.3867 61.6276 45.8338 61.1541 46.4137C60.7015 47.0075 60.4087 47.7073 60.3035 48.4465C60.1918 49.2065 60.1918 49.9787 60.3035 50.7387C60.0572 49.9913 59.9664 49.2014 60.0368 48.4176C60.0944 47.6087 60.3876 46.8344 60.8802 46.1903C61.3941 45.5656 62.0774 45.1026 62.8481 44.8567C63.5953 44.6096 64.3874 44.5284 65.1692 44.6188Z" fill="#263238"/>
<path d="M63.5391 53.7236C64.1912 53.1301 64.7416 52.4337 65.1682 51.662C65.37 51.2798 65.5202 50.8726 65.6151 50.451C65.706 50.0173 65.7495 49.575 65.7448 49.1318C65.8846 49.5715 65.9312 50.0355 65.8818 50.4942C65.8381 50.959 65.7008 51.4102 65.4781 51.8206C65.2632 52.2327 64.9833 52.6076 64.6492 52.9307C64.3272 53.2565 63.9517 53.5247 63.5391 53.7236Z" fill="#263238"/>
<path d="M65.2553 63.2162C64.1597 63.5189 62.9054 62.4088 62.4513 60.7581C61.9972 59.1074 62.5306 57.5143 63.6262 57.2188C64.7219 56.9233 65.9762 58.0261 66.4231 59.6769C66.87 61.3276 66.3438 62.9134 65.2553 63.2162ZM63.7272 57.6225C62.8549 57.8603 62.4585 59.2155 62.8477 60.65C63.237 62.0845 64.2894 63.0504 65.14 62.8125C65.9906 62.5746 66.4015 61.2195 66.0122 59.785C65.623 58.3505 64.6066 57.3846 63.7272 57.6225Z" fill="#A6A6A6"/>
<path d="M71.9796 61.3927C71.3879 61.5996 70.7476 61.6236 70.142 61.4614C69.5365 61.2993 68.9938 60.9586 68.5847 60.4837C68.1755 60.0088 67.9189 59.4217 67.8481 58.7988C67.7773 58.176 67.8957 57.5462 68.1879 56.9916C68.4801 56.437 68.9325 55.9833 69.4862 55.6894C70.0399 55.3955 70.6693 55.2752 71.2923 55.3441C71.9154 55.413 72.5033 55.6679 72.9794 56.0756C73.4556 56.4833 73.798 57.0249 73.9619 57.6299C74.1964 58.3918 74.1195 59.2155 73.748 59.9208C73.3764 60.626 72.7406 61.1553 71.9796 61.3927ZM70.4586 55.7918C69.9241 55.8922 69.4322 56.1514 69.0474 56.5357C68.6625 56.92 68.4025 57.4115 68.3014 57.9459C68.2002 58.4803 68.2626 59.0328 68.4805 59.5311C68.6983 60.0295 69.0614 60.4506 69.5223 60.7393C69.9832 61.0281 70.5205 61.1711 71.064 61.1496C71.6075 61.1281 72.1318 60.9432 72.5685 60.6191C73.0053 60.2949 73.334 59.8465 73.5119 59.3325C73.6897 58.8185 73.7084 58.2629 73.5655 57.7381C73.4109 57.0684 72.997 56.4873 72.4145 56.1225C71.8321 55.7576 71.1287 55.6387 70.4586 55.7918Z" fill="#A6A6A6"/>
<path d="M68.4199 58.848C66.7764 58.7254 66.2574 59.403 66.2574 59.4102L65.9258 59.1579C65.9258 59.1579 66.5818 58.2929 68.4848 58.4371L68.4199 58.848Z" fill="#A6A6A6"/>
<path d="M73.6861 57.4211L73.5059 57.0463C73.7582 56.9309 79.5681 54.1629 80.2313 53.9178C80.8945 53.6728 82.8047 54.1629 83.0137 54.2134L82.9128 54.6171C82.0944 54.3768 81.2421 54.2721 80.3899 54.3071C79.8564 54.4801 75.7765 56.4264 73.6861 57.4211Z" fill="#A6A6A6"/>
<path d="M78.5254 57.0386C78.5254 57.0386 79.3904 52.7784 81.2285 52.9514C83.0667 53.1244 83.3911 58.6028 81.9494 60.0084C81.7745 60.2018 81.5622 60.3578 81.3254 60.467C81.0886 60.5762 80.8321 60.6363 80.5715 60.6437C80.3108 60.6511 80.0514 60.6056 79.8087 60.5101C79.5661 60.4146 79.3453 60.2709 79.1597 60.0877L78.5254 57.0386Z" fill="#F9C0AB"/>
<path d="M81.2855 54.5234V54.5667C80.2836 55.5903 80.1322 57.0031 80.1899 58.3727C80.2069 58.2192 80.2573 58.0713 80.3375 57.9393C80.4177 57.8072 80.5258 57.6944 80.6542 57.6085C80.7826 57.5227 80.9282 57.466 81.0809 57.4423C81.2335 57.4187 81.3895 57.4287 81.5378 57.4717C81.5811 57.4717 81.5378 57.5438 81.5378 57.551C81.2938 57.5756 81.0634 57.6756 80.8787 57.8371C80.694 57.9985 80.5641 58.2134 80.507 58.452C80.4134 58.8515 80.3626 59.2599 80.3557 59.6702C80.3557 59.8072 80.125 59.8288 80.1106 59.6702C79.4186 58.1132 79.6853 55.4101 81.2855 54.5234Z" fill="#263238"/>
<path d="M74.3684 72.1051L78.0879 77.7781L84.1862 68.4072L86.8605 70.4688C86.8605 70.4688 81.8651 84.3882 81.6993 83.8404L78.0951 79.0324L75.1685 83.4728L73.5898 74.1019L74.3684 72.1051Z" fill="#71389A"/>
<path d="M74.1217 78.9159C73.9127 77.3589 73.6604 75.8019 73.5234 74.2449C73.5234 74.1872 73.5955 74.144 73.6244 74.2088C74.2299 75.6505 74.994 81.5686 75.2823 82.9742C75.4048 82.7796 78.0287 79.0313 78.0719 79.0745C78.7928 79.7953 81.4383 83.3058 81.6401 83.6302C82.4258 81.4244 85.893 72.6374 86.9238 70.4893C86.9238 70.4316 87.0464 70.4893 87.0248 70.5254C86.3976 72.8176 81.9789 84.3799 81.8636 84.3727C80.5076 82.7469 79.2418 81.048 78.0719 79.2836C77.6538 80.0693 75.0805 84.2285 75.0228 83.9978C74.6315 82.3212 74.3308 80.6248 74.1217 78.9159Z" fill="#263238"/>
<path d="M93.4621 74.6412C102.487 84.9636 113.523 104.196 111.483 109.328C108.794 116.147 76.2845 119.946 70.9431 120.465C68.6652 120.688 70.0853 101.096 72.5145 100.815C74.6338 100.563 92.3592 98.1405 93.0944 97.0809C93.5197 96.461 90.9752 90.7159 87.1836 76.6451C84.7543 67.5625 91.004 71.8227 93.4621 74.6412Z" fill="#F9C0AB"/>
<path d="M79.2832 102.747C76.8636 102.062 74.4816 101.251 72.1469 100.318C68.0237 98.7895 57.0093 97.7154 48.7773 106.957C45.6272 110.496 46.7373 114.251 50.6587 111.152C53.4267 108.989 55.1495 107.223 56.2524 106.762C56.2524 106.762 55.0198 112.01 57.0886 114.352C58.8958 116.41 60.847 118.338 62.9274 120.119C63.3383 119.811 63.7284 119.477 64.0951 119.117C64.9923 119.971 66.1129 120.554 67.3273 120.797C68.5418 121.041 69.8004 120.936 70.9575 120.494L79.2832 102.747Z" fill="#F9C0AB"/>
<path d="M67.9799 99.4893C65.8174 100.311 61.2833 102.128 58.09 104.903C54.5363 107.988 48.5317 114.886 50.8311 117.481C52.5251 119.384 55.048 116.955 55.048 116.955C55.048 116.955 53.1667 120.329 55.048 121.713C56.7781 122.981 58.6522 120.992 58.6522 120.992C58.6522 120.992 57.8593 123.241 59.7623 124.135C62.0546 125.209 63.3665 120.329 66.5959 119.42C67.3312 119.197 67.9799 99.4893 67.9799 99.4893Z" fill="#F9C0AB"/>
<path d="M61.9743 108.109C58.8221 110.252 56.398 113.305 55.0254 116.86C55.0254 116.947 55.0254 117.019 55.0975 116.947C57.0342 113.742 59.3531 110.784 62.0031 108.138C62.0031 108.138 61.9959 108.095 61.9743 108.109Z" fill="#263238"/>
<path d="M64.9805 111.787C63.4379 112.904 59.8193 116.797 58.5723 120.935C58.5723 121.021 58.5723 121.093 58.6444 121.014C60.4119 117.717 62.5472 114.632 65.0094 111.816C65.0094 111.816 65.0021 111.773 64.9805 111.787Z" fill="#263238"/>
<path d="M72.377 100.181L80.2053 121.143C80.2053 121.143 109.14 116.205 112.023 110.201C114.481 105.155 102.587 85.4038 98.3272 79.9254C89.6771 68.8749 84.8691 68.2045 86.6712 76.5086C88.7616 86.1679 92.5604 96.238 92.1063 96.7498C91.6522 97.2616 72.377 100.181 72.377 100.181Z" fill="#71389A"/>
<path d="M80.5287 110.193C79.9521 108.636 79.3754 107.079 78.7843 105.529C78.1932 103.979 77.6598 102.401 76.975 100.908C76.939 100.836 76.8308 100.865 76.8524 100.945C77.2633 102.494 77.8328 104.015 78.3446 105.529C78.8564 107.043 79.4475 108.744 80.0025 110.344C81.1054 113.516 82.3308 116.63 83.6067 119.715C83.6427 119.794 83.7365 119.715 83.7148 119.665C82.7129 116.486 81.6749 113.321 80.5287 110.193Z" fill="#263238"/>
<path d="M72.4404 99.9066C79.0073 98.6668 85.6462 97.8738 92.2059 96.6556C91.485 94.1039 90.5479 91.6098 89.7622 89.0652C89.618 88.6183 89.4883 88.1569 89.3513 87.7028C88.717 86.5062 88.0971 85.3024 87.5276 84.0986C87.5276 84.0986 87.5276 84.0554 87.5636 84.0986C88.1187 85.0862 88.6377 86.0809 89.1495 87.0901C88.5632 85.139 87.9865 83.1807 87.4195 81.2153C87.4195 81.1648 87.4699 81.1432 87.4843 81.2153C88.3926 83.8031 89.3081 86.3837 90.1803 88.9859C91.0525 91.5881 91.7589 94.248 92.696 96.8214C92.7149 96.876 92.7119 96.9357 92.6877 96.9881C92.6635 97.0405 92.62 97.0815 92.5663 97.1025C89.272 97.8234 85.9201 98.3208 82.5826 98.8398C79.2452 99.3588 75.9509 99.8922 72.6062 100.281C72.6062 100.462 72.6062 100.649 72.6062 100.836C72.6004 100.858 72.5877 100.877 72.5701 100.89C72.5525 100.903 72.531 100.911 72.5089 100.911C72.4868 100.911 72.4653 100.903 72.4477 100.89C72.4302 100.877 72.4174 100.858 72.4116 100.836L72.2891 100.116C72.2891 99.9859 72.3756 99.921 72.4404 99.9066Z" fill="#263238"/>
<path d="M79.584 119.413L80.3048 121.121L80.2183 121.071C83.1017 120.451 85.985 119.831 88.8684 119.131C91.7518 118.432 94.5991 117.747 97.4392 116.969C100.282 116.204 103.08 115.285 105.823 114.215C107.192 113.689 108.516 113.05 109.78 112.305C110.409 111.935 110.994 111.495 111.524 110.993C112.075 110.506 112.459 109.858 112.62 109.141C112.527 109.889 112.19 110.585 111.661 111.123C111.148 111.664 110.578 112.147 109.96 112.565C108.714 113.384 107.399 114.096 106.032 114.691C103.291 115.858 100.476 116.84 97.605 117.632C94.7216 118.439 91.8383 119.074 88.9549 119.73C86.0715 120.386 83.1377 120.84 80.1967 121.222H80.1318V121.164L79.584 119.413Z" fill="#263238"/>
<path d="M88.4067 124.265H47.7441V126.088H88.4067V124.265Z" fill="#455A64"/>
<path d="M88.4093 124.265H60.7363V126.088H88.4093V124.265Z" fill="#A6A6A6"/>
<path d="M61.4917 126.088H29.0755L23.4746 99.1787H55.8907L61.4917 126.088Z" fill="#A6A6A6"/>
<path d="M59.6967 126.088H27.2734L21.6797 99.1787H54.0958L59.6967 126.088Z" fill="#DBDBDB"/>
<path d="M42.7486 112.651C42.7829 112.912 42.7605 113.177 42.683 113.428C42.6055 113.679 42.4746 113.91 42.2994 114.106C42.1241 114.302 41.9086 114.457 41.6677 114.562C41.4267 114.667 41.1659 114.718 40.9032 114.713C40.3381 114.702 39.796 114.487 39.3763 114.108C38.9566 113.73 38.6874 113.212 38.6182 112.651C38.5826 112.39 38.6043 112.123 38.6817 111.871C38.7592 111.619 38.8905 111.386 39.0667 111.189C39.2428 110.992 39.4596 110.836 39.702 110.732C39.9445 110.627 40.2067 110.576 40.4707 110.583C41.0362 110.594 41.5783 110.81 41.9969 111.191C42.4156 111.571 42.6826 112.09 42.7486 112.651Z" fill="white"/>
<path d="M18.5954 99.6758C18.0188 102.487 15.7769 106.351 16.0364 108.47C16.0854 108.99 16.2993 109.48 16.6469 109.869C16.9946 110.258 17.4576 110.526 17.9683 110.633C17.9683 110.633 16.1734 112.154 16.7212 114.035C17.0096 115.008 18.8045 115.404 18.8045 115.404C18.4123 115.77 18.1297 116.237 17.9883 116.754C17.847 117.271 17.8525 117.817 18.0043 118.331C18.4801 119.643 20.2101 119.845 20.2101 119.845C20.2101 119.845 19.4532 121.705 20.3615 122.88C22.1996 125.273 33.8051 122.425 34.5476 117.711C34.8936 115.513 32.0967 116.363 32.0967 116.363C32.0967 116.363 35.8235 114.201 35.2973 111.764C34.7711 109.328 31.2029 110.676 31.2029 110.676C31.2029 110.676 34.8071 108.513 33.9998 106.084C33.1924 103.655 29.8477 105.442 29.8477 105.442C29.8477 105.442 32.0102 103.064 30.9578 101.334C29.2422 98.4503 25.3136 103.561 22.6105 103.583L20.174 99.7262L18.5954 99.6758Z" fill="#F9C0AB"/>
<path d="M17.1683 103.879C17.4855 101.169 13.6578 98.833 13.5641 96.2236C13.4632 92.6626 18.0838 95.0414 20.1382 99.7485L21.0897 103.677L17.1683 103.879Z" fill="#F9C0AB"/>
<path d="M18.7514 115.434C18.701 115.434 18.7154 115.52 18.7514 115.52C23.3878 115.485 27.8581 113.789 31.3517 110.741C31.467 110.633 31.467 110.417 31.3517 110.532C28.8648 112.485 22.5646 114.814 18.7514 115.434Z" fill="#263238"/>
<path d="M30.0131 105.155C26.5675 108.096 22.5236 109.646 18.1409 110.633C18.0832 110.633 18.1409 110.72 18.1409 110.727C20.4115 110.828 23.1363 109.905 25.1979 109.012C27.1254 108.212 28.8121 106.925 30.0924 105.278C30.1645 105.213 30.0852 105.09 30.0131 105.155Z" fill="#263238"/>
<path d="M35.68 27.4343C37.9174 27.4343 39.7311 25.6205 39.7311 23.3832C39.7311 21.1458 37.9174 19.332 35.68 19.332C33.4426 19.332 31.6289 21.1458 31.6289 23.3832C31.6289 25.6205 33.4426 27.4343 35.68 27.4343Z" fill="#71389A"/>
<path d="M25.0893 32.3786C25.0893 33.1813 24.8513 33.9659 24.4054 34.6333C23.9594 35.3007 23.3256 35.8209 22.584 36.128C21.8425 36.4352 21.0265 36.5156 20.2392 36.359C19.452 36.2024 18.7289 35.8159 18.1613 35.2483C17.5938 34.6807 17.2072 33.9576 17.0506 33.1704C16.894 32.3831 16.9744 31.5671 17.2816 30.8256C17.5888 30.084 18.1089 29.4502 18.7763 29.0043C19.4437 28.5583 20.2283 28.3203 21.031 28.3203C22.1073 28.3203 23.1396 28.7479 23.9007 29.509C24.6617 30.2701 25.0893 31.3023 25.0893 32.3786Z" fill="#71389A"/>
<path d="M39.7299 41.3685C39.7313 42.1718 39.4944 42.9574 39.049 43.6259C38.6036 44.2944 37.9698 44.8157 37.228 45.1237C36.4861 45.4318 35.6695 45.5128 34.8816 45.3564C34.0937 45.2 33.3699 44.8134 32.8019 44.2454C32.2339 43.6774 31.8473 42.9536 31.6909 42.1657C31.5345 41.3778 31.6155 40.5612 31.9236 39.8193C32.2316 39.0775 32.7529 38.4437 33.4214 37.9983C34.0899 37.5529 34.8755 37.316 35.6788 37.3174C36.7526 37.3193 37.782 37.7467 38.5413 38.506C39.3006 39.2654 39.728 40.2947 39.7299 41.3685Z" fill="#71389A"/>
<path d="M35.3621 42.3114L19.9434 32.3638L35.3693 22.8848L35.982 23.8795L22.1275 32.3854L35.9892 41.3383L35.3621 42.3114Z" fill="#71389A"/>
<path d="M6.10872 68.8171C5.43023 70.5554 5.02889 72.3894 4.91934 74.2522H0.111328V74.1152C0.111328 73.9927 0.111319 73.8702 0.147361 73.7476C0.206067 73.1087 0.312082 72.475 0.464532 71.8518C0.713216 70.828 1.0734 69.8345 1.5386 68.8892C1.54538 68.8649 1.56095 68.8441 1.58229 68.8308C1.60362 68.8174 1.62918 68.8126 1.65393 68.8171H6.10872Z" fill="#71389A"/>
<path d="M5.96514 80.9337H1.54639C1.52276 80.9363 1.49896 80.9305 1.47918 80.9174C1.4594 80.9042 1.44491 80.8844 1.43827 80.8616C0.687637 79.2766 0.240235 77.5652 0.119141 75.8157C0.119141 75.8157 0.119141 75.7725 0.119141 75.7581V75.6211H4.84784C4.93435 75.6211 4.92713 75.6211 4.93434 75.7076C4.93434 76.0896 4.9848 76.4789 5.02805 76.8609C5.08669 77.4746 5.18542 78.0838 5.3236 78.6847C5.48198 79.4192 5.69153 80.1418 5.95073 80.8472L5.96514 80.9337Z" fill="#71389A"/>
<path d="M24.5557 82.3764L24.5197 82.4412C24.1468 83.0154 23.7273 83.5578 23.2654 84.0631C22.7132 84.6901 22.0972 85.2578 21.4273 85.7571C20.7731 86.2548 20.0732 86.6893 19.3369 87.0546C18.6296 87.4079 17.8912 87.6951 17.1311 87.9124C16.5252 88.0845 15.9088 88.217 15.2857 88.3089H15.1055H14.9974L14.8965 88.244L15.0118 88.1575C16.3628 87.2424 17.5435 86.0983 18.5007 84.7768C19.0472 84.0308 19.5295 83.2399 19.9424 82.4124C19.9491 82.3901 19.9639 82.3711 19.9839 82.3591C20.0039 82.3471 20.0276 82.343 20.0505 82.3475H24.5701L24.5557 82.3764Z" fill="#71389A"/>
<path d="M20.1375 74.2445H13.9238V68.8238H18.7751C18.7959 68.8214 18.8169 68.8267 18.8341 68.8386C18.8514 68.8506 18.8637 68.8683 18.8688 68.8887C19.3156 69.9081 19.6469 70.9744 19.8563 72.0676C19.9714 72.6363 20.0509 73.2117 20.0942 73.7904L20.1375 74.2445Z" fill="#71389A"/>
<path d="M20.1002 75.6943C20.1002 75.8241 20.1002 75.9538 20.1002 76.0764C20.1002 76.3791 20.0497 76.6819 20.0065 76.9846C19.9488 77.4027 19.884 77.8136 19.8047 78.2245C19.6224 79.1328 19.352 80.0213 18.9973 80.8772C18.9921 80.9027 18.9771 80.9253 18.9556 80.9401C18.9341 80.9548 18.9077 80.9607 18.882 80.9565H13.9082V75.6943H20.1002Z" fill="#71389A"/>
<path d="M12.5466 68.8535V74.2886H6.48438V73.8777C6.52042 73.5749 6.54204 73.2722 6.5925 72.9694C6.66458 72.5081 6.74388 72.0468 6.84479 71.5926C7.04486 70.6741 7.33707 69.7782 7.717 68.9183C7.72498 68.8968 7.74005 68.8787 7.7597 68.8669C7.77935 68.8551 7.80244 68.8504 7.82515 68.8535H12.5466Z" fill="#71389A"/>
<path d="M12.546 75.7658V80.9342H7.702C7.67837 80.9369 7.65457 80.9311 7.63479 80.9179C7.61501 80.9047 7.60052 80.885 7.59388 80.8621C7.22446 79.9799 6.94669 79.062 6.76492 78.123C6.67842 77.64 6.60632 77.157 6.54865 76.6813C6.5054 76.3641 6.49819 76.0397 6.47656 75.7226V75.6865H12.4668C12.546 75.6865 12.546 75.7081 12.546 75.7658Z" fill="#71389A"/>
<path d="M26.7186 74.2884H21.6295C21.5287 72.4134 21.1297 70.5665 20.4473 68.8173H25.1904C25.2133 68.8127 25.237 68.8168 25.257 68.8288C25.277 68.8408 25.2918 68.8598 25.2985 68.8821C25.8435 69.9574 26.2388 71.1021 26.4735 72.2845C26.5946 72.9156 26.6764 73.5535 26.7186 74.1947V74.2884Z" fill="#71389A"/>
<path d="M26.7254 75.6569C26.7254 75.7795 26.7254 75.8948 26.7254 76.0101C26.6955 76.4694 26.6401 76.9266 26.5596 77.3797C26.3715 78.4326 26.0569 79.4588 25.6225 80.4361C25.5577 80.5947 25.4784 80.746 25.4135 80.9046C25.4135 80.9046 25.3774 80.9551 25.3342 80.9551H20.6055L20.7785 80.4793C21.0516 79.6703 21.2613 78.8412 21.4056 77.9996C21.5136 77.3893 21.5858 76.7731 21.6219 76.1543C21.6219 76.0101 21.6219 75.8587 21.6219 75.7146C21.6219 75.5704 21.6219 75.6569 21.6723 75.6641H26.7182L26.7254 75.6569Z" fill="#71389A"/>
<path d="M24.418 67.433H19.8984C19.8758 67.4348 19.8533 67.4296 19.8339 67.4179C19.8145 67.4063 19.7992 67.3889 19.7902 67.3681C19.1981 66.1873 18.4567 65.0875 17.5845 64.0955C17.0676 63.5245 16.5007 63.001 15.8905 62.5313C15.5878 62.3006 15.2706 62.0843 14.9606 61.8537L14.9102 61.8176L14.9678 61.7744C14.97 61.7432 14.97 61.7119 14.9678 61.6807C16.8711 61.9018 18.7041 62.5316 20.3414 63.5269C21.9787 64.5222 23.3816 65.8595 24.4541 67.4474L24.418 67.433Z" fill="#71389A"/>
<path d="M11.6592 88.251C11.6165 88.2604 11.5722 88.2604 11.5295 88.251C11.0434 88.1884 10.5618 88.0944 10.0878 87.9699C9.19558 87.7442 8.33037 87.4227 7.50719 87.0112C6.56485 86.5434 5.68158 85.9651 4.87611 85.2884C4.29997 84.8095 3.76913 84.2787 3.29028 83.7025C2.93053 83.2688 2.6006 82.8112 2.30273 82.3329C2.30273 82.3329 2.30273 82.3329 2.30273 82.2969H6.51965C6.57731 82.2969 6.59894 82.2969 6.62777 82.369C7.05772 83.2404 7.56684 84.0704 8.14873 84.8486C8.68484 85.5587 9.2831 86.2197 9.93642 86.8237C10.4688 87.332 11.0426 87.795 11.652 88.2078L11.6592 88.251Z" fill="#71389A"/>
<path d="M11.6097 61.8324L10.9826 62.2937C10.2597 62.8569 9.58683 63.4816 8.97147 64.1607C8.14499 65.0691 7.43766 66.0792 6.86661 67.1666L6.75849 67.3756C6.74181 67.3963 6.71916 67.4114 6.69362 67.4189H2.45508C3.49442 65.8828 4.84534 64.5825 6.42007 63.6027C7.99479 62.6228 9.75807 61.9853 11.5953 61.7314V61.7819L11.6097 61.8324Z" fill="#71389A"/>
<path d="M18.3131 82.376C17.7419 83.3778 17.0522 84.3071 16.2587 85.144C15.5598 85.898 14.7733 86.5659 13.916 87.1335V82.376H18.3131Z" fill="#71389A"/>
<path d="M12.547 82.376V87.047C10.7948 85.8418 9.35039 84.2418 8.33008 82.376H12.547Z" fill="#71389A"/>
<path d="M18.1407 67.4114H13.9238V62.9639C14.7916 63.5263 15.588 64.1919 16.2954 64.9462C16.9948 65.7013 17.6133 66.5276 18.1407 67.4114Z" fill="#71389A"/>
<path d="M12.5472 63.1006V67.4256H8.49609C9.49306 65.6895 10.8799 64.2089 12.5472 63.1006Z" fill="#71389A"/>
<path d="M85.7044 21.1669C88.1175 14.2296 84.5352 6.67917 77.7031 4.30265C70.871 1.92614 63.3763 5.62344 60.9631 12.5608C58.55 19.4982 62.1323 27.0486 68.9644 29.4251C75.7965 31.8017 83.2912 28.1043 85.7044 21.1669Z" fill="#71389A"/>
<path d="M83.559 16.6863C83.5882 19.4243 82.5381 22.0637 80.6359 24.0333C78.7338 26.003 76.1325 27.1444 73.3951 27.2105C72.0474 27.2277 70.7096 26.9769 69.4597 26.4725C68.2097 25.9682 67.0724 25.2204 66.114 24.2727C65.1555 23.325 64.395 22.1962 63.8766 20.952C63.3582 19.7078 63.0923 18.373 63.0943 17.0251C63.0651 14.287 64.1152 11.6476 66.0174 9.678C67.9196 7.70838 70.5208 6.56699 73.2582 6.50083C74.606 6.48363 75.9437 6.7345 77.1937 7.23884C78.4436 7.74318 79.5809 8.49094 80.5393 9.43865C81.4978 10.3864 82.2583 11.5151 82.7767 12.7593C83.2951 14.0036 83.561 15.3384 83.559 16.6863Z" fill="white"/>
<path d="M80.7013 16.7356C80.7226 18.7098 79.9651 20.613 78.5928 22.0325C77.2206 23.4519 75.3442 24.2734 73.3703 24.3188C72.3988 24.3303 71.4347 24.1487 70.5339 23.7846C69.6331 23.4205 68.8136 22.8811 68.1229 22.1978C67.4322 21.5145 66.8841 20.7008 66.5104 19.804C66.1366 18.9072 65.9447 17.9451 65.9457 16.9735C65.9262 14.9998 66.6843 13.0977 68.0562 11.6787C69.4281 10.2596 71.3034 9.43751 73.2766 9.39025C74.2484 9.37782 75.213 9.55875 76.1142 9.9225C77.0154 10.2862 77.8353 10.8256 78.5262 11.5091C79.2171 12.1926 79.7652 13.0067 80.1386 13.9039C80.512 14.8012 80.7033 15.7637 80.7013 16.7356Z" fill="#71389A"/>
<path d="M77.818 16.7801C77.8297 17.9818 77.3684 19.14 76.5335 20.0045C75.6987 20.869 74.5574 21.3705 73.356 21.4007C72.7646 21.4083 72.1776 21.2983 71.6291 21.0771C71.0806 20.8558 70.5815 20.5277 70.161 20.1118C69.7404 19.696 69.4067 19.2007 69.1793 18.6547C68.9519 18.1087 68.8353 17.523 68.8363 16.9315C68.8208 15.7287 69.2809 14.5684 70.1165 13.7031C70.9522 12.8378 72.0957 12.3374 73.2983 12.3109C73.8897 12.3033 74.4767 12.4133 75.0252 12.6345C75.5737 12.8558 76.0728 13.1839 76.4933 13.5998C76.9139 14.0156 77.2476 14.511 77.475 15.0569C77.7024 15.6029 77.819 16.1887 77.818 16.7801Z" fill="white"/>
<path d="M75.323 16.8237C75.3289 17.3579 75.1242 17.873 74.7532 18.2574C74.3822 18.6419 73.8748 18.8649 73.3407 18.8781C73.077 18.8819 72.8152 18.8333 72.5705 18.735C72.3258 18.6367 72.1031 18.4908 71.9153 18.3057C71.7275 18.1205 71.5783 17.8999 71.4765 17.6567C71.3747 17.4134 71.3224 17.1523 71.3224 16.8886C71.3166 16.3531 71.5223 15.837 71.8948 15.4524C72.2673 15.0677 72.7765 14.8456 73.3119 14.8342C73.5752 14.8304 73.8367 14.879 74.081 14.9774C74.3254 15.0758 74.5476 15.2218 74.7348 15.407C74.9221 15.5923 75.0705 15.8129 75.1715 16.0562C75.2725 16.2994 75.324 16.5603 75.323 16.8237Z" fill="#71389A"/>
<path d="M73.2203 16.896L59.4883 9.68035L59.5892 9.47852L73.3284 16.7013L73.2203 16.896Z" fill="#263238"/>
<path d="M58.6741 10.0257L58.7246 10.0041L59.6112 9.73735L57.874 8.8291L56.9297 9.11743L58.6741 10.0257Z" fill="#263238"/>
<path d="M57.6641 7.71973L57.974 8.6352L59.7112 9.53624C59.5737 9.24627 59.4697 8.94155 59.4013 8.62799L57.6641 7.71973Z" fill="#263238"/>
<path d="M73.7463 16.6293L73.3858 17.2853L72.4199 17.1988L73.0543 16.6798L73.1191 15.8652L73.7463 16.6293Z" fill="#263238"/>
<path d="M105.031 28.2773H102.465V44.7701H105.031V28.2773Z" fill="#71389A"/>
<path d="M109.441 31.0234H106.875V44.7771H109.441V31.0234Z" fill="#71389A"/>
<path d="M113.845 36.0195H111.279V44.7705H113.845V36.0195Z" fill="#71389A"/>
<path d="M118.258 30.7783H115.691V44.7698H118.258V30.7783Z" fill="#71389A"/>
<path d="M122.662 33.0781H120.096V44.7701H122.662V33.0781Z" fill="#71389A"/>
<path d="M127.074 25.9775H124.508V44.7698H127.074V25.9775Z" fill="#71389A"/>
<path d="M100.979 24.8389V29.8199V34.8009V44.7701L100.914 44.6908C107.143 44.6908 113.371 44.6908 119.606 44.6908H124.803L129.409 44.7412L124.803 44.7917H119.606C113.371 44.7917 107.143 44.835 100.914 44.7917H100.85V44.7124V34.7432V29.7622L100.979 24.8389Z" fill="#263238"/>
<path d="M100.41 25.978C100.594 25.9177 100.786 25.8885 100.98 25.8915C101.171 25.8849 101.362 25.9143 101.542 25.978C101.362 26.0441 101.171 26.0759 100.98 26.0717C100.786 26.0759 100.593 26.0442 100.41 25.978Z" fill="#263238"/>
<path d="M100.41 27.9599C100.593 27.8973 100.786 27.8656 100.98 27.8662C101.171 27.8656 101.361 27.8973 101.542 27.9599C101.361 28.0226 101.171 28.0542 100.98 28.0536C100.786 28.0542 100.593 28.0226 100.41 27.9599Z" fill="#263238"/>
<path d="M100.41 29.9351C100.593 29.8712 100.786 29.8419 100.98 29.8486C101.171 29.842 101.362 29.8713 101.542 29.9351C101.362 30.0011 101.171 30.0329 100.98 30.0288C100.786 30.033 100.593 30.0012 100.41 29.9351Z" fill="#263238"/>
<path d="M100.41 31.9183C100.593 31.8557 100.786 31.824 100.98 31.8246C101.171 31.8204 101.362 31.8522 101.542 31.9183C101.361 31.9809 101.171 32.0126 100.98 32.012C100.786 32.0126 100.593 31.9809 100.41 31.9183Z" fill="#263238"/>
<path d="M100.41 33.8935C100.593 33.8309 100.786 33.7992 100.98 33.7998C101.171 33.7992 101.361 33.8309 101.542 33.8935C101.362 33.9596 101.171 33.9914 100.98 33.9872C100.786 33.9878 100.593 33.9562 100.41 33.8935Z" fill="#263238"/>
<path d="M100.41 35.8744C100.593 35.8082 100.786 35.7765 100.98 35.7806C101.171 35.7765 101.362 35.8083 101.542 35.8744C101.362 35.9381 101.171 35.9675 100.98 35.9608C100.786 35.9675 100.593 35.9382 100.41 35.8744Z" fill="#263238"/>
<path d="M100.41 37.8496C100.593 37.7869 100.786 37.7553 100.98 37.7559C101.171 37.7553 101.361 37.7869 101.542 37.8496C101.361 37.9122 101.171 37.9439 100.98 37.9433C100.786 37.9439 100.593 37.9122 100.41 37.8496Z" fill="#263238"/>
<path d="M100.41 39.847C100.593 39.7809 100.786 39.7491 100.98 39.7533C101.171 39.7492 101.362 39.781 101.542 39.847C101.362 39.9108 101.171 39.9401 100.98 39.9335C100.786 39.9366 100.594 39.9073 100.41 39.847Z" fill="#263238"/>
<path d="M100.41 41.8076C100.593 41.745 100.786 41.7133 100.98 41.7139C101.171 41.7133 101.361 41.745 101.542 41.8076C101.361 41.8702 101.171 41.9019 100.98 41.9013C100.786 41.9019 100.593 41.8702 100.41 41.8076Z" fill="#263238"/>
<path d="M36.334 98.2351C36.2259 98.0188 36.125 97.7954 36.0312 97.5791L36.3556 97.4277L36.6584 98.0837L36.334 98.2351Z" fill="#71389A"/>
<path d="M35.4701 96.2233C35.2899 95.7692 35.1097 95.315 34.9439 94.8537L35.2827 94.7312C35.4485 95.1853 35.6215 95.6394 35.8017 96.0863L35.4701 96.2233ZM34.4609 93.4697C34.3095 93.0084 34.1654 92.5398 34.0284 92.0712L34.3744 91.9703C34.5114 92.4389 34.6556 92.9002 34.8069 93.3615L34.4609 93.4697ZM33.6464 90.6584C33.531 90.1899 33.4157 89.7141 33.3148 89.2167L33.668 89.1446C33.7689 89.6204 33.8771 90.0889 33.9996 90.5863L33.6464 90.6584ZM33.0265 87.7751C32.94 87.2921 32.8607 86.8163 32.7958 86.3334L33.149 86.2829C33.2211 86.7659 33.3004 87.2416 33.3797 87.7246L33.0265 87.7751ZM32.6084 84.8917C32.5507 84.4087 32.5075 83.9186 32.4714 83.45H32.8318C32.8679 83.933 32.9111 84.4159 32.9688 84.8917H32.6084ZM32.3849 81.9723C32.3849 81.4821 32.3849 80.9992 32.3849 80.5306H32.7453C32.7453 81.0208 32.7453 81.5037 32.7453 81.9723H32.3849ZM32.7237 79.0889H32.3633C32.3633 78.606 32.3993 78.1158 32.4282 77.6473H32.7886C32.7309 78.087 32.7309 78.5699 32.7309 79.0601L32.7237 79.0889ZM32.9039 76.2056H32.5435C32.5867 75.7154 32.6444 75.2324 32.7021 74.7639L33.0625 74.8071C32.9976 75.1676 32.9472 75.6794 32.9039 76.1623V76.2056ZM33.2715 73.3222L32.9183 73.2646C32.9976 72.7816 33.0841 72.2986 33.1778 71.8229L33.531 71.895C33.4397 72.3419 33.3532 72.8032 33.2715 73.279V73.3222ZM33.841 70.4749L33.495 70.3884C33.6031 69.9126 33.7257 69.4441 33.8554 68.9467L34.2014 69.0404C34.0717 69.4874 33.9563 69.9631 33.841 70.4316V70.4749ZM34.6051 67.6708L34.2663 67.5699C34.4105 67.1014 34.5618 66.6328 34.7276 66.1715L35.0664 66.2868C34.8934 66.7049 34.7565 67.1662 34.6051 67.6276V67.6708ZM35.571 64.9244L35.2322 64.7947C35.4124 64.3334 35.5998 63.8864 35.7873 63.4323L36.1189 63.5765C35.9315 63.9801 35.744 64.4271 35.571 64.8812V64.9244ZM36.7172 62.2501L36.3928 62.0987C36.6042 61.6518 36.8205 61.2121 37.0415 60.7796L37.3587 60.9454C37.1425 61.3347 36.9262 61.7672 36.7172 62.1925V62.2501ZM38.0507 59.6623L37.7335 59.4821C37.9714 59.0568 38.2165 58.6387 38.4544 58.2206L38.7643 58.4009C38.4976 58.7757 38.2886 59.1938 38.0507 59.6191V59.6623ZM39.55 57.1754L39.2473 56.9736C39.5212 56.5651 39.7951 56.1614 40.0691 55.7626L40.3646 55.9716C40.0907 56.3248 39.8168 56.7213 39.55 57.1466V57.1754ZM41.2224 54.7967L40.9341 54.5804C41.2296 54.1839 41.5324 53.8019 41.8423 53.4198L42.1235 53.6505C41.8135 53.9821 41.5179 54.3641 41.2224 54.7534V54.7967ZM43.0533 52.5332L42.7794 52.3025C43.1038 51.9349 43.4282 51.5817 43.7597 51.2141L44.0265 51.452C43.7045 51.7835 43.3801 52.1295 43.0533 52.49V52.5332ZM106.091 51.6682C105.759 51.3078 105.428 50.9474 105.089 50.6086L105.348 50.3563C105.687 50.7095 106.026 51.0771 106.357 51.4231L106.091 51.6682ZM45.0356 50.4067L44.7761 50.1544C45.1221 49.8084 45.497 49.4336 45.8286 49.1381L46.0737 49.3976C45.706 49.6859 45.3744 50.0247 45.0356 50.3635V50.4067ZM104.051 49.5922C103.705 49.2606 103.33 48.929 102.984 48.6119L103.222 48.3379C103.587 48.6599 103.947 48.9915 104.303 49.3327L104.051 49.5922ZM47.1477 48.3812L46.9098 48.1073C47.2775 47.7901 47.6307 47.4729 48.0343 47.163L48.2578 47.4441L47.1477 48.3812ZM101.881 47.6243C101.506 47.3143 101.16 47.0116 100.749 46.716L100.966 46.4277C101.355 46.7305 101.737 47.0332 102.112 47.3432L101.881 47.6243ZM49.3967 46.543L49.1805 46.2619C49.5697 45.9664 49.959 45.678 50.3626 45.3897L50.5717 45.6852C50.1752 45.9664 49.786 46.2547 49.3967 46.543ZM99.5815 45.8222C99.1851 45.5339 98.7886 45.2599 98.3849 44.9932L98.5868 44.6905C98.9904 44.9644 99.3941 45.2383 99.7906 45.5267L99.5815 45.8222ZM51.7683 44.8923L51.5664 44.5896L52.8063 43.8039L52.9937 44.1138C52.5828 44.3445 52.1936 44.604 51.7683 44.8923ZM97.1812 44.258C96.7703 43.9985 96.3594 43.7534 95.9341 43.5371L96.1143 43.22C96.5396 43.4651 96.9577 43.7173 97.3758 43.9408L97.1812 44.258ZM54.2624 43.3786L54.0894 43.0686C54.5075 42.8307 54.94 42.5928 55.3725 42.3478L55.5383 42.6721C55.0769 42.8956 54.6588 43.119 54.2408 43.3569L54.2624 43.3786ZM94.6654 42.8163C94.2329 42.5856 93.8004 42.3694 93.3607 42.1603L93.5193 41.836C93.959 42.045 94.3987 42.2685 94.8312 42.4919L94.6654 42.8163ZM56.8142 42.009L56.6556 41.6846C57.0953 41.4755 57.5422 41.2737 57.9891 41.0791L58.1333 41.4107C57.6864 41.6125 57.2395 41.8143 56.8142 42.009ZM92.0272 41.5116C91.5802 41.3146 91.1333 41.1271 90.6864 40.9493L90.8161 40.6105C91.2703 40.7907 91.7244 40.9854 92.1713 41.18L92.0272 41.5116ZM59.4668 40.8556L59.3371 40.5168L60.7067 40.005L60.8292 40.3438C60.3751 40.524 59.921 40.6898 59.4668 40.87V40.8556ZM89.324 40.4303C88.8699 40.2645 88.4157 40.1059 87.9472 39.9618L88.0625 39.6158C88.5431 39.7647 89.0044 39.9233 89.4465 40.0915L89.324 40.4303ZM62.206 39.8825L62.0979 39.5365C62.5785 39.3923 63.047 39.2554 63.5035 39.1256L63.5973 39.4716C63.1287 39.6158 62.6674 39.7527 62.206 39.8969V39.8825ZM86.556 39.5365C86.0947 39.4067 85.6261 39.277 85.1576 39.1616L85.2368 38.8084C85.7126 38.931 86.1883 39.0535 86.6785 39.1905L86.556 39.5365ZM65.0029 39.104L64.9164 38.7508L66.3581 38.4336L66.4301 38.7868C65.9472 38.9021 65.4714 39.0031 65.0029 39.1256V39.104ZM83.7447 38.8373C83.2689 38.7364 82.7932 38.6426 82.303 38.5633L82.3607 38.2029C82.8437 38.2894 83.3266 38.3831 83.8024 38.4841L83.7447 38.8373ZM67.8862 38.5201L67.8214 38.1669C68.3043 38.0804 68.7873 38.0083 69.263 37.9434L69.3135 38.3038C68.7729 38.4048 68.326 38.4552 67.8502 38.5345L67.8862 38.5201ZM80.9046 38.3327C80.4288 38.2678 79.9459 38.2101 79.4629 38.1597L79.499 37.7993C79.9891 37.8497 80.4721 37.9074 80.9406 37.9795L80.9046 38.3327ZM70.7624 38.1308V37.7776C71.2454 37.7272 71.7355 37.6839 72.2041 37.6551V38.0155C71.6923 38.0588 71.2093 38.102 70.7263 38.1453L70.7624 38.1308ZM78.014 38.0299C77.5383 37.9939 77.0481 37.9723 76.5724 37.9506V37.5902C77.0625 37.5902 77.5455 37.6335 78.014 37.6695V38.0299ZM73.689 37.9434V37.583H75.037H75.1595V37.9434H75.037C74.5396 37.9362 74.0711 37.9434 73.6241 37.9578L73.689 37.9434Z" fill="#71389A"/>
<path d="M107.539 53.2838L107.07 52.7359L107.344 52.498C107.503 52.6783 107.661 52.8657 107.813 53.0531L107.539 53.2838Z" fill="#71389A"/>
<path d="M32.5275 76.7618H31.0859V76.4014H32.5275V76.7618ZM29.6442 76.7618H28.498V76.4014H29.6442V76.7618Z" fill="#71389A"/>
<path d="M44.9347 50.212L43.9111 49.2172L44.1706 48.9649L45.187 49.9813L44.9347 50.212ZM42.8947 48.1792L41.8711 47.1556L42.1306 46.9033L43.147 47.9197L42.8947 48.1792Z" fill="#71389A"/>
<path d="M104.988 50.212L104.729 49.9597L105.752 48.9433L106.004 49.1956L104.988 50.212ZM107.028 48.1792L106.768 47.9197L107.792 46.9033L108.044 47.1556L107.028 48.1792Z" fill="#71389A"/>
<path d="M75.1378 37.7567H74.7773V36.315H75.1378V37.7567ZM75.1378 34.8733H74.7773V33.4316H75.1378V34.8733Z" fill="#71389A"/>
</svg>
