<svg width="432" height="416" viewBox="0 0 432 416" fill="none" xmlns="http://www.w3.org/2000/svg">
<path d="M183.216 1.39844H414.702C423.563 1.39844 430.746 8.58171 430.746 17.4428V159.173C430.746 168.034 423.563 175.217 414.702 175.217H183.216C174.355 175.217 167.171 168.034 167.171 159.173V17.4428C167.171 8.58171 174.355 1.39844 183.216 1.39844Z" fill="white"/>
<path d="M183.188 175.244C183.188 175.244 182.453 175.244 181.009 174.999C178.9 174.705 176.877 173.972 175.07 172.847C172.109 171.039 169.808 168.327 168.506 165.111C166.844 161.297 167.552 156.421 167.416 151.082C167.416 129.617 167.552 98.5906 167.661 60.2911C167.661 50.7026 167.661 40.6782 167.661 30.327C167.661 27.603 167.661 25.0697 167.661 22.4002C167.537 19.7443 167.646 17.0827 167.988 14.446C168.533 11.822 169.751 9.38484 171.523 7.37416C173.295 5.36347 175.559 3.84846 178.094 2.97799C180.74 2.18138 183.512 1.88573 186.266 2.10629H249.79H414.674C418.184 2.10818 421.588 3.312 424.318 5.51745C427.049 7.7229 428.942 10.797 429.683 14.2281C429.982 15.9546 430.1 17.7073 430.037 19.4582V77.643C430.037 105.21 430.037 131.823 430.037 157.157C430.281 160.218 429.718 163.289 428.403 166.064C427.065 168.748 424.973 170.982 422.383 172.493C419.816 173.983 416.877 174.711 413.911 174.59H369.891H307.239L216.448 174.808L191.769 174.944H216.448L307.239 175.162H369.891H413.966C417.158 175.27 420.318 174.487 423.091 172.901C425.899 171.259 428.17 168.836 429.629 165.928C431.021 162.972 431.631 159.708 431.399 156.448C431.399 131.115 431.399 104.502 431.399 76.9347C431.399 63.1149 431.399 49.0863 431.399 34.8489V18.75C431.467 16.9256 431.339 15.0992 431.018 13.302C430.206 9.56519 428.144 6.21694 425.173 3.81004C422.201 1.40315 418.498 0.0814758 414.674 0.0632896H249.79H212.771H186.266C183.363 -0.149087 180.445 0.1741 177.658 1.01671C174.923 1.95229 172.48 3.58519 170.569 5.75404C168.658 7.92289 167.346 10.5527 166.762 13.3837C166.412 16.0927 166.303 18.8274 166.435 21.5557V29.4826C166.435 39.9428 166.435 49.9671 166.435 59.4466C166.435 97.7461 166.599 128.773 166.653 150.238C166.653 152.962 166.653 155.441 166.653 157.838C166.621 160.095 167.038 162.335 167.879 164.43C169.24 167.706 171.631 170.45 174.689 172.248C176.539 173.367 178.613 174.064 180.764 174.291C181.538 174.688 182.35 175.008 183.188 175.244Z" fill="#BA98D3"/>
<path d="M302.497 102.35H312.604V142.61H302.497V102.35Z" fill="url(#paint0_linear_236_18039)"/>
<path d="M386.97 96.5195H397.076V142.61H386.97V96.5195Z" fill="url(#paint1_linear_236_18039)"/>
<path d="M365.861 86.9062H375.967V142.585H365.861V86.9062Z" fill="url(#paint2_linear_236_18039)"/>
<path d="M344.751 89.9551H354.857V142.583H344.751V89.9551Z" fill="url(#paint3_linear_236_18039)"/>
<path d="M323.613 72.1406H333.719V142.583H323.613V72.1406Z" fill="url(#paint4_linear_236_18039)"/>
<path d="M281.39 72.4941H291.496V142.583H281.39V72.4941Z" fill="url(#paint5_linear_236_18039)"/>
<path d="M260.253 95.5137H270.359V142.584H260.253V95.5137Z" fill="url(#paint6_linear_236_18039)"/>
<path d="M239.138 75.5723H249.244V142.583H239.138V75.5723Z" fill="url(#paint7_linear_236_18039)"/>
<path d="M218.027 60.4805H228.133V142.582H218.027V60.4805Z" fill="url(#paint8_linear_236_18039)"/>
<path d="M196.888 75.2441H206.994V142.609H196.888V75.2441Z" fill="url(#paint9_linear_236_18039)"/>
<path d="M396.23 25.341C396.23 26.6016 396.604 27.8341 397.304 28.8823C398.005 29.9305 399 30.7475 400.165 31.23C401.33 31.7124 402.611 31.8386 403.848 31.5927C405.084 31.3467 406.22 30.7396 407.112 29.8482C408.003 28.9567 408.61 27.821 408.856 26.5845C409.102 25.348 408.976 24.0664 408.493 22.9017C408.011 21.7369 407.194 20.7415 406.146 20.0411C405.097 19.3407 403.865 18.9668 402.604 18.9668C400.914 18.9668 399.293 19.6383 398.097 20.8337C396.902 22.0291 396.23 23.6504 396.23 25.341Z" fill="#FF5F57"/>
<path d="M379.67 25.341C379.67 26.6029 380.044 27.8364 380.746 28.8852C381.447 29.934 382.444 30.751 383.611 31.2326C384.777 31.7142 386.06 31.8388 387.297 31.5906C388.535 31.3425 389.67 30.7327 390.561 29.8385C391.451 28.9443 392.056 27.806 392.299 26.5678C392.542 25.3295 392.412 24.0471 391.925 22.8829C391.438 21.7186 390.617 20.725 389.565 20.0278C388.513 19.3307 387.278 18.9615 386.016 18.9669C385.181 18.9668 384.353 19.1319 383.581 19.4526C382.81 19.7732 382.109 20.2432 381.519 20.8355C380.929 21.4277 380.462 22.1306 380.145 22.9038C379.828 23.677 379.666 24.5052 379.67 25.341Z" fill="#FEBC2E"/>
<path d="M363.324 25.341C363.324 26.6016 363.698 27.8341 364.398 28.8823C365.099 29.9305 366.094 30.7475 367.259 31.23C368.424 31.7124 369.705 31.8386 370.942 31.5927C372.178 31.3467 373.314 30.7396 374.205 29.8482C375.097 28.9567 375.704 27.821 375.95 26.5845C376.196 25.348 376.07 24.0664 375.587 22.9017C375.105 21.7369 374.288 20.7415 373.239 20.0411C372.191 19.3407 370.959 18.9668 369.698 18.9668C368.008 18.9668 366.386 19.6383 365.191 20.8337C363.995 22.0291 363.324 23.6504 363.324 25.341Z" fill="#28C840"/>
<path d="M12.0427 127.199H326.244C329.707 127.199 333.027 128.575 335.476 131.023C337.924 133.471 339.3 136.792 339.3 140.254V396.274C339.3 401.247 337.324 406.015 333.808 409.531C330.292 413.047 325.524 415.023 320.551 415.023H19.0918C14.1195 415.023 9.35089 413.047 5.83494 409.531C2.31899 406.015 0.34375 401.247 0.34375 396.274V138.898C0.34375 135.795 1.57631 132.82 3.77028 130.626C5.96426 128.432 8.93991 127.199 12.0427 127.199Z" fill="white"/>
<path d="M9.56876 127.199H328.241C331.048 127.199 333.739 128.314 335.723 130.298C337.708 132.283 338.823 134.974 338.823 137.78V161.849H0.34375V136.424C0.34375 133.978 1.31566 131.631 3.04568 129.901C4.77571 128.171 7.12214 127.199 9.56876 127.199Z" fill="#E0E0E0"/>
<path d="M338.818 161.856C338.818 162.065 263.155 162.244 169.832 162.244C76.5092 162.244 0.816406 162.065 0.816406 161.856C0.816406 161.648 76.4645 161.469 169.832 161.469C263.2 161.469 338.818 161.633 338.818 161.856Z" fill="#263238"/>
<path d="M18.8361 145.28C18.8361 145.914 18.6481 146.534 18.2961 147.061C17.944 147.587 17.4436 147.998 16.8581 148.241C16.2726 148.483 15.6284 148.547 15.0068 148.423C14.3853 148.299 13.8143 147.994 13.3662 147.546C12.9181 147.098 12.6129 146.527 12.4893 145.905C12.3657 145.284 12.4291 144.64 12.6716 144.054C12.9142 143.469 13.3248 142.968 13.8518 142.616C14.3787 142.264 14.9982 142.076 15.6319 142.076C16.0532 142.074 16.4708 142.156 16.8604 142.316C17.2501 142.476 17.6041 142.712 17.902 143.01C18.1999 143.308 18.4359 143.662 18.5962 144.052C18.7565 144.441 18.838 144.859 18.8361 145.28Z" fill="#FF5F57"/>
<path d="M29.0275 145.28C29.0275 145.915 28.8392 146.535 28.4864 147.062C28.1337 147.589 27.6324 148 27.046 148.242C26.4597 148.484 25.8147 148.547 25.1927 148.422C24.5708 148.297 23.9998 147.99 23.5523 147.541C23.1048 147.091 22.8008 146.519 22.6789 145.896C22.557 145.274 22.6225 144.629 22.8673 144.044C23.1122 143.459 23.5252 142.959 24.054 142.609C24.5829 142.259 25.2039 142.073 25.8382 142.076C26.2583 142.076 26.6742 142.159 27.0621 142.32C27.4501 142.482 27.8023 142.718 28.0986 143.016C28.395 143.313 28.6296 143.667 28.789 144.055C28.9484 144.444 29.0294 144.86 29.0275 145.28Z" fill="#FEBC2E"/>
<path d="M39.4298 145.28C39.4298 145.914 39.2419 146.534 38.8898 147.061C38.5377 147.587 38.0373 147.998 37.4518 148.241C36.8663 148.483 36.2221 148.547 35.6005 148.423C34.979 148.299 34.4081 147.994 33.96 147.546C33.5119 147.098 33.2067 146.527 33.0831 145.905C32.9594 145.284 33.0229 144.64 33.2654 144.054C33.5079 143.469 33.9186 142.968 34.4455 142.616C34.9724 142.264 35.5919 142.076 36.2256 142.076C36.647 142.074 37.0645 142.156 37.4541 142.316C37.8438 142.476 38.1978 142.712 38.4957 143.01C38.7936 143.308 39.0296 143.662 39.1899 144.052C39.3502 144.441 39.4318 144.859 39.4298 145.28Z" fill="#28C840"/>
<path d="M226.002 187.634C226.002 187.842 201.561 188.021 171.412 188.021C141.263 188.021 116.822 187.842 116.822 187.634C116.822 187.425 141.263 187.246 171.412 187.246C201.561 187.246 226.002 187.47 226.002 187.634Z" fill="#263238"/>
<path d="M175.408 210.706C175.408 210.929 146.153 211.093 110.088 211.093C74.0223 211.093 44.7676 210.929 44.7676 210.706C44.7676 210.482 74.0074 210.318 110.088 210.318C146.168 210.318 175.408 210.497 175.408 210.706Z" fill="#263238"/>
<path d="M175.408 223.059C175.408 223.283 146.153 223.447 110.088 223.447C74.0223 223.447 44.7676 223.283 44.7676 223.059C44.7676 222.836 74.0074 222.672 110.088 222.672C146.168 222.672 175.408 222.851 175.408 223.059Z" fill="#263238"/>
<path d="M175.408 235.413C175.408 235.636 146.153 235.815 110.088 235.815C74.0223 235.815 44.7676 235.636 44.7676 235.413C44.7676 235.189 74.0074 235.025 110.088 235.025C146.168 235.025 175.408 235.204 175.408 235.413Z" fill="#263238"/>
<path d="M175.408 247.783C175.408 247.992 146.153 248.171 110.088 248.171C74.0223 248.171 44.7676 247.992 44.7676 247.783C44.7676 247.575 74.0074 247.381 110.088 247.381C146.168 247.381 175.408 247.56 175.408 247.783Z" fill="#263238"/>
<path d="M175.408 260.135C175.408 260.343 146.153 260.522 110.088 260.522C74.0223 260.522 44.7676 260.343 44.7676 260.135C44.7676 259.926 74.0074 259.732 110.088 259.732C146.168 259.732 175.408 259.911 175.408 260.135Z" fill="#263238"/>
<path d="M175.408 294.456C175.408 294.679 146.153 294.843 110.088 294.843C74.0223 294.843 44.7676 294.679 44.7676 294.456C44.7676 294.232 74.0074 294.068 110.088 294.068C146.168 294.068 175.408 294.247 175.408 294.456Z" fill="#263238"/>
<path d="M175.408 282.011C175.408 282.234 146.153 282.398 110.088 282.398C74.0223 282.398 44.7676 282.234 44.7676 282.011C44.7676 281.787 74.0074 281.623 110.088 281.623C146.168 281.623 175.408 281.802 175.408 282.011Z" fill="#263238"/>
<path d="M258.985 208.184C252.004 208.181 245.179 210.248 239.373 214.125C233.567 218.002 229.042 223.513 226.369 229.962C223.696 236.411 222.996 243.508 224.357 250.355C225.718 257.202 229.08 263.492 234.016 268.428C238.952 273.365 245.242 276.726 252.089 278.087C258.936 279.448 266.033 278.748 272.482 276.075C278.931 273.403 284.443 268.877 288.319 263.071C292.196 257.265 294.264 250.44 294.261 243.459C294.257 234.105 290.539 225.135 283.924 218.52C277.31 211.905 268.34 208.188 258.985 208.184ZM259.522 264.607C255.232 264.61 251.038 263.34 247.471 260.959C243.903 258.579 241.121 255.193 239.478 251.231C237.834 247.269 237.403 242.909 238.238 238.701C239.073 234.494 241.137 230.629 244.169 227.595C247.2 224.561 251.064 222.494 255.271 221.656C259.478 220.819 263.838 221.247 267.801 222.888C271.764 224.529 275.152 227.308 277.535 230.874C279.919 234.44 281.191 238.633 281.191 242.923C281.193 245.768 280.634 248.586 279.547 251.216C278.46 253.846 276.865 256.236 274.855 258.249C272.844 260.263 270.456 261.861 267.828 262.952C265.199 264.042 262.382 264.605 259.537 264.607H259.522Z" fill="url(#paint10_linear_236_18039)"/>
<path d="M237.836 242.927C237.836 238.74 239.05 234.642 241.329 231.13C243.609 227.618 246.858 224.841 250.683 223.136L245.258 210.945C238.879 213.658 233.44 218.187 229.618 223.97C225.797 229.753 223.762 236.532 223.768 243.464C223.768 243.951 223.768 244.447 223.768 244.954H237.97C237.881 244.269 237.836 243.613 237.836 242.927Z" fill="#E0E0E0"/>
<path d="M288.179 287.647C288.179 287.826 275.109 287.975 258.984 287.975C242.859 287.975 229.789 287.826 229.789 287.647C229.789 287.469 242.859 287.305 258.984 287.305C275.109 287.305 288.179 287.484 288.179 287.647Z" fill="#263238"/>
<path d="M275.168 293.013C275.168 293.192 267.925 293.341 258.983 293.341C250.041 293.341 242.783 293.192 242.783 293.013C242.783 292.834 250.041 292.67 258.983 292.67C267.925 292.67 275.168 292.819 275.168 293.013Z" fill="#263238"/>
<path d="M256.435 238.305V239.795L253.574 246.486H251.07L253.812 240.182H251.666V241.434H249.699V238.305H256.435Z" fill="#263238"/>
<path d="M263.363 243.875C263.363 245.366 262.275 246.647 259.816 246.647C258.716 246.671 257.63 246.399 256.672 245.858L257.492 244.114C258.159 244.557 258.941 244.795 259.742 244.799C260.532 244.799 261.053 244.487 261.053 243.935C261.053 243.384 260.711 243.115 259.474 243.115H257.268L257.67 238.361H262.842V240.135H259.533L259.429 241.327H259.965C262.424 241.282 263.363 242.43 263.363 243.875Z" fill="#263238"/>
<path d="M263.767 240.507C263.798 240.103 263.948 239.716 264.196 239.395C264.445 239.074 264.781 238.832 265.165 238.699C265.549 238.567 265.963 238.549 266.357 238.648C266.75 238.748 267.107 238.96 267.382 239.258C267.657 239.557 267.838 239.929 267.905 240.33C267.971 240.731 267.919 241.142 267.756 241.513C267.592 241.885 267.323 242.2 266.982 242.421C266.642 242.643 266.244 242.759 265.838 242.758C265.549 242.763 265.262 242.708 264.996 242.594C264.73 242.481 264.491 242.312 264.295 242.099C264.1 241.886 263.951 241.635 263.86 241.36C263.769 241.086 263.737 240.795 263.767 240.507ZM270.652 238.361H272.321L266.762 246.484H265.093L270.652 238.361ZM266.524 240.507C266.524 239.688 266.241 239.36 265.838 239.36C265.436 239.36 265.153 239.688 265.153 240.507C265.153 241.327 265.466 241.655 265.838 241.655C266.211 241.655 266.524 241.282 266.524 240.507ZM269.504 244.337C269.536 243.933 269.686 243.546 269.934 243.225C270.182 242.904 270.519 242.662 270.903 242.529C271.287 242.397 271.701 242.379 272.094 242.478C272.488 242.578 272.844 242.79 273.119 243.088C273.394 243.387 273.576 243.76 273.643 244.16C273.709 244.561 273.657 244.972 273.493 245.343C273.329 245.715 273.061 246.031 272.72 246.252C272.38 246.473 271.982 246.589 271.576 246.588C271.287 246.594 271 246.538 270.734 246.424C270.468 246.311 270.229 246.142 270.033 245.929C269.837 245.717 269.689 245.465 269.598 245.19C269.506 244.916 269.475 244.625 269.504 244.337ZM272.261 244.337C272.261 243.518 271.963 243.19 271.576 243.19C271.188 243.19 270.89 243.518 270.89 244.337C270.89 245.157 271.188 245.485 271.576 245.485C271.963 245.485 272.261 245.172 272.261 244.337Z" fill="#263238"/>
<path d="M68.8967 365.918H58.8223V389.122H68.8967V365.918Z" fill="#EBEBEB"/>
<path d="M103.067 365.918H92.9922V389.122H103.067V365.918Z" fill="#EBEBEB"/>
<path d="M85.9866 344.787H75.9121V389.124H85.9866V344.787Z" fill="#F5F5F5"/>
<path d="M120.162 344.787H110.088V389.124H120.162V344.787Z" fill="#F5F5F5"/>
<path d="M137.244 346.059H127.17V389.129H137.244V346.059Z" fill="#EBEBEB"/>
<path d="M171.41 346.059H161.336V389.129H171.41V346.059Z" fill="#EBEBEB"/>
<path d="M205.588 346.059H195.514V389.129H205.588V346.059Z" fill="#EBEBEB"/>
<path d="M154.338 323.461H144.264V389.139H154.338V323.461Z" fill="#F5F5F5"/>
<path d="M188.504 329.881H178.43V389.121H188.504V329.881Z" fill="#F5F5F5"/>
<path d="M256.061 346.059H245.986V389.129H256.061V346.059Z" fill="#EBEBEB"/>
<path d="M238.981 354.322H228.906V389.121H238.981V354.322Z" fill="#F5F5F5"/>
<path d="M291.797 323.068H281.723V389.119H291.797V323.068Z" fill="#EBEBEB"/>
<path d="M274.719 354.322H264.645V389.121H274.719V354.322Z" fill="#F5F5F5"/>
<path d="M308.905 354.322H298.83V389.121H308.905V354.322Z" fill="#F5F5F5"/>
<path d="M222.678 338.955H212.604V389.119H222.678V338.955Z" fill="#EBEBEB"/>
<path d="M148.464 326.048C149.896 326.048 151.057 324.887 151.057 323.454C151.057 322.022 149.896 320.861 148.464 320.861C147.032 320.861 145.871 322.022 145.871 323.454C145.871 324.887 147.032 326.048 148.464 326.048Z" fill="#71389A"/>
<path d="M148.459 328.155C147.527 328.155 146.616 327.878 145.841 327.36C145.067 326.842 144.463 326.106 144.107 325.244C143.751 324.383 143.659 323.435 143.842 322.521C144.025 321.608 144.475 320.768 145.135 320.11C145.795 319.452 146.635 319.005 147.55 318.825C148.464 318.645 149.412 318.74 150.272 319.099C151.132 319.458 151.867 320.064 152.382 320.84C152.898 321.617 153.172 322.529 153.169 323.461C153.165 324.707 152.667 325.901 151.784 326.781C150.901 327.661 149.706 328.155 148.459 328.155ZM148.459 319.124C147.601 319.121 146.761 319.373 146.046 319.847C145.331 320.322 144.773 320.998 144.442 321.791C144.112 322.583 144.024 323.455 144.189 324.297C144.355 325.14 144.767 325.914 145.373 326.522C145.978 327.13 146.751 327.544 147.593 327.713C148.435 327.881 149.307 327.796 150.101 327.469C150.894 327.141 151.572 326.585 152.049 325.872C152.527 325.158 152.781 324.319 152.781 323.461C152.781 322.313 152.326 321.212 151.516 320.399C150.706 319.586 149.607 319.128 148.459 319.124Z" fill="#71389A"/>
<path d="M150.536 316.848L150.401 311.751L151.668 311.781L149.299 308.875L146.914 311.796L148.226 311.811L148.36 316.848H150.536Z" fill="#EBEBEB"/>
<path d="M66.7136 355.31C66.7136 355.823 66.5615 356.324 66.2766 356.751C65.9917 357.177 65.5867 357.509 65.1128 357.706C64.639 357.902 64.1176 357.953 63.6146 357.853C63.1116 357.753 62.6495 357.506 62.2869 357.144C61.9242 356.781 61.6772 356.319 61.5772 355.816C61.4771 355.313 61.5285 354.791 61.7247 354.318C61.921 353.844 62.2534 353.439 62.6798 353.154C63.1063 352.869 63.6076 352.717 64.1205 352.717C64.8082 352.717 65.4678 352.99 65.9541 353.476C66.4404 353.963 66.7136 354.622 66.7136 355.31Z" fill="#71389A"/>
<path d="M64.1215 360.106C63.1894 360.106 62.2783 359.83 61.5035 359.312C60.7288 358.793 60.1252 358.057 59.7692 357.196C59.4132 356.334 59.3208 355.387 59.5037 354.473C59.6866 353.559 60.1366 352.72 60.7968 352.062C61.4569 351.404 62.2974 350.956 63.2119 350.776C64.1264 350.596 65.0738 350.692 65.934 351.05C66.7943 351.409 67.5288 352.015 68.0444 352.791C68.5601 353.568 68.8338 354.48 68.8308 355.412C68.8308 356.03 68.7089 356.641 68.4721 357.212C68.2352 357.782 67.8881 358.3 67.4506 358.737C67.0131 359.173 66.4938 359.518 65.9226 359.753C65.3513 359.988 64.7392 360.108 64.1215 360.106ZM64.1215 351.075C63.2637 351.075 62.4253 351.329 61.7121 351.806C60.9989 352.282 60.443 352.96 60.1148 353.752C59.7866 354.545 59.7007 355.417 59.868 356.258C60.0353 357.099 60.4484 357.872 61.0549 358.478C61.6614 359.085 62.4341 359.498 63.2754 359.665C64.1167 359.833 64.9886 359.747 65.7811 359.418C66.5735 359.09 67.2509 358.534 67.7274 357.821C68.2039 357.108 68.4583 356.27 68.4583 355.412C68.4602 354.842 68.3494 354.277 68.1322 353.75C67.9149 353.223 67.5955 352.744 67.1924 352.341C66.7893 351.938 66.3105 351.618 65.7834 351.401C65.2564 351.184 64.6915 351.073 64.1215 351.075Z" fill="#71389A"/>
<path d="M62.577 339.242L62.7111 344.548L61.3848 344.533L63.8587 347.543L66.3326 344.503L64.9615 344.488L64.8274 339.257L62.577 339.242Z" fill="#EBEBEB"/>
<path d="M199.638 328.156L199.772 333.462L198.445 333.447L200.919 336.457L203.393 333.417L202.022 333.402L201.888 328.171L199.638 328.156Z" fill="#EBEBEB"/>
<path d="M230.834 375.133L200.506 346.683C181.281 337.398 151.609 323.732 148.151 323.911C144.277 324.149 70.6554 353.151 42.6823 364.313L42.1309 362.927C46.259 361.288 143.144 322.689 148.062 322.436H148.166C153.546 322.436 196.348 343.047 201.251 345.401L201.43 345.535L231.072 373.33C236.705 370.349 268.941 353.345 269.492 353.106C269.686 353.017 270.193 352.808 314.529 352.808V354.298C297.51 354.298 271.951 354.298 270.014 354.507C268.33 355.356 244.142 368.113 231.266 374.894L230.834 375.133Z" fill="#71389A"/>
<path d="M203.514 345.429C203.514 345.942 203.362 346.443 203.077 346.87C202.792 347.296 202.387 347.629 201.914 347.825C201.44 348.021 200.918 348.072 200.415 347.972C199.912 347.872 199.45 347.625 199.088 347.263C198.725 346.9 198.478 346.438 198.378 345.935C198.278 345.432 198.329 344.911 198.525 344.437C198.722 343.963 199.054 343.558 199.481 343.273C199.907 342.988 200.408 342.836 200.921 342.836C201.262 342.836 201.599 342.903 201.914 343.033C202.228 343.164 202.514 343.355 202.755 343.595C202.996 343.836 203.187 344.122 203.317 344.437C203.447 344.751 203.514 345.089 203.514 345.429Z" fill="#71389A"/>
<path d="M200.92 350.225C199.989 350.225 199.078 349.949 198.304 349.432C197.529 348.914 196.926 348.179 196.569 347.318C196.213 346.458 196.12 345.511 196.301 344.597C196.483 343.684 196.932 342.845 197.59 342.186C198.249 341.527 199.088 341.079 200.002 340.897C200.915 340.715 201.862 340.809 202.723 341.165C203.583 341.522 204.319 342.125 204.836 342.9C205.354 343.674 205.63 344.585 205.63 345.516C205.626 346.764 205.128 347.959 204.246 348.842C203.364 349.724 202.168 350.221 200.92 350.225ZM200.92 341.194C200.066 341.194 199.23 341.448 198.519 341.922C197.808 342.397 197.255 343.072 196.927 343.862C196.6 344.652 196.515 345.521 196.681 346.359C196.848 347.198 197.26 347.968 197.864 348.572C198.469 349.177 199.239 349.588 200.077 349.755C200.916 349.922 201.785 349.836 202.574 349.509C203.364 349.182 204.039 348.628 204.514 347.917C204.989 347.206 205.242 346.371 205.242 345.516C205.25 344.943 205.144 344.375 204.931 343.844C204.717 343.313 204.4 342.829 203.998 342.421C203.596 342.014 203.116 341.69 202.588 341.469C202.06 341.248 201.493 341.134 200.92 341.135V341.194Z" fill="#71389A"/>
<path d="M272.382 353.146C272.382 353.659 272.229 354.16 271.945 354.587C271.66 355.013 271.255 355.345 270.781 355.542C270.307 355.738 269.786 355.789 269.283 355.689C268.78 355.589 268.317 355.342 267.955 354.979C267.592 354.617 267.345 354.155 267.245 353.652C267.145 353.149 267.196 352.627 267.393 352.154C267.589 351.68 267.921 351.275 268.348 350.99C268.774 350.705 269.276 350.553 269.788 350.553C270.129 350.553 270.466 350.62 270.781 350.75C271.095 350.88 271.381 351.071 271.622 351.312C271.863 351.553 272.054 351.839 272.184 352.154C272.315 352.468 272.382 352.805 272.382 353.146Z" fill="#71389A"/>
<path d="M269.787 357.944C268.856 357.944 267.946 357.668 267.171 357.15C266.397 356.633 265.793 355.897 265.437 355.037C265.08 354.176 264.987 353.23 265.169 352.316C265.35 351.402 265.799 350.563 266.457 349.905C267.116 349.246 267.955 348.798 268.869 348.616C269.782 348.434 270.729 348.527 271.59 348.884C272.45 349.24 273.186 349.844 273.703 350.618C274.221 351.393 274.497 352.303 274.497 353.235C274.493 354.483 273.996 355.678 273.113 356.56C272.231 357.443 271.035 357.94 269.787 357.944ZM269.787 348.913C268.928 348.91 268.088 349.162 267.373 349.638C266.657 350.113 266.099 350.79 265.769 351.583C265.439 352.376 265.352 353.249 265.518 354.092C265.685 354.935 266.099 355.709 266.706 356.316C267.313 356.924 268.088 357.337 268.93 357.504C269.773 357.671 270.646 357.584 271.439 357.253C272.232 356.923 272.909 356.365 273.385 355.65C273.86 354.934 274.112 354.094 274.109 353.235C274.109 352.089 273.654 350.989 272.844 350.179C272.033 349.368 270.934 348.913 269.787 348.913Z" fill="#71389A"/>
<path d="M268.384 337.754L268.533 343.059L267.207 343.03L269.681 346.055L272.155 343H270.784L270.635 337.769L268.384 337.754Z" fill="#EBEBEB"/>
<path d="M321.395 414.979H322.184H323.183L324.539 414.77C325.814 414.526 327.062 414.156 328.265 413.667C329.913 412.952 331.454 412.008 332.84 410.865C334.584 409.395 336.031 407.604 337.102 405.59C338.374 403.15 339.077 400.455 339.159 397.706C339.159 391.745 339.159 384.815 339.159 377.05C339.159 345.962 339.085 301.044 339.04 245.441C339.04 217.662 339.04 187.23 339.04 154.532C339.04 150.449 339.04 146.321 339.04 142.178C339.188 140.127 339.017 138.066 338.533 136.067C337.937 134.1 336.838 132.323 335.344 130.911C333.861 129.454 332.013 128.424 329.994 127.93C327.918 127.569 325.808 127.449 323.705 127.573H256.983H17.9827C15.3448 127.573 12.6474 127.573 10.084 127.573C7.52765 127.837 5.15878 129.035 3.43164 130.939C1.7045 132.842 0.740656 135.316 0.72491 137.885V177.021C0.72491 197.667 0.72491 217.995 0.72491 238.004C0.72491 277.974 0.72491 316.544 0.72491 353.28C0.72491 362.47 0.72491 371.541 0.72491 380.493V393.816C0.617895 395.992 0.72272 398.173 1.03788 400.329C1.6354 403.481 3.08252 406.41 5.22306 408.8C7.36359 411.191 10.1162 412.951 13.1839 413.891C15.2059 414.478 17.3095 414.735 19.4134 414.651H50.7099H141.619L273.228 414.77L308.995 414.844H318.295C320.396 414.844 321.469 414.844 321.469 414.844H318.295H308.995H273.228L141.619 414.979H50.7099H19.4134C17.244 415.056 15.076 414.79 12.9902 414.189C9.80348 413.217 6.943 411.393 4.71815 408.914C2.49331 406.434 0.988777 403.393 0.367251 400.12C0.0426337 397.92 -0.0671748 395.694 0.039381 393.473C0.039381 389.002 0.039381 384.621 0.039381 380.15V353.28C0.039381 316.544 0.039381 277.974 0.039381 238.004V137.96C0.0636585 135.202 1.10013 132.549 2.95191 130.505C4.8037 128.461 7.34178 127.168 10.084 126.872C12.8113 126.738 15.4044 126.872 18.0721 126.872H257.073H326.924C328.018 126.863 329.109 126.988 330.172 127.245C332.295 127.763 334.244 128.832 335.821 130.345C337.388 131.847 338.548 133.724 339.189 135.799C339.678 137.862 339.854 139.987 339.71 142.103V154.458C339.71 187.125 339.71 217.557 339.71 245.367C339.71 300.925 339.606 345.888 339.576 376.976C339.576 384.74 339.576 391.655 339.576 397.631C339.508 400.177 338.897 402.678 337.784 404.968C336.671 407.258 335.082 409.284 333.123 410.91C331.723 412.054 330.168 412.992 328.503 413.697C327.293 414.186 326.034 414.545 324.748 414.77L323.377 414.964H322.378L321.395 414.979Z" fill="#7C41A7"/>
<defs>
<linearGradient id="paint0_linear_236_18039" x1="310.618" y1="107.382" x2="295.742" y2="112.361" gradientUnits="userSpaceOnUse">
<stop stop-color="#71389A"/>
<stop offset="1" stop-color="#CB84FF"/>
</linearGradient>
<linearGradient id="paint1_linear_236_18039" x1="395.091" y1="102.281" x2="379.851" y2="106.736" gradientUnits="userSpaceOnUse">
<stop stop-color="#71389A"/>
<stop offset="1" stop-color="#CB84FF"/>
</linearGradient>
<linearGradient id="paint2_linear_236_18039" x1="373.982" y1="93.8661" x2="358.354" y2="97.6481" gradientUnits="userSpaceOnUse">
<stop stop-color="#71389A"/>
<stop offset="1" stop-color="#CB84FF"/>
</linearGradient>
<linearGradient id="paint3_linear_236_18039" x1="352.872" y1="96.5336" x2="337.347" y2="100.509" gradientUnits="userSpaceOnUse">
<stop stop-color="#71389A"/>
<stop offset="1" stop-color="#CB84FF"/>
</linearGradient>
<linearGradient id="paint4_linear_236_18039" x1="331.734" y1="80.946" x2="315.775" y2="83.9986" gradientUnits="userSpaceOnUse">
<stop stop-color="#71389A"/>
<stop offset="1" stop-color="#CB84FF"/>
</linearGradient>
<linearGradient id="paint5_linear_236_18039" x1="289.511" y1="81.2552" x2="273.558" y2="84.3222" gradientUnits="userSpaceOnUse">
<stop stop-color="#71389A"/>
<stop offset="1" stop-color="#CB84FF"/>
</linearGradient>
<linearGradient id="paint6_linear_236_18039" x1="268.374" y1="101.398" x2="253.085" y2="105.774" gradientUnits="userSpaceOnUse">
<stop stop-color="#71389A"/>
<stop offset="1" stop-color="#CB84FF"/>
</linearGradient>
<linearGradient id="paint7_linear_236_18039" x1="247.259" y1="83.9486" x2="231.359" y2="87.1458" gradientUnits="userSpaceOnUse">
<stop stop-color="#71389A"/>
<stop offset="1" stop-color="#CB84FF"/>
</linearGradient>
<linearGradient id="paint8_linear_236_18039" x1="226.148" y1="70.7431" x2="210.039" y2="73.387" gradientUnits="userSpaceOnUse">
<stop stop-color="#71389A"/>
<stop offset="1" stop-color="#CB84FF"/>
</linearGradient>
<linearGradient id="paint9_linear_236_18039" x1="205.009" y1="83.6647" x2="189.103" y2="86.8464" gradientUnits="userSpaceOnUse">
<stop stop-color="#71389A"/>
<stop offset="1" stop-color="#CB84FF"/>
</linearGradient>
<linearGradient id="paint10_linear_236_18039" x1="237.544" y1="217.006" x2="279.136" y2="272.463" gradientUnits="userSpaceOnUse">
<stop stop-color="#71389A"/>
<stop offset="1" stop-color="#CB84FF"/>
</linearGradient>
</defs>
</svg>
