<svg width="211" height="239" viewBox="0 0 211 239" fill="none" xmlns="http://www.w3.org/2000/svg">
<path d="M78.9161 238.464L2.24262 194.163C-0.74754 192.433 -0.74754 189.61 2.24262 187.88L126.391 116.149C127.086 115.799 127.854 115.617 128.632 115.617C129.411 115.617 130.178 115.799 130.873 116.149L209.407 161.542C209.768 161.749 210.067 162.048 210.275 162.409C210.483 162.769 210.593 163.178 210.593 163.594C210.593 164.01 210.483 164.418 210.275 164.779C210.067 165.139 209.768 165.438 209.407 165.646L83.4203 238.464C82.722 238.817 81.9506 239.001 81.1682 239.001C80.3858 239.001 79.6143 238.817 78.9161 238.464Z" fill="#E0E0E0"/>
<path d="M6.1499 186.002C6.1499 187.878 7.55576 190.208 9.28606 191.209L77.573 230.643C78.5449 231.136 79.6194 231.393 80.7092 231.393C81.799 231.393 82.8734 231.136 83.8453 230.643L204.084 161.221C205.82 160.22 207.22 157.89 207.22 156.013C207.22 154.137 205.82 151.801 204.084 150.801L135.803 111.372C134.831 110.879 133.756 110.622 132.667 110.622C131.577 110.622 130.502 110.879 129.53 111.372L9.28606 180.794C7.55576 181.795 6.1499 184.125 6.1499 186.002Z" fill="#455A64"/>
<path d="M207.25 156.01C207.25 157.886 205.844 160.211 204.114 161.217L83.8529 230.639C82.887 231.148 81.8083 231.404 80.7168 231.385V224.594C81.8088 224.611 82.8875 224.353 83.8529 223.842L204.097 154.42C205.611 153.549 205.801 152.192 204.665 151.176C206.12 152.333 207.25 154.344 207.25 156.01Z" fill="#37474F"/>
<path d="M80.7146 224.604V231.39C79.6228 231.412 78.5433 231.155 77.5784 230.644L9.28606 191.209C7.55576 190.209 6.1499 187.878 6.1499 186.002C6.1499 184.239 7.38814 182.082 8.96703 180.995C7.56117 182.001 7.66932 183.482 9.28606 184.418L77.573 223.852C78.539 224.367 79.6205 224.625 80.7146 224.604Z" fill="#263238"/>
<path d="M3.20604 180.902C1.67041 179.821 1.67041 178.383 1.67041 176.382V75.3329C1.73191 74.2487 2.04787 73.1942 2.59272 72.2548C3.13757 71.3154 3.89599 70.5175 4.80656 69.9258L125.051 0.481651C126.787 -0.518673 128.382 0.205887 130.009 1.14132C131.637 2.07676 132.67 2.89324 132.67 4.88848V105.937C132.606 107.021 132.289 108.075 131.744 109.014C131.2 109.953 130.443 110.751 129.533 111.345L9.28369 180.794C6.66122 182.589 4.87145 182.081 3.20604 180.902Z" fill="#37474F"/>
<path d="M9.28369 180.797C6.66122 182.56 4.87145 182.084 3.20604 180.905C1.67582 179.824 1.67041 178.385 1.67041 176.385V75.341C1.70772 74.2509 2.02222 73.1883 2.58422 72.2535L7.06135 74.8544C6.49757 75.7864 6.18289 76.8477 6.14754 77.9365V178.985C6.14754 180.97 7.54799 181.792 9.28369 180.797Z" fill="#263238"/>
<path d="M132.676 4.88848C132.676 2.89324 131.27 2.08217 129.539 3.07709L9.29514 72.505C8.36571 73.0801 7.60175 73.8869 7.0782 74.8463L2.60107 72.2454C3.13206 71.2883 3.89656 70.481 4.82342 69.8987L125.062 0.481651C126.793 -0.518673 128.393 0.205887 130.015 1.14132C131.637 2.07676 132.676 2.89324 132.676 4.88848Z" fill="#455A64"/>
<path d="M10.9667 76.1195L126.907 9.20055C127.945 8.60036 128.789 9.087 128.789 10.282V102.971C128.751 103.622 128.561 104.254 128.234 104.817C127.907 105.381 127.452 105.86 126.907 106.216L10.9667 173.146C9.92848 173.746 9.08496 173.259 9.08496 172.064V79.3746C9.12045 78.7223 9.30935 78.0875 9.63631 77.5219C9.96327 76.9563 10.4191 76.4758 10.9667 76.1195Z" fill="#263238"/>
<path d="M10.9667 76.1202C10.4205 76.4755 9.96557 76.9542 9.63869 77.5178C9.3118 78.0814 9.12211 78.714 9.08496 79.3645V171.497L124.333 104.989C124.879 104.633 125.333 104.154 125.66 103.591C125.987 103.027 126.177 102.395 126.215 101.745V9.59595L10.9667 76.1202Z" fill="#C778FF"/>
<path opacity="0.65" d="M10.9667 76.1202C10.4205 76.4755 9.96557 76.9542 9.63869 77.5178C9.3118 78.0814 9.12211 78.714 9.08496 79.3645V171.497L124.333 104.989C124.879 104.633 125.333 104.154 125.66 103.591C125.987 103.027 126.177 102.395 126.215 101.745V9.59595L10.9667 76.1202Z" fill="white"/>
<path d="M17.9855 180.965L129.573 116.539C130.059 116.291 130.596 116.162 131.141 116.162C131.686 116.162 132.224 116.291 132.709 116.539L135.953 118.242C136.819 118.745 136.819 119.556 135.953 120.054L24.3281 184.48C23.8425 184.728 23.3051 184.857 22.76 184.857C22.2149 184.857 21.6775 184.728 21.1919 184.48L17.9476 182.787C17.0933 182.285 17.0933 181.474 17.9855 180.965Z" fill="#37474F"/>
<path d="M26.7241 186.189L138.333 121.746C138.767 121.502 139.251 121.361 139.748 121.334C140.245 121.307 140.741 121.394 141.199 121.59L170.252 138.352C170.965 138.768 170.846 139.509 169.981 140.006L58.5019 204.351C58.0689 204.6 57.5839 204.744 57.0855 204.772C56.5871 204.8 56.089 204.712 55.6307 204.514L26.4591 187.838C25.74 187.427 25.8589 186.686 26.7241 186.189Z" fill="#263238"/>
<path d="M122.519 148.524L126.012 146.507C126.158 146.421 126.18 146.296 126.061 146.226L122.979 144.442C122.9 144.408 122.814 144.393 122.729 144.399C122.643 144.404 122.56 144.43 122.486 144.474L118.993 146.491C118.847 146.578 118.826 146.702 118.945 146.772L122.027 148.551C122.105 148.586 122.191 148.602 122.276 148.597C122.362 148.592 122.445 148.567 122.519 148.524ZM117.652 141.673L114.154 143.69C114.008 143.777 113.986 143.901 114.105 143.971L117.193 145.75C117.27 145.784 117.355 145.799 117.439 145.795C117.524 145.79 117.606 145.766 117.68 145.723L121.173 143.706C121.324 143.62 121.346 143.496 121.221 143.425L118.139 141.646C118.058 141.614 117.971 141.601 117.884 141.61C117.798 141.618 117.715 141.647 117.642 141.695L117.652 141.673ZM106.352 148.216L100.436 151.628C100.29 151.714 100.268 151.839 100.387 151.909L103.469 153.688C103.548 153.723 103.633 153.739 103.719 153.734C103.804 153.729 103.888 153.704 103.962 153.661L109.872 150.249C110.023 150.163 110.045 150.033 109.92 149.962L106.838 148.184C106.76 148.15 106.676 148.136 106.591 148.142C106.506 148.147 106.424 148.173 106.352 148.216ZM112.532 144.642L109.039 146.659C108.887 146.745 108.866 146.875 108.99 146.945L112.072 148.724C112.15 148.758 112.234 148.773 112.319 148.769C112.403 148.764 112.486 148.74 112.559 148.697L116.057 146.68C116.203 146.594 116.225 146.464 116.106 146.394L113.024 144.615C112.946 144.58 112.86 144.564 112.775 144.569C112.689 144.574 112.606 144.599 112.532 144.642ZM98.8247 152.558L95.3209 154.575C95.1695 154.661 95.1479 154.791 95.2668 154.856L98.3543 156.64C98.4323 156.673 98.517 156.688 98.6015 156.682C98.686 156.676 98.7681 156.651 98.841 156.608L102.334 154.591C102.485 154.505 102.507 154.38 102.383 154.31L99.3006 152.531C99.2245 152.499 99.142 152.484 99.0595 152.489C98.977 152.494 98.8967 152.517 98.8247 152.558ZM93.6988 155.51L90.2057 157.527C90.0543 157.608 90.0327 157.738 90.1571 157.808L93.2392 159.587C93.3146 159.625 93.398 159.645 93.4825 159.645C93.567 159.645 93.6503 159.625 93.7258 159.587L97.2242 157.57C97.3702 157.484 97.3918 157.354 97.2729 157.284L94.1908 155.505C94.1142 155.467 94.0297 155.447 93.9441 155.448C93.8586 155.449 93.7745 155.47 93.6988 155.51ZM106.676 163.297L110.169 161.274C110.32 161.193 110.342 161.063 110.218 160.993L107.136 159.214C107.058 159.18 106.974 159.165 106.889 159.17C106.804 159.174 106.722 159.199 106.649 159.241L103.156 161.258C103.004 161.345 102.983 161.474 103.107 161.545L106.189 163.324C106.267 163.357 106.351 163.373 106.436 163.368C106.52 163.363 106.603 163.339 106.676 163.297ZM101.572 166.243L105.054 164.205C105.2 164.118 105.221 163.994 105.102 163.924L102.02 162.145C101.944 162.106 101.86 162.086 101.774 162.086C101.689 162.086 101.604 162.106 101.528 162.145L98.0245 164.205C97.8785 164.291 97.8569 164.416 97.9758 164.486L101.058 166.265C101.137 166.303 101.224 166.32 101.312 166.316C101.4 166.313 101.485 166.288 101.561 166.243H101.572ZM96.4618 169.19L99.9548 167.173C100.106 167.087 100.128 166.963 100.004 166.892L96.9214 165.113C96.8439 165.079 96.7594 165.064 96.6749 165.069C96.5904 165.074 96.5081 165.098 96.4348 165.14L92.9364 167.157C92.7904 167.244 92.7687 167.368 92.8931 167.438L95.9752 169.217C96.0513 169.25 96.1337 169.264 96.2162 169.259C96.2987 169.254 96.379 169.231 96.451 169.19H96.4618ZM91.3521 172.143L94.8505 170.126C94.9965 170.039 95.0181 169.91 94.8992 169.839L91.8171 168.06C91.7388 168.025 91.6533 168.01 91.5678 168.014C91.4822 168.019 91.399 168.044 91.325 168.087L87.832 170.104C87.6806 170.191 87.659 170.32 87.7833 170.391L90.8654 172.17C90.9415 172.202 91.024 172.216 91.1065 172.211C91.189 172.207 91.2693 172.183 91.3412 172.143H91.3521ZM117.42 151.493L120.913 149.476C121.064 149.389 121.086 149.265 120.962 149.195L117.869 147.443C117.791 147.409 117.707 147.394 117.622 147.398C117.538 147.403 117.455 147.427 117.382 147.47L113.884 149.487C113.738 149.573 113.716 149.698 113.835 149.768L116.917 151.547C116.997 151.578 117.084 151.589 117.17 151.579C117.255 151.57 117.337 151.54 117.409 151.493H117.42ZM111.786 160.344L119.577 155.845C119.729 155.759 119.75 155.635 119.626 155.564L111.699 150.984C111.621 150.95 111.535 150.934 111.45 150.939C111.364 150.943 111.281 150.968 111.207 151.011L107.179 153.342C107.027 153.428 107.006 153.553 107.13 153.623L111.537 156.165C111.656 156.235 111.634 156.365 111.488 156.451L108.244 158.311C108.098 158.398 108.076 158.522 108.195 158.592L111.277 160.371C111.356 160.407 111.443 160.423 111.529 160.418C111.616 160.414 111.7 160.388 111.775 160.344H111.786ZM88.6214 158.457L85.123 160.474C84.977 160.561 84.9554 160.685 85.0744 160.755L88.1564 162.534C88.2347 162.569 88.3202 162.585 88.4057 162.58C88.4913 162.575 88.5745 162.55 88.6485 162.507L92.1415 160.49C92.2929 160.404 92.3145 160.279 92.1902 160.209L89.1081 158.43C89.0291 158.394 88.9426 158.378 88.8561 158.383C88.7695 158.388 88.6853 158.413 88.6106 158.457H88.6214ZM83.5117 161.404L80.0187 163.421C79.8673 163.507 79.8456 163.637 79.97 163.707L83.0521 165.486C83.1301 165.52 83.2147 165.534 83.2993 165.528C83.3838 165.523 83.4658 165.497 83.5387 165.454L87.0371 163.437C87.1831 163.356 87.2048 163.226 87.0858 163.156L83.9659 161.377C83.8913 161.347 83.8108 161.333 83.7303 161.338C83.6499 161.343 83.5715 161.365 83.5009 161.404H83.5117ZM55.1025 192.809C55.178 192.847 55.2613 192.867 55.3458 192.867C55.4303 192.867 55.5137 192.847 55.5891 192.809L59.0876 190.792C59.2336 190.705 59.2552 190.581 59.1362 190.511L56.0541 188.732C55.9759 188.697 55.8904 188.681 55.8049 188.686C55.7193 188.691 55.6361 188.716 55.5621 188.759L52.0637 190.749C51.9177 190.835 51.896 190.96 52.015 191.03L55.1025 192.809ZM42.666 184.995L39.1676 187.012C39.0216 187.099 39 187.223 39.1189 187.294L42.201 189.072C42.2793 189.107 42.3647 189.123 42.4503 189.118C42.5358 189.114 42.6191 189.089 42.6931 189.045L46.1861 187.029C46.3375 186.942 46.3591 186.818 46.2347 186.747L43.1527 184.968C43.0722 184.931 42.9838 184.914 42.8952 184.918C42.8065 184.923 42.7204 184.95 42.6444 184.995H42.666ZM48.9329 190.787C49.0105 190.82 49.0949 190.836 49.1795 190.831C49.264 190.826 49.3462 190.802 49.4196 190.759L52.918 188.743C53.064 188.656 53.0856 188.532 52.9667 188.461L49.8846 186.677C49.8059 186.643 49.7202 186.628 49.6346 186.634C49.5491 186.64 49.4661 186.665 49.3925 186.71L45.8995 188.726C45.7481 188.813 45.7265 188.937 45.8508 189.008L48.9329 190.787ZM63.1483 194.031L66.6414 192.014C66.7928 191.927 66.8144 191.798 66.69 191.727L63.6079 189.948C63.5304 189.915 63.4459 189.899 63.3614 189.904C63.2769 189.909 63.1946 189.933 63.1213 189.975L59.6337 191.998C59.4823 192.079 59.4607 192.209 59.585 192.279L62.6671 194.058C62.741 194.087 62.8205 194.1 62.8999 194.096C62.9794 194.091 63.0568 194.069 63.1267 194.031H63.1483ZM57.5519 197.005C57.6302 197.04 57.7157 197.055 57.8012 197.051C57.8868 197.046 57.97 197.021 58.044 196.978L61.537 194.961C61.683 194.874 61.7046 194.75 61.5857 194.68L58.5036 192.901C58.4253 192.866 58.3399 192.85 58.2543 192.855C58.1688 192.86 58.0855 192.885 58.0115 192.928L54.5185 194.945C54.3725 195.031 54.3509 195.156 54.4698 195.226L57.5519 197.005ZM47.7379 182.049L44.2449 184.065C44.0935 184.152 44.0719 184.276 44.1962 184.347L47.2783 186.126C47.3559 186.159 47.4403 186.175 47.5249 186.17C47.6094 186.165 47.6916 186.141 47.765 186.099L51.2634 184.082C51.4094 183.995 51.431 183.871 51.3121 183.8L48.23 182.016C48.1513 181.982 48.0656 181.967 47.9801 181.973C47.8945 181.979 47.8115 182.005 47.7379 182.049ZM73.2759 167.303L69.7829 169.32C69.6315 169.407 69.6099 169.531 69.7342 169.601L72.8163 171.38C72.8918 171.418 72.9751 171.438 73.0596 171.438C73.1442 171.438 73.2275 171.418 73.303 171.38L76.796 169.363C76.9474 169.277 76.969 169.152 76.8447 169.082L73.7626 167.303C73.6885 167.267 73.6071 167.248 73.5247 167.248C73.4422 167.248 73.3608 167.267 73.2867 167.303H73.2759ZM52.8477 179.096L49.3601 181.113C49.2141 181.2 49.1925 181.329 49.3114 181.4L52.3935 183.179C52.4697 183.218 52.554 183.238 52.6395 183.238C52.7251 183.238 52.8094 183.218 52.8856 183.179L56.3894 181.129C56.5408 181.048 56.5624 180.918 56.438 180.848L53.356 179.069C53.277 179.034 53.1905 179.017 53.1039 179.022C53.0174 179.027 52.9332 179.052 52.8585 179.096H52.8477ZM78.3803 164.356L74.8981 166.368C74.7521 166.449 74.7305 166.579 74.8494 166.649L77.9315 168.428C78.0098 168.463 78.0952 168.478 78.1808 168.474C78.2663 168.469 78.3495 168.444 78.4235 168.401L81.9166 166.384C82.0626 166.298 82.0842 166.168 81.9652 166.097L78.8832 164.318C78.804 164.285 78.7181 164.271 78.6326 164.278C78.547 164.285 78.4642 164.311 78.3911 164.356H78.3803ZM68.1662 170.25L64.6732 172.267C64.5272 172.354 64.5055 172.483 64.6245 172.554L67.7066 174.333C67.7853 174.367 67.871 174.381 67.9565 174.376C68.0421 174.37 68.125 174.344 68.1986 174.3L71.6916 172.283C71.8376 172.202 71.8593 172.072 71.7403 172.002L68.6582 170.223C68.5814 170.19 68.4979 170.175 68.4144 170.18C68.3309 170.185 68.2496 170.209 68.177 170.25H68.1662ZM63.0618 173.202L59.5688 175.219C59.4174 175.306 59.3958 175.43 59.5201 175.501L62.6022 177.279C62.6798 177.313 62.7642 177.329 62.8488 177.324C62.9333 177.319 63.0155 177.295 63.0889 177.252L66.5819 175.236C66.7333 175.149 66.7549 175.019 66.6305 174.954L63.5485 173.17C63.4719 173.139 63.3893 173.125 63.3068 173.131C63.2243 173.137 63.1442 173.161 63.0726 173.202H63.0618ZM57.9521 176.149L54.459 178.166C54.313 178.253 54.2914 178.377 54.4104 178.447L57.4924 180.226C57.5707 180.261 57.6562 180.277 57.7417 180.272C57.8273 180.267 57.9105 180.242 57.9845 180.199L61.4775 178.182C61.6235 178.096 61.6451 177.972 61.5262 177.901L58.4441 176.122C58.3673 176.089 58.2838 176.075 58.2003 176.079C58.1168 176.084 58.0355 176.108 57.9629 176.149H57.9521ZM81.1163 178.036L84.6147 176.02C84.7607 175.933 84.7824 175.809 84.6634 175.738L81.5867 173.938C81.5113 173.9 81.4279 173.88 81.3434 173.88C81.2589 173.88 81.1756 173.9 81.1001 173.938L77.6071 175.955C77.4557 176.041 77.434 176.166 77.5584 176.236L80.6405 178.02C80.7147 178.061 80.7974 178.083 80.8819 178.086C80.9664 178.089 81.0504 178.072 81.1271 178.036H81.1163ZM128.921 135.174L125.423 137.196C125.277 137.277 125.255 137.407 125.374 137.477L128.461 139.256C128.539 139.29 128.623 139.305 128.708 139.301C128.792 139.296 128.875 139.272 128.948 139.229L132.441 137.212C132.592 137.126 132.614 136.996 132.49 136.926L129.408 135.147C129.332 135.115 129.249 135.1 129.167 135.105C129.084 135.11 129.004 135.133 128.932 135.174H128.921ZM122.735 138.748L119.242 140.765C119.096 140.851 119.075 140.976 119.193 141.046L122.276 142.825C122.351 142.863 122.434 142.883 122.519 142.883C122.603 142.883 122.687 142.863 122.762 142.825L126.261 140.808C126.407 140.722 126.428 140.597 126.309 140.527L123.227 138.743C123.152 138.706 123.069 138.688 122.986 138.689C122.902 138.69 122.82 138.71 122.746 138.748H122.735ZM134.025 132.227L130.532 134.244C130.386 134.33 130.365 134.46 130.484 134.53L133.566 136.309C133.644 136.343 133.728 136.357 133.813 136.351C133.897 136.346 133.979 136.32 134.052 136.277L137.551 134.26C137.697 134.174 137.718 134.049 137.599 133.979L134.517 132.2C134.441 132.167 134.357 132.152 134.274 132.157C134.19 132.162 134.109 132.186 134.036 132.227H134.025ZM105.595 158.322L109.088 156.305C109.234 156.219 109.255 156.094 109.136 156.024L106.054 154.245C105.976 154.21 105.89 154.194 105.805 154.199C105.719 154.204 105.636 154.229 105.562 154.272L102.069 156.289C101.923 156.375 101.901 156.5 102.02 156.57L105.102 158.349C105.181 158.384 105.266 158.399 105.352 158.395C105.437 158.39 105.52 158.365 105.595 158.322ZM139.66 129.253C139.584 129.215 139.501 129.195 139.416 129.195C139.332 129.195 139.248 129.215 139.173 129.253L135.68 131.27C135.529 131.356 135.507 131.481 135.631 131.551L138.713 133.33C138.791 133.364 138.875 133.379 138.96 133.374C139.044 133.37 139.127 133.345 139.2 133.303L142.693 131.286C142.844 131.2 142.866 131.075 142.742 131.005L139.66 129.253ZM86.2369 175.09L89.7299 173.073C89.8813 172.986 89.9029 172.862 89.7786 172.792L86.6965 171.013C86.6189 170.979 86.5345 170.963 86.45 170.968C86.3654 170.973 86.2832 170.997 86.2098 171.04L82.7114 173.056C82.5654 173.143 82.5438 173.267 82.6628 173.338L85.7448 175.117C85.8231 175.151 85.9086 175.167 85.9941 175.162C86.0797 175.158 86.1629 175.133 86.2369 175.09ZM148.852 138.926L152.345 136.91C152.496 136.823 152.518 136.699 152.393 136.628L149.311 134.849C149.234 134.816 149.149 134.8 149.065 134.805C148.98 134.81 148.898 134.834 148.825 134.877L145.332 136.893C145.18 136.98 145.159 137.104 145.283 137.175L148.365 138.959C148.443 138.992 148.528 139.006 148.612 139.001C148.697 138.995 148.779 138.97 148.852 138.926ZM138.897 139.078L142.39 137.061C142.542 136.974 142.563 136.85 142.439 136.78L139.357 135.001C139.279 134.967 139.195 134.952 139.11 134.956C139.026 134.961 138.943 134.986 138.87 135.028L135.377 137.045C135.226 137.131 135.204 137.256 135.328 137.326L138.411 139.105C138.49 139.142 138.578 139.158 138.665 139.154C138.753 139.149 138.838 139.123 138.913 139.078H138.897ZM144.467 132.049C144.388 132.014 144.303 131.998 144.217 132.003C144.132 132.007 144.049 132.032 143.975 132.076L140.481 134.098C140.335 134.179 140.314 134.309 140.433 134.379L143.515 136.158C143.593 136.193 143.679 136.209 143.764 136.204C143.85 136.199 143.933 136.174 144.007 136.131L147.5 134.114C147.646 134.028 147.668 133.898 147.549 133.828L144.467 132.049ZM145.548 131.427L153.475 136.007C153.553 136.041 153.639 136.057 153.724 136.052C153.81 136.048 153.893 136.023 153.967 135.98L157.46 133.963C157.606 133.876 157.628 133.752 157.509 133.682L149.576 129.102C149.501 129.064 149.418 129.044 149.333 129.044C149.248 129.044 149.165 129.064 149.09 129.102L145.607 131.146C145.456 131.221 145.434 131.356 145.559 131.427H145.548ZM133.766 137.975L130.273 139.992C130.127 140.078 130.1 140.203 130.224 140.273L133.306 142.057C133.385 142.091 133.471 142.106 133.556 142.1C133.642 142.095 133.725 142.069 133.798 142.025L137.291 140.008C137.437 139.921 137.459 139.797 137.34 139.727L134.258 137.948C134.181 137.915 134.098 137.9 134.014 137.905C133.931 137.909 133.849 137.933 133.777 137.975H133.766ZM95.3209 160.171L91.8279 162.188C91.6765 162.275 91.6549 162.399 91.7792 162.469L94.8613 164.248C94.9389 164.282 95.0233 164.297 95.1078 164.293C95.1924 164.288 95.2746 164.263 95.3479 164.221L98.8464 162.204C98.9924 162.118 99.014 161.988 98.895 161.923L95.813 160.139C95.7342 160.105 95.6486 160.09 95.563 160.096C95.4775 160.101 95.3945 160.127 95.3209 160.171ZM143.255 141.906C143.334 141.941 143.419 141.956 143.505 141.952C143.59 141.947 143.673 141.922 143.747 141.879L147.24 139.862C147.386 139.775 147.408 139.646 147.289 139.575L144.207 137.796C144.131 137.757 144.047 137.737 143.961 137.737C143.875 137.737 143.791 137.757 143.715 137.796L140.238 139.873C140.092 139.954 140.071 140.084 140.189 140.154L143.255 141.906ZM100.431 157.219L96.9431 159.236C96.7971 159.322 96.7754 159.452 96.8998 159.522L99.9819 161.301C100.059 161.335 100.144 161.35 100.228 161.346C100.313 161.341 100.395 161.317 100.469 161.274L103.962 159.252C104.113 159.171 104.135 159.041 104.01 158.971L100.928 157.192C100.851 157.159 100.768 157.144 100.684 157.149C100.601 157.153 100.52 157.177 100.447 157.219H100.431ZM60.196 189.862C60.2736 189.896 60.358 189.911 60.4426 189.906C60.5271 189.902 60.6093 189.877 60.6827 189.835L64.1757 187.818C64.3271 187.731 64.3487 187.602 64.2244 187.531L61.1423 185.752C61.0668 185.714 60.9835 185.695 60.899 185.695C60.8144 185.695 60.7311 185.714 60.6556 185.752L57.1626 187.775C57.0112 187.856 56.9896 187.986 57.1139 188.056L60.196 189.862ZM54.4644 183.757L50.9822 185.774C50.8362 185.861 50.8146 185.99 50.9336 186.061L54.0156 187.84C54.0918 187.879 54.1761 187.899 54.2617 187.899C54.3472 187.899 54.4315 187.879 54.5077 187.84L58.0007 185.817C58.1521 185.736 58.1738 185.606 58.0494 185.536L54.9673 183.757C54.8918 183.719 54.8085 183.699 54.724 183.699C54.6395 183.699 54.5561 183.719 54.4807 183.757H54.4644ZM65.7924 186.883L69.2855 184.866C69.4315 184.779 69.4531 184.655 69.3341 184.585L66.252 182.806C66.1737 182.771 66.0883 182.755 66.0028 182.76C65.9172 182.764 65.834 182.789 65.76 182.833L62.267 184.849C62.121 184.936 62.0993 185.06 62.2183 185.131L65.3004 186.915C65.3812 186.952 65.4699 186.968 65.5586 186.962C65.6472 186.957 65.7331 186.929 65.8087 186.883H65.7924ZM70.8968 183.936L74.3898 181.919C74.5412 181.832 74.5628 181.708 74.4385 181.638L71.3564 179.859C71.2788 179.825 71.1944 179.81 71.1099 179.814C71.0253 179.819 70.9431 179.843 70.8697 179.886L67.3767 181.903C67.2253 181.989 67.2037 182.113 67.3281 182.184L70.4101 183.963C70.4899 183.999 70.5773 184.016 70.6649 184.011C70.7525 184.007 70.8377 183.981 70.913 183.936H70.8968ZM76.0065 180.989L79.4996 178.972C79.6456 178.885 79.6672 178.756 79.5482 178.685L76.4662 176.906C76.3879 176.872 76.3024 176.856 76.2169 176.861C76.1313 176.865 76.0481 176.89 75.9741 176.933L72.4811 178.956C72.3351 179.037 72.3135 179.167 72.4324 179.237L75.5145 181.016C75.5967 181.05 75.6861 181.064 75.7747 181.055C75.8634 181.047 75.9486 181.016 76.0228 180.967L76.0065 180.989ZM59.5688 180.81L56.0758 182.827C55.9298 182.914 55.9082 183.038 56.0271 183.108L59.1092 184.887C59.1875 184.922 59.2729 184.938 59.3585 184.933C59.444 184.928 59.5272 184.903 59.6012 184.86L63.0943 182.843C63.2403 182.757 63.2619 182.633 63.1429 182.562L60.0608 180.783C59.9847 180.751 59.9023 180.737 59.8198 180.742C59.7373 180.746 59.657 180.77 59.585 180.81H59.5688ZM64.6786 177.863L61.2018 179.886C61.0504 179.972 61.0287 180.097 61.1531 180.167L64.2352 181.946C64.3127 181.98 64.3972 181.995 64.4817 181.99C64.5662 181.986 64.6485 181.961 64.7218 181.919L68.2148 179.902C68.3662 179.815 68.3879 179.691 68.2635 179.621L65.1814 177.836C65.1038 177.802 65.0194 177.787 64.9349 177.792C64.8504 177.797 64.7681 177.821 64.6948 177.863H64.6786ZM85.1068 166.065L81.6138 168.082C81.4624 168.168 81.4407 168.298 81.5651 168.368L84.6472 170.147C84.7248 170.181 84.8092 170.197 84.8937 170.192C84.9783 170.187 85.0605 170.163 85.1338 170.12L88.6323 168.098C88.7783 168.017 88.7999 167.887 88.6809 167.817L85.588 166.038C85.5134 166.008 85.4329 165.994 85.3525 165.999C85.272 166.004 85.1936 166.026 85.123 166.065H85.1068ZM79.997 169.017L76.504 171.034C76.358 171.121 76.3364 171.245 76.4553 171.315L79.5374 173.094C79.6157 173.129 79.7012 173.145 79.7867 173.14C79.8723 173.135 79.9555 173.11 80.0295 173.067L83.5225 171.05C83.6685 170.964 83.6955 170.84 83.5712 170.769L80.4891 168.985C80.4126 168.954 80.3299 168.94 80.2474 168.946C80.1649 168.951 80.0848 168.976 80.0133 169.017H79.997ZM90.2328 163.124L86.7343 165.14C86.5883 165.227 86.5667 165.351 86.6857 165.422L89.7678 167.201C89.8439 167.239 89.9282 167.26 90.0138 167.26C90.0993 167.26 90.1836 167.239 90.2598 167.201L93.7528 165.184C93.9042 165.097 93.9259 164.973 93.8015 164.902L90.7194 163.124C90.6439 163.085 90.5606 163.066 90.4761 163.066C90.3916 163.066 90.3082 163.085 90.2328 163.124ZM69.7991 174.911L66.3061 176.928C66.1601 177.014 66.1385 177.144 66.2574 177.215L69.3395 178.994C69.4178 179.028 69.5033 179.044 69.5888 179.039C69.6744 179.035 69.7576 179.01 69.8316 178.966L73.3246 176.944C73.4706 176.863 73.4922 176.733 73.3733 176.663L70.2912 174.884C70.2129 174.849 70.1275 174.834 70.0419 174.838C69.9564 174.843 69.8731 174.868 69.7991 174.911ZM74.9089 171.964L71.4159 173.981C71.2645 174.068 71.2428 174.192 71.3672 174.262L74.4493 176.041C74.5269 176.075 74.6113 176.09 74.6958 176.086C74.7804 176.081 74.8626 176.056 74.9359 176.014L78.429 173.997C78.5804 173.911 78.602 173.786 78.4776 173.716L75.3955 171.937C75.318 171.903 75.2335 171.888 75.149 171.893C75.0645 171.897 74.9822 171.922 74.9089 171.964ZM68.2365 191.079L71.7295 189.062C71.8755 188.975 71.8971 188.851 71.7782 188.78L68.6961 187.002C68.6199 186.963 68.5356 186.942 68.45 186.942C68.3645 186.942 68.2802 186.963 68.204 187.002L64.711 189.018C64.565 189.105 64.5434 189.229 64.6623 189.3L67.7444 191.084C67.8216 191.12 67.9059 191.138 67.9911 191.137C68.0762 191.136 68.1601 191.116 68.2365 191.079ZM41.1088 189.694L38.0051 187.915C37.9296 187.877 37.8463 187.857 37.7617 187.857C37.6772 187.857 37.5939 187.877 37.5184 187.915L34.0254 189.932C33.874 190.019 33.8524 190.148 33.9767 190.219L37.0588 191.998C37.1364 192.032 37.2208 192.047 37.3053 192.042C37.3899 192.037 37.4721 192.013 37.5454 191.971L41.0439 189.948C41.2061 189.894 41.2494 189.765 41.1088 189.694ZM47.8353 191.408L44.7532 189.629C44.6756 189.595 44.5912 189.58 44.5066 189.585C44.4221 189.59 44.3399 189.614 44.2665 189.656L38.8594 192.76C38.7134 192.847 38.6918 192.971 38.8107 193.041L41.8928 194.82C41.9711 194.855 42.0565 194.871 42.1421 194.866C42.2276 194.861 42.3108 194.836 42.3849 194.793L47.7596 191.69C47.938 191.603 47.9596 191.479 47.8353 191.408ZM36.5668 186.142L33.4847 184.363C33.4067 184.33 33.322 184.315 33.2375 184.321C33.153 184.327 33.0709 184.352 32.998 184.395L28.6723 186.877C28.5263 186.964 28.5047 187.088 28.6236 187.158L31.7057 188.937C31.784 188.972 31.8695 188.988 31.955 188.983C32.0406 188.978 32.1238 188.953 32.1978 188.91L36.5235 186.428C36.6695 186.342 36.6911 186.212 36.5668 186.142ZM39.8651 184.238C39.9427 184.272 40.0271 184.288 40.1117 184.283C40.1962 184.278 40.2784 184.254 40.3518 184.211L43.8502 182.195C43.9962 182.108 44.0178 181.984 43.8989 181.913L40.8168 180.134C40.7385 180.1 40.653 180.084 40.5675 180.089C40.4819 180.093 40.3987 180.118 40.3247 180.161L36.8317 182.178C36.6803 182.265 36.6587 182.389 36.783 182.46L39.8651 184.238ZM54.0265 193.431L50.9444 191.652C50.8668 191.618 50.7824 191.603 50.6978 191.607C50.6133 191.612 50.5311 191.636 50.4577 191.679L43.7366 195.566C43.5852 195.653 43.5636 195.777 43.688 195.848L46.7701 197.627C46.8476 197.66 46.9321 197.676 47.0166 197.671C47.1011 197.666 47.1834 197.642 47.2567 197.6L53.9778 193.717C54.1292 193.625 54.1508 193.501 54.0265 193.431ZM56.4543 197.627L53.3722 195.848C53.2946 195.814 53.2102 195.799 53.1257 195.803C53.0411 195.808 52.9589 195.832 52.8856 195.875L48.5598 198.357C48.4138 198.443 48.3922 198.573 48.5112 198.643L51.5932 200.422C51.672 200.456 51.7576 200.471 51.8432 200.465C51.9287 200.46 52.0117 200.434 52.0853 200.39L56.384 197.908C56.557 197.821 56.5786 197.697 56.4543 197.627ZM77.8396 162.318C77.9171 162.352 78.0016 162.367 78.0861 162.362C78.1706 162.358 78.2529 162.333 78.3262 162.291L81.8246 160.269C81.9706 160.187 81.9923 160.058 81.8733 159.987L78.7912 158.208C78.7151 158.169 78.6307 158.149 78.5452 158.149C78.4597 158.149 78.3754 158.169 78.2992 158.208L74.8062 160.225C74.6548 160.312 74.6331 160.442 74.7575 160.512L77.8396 162.318ZM67.6255 168.212C67.703 168.246 67.7875 168.261 67.872 168.256C67.9565 168.251 68.0388 168.227 68.1121 168.185L71.6105 166.168C71.7565 166.081 71.7782 165.957 71.6592 165.887L68.5717 164.108C68.4941 164.074 68.4097 164.059 68.3252 164.063C68.2406 164.068 68.1584 164.092 68.0851 164.135L64.592 166.152C64.4406 166.238 64.419 166.362 64.5434 166.433L67.6255 168.212ZM44.9749 181.292C45.0525 181.325 45.1369 181.341 45.2214 181.336C45.3059 181.331 45.3882 181.307 45.4615 181.265L48.9545 179.248C49.1059 179.161 49.1276 179.031 49.0032 178.966L45.9211 177.182C45.8431 177.149 45.7585 177.135 45.6739 177.14C45.5894 177.146 45.5074 177.171 45.4345 177.215L41.9415 179.231C41.7901 179.318 41.7684 179.442 41.8928 179.513L44.9749 181.292ZM72.7298 165.286C72.806 165.325 72.8903 165.346 72.9758 165.346C73.0614 165.346 73.1457 165.325 73.2219 165.286L76.7149 163.269C76.8663 163.183 76.8879 163.053 76.7635 162.983L73.6815 161.204C73.6035 161.171 73.5188 161.157 73.4343 161.162C73.3498 161.168 73.2677 161.193 73.1948 161.236L69.6964 163.253C69.5504 163.34 69.5288 163.464 69.6477 163.534L72.7298 165.286ZM62.5157 171.186C62.594 171.22 62.6794 171.236 62.765 171.231C62.8505 171.227 62.9337 171.202 63.0077 171.159L66.5008 169.136C66.6468 169.055 66.6684 168.925 66.5494 168.855L63.4674 167.076C63.3891 167.041 63.3036 167.026 63.2181 167.03C63.1325 167.035 63.0493 167.06 62.9753 167.103L59.4823 169.12C59.3363 169.207 59.3147 169.336 59.4336 169.407L62.5157 171.186ZM59.2714 198.048C59.1931 198.014 59.1077 197.998 59.0221 198.003C58.9366 198.007 58.8534 198.032 58.7793 198.075L53.4046 201.179C53.2532 201.266 53.2316 201.39 53.356 201.46L56.438 203.239C56.5135 203.277 56.5969 203.297 56.6814 203.297C56.7659 203.297 56.8492 203.277 56.9247 203.239L62.3319 200.136C62.4778 200.049 62.4995 199.925 62.3805 199.854L59.2714 198.048ZM55.162 175.414C55.2395 175.448 55.324 175.463 55.4085 175.458C55.493 175.454 55.5753 175.429 55.6486 175.387L59.1416 173.37C59.293 173.284 59.3147 173.159 59.1903 173.089L56.1082 171.31C56.0327 171.272 55.9494 171.252 55.8649 171.252C55.7804 171.252 55.697 171.272 55.6216 171.31L52.1285 173.327C51.9771 173.413 51.9555 173.538 52.0799 173.608L55.162 175.414ZM50.0522 178.366C50.1284 178.405 50.2127 178.425 50.2982 178.425C50.3838 178.425 50.4681 178.405 50.5443 178.366L54.0373 176.344C54.1833 176.263 54.2049 176.133 54.0859 176.063L51.0039 174.284C50.9256 174.249 50.8401 174.233 50.7546 174.238C50.669 174.243 50.5858 174.268 50.5118 174.311L47.0188 176.328C46.8728 176.414 46.8512 176.544 46.9701 176.614L50.0522 178.366ZM153.87 143.414C153.79 143.382 153.705 143.369 153.62 143.374C153.535 143.38 153.452 143.405 153.378 143.447L144.78 148.411C144.629 148.497 144.607 148.622 144.732 148.692L147.814 150.471C147.891 150.505 147.976 150.52 148.06 150.515C148.145 150.51 148.227 150.486 148.3 150.444L156.962 145.458C157.108 145.372 157.136 145.247 157.011 145.177L153.87 143.414ZM142.579 149.935C142.502 149.902 142.417 149.886 142.333 149.891C142.248 149.896 142.166 149.92 142.093 149.962L138.594 151.979C138.448 152.066 138.427 152.196 138.546 152.266L141.628 154.045C141.707 154.079 141.792 154.094 141.878 154.088C141.963 154.082 142.046 154.056 142.12 154.012L145.613 151.996C145.764 151.914 145.786 151.785 145.662 151.714L142.579 149.935ZM73.3408 188.132L76.8393 186.115C76.9852 186.028 77.0069 185.904 76.8879 185.834L73.8058 184.049C73.7271 184.015 73.6414 184 73.5559 184.006C73.4703 184.012 73.3874 184.038 73.3138 184.082L69.8208 186.099C69.6694 186.185 69.6477 186.309 69.7721 186.38L72.8542 188.159C72.9317 188.193 73.0162 188.208 73.1007 188.203C73.1852 188.198 73.2675 188.174 73.3408 188.132ZM132.414 155.813C132.338 155.774 132.254 155.754 132.168 155.754C132.082 155.754 131.998 155.774 131.922 155.813L128.429 157.83C128.283 157.916 128.261 158.041 128.38 158.111L131.462 159.89C131.541 159.925 131.626 159.941 131.712 159.936C131.797 159.931 131.88 159.906 131.954 159.863L135.447 157.846C135.593 157.76 135.615 157.635 135.496 157.565L132.414 155.813ZM159.028 140.446C158.95 140.411 158.864 140.395 158.779 140.4C158.693 140.405 158.61 140.43 158.536 140.473L155.043 142.49C154.892 142.576 154.87 142.706 154.994 142.776L158.076 144.555C158.154 144.589 158.238 144.604 158.323 144.6C158.407 144.595 158.49 144.571 158.563 144.528L162.061 142.511C162.207 142.425 162.229 142.295 162.11 142.225L159.028 140.446ZM167.236 139.278L159.304 134.698C159.226 134.664 159.142 134.649 159.057 134.654C158.973 134.658 158.89 134.683 158.817 134.725L155.324 136.747C155.173 136.829 155.151 136.958 155.275 137.029L163.202 141.603C163.281 141.638 163.366 141.654 163.452 141.649C163.537 141.644 163.62 141.619 163.694 141.576L167.187 139.559C167.317 139.473 167.339 139.332 167.236 139.278ZM113.348 166.854C113.271 166.821 113.186 166.805 113.102 166.81C113.017 166.815 112.935 166.839 112.862 166.881L108.536 169.363C108.39 169.45 108.368 169.574 108.487 169.645L111.569 171.424C111.648 171.458 111.733 171.474 111.819 171.469C111.904 171.465 111.987 171.44 112.061 171.396L116.387 168.915C116.539 168.828 116.56 168.704 116.436 168.633L113.348 166.854ZM126.25 159.403C126.172 159.369 126.088 159.354 126.003 159.359C125.919 159.364 125.837 159.388 125.763 159.43L120.388 162.534C120.237 162.621 120.215 162.745 120.34 162.815L123.422 164.594C123.499 164.628 123.584 164.643 123.668 164.639C123.753 164.634 123.835 164.61 123.909 164.567L129.289 161.464C129.435 161.377 129.456 161.253 129.332 161.182L126.25 159.403ZM101.523 173.678C101.444 173.644 101.359 173.629 101.273 173.635C101.187 173.641 101.104 173.667 101.031 173.711L72.2702 190.316C72.1242 190.403 72.0972 190.527 72.2215 190.597L75.3036 192.376C75.3812 192.41 75.4656 192.425 75.5502 192.421C75.6347 192.416 75.7169 192.391 75.7903 192.349L104.513 175.722C104.659 175.636 104.681 175.511 104.562 175.441L101.523 173.678ZM71.1455 191.219C71.0679 191.185 70.9835 191.17 70.899 191.175C70.8144 191.179 70.7322 191.204 70.6589 191.246L66.3331 193.728C66.1872 193.815 66.1655 193.939 66.2845 194.009L69.3666 195.794C69.4453 195.828 69.5309 195.842 69.6165 195.837C69.7021 195.831 69.785 195.805 69.8586 195.761L74.1843 193.279C74.3357 193.193 74.3574 193.068 74.233 192.998L71.1455 191.219ZM107.433 170.266C107.355 170.232 107.271 170.217 107.186 170.222C107.102 170.227 107.02 170.251 106.946 170.293L102.648 172.775C102.496 172.862 102.475 172.992 102.599 173.062L105.681 174.841C105.759 174.875 105.843 174.89 105.928 174.885C106.012 174.881 106.094 174.856 106.168 174.814L110.493 172.326C110.639 172.24 110.661 172.116 110.537 172.045L107.433 170.266ZM65.2301 194.631C65.1546 194.593 65.0713 194.573 64.9868 194.573C64.9022 194.573 64.8189 194.593 64.7434 194.631L60.4448 197.118C60.2934 197.205 60.2717 197.329 60.3961 197.399L63.4782 199.178C63.5557 199.212 63.6402 199.228 63.7247 199.223C63.8092 199.218 63.8915 199.194 63.9648 199.151L68.2635 196.67C68.4149 196.583 68.4365 196.453 68.3122 196.383L65.2301 194.631ZM119.264 163.437C119.188 163.398 119.103 163.378 119.018 163.378C118.932 163.378 118.848 163.398 118.772 163.437L114.473 165.924C114.327 166.006 114.305 166.135 114.424 166.206L117.49 167.99C117.569 168.025 117.654 168.04 117.74 168.036C117.825 168.031 117.908 168.006 117.982 167.963L122.308 165.476C122.454 165.395 122.476 165.265 122.357 165.194L119.264 163.437ZM137.497 152.85C137.419 152.817 137.334 152.803 137.25 152.808C137.165 152.814 137.083 152.839 137.01 152.882L133.517 154.899C133.366 154.98 133.344 155.11 133.468 155.18L136.55 156.959C136.628 156.993 136.712 157.008 136.797 157.004C136.882 156.999 136.964 156.975 137.037 156.932L140.53 154.915C140.682 154.829 140.703 154.699 140.579 154.629L137.497 152.85ZM148.587 144.663L152.08 142.647C152.231 142.56 152.253 142.436 152.128 142.365L149.046 140.586C148.969 140.553 148.884 140.537 148.8 140.542C148.715 140.547 148.633 140.571 148.56 140.614L145.067 142.641C144.915 142.728 144.894 142.852 145.018 142.922L148.1 144.707C148.181 144.743 148.27 144.76 148.358 144.754C148.447 144.748 148.533 144.721 148.608 144.674L148.587 144.663ZM127.602 145.588L131.095 143.566C131.246 143.485 131.268 143.355 131.143 143.285L128.061 141.506C127.986 141.468 127.902 141.448 127.818 141.448C127.733 141.448 127.65 141.468 127.575 141.506L124.082 143.523C123.93 143.609 123.909 143.739 124.033 143.809L127.115 145.588C127.192 145.631 127.279 145.655 127.368 145.657C127.456 145.659 127.544 145.639 127.623 145.599L127.602 145.588ZM114.181 164.513L124.395 158.619C124.541 158.533 124.563 158.403 124.444 158.333L121.362 156.554C121.283 156.519 121.198 156.503 121.112 156.508C121.027 156.513 120.944 156.538 120.87 156.581L110.677 162.507C110.531 162.594 110.51 162.718 110.629 162.788L113.711 164.567C113.789 164.602 113.874 164.618 113.96 164.613C114.045 164.608 114.129 164.583 114.203 164.54L114.181 164.513ZM142.99 147.627C143.069 147.661 143.154 147.677 143.24 147.672C143.325 147.668 143.408 147.643 143.482 147.6L146.975 145.583C147.121 145.496 147.143 145.366 147.024 145.296L143.942 143.517C143.866 143.478 143.782 143.458 143.696 143.458C143.61 143.458 143.526 143.478 143.45 143.517L139.957 145.539C139.811 145.621 139.789 145.75 139.908 145.821L142.99 147.627ZM138.632 144.799L142.125 142.782C142.277 142.695 142.298 142.571 142.174 142.501L139.092 140.722C139.014 140.688 138.93 140.673 138.845 140.677C138.761 140.682 138.679 140.706 138.605 140.749L135.112 142.766C134.961 142.852 134.939 142.976 135.064 143.047L138.146 144.826C138.224 144.867 138.311 144.889 138.4 144.889C138.488 144.889 138.576 144.867 138.654 144.826L138.632 144.799ZM109.071 167.465L112.57 165.443C112.716 165.362 112.737 165.232 112.613 165.162L109.531 163.383C109.453 163.349 109.369 163.334 109.284 163.339C109.2 163.343 109.118 163.368 109.044 163.41L105.595 165.454C105.443 165.541 105.421 165.67 105.546 165.741L108.628 167.52C108.703 167.55 108.783 167.563 108.863 167.559C108.944 167.554 109.022 167.531 109.093 167.492L109.071 167.465ZM131.7 154.142C131.779 154.177 131.864 154.193 131.95 154.188C132.035 154.183 132.118 154.158 132.192 154.115L135.685 152.098C135.831 152.012 135.853 151.887 135.734 151.817L132.652 150.038C132.576 149.999 132.491 149.979 132.406 149.979C132.32 149.979 132.236 149.999 132.16 150.038L128.667 152.055C128.521 152.142 128.499 152.266 128.618 152.336L131.7 154.142ZM83.5333 182.205L87.0317 180.188C87.1777 180.102 87.1994 179.978 87.0804 179.907L83.9983 178.128C83.92 178.094 83.8346 178.078 83.749 178.083C83.6635 178.087 83.5803 178.112 83.5063 178.155L80.0133 180.172C79.8619 180.259 79.8402 180.383 79.9646 180.453L83.0467 182.232C83.1249 182.274 83.2122 182.296 83.3008 182.296C83.3894 182.296 83.4767 182.274 83.5549 182.232L83.5333 182.205ZM88.6431 179.258L92.1361 177.242C92.2875 177.155 92.3091 177.031 92.1848 176.96L89.1027 175.176C89.0247 175.143 88.94 175.129 88.8555 175.134C88.771 175.14 88.6889 175.165 88.616 175.209L85.123 177.225C84.9716 177.312 84.95 177.436 85.0689 177.507L88.1564 179.286C88.2347 179.327 88.3219 179.349 88.4106 179.349C88.4992 179.349 88.5865 179.327 88.6647 179.286L88.6431 179.258ZM78.4506 185.185L81.9436 183.168C82.095 183.081 82.1166 182.952 81.9923 182.881L78.9102 181.102C78.8326 181.068 78.7482 181.053 78.6636 181.058C78.5791 181.063 78.4969 181.087 78.4235 181.129L74.9251 183.13C74.7791 183.217 74.7575 183.346 74.8765 183.417L77.9585 185.196C78.0356 185.233 78.1203 185.251 78.2059 185.249C78.2914 185.247 78.3753 185.225 78.4506 185.185ZM98.8788 173.397L102.372 171.38C102.523 171.294 102.545 171.169 102.421 171.099L99.3384 169.32C99.2609 169.286 99.1764 169.271 99.0919 169.276C99.0074 169.28 98.9251 169.305 98.8518 169.347L95.3588 171.364C95.2074 171.451 95.1857 171.575 95.3101 171.645L98.3922 173.424C98.4697 173.458 98.5542 173.473 98.6387 173.469C98.7232 173.464 98.8055 173.439 98.8788 173.397ZM93.7745 176.349L97.2675 174.327C97.4135 174.246 97.4351 174.116 97.3162 174.046L94.2341 172.267C94.1558 172.232 94.0703 172.217 93.9848 172.221C93.8992 172.226 93.816 172.251 93.742 172.294L90.249 174.311C90.103 174.397 90.0814 174.527 90.2003 174.597L93.2824 176.376C93.3615 176.41 93.4474 176.424 93.533 176.417C93.6186 176.41 93.7013 176.384 93.7745 176.339V176.349ZM103.972 170.439L107.465 168.423C107.611 168.336 107.633 168.212 107.514 168.141L104.432 166.357C104.353 166.323 104.268 166.308 104.182 166.314C104.096 166.32 104.013 166.345 103.94 166.389L100.447 168.406C100.301 168.493 100.279 168.617 100.398 168.687L103.48 170.466C103.559 170.501 103.644 170.517 103.73 170.512C103.815 170.508 103.898 170.483 103.972 170.439ZM132.209 129.599C132.284 129.637 132.367 129.657 132.452 129.657C132.536 129.657 132.62 129.637 132.695 129.599L136.194 127.582C136.34 127.496 136.361 127.366 136.242 127.296L135.42 126.825C135.345 126.787 135.262 126.767 135.177 126.767C135.093 126.767 135.009 126.787 134.934 126.825L131.435 128.842C131.289 128.929 131.268 129.053 131.387 129.123L132.209 129.599ZM106.73 145.637C106.808 145.671 106.892 145.686 106.977 145.681C107.061 145.676 107.143 145.652 107.217 145.61L110.71 143.593C110.861 143.506 110.883 143.382 110.758 143.312L107.676 141.533C107.599 141.499 107.514 141.484 107.43 141.488C107.345 141.493 107.263 141.517 107.19 141.56L103.691 143.577C103.545 143.663 103.524 143.788 103.643 143.858L106.73 145.637ZM116.95 139.738C117.027 139.771 117.112 139.787 117.196 139.782C117.281 139.777 117.363 139.753 117.436 139.711L120.929 137.694C121.081 137.607 121.102 137.483 120.978 137.412L117.896 135.634C117.82 135.595 117.737 135.576 117.652 135.576C117.568 135.576 117.485 135.595 117.409 135.634L113.916 137.65C113.765 137.737 113.743 137.861 113.867 137.932L116.95 139.738ZM100.496 149.238C100.574 149.273 100.659 149.288 100.745 149.284C100.83 149.279 100.914 149.254 100.988 149.211L104.481 147.194C104.627 147.108 104.648 146.983 104.529 146.913L101.447 145.128C101.369 145.095 101.283 145.08 101.197 145.085C101.112 145.091 101.029 145.117 100.955 145.161L97.4838 147.178C97.3378 147.264 97.3162 147.389 97.4351 147.459L100.496 149.238ZM111.851 142.69C111.927 142.729 112.011 142.749 112.097 142.749C112.182 142.749 112.266 142.729 112.343 142.69L115.836 140.668C115.982 140.586 116.003 140.457 115.884 140.386L112.802 138.607C112.724 138.573 112.639 138.557 112.553 138.562C112.467 138.566 112.384 138.591 112.31 138.634L108.817 140.651C108.671 140.738 108.65 140.868 108.769 140.938L111.851 142.69ZM90.2923 155.126C90.3698 155.16 90.4543 155.175 90.5388 155.171C90.6233 155.166 90.7056 155.142 90.7789 155.099L94.2773 153.077C94.4233 152.996 94.445 152.866 94.326 152.796L91.2439 151.017C91.1656 150.982 91.0802 150.966 90.9946 150.971C90.9091 150.976 90.8259 151.001 90.7519 151.044L87.2588 153.061C87.1074 153.147 87.0858 153.277 87.2102 153.347L90.2923 155.126ZM95.402 152.174C95.4775 152.212 95.5608 152.232 95.6453 152.232C95.7299 152.232 95.8132 152.212 95.8887 152.174L99.3817 150.157C99.5331 150.071 99.5547 149.946 99.4304 149.876L96.3483 148.097C96.2707 148.063 96.1863 148.048 96.1017 148.053C96.0172 148.057 95.935 148.082 95.8616 148.124L92.3524 150.146C92.201 150.233 92.1794 150.357 92.3037 150.428L95.402 152.174ZM121.994 135.547C122.072 135.58 122.157 135.594 122.242 135.589C122.326 135.583 122.408 135.558 122.481 135.515L125.979 133.498C126.125 133.411 126.147 133.287 126.028 133.217L125.206 132.741C125.128 132.707 125.042 132.692 124.956 132.698C124.871 132.703 124.788 132.729 124.714 132.773L121.221 134.79C121.075 134.877 121.054 135.001 121.173 135.071L121.994 135.547ZM137.318 126.701C137.396 126.734 137.481 126.748 137.565 126.743C137.65 126.737 137.732 126.712 137.805 126.668L141.282 124.625C141.433 124.538 141.455 124.414 141.33 124.343L140.514 123.868C140.435 123.834 140.35 123.819 140.264 123.824C140.178 123.83 140.095 123.856 140.022 123.9L136.529 125.917C136.377 126.003 136.356 126.128 136.48 126.198L137.318 126.701ZM143.807 130.437C143.885 130.472 143.971 130.488 144.056 130.483C144.142 130.478 144.225 130.453 144.299 130.41L147.792 128.393C147.938 128.307 147.96 128.177 147.841 128.107L144.759 126.328C144.682 126.289 144.598 126.269 144.513 126.269C144.427 126.269 144.343 126.289 144.266 126.328L140.741 128.35C140.595 128.431 140.573 128.561 140.692 128.631L143.807 130.437ZM153.718 141.727L157.211 139.711C157.357 139.624 157.384 139.5 157.26 139.429L154.178 137.65C154.1 137.616 154.014 137.6 153.929 137.605C153.843 137.609 153.76 137.634 153.686 137.677L150.193 139.694C150.047 139.781 150.025 139.905 150.144 139.975L153.226 141.754C153.304 141.789 153.39 141.805 153.475 141.8C153.561 141.796 153.644 141.771 153.718 141.727ZM127.104 132.568C127.182 132.602 127.266 132.617 127.351 132.612C127.435 132.607 127.517 132.583 127.591 132.541L131.084 130.524C131.235 130.437 131.257 130.313 131.133 130.243L130.311 129.767C130.233 129.733 130.149 129.718 130.064 129.722C129.98 129.727 129.897 129.752 129.824 129.794L126.331 131.811C126.18 131.897 126.158 132.027 126.282 132.097L127.104 132.568ZM85.1663 158.084C85.2446 158.119 85.33 158.135 85.4156 158.13C85.5011 158.125 85.5843 158.1 85.6583 158.057L89.1513 156.04C89.3027 155.954 89.3244 155.829 89.2 155.759L86.1179 153.975C86.0399 153.942 85.9553 153.927 85.8707 153.933C85.7862 153.938 85.7042 153.964 85.6313 154.007L82.1329 156.024C81.9869 156.11 81.9652 156.235 82.0842 156.305L85.1663 158.084Z" fill="#455A64"/>
<path d="M100.812 184.46L101.526 184.871L120.559 195.859L154.402 176.317L155.105 175.917L135.358 164.519L100.812 184.46Z" fill="#263238"/>
<path d="M154.087 176.499L135.357 165.696L101.838 185.053L120.557 195.857L154.087 176.499Z" fill="#37474F"/>
<path d="M175.461 26.0122C175.461 24.5902 174.963 23.5844 174.157 23.114C173.352 22.6436 168.626 19.913 167.804 19.448C166.982 18.9829 165.874 19.0532 164.641 19.767L76.3906 70.7348V99.9335L82.717 103.583L170.962 52.6317C173.449 51.1988 175.461 47.7166 175.461 44.8454V26.0122Z" fill="#C778FF"/>
<path opacity="0.15" d="M175.461 26.0122C175.461 24.5902 174.963 23.5844 174.157 23.114C173.352 22.6436 168.626 19.913 167.804 19.448C166.982 18.9829 165.874 19.0532 164.641 19.767L76.3906 70.7348V99.9335L82.717 103.583L170.962 52.6317C173.449 51.1988 175.461 47.7166 175.461 44.8454V26.0122Z" fill="black"/>
<path d="M170.962 23.411C173.449 21.9781 175.461 23.1407 175.461 26.0065V44.8396C175.461 47.7108 173.449 51.193 170.962 52.6259L82.6899 103.594V74.3951L170.962 23.411Z" fill="#C778FF"/>
<path d="M170.055 50.2205C170.935 49.6445 171.668 48.8697 172.194 47.9587C172.72 47.0477 173.025 46.0259 173.083 44.9755V27.5753C173.083 26.2019 172.115 25.645 170.92 26.3263L84.4653 76.283V99.6743L170.055 50.2205Z" fill="#FAFAFA"/>
<path d="M99.53 85.262C99.5301 85.4006 99.4987 85.5374 99.4381 85.6621C99.3921 85.7749 99.3129 85.8711 99.211 85.9378L97.7186 86.7976C97.6876 86.8261 97.6471 86.8419 97.605 86.8419C97.563 86.8419 97.5224 86.8261 97.4915 86.7976C97.4234 86.7163 97.3903 86.6113 97.3996 86.5056V81.8879C97.4305 81.5 97.3438 81.1119 97.1508 80.774C96.9832 80.5523 96.7237 80.5469 96.3668 80.774C96.0091 80.9816 95.7341 81.3063 95.5882 81.6932C95.4242 82.1417 95.3436 82.6163 95.3503 83.0937V87.7114C95.3489 87.8522 95.3156 87.9909 95.2529 88.1169C95.2038 88.2278 95.1253 88.3232 95.0258 88.3927L93.5335 89.2524C93.5025 89.2809 93.462 89.2968 93.4199 89.2968C93.3778 89.2968 93.3373 89.2809 93.3063 89.2524C93.2382 89.1711 93.2052 89.0661 93.2144 88.9604V76.9241C93.2164 76.7857 93.2478 76.6494 93.3063 76.524C93.3523 76.4111 93.4315 76.315 93.5335 76.2482L95.0258 75.3831C95.0578 75.3567 95.0979 75.3423 95.1394 75.3423C95.1808 75.3423 95.221 75.3567 95.2529 75.3831C95.2887 75.4222 95.3158 75.4684 95.3326 75.5187C95.3494 75.569 95.3554 75.6223 95.3503 75.6751V79.5628C95.5168 79.1793 95.7273 78.8164 95.9775 78.4814C96.2341 78.105 96.57 77.7894 96.9616 77.5568C97.2773 77.3598 97.6346 77.2394 98.0052 77.2053C98.153 77.1927 98.3018 77.2117 98.4416 77.2611C98.5815 77.3105 98.7092 77.3892 98.8162 77.4919C99.0821 77.7672 99.2689 78.109 99.357 78.4814C99.4986 79.0542 99.5623 79.6435 99.5462 80.2333L99.53 85.262Z" fill="#455A64"/>
<path d="M103.629 79.6642C103.611 79.8645 103.652 80.0659 103.748 80.2427C103.824 80.3455 103.959 80.3509 104.137 80.2427L105.089 79.702C105.12 79.675 105.159 79.6601 105.2 79.6601C105.241 79.6601 105.28 79.675 105.311 79.702C105.347 79.7411 105.374 79.7874 105.391 79.8377C105.407 79.888 105.413 79.9412 105.408 79.994V81.8378C105.407 81.9769 105.373 82.1138 105.311 82.238C105.27 82.3521 105.192 82.4493 105.089 82.5137L103.959 83.1626C103.655 83.3576 103.308 83.4746 102.948 83.5032C102.664 83.5209 102.384 83.4257 102.169 83.2383C101.929 83.0081 101.757 82.7163 101.672 82.3948C101.542 81.9396 101.482 81.4675 101.493 80.9943V77.9285L100.617 78.4313C100.586 78.4598 100.546 78.4756 100.504 78.4756C100.462 78.4756 100.421 78.4598 100.39 78.4313C100.322 78.35 100.289 78.245 100.298 78.1393V76.2955C100.301 76.1572 100.332 76.021 100.39 75.8954C100.436 75.7825 100.516 75.6863 100.617 75.6196L101.493 75.1113V72.1374C101.495 71.9983 101.528 71.8614 101.591 71.7373C101.635 71.625 101.712 71.5288 101.812 71.4615L103.31 70.6018C103.34 70.5736 103.38 70.558 103.421 70.558C103.462 70.558 103.502 70.5736 103.532 70.6018C103.567 70.6414 103.593 70.6877 103.61 70.7379C103.627 70.788 103.633 70.841 103.629 70.8938V73.9001L104.97 73.1269C105 73.0988 105.04 73.0831 105.081 73.0831C105.122 73.0831 105.162 73.0988 105.192 73.1269C105.227 73.1666 105.253 73.2129 105.27 73.263C105.287 73.3132 105.293 73.3662 105.289 73.4189V75.2627C105.288 75.4035 105.255 75.5422 105.192 75.6683C105.148 75.7807 105.071 75.877 104.97 75.944L103.629 76.7173V79.6642Z" fill="#455A64"/>
<path d="M109.247 76.4247C109.229 76.6251 109.27 76.8264 109.366 77.0033C109.445 77.1114 109.575 77.1114 109.755 77.0033L110.707 76.4625C110.738 76.4355 110.777 76.4207 110.818 76.4207C110.859 76.4207 110.898 76.4355 110.929 76.4625C110.965 76.5017 110.992 76.5479 111.008 76.5982C111.025 76.6485 111.031 76.7018 111.026 76.7545V78.5984C111.025 78.7374 110.991 78.8743 110.929 78.9985C110.888 79.1127 110.81 79.2098 110.707 79.2743L109.582 79.9231C109.276 80.1175 108.927 80.2344 108.566 80.2638C108.282 80.2814 108.002 80.1862 107.787 79.9988C107.547 79.7687 107.375 79.4768 107.29 79.1553C107.163 78.6996 107.102 78.2279 107.111 77.7548V74.689L106.235 75.1919C106.206 75.2212 106.166 75.2377 106.125 75.2377C106.083 75.2377 106.043 75.2212 106.014 75.1919C105.978 75.1527 105.951 75.1065 105.934 75.0562C105.917 75.0059 105.911 74.9526 105.916 74.8999V73.056C105.918 72.917 105.952 72.7803 106.014 72.6559C106.058 72.5434 106.135 72.4472 106.235 72.3801L107.111 71.8719V68.8979C107.112 68.7593 107.143 68.6226 107.203 68.4978C107.249 68.385 107.328 68.2888 107.43 68.222L108.923 67.3623C108.954 67.3349 108.995 67.3198 109.036 67.3198C109.078 67.3198 109.118 67.3349 109.15 67.3623C109.216 67.4447 109.249 67.5489 109.242 67.6543V70.6607L110.583 69.8874C110.614 69.8589 110.654 69.8431 110.696 69.8431C110.738 69.8431 110.779 69.8589 110.81 69.8874C110.878 69.9687 110.911 70.0738 110.902 70.1794V72.0179C110.9 72.158 110.868 72.2961 110.81 72.4234C110.762 72.5354 110.684 72.6312 110.583 72.6992L109.242 73.4724L109.247 76.4247Z" fill="#455A64"/>
<path d="M115.759 76.5548C115.572 76.6683 115.367 76.7487 115.153 76.7927C115.005 76.8261 114.852 76.8261 114.704 76.7927C114.584 76.7635 114.473 76.7061 114.38 76.6251C114.302 76.5546 114.232 76.4767 114.169 76.3926V80.2803C114.167 80.4193 114.134 80.5561 114.072 80.6804C114.031 80.7946 113.953 80.8917 113.85 80.9562L112.352 81.8214C112.322 81.8483 112.282 81.8632 112.241 81.8632C112.201 81.8632 112.161 81.8483 112.131 81.8214C112.095 81.783 112.068 81.7377 112.052 81.6884C112.035 81.639 112.029 81.5867 112.033 81.5348V69.5201C112.035 69.3811 112.068 69.2443 112.131 69.1199C112.175 69.0077 112.252 68.9115 112.352 68.8442L113.791 68.0169C113.821 67.9899 113.861 67.975 113.901 67.975C113.942 67.975 113.982 67.9899 114.012 68.0169C114.048 68.056 114.075 68.1022 114.092 68.1525C114.109 68.2028 114.115 68.2561 114.11 68.3089V68.7252C114.18 68.563 114.256 68.3954 114.342 68.2115C114.426 68.021 114.529 67.8398 114.65 67.6708C114.781 67.4842 114.932 67.312 115.099 67.1571C115.298 66.9696 115.52 66.8079 115.759 66.6759C116.063 66.4858 116.407 66.3709 116.765 66.3407C116.915 66.3281 117.066 66.3471 117.208 66.3965C117.351 66.4458 117.482 66.5244 117.592 66.6272C117.866 66.8958 118.065 67.2313 118.17 67.6005C118.334 68.1589 118.416 68.7381 118.414 69.32C118.414 69.4984 118.414 69.7418 118.414 70.0554C118.414 70.369 118.414 70.5961 118.414 70.8016C118.404 71.4752 118.322 72.1459 118.17 72.8022C118.037 73.3625 117.843 73.9065 117.592 74.4244C117.377 74.88 117.099 75.3024 116.765 75.6788C116.478 76.0224 116.138 76.3181 115.759 76.5548ZM116.3 71.8289C116.327 71.4888 116.327 71.1471 116.3 70.807C116.299 70.4692 116.205 70.1381 116.029 69.8499C115.872 69.6282 115.607 69.6174 115.234 69.8499C115.062 69.9509 114.91 70.0829 114.785 70.2392C114.655 70.4029 114.549 70.5851 114.472 70.7799C114.387 70.9659 114.32 71.1597 114.272 71.3585C114.228 71.5509 114.197 71.746 114.18 71.9425C114.18 72.1317 114.18 72.348 114.18 72.5967C114.18 72.8455 114.18 73.0455 114.18 73.2186C114.195 73.3798 114.226 73.5392 114.272 73.6944C114.313 73.8243 114.381 73.9441 114.472 74.0459C114.511 74.0915 114.559 74.1288 114.613 74.1558C114.667 74.1827 114.725 74.1986 114.785 74.2027C114.945 74.2048 115.102 74.1576 115.234 74.0675C115.601 73.8619 115.883 73.5322 116.029 73.1375C116.187 72.7185 116.275 72.2764 116.289 71.8289H116.3Z" fill="#455A64"/>
<path d="M121.704 66.0552C121.703 66.1937 121.672 66.3302 121.613 66.4554C121.567 66.5682 121.487 66.6644 121.385 66.7311L119.834 67.6287C119.802 67.6551 119.761 67.6695 119.72 67.6695C119.679 67.6695 119.638 67.6551 119.606 67.6287C119.572 67.5891 119.546 67.5427 119.53 67.4924C119.514 67.4422 119.509 67.3891 119.515 67.3367V64.9306C119.514 64.7919 119.545 64.6549 119.606 64.5304C119.652 64.4176 119.732 64.3214 119.834 64.2547L121.385 63.3571C121.417 63.3307 121.458 63.3163 121.499 63.3163C121.54 63.3163 121.581 63.3307 121.613 63.3571C121.681 63.4384 121.714 63.5434 121.704 63.6491V66.0552ZM121.704 72.4465C121.702 72.5848 121.671 72.721 121.613 72.8466C121.567 72.9595 121.487 73.0557 121.385 73.1224L119.834 74.02C119.802 74.0464 119.761 74.0608 119.72 74.0608C119.679 74.0608 119.638 74.0464 119.606 74.02C119.572 73.9799 119.547 73.9334 119.531 73.8833C119.515 73.8331 119.51 73.7803 119.515 73.728V71.3326C119.514 71.194 119.546 71.0572 119.606 70.9325C119.652 70.8197 119.732 70.7235 119.834 70.6567L121.385 69.7591C121.417 69.7328 121.458 69.7184 121.499 69.7184C121.54 69.7184 121.581 69.7328 121.613 69.7591C121.679 69.8415 121.711 69.9457 121.704 70.0511V72.4465Z" fill="#455A64"/>
<path d="M126.647 56.286C126.688 56.1211 126.748 55.9614 126.825 55.8101C126.9 55.6537 127.021 55.5236 127.171 55.437L128.637 54.5881C128.663 54.567 128.695 54.5555 128.728 54.5555C128.762 54.5555 128.794 54.567 128.82 54.5881C128.85 54.6198 128.872 54.6574 128.886 54.6984C128.9 54.7394 128.905 54.7829 128.902 54.826C128.899 54.8863 128.89 54.9461 128.874 55.0045L124.884 72.0749C124.843 72.2331 124.787 72.387 124.716 72.5345C124.64 72.6975 124.515 72.8333 124.359 72.9238L122.894 73.7727C122.869 73.7948 122.836 73.8069 122.802 73.8069C122.768 73.8069 122.736 73.7948 122.71 73.7727C122.681 73.741 122.658 73.7034 122.644 73.6624C122.63 73.6214 122.625 73.5779 122.629 73.5348C122.632 73.4745 122.641 73.4147 122.656 73.3564L126.647 56.286Z" fill="#455A64"/>
<path d="M130.71 53.941C130.751 53.7762 130.811 53.6165 130.889 53.4652C130.964 53.3088 131.084 53.1787 131.235 53.0921L132.705 52.2432C132.731 52.2211 132.763 52.209 132.797 52.209C132.831 52.209 132.864 52.2211 132.889 52.2432C132.917 52.2757 132.938 52.3136 132.951 52.3544C132.964 52.3953 132.969 52.4384 132.965 52.4811C132.962 52.5414 132.953 52.6012 132.938 52.6595L128.947 69.7299C128.905 69.8879 128.849 70.0417 128.78 70.1896C128.703 70.3526 128.579 70.4884 128.423 70.5789L126.979 71.4116C126.954 71.4336 126.921 71.4458 126.887 71.4458C126.853 71.4458 126.821 71.4336 126.795 71.4116C126.766 71.3798 126.743 71.3422 126.729 71.3013C126.715 71.2603 126.71 71.2168 126.714 71.1737C126.717 71.1134 126.726 71.0536 126.741 70.9952L130.71 53.941Z" fill="#455A64"/>
<path d="M138.567 53.7238C138.686 53.6535 138.778 53.6535 138.843 53.7238C138.903 53.7846 138.947 53.8588 138.973 53.9401L139.849 57.5791L140.725 52.9289C140.757 52.8027 140.8 52.6797 140.855 52.5613C140.912 52.4334 141.008 52.3273 141.13 52.2585L142.601 51.4095C142.628 51.3841 142.664 51.3699 142.701 51.3699C142.738 51.3699 142.774 51.3841 142.801 51.4095C142.861 51.482 142.891 51.5752 142.882 51.6691C142.887 51.7212 142.887 51.7737 142.882 51.8259L140.995 61.3641C140.969 61.4941 140.929 61.6209 140.876 61.7426C140.82 61.869 140.725 61.9748 140.606 62.0454L139.254 62.824C139.135 62.8943 139.049 62.8943 138.995 62.824C138.938 62.753 138.894 62.6725 138.865 62.5861L138.021 59.2445L137.183 63.5702C137.151 63.7024 137.106 63.831 137.048 63.9541C136.999 64.0804 136.907 64.1855 136.788 64.2515L135.437 65.0356C135.318 65.1005 135.231 65.1059 135.172 65.0356C135.109 64.969 135.066 64.8868 135.047 64.7976L133.16 57.4385C133.158 57.3917 133.158 57.3447 133.16 57.2979C133.159 57.1737 133.189 57.0511 133.247 56.941C133.287 56.8399 133.357 56.7532 133.447 56.6923L134.918 55.8434C135.036 55.7785 135.123 55.7731 135.188 55.8434C135.25 55.9025 135.295 55.9772 135.318 56.0597L136.194 59.6987L137.075 55.0485C137.103 54.9211 137.147 54.7976 137.205 54.6809C137.26 54.5534 137.355 54.4472 137.475 54.3781L138.567 53.7238Z" fill="#455A64"/>
<path d="M148.807 47.8037C148.926 47.7334 149.018 47.7334 149.077 47.8037C149.14 47.8619 149.185 47.9369 149.207 48.0199L150.088 51.6536L150.964 47.0088C150.99 46.8809 151.034 46.7572 151.094 46.6411C151.151 46.5132 151.245 46.4057 151.364 46.3329L152.835 45.4894C152.864 45.4647 152.9 45.451 152.938 45.451C152.976 45.451 153.012 45.4647 153.041 45.4894C153.101 45.5618 153.13 45.6551 153.122 45.7489C153.124 45.7994 153.124 45.8499 153.122 45.9003L151.235 55.4386C151.21 55.5713 151.168 55.7003 151.11 55.8225C151.057 55.9495 150.964 56.0559 150.845 56.1253L149.493 56.9039C149.374 56.9742 149.288 56.9742 149.234 56.9039C149.173 56.8346 149.127 56.7536 149.099 56.666L148.261 53.319L147.417 57.6447C147.383 57.7757 147.34 57.904 147.287 58.0286C147.236 58.1539 147.145 58.2586 147.028 58.326L145.676 59.11C145.557 59.1749 145.465 59.1803 145.411 59.11C145.349 59.0435 145.306 58.9612 145.287 58.8721L143.4 51.5076C143.397 51.4625 143.397 51.4174 143.4 51.3724C143.4 51.2472 143.428 51.1235 143.481 51.0101C143.524 50.9121 143.593 50.8278 143.681 50.7668L145.151 49.9179C145.27 49.853 145.362 49.8476 145.427 49.9179C145.487 49.9787 145.531 50.0528 145.557 50.1341L146.433 53.7732L147.309 49.123C147.341 48.9968 147.384 48.8737 147.439 48.7553C147.497 48.6285 147.594 48.5228 147.714 48.4525L148.807 47.8037Z" fill="#455A64"/>
<path d="M159.08 41.8729C159.199 41.8026 159.291 41.8026 159.356 41.8729C159.418 41.9316 159.463 42.0065 159.486 42.0892L160.362 45.7228L161.238 41.0726C161.27 40.9473 161.315 40.8258 161.373 40.7103C161.428 40.5813 161.523 40.4732 161.643 40.4021L163.114 39.5532C163.143 39.5308 163.178 39.5187 163.214 39.5187C163.25 39.5187 163.286 39.5308 163.314 39.5532C163.375 39.6276 163.404 39.7226 163.395 39.8181C163.4 39.8685 163.4 39.9192 163.395 39.9695L161.514 49.5078C161.486 49.6399 161.444 49.7686 161.389 49.8917C161.334 50.0176 161.239 50.122 161.119 50.1891L159.767 50.9731C159.648 51.0434 159.562 51.0434 159.508 50.9731C159.452 50.9014 159.408 50.821 159.378 50.7352L158.523 47.4098L157.685 51.7355C157.652 51.8666 157.608 51.9949 157.556 52.1194C157.501 52.2441 157.408 52.3482 157.291 52.4168L155.939 53.1954C155.825 53.2657 155.733 53.2711 155.674 53.1954C155.615 53.1268 155.572 53.0454 155.55 52.9575L153.668 45.593C153.662 45.5481 153.662 45.5027 153.668 45.4578C153.668 45.3319 153.697 45.2077 153.754 45.0955C153.795 44.9964 153.865 44.9117 153.954 44.8522L155.425 44.0033C155.544 43.933 155.631 43.933 155.695 44.0033C155.759 44.0615 155.804 44.1366 155.825 44.2196L156.701 47.8586L157.583 43.2084C157.61 43.0808 157.653 42.9572 157.712 42.8407C157.767 42.7133 157.862 42.6071 157.983 42.5379L159.08 41.8729Z" fill="#455A64"/>
<path d="M166.01 46.8658C166.008 47.0066 165.975 47.1453 165.912 47.2714C165.867 47.383 165.79 47.4788 165.69 47.5471L164.139 48.4393C164.107 48.4667 164.067 48.4818 164.025 48.4818C163.983 48.4818 163.943 48.4667 163.912 48.4393C163.877 48.3996 163.85 48.3533 163.833 48.3032C163.817 48.253 163.81 48.2 163.814 48.1473V45.7357C163.816 45.5967 163.849 45.46 163.912 45.3356C163.956 45.2216 164.035 45.1249 164.139 45.0598L165.69 44.1622C165.721 44.1353 165.761 44.1204 165.801 44.1204C165.842 44.1204 165.882 44.1353 165.912 44.1622C165.948 44.2014 165.975 44.2476 165.992 44.2979C166.009 44.3482 166.015 44.4015 166.01 44.4542V46.8658Z" fill="#455A64"/>
<path d="M78.7962 65.877L78.753 65.85L67.9386 59.4263L67.8792 59.3884C63.1155 56.5118 56.7566 56.966 49.922 61.4323C36.1824 70.4028 25.7142 92.1558 26.5415 110.021C26.9524 118.927 30.0885 125.188 34.836 128.113L34.8793 128.14L45.6936 134.564L45.7423 134.597C50.506 137.479 56.8702 137.03 63.7157 132.558C77.4498 123.593 87.9181 101.835 87.0962 83.9693C86.669 75.0637 83.5437 68.8077 78.7962 65.877Z" fill="#37474F"/>
<path d="M45.337 134.347L34.8633 128.14L34.82 128.102C30.0726 125.171 26.9364 118.91 26.5255 110.021C26.1578 102.05 28.0395 93.3178 31.446 85.2882L31.5163 85.1097L42.2657 91.7119C38.8538 99.7361 36.9775 108.474 37.3452 116.444C37.7399 125.161 40.7571 131.341 45.337 134.347Z" fill="#263238"/>
<path d="M63.709 132.554C77.4432 123.589 87.9114 101.83 87.0895 83.965C86.2676 66.0998 74.4584 58.8812 60.7242 67.8517C46.99 76.8222 36.5164 98.5806 37.3437 116.446C38.171 134.311 49.9694 141.524 63.709 132.554Z" fill="#455A64"/>
<path d="M55.9502 127.84C54.1544 127.857 52.3869 127.394 50.8296 126.499C46.5039 124.012 44.022 118.308 44.022 110.819C44.022 97.0898 52.3652 81.0793 62.6226 75.0989C67.2836 72.3954 71.8148 72.0385 75.4538 74.1148C79.7795 76.6021 82.2614 82.3121 82.2614 89.7956C82.2614 103.519 73.9181 119.535 63.6608 125.483C61.3441 126.936 58.6836 127.75 55.9502 127.84ZM70.3278 74.8772C67.9649 74.9586 65.6652 75.6617 63.6608 76.9157C53.9711 82.5554 46.1037 97.7712 46.1037 110.846C46.1037 117.545 48.2071 122.595 51.8786 124.71C54.8201 126.402 58.6429 126.051 62.6388 123.726C72.3284 118.091 80.2121 102.87 80.2121 89.801C80.2121 83.0961 78.1087 78.0458 74.4372 75.9316C73.1852 75.2218 71.7669 74.8579 70.3278 74.8772Z" fill="#F0F2F6"/>
<path d="M55.9543 93.523C53.7139 93.5395 51.5351 92.7897 49.7793 91.398L50.7364 90.176C53.8996 92.6525 58.1658 92.5443 62.7619 89.8732C67.5202 87.1047 71.9919 81.9733 75.3551 75.4307L76.734 76.139C73.241 82.9466 68.5529 88.2997 63.5405 91.2142C61.2592 92.6384 58.6422 93.4349 55.9543 93.523Z" fill="#F0F2F6"/>
<path d="M50.9526 125.215L49.5737 124.507C53.0668 117.705 57.7548 112.352 62.7672 109.432C67.9472 106.42 72.8353 106.355 76.5284 109.248L75.5713 110.47C72.4082 107.993 68.1419 108.102 63.5458 110.773C58.7875 113.541 54.3158 118.673 50.9526 125.215Z" fill="#F0F2F6"/>
<path d="M61.1462 125.988C60.4073 125.984 59.6829 125.782 59.0482 125.404C55.4038 123.311 53.1382 115.752 53.1382 105.689C53.1382 91.8092 57.3666 78.486 62.7575 75.3498C63.4208 74.9154 64.192 74.6742 64.9846 74.6532C65.7772 74.6322 66.5601 74.8322 67.2455 75.2309C70.8899 77.3289 73.1555 84.8827 73.1555 94.9454C73.1555 108.826 68.9271 122.149 63.5361 125.29C62.8149 125.729 61.9904 125.97 61.1462 125.988ZM65.1475 76.1988C64.572 76.2116 64.011 76.3818 63.5253 76.6908C58.7292 79.4755 54.6792 92.7555 54.6792 105.689C54.6792 116.342 57.2584 122.592 59.8106 124.074C60.2607 124.334 60.7754 124.462 61.2951 124.442C61.8147 124.421 62.318 124.255 62.7467 123.96C67.5429 121.17 71.5928 107.89 71.5928 94.9562C71.5928 84.3041 69.0136 78.0534 66.4614 76.5719C66.0639 76.3341 65.6107 76.2054 65.1475 76.1988Z" fill="#F0F2F6"/>
<path d="M63.9283 76.0271H62.3765V124.627H63.9283V76.0271Z" fill="#F0F2F6"/>
<path d="M80.0142 89.0078L44.022 109.933L44.7979 111.268L80.7901 90.3424L80.0142 89.0078Z" fill="#F0F2F6"/>
<path d="M189.716 66.0497C189.581 65.7403 189.357 65.4784 189.072 65.2981L187.45 64.368C186.752 63.9625 185.893 64.368 185.439 64.6384L184.433 64.0598C183.216 63.3244 181.518 64.8655 181.14 65.2332L180.702 64.9844C180.129 64.6384 179.35 64.8547 178.653 65.2061V59.3502C178.677 59.0996 178.638 58.8469 178.538 58.616C178.437 58.385 178.28 58.1836 178.079 58.0308H178.052L176.468 57.1116C176.234 57.0088 175.978 56.9687 175.723 56.9953C175.469 57.0218 175.227 57.1141 175.019 57.263C174.417 57.6563 173.917 58.1858 173.558 58.8086C173.199 59.4315 172.992 60.1302 172.953 60.848V78.7673C172.873 78.725 172.79 78.6871 172.705 78.6537C171.293 77.6534 169.806 77.064 168.498 77.2965C167.393 77.551 166.427 78.216 165.794 79.1566C165.113 80.3624 166.238 81.1194 167.692 82.7794C169.147 84.4394 170.396 86.413 171.721 87.6458C172.369 88.3012 173.138 88.8246 173.986 89.1869V91.5336L175.581 92.4582L187.737 85.4289V83.093C187.737 83.093 189.245 77.0802 189.726 74.5659C190.208 72.0516 190.646 67.98 189.716 66.0497Z" fill="#71389A"/>
<path opacity="0.8" d="M189.716 66.0497C189.581 65.7403 189.357 65.4784 189.072 65.2981L187.45 64.368C186.752 63.9625 185.893 64.368 185.439 64.6384L184.433 64.0598C183.216 63.3244 181.518 64.8655 181.14 65.2332L180.702 64.9844C180.129 64.6384 179.35 64.8547 178.653 65.2061V59.3502C178.677 59.0996 178.638 58.8469 178.538 58.616C178.437 58.385 178.28 58.1836 178.079 58.0308H178.052L176.468 57.1116C176.234 57.0088 175.978 56.9687 175.723 56.9953C175.469 57.0218 175.227 57.1141 175.019 57.263C174.417 57.6563 173.917 58.1858 173.558 58.8086C173.199 59.4315 172.992 60.1302 172.953 60.848V78.7673C172.873 78.725 172.79 78.6871 172.705 78.6537C171.293 77.6534 169.806 77.064 168.498 77.2965C167.393 77.551 166.427 78.216 165.794 79.1566C165.113 80.3624 166.238 81.1194 167.692 82.7794C169.147 84.4394 170.396 86.413 171.721 87.6458C172.369 88.3012 173.138 88.8246 173.986 89.1869V91.5336L175.581 92.4582L187.737 85.4289V83.093C187.737 83.093 189.245 77.0802 189.726 74.5659C190.208 72.0516 190.646 67.98 189.716 66.0497Z" fill="white"/>
<path opacity="0.2" d="M178.67 65.2541V67.2386C179.15 66.8224 179.674 66.4597 180.233 66.1571L178.67 65.2541ZM186.013 64.389C185.825 64.4653 185.644 64.5576 185.472 64.6648L186.013 64.9676C186.351 65.1576 186.618 65.4515 186.775 65.8057C187.055 65.583 187.364 65.4009 187.694 65.265L186.013 64.389ZM182.228 64.389C181.84 64.6368 181.477 64.923 181.146 65.2433L182.195 65.8543C182.217 65.8637 182.237 65.8765 182.255 65.8922C182.417 65.9762 182.558 66.0965 182.666 66.2437C183.006 65.9023 183.381 65.5978 183.785 65.3353L182.228 64.389ZM172.933 60.8257V78.772C173.494 79.0499 174.028 79.3794 174.528 79.7561V61.7449L172.933 60.8257ZM173.306 88.586C171.992 87.364 170.721 85.3796 169.283 83.7196C167.921 82.1569 166.834 81.3945 167.282 80.3077L165.66 79.3831C165.217 80.4645 166.293 81.2323 167.661 82.8004C169.029 84.3684 170.365 86.4286 171.684 87.6668C172.333 88.3208 173.103 88.844 173.949 89.2079V91.56L175.572 92.4792V90.1271C174.722 89.7589 173.952 89.2281 173.306 88.5644V88.586Z" fill="#71389A"/>
<path opacity="0.1" d="M178.67 65.2541V67.2386C179.15 66.8224 179.674 66.4597 180.233 66.1571L178.67 65.2541ZM186.013 64.389C185.825 64.4653 185.644 64.5576 185.472 64.6648L186.013 64.9676C186.351 65.1576 186.618 65.4515 186.775 65.8057C187.055 65.583 187.364 65.4009 187.694 65.265L186.013 64.389ZM182.228 64.389C181.84 64.6368 181.477 64.923 181.146 65.2433L182.195 65.8543C182.217 65.8637 182.237 65.8765 182.255 65.8922C182.417 65.9762 182.558 66.0965 182.666 66.2437C183.006 65.9023 183.381 65.5978 183.785 65.3353L182.228 64.389ZM172.933 60.8257V78.772C173.494 79.0499 174.028 79.3794 174.528 79.7561V61.7449L172.933 60.8257ZM173.306 88.586C171.992 87.364 170.721 85.3796 169.283 83.7196C167.921 82.1569 166.834 81.3945 167.282 80.3077L165.66 79.3831C165.217 80.4645 166.293 81.2323 167.661 82.8004C169.029 84.3684 170.365 86.4286 171.684 87.6668C172.333 88.3208 173.103 88.844 173.949 89.2079V91.56L175.572 92.4792V90.1271C174.722 89.7589 173.952 89.2281 173.306 88.5644V88.586Z" fill="black"/>
<path d="M175.572 92.4556V90.1251C174.724 89.7618 173.954 89.2366 173.306 88.5787C171.993 87.3567 170.722 85.3722 169.284 83.7122C167.845 82.0523 166.699 81.2952 167.386 80.084C168.02 79.1458 168.986 78.483 170.089 78.2294C171.479 77.9807 173.058 78.6566 174.545 79.7596V61.743C174.585 61.0256 174.793 60.3277 175.153 59.7058C175.512 59.0839 176.014 58.5555 176.616 58.1634C177.757 57.5038 178.681 58.0391 178.681 59.353V67.2204C178.681 67.2204 181.536 64.6899 182.688 66.2417C182.688 66.2417 185.489 63.3111 186.749 65.7875C186.749 65.7875 188.809 64.1275 189.733 66.0525C190.658 67.9774 190.215 72.049 189.733 74.5633C189.252 77.0777 187.727 83.0958 187.727 83.0958V85.4425L175.572 92.4556Z" fill="#71389A"/>
<path opacity="0.65" d="M175.572 92.4556V90.1251C174.724 89.7618 173.954 89.2366 173.306 88.5787C171.993 87.3567 170.722 85.3722 169.284 83.7122C167.845 82.0523 166.699 81.2952 167.386 80.084C168.02 79.1458 168.986 78.483 170.089 78.2294C171.479 77.9807 173.058 78.6566 174.545 79.7596V61.743C174.585 61.0256 174.793 60.3277 175.153 59.7058C175.512 59.0839 176.014 58.5555 176.616 58.1634C177.757 57.5038 178.681 58.0391 178.681 59.353V67.2204C178.681 67.2204 181.536 64.6899 182.688 66.2417C182.688 66.2417 185.489 63.3111 186.749 65.7875C186.749 65.7875 188.809 64.1275 189.733 66.0525C190.658 67.9774 190.215 72.049 189.733 74.5633C189.252 77.0777 187.727 83.0958 187.727 83.0958V85.4425L175.572 92.4556Z" fill="white"/>
<g opacity="0.1">
<path d="M178.671 70.5953C178.671 70.5953 178.931 67.005 180.25 66.1506H180.207C179.659 66.4441 179.144 66.7958 178.671 67.1996V67.1347C178.664 67.1558 178.664 67.1786 178.671 67.1996V70.5953Z" fill="black"/>
<path d="M182.685 66.2412V69.5233C182.685 69.5233 183.047 66.1492 183.804 65.3328C183.4 65.595 183.025 65.8995 182.685 66.2412Z" fill="black"/>
<path d="M186.733 65.7919V69.0848C186.733 69.0848 186.939 65.7648 187.653 65.2998C187.326 65.4221 187.016 65.5876 186.733 65.7919Z" fill="black"/>
</g>
<path opacity="0.15" d="M148.59 160.097C139.251 164.752 135.012 169.64 139.846 173.074C144.68 176.507 157.836 181.141 157.836 181.141L159.561 186.916L178.67 175.88V169.332C178.67 169.332 166.877 161.221 162.275 159.632C157.674 158.042 154.062 157.371 148.59 160.097Z" fill="black"/>
<path d="M174.942 189.686C174.942 189.686 172.06 196.764 171.909 199.554C171.757 202.458 171.054 203.426 171.546 206.583C171.655 207.27 172.017 208.649 172.087 209.211C172.118 209.329 172.122 209.451 172.099 209.571C172.077 209.69 172.028 209.803 171.957 209.901C171.885 209.999 171.793 210.081 171.687 210.139C171.58 210.197 171.462 210.231 171.341 210.239C170.076 210.503 167.983 208.13 166.983 205.551C165.979 202.576 165.16 199.542 164.528 196.467C164.478 195.764 164.617 195.06 164.928 194.428C165.086 194.058 165.279 193.705 165.507 193.374C165.923 192.108 166.123 189.702 166.474 188.037L174.942 189.686Z" fill="#FFBE9D"/>
<path d="M162.044 199.117C161.878 199.413 161.763 199.734 161.703 200.068C161.703 200.647 162.985 202.561 163.498 203.253C164.224 204.195 164.562 205.379 164.445 206.562C164.369 208.417 165.191 210.207 166.386 211.737C168.032 213.73 170.244 215.177 172.728 215.89C175.794 216.831 176.876 215.295 176.876 215.295C176.876 215.295 177.822 213.819 177.254 213.213C176.686 212.608 162.044 199.117 162.044 199.117Z" fill="#263238"/>
<path d="M165.491 193.401C165.399 193.401 165.232 193.374 164.994 193.66C164.902 193.768 164.345 195.147 163.88 195.872C163.415 196.596 162.198 197.97 162.047 199.143C162.755 201.414 164.886 202.993 165.205 205.14C165.524 207.286 165.562 209.768 168.854 212.396C172.147 215.024 175.538 215.289 176.754 214.591C177.971 213.894 177.836 212.596 176.165 210.109C174.364 207.476 173.148 201.76 173.148 201.755C172.99 200.953 172.883 200.142 172.829 199.327C172.846 198.52 172.922 197.716 173.056 196.921C173.121 196.553 173.068 196.175 172.904 195.839C172.673 195.542 172.356 195.324 171.996 195.212C171.456 194.957 170.888 194.765 170.304 194.639C169.716 194.514 169.103 194.588 168.563 194.85C168.214 195.099 167.853 195.33 167.481 195.542C167.211 195.651 166.916 195.682 166.629 195.632C166.342 195.581 166.075 195.451 165.859 195.255C165.64 195.084 165.481 194.848 165.402 194.582C165.324 194.315 165.33 194.031 165.421 193.768C165.438 193.645 165.461 193.522 165.491 193.401Z" fill="#455A64"/>
<path d="M166.925 210.262C167.409 209.437 168.109 208.759 168.951 208.303C169.793 207.848 170.743 207.631 171.699 207.678C175.198 207.678 176.409 209.473 176.939 210.517C177.577 211.766 178.237 214.026 176.793 214.675C175.23 215.372 173.424 215.156 170.585 213.734C167.747 212.312 166.925 210.262 166.925 210.262Z" fill="#FAFAFA"/>
<path d="M167.559 199.724C167.609 199.747 167.664 199.76 167.719 199.76C167.774 199.76 167.829 199.747 167.879 199.724C168.419 199.448 171.28 198.853 172.945 200.394C173.156 200.221 173.113 199.907 172.837 199.464C170.89 198.226 168.181 198.777 167.532 199.107C167.492 199.127 167.456 199.156 167.427 199.191C167.397 199.226 167.376 199.266 167.363 199.31C167.351 199.354 167.347 199.4 167.353 199.445C167.359 199.49 167.374 199.533 167.397 199.572C167.434 199.639 167.49 199.692 167.559 199.724Z" fill="#FAFAFA"/>
<path d="M173.3 202.432C173.345 202.267 173.35 202.094 173.315 201.927C173.281 201.759 173.207 201.603 173.1 201.469C172.311 201.1 171.457 200.892 170.587 200.857C169.717 200.822 168.849 200.96 168.033 201.264C167.994 201.285 167.959 201.315 167.93 201.35C167.902 201.385 167.881 201.425 167.869 201.468C167.856 201.511 167.852 201.557 167.857 201.602C167.862 201.646 167.876 201.69 167.898 201.729C167.937 201.795 167.996 201.848 168.066 201.88C168.115 201.906 168.17 201.919 168.225 201.919C168.281 201.919 168.335 201.906 168.385 201.88C168.909 201.615 171.618 201.048 173.3 202.432Z" fill="#FAFAFA"/>
<path d="M174.725 207.155C174.727 206.694 174.568 206.247 174.276 205.89C172.335 204.717 169.691 205.258 169.047 205.587C169.007 205.608 168.972 205.637 168.943 205.672C168.914 205.707 168.893 205.748 168.881 205.791C168.868 205.834 168.864 205.88 168.87 205.925C168.875 205.97 168.89 206.013 168.912 206.052C168.958 206.134 169.033 206.195 169.123 206.224C169.212 206.252 169.309 206.245 169.393 206.204C169.967 205.912 173.119 205.29 174.725 207.155Z" fill="#FAFAFA"/>
<path d="M168.573 204.044C168.623 204.068 168.678 204.081 168.733 204.081C168.788 204.081 168.843 204.068 168.892 204.044C169.433 203.769 172.229 203.19 173.905 204.666C173.938 204.483 173.929 204.295 173.878 204.116C173.828 203.937 173.737 203.772 173.613 203.633C172.824 203.264 171.97 203.056 171.1 203.021C170.23 202.985 169.362 203.124 168.546 203.428C168.507 203.449 168.472 203.478 168.444 203.514C168.415 203.549 168.394 203.589 168.382 203.632C168.369 203.675 168.365 203.721 168.37 203.766C168.375 203.81 168.389 203.854 168.411 203.893C168.448 203.959 168.505 204.012 168.573 204.044Z" fill="#FAFAFA"/>
<path d="M178.044 198.373C178.044 198.373 179.476 207.024 181.066 210.35C182.656 213.675 183.478 215.313 185.668 217.849C186.144 218.39 187.23 219.423 187.62 219.872C187.712 219.959 187.784 220.066 187.83 220.185C187.876 220.304 187.896 220.431 187.887 220.558C187.878 220.685 187.841 220.809 187.779 220.92C187.717 221.031 187.631 221.128 187.528 221.202C186.554 222.132 182.423 222.354 180.109 220.618C177.795 218.882 175.686 215.211 174.302 213.789C173.761 213.248 173.296 212.707 172.831 212.166C172.366 211.626 172.507 211.085 172.469 210.479C172.469 210.182 172.469 209.371 172.469 209.371C172.15 207.916 171.295 205.64 170.847 204.223L178.044 198.373Z" fill="#FFBE9D"/>
<path d="M171.676 215.881C171.651 216.236 171.688 216.592 171.784 216.935C172.011 217.476 174.104 218.719 174.904 219.147C176.008 219.715 176.854 220.681 177.272 221.85C178.035 223.64 179.608 224.965 181.425 225.878C183.874 227.026 186.614 227.403 189.282 226.96C192.602 226.484 192.937 224.548 192.937 224.548C192.937 224.548 193.18 222.726 192.369 222.385C191.558 222.045 171.676 215.881 171.676 215.881Z" fill="#263238"/>
<path d="M172.375 208.919C172.288 208.957 172.121 209.006 172.018 209.384C171.985 209.53 172.072 211.082 171.953 211.974C171.834 212.866 171.299 214.705 171.677 215.889C173.364 217.722 176.084 218.263 177.344 220.15C178.604 222.037 179.75 224.373 184.043 225.384C188.337 226.395 191.657 225.141 192.5 223.94C193.344 222.74 192.652 221.556 189.937 219.961C187.055 218.279 183.357 213.412 183.351 213.412C182.845 212.721 182.382 211.999 181.967 211.25C181.62 210.482 181.332 209.688 181.107 208.876C181.004 208.496 180.782 208.159 180.475 207.913C180.125 207.734 179.728 207.668 179.339 207.724C178.713 207.724 178.089 207.794 177.479 207.935C176.866 208.079 176.318 208.423 175.922 208.914C175.703 209.309 175.463 209.691 175.203 210.06C174.996 210.283 174.731 210.443 174.437 210.522C174.144 210.602 173.834 210.597 173.543 210.509C173.259 210.445 173.002 210.294 172.808 210.077C172.614 209.86 172.493 209.587 172.461 209.298C172.425 209.173 172.396 209.047 172.375 208.919Z" fill="#455A64"/>
<path d="M181.284 224.245C181.375 223.249 181.736 222.296 182.329 221.49C182.921 220.683 183.723 220.054 184.647 219.671C187.967 218.119 189.908 219.265 190.876 220.017C192.033 220.914 193.666 222.758 192.59 224.018C191.428 225.375 189.622 225.975 186.296 225.9C182.971 225.824 181.284 224.245 181.284 224.245Z" fill="#FAFAFA"/>
<path d="M177.179 213.985C177.237 213.986 177.294 213.974 177.347 213.95C177.399 213.925 177.445 213.889 177.482 213.844C177.866 213.341 180.304 211.497 182.57 212.222C182.7 211.962 182.516 211.681 182.056 211.384C179.661 211.081 177.347 212.817 176.876 213.422C176.847 213.46 176.825 213.502 176.813 213.548C176.801 213.594 176.799 213.642 176.807 213.689C176.814 213.736 176.832 213.781 176.858 213.82C176.884 213.86 176.917 213.894 176.957 213.92C177.022 213.965 177.1 213.988 177.179 213.985Z" fill="#FAFAFA"/>
<path d="M183.829 213.994C183.796 213.818 183.723 213.652 183.615 213.51C183.507 213.367 183.367 213.251 183.207 213.172C180.925 213.047 178.779 214.664 178.341 215.243C178.312 215.281 178.291 215.324 178.28 215.37C178.268 215.416 178.266 215.465 178.274 215.512C178.281 215.559 178.298 215.604 178.324 215.644C178.349 215.684 178.383 215.719 178.422 215.746C178.486 215.792 178.564 215.817 178.644 215.816C178.702 215.816 178.759 215.803 178.812 215.778C178.864 215.753 178.91 215.716 178.946 215.67C179.309 215.183 181.623 213.437 183.829 213.994Z" fill="#FAFAFA"/>
<path d="M187.28 217.824C187.076 217.387 186.726 217.035 186.291 216.829C183.933 216.586 181.673 218.278 181.208 218.878C181.179 218.916 181.158 218.96 181.147 219.006C181.135 219.052 181.133 219.1 181.141 219.147C181.148 219.194 181.165 219.239 181.191 219.279C181.216 219.32 181.25 219.354 181.289 219.381C181.355 219.426 181.432 219.45 181.511 219.452C181.569 219.452 181.627 219.439 181.679 219.413C181.732 219.388 181.778 219.351 181.814 219.306C182.225 218.776 184.917 216.753 187.28 217.824Z" fill="#FAFAFA"/>
<path d="M180.066 217.63C180.123 217.631 180.18 217.618 180.231 217.594C180.283 217.57 180.328 217.534 180.364 217.489C180.748 216.992 183.138 215.186 185.382 215.84C185.332 215.652 185.24 215.477 185.112 215.33C184.985 215.183 184.826 215.067 184.646 214.991C183.738 214.995 182.84 215.18 182.004 215.536C181.169 215.891 180.412 216.41 179.78 217.062C179.751 217.099 179.73 217.142 179.718 217.187C179.706 217.233 179.703 217.28 179.71 217.327C179.718 217.374 179.734 217.418 179.759 217.458C179.784 217.498 179.817 217.533 179.856 217.559C179.918 217.603 179.991 217.627 180.066 217.63Z" fill="#FAFAFA"/>
<path d="M159.005 149.231C162.541 151.821 174.864 158.937 179.866 163.566C181.315 164.907 181.791 166.664 181.434 170.503C180.953 175.716 176.859 193.467 176.859 193.467C176.292 194.468 175.302 192.57 175.302 192.57L155.777 167.783L159.005 149.231Z" fill="#71389A"/>
<path opacity="0.3" d="M159.005 149.231C162.541 151.821 174.864 158.937 179.866 163.566C181.315 164.907 181.791 166.664 181.434 170.503C180.953 175.716 176.859 193.467 176.859 193.467C176.292 194.468 175.302 192.57 175.302 192.57L155.777 167.783L159.005 149.231Z" fill="black"/>
<path opacity="0.3" d="M176.016 187.942C171.501 184.157 156.907 161.139 156.907 161.139C158.897 159.462 159.919 153.639 159.919 153.639C160.708 155.883 159.876 159.273 159.265 160.511C160.411 161.506 166.905 166.843 171.415 170.412C172.802 171.366 173.763 172.822 174.097 174.473C175.027 179.339 176.124 186.952 176.016 187.942Z" fill="black"/>
<path d="M159.019 149.231L133.887 154.795C135.114 159.408 135.466 161.792 136.747 164.22C138.029 166.648 139.451 169.254 145.993 172.477C152.287 175.575 159.971 178.765 161.512 179.506C162.669 180.047 163.221 182.377 163.745 185.384C164.286 188.531 164.345 191.002 167.465 197.615C170.515 204.103 171.142 205.487 171.142 205.487C171.142 205.487 175.862 205.979 178.999 203.222C178.999 203.222 174.722 181.015 173.808 177.019C173.299 174.786 173.267 173.612 170.515 171.157C168.141 169.054 157.538 161.019 157.538 161.019C157.538 161.019 161.739 155.347 159.019 149.231Z" fill="#71389A"/>
<path opacity="0.3" d="M159.019 149.231L133.887 154.795C135.114 159.408 135.466 161.792 136.747 164.22C138.029 166.648 139.451 169.254 145.993 172.477C152.287 175.575 159.971 178.765 161.512 179.506C162.669 180.047 163.221 182.377 163.745 185.384C164.286 188.531 164.345 191.002 167.465 197.615C170.515 204.103 171.142 205.487 171.142 205.487C171.142 205.487 175.862 205.979 178.999 203.222C178.999 203.222 174.722 181.015 173.808 177.019C173.299 174.786 173.267 173.612 170.515 171.157C168.141 169.054 157.538 161.019 157.538 161.019C157.538 161.019 161.739 155.347 159.019 149.231Z" fill="black"/>
<path d="M187.9 107.479C187.469 107.452 187.038 107.54 186.651 107.733C186.203 107.968 185.777 108.245 185.381 108.56C184.753 109.025 184.115 109.458 183.456 109.874C182.89 110.295 182.247 110.6 181.563 110.772C181.331 110.81 180.833 110.815 181.087 110.464C181.444 110.022 181.761 109.55 182.034 109.052C182.168 108.806 182.251 108.535 182.275 108.256C182.299 107.977 182.265 107.695 182.174 107.43C182.118 107.267 182.005 107.131 181.855 107.046C181.633 106.943 181.52 107.046 181.396 107.208C181.256 107.355 181.108 107.494 180.952 107.625C180.639 107.901 180.325 108.165 180.017 108.457C178.205 110.08 176.005 111.523 175.231 113.897C174.787 115.36 174.572 116.883 174.593 118.412C174.593 121.018 174.42 130.086 174.42 130.086C174.42 130.086 167.218 124.025 164.098 121.435C162.589 120.175 160.486 118.645 158.15 118.423C156.528 118.271 155.549 118.277 155.549 118.277L160.464 130.173C160.464 130.173 169.749 137.083 174.204 139.462C178.222 141.625 180.179 140.062 180.666 138.921C181.471 137.05 182.288 136.175 181.163 125.75C181.082 124.944 180.979 122.635 180.887 121.829C180.774 120.148 180.963 118.439 181.617 118.071C182.829 117.421 183.971 116.647 185.024 115.763C185.711 115.17 186.317 114.488 186.824 113.735C187.111 113.396 187.321 112.999 187.441 112.572C187.4 112.175 187.4 111.775 187.441 111.377C187.522 111.118 187.7 110.901 187.765 110.62C187.9 110.042 187.852 109.382 188.214 108.885C188.419 108.614 188.755 108.344 188.706 108.03C188.669 107.899 188.594 107.782 188.491 107.693C188.389 107.604 188.262 107.546 188.127 107.527C188.053 107.506 187.977 107.49 187.9 107.479Z" fill="#FFBE9D"/>
<path d="M180.563 112.007C180.303 113.41 179.653 114.711 178.687 115.76C179.35 115.367 179.9 114.808 180.282 114.138C180.801 113.067 180.757 112.521 180.563 112.007Z" fill="#F09364"/>
<path d="M155.073 118.002C157.582 118.11 159.534 118.164 161.675 119.402C163.817 120.64 173.355 128.627 173.355 128.627C173.355 128.627 173.452 124.555 173.695 122.414C173.863 120.927 174.112 120.462 174.577 120.532C174.577 120.532 175.404 121.803 177.745 121.981C180.087 122.16 180.882 121.181 180.882 121.181C180.882 121.181 181.568 121.019 181.812 121.981C182.055 122.944 182.498 133.336 182.071 136.326C181.644 139.317 180.303 140.712 178.502 141.133C176.702 141.555 172.555 139.03 167.531 135.667C162.508 132.304 157.09 129.178 157.09 129.178L155.073 118.002Z" fill="#71389A"/>
<path opacity="0.7" d="M155.073 118.002C157.582 118.11 159.534 118.164 161.675 119.402C163.817 120.64 173.355 128.627 173.355 128.627C173.355 128.627 173.452 124.555 173.695 122.414C173.863 120.927 174.112 120.462 174.577 120.532C174.577 120.532 175.404 121.803 177.745 121.981C180.087 122.16 180.882 121.181 180.882 121.181C180.882 121.181 181.568 121.019 181.812 121.981C182.055 122.944 182.498 133.336 182.071 136.326C181.644 139.317 180.303 140.712 178.502 141.133C176.702 141.555 172.555 139.03 167.531 135.667C162.508 132.304 157.09 129.178 157.09 129.178L155.073 118.002Z" fill="white"/>
<path opacity="0.1" d="M173.35 128.627C173.131 130.57 173.202 132.535 173.561 134.456C173.561 134.456 171.728 130.92 172.29 127.681L173.35 128.627Z" fill="black"/>
<path d="M134.462 120.194C134.045 122.357 129.887 143.201 134.619 158.725C143.146 159.731 158.113 155.816 160.357 150.177C160.357 150.177 158.848 144.824 158.194 142.201C158.334 137.908 158.194 129.711 158.107 127.175C157.934 122.151 157.15 118.264 154.657 117.896C154.657 117.896 149.65 117.701 146.622 117.826C144.005 117.928 142.037 117.961 142.037 117.961L134.462 120.194Z" fill="#FAFAFA"/>
<path d="M146.976 153.282C146.436 152.06 136.308 145.815 136.308 145.815C136.308 145.815 136.465 142.922 137.065 137.596C137.665 132.27 137.849 125.889 135.93 122.683L133.994 122.759C132.912 129.22 130.674 145.799 134.616 158.727C139.163 159.268 145.538 158.397 150.837 156.624C149.864 155.964 147.414 154.255 146.976 153.282Z" fill="#F0F0F0"/>
<path d="M141.16 113.078C141.16 111.996 139.111 108.784 138.176 106.238C136.613 101.982 136.478 98.1592 140.338 96.5046C140.338 96.5046 142.75 92.3465 148.833 92.1357C154.916 91.9248 159.582 97.0616 157.566 103.923L141.16 113.078Z" fill="#455A64"/>
<path d="M142.67 106.502C141.875 106.502 141.588 105.361 141.047 104.75C140.795 104.506 140.491 104.322 140.158 104.211C139.824 104.1 139.471 104.065 139.122 104.108C138.774 104.152 138.439 104.273 138.144 104.463C137.848 104.652 137.599 104.906 137.414 105.204C136.289 106.826 137.381 109.173 138.609 110.071C140.15 111.217 141.215 110.114 141.215 110.114L141.074 118.706C141.074 118.706 141.35 120.609 144.86 121.718C148.915 122.994 152.213 120.858 149.796 118.187L149.888 115.921C151.173 116.215 152.499 116.288 153.808 116.137C155.16 115.932 156.242 114.915 156.934 112.828C158.291 108.762 157.918 103.333 156.517 98.3804C155.176 99.4618 148.991 101.425 143.416 99.4618C143.605 102.885 143.448 106.502 142.67 106.502Z" fill="#FFBE9D"/>
<path d="M140.452 109.153C140.452 109.253 140.422 109.35 140.367 109.433C140.312 109.515 140.233 109.58 140.141 109.618C140.049 109.656 139.948 109.666 139.851 109.646C139.753 109.627 139.663 109.579 139.593 109.509C139.523 109.439 139.475 109.349 139.455 109.251C139.436 109.154 139.446 109.053 139.484 108.961C139.522 108.869 139.587 108.79 139.669 108.735C139.752 108.68 139.849 108.65 139.949 108.65C140.015 108.65 140.08 108.663 140.141 108.689C140.202 108.714 140.258 108.751 140.304 108.798C140.351 108.844 140.388 108.9 140.413 108.961C140.439 109.022 140.452 109.087 140.452 109.153Z" fill="#263238"/>
<path d="M149.874 115.928C149.874 115.928 146.489 114.938 145.159 114.003C144.283 113.397 143.57 112.586 143.083 111.64C143.378 112.673 143.862 113.643 144.51 114.5C146.132 116.333 149.831 117.204 149.831 117.204L149.874 115.928Z" fill="#F09364"/>
<path d="M149.602 106.458C149.598 106.623 149.545 106.783 149.451 106.919C149.356 107.054 149.224 107.159 149.071 107.22C148.917 107.281 148.749 107.296 148.587 107.262C148.425 107.228 148.277 107.148 148.161 107.031C148.044 106.914 147.965 106.765 147.932 106.603C147.9 106.441 147.915 106.273 147.977 106.12C148.039 105.967 148.145 105.835 148.281 105.741C148.417 105.648 148.577 105.596 148.743 105.593C148.856 105.593 148.968 105.615 149.073 105.659C149.177 105.702 149.272 105.766 149.352 105.847C149.432 105.927 149.496 106.022 149.538 106.127C149.581 106.232 149.603 106.345 149.602 106.458Z" fill="#263238"/>
<path d="M148.679 103.579L146.862 104.542C146.739 104.292 146.716 104.004 146.8 103.738C146.883 103.472 147.067 103.249 147.311 103.114C147.431 103.052 147.562 103.015 147.697 103.004C147.831 102.994 147.966 103.011 148.094 103.055C148.222 103.098 148.34 103.167 148.44 103.257C148.541 103.347 148.622 103.457 148.679 103.579Z" fill="#263238"/>
<path d="M149.339 110.88L152.232 111.805C152.091 112.189 151.811 112.506 151.447 112.693C151.083 112.879 150.663 112.921 150.269 112.811C150.078 112.749 149.902 112.649 149.751 112.518C149.601 112.386 149.478 112.225 149.391 112.044C149.304 111.864 149.255 111.668 149.246 111.468C149.237 111.268 149.268 111.068 149.339 110.88Z" fill="#F09364"/>
<path d="M156.466 103.552L154.471 103.012C154.501 102.88 154.557 102.756 154.636 102.646C154.715 102.537 154.815 102.445 154.931 102.375C155.047 102.306 155.176 102.261 155.31 102.243C155.443 102.225 155.579 102.235 155.709 102.271C155.976 102.347 156.203 102.522 156.343 102.761C156.484 102.999 156.528 103.282 156.466 103.552Z" fill="#263238"/>
<path d="M155.96 105.805C155.955 105.97 155.903 106.131 155.808 106.266C155.714 106.402 155.581 106.506 155.428 106.567C155.274 106.628 155.106 106.643 154.945 106.609C154.783 106.576 154.635 106.495 154.518 106.378C154.402 106.261 154.322 106.112 154.29 105.95C154.257 105.788 154.273 105.62 154.335 105.467C154.396 105.314 154.502 105.182 154.638 105.089C154.774 104.995 154.935 104.943 155.1 104.94C155.213 104.94 155.326 104.963 155.43 105.006C155.535 105.05 155.63 105.114 155.71 105.194C155.79 105.274 155.853 105.37 155.896 105.475C155.939 105.58 155.96 105.692 155.96 105.805Z" fill="#263238"/>
<path d="M156.881 98.3913C158.752 97.0611 159.79 95.2768 159.293 92.8273C158.563 93.5573 156.519 93.6925 154.734 92.8273C151.911 91.3516 148.668 90.8824 145.542 91.4971C142.238 92.1406 140.303 94.6495 140.303 96.4988C140.952 97.8181 141.838 98.521 143.374 99.4565C145.683 101.124 148.502 101.935 151.344 101.749C153.051 101.708 154.699 101.112 156.038 100.051C156.038 100.051 154.313 100.203 153.502 99.6674C154.703 99.4766 155.853 99.0424 156.881 98.3913Z" fill="#37474F"/>
<path d="M152.333 109.808L154.913 108.629L151.62 104.082L152.333 109.808Z" fill="#F09364"/>
<path opacity="0.15" d="M180.655 164.486C180.433 164.15 180.171 163.842 179.877 163.567C176.87 160.788 171.225 157.111 166.429 154.056L144.606 166.654C144.576 166.672 144.551 166.697 144.533 166.728C144.516 166.758 144.506 166.792 144.506 166.827C144.506 166.863 144.516 166.897 144.533 166.927C144.551 166.958 144.576 166.983 144.606 167.001L160.454 176.155L180.655 164.486Z" fill="black"/>
<path d="M187.273 158.083V158.434C187.273 158.688 187.206 158.938 187.078 159.158C186.951 159.378 186.768 159.561 186.548 159.688L161.178 174.336C160.958 174.464 160.708 174.531 160.453 174.531C160.197 174.531 159.945 174.464 159.723 174.336L145.897 166.361C145.678 166.233 145.495 166.05 145.368 165.83C145.241 165.61 145.174 165.36 145.172 165.106V164.614C145.171 164.647 145.179 164.68 145.196 164.708C145.212 164.737 145.236 164.761 145.264 164.777L160.448 173.547L187.273 158.083Z" fill="#37474F"/>
<path d="M160.456 173.565V174.533C160.711 174.533 160.96 174.466 161.181 174.338L186.551 159.69C186.771 159.563 186.954 159.38 187.081 159.16C187.208 158.94 187.275 158.69 187.276 158.435V158.079L160.456 173.565Z" fill="#263238"/>
<path d="M187.271 158.082L172.228 149.398C172.096 149.324 171.947 149.285 171.796 149.285C171.644 149.285 171.495 149.324 171.363 149.398L145.268 164.468C145.239 164.485 145.215 164.51 145.198 164.539C145.181 164.569 145.172 164.602 145.172 164.636C145.172 164.67 145.181 164.703 145.198 164.732C145.215 164.762 145.239 164.786 145.268 164.803L160.451 173.568L187.271 158.082Z" fill="#455A64"/>
<path d="M160.309 172.293L152.199 167.616L175.925 153.92L184.079 158.57L160.309 172.293Z" fill="#37474F"/>
<path d="M184.079 158.564L183.771 158.742L175.92 154.265L152.507 167.788L152.199 167.61L175.92 153.908L184.079 158.564Z" fill="#263238"/>
<path d="M156.326 159.277L156.478 159.364L160.452 161.657L167.524 157.574L167.67 157.488L163.545 155.109L156.326 159.277Z" fill="#263238"/>
<path d="M156.482 159.36L160.456 161.653L167.529 157.57L163.549 155.278L156.482 159.36Z" fill="#37474F"/>
<path d="M164.029 162.117C162.894 160.992 161.245 159.413 159.855 158.964C159.537 158.845 159.212 158.744 158.882 158.661C159.362 158.6 159.837 158.506 160.304 158.38C160.775 158.237 161.194 157.958 161.51 157.58C161.629 157.423 161.715 157.174 161.564 157.039C161.508 156.995 161.44 156.97 161.369 156.969C160.326 156.937 159.509 156.774 158.563 156.709C158.142 156.639 157.713 156.639 157.292 156.709C156.903 156.812 156.519 156.926 156.14 157.061C154.416 157.656 152.842 158.191 150.403 157.602L146.013 155.26C146.013 155.26 145.072 155.022 143.688 157.364C142.303 159.705 143.115 160.992 143.115 160.992L148.046 162.695L148.116 162.722C148.865 163.124 149.644 163.468 150.447 163.75C151.982 164.22 153.95 163.663 155.286 163.593C156.622 163.522 158.887 164.133 160.152 164.642C161.418 165.15 162.856 163.236 163.5 163.463C164.143 163.69 165.17 163.247 164.029 162.117Z" fill="#FFBE9D"/>
<path d="M158.297 157.923C157.654 157.901 157.013 158.013 156.416 158.253C157.252 158.294 158.08 158.438 158.881 158.68C159.361 158.619 159.836 158.525 160.303 158.399C160.712 158.266 161.084 158.036 161.385 157.728C160.644 158.215 159.2 158.015 158.297 157.923Z" fill="#F09364"/>
<path d="M134.463 120.197C135.712 120.689 137.339 125.902 136.334 130.914L134.009 146.595C134.009 146.595 136.858 148.282 140.86 150.758C143.628 152.478 146.002 154.051 146.007 155.322C144.19 155.971 142.557 159.313 143.109 161.054C141.871 162.524 130.429 156.187 126.428 153.446C124.573 152.175 123.638 151.678 124.351 145.951C125.141 139.614 125.682 132.574 126.92 127.875C128.207 122.96 129.64 121.057 134.463 120.197Z" fill="#71389A"/>
<path opacity="0.7" d="M134.463 120.197C135.712 120.689 137.339 125.902 136.334 130.914L134.009 146.595C134.009 146.595 136.858 148.282 140.86 150.758C143.628 152.478 146.002 154.051 146.007 155.322C144.19 155.971 142.557 159.313 143.109 161.054C141.871 162.524 130.429 156.187 126.428 153.446C124.573 152.175 123.638 151.678 124.351 145.951C125.141 139.614 125.682 132.574 126.92 127.875C128.207 122.96 129.64 121.057 134.463 120.197Z" fill="white"/>
<path d="M160.866 173.778C161.105 173.871 161.362 173.909 161.617 173.889C161.873 173.87 162.121 173.793 162.342 173.664L187.605 159.065C187.823 158.939 188.011 158.766 188.155 158.558C188.299 158.35 188.396 158.114 188.437 157.865L191.206 141.373C191.214 141.279 191.214 141.185 191.206 141.092C191.207 140.864 191.162 140.639 191.075 140.429C190.987 140.22 190.859 140.029 190.697 139.87L164.451 155.01C164.289 155.103 164.149 155.23 164.041 155.383C163.934 155.537 163.861 155.712 163.829 155.896L160.866 173.778Z" fill="#37474F"/>
<path d="M160.456 173.563L160.629 173.666C160.706 173.709 160.785 173.747 160.867 173.779L163.852 155.936C163.884 155.751 163.956 155.576 164.063 155.423C164.171 155.269 164.311 155.142 164.474 155.049L190.72 139.909C190.615 139.804 190.497 139.713 190.368 139.638L164.068 154.827C163.905 154.919 163.766 155.047 163.659 155.2C163.552 155.354 163.481 155.529 163.452 155.714L160.456 173.563Z" fill="#455A64"/>
<path d="M164.1 155.382L163.69 155.149C163.568 155.308 163.486 155.493 163.452 155.69L160.456 173.561L160.629 173.664C160.706 173.707 160.785 173.745 160.867 173.777L163.852 155.933C163.89 155.733 163.976 155.544 164.1 155.382Z" fill="#263238"/>
<path d="M175.083 158.559C175.266 157.477 176.407 155.99 177.629 155.287C178.851 154.584 179.689 154.903 179.5 156.006C179.311 157.109 178.175 158.58 176.959 159.283C175.742 159.986 174.893 159.667 175.083 158.559Z" fill="#71389A"/>
</svg>
