<svg width="106" height="133" viewBox="0 0 106 133" fill="none" xmlns="http://www.w3.org/2000/svg">
<path d="M78.2707 66.7502C80.9125 66.7502 83.0542 64.6086 83.0542 61.9668C83.0542 59.325 80.9125 57.1833 78.2707 57.1833C75.6289 57.1833 73.4873 59.325 73.4873 61.9668C73.4873 64.6086 75.6289 66.7502 78.2707 66.7502Z" fill="#BA68C8"/>
<path d="M48.2558 77.6617C52.1298 77.6617 55.2703 74.5211 55.2703 70.6471C55.2703 66.7731 52.1298 63.6326 48.2558 63.6326C44.3817 63.6326 41.2412 66.7731 41.2412 70.6471C41.2412 74.5211 44.3817 77.6617 48.2558 77.6617Z" fill="#BA68C8"/>
<path d="M37.071 64.2628C41.3614 59.9724 41.3614 53.0163 37.071 48.7259C32.7806 44.4355 25.8245 44.4355 21.5341 48.7259C17.2437 53.0163 17.2437 59.9724 21.5341 64.2628C25.8245 68.5533 32.7806 68.5533 37.071 64.2628Z" fill="#BA68C8"/>
<path d="M41.3952 46.5121C45.4298 46.5121 48.7006 43.2414 48.7006 39.2067C48.7006 35.1721 45.4298 31.9014 41.3952 31.9014C37.3606 31.9014 34.0898 35.1721 34.0898 39.2067C34.0898 43.2414 37.3606 46.5121 41.3952 46.5121Z" fill="#BA68C8"/>
<path d="M63.4441 42.3593C68.8907 42.3593 73.3061 37.9439 73.3061 32.4973C73.3061 27.0506 68.8907 22.6353 63.4441 22.6353C57.9974 22.6353 53.582 27.0506 53.582 32.4973C53.582 37.9439 57.9974 42.3593 63.4441 42.3593Z" fill="#BA68C8"/>
<path d="M65.1956 80.341L63.4088 82.7169C62.9594 83.3162 62.2469 83.7466 61.4222 83.9171C60.5974 84.0875 59.7252 83.9846 58.9902 83.6302L57.2385 82.786C56.7122 82.4861 56.2753 82.0902 55.9611 81.6287C55.6469 81.1671 55.4637 80.652 55.4256 80.1226L55.246 74.3265C55.2279 74.1781 55.1634 74.0363 55.059 73.915C54.9545 73.7937 54.8137 73.6973 54.6504 73.6352C54.2049 73.4487 53.7129 73.3516 53.2141 73.3516C52.7152 73.3516 52.2232 73.4487 51.7777 73.6352C51.6134 73.696 51.4716 73.7922 51.3669 73.9137C51.2623 74.0352 51.1984 74.1777 51.1821 74.3265L50.8055 86.3845C50.7748 87.3887 50.28 87.9782 49.6976 87.7016L48.6466 87.1959C48.1347 86.9517 47.6861 86.6256 47.3269 86.2366C46.9676 85.8475 46.7046 85.4031 46.5533 84.9291L45.3753 81.2906C45.3004 81.0571 45.1169 80.8578 44.8652 80.7367C44.6134 80.6156 44.3141 80.5825 44.0331 80.6448C43.752 80.707 43.5122 80.8595 43.3664 81.0686C43.2206 81.2778 43.1808 81.5264 43.2557 81.76L44.4338 85.3985C44.6596 86.1029 45.051 86.7633 45.5854 87.3415C46.1198 87.9198 46.7866 88.4045 47.5474 88.7677L49.1151 89.5209C49.991 89.9357 50.6566 91.0854 50.6259 92.0897L49.4304 130.541C49.4304 131.003 49.7983 131.469 50.534 131.822C51.3613 132.17 52.2757 132.352 53.2031 132.352C54.1305 132.352 55.0449 132.17 55.8722 131.822C56.6079 131.458 56.9802 131.003 56.9758 130.538L55.592 85.8897C55.5613 84.8854 56.0649 84.3251 56.7174 84.638L57.8954 85.2056C59.1219 85.7958 60.5764 85.9668 61.9518 85.6823C63.3271 85.3978 64.5154 84.6802 65.2656 83.6811L67.0523 81.3052C67.2062 81.1006 67.256 80.8536 67.1907 80.6185C67.1254 80.3834 66.9504 80.1796 66.7042 80.0517C66.458 79.9238 66.1607 79.8825 65.8778 79.9367C65.5949 79.991 65.3494 80.1364 65.1956 80.341Z" fill="#37474F"/>
<path d="M96.0249 34.4237C98.1035 25.4632 92.5246 16.5142 83.5641 14.4357C74.6036 12.3571 65.6547 17.936 63.5761 26.8965C61.4975 35.8569 67.0764 44.8059 76.0369 46.8844C84.9974 48.963 93.9463 43.3841 96.0249 34.4237Z" fill="#BA68C8"/>
<path opacity="0.2" d="M96.4637 30.5408V30.6884C96.4669 33.2654 95.8721 35.808 94.726 38.1161C93.58 40.4242 91.914 42.4349 89.8591 43.99C87.8042 45.5451 85.4165 46.6021 82.8838 47.0779C80.3511 47.5537 77.7426 47.4354 75.2634 46.7321C72.7842 46.0289 70.5021 44.7599 68.5965 43.0251C66.6908 41.2903 65.2138 39.137 64.2815 36.7346C63.3492 34.3322 62.9871 31.7462 63.2237 29.1801C63.4602 26.614 64.289 24.1378 65.6449 21.9463C64.9016 25.896 65.6662 29.9808 67.7877 33.3942C69.9092 36.8077 73.2334 39.3017 77.104 40.3838C80.9746 41.4659 85.1103 41.0576 88.6944 39.2393C92.2786 37.421 95.0508 34.325 96.4637 30.5625V30.5408Z" fill="black"/>
<path d="M64.2041 36.4826C64.9833 38.5716 66.1739 40.4829 67.7055 42.1031C69.237 43.7234 71.0783 45.0197 73.1201 45.9151C75.162 46.8105 77.3628 47.2869 79.5922 47.316C81.8215 47.345 84.034 46.9261 86.0985 46.0842C85.6333 43.7867 84.6224 41.6348 83.1509 39.8101C81.6794 37.9853 79.7905 36.5413 77.6438 35.5999C75.497 34.6584 73.1553 34.2472 70.8162 34.4008C68.4771 34.5544 66.2093 35.2685 64.2041 36.4826Z" fill="#BA68C8"/>
<path opacity="0.1" d="M64.2041 36.4826C64.9833 38.5716 66.1739 40.4829 67.7055 42.1031C69.237 43.7234 71.0783 45.0197 73.1201 45.9151C75.162 46.8105 77.3628 47.2869 79.5922 47.316C81.8215 47.345 84.034 46.9261 86.0985 46.0842C85.6333 43.7867 84.6224 41.6348 83.1509 39.8101C81.6794 37.9853 79.7905 36.5413 77.6438 35.5999C75.497 34.6584 73.1553 34.2472 70.8162 34.4008C68.4771 34.5544 66.2093 35.2685 64.2041 36.4826Z" fill="black"/>
<path d="M80.5593 23.7991C82.1003 23.7991 82.2956 23.7991 82.8903 23.8339C83.2564 23.8394 83.6189 23.9069 83.9624 24.0335C84.2107 24.13 84.4362 24.277 84.6245 24.4653C84.8128 24.6537 84.9599 24.8791 85.0563 25.1274C85.181 25.4698 85.247 25.8308 85.2516 26.1952C85.282 26.8029 85.2864 26.9852 85.2864 28.5261C85.2864 30.0671 85.2864 30.2624 85.2516 30.8571C85.247 31.2215 85.181 31.5825 85.0563 31.9249C84.9599 32.1732 84.8128 32.3986 84.6245 32.587C84.4362 32.7753 84.2107 32.9223 83.9624 33.0188C83.6189 33.1454 83.2564 33.2129 82.8903 33.2184C82.2826 33.2445 82.1003 33.2532 80.5593 33.2532C79.0184 33.2532 78.8231 33.2532 78.2327 33.2184C77.8666 33.2134 77.504 33.1459 77.1606 33.0188C76.9114 32.924 76.6851 32.7775 76.4965 32.589C76.308 32.4005 76.1615 32.1741 76.0668 31.9249C75.9401 31.5829 75.8725 31.2218 75.8671 30.8571C75.841 30.2494 75.8367 30.0671 75.8367 28.5261C75.8367 26.9852 75.8367 26.7899 75.8671 26.1952C75.8725 25.8305 75.9401 25.4694 76.0668 25.1274C76.1615 24.8782 76.308 24.6518 76.4965 24.4633C76.6851 24.2748 76.9114 24.1283 77.1606 24.0335C77.504 23.9064 77.8666 23.8389 78.2327 23.8339C78.8404 23.8078 79.0227 23.7991 80.5593 23.7991ZM80.5593 22.7617C78.9967 22.7617 78.8231 22.7617 78.185 22.7964C77.7057 22.805 77.2314 22.896 76.783 23.0656C76.4004 23.2134 76.0529 23.4396 75.7629 23.7297C75.4728 24.0197 75.2466 24.3672 75.0988 24.7498C74.9317 25.1974 74.8407 25.6698 74.8297 26.1475C74.8036 26.7638 74.7949 26.9592 74.7949 28.5261C74.7949 30.0931 74.7949 30.2885 74.8297 30.9048C74.8407 31.3825 74.9317 31.8549 75.0988 32.3025C75.2466 32.6851 75.4728 33.0326 75.7629 33.3226C76.0529 33.6127 76.4004 33.8389 76.783 33.9867C77.2314 34.1562 77.7057 34.2473 78.185 34.2558C78.8014 34.2819 78.9967 34.2906 80.5593 34.2906C82.122 34.2906 82.3217 34.2906 82.938 34.2558C83.416 34.2474 83.8888 34.1563 84.3357 33.9867C84.7217 33.843 85.0714 33.6163 85.3601 33.3226C85.6514 33.0336 85.8778 32.6858 86.0243 32.3025C86.1917 31.8552 86.2813 31.3824 86.2891 30.9048C86.3194 30.2885 86.3238 30.0931 86.3238 28.5261C86.3238 26.9592 86.3238 26.7638 86.2891 26.1475C86.2813 25.6698 86.1917 25.1971 86.0243 24.7498C85.8762 24.3711 85.6499 24.028 85.3601 23.7427C85.0714 23.449 84.7217 23.2223 84.3357 23.0786C83.8888 22.909 83.416 22.8179 82.938 22.8095C82.3217 22.7834 82.1263 22.7747 80.5593 22.7747" fill="white"/>
<path d="M80.5599 25.5656C79.9741 25.5656 79.4014 25.7394 78.9144 26.0651C78.4274 26.3908 78.0479 26.8536 77.8241 27.3951C77.6003 27.9365 77.5422 28.5322 77.6571 29.1066C77.7721 29.6811 78.0549 30.2086 78.4698 30.6223C78.8846 31.0359 79.4129 31.3172 79.9877 31.4304C80.5626 31.5437 81.1581 31.4838 81.6988 31.2584C82.2396 31.033 82.7014 30.6522 83.0256 30.1643C83.3498 29.6763 83.522 29.1031 83.5203 28.5172C83.5203 27.7321 83.2084 26.9791 82.6532 26.4239C82.098 25.8688 81.3451 25.5569 80.5599 25.5569M80.5599 30.4402C80.1796 30.4402 79.8079 30.3274 79.4916 30.1161C79.1754 29.9048 78.9289 29.6045 78.7834 29.2531C78.6379 28.9017 78.5998 28.5151 78.674 28.1421C78.7482 27.7691 78.9313 27.4264 79.2002 27.1575C79.4692 26.8886 79.8118 26.7055 80.1848 26.6313C80.5578 26.5571 80.9444 26.5951 81.2958 26.7407C81.6472 26.8862 81.9475 27.1327 82.1588 27.4489C82.3701 27.7651 82.4829 28.1369 82.4829 28.5172C82.4829 29.0272 82.2803 29.5163 81.9197 29.8769C81.559 30.2376 81.0699 30.4402 80.5599 30.4402Z" fill="white"/>
<path d="M84.3343 25.449C84.3352 25.5865 84.2952 25.7212 84.2194 25.836C84.1436 25.9508 84.0354 26.0405 83.9086 26.0937C83.7818 26.1469 83.642 26.1613 83.507 26.135C83.372 26.1087 83.2478 26.0429 83.1503 25.9459C83.0527 25.849 82.9861 25.7252 82.959 25.5904C82.9318 25.4556 82.9453 25.3157 82.9978 25.1885C83.0502 25.0614 83.1392 24.9527 83.2535 24.8761C83.3678 24.7996 83.5023 24.7588 83.6398 24.7588C83.8233 24.7588 83.9993 24.8314 84.1294 24.9607C84.2595 25.09 84.3332 25.2655 84.3343 25.449Z" fill="white"/>
<path d="M102.945 58.7582C104.32 51.9385 99.9063 45.2953 93.0866 43.9202C86.2669 42.5451 79.6237 46.9589 78.2486 53.7786C76.8735 60.5983 81.2872 67.2414 88.1069 68.6165C94.9266 69.9916 101.57 65.5779 102.945 58.7582Z" fill="#BA68C8"/>
<path d="M103.207 56.1857V56.2986C103.202 58.2417 102.746 60.1571 101.877 61.8949C101.007 63.6326 99.7474 65.1455 98.1957 66.315C96.644 67.4845 94.8426 68.2789 92.9326 68.636C91.0226 68.9931 89.0558 68.9032 87.1864 68.3733C85.3169 67.8434 83.5955 66.8879 82.157 65.5816C80.7184 64.2754 79.6019 62.6538 78.8946 60.844C78.1874 59.0342 77.9088 57.0852 78.0805 55.1497C78.2523 53.2142 78.8698 51.3447 79.8847 49.6877C79.7097 50.5258 79.621 51.3796 79.6199 52.2357C79.6207 55.1029 80.6373 57.877 82.4892 60.0659C84.3411 62.2547 86.9087 63.7166 89.7361 64.1922C92.5635 64.6677 95.468 64.1262 97.9341 62.6637C100.4 61.2012 102.268 58.9122 103.207 56.2031V56.1857Z" fill="#BA68C8"/>
<path opacity="0.1" d="M103.207 56.1857V56.2986C103.202 58.2417 102.746 60.1571 101.877 61.8949C101.007 63.6326 99.7474 65.1455 98.1957 66.315C96.644 67.4845 94.8426 68.2789 92.9326 68.636C91.0226 68.9931 89.0558 68.9032 87.1864 68.3733C85.3169 67.8434 83.5955 66.8879 82.157 65.5816C80.7184 64.2754 79.6019 62.6538 78.8946 60.844C78.1874 59.0342 77.9088 57.0852 78.0805 55.1497C78.2523 53.2142 78.8698 51.3447 79.8847 49.6877C79.7097 50.5258 79.621 51.3796 79.6199 52.2357C79.6207 55.1029 80.6373 57.877 82.4892 60.0659C84.3411 62.2547 86.9087 63.7166 89.7361 64.1922C92.5635 64.6677 95.468 64.1262 97.9341 62.6637C100.4 61.2012 102.268 58.9122 103.207 56.2031V56.1857Z" fill="black"/>
<path d="M78.0176 56.2968C78.0236 59.5354 79.2819 62.6461 81.5292 64.9781C84.3383 62.6481 86.173 59.3507 86.6719 55.7353C87.1708 52.1199 86.2978 48.4488 84.2247 45.4451C82.3346 46.5566 80.7676 48.1425 79.6788 50.0459C78.5901 51.9493 78.0174 54.104 78.0176 56.2968Z" fill="#BA68C8"/>
<path opacity="0.1" d="M78.0176 56.2968C78.0236 59.5354 79.2819 62.6461 81.5292 64.9781C84.3383 62.6481 86.173 59.3507 86.6719 55.7353C87.1708 52.1199 86.2978 48.4488 84.2247 45.4451C82.3346 46.5566 80.7676 48.1425 79.6788 50.0459C78.5901 51.9493 78.0174 54.104 78.0176 56.2968Z" fill="black"/>
<path d="M95.4694 52.118C94.2584 52.079 93.4423 52.7648 93.0126 54.1668C93.2147 54.0755 93.4333 54.0267 93.655 54.0236C94.0891 54.0236 94.2975 54.2754 94.2454 54.7745C94.1439 55.2458 93.9426 55.6898 93.655 56.0767C93.2904 56.6541 93.017 56.9449 92.8346 56.9449C92.6523 56.9449 92.4006 56.5108 92.1879 55.6123C92.1228 55.3518 92.0056 54.6834 91.8363 53.6156C91.68 52.623 91.2619 52.1585 90.5818 52.2222C90.0862 52.3627 89.6368 52.6324 89.2796 53.0035C88.8456 53.3812 88.4375 53.7632 88.0078 54.1408L88.4202 54.6704C88.6247 54.4928 88.8543 54.3465 89.1017 54.2363C89.4012 54.2363 89.6833 54.7051 89.9438 55.647L90.6469 58.2254C91 59.1688 91.4341 59.639 91.9491 59.6361C92.7739 59.6361 93.778 58.8649 94.9616 57.3225C96.1191 55.8467 96.7123 54.6892 96.7413 53.85C96.7876 52.7272 96.3636 52.1499 95.4694 52.118Z" fill="white"/>
<path d="M48.2946 35.3158C58.0468 35.3158 65.9525 27.4101 65.9525 17.6579C65.9525 7.90571 58.0468 0 48.2946 0C38.5424 0 30.6367 7.90571 30.6367 17.6579C30.6367 27.4101 38.5424 35.3158 48.2946 35.3158Z" fill="#BA68C8"/>
<path opacity="0.5" d="M65.9486 17.5266V17.6656C65.9472 20.3948 65.3132 23.0865 64.0963 25.5295C62.8795 27.9724 61.1129 30.1 58.9353 31.7453C56.7577 33.3905 54.2284 34.5086 51.546 35.0117C48.8635 35.5149 46.101 35.3894 43.4752 34.6451C40.8494 33.9008 38.4319 32.558 36.4125 30.722C34.393 28.8861 32.8267 26.6071 31.8363 24.0639C30.846 21.5207 30.4587 18.7825 30.7047 16.0644C30.9508 13.3463 31.8236 10.7222 33.2546 8.39819C33.0043 9.57253 32.8777 10.7699 32.8769 11.9706C32.8758 15.992 34.3001 19.8836 36.8968 22.9543C39.4935 26.0249 43.0946 28.0758 47.0603 28.7426C51.0261 29.4093 55.0998 28.6489 58.5579 26.5962C62.016 24.5436 64.6346 21.3317 65.9486 17.531V17.5266Z" fill="#BA68C8"/>
<path opacity="0.1" d="M65.9486 17.5266V17.6656C65.9472 20.3948 65.3132 23.0865 64.0963 25.5295C62.8795 27.9724 61.1129 30.1 58.9353 31.7453C56.7577 33.3905 54.2284 34.5086 51.546 35.0117C48.8635 35.5149 46.101 35.3894 43.4752 34.6451C40.8494 33.9008 38.4319 32.558 36.4125 30.722C34.393 28.8861 32.8267 26.6071 31.8363 24.0639C30.846 21.5207 30.4587 18.7825 30.7047 16.0644C30.9508 13.3463 31.8236 10.7222 33.2546 8.39819C33.0043 9.57253 32.8777 10.7699 32.8769 11.9706C32.8758 15.992 34.3001 19.8836 36.8968 22.9543C39.4935 26.0249 43.0946 28.0758 47.0603 28.7426C51.0261 29.4093 55.0998 28.6489 58.5579 26.5962C62.016 24.5436 64.6346 21.3317 65.9486 17.531V17.5266Z" fill="black"/>
<path d="M63.1552 27.2183C62.0215 24.9301 60.1471 23.0926 57.8368 22.0046C55.5265 20.9165 52.9161 20.6419 50.43 21.2253C47.9438 21.8088 45.7281 23.216 44.143 25.2182C42.5579 27.2204 41.6967 29.6998 41.6992 32.2535C41.6997 32.8806 41.7534 33.5064 41.8598 34.1244C45.6602 35.616 49.8603 35.7429 53.7438 34.4835C57.6273 33.2241 60.9535 30.6564 63.1552 27.2183Z" fill="#BA68C8"/>
<path opacity="0.1" d="M63.1552 27.2183C62.0215 24.9301 60.1471 23.0926 57.8368 22.0046C55.5265 20.9165 52.9161 20.6419 50.43 21.2253C47.9438 21.8088 45.7281 23.216 44.143 25.2182C42.5579 27.2204 41.6967 29.6998 41.6992 32.2535C41.6997 32.8806 41.7534 33.5064 41.8598 34.1244C45.6602 35.616 49.8603 35.7429 53.7438 34.4835C57.6273 33.2241 60.9535 30.6564 63.1552 27.2183Z" fill="black"/>
<path d="M46.9132 19.8084H49.4742V13.3972H51.2582L51.4492 11.2529H49.4742V10.0332C49.4742 9.52532 49.574 9.32565 50.0645 9.32565H51.4492V7.09888H49.6782C47.7727 7.09888 46.9132 7.93663 46.9132 9.54268V11.2529H45.585V13.4233H46.9132V19.8084Z" fill="white"/>
<path d="M41.1734 42.222C42.7643 32.2896 36.0021 22.9481 26.0697 21.3571C16.1373 19.7662 6.79575 26.5284 5.20483 36.4608C3.61391 46.3932 10.376 55.7348 20.3085 57.3257C30.2409 58.9166 39.5824 52.1545 41.1734 42.222Z" fill="#BA68C8"/>
<path opacity="0.7" d="M41.3932 39.2058V39.3447C41.4038 42.1686 40.7581 44.9564 39.5072 47.4882C38.2563 50.02 36.4343 52.2266 34.185 53.934C31.9356 55.6414 29.3204 56.8029 26.5454 57.3269C23.7705 57.8509 20.9118 57.7231 18.1947 56.9536C15.4776 56.1841 12.9764 54.7939 10.8883 52.8926C8.80028 50.9913 7.18246 48.631 6.16244 45.9977C5.14242 43.3643 4.74809 40.5301 5.01055 37.7183C5.27301 34.9066 6.18507 32.1942 7.67483 29.7952C7.41615 31.0065 7.28522 32.2417 7.28417 33.4804C7.28292 37.6278 8.75168 41.6415 11.4296 44.8085C14.1075 47.9755 17.8212 50.0909 21.9112 50.779C26.0011 51.4671 30.2026 50.6833 33.7694 48.5669C37.3361 46.4504 40.0373 43.1383 41.3932 39.2188V39.2058Z" fill="#BA68C8"/>
<path opacity="0.1" d="M41.3932 39.2058V39.3447C41.4038 42.1686 40.7581 44.9564 39.5072 47.4882C38.2563 50.02 36.4343 52.2266 34.185 53.934C31.9356 55.6414 29.3204 56.8029 26.5454 57.3269C23.7705 57.8509 20.9118 57.7231 18.1947 56.9536C15.4776 56.1841 12.9764 54.7939 10.8883 52.8926C8.80028 50.9913 7.18246 48.631 6.16244 45.9977C5.14242 43.3643 4.74809 40.5301 5.01055 37.7183C5.27301 34.9066 6.18507 32.1942 7.67483 29.7952C7.41615 31.0065 7.28522 32.2417 7.28417 33.4804C7.28292 37.6278 8.75168 41.6415 11.4296 44.8085C14.1075 47.9755 17.8212 50.0909 21.9112 50.779C26.0011 51.4671 30.2026 50.6833 33.7694 48.5669C37.3361 46.4504 40.0373 43.1383 41.3932 39.2188V39.2058Z" fill="black"/>
<path d="M14.7962 45.4841C12.055 45.4869 9.41727 46.5312 7.41699 48.4054C9.20899 51.5462 11.8988 54.0796 15.141 55.6807C18.3833 57.2817 22.03 57.8771 25.6131 57.3906C25.6479 57.0434 25.6652 56.6874 25.6652 56.3315C25.6647 54.9053 25.383 53.4933 24.8363 52.1761C24.2896 50.8588 23.4886 49.6623 22.4792 48.6549C21.4697 47.6474 20.2716 46.8488 18.9533 46.3048C17.6349 45.7607 16.2223 45.4819 14.7962 45.4841Z" fill="#BA68C8"/>
<path opacity="0.1" d="M14.7962 45.4841C12.055 45.4869 9.41727 46.5312 7.41699 48.4054C9.20899 51.5462 11.8988 54.0796 15.141 55.6807C18.3833 57.2817 22.03 57.8771 25.6131 57.3906C25.6479 57.0434 25.6652 56.6874 25.6652 56.3315C25.6647 54.9053 25.383 53.4933 24.8363 52.1761C24.2896 50.8588 23.4886 49.6623 22.4792 48.6549C21.4697 47.6474 20.2716 46.8488 18.9533 46.3048C17.6349 45.7607 16.2223 45.4819 14.7962 45.4841Z" fill="black"/>
<path d="M41.3926 39.554C39.4076 39.6875 37.4769 40.2596 35.7396 41.2289C34.0023 42.1983 32.5015 43.5408 31.3453 45.1598C30.1892 46.7789 29.4064 48.6341 29.0534 50.592C28.7004 52.5499 28.7859 54.5617 29.3038 56.4826C32.8046 55.2303 35.8389 52.9375 37.9996 49.9117C40.1603 46.8859 41.3443 43.2717 41.3926 39.554Z" fill="#BA68C8"/>
<path opacity="0.1" d="M41.3926 39.554C39.4076 39.6875 37.4769 40.2596 35.7396 41.2289C34.0023 42.1983 32.5015 43.5408 31.3453 45.1598C30.1892 46.7789 29.4064 48.6341 29.0534 50.592C28.7004 52.5499 28.7859 54.5617 29.3038 56.4826C32.8046 55.2303 35.8389 52.9375 37.9996 49.9117C40.1603 46.8859 41.3443 43.2717 41.3926 39.554Z" fill="black"/>
<path d="M17.5859 41.4124C18.5951 42.0592 19.7627 42.416 20.961 42.4439C22.1592 42.4718 23.3421 42.1697 24.3803 41.5706C25.4185 40.9716 26.272 40.0986 26.8474 39.0472C27.4229 37.9957 27.6982 36.8063 27.6433 35.609C28.092 35.2827 28.4799 34.8801 28.7892 34.4196C28.3758 34.6045 27.9368 34.726 27.487 34.7799C27.9671 34.4935 28.3254 34.041 28.4941 33.5081C28.0437 33.7771 27.5503 33.9665 27.0356 34.068C26.6879 33.7046 26.2308 33.4651 25.734 33.3862C25.2373 33.3073 24.7284 33.3933 24.2853 33.6311C23.8421 33.869 23.4891 34.2455 23.2803 34.703C23.0714 35.1606 23.0183 35.6739 23.129 36.1646C22.2153 36.1196 21.3213 35.8826 20.5054 35.469C19.6894 35.0554 18.9697 34.4745 18.3933 33.7642C18.0999 34.27 18.0098 34.8685 18.1412 35.4383C18.2726 36.0081 18.6156 36.5067 19.1008 36.833C18.7355 36.8198 18.3785 36.7201 18.0591 36.5422C18.0533 37.0778 18.2344 37.5988 18.571 38.0154C18.9077 38.4321 19.379 38.7185 19.9039 38.8254C19.5658 38.9192 19.2106 38.9325 18.8664 38.8645C19.0125 39.322 19.2984 39.7222 19.6839 40.0087C20.0693 40.2953 20.5349 40.4537 21.0151 40.4618C20.5349 40.8394 19.9845 41.1178 19.3958 41.281C18.8072 41.4442 18.192 41.4889 17.5859 41.4124Z" fill="white"/>
<path d="M38.8463 82.1075C44.4284 76.5254 44.4284 67.4751 38.8463 61.893C33.2642 56.3108 24.2138 56.3109 18.6317 61.893C13.0496 67.4751 13.0496 76.5254 18.6317 82.1075C24.2138 87.6896 33.2642 87.6896 38.8463 82.1075Z" fill="#BA68C8"/>
<path opacity="0.3" d="M30.7407 57.8462C30.6606 58.4477 30.62 59.0538 30.6191 59.6606C30.6173 61.7223 31.0799 63.7579 31.9726 65.6163C32.8654 67.4746 34.1653 69.108 35.7759 70.3951C34.9949 71.347 34.4091 72.4435 34.0519 73.6218C33.6947 74.8001 33.5731 76.0373 33.694 77.2626C33.8149 78.488 34.176 79.6775 34.7566 80.7633C35.3373 81.8491 36.1261 82.8099 37.0781 83.5908C39.3918 81.9252 41.1545 79.6056 42.1394 76.9303C43.1244 74.255 43.2865 71.3462 42.6051 68.5779C41.9236 65.8097 40.4297 63.3085 38.3155 61.3961C36.2012 59.4837 33.5632 58.2474 30.7407 57.8462Z" fill="#BA68C8"/>
<path opacity="0.1" d="M30.7407 57.8462C30.6606 58.4477 30.62 59.0538 30.6191 59.6606C30.6173 61.7223 31.0799 63.7579 31.9726 65.6163C32.8654 67.4746 34.1653 69.108 35.7759 70.3951C34.9949 71.347 34.4091 72.4435 34.0519 73.6218C33.6947 74.8001 33.5731 76.0373 33.694 77.2626C33.8149 78.488 34.176 79.6775 34.7566 80.7633C35.3373 81.8491 36.1261 82.8099 37.0781 83.5908C39.3918 81.9252 41.1545 79.6056 42.1394 76.9303C43.1244 74.255 43.2865 71.3462 42.6051 68.5779C41.9236 65.8097 40.4297 63.3085 38.3155 61.3961C36.2012 59.4837 33.5632 58.2474 30.7407 57.8462Z" fill="black"/>
<path d="M43.0301 71.8924V72.0009C43.0259 74.2084 42.5106 76.3848 41.5244 78.3597C40.5383 80.3346 39.1081 82.0543 37.3461 83.3839C35.584 84.7135 33.538 85.617 31.3683 86.0234C29.1986 86.4299 26.9643 86.3283 24.8404 85.7267C22.7166 85.1251 20.7609 84.0397 19.1268 82.5557C17.4926 81.0717 16.2244 79.2294 15.4215 77.1731C14.6186 75.1169 14.3028 72.9027 14.4989 70.704C14.695 68.5053 15.3978 66.3819 16.5519 64.5002C15.7944 67.9376 16.3824 71.5346 18.1953 74.5517C20.0081 77.5688 22.9079 79.7768 26.2985 80.7217C29.6892 81.6667 33.313 81.2767 36.425 79.6321C39.537 77.9875 41.9006 75.2131 43.0301 71.8794V71.8924Z" fill="#BA68C8"/>
<path d="M43.0301 71.8924V72.0009C43.0259 74.2084 42.5106 76.3848 41.5244 78.3597C40.5383 80.3346 39.1081 82.0543 37.3461 83.3839C35.584 84.7135 33.538 85.617 31.3683 86.0234C29.1986 86.4299 26.9643 86.3283 24.8404 85.7267C22.7166 85.1251 20.7609 84.0397 19.1268 82.5557C17.4926 81.0717 16.2244 79.2294 15.4215 77.1731C14.6186 75.1169 14.3028 72.9027 14.4989 70.704C14.695 68.5053 15.3978 66.3819 16.5519 64.5002C15.7944 67.9376 16.3824 71.5346 18.1953 74.5517C20.0081 77.5688 22.9079 79.7768 26.2985 80.7217C29.6892 81.6667 33.313 81.2767 36.425 79.6321C39.537 77.9875 41.9006 75.2131 43.0301 71.8794V71.8924Z" fill="#BA68C8"/>
<g opacity="0.1">
<path d="M43.0311 71.8927V72.0012C43.0269 74.2086 42.5116 76.3851 41.5254 78.36C40.5392 80.3349 39.1091 82.0545 37.347 83.3841C35.585 84.7138 33.5389 85.6172 31.3693 86.0237C29.1996 86.4302 26.9652 86.3286 24.8414 85.7269C22.7175 85.1253 20.7619 84.0399 19.1277 82.5559C17.4936 81.0719 16.2254 79.2296 15.4224 77.1734C14.6195 75.1172 14.3038 72.9029 14.4999 70.7042C14.696 68.5055 15.3987 66.3821 16.5529 64.5005C15.7953 67.9378 16.3834 71.5348 18.1962 74.5519C20.0091 77.5691 22.9089 79.777 26.2995 80.722C29.6901 81.6669 33.3139 81.277 36.4259 79.6323C39.5379 77.9877 41.9016 75.2134 43.0311 71.8796V71.8927Z" fill="black"/>
<path d="M43.0311 71.8927V72.0012C43.0269 74.2086 42.5116 76.3851 41.5254 78.36C40.5392 80.3349 39.1091 82.0545 37.347 83.3841C35.585 84.7138 33.5389 85.6172 31.3693 86.0237C29.1996 86.4302 26.9652 86.3286 24.8414 85.7269C22.7175 85.1253 20.7619 84.0399 19.1277 82.5559C17.4936 81.0719 16.2254 79.2296 15.4224 77.1734C14.6195 75.1172 14.3038 72.9029 14.4999 70.7042C14.696 68.5055 15.3987 66.3821 16.5529 64.5005C15.7953 67.9378 16.3834 71.5348 18.1962 74.5519C20.0091 77.5691 22.9089 79.777 26.2995 80.722C29.6901 81.6669 33.3139 81.277 36.4259 79.6323C39.5379 77.9877 41.9016 75.2134 43.0311 71.8796V71.8927Z" fill="black"/>
</g>
<path d="M26.1103 74.4409C26.3806 74.3878 26.6356 74.2751 26.8569 74.111C27.0947 73.9241 27.2867 73.6855 27.4183 73.4132C27.55 73.1409 27.6178 72.8421 27.6165 72.5397C27.6263 72.1991 27.5373 71.8629 27.3604 71.5717C27.1777 71.2981 26.9088 71.0934 26.5964 70.9901C26.7873 70.9001 26.9584 70.7732 27.1 70.6168C27.3138 70.3392 27.4215 69.9944 27.4038 69.6445C27.4133 69.2855 27.3084 68.9328 27.1043 68.6374C26.895 68.3935 26.6309 68.2027 26.3336 68.0804C26.0364 67.9582 25.7144 67.9081 25.3941 67.9342H22.208V74.5321H25.177C25.4904 74.5342 25.8032 74.5037 26.1103 74.4409ZM23.5059 69.0802H24.9383C25.2026 69.0728 25.4664 69.1079 25.7196 69.1843C25.8356 69.2346 25.9323 69.3208 25.9956 69.4302C26.0589 69.5396 26.0854 69.6664 26.0712 69.792C26.0835 69.9038 26.0654 70.0169 26.0188 70.1193C25.9722 70.2216 25.8988 70.3095 25.8064 70.3737C25.5923 70.4894 25.3508 70.5449 25.1076 70.5343H23.5059V69.0802ZM23.5059 73.3861V71.6281H25.1293C25.3529 71.6192 25.5759 71.6562 25.7847 71.7367C25.9224 71.7938 26.0385 71.893 26.1164 72.0201C26.1944 72.1471 26.2302 72.2956 26.2188 72.4442C26.2374 72.6093 26.206 72.7763 26.1286 72.9233C26.0512 73.0704 25.9314 73.1908 25.7847 73.2689C25.5748 73.357 25.3479 73.397 25.1206 73.3861H23.5059Z" fill="white"/>
<path d="M28.7341 74.0956C29.2232 74.4954 29.8388 74.7078 30.4704 74.6946C30.8089 74.7142 31.1476 74.6607 31.4637 74.5379C31.7797 74.4151 32.0657 74.2258 32.3021 73.9828C32.5492 73.7518 32.7151 73.4474 32.7753 73.1146H31.4731C31.3848 73.2939 31.2453 73.4429 31.0721 73.5426C30.899 73.6423 30.7001 73.6882 30.5008 73.6746C30.2532 73.6824 30.0087 73.6175 29.7976 73.4879C29.6307 73.3752 29.4959 73.2212 29.4061 73.0409C29.3164 72.8607 29.2748 72.6603 29.2854 72.4592H32.8404C32.8504 72.1359 32.8358 71.8123 32.797 71.4912C32.7457 71.1307 32.6136 70.7865 32.4107 70.4842C32.2039 70.1674 31.9099 69.9172 31.5642 69.7636C31.203 69.6063 30.8123 69.5279 30.4183 69.5336C30.0981 69.5227 29.779 69.5772 29.4805 69.6936C29.182 69.81 28.9103 69.986 28.682 70.2107C28.4463 70.4738 28.2658 70.7814 28.1509 71.1154C28.0361 71.4494 27.9894 71.803 28.0135 72.1553C27.9797 72.5121 28.027 72.872 28.1517 73.208C28.2765 73.544 28.4756 73.8474 28.7341 74.0956ZM29.6456 70.8531C29.7463 70.7571 29.8658 70.6828 29.9965 70.635C30.1272 70.5872 30.2663 70.5669 30.4053 70.5753C30.6818 70.5661 30.9522 70.6588 31.1649 70.8358C31.2706 70.935 31.3552 71.0546 31.4134 71.1874C31.4715 71.3202 31.5022 71.4634 31.5035 71.6084H29.3071C29.3326 71.326 29.4517 71.0601 29.6456 70.8531Z" fill="white"/>
<path d="M31.7535 68.3157H28.8887V68.9798H31.7535V68.3157Z" fill="white"/>
<path d="M68.2534 65.178C76.3179 65.178 82.8555 58.6404 82.8555 50.5759C82.8555 42.5114 76.3179 35.9739 68.2534 35.9739C60.1889 35.9739 53.6514 42.5114 53.6514 50.5759C53.6514 58.6404 60.1889 65.178 68.2534 65.178Z" fill="#BA68C8"/>
<path opacity="0.2" d="M82.8555 50.4644V50.5729C82.8546 52.83 82.3304 55.0563 81.3242 57.0767C80.3179 59.0972 78.8569 60.8569 77.056 62.2175C75.2551 63.5782 73.1632 64.5029 70.9447 64.9189C68.7262 65.3349 66.4415 65.231 64.2699 64.6152C62.0984 63.9995 60.0992 62.8887 58.4292 61.3701C56.7593 59.8514 55.4642 57.9664 54.6456 55.8629C53.8269 53.7594 53.5071 51.4948 53.7112 49.2468C53.9152 46.9989 54.6377 44.8289 55.8217 42.9072C55.6157 43.8791 55.5109 44.8698 55.5092 45.8632C55.5081 49.1884 56.6856 52.4063 58.8325 54.9454C60.9794 57.4846 63.9568 59.1806 67.2359 59.7323C70.5149 60.284 73.8834 59.6557 76.743 57.9589C79.6027 56.2622 81.7684 53.6068 82.8555 50.4644Z" fill="black"/>
<path d="M55.7046 43.1077C53.8914 46.1546 53.2491 49.7573 53.8977 53.2432C54.5463 56.729 56.4414 59.8596 59.2292 62.0504C60.2679 60.5842 61.0017 58.9245 61.3871 57.1695C61.7725 55.4146 61.8018 53.6001 61.4731 51.8336C61.1444 50.0672 60.4645 48.3846 59.4736 46.8857C58.4827 45.3869 57.2011 44.1021 55.7046 43.1077Z" fill="#BA68C8"/>
<path opacity="0.1" d="M55.7046 43.1077C53.8914 46.1546 53.2491 49.7573 53.8977 53.2432C54.5463 56.729 56.4414 59.8596 59.2292 62.0504C60.2679 60.5842 61.0017 58.9245 61.3871 57.1695C61.7725 55.4146 61.8018 53.6001 61.4731 51.8336C61.1444 50.0672 60.4645 48.3846 59.4736 46.8857C58.4827 45.3869 57.2011 44.1021 55.7046 43.1077Z" fill="#BA68C8"/>
<g opacity="0.1">
<path d="M55.7036 43.106C53.8904 46.1529 53.2481 49.7556 53.8967 53.2414C54.5453 56.7273 56.4405 59.8579 59.2283 62.0487C60.2669 60.5825 61.0007 58.9228 61.3861 57.1678C61.7715 55.4129 61.8008 53.5984 61.4721 51.8319C61.1434 50.0654 60.4635 48.3829 59.4726 46.884C58.4818 45.3852 57.2001 44.1004 55.7036 43.106Z" fill="black"/>
<path opacity="0.1" d="M55.7036 43.106C53.8904 46.1529 53.2481 49.7556 53.8967 53.2414C54.5453 56.7273 56.4405 59.8579 59.2283 62.0487C60.2669 60.5825 61.0007 58.9228 61.3861 57.1678C61.7715 55.4129 61.8008 53.5984 61.4721 51.8319C61.1434 50.0654 60.4635 48.3829 59.4726 46.884C58.4818 45.3852 57.2001 44.1004 55.7036 43.106Z" fill="black"/>
</g>
<path d="M66.5735 50.178C66.6081 50.1964 66.6467 50.2063 66.686 50.2069C66.7252 50.2075 66.7641 50.1988 66.7993 50.1814C66.8345 50.164 66.865 50.1385 66.8884 50.1069C66.9118 50.0754 66.9273 50.0387 66.9338 50C66.9685 49.8741 67.0466 49.5659 67.0814 49.4227C67.109 49.3537 67.1138 49.2777 67.095 49.2059C67.0763 49.134 67.035 49.07 66.9772 49.0234C66.6515 48.6289 66.483 48.1281 66.504 47.617C66.4984 47.156 66.5866 46.6987 66.7635 46.273C66.9403 45.8472 67.202 45.462 67.5326 45.1407C67.8632 44.8194 68.2558 44.5689 68.6865 44.4043C69.1171 44.2397 69.5767 44.1646 70.0374 44.1835C71.9603 44.1835 73.0194 45.3598 73.0194 46.9311C73.0194 49.0017 72.1035 50.7466 70.7449 50.7466C70.571 50.7554 70.3975 50.7233 70.2384 50.6527C70.0792 50.5822 69.9389 50.4752 69.8286 50.3405C69.7184 50.2057 69.6413 50.047 69.6037 49.877C69.5661 49.707 69.5689 49.5306 69.612 49.3619C69.829 48.4547 70.2457 47.4737 70.2457 46.8183C70.2625 46.6821 70.2499 46.5439 70.2087 46.413C70.1675 46.2821 70.0987 46.1616 70.0069 46.0595C69.9152 45.9575 69.8026 45.8763 69.6768 45.8215C69.551 45.7667 69.4149 45.7395 69.2777 45.7418C68.5138 45.7418 67.8974 46.5361 67.8974 47.5996C67.8923 47.9893 67.9708 48.3756 68.1275 48.7325L67.2029 52.6391C67.04 53.5384 67.0327 54.459 67.1812 55.3607C67.1842 55.379 67.1925 55.396 67.205 55.4097C67.2175 55.4233 67.2337 55.433 67.2517 55.4376C67.2696 55.4422 67.2885 55.4415 67.3061 55.4356C67.3236 55.4296 67.339 55.4187 67.3505 55.4042C67.9207 54.705 68.3617 53.9098 68.6527 53.0558C68.7395 52.739 69.1562 51.0852 69.1562 51.0852C69.348 51.3672 69.6074 51.5968 69.9107 51.753C70.2139 51.9092 70.5514 51.987 70.8925 51.9794C73.2017 51.9794 74.7644 49.8785 74.7644 47.0657C74.7644 44.9344 72.963 42.9551 70.224 42.9551C66.8166 42.9551 65.0977 45.3989 65.0977 47.4347C65.1063 48.6718 65.5751 49.7873 66.5735 50.178Z" fill="white"/>
<path d="M83.4384 82.9045C88.3577 77.9852 88.3577 70.0094 83.4384 65.0901C78.5191 60.1708 70.5433 60.1708 65.624 65.0901C60.7047 70.0094 60.7047 77.9852 65.624 82.9045C70.5433 87.8238 78.519 87.8238 83.4384 82.9045Z" fill="#BA68C8"/>
<path d="M87.1212 73.9023V73.9978C87.1156 75.9409 86.6603 77.8563 85.7909 79.5941C84.9214 81.3318 83.6615 82.8447 82.1098 84.0142C80.558 85.1837 78.7566 85.9781 76.8466 86.3352C74.9366 86.6923 72.9699 86.6024 71.1004 86.0725C69.231 85.5426 67.5096 84.5871 66.071 83.2808C64.6325 81.9746 63.5159 80.3531 62.8087 78.5432C62.1015 76.7334 61.8228 74.7844 61.9946 72.8489C62.1664 70.9134 62.7838 69.044 63.7987 67.387C63.6202 68.2246 63.53 69.0785 63.5296 69.9349C63.5274 72.8043 64.5427 75.5815 66.395 77.773C68.2473 79.9644 70.8165 81.4281 73.6462 81.904C76.4758 82.3799 79.3825 81.837 81.8497 80.372C84.3169 78.9069 86.1847 76.6146 87.1212 73.9023Z" fill="#BA68C8"/>
<path opacity="0.2" d="M87.1212 73.9023V73.9978C87.1156 75.9409 86.6603 77.8563 85.7909 79.5941C84.9214 81.3318 83.6615 82.8447 82.1098 84.0142C80.558 85.1837 78.7566 85.9781 76.8466 86.3352C74.9366 86.6923 72.9699 86.6024 71.1004 86.0725C69.231 85.5426 67.5096 84.5871 66.071 83.2808C64.6325 81.9746 63.5159 80.3531 62.8087 78.5432C62.1015 76.7334 61.8228 74.7844 61.9946 72.8489C62.1664 70.9134 62.7838 69.044 63.7987 67.387C63.6202 68.2246 63.53 69.0785 63.5296 69.9349C63.5274 72.8043 64.5427 75.5815 66.395 77.773C68.2473 79.9644 70.8165 81.4281 73.6462 81.904C76.4758 82.3799 79.3825 81.837 81.8497 80.372C84.3169 78.9069 86.1847 76.6146 87.1212 73.9023Z" fill="black"/>
<path d="M61.9229 74.0003C61.9136 76.5295 62.6702 79.0022 64.0933 81.093C65.8941 80.5684 67.5205 79.5689 68.802 78.1993C70.0835 76.8298 70.9729 75.1406 71.3769 73.309C71.7808 71.4774 71.6845 69.5708 71.098 67.7893C70.5115 66.0077 69.4563 64.4168 68.0433 63.1833C66.1743 64.3026 64.6279 65.8878 63.5551 67.7838C62.4823 69.6799 61.9199 71.8218 61.9229 74.0003Z" fill="#BA68C8"/>
<path opacity="0.1" d="M61.9229 74.0003C61.9136 76.5295 62.6702 79.0022 64.0933 81.093C65.8941 80.5684 67.5205 79.5689 68.802 78.1993C70.0835 76.8298 70.9729 75.1406 71.3769 73.309C71.7808 71.4774 71.6845 69.5708 71.098 67.7893C70.5115 66.0077 69.4563 64.4168 68.0433 63.1833C66.1743 64.3026 64.6279 65.8878 63.5551 67.7838C62.4823 69.6799 61.9199 71.8218 61.9229 74.0003Z" fill="black"/>
<path d="M75.3505 71.2415H73.6533V76.7281H75.3505V71.2415Z" fill="white"/>
<path d="M74.49 70.5259C74.6904 70.5276 74.8868 70.4698 75.0542 70.3597C75.2217 70.2496 75.3527 70.0923 75.4306 69.9076C75.5084 69.723 75.5297 69.5193 75.4917 69.3226C75.4536 69.1258 75.358 68.9448 75.2169 68.8025C75.0758 68.6602 74.8956 68.563 74.6992 68.5233C74.5028 68.4835 74.299 68.503 74.1137 68.5793C73.9284 68.6556 73.7699 68.7852 73.6584 68.9517C73.5469 69.1182 73.4873 69.3141 73.4873 69.5145C73.4873 69.7813 73.5927 70.0372 73.7805 70.2266C73.9683 70.416 74.2233 70.5236 74.49 70.5259Z" fill="white"/>
<path d="M78.0535 73.8497C78.0535 73.077 78.4095 72.6169 79.091 72.6169C79.7725 72.6169 80.0112 73.051 80.0112 73.8497V76.7275H81.7041V73.255C81.7041 71.7878 80.8706 71.0846 79.7073 71.0846C79.3768 71.0802 79.0508 71.1614 78.7609 71.3204C78.4711 71.4794 78.2274 71.7107 78.0535 71.9918V71.2496H76.4258V76.7362H78.0535V73.8497Z" fill="white"/>
<path d="M60.1392 79.4936C65.5522 79.4936 69.9404 75.1055 69.9404 69.6924C69.9404 64.2793 65.5522 59.8911 60.1392 59.8911C54.7261 59.8911 50.3379 64.2793 50.3379 69.6924C50.3379 75.1055 54.7261 79.4936 60.1392 79.4936Z" fill="#BA68C8"/>
<path d="M69.9404 69.6139V69.6877C69.9394 71.2024 69.5873 72.6963 68.9118 74.0521C68.2363 75.4078 67.2557 76.5886 66.0471 77.5016C64.8384 78.4147 63.4347 79.0352 61.9459 79.3144C60.4571 79.5936 58.9238 79.5239 57.4665 79.1109C56.0092 78.6979 54.6674 77.9526 53.5465 76.9338C52.4256 75.9149 51.5562 74.6501 51.0064 73.2387C50.4565 71.8273 50.2413 70.3076 50.3777 68.799C50.514 67.2904 50.9981 65.834 51.792 64.5439C51.6535 65.1961 51.5837 65.8609 51.5837 66.5276C51.5881 68.7569 52.3813 70.9127 53.8227 72.6133C55.2642 74.3139 57.2609 75.4496 59.4593 75.8192C61.6578 76.1888 63.9161 75.7685 65.8344 74.6328C67.7527 73.4971 69.2072 71.7191 69.9404 69.6139Z" fill="#BA68C8"/>
<path opacity="0.2" d="M69.9404 69.6139V69.6877C69.9394 71.2024 69.5873 72.6963 68.9118 74.0521C68.2363 75.4078 67.2557 76.5886 66.0471 77.5016C64.8384 78.4147 63.4347 79.0352 61.9459 79.3144C60.4571 79.5936 58.9238 79.5239 57.4665 79.1109C56.0092 78.6979 54.6674 77.9526 53.5465 76.9338C52.4256 75.9149 51.5562 74.6501 51.0064 73.2387C50.4565 71.8273 50.2413 70.3076 50.3777 68.799C50.514 67.2904 50.9981 65.834 51.792 64.5439C51.6535 65.1961 51.5837 65.8609 51.5837 66.5276C51.5881 68.7569 52.3813 70.9127 53.8227 72.6133C55.2642 74.3139 57.2609 75.4496 59.4593 75.8192C61.6578 76.1888 63.9161 75.7685 65.8344 74.6328C67.7527 73.4971 69.2072 71.7191 69.9404 69.6139Z" fill="black"/>
<path d="M55.4258 66.3859L57.7828 67.8834L60.1354 66.3859L57.7828 64.884L55.4258 66.3859Z" fill="white"/>
<path d="M60.1357 66.3859L62.4927 67.8834L64.8497 66.3859L62.4927 64.884L60.1357 66.3859Z" fill="white"/>
<path d="M55.4258 69.3642L57.7828 70.8661L60.1354 69.3642L57.7828 67.8623L55.4258 69.3642Z" fill="white"/>
<path d="M62.4927 67.8623L60.1357 69.3642L62.4927 70.8661L64.8497 69.3642L62.4927 67.8623Z" fill="white"/>
<path d="M57.7979 71.3613L60.1549 72.8632L62.5075 71.3613L60.1549 69.8638L57.7979 71.3613Z" fill="white"/>
<path d="M54.6485 64.6367C59.8967 59.3885 59.8967 50.8796 54.6485 45.6314C49.4004 40.3832 40.8914 40.3832 35.6433 45.6314C30.3951 50.8796 30.3951 59.3885 35.6433 64.6367C40.8914 69.8848 49.4004 69.8848 54.6485 64.6367Z" fill="#BA68C8"/>
<path opacity="0.7" d="M58.582 55.0324V55.1322C58.5907 57.2173 58.1146 59.2759 57.1914 61.1455C56.2682 63.0151 54.9232 64.6446 53.2624 65.9054C51.6017 67.1662 49.6706 68.0238 47.6217 68.4105C45.5728 68.7972 43.462 68.7025 41.4559 68.1338C39.4499 67.5651 37.6034 66.5379 36.0623 65.1335C34.5211 63.729 33.3275 61.9855 32.5755 60.0407C31.8235 58.0959 31.5338 56.003 31.7291 53.927C31.9245 51.8511 32.5996 49.849 33.7013 48.0786C33.0083 51.3015 33.5716 54.6673 35.276 57.489C36.9805 60.3107 39.6977 62.3754 42.8728 63.2617C46.048 64.148 49.4417 63.789 52.3611 62.258C55.2806 60.7271 57.5056 58.1395 58.582 55.0237V55.0324Z" fill="#BA68C8"/>
<g opacity="0.1">
<path opacity="0.7" d="M58.5801 55.0329V55.1327C58.5887 57.2178 58.1126 59.2764 57.1895 61.146C56.2663 63.0156 54.9212 64.6451 53.2605 65.9059C51.5997 67.1667 49.6687 68.0243 47.6197 68.411C45.5708 68.7977 43.46 68.703 41.454 68.1343C39.4479 67.5656 37.6015 66.5384 36.0603 65.1339C34.5192 63.7294 33.3255 61.986 32.5735 60.0412C31.8215 58.0964 31.5318 56.0035 31.7272 53.9275C31.9225 51.8516 32.5977 49.8495 33.6993 48.0791C33.0064 51.302 33.5696 54.6678 35.2741 57.4895C36.9786 60.3112 39.6957 62.3759 42.8709 63.2622C46.046 64.1485 49.4397 63.7895 52.3592 62.2585C55.2786 60.7275 57.5037 58.14 58.5801 55.0242V55.0329Z" fill="black"/>
</g>
<path d="M45.4519 48.2661C44.2355 48.2627 43.0454 48.6203 42.0324 49.2935C41.0193 49.9668 40.2288 50.9256 39.761 52.0484C39.2931 53.1712 39.1689 54.4075 39.4041 55.601C39.6393 56.7944 40.2233 57.8912 41.0822 58.7525C41.9411 59.6139 43.0362 60.201 44.229 60.4395C45.4217 60.6781 46.6585 60.5574 47.7826 60.0927C48.9067 59.628 49.8677 58.8403 50.5438 57.8291C51.22 56.818 51.5809 55.6289 51.5809 54.4125C51.5809 52.7854 50.9357 51.2247 49.7868 50.0725C48.6379 48.9203 47.079 48.2707 45.4519 48.2661ZM48.2776 57.1645C48.2531 57.2085 48.2198 57.2469 48.1797 57.2774C48.1396 57.3079 48.0937 57.3297 48.0448 57.3415C47.9958 57.3533 47.945 57.3549 47.8954 57.3461C47.8458 57.3373 47.7986 57.3184 47.7568 57.2904C46.3113 56.3962 44.5012 56.2139 42.3483 56.7044C42.2511 56.7271 42.1489 56.7113 42.0632 56.6603C41.9774 56.6093 41.9147 56.5271 41.8882 56.431C41.8654 56.3332 41.8811 56.2305 41.932 56.144C41.9829 56.0576 42.0651 55.994 42.1616 55.9665C44.5013 55.4456 46.5283 55.6627 48.1257 56.6437C48.1718 56.6658 48.2128 56.6974 48.2459 56.7365C48.279 56.7755 48.3035 56.8211 48.3178 56.8702C48.3322 56.9193 48.336 56.9709 48.3291 57.0217C48.3222 57.0724 48.3046 57.121 48.2776 57.1645ZM49.0156 55.476C48.9869 55.5318 48.9464 55.5808 48.897 55.6194C48.8476 55.6581 48.7904 55.6856 48.7294 55.7001C48.6683 55.7145 48.6048 55.7155 48.5433 55.7031C48.4818 55.6906 48.4238 55.665 48.3731 55.6279C47.4512 55.1113 46.4357 54.783 45.3857 54.6623C44.3358 54.5416 43.2723 54.6308 42.2571 54.9247C42.1974 54.9467 42.1339 54.9563 42.0704 54.953C42.0069 54.9496 41.9447 54.9334 41.8877 54.9052C41.8307 54.8771 41.78 54.8376 41.7386 54.7893C41.6973 54.7409 41.6663 54.6846 41.6475 54.6239C41.6286 54.5632 41.6223 54.4992 41.6289 54.436C41.6355 54.3727 41.6549 54.3115 41.686 54.256C41.717 54.2005 41.759 54.1519 41.8095 54.1131C41.8599 54.0744 41.9177 54.0463 41.9793 54.0306C43.1292 53.7029 44.3329 53.6074 45.52 53.7498C46.7072 53.8921 47.8542 54.2694 48.894 54.8596C48.9892 54.9233 49.0553 55.0219 49.0781 55.1341C49.1009 55.2463 49.0784 55.363 49.0156 55.4587V55.476ZM49.0763 53.7397C47.11 52.5721 43.8241 52.4375 41.9489 53.0322C41.8782 53.0553 41.8037 53.0642 41.7296 53.0585C41.6554 53.0528 41.5831 53.0325 41.5168 52.9989C41.4505 52.9652 41.3915 52.9188 41.3431 52.8624C41.2948 52.8059 41.258 52.7404 41.2349 52.6698C41.2118 52.5991 41.2029 52.5245 41.2086 52.4504C41.2143 52.3763 41.2346 52.304 41.2682 52.2377C41.3019 52.1714 41.3483 52.1123 41.4047 52.064C41.4612 52.0156 41.5266 51.9788 41.5973 51.9557C43.7677 51.309 47.3748 51.4348 49.6493 52.7848C49.7821 52.8637 49.8791 52.9911 49.9196 53.1402C49.9601 53.2892 49.941 53.4482 49.8663 53.5835C49.7713 53.6944 49.6417 53.77 49.4984 53.7984C49.3551 53.8267 49.2065 53.8061 49.0763 53.7397Z" fill="white"/>
<path d="M44.7706 86.5549C49.8313 86.5549 53.9338 82.4524 53.9338 77.3917C53.9338 72.331 49.8313 68.2285 44.7706 68.2285C39.7099 68.2285 35.6074 72.331 35.6074 77.3917C35.6074 82.4524 39.7099 86.5549 44.7706 86.5549Z" fill="#BA68C8"/>
<path d="M53.9338 77.3203V77.3898C53.9336 78.8064 53.605 80.2037 52.9737 81.4719C52.3425 82.7401 51.4258 83.8447 50.2956 84.6989C49.1655 85.553 47.8527 86.1335 46.4603 86.3948C45.068 86.656 43.6341 86.5908 42.2712 86.2044C40.9083 85.818 39.6535 85.1209 38.6055 84.1677C37.5574 83.2146 36.7447 82.0315 36.231 80.7112C35.7173 79.391 35.5168 77.9697 35.6451 76.5589C35.7734 75.1481 36.227 73.7862 36.9704 72.5803C36.8409 73.1897 36.7755 73.8109 36.7751 74.4338C36.7785 76.5179 37.5194 78.5336 38.8667 80.1237C40.2139 81.7139 42.0805 82.7759 44.1357 83.1216C46.191 83.4674 48.3022 83.0745 50.0956 82.0127C51.889 80.9509 53.2486 79.2886 53.9338 77.3203Z" fill="#BA68C8"/>
<path opacity="0.2" d="M53.9338 77.3203V77.3898C53.9336 78.8064 53.605 80.2037 52.9737 81.4719C52.3425 82.7401 51.4258 83.8447 50.2956 84.6989C49.1655 85.553 47.8527 86.1335 46.4603 86.3948C45.068 86.656 43.6341 86.5908 42.2712 86.2044C40.9083 85.818 39.6535 85.1209 38.6055 84.1677C37.5574 83.2146 36.7447 82.0315 36.231 80.7112C35.7173 79.391 35.5168 77.9697 35.6451 76.5589C35.7734 75.1481 36.227 73.7862 36.9704 72.5803C36.8409 73.1897 36.7755 73.8109 36.7751 74.4338C36.7785 76.5179 37.5194 78.5336 38.8667 80.1237C40.2139 81.7139 42.0805 82.7759 44.1357 83.1216C46.191 83.4674 48.3022 83.0745 50.0956 82.0127C51.889 80.9509 53.2486 79.2886 53.9338 77.3203Z" fill="#BA68C8"/>
<g opacity="0.1">
<path d="M53.9318 77.3186V77.3881C53.9317 78.8047 53.603 80.202 52.9718 81.4702C52.3405 82.7384 51.4238 83.843 50.2937 84.6972C49.1635 85.5513 47.8507 86.1318 46.4584 86.393C45.0661 86.6543 43.6321 86.5891 42.2692 86.2027C40.9063 85.8163 39.6516 85.1192 38.6035 84.166C37.5555 83.2129 36.7427 82.0298 36.2291 80.7095C35.7154 79.3893 35.5148 77.968 35.6431 76.5572C35.7714 75.1464 36.2251 73.7845 36.9684 72.5786C36.839 73.188 36.7735 73.8091 36.7731 74.4321C36.7765 76.5162 37.5175 78.5319 38.8647 80.122C40.2119 81.7122 42.0785 82.7742 44.1337 83.1199C46.189 83.4657 48.3003 83.0728 50.0936 82.011C51.887 80.9492 53.2467 79.2869 53.9318 77.3186Z" fill="black"/>
<path opacity="0.2" d="M53.9318 77.3186V77.3881C53.9317 78.8047 53.603 80.202 52.9718 81.4702C52.3405 82.7384 51.4238 83.843 50.2937 84.6972C49.1635 85.5513 47.8507 86.1318 46.4584 86.393C45.0661 86.6543 43.6321 86.5891 42.2692 86.2027C40.9063 85.8163 39.6516 85.1192 38.6035 84.166C37.5555 83.2129 36.7427 82.0298 36.2291 80.7095C35.7154 79.3893 35.5148 77.968 35.6431 76.5572C35.7714 75.1464 36.2251 73.7845 36.9684 72.5786C36.839 73.188 36.7735 73.8091 36.7731 74.4321C36.7765 76.5162 37.5175 78.5319 38.8647 80.122C40.2119 81.7122 42.0785 82.7742 44.1337 83.1199C46.189 83.4657 48.3003 83.0728 50.0936 82.011C51.887 80.9492 53.2467 79.2869 53.9318 77.3186Z" fill="black"/>
</g>
<path d="M41.0808 76.7017C41.0803 77.2423 41.1863 77.7776 41.3929 78.2771C41.5995 78.7766 41.9026 79.2305 42.2848 79.6127C42.667 79.995 43.1209 80.298 43.6204 80.5046C44.1199 80.7112 44.6552 80.8173 45.1958 80.8167C45.4537 80.8166 45.7109 80.7919 45.9641 80.7429C46.3284 80.9631 46.7447 81.0824 47.1704 81.0886C47.596 81.0948 48.0156 80.9878 48.3863 80.7784C48.7569 80.569 49.0651 80.2648 49.2795 79.897C49.4938 79.5293 49.6065 79.1111 49.6059 78.6854C49.608 78.2387 49.483 77.8007 49.2456 77.4223C49.2874 77.1843 49.3091 76.9433 49.3108 76.7017C49.3096 75.6107 48.8757 74.5647 48.1042 73.7933C47.3328 73.0218 46.2868 72.5879 45.1958 72.5868C44.9408 72.587 44.6864 72.6117 44.4362 72.6606C43.9764 72.3914 43.4401 72.2829 42.9119 72.3521C42.3837 72.4213 41.8934 72.6643 41.5185 73.0427C41.1435 73.4212 40.9051 73.9136 40.8408 74.4425C40.7765 74.9713 40.8899 75.5065 41.1633 75.9638C41.1134 76.2068 41.0858 76.4538 41.0808 76.7017ZM45.2392 73.7805C46.5674 73.8586 47.3444 74.4402 47.4095 74.9872C47.4212 75.0712 47.4135 75.1568 47.3872 75.2375C47.3609 75.3182 47.3166 75.3918 47.2577 75.4529C47.1987 75.5139 47.1266 75.5608 47.0469 75.5899C46.9672 75.619 46.8819 75.6296 46.7975 75.6209C46.1985 75.6209 46.1377 74.8179 45.1046 74.8179C44.6402 74.8179 44.2365 75.0132 44.2365 75.4343C44.2365 76.3024 47.5484 75.8032 47.5484 77.7348C47.5484 78.8504 46.6543 79.5796 45.3217 79.5796C44.1497 79.5796 42.9734 79.05 42.9777 78.1342C42.974 78.0007 43.0222 77.8711 43.112 77.7724C43.2018 77.6736 43.3263 77.6135 43.4595 77.6046C44.1497 77.6046 44.1453 78.6333 45.2435 78.6333C46.0162 78.6333 46.2766 78.1993 46.2766 77.9171C46.2766 76.858 42.9473 77.5091 42.9473 75.5167C42.9647 74.4316 43.8502 73.6893 45.2392 73.7718V73.7805Z" fill="white"/>
<path d="M23.5927 60.1246C24.9546 54.2907 21.3292 48.4572 15.4952 47.0953C9.66127 45.7334 3.82785 49.3588 2.46594 55.1928C1.10404 61.0267 4.72938 66.8601 10.5634 68.222C16.3973 69.584 22.2308 65.9586 23.5927 60.1246Z" fill="#BA68C8"/>
<path opacity="0.5" d="M23.8753 57.6024V57.6848C23.8717 59.362 23.4795 61.0155 22.7293 62.5155C21.9792 64.0156 20.8916 65.3213 19.5519 66.3303C18.2122 67.3392 16.6568 68.0239 15.0079 68.3306C13.3591 68.6373 11.6615 68.5576 10.0487 68.0979C8.43575 67.6381 6.95138 66.8107 5.71206 65.6807C4.47274 64.5507 3.51221 63.1488 2.90587 61.5851C2.29954 60.0214 2.0639 58.3384 2.21746 56.6683C2.37102 54.9982 2.90961 53.3864 3.79093 51.9595C3.63876 52.6817 3.56166 53.4178 3.56088 54.1559C3.55982 56.6262 4.43448 59.0169 6.02947 60.9033C7.62446 62.7898 9.83651 64.0497 12.2726 64.4594C14.7088 64.869 17.2112 64.4019 19.3355 63.1409C21.4598 61.8799 23.0683 59.9068 23.8753 57.572V57.6024Z" fill="#BA68C8"/>
<path opacity="0.1" d="M23.8753 57.6024V57.6848C23.8717 59.362 23.4795 61.0155 22.7293 62.5155C21.9792 64.0156 20.8916 65.3213 19.5519 66.3303C18.2122 67.3392 16.6568 68.0239 15.0079 68.3306C13.3591 68.6373 11.6615 68.5576 10.0487 68.0979C8.43575 67.6381 6.95138 66.8107 5.71206 65.6807C4.47274 64.5507 3.51221 63.1488 2.90587 61.5851C2.29954 60.0214 2.0639 58.3384 2.21746 56.6683C2.37102 54.9982 2.90961 53.3864 3.79093 51.9595C3.63876 52.6817 3.56166 53.4178 3.56088 54.1559C3.55982 56.6262 4.43448 59.0169 6.02947 60.9033C7.62446 62.7898 9.83651 64.0497 12.2726 64.4594C14.7088 64.869 17.2112 64.4019 19.3355 63.1409C21.4598 61.8799 23.0683 59.9068 23.8753 57.572V57.6024Z" fill="black"/>
<path fill-rule="evenodd" clip-rule="evenodd" d="M17.1813 58.4034C17.0963 58.3585 17.0058 58.325 16.9122 58.3035C16.471 58.153 16.0853 57.8732 15.8053 57.5005C15.6487 57.3004 15.5229 57.078 15.432 56.8407C15.4092 56.7972 15.3973 56.7488 15.3973 56.6996C15.3973 56.6505 15.4092 56.6021 15.432 56.5586C15.5318 56.4437 15.6631 56.3607 15.8096 56.3198C15.9961 56.266 16.1701 56.176 16.3218 56.0551C16.3538 56.0314 16.3792 56 16.3956 55.9639C16.3963 55.9509 16.3963 55.9378 16.3956 55.9248C16.4042 55.9042 16.4087 55.8821 16.4087 55.8597C16.4087 55.8374 16.4042 55.8152 16.3956 55.7946C16.3547 55.72 16.2907 55.6606 16.2133 55.6253C16.1668 55.5993 16.1154 55.5831 16.0624 55.5779C16.0094 55.5727 15.9558 55.5785 15.9051 55.5949C15.8158 55.6282 15.7245 55.6557 15.6317 55.6774C15.5295 55.7061 15.4213 55.7061 15.3191 55.6774C15.3207 55.6557 15.3207 55.634 15.3191 55.6123C15.3191 55.4256 15.3191 55.2303 15.3191 55.0306C15.3449 54.7201 15.3449 54.4079 15.3191 54.0974C15.2091 53.5674 14.898 53.1006 14.451 52.7952C14.1362 52.567 13.7659 52.4276 13.3789 52.3915C13.2516 52.3851 13.1241 52.3851 12.9969 52.3915C12.473 52.3824 11.9606 52.5456 11.5384 52.856C11.2287 53.0999 10.9854 53.4178 10.8309 53.7805C10.711 54.1454 10.6711 54.5318 10.7137 54.9134C10.7329 55.1605 10.7329 55.4087 10.7137 55.6557C10.5918 55.6794 10.4666 55.6794 10.3447 55.6557C10.2491 55.6355 10.1549 55.6094 10.0626 55.5776C10.0153 55.5673 9.96638 55.5674 9.91917 55.5779C9.87195 55.5884 9.82758 55.609 9.78911 55.6383C9.74796 55.6599 9.71288 55.6915 9.6871 55.7302C9.66131 55.7689 9.64564 55.8134 9.64153 55.8597C9.65627 55.9193 9.68975 55.9725 9.73703 56.0116L9.83252 56.0811C10.0133 56.1855 10.2055 56.2685 10.4055 56.3285C10.464 56.3488 10.5176 56.3813 10.5625 56.424C10.6074 56.4667 10.6427 56.5185 10.6659 56.5759C10.6793 56.7281 10.6427 56.8805 10.5618 57.01C10.3604 57.409 10.0619 57.7508 9.69362 58.004C9.49765 58.1379 9.28044 58.2377 9.0512 58.2992C8.96119 58.3131 8.87938 58.3594 8.82114 58.4294C8.82302 58.438 8.82302 58.4469 8.82114 58.4554C8.81173 58.4857 8.80997 58.5178 8.81603 58.5488C8.8221 58.5799 8.83579 58.609 8.85587 58.6334C8.88257 58.6669 8.91676 58.6937 8.9557 58.7115C9.142 58.8077 9.34064 58.8778 9.54603 58.9199C9.67122 58.9405 9.7946 58.971 9.91499 59.0111C9.91499 59.0111 9.91499 59.0545 9.95406 59.1109C9.99313 59.1673 10.0018 59.3409 10.0409 59.4712C10.047 59.4892 10.0579 59.5051 10.0724 59.5174C10.087 59.5296 10.1046 59.5377 10.1233 59.5406C10.1682 59.5569 10.2174 59.5569 10.2623 59.5406C10.5679 59.4668 10.8852 59.455 11.1955 59.5059C11.5044 59.6248 11.7963 59.7839 12.0636 59.979C12.2712 60.1252 12.5139 60.2136 12.7668 60.2351C12.9648 60.2482 13.1635 60.2482 13.3615 60.2351C13.5265 60.2174 13.6852 60.1625 13.8259 60.0745C14.1193 59.8829 14.422 59.7061 14.7331 59.545C14.852 59.5133 14.9748 59.4987 15.0978 59.5016C15.3531 59.4928 15.6087 59.5059 15.8617 59.5406H15.8878C15.9219 59.534 15.9527 59.5156 15.9746 59.4885C15.9822 59.4821 15.9885 59.4741 15.993 59.4652C15.9974 59.4562 16 59.4464 16.0006 59.4364C16.0006 59.3974 16.0006 59.4104 16.0006 59.4364C16.0029 59.4294 16.0029 59.4218 16.0006 59.4147C16.0269 59.2811 16.0769 59.1532 16.1482 59.0371C16.1944 59.0027 16.2513 58.9857 16.3088 58.9893C16.5169 58.9552 16.7207 58.8984 16.9165 58.8201C17.0128 58.7894 17.0986 58.7322 17.1639 58.6551C17.1776 58.6353 17.187 58.613 17.1918 58.5895C17.1966 58.5659 17.1965 58.5416 17.1916 58.5181C17.1868 58.4946 17.1772 58.4723 17.1635 58.4526C17.1498 58.4329 17.1322 58.4161 17.1118 58.4034H17.1813Z" fill="white"/>
<path d="M63.0241 39.0803C64.6743 33.0524 61.1254 26.828 55.0975 25.1778C49.0695 23.5277 42.8452 27.0765 41.195 33.1045C39.5448 39.1324 43.0936 45.3568 49.1216 47.007C55.1495 48.6572 61.3739 45.1083 63.0241 39.0803Z" fill="#BA68C8"/>
<path opacity="0.5" d="M63.4204 36.004V36.0908C63.4178 37.839 63.0102 39.5629 62.2296 41.1271C61.449 42.6913 60.3165 44.0534 58.9211 45.1065C57.5257 46.1597 55.9053 46.8752 54.187 47.1969C52.4686 47.5187 50.6991 47.4379 49.0172 46.961C47.3353 46.4841 45.7868 45.624 44.4931 44.4482C43.1994 43.2723 42.1957 41.8128 41.5608 40.1839C40.9259 38.5551 40.677 36.8013 40.8336 35.0602C40.9902 33.319 41.5481 31.6378 42.4636 30.1484C41.8878 32.8594 42.3664 35.6879 43.802 38.0586C45.2376 40.4293 47.5224 42.164 50.1916 42.91C52.8608 43.6559 55.7139 43.3571 58.1705 42.0742C60.6272 40.7913 62.5029 38.6207 63.4161 36.004H63.4204Z" fill="#BA68C8"/>
<path opacity="0.1" d="M63.4204 36.004V36.0908C63.4178 37.839 63.0102 39.5629 62.2296 41.1271C61.449 42.6913 60.3165 44.0534 58.9211 45.1065C57.5257 46.1597 55.9053 46.8752 54.187 47.1969C52.4686 47.5187 50.6991 47.4379 49.0172 46.961C47.3353 46.4841 45.7868 45.624 44.4931 44.4482C43.1994 43.2723 42.1957 41.8128 41.5608 40.1839C40.9259 38.5551 40.677 36.8013 40.8336 35.0602C40.9902 33.319 41.5481 31.6378 42.4636 30.1484C41.8878 32.8594 42.3664 35.6879 43.802 38.0586C45.2376 40.4293 47.5224 42.164 50.1916 42.91C52.8608 43.6559 55.7139 43.3571 58.1705 42.0742C60.6272 40.7913 62.5029 38.6207 63.4161 36.004H63.4204Z" fill="#BA68C8"/>
<g opacity="0.1">
<path opacity="0.5" d="M63.4194 36.004V36.0908C63.4168 37.839 63.0092 39.5629 62.2286 41.1271C61.448 42.6913 60.3156 44.0534 58.9201 45.1065C57.5247 46.1597 55.9043 46.8752 54.186 47.1969C52.4676 47.5187 50.6981 47.4379 49.0162 46.961C47.3343 46.4841 45.7858 45.624 44.4921 44.4482C43.1984 43.2723 42.1948 41.8128 41.5598 40.1839C40.9249 38.5551 40.676 36.8013 40.8326 35.0602C40.9893 33.319 41.5472 31.6378 42.4626 30.1484C41.8868 32.8594 42.3655 35.6879 43.8011 38.0586C45.2367 40.4293 47.5214 42.164 50.1906 42.91C52.8598 43.6559 55.7129 43.3571 58.1696 42.0742C60.6262 40.7913 62.5019 38.6207 63.4151 36.004H63.4194Z" fill="black"/>
<path opacity="0.1" d="M63.4194 36.004V36.0908C63.4168 37.839 63.0092 39.5629 62.2286 41.1271C61.448 42.6913 60.3156 44.0534 58.9201 45.1065C57.5247 46.1597 55.9043 46.8752 54.186 47.1969C52.4676 47.5187 50.6981 47.4379 49.0162 46.961C47.3343 46.4841 45.7858 45.624 44.4921 44.4482C43.1984 43.2723 42.1948 41.8128 41.5598 40.1839C40.9249 38.5551 40.676 36.8013 40.8326 35.0602C40.9893 33.319 41.5472 31.6378 42.4626 30.1484C41.8868 32.8594 42.3655 35.6879 43.8011 38.0586C45.2367 40.4293 47.5214 42.164 50.1906 42.91C52.8598 43.6559 55.7129 43.3571 58.1696 42.0742C60.6262 40.7913 62.5019 38.6207 63.4151 36.004H63.4194Z" fill="black"/>
</g>
<path fill-rule="evenodd" clip-rule="evenodd" d="M56.171 34.7511C56.1335 33.7527 55.7129 32.807 54.9964 32.1107C54.2799 31.4143 53.3227 31.0208 52.3236 31.0119C51.3245 31.0029 50.3603 31.3793 49.6315 32.0627C48.9027 32.7461 48.4651 33.684 48.4098 34.6816C48.4098 34.7381 48.4098 34.7945 48.4098 34.8509C48.4093 35.552 48.6015 36.2397 48.9655 36.8389L48.2666 38.9095L50.4152 38.2236C50.9913 38.5397 51.6377 38.7055 52.2948 38.7054C52.8026 38.7072 53.3059 38.6088 53.7758 38.416C54.2457 38.2232 54.673 37.9398 55.0334 37.5819C55.3937 37.2239 55.68 36.7986 55.8759 36.33C56.0719 35.8614 56.1736 35.3588 56.1753 34.8509L56.171 34.7511ZM52.2904 38.0891C51.6514 38.0912 51.026 37.9039 50.4934 37.5508L49.2389 37.9545L49.6469 36.7478C49.2418 36.1983 49.0228 35.5337 49.0219 34.8509C49.0219 34.7424 49.0219 34.6382 49.0219 34.534C49.1019 33.7213 49.4833 32.9679 50.091 32.4223C50.6986 31.8767 51.4885 31.5783 52.3052 31.5859C53.1218 31.5935 53.9061 31.9066 54.5034 32.4635C55.1008 33.0204 55.4681 33.7807 55.5329 34.5948C55.5329 34.6816 55.5329 34.7641 55.5329 34.8509C55.5272 35.7087 55.1836 36.5297 54.5766 37.1359C53.9697 37.742 53.1482 38.0845 52.2904 38.0891Z" fill="white"/>
<path fill-rule="evenodd" clip-rule="evenodd" d="M54.0707 35.629C53.9753 35.5813 53.5065 35.3512 53.4196 35.3208C53.3328 35.2905 53.2677 35.2731 53.2026 35.3686C53.1375 35.4641 52.9552 35.6768 52.9031 35.7375C52.851 35.7983 52.7902 35.807 52.6948 35.7593C52.4133 35.6515 52.1543 35.4926 51.9308 35.2905C51.7215 35.1023 51.5428 34.8826 51.4012 34.6394C51.3908 34.6244 51.3835 34.6075 51.3799 34.5896C51.3762 34.5718 51.3762 34.5533 51.3798 34.5355C51.3835 34.5176 51.3907 34.5007 51.4011 34.4857C51.4115 34.4707 51.4248 34.458 51.4403 34.4484C51.488 34.405 51.5358 34.3355 51.5879 34.2791L51.6226 34.2357C51.6443 34.2009 51.6573 34.1662 51.679 34.1228C51.6931 34.0976 51.7005 34.0692 51.7005 34.0403C51.7005 34.0115 51.6931 33.9831 51.679 33.9579C51.653 33.9101 51.462 33.4457 51.3839 33.2547C51.3057 33.0637 51.2233 33.0984 51.1668 33.0984H50.9889C50.9405 33.1 50.893 33.1112 50.849 33.1313C50.8051 33.1514 50.7655 33.1801 50.7328 33.2156C50.6255 33.317 50.5404 33.4396 50.4828 33.5756C50.4253 33.7116 50.3966 33.858 50.3985 34.0056C50.4006 34.1146 50.4182 34.2228 50.4506 34.3268C50.5232 34.5639 50.6379 34.7859 50.7892 34.9823C51.1852 35.6016 51.7479 36.0965 52.4126 36.4104C53.3849 36.788 53.3849 36.6621 53.5585 36.6448C53.6904 36.6224 53.8159 36.5721 53.9267 36.4972C54.0375 36.4224 54.131 36.3247 54.201 36.2107C54.2592 36.0739 54.2787 35.9237 54.2574 35.7766C54.227 35.6985 54.1836 35.6768 54.0707 35.629Z" fill="white"/>
</svg>
