<svg width="278" height="150" viewBox="0 0 278 150" fill="none" xmlns="http://www.w3.org/2000/svg">
<path d="M277.16 6.4254V142.978C277.16 144.64 276.499 146.234 275.324 147.409C274.149 148.584 272.555 149.245 270.893 149.245H6.45795C4.79512 149.245 3.20026 148.585 2.02359 147.41C0.846911 146.235 0.184607 144.641 0.182129 142.978V6.4254C0.184607 4.76257 0.846911 3.16869 2.02359 1.99377C3.20026 0.81885 4.79512 0.158934 6.45795 0.158936H270.893C272.555 0.158936 274.149 0.819152 275.324 1.99434C276.499 3.16953 277.16 4.76343 277.16 6.4254Z" fill="white"/>
<mask id="mask0_70_5008" style="mask-type:luminance" maskUnits="userSpaceOnUse" x="0" y="0" width="278" height="150">
<path d="M277.16 6.4254V142.978C277.16 144.64 276.499 146.234 275.324 147.409C274.149 148.584 272.555 149.245 270.893 149.245H6.45795C4.79512 149.245 3.20026 148.585 2.02359 147.41C0.846911 146.235 0.184607 144.641 0.182129 142.978V6.4254C0.184607 4.76257 0.846911 3.16869 2.02359 1.99377C3.20026 0.81885 4.79512 0.158934 6.45795 0.158936H270.893C272.555 0.158936 274.149 0.819152 275.324 1.99434C276.499 3.16953 277.16 4.76343 277.16 6.4254Z" fill="white"/>
</mask>
<g mask="url(#mask0_70_5008)">
<path opacity="0.2" d="M277.156 13.6831V143.006C277.156 144.668 276.496 146.262 275.321 147.437C274.145 148.612 272.551 149.272 270.89 149.272H104.51V13.655L277.156 13.6831Z" fill="#71389A"/>
</g>
<path d="M277.16 6.4254V142.978C277.16 144.64 276.499 146.234 275.324 147.409C274.149 148.584 272.555 149.245 270.893 149.245H6.45795C4.79512 149.245 3.20026 148.585 2.02359 147.41C0.846911 146.235 0.184607 144.641 0.182129 142.978V6.4254C0.184607 4.76257 0.846911 3.16869 2.02359 1.99377C3.20026 0.81885 4.79512 0.158934 6.45795 0.158936H270.893C272.555 0.158936 274.149 0.819152 275.324 1.99434C276.499 3.16953 277.16 4.76343 277.16 6.4254Z" stroke="#263238" stroke-width="0.317638" stroke-linecap="round" stroke-linejoin="round"/>
<path d="M253.986 68.9412H219.577C217.734 68.9412 215.966 69.6733 214.663 70.9765C213.36 72.2798 212.627 74.0473 212.627 75.8904C212.63 77.7318 213.363 79.497 214.666 80.7982C215.969 82.0994 217.735 82.8303 219.577 82.8303H253.986C254.898 82.8315 255.802 82.6529 256.645 82.3047C257.488 81.9565 258.254 81.4455 258.899 80.8009C259.545 80.1564 260.057 79.3909 260.406 78.5483C260.755 77.7057 260.935 76.8025 260.935 75.8904C260.937 74.9775 260.758 74.0733 260.409 73.2296C260.06 72.3859 259.548 71.6193 258.903 70.9738C258.257 70.3283 257.491 69.8164 256.647 69.4676C255.803 69.1188 254.899 68.9399 253.986 68.9412Z" fill="#71389A" stroke="#263238" stroke-width="0.317638" stroke-linecap="round" stroke-linejoin="round"/>
<path d="M277.155 6.4254V19.2202H0.158691V6.4254C0.16117 4.76257 0.82346 3.16869 2.00013 1.99377C3.17681 0.81885 4.77167 0.158934 6.4345 0.158936H270.889C272.551 0.158936 274.144 0.819153 275.32 1.99434C276.495 3.16953 277.155 4.76343 277.155 6.4254Z" fill="#999999" stroke="#263238" stroke-width="0.317638" stroke-linecap="round" stroke-linejoin="round"/>
<path d="M11.8782 13.6839C14.2646 13.6839 16.1992 11.7493 16.1992 9.3628C16.1992 6.97635 14.2646 5.04175 11.8782 5.04175C9.49174 5.04175 7.55713 6.97635 7.55713 9.3628C7.55713 11.7493 9.49174 13.6839 11.8782 13.6839Z" fill="#28C840" stroke="#263238" stroke-width="0.317638" stroke-linecap="round" stroke-linejoin="round"/>
<path d="M23.5735 13.6839C25.96 13.6839 27.8946 11.7493 27.8946 9.3628C27.8946 6.97635 25.96 5.04175 23.5735 5.04175C21.1871 5.04175 19.2524 6.97635 19.2524 9.3628C19.2524 11.7493 21.1871 13.6839 23.5735 13.6839Z" fill="#FEBC2E" stroke="#263238" stroke-width="0.317638" stroke-linecap="round" stroke-linejoin="round"/>
<path d="M35.261 13.6839C37.6475 13.6839 39.5821 11.7493 39.5821 9.3628C39.5821 6.97635 37.6475 5.04175 35.261 5.04175C32.8746 5.04175 30.9399 6.97635 30.9399 9.3628C30.9399 11.7493 32.8746 13.6839 35.261 13.6839Z" fill="#FF5F57" stroke="#263238" stroke-width="0.317638" stroke-linecap="round" stroke-linejoin="round"/>
<path d="M104.51 19.2214V149.395" stroke="#263238" stroke-width="0.317638" stroke-linecap="round" stroke-linejoin="round"/>
<path d="M267.726 13.6843H207.166C206.021 13.6818 204.925 13.2254 204.116 12.4154C203.308 11.6053 202.854 10.5076 202.854 9.36321C202.856 8.22044 203.312 7.12518 204.12 6.31711C204.928 5.50905 206.023 5.05398 207.166 5.05151H267.726C268.87 5.05151 269.968 5.50548 270.778 6.31381C271.588 7.12215 272.044 8.21882 272.047 9.36321C272.047 9.93066 271.935 10.4926 271.718 11.0168C271.501 11.5411 271.183 12.0174 270.781 12.4187C270.38 12.8199 269.904 13.1382 269.38 13.3553C268.855 13.5725 268.293 13.6843 267.726 13.6843Z" fill="white" stroke="#263238" stroke-width="0.317638" stroke-linecap="round" stroke-linejoin="round"/>
<path d="M256.678 59.3156H125.625C124.497 59.3156 123.414 58.8673 122.616 58.0692C121.818 57.2711 121.37 56.1887 121.37 55.06C121.37 54.5012 121.48 53.9478 121.694 53.4315C121.907 52.9152 122.221 52.446 122.616 52.0509C123.011 51.6557 123.48 51.3422 123.997 51.1284C124.513 50.9145 125.066 50.8044 125.625 50.8044H256.678C257.237 50.8044 257.791 50.9145 258.307 51.1284C258.823 51.3422 259.292 51.6557 259.688 52.0509C260.083 52.446 260.396 52.9152 260.61 53.4315C260.824 53.9478 260.934 54.5012 260.934 55.06C260.934 56.1887 260.486 57.2711 259.688 58.0692C258.89 58.8673 257.807 59.3156 256.678 59.3156Z" fill="#BFBFBF" stroke="#263238" stroke-width="0.317638" stroke-miterlimit="10"/>
<path d="M195.884 59.3156H125.625C124.497 59.3156 123.414 58.8673 122.616 58.0692C121.818 57.2711 121.37 56.1887 121.37 55.06C121.37 54.5012 121.48 53.9478 121.694 53.4315C121.907 52.9152 122.221 52.446 122.616 52.0509C123.011 51.6557 123.48 51.3422 123.997 51.1284C124.513 50.9145 125.066 50.8044 125.625 50.8044H195.884C196.443 50.8044 196.997 50.9145 197.513 51.1284C198.029 51.3422 198.498 51.6557 198.894 52.0509C199.289 52.446 199.602 52.9152 199.816 53.4315C200.03 53.9478 200.14 54.5012 200.14 55.06C200.14 56.1887 199.692 57.2711 198.894 58.0692C198.095 58.8673 197.013 59.3156 195.884 59.3156Z" fill="#71389A" stroke="#263238" stroke-width="0.317638" stroke-linecap="round" stroke-linejoin="round"/>
<path d="M131.015 119.756H125.245V125.526H131.015V119.756Z" stroke="#263238" stroke-width="0.317638" stroke-linecap="round" stroke-linejoin="round"/>
<path d="M127.002 122.243L127.854 123.403L129.266 121.392" stroke="#263238" stroke-width="0.317638" stroke-linecap="round" stroke-linejoin="round"/>
<path opacity="0.3" d="M181.065 120.961H141.764C140.834 120.961 140.081 121.712 140.081 122.64C140.081 123.567 140.834 124.318 141.764 124.318H181.065C181.995 124.318 182.749 123.567 182.749 122.64C182.749 121.712 181.995 120.961 181.065 120.961Z" fill="black"/>
<path d="M39.9566 126.088L40.8918 119.681H42.0235L40.8077 127.529H38.9371L37.7212 119.681H38.9651L39.9566 126.088Z" fill="#263238"/>
<path d="M43.862 122.992H45.5549V124.115H43.862V126.416H45.9945V127.529H42.6274V119.681H45.9945V120.804H43.862V122.992Z" fill="#263238"/>
<path d="M49.3338 127.528C49.2351 127.226 49.197 126.909 49.2216 126.592V125.358C49.2216 124.638 48.9691 124.366 48.4079 124.366H47.987V127.556H46.7524V119.709H48.623C49.9044 119.709 50.4936 120.307 50.4936 121.514V122.131C50.5375 122.446 50.4829 122.767 50.3372 123.05C50.1916 123.333 49.962 123.564 49.6799 123.712C50.2972 123.964 50.503 124.544 50.503 125.367V126.583C50.482 126.901 50.5266 127.219 50.6339 127.518L49.3338 127.528ZM47.987 120.803V123.216H48.464C48.9317 123.216 49.2123 123.01 49.2123 122.384V121.607C49.2123 121.046 49.0158 120.803 48.5763 120.803H47.987Z" fill="#263238"/>
<path d="M52.4496 126.341V127.528H51.2524V126.341H52.4496Z" fill="#263238"/>
<path d="M56.8935 120.729C56.5007 120.729 56.2481 120.944 56.2481 121.505V122.347H55.0884V121.58C55.0884 120.326 55.715 119.606 56.959 119.606C58.2029 119.606 58.8295 120.326 58.8295 121.58C58.8037 122.176 58.655 122.76 58.3926 123.296C58.1303 123.832 57.76 124.308 57.305 124.694C56.5755 125.48 56.3697 125.845 56.3697 126.265C56.3651 126.322 56.3651 126.378 56.3697 126.434H58.708V127.547H55.0884V126.612C55.1047 126.132 55.2223 125.662 55.4335 125.232C55.6447 124.801 55.9446 124.42 56.3136 124.114C56.6803 123.815 56.9786 123.441 57.1884 123.016C57.3981 122.592 57.5144 122.128 57.5295 121.654C57.5295 120.906 57.2863 120.729 56.8935 120.729Z" fill="#263238"/>
<path d="M60.6981 126.341V127.528H59.5103V126.341H60.6981Z" fill="#263238"/>
<path d="M61.5181 121.561C61.5181 121.065 61.7151 120.589 62.0659 120.238C62.4167 119.887 62.8925 119.69 63.3887 119.69C63.8848 119.69 64.3606 119.887 64.7114 120.238C65.0622 120.589 65.2592 121.065 65.2592 121.561V125.648C65.2592 126.144 65.0622 126.62 64.7114 126.971C64.3606 127.322 63.8848 127.519 63.3887 127.519C62.8925 127.519 62.4167 127.322 62.0659 126.971C61.7151 126.62 61.5181 126.144 61.5181 125.648V121.561ZM62.7527 125.723C62.7527 126.284 63.0052 126.499 63.3887 126.499C63.7721 126.499 64.034 126.284 64.034 125.723V121.486C64.034 120.925 63.7815 120.71 63.3887 120.71C62.9958 120.71 62.7527 120.925 62.7527 121.486V125.723Z" fill="#263238"/>
<path d="M67.1683 124.994V125.723C67.1683 126.285 67.4114 126.49 67.8043 126.49C68.1971 126.49 68.4496 126.285 68.4496 125.723V124.002C68.4496 123.441 68.1971 123.226 67.8043 123.226C67.4114 123.226 67.1683 123.441 67.1683 124.002V124.236H65.9991L66.2236 119.681H69.4784V120.804H67.3273L67.2244 122.674C67.3332 122.491 67.4901 122.341 67.678 122.241C67.8659 122.14 68.0778 122.093 68.2906 122.104C69.2259 122.104 69.6655 122.74 69.6655 123.9V125.649C69.7053 125.908 69.6852 126.173 69.6069 126.423C69.5285 126.674 69.394 126.903 69.2135 127.093C69.033 127.284 68.8113 127.43 68.5654 127.522C68.3196 127.614 68.056 127.648 67.7949 127.622C66.579 127.622 65.9243 126.902 65.9243 125.649V124.994H67.1683Z" fill="#263238"/>
<path d="M33.5816 96.2241C30.6489 93.436 28.3216 90.074 26.7446 86.3474" stroke="#263238" stroke-width="0.317638" stroke-linecap="round" stroke-linejoin="round"/>
<path d="M60.5181 46.2419C65.1816 47.3335 69.5088 49.5452 73.1251 52.6857C76.7414 55.8261 79.5378 59.8006 81.2722 64.265" stroke="#263238" stroke-width="0.317638" stroke-linecap="round" stroke-linejoin="round"/>
<path d="M63.0141 67.4155V58.9979L56.7289 58.4554C56.3622 57.151 55.8409 55.8951 55.1764 54.7143L59.2355 49.8975L53.3058 44.0332L48.489 48.083C47.3055 47.4239 46.0502 46.903 44.7478 46.5304L44.2054 40.2546H35.7877L35.2453 46.5304C33.9417 46.8996 32.686 47.4207 31.5041 48.083L26.678 44.0332L20.7576 49.963L24.8074 54.7797C24.1467 55.9625 23.6257 57.2179 23.2548 58.5209L16.979 59.0634V67.481L23.2548 68.0235C23.6257 69.3264 24.1467 70.5819 24.8074 71.7646L20.7576 76.5814L26.678 82.5112L31.5041 78.4613C32.686 79.1236 33.9417 79.6447 35.2453 80.0139L35.7877 86.2897H44.2054L44.7478 80.0139C46.0502 79.6414 47.3055 79.1204 48.489 78.4613L53.3058 82.5112L59.2355 76.5814L55.1764 71.7646C55.8409 70.5838 56.3622 69.3279 56.7289 68.0235L63.0141 67.4155ZM39.9966 73.0273C38.0709 73.0273 36.1884 72.4563 34.5873 71.3864C32.9862 70.3166 31.7382 68.7959 31.0013 67.0168C30.2644 65.2378 30.0716 63.2801 30.4472 61.3914C30.8229 59.5027 31.7502 57.7679 33.1119 56.4062C34.4735 55.0446 36.2084 54.1173 38.0971 53.7416C39.9858 53.3659 41.9434 53.5587 43.7225 54.2956C45.5016 55.0326 47.0222 56.2805 48.0921 57.8816C49.1619 59.4828 49.733 61.3652 49.733 63.2909C49.7305 65.8724 48.7039 68.3474 46.8785 70.1728C45.0531 71.9982 42.578 73.0248 39.9966 73.0273Z" fill="#71389A" stroke="#263238" stroke-width="0.317638" stroke-linecap="round" stroke-linejoin="round"/>
<path d="M90.7455 86.1224V80.1646L86.2748 79.7812C86.0102 78.8473 85.64 77.9467 85.1712 77.0969L88.0518 73.6737L83.8337 69.4555L80.4105 72.3362C79.5607 71.8674 78.6601 71.4972 77.7262 71.2326L77.3427 66.7712H71.3849L70.9921 71.2513C70.0619 71.5176 69.1646 71.8878 68.3172 72.3549L64.894 69.4742L60.7039 73.6924L63.5846 77.1156C63.1158 77.9654 62.7455 78.866 62.481 79.7999L58.0103 80.1833V86.1224L62.481 86.5153C62.7473 87.4455 63.1175 88.3428 63.5846 89.1902L60.7039 92.6695L64.9221 96.8877L68.3452 94.007C69.1908 94.478 70.0885 94.8484 71.0202 95.1106L71.413 99.5813H77.3708L77.7543 95.1106C78.6895 94.8501 79.5906 94.4796 80.4386 94.007L83.8617 96.8877L88.0799 92.6695L85.1992 89.2463C85.6663 88.3989 86.0365 87.5016 86.3029 86.5714L90.7455 86.1224ZM74.3592 90.0787C72.9884 90.0787 71.6485 89.6723 70.5088 88.9107C69.3691 88.1492 68.4808 87.0668 67.9562 85.8004C67.4317 84.534 67.2944 83.1405 67.5618 81.7961C67.8292 80.4517 68.4893 79.2168 69.4586 78.2476C70.4278 77.2783 71.6627 76.6183 73.0071 76.3509C74.3515 76.0835 75.745 76.2207 77.0114 76.7453C78.2778 77.2698 79.3601 78.1581 80.1217 79.2978C80.8832 80.4376 81.2897 81.7775 81.2897 83.1482C81.2921 84.0599 81.1147 84.9631 80.7675 85.8061C80.4203 86.6492 79.9102 87.4154 79.2664 88.0609C78.6226 88.7065 77.8578 89.2186 77.0157 89.5681C76.1736 89.9176 75.2709 90.0974 74.3592 90.0974V90.0787Z" fill="#71389A"/>
<mask id="mask1_70_5008" style="mask-type:luminance" maskUnits="userSpaceOnUse" x="58" y="66" width="33" height="34">
<path d="M90.7455 86.1224V80.1646L86.2748 79.7812C86.0102 78.8473 85.64 77.9467 85.1712 77.0969L88.0518 73.6737L83.8337 69.4555L80.4105 72.3362C79.5607 71.8674 78.6601 71.4972 77.7262 71.2326L77.3427 66.7712H71.3849L70.9921 71.2513C70.0619 71.5176 69.1646 71.8878 68.3172 72.3549L64.894 69.4742L60.7039 73.6924L63.5846 77.1156C63.1158 77.9654 62.7455 78.866 62.481 79.7999L58.0103 80.1833V86.1224L62.481 86.5153C62.7473 87.4455 63.1175 88.3428 63.5846 89.1902L60.7039 92.6695L64.9221 96.8877L68.3452 94.007C69.1908 94.478 70.0885 94.8484 71.0202 95.1106L71.413 99.5813H77.3708L77.7543 95.1106C78.6895 94.8501 79.5906 94.4796 80.4386 94.007L83.8617 96.8877L88.0799 92.6695L85.1992 89.2463C85.6663 88.3989 86.0365 87.5016 86.3029 86.5714L90.7455 86.1224ZM74.3592 90.0787C72.9884 90.0787 71.6485 89.6723 70.5088 88.9107C69.3691 88.1492 68.4808 87.0668 67.9562 85.8004C67.4317 84.534 67.2944 83.1405 67.5618 81.7961C67.8292 80.4517 68.4893 79.2168 69.4586 78.2476C70.4278 77.2783 71.6627 76.6183 73.0071 76.3509C74.3515 76.0835 75.745 76.2207 77.0114 76.7453C78.2778 77.2698 79.3601 78.1581 80.1217 79.2978C80.8832 80.4376 81.2897 81.7775 81.2897 83.1482C81.2921 84.0599 81.1147 84.9631 80.7675 85.8061C80.4203 86.6492 79.9102 87.4154 79.2664 88.0609C78.6226 88.7065 77.8578 89.2186 77.0157 89.5681C76.1736 89.9176 75.2709 90.0974 74.3592 90.0974V90.0787Z" fill="white"/>
</mask>
<g mask="url(#mask1_70_5008)">
<path opacity="0.3" d="M90.7455 86.1224V80.1646L86.2748 79.7812C86.0102 78.8473 85.64 77.9467 85.1712 77.0969L88.0518 73.6737L83.8337 69.4555L80.4105 72.3362C79.5607 71.8674 78.6601 71.4972 77.7262 71.2326L77.3427 66.7712H71.3849L70.9921 71.2513C70.0619 71.5176 69.1646 71.8878 68.3172 72.3549L64.894 69.4742L60.7039 73.6924L63.5846 77.1156C63.1158 77.9654 62.7455 78.866 62.481 79.7999L58.0103 80.1833V86.1224L62.481 86.5153C62.7473 87.4455 63.1175 88.3428 63.5846 89.1902L60.7039 92.6695L64.9221 96.8877L68.3452 94.007C69.1908 94.478 70.0885 94.8484 71.0202 95.1106L71.413 99.5813H77.3708L77.7543 95.1106C78.6895 94.8501 79.5906 94.4796 80.4386 94.007L83.8617 96.8877L88.0799 92.6695L85.1992 89.2463C85.6663 88.3989 86.0365 87.5016 86.3029 86.5714L90.7455 86.1224ZM74.3592 90.0787C72.9884 90.0787 71.6485 89.6723 70.5088 88.9107C69.3691 88.1492 68.4808 87.0668 67.9562 85.8004C67.4317 84.534 67.2944 83.1405 67.5618 81.7961C67.8292 80.4517 68.4893 79.2168 69.4586 78.2476C70.4278 77.2783 71.6627 76.6183 73.0071 76.3509C74.3515 76.0835 75.745 76.2207 77.0114 76.7453C78.2778 77.2698 79.3601 78.1581 80.1217 79.2978C80.8832 80.4376 81.2897 81.7775 81.2897 83.1482C81.2921 84.0599 81.1147 84.9631 80.7675 85.8061C80.4203 86.6492 79.9102 87.4154 79.2664 88.0609C78.6226 88.7065 77.8578 89.2186 77.0157 89.5681C76.1736 89.9176 75.2709 90.0974 74.3592 90.0974V90.0787Z" fill="white"/>
</g>
<path d="M90.7455 86.1224V80.1646L86.2748 79.7812C86.0102 78.8473 85.64 77.9467 85.1712 77.0969L88.0518 73.6737L83.8337 69.4555L80.4105 72.3362C79.5607 71.8674 78.6601 71.4972 77.7262 71.2326L77.3427 66.7712H71.3849L70.9921 71.2513C70.0619 71.5176 69.1646 71.8878 68.3172 72.3549L64.894 69.4742L60.7039 73.6924L63.5846 77.1156C63.1158 77.9654 62.7455 78.866 62.481 79.7999L58.0103 80.1833V86.1224L62.481 86.5153C62.7473 87.4455 63.1175 88.3428 63.5846 89.1902L60.7039 92.6695L64.9221 96.8877L68.3452 94.007C69.1908 94.478 70.0885 94.8484 71.0202 95.1106L71.413 99.5813H77.3708L77.7543 95.1106C78.6895 94.8501 79.5906 94.4796 80.4386 94.007L83.8617 96.8877L88.0799 92.6695L85.1992 89.2463C85.6663 88.3989 86.0365 87.5016 86.3029 86.5714L90.7455 86.1224ZM74.3592 90.0787C72.9884 90.0787 71.6485 89.6723 70.5088 88.9107C69.3691 88.1492 68.4808 87.0668 67.9562 85.8004C67.4317 84.534 67.2944 83.1405 67.5618 81.7961C67.8292 80.4517 68.4893 79.2168 69.4586 78.2476C70.4278 77.2783 71.6627 76.6183 73.0071 76.3509C74.3515 76.0835 75.745 76.2207 77.0114 76.7453C78.2778 77.2698 79.3601 78.1581 80.1217 79.2978C80.8832 80.4376 81.2897 81.7775 81.2897 83.1482C81.2921 84.0599 81.1147 84.9631 80.7675 85.8061C80.4203 86.6492 79.9102 87.4154 79.2664 88.0609C78.6226 88.7065 77.8578 89.2186 77.0157 89.5681C76.1736 89.9176 75.2709 90.0974 74.3592 90.0974V90.0787Z" stroke="#263238" stroke-width="0.317638" stroke-linecap="round" stroke-linejoin="round"/>
<path d="M61.5632 100.039V95.7928L58.3832 95.5215C58.1966 94.869 57.9329 94.2411 57.5976 93.651L59.6552 91.2098L56.6529 88.2076L54.2118 90.2652C53.6217 89.9299 52.9938 89.6662 52.3412 89.4795L52.07 86.2996H47.8238L47.5526 89.4795C46.9 89.6662 46.2721 89.9299 45.682 90.2652L43.2502 88.2076L40.2479 91.2098L42.2962 93.651C41.9609 94.2411 41.6972 94.869 41.5106 95.5215L38.3306 95.7928V100.039L41.5106 100.31C41.6972 100.963 41.9609 101.591 42.2962 102.181L40.2479 104.613L43.2502 107.615L45.682 105.567C46.2721 105.902 46.9 106.166 47.5526 106.352L47.8238 109.532H52.07L52.3412 106.352C52.9938 106.166 53.6217 105.902 54.2118 105.567L56.6529 107.615L59.6552 104.613L57.5976 102.181C57.9329 101.591 58.1966 100.963 58.3832 100.31L61.5632 100.039ZM49.9095 102.845C48.9346 102.845 47.9817 102.556 47.1711 102.014C46.3605 101.473 45.7288 100.703 45.3557 99.8021C44.9826 98.9015 44.885 97.9104 45.0752 96.9543C45.2654 95.9982 45.7348 95.1199 46.4242 94.4306C47.1135 93.7412 47.9918 93.2718 48.9479 93.0816C49.904 92.8914 50.8951 92.989 51.7957 93.3621C52.6964 93.7352 53.4662 94.3669 54.0078 95.1775C54.5494 95.9881 54.8385 96.941 54.8385 97.9159C54.8385 98.5632 54.711 99.2041 54.4633 99.8021C54.2156 100.4 53.8525 100.944 53.3948 101.401C52.9371 101.859 52.3937 102.222 51.7957 102.47C51.1977 102.717 50.5568 102.845 49.9095 102.845Z" fill="#71389A"/>
<mask id="mask2_70_5008" style="mask-type:luminance" maskUnits="userSpaceOnUse" x="38" y="86" width="24" height="24">
<path d="M61.5632 100.039V95.7928L58.3832 95.5215C58.1966 94.869 57.9329 94.2411 57.5976 93.651L59.6552 91.2098L56.6529 88.2076L54.2118 90.2652C53.6217 89.9299 52.9938 89.6662 52.3412 89.4795L52.07 86.2996H47.8238L47.5526 89.4795C46.9 89.6662 46.2721 89.9299 45.682 90.2652L43.2502 88.2076L40.2479 91.2098L42.2962 93.651C41.9609 94.2411 41.6972 94.869 41.5106 95.5215L38.3306 95.7928V100.039L41.5106 100.31C41.6972 100.963 41.9609 101.591 42.2962 102.181L40.2479 104.613L43.2502 107.615L45.682 105.567C46.2721 105.902 46.9 106.166 47.5526 106.352L47.8238 109.532H52.07L52.3412 106.352C52.9938 106.166 53.6217 105.902 54.2118 105.567L56.6529 107.615L59.6552 104.613L57.5976 102.181C57.9329 101.591 58.1966 100.963 58.3832 100.31L61.5632 100.039ZM49.9095 102.845C48.9346 102.845 47.9817 102.556 47.1711 102.014C46.3605 101.473 45.7288 100.703 45.3557 99.8021C44.9826 98.9015 44.885 97.9104 45.0752 96.9543C45.2654 95.9982 45.7348 95.1199 46.4242 94.4306C47.1135 93.7412 47.9918 93.2718 48.9479 93.0816C49.904 92.8914 50.8951 92.989 51.7957 93.3621C52.6964 93.7352 53.4662 94.3669 54.0078 95.1775C54.5494 95.9881 54.8385 96.941 54.8385 97.9159C54.8385 98.5632 54.711 99.2041 54.4633 99.8021C54.2156 100.4 53.8525 100.944 53.3948 101.401C52.9371 101.859 52.3937 102.222 51.7957 102.47C51.1977 102.717 50.5568 102.845 49.9095 102.845Z" fill="white"/>
</mask>
<g mask="url(#mask2_70_5008)">
<path opacity="0.5" d="M61.5632 100.039V95.7928L58.3832 95.5215C58.1966 94.869 57.9329 94.2411 57.5976 93.651L59.6552 91.2098L56.6529 88.2076L54.2118 90.2652C53.6217 89.9299 52.9938 89.6662 52.3412 89.4795L52.07 86.2996H47.8238L47.5526 89.4795C46.9 89.6662 46.2721 89.9299 45.682 90.2652L43.2502 88.2076L40.2479 91.2098L42.2962 93.651C41.9609 94.2411 41.6972 94.869 41.5106 95.5215L38.3306 95.7928V100.039L41.5106 100.31C41.6972 100.963 41.9609 101.591 42.2962 102.181L40.2479 104.613L43.2502 107.615L45.682 105.567C46.2721 105.902 46.9 106.166 47.5526 106.352L47.8238 109.532H52.07L52.3412 106.352C52.9938 106.166 53.6217 105.902 54.2118 105.567L56.6529 107.615L59.6552 104.613L57.5976 102.181C57.9329 101.591 58.1966 100.963 58.3832 100.31L61.5632 100.039ZM49.9095 102.845C48.9346 102.845 47.9817 102.556 47.1711 102.014C46.3605 101.473 45.7288 100.703 45.3557 99.8021C44.9826 98.9015 44.885 97.9104 45.0752 96.9543C45.2654 95.9982 45.7348 95.1199 46.4242 94.4306C47.1135 93.7412 47.9918 93.2718 48.9479 93.0816C49.904 92.8914 50.8951 92.989 51.7957 93.3621C52.6964 93.7352 53.4662 94.3669 54.0078 95.1775C54.5494 95.9881 54.8385 96.941 54.8385 97.9159C54.8385 98.5632 54.711 99.2041 54.4633 99.8021C54.2156 100.4 53.8525 100.944 53.3948 101.401C52.9371 101.859 52.3937 102.222 51.7957 102.47C51.1977 102.717 50.5568 102.845 49.9095 102.845Z" fill="white"/>
</g>
<path d="M61.5632 100.039V95.7928L58.3832 95.5215C58.1966 94.869 57.9329 94.2411 57.5976 93.651L59.6552 91.2098L56.6529 88.2076L54.2118 90.2652C53.6217 89.9299 52.9938 89.6662 52.3412 89.4795L52.07 86.2996H47.8238L47.5526 89.4795C46.9 89.6662 46.2721 89.9299 45.682 90.2652L43.2502 88.2076L40.2479 91.2098L42.2962 93.651C41.9609 94.2411 41.6972 94.869 41.5106 95.5215L38.3306 95.7928V100.039L41.5106 100.31C41.6972 100.963 41.9609 101.591 42.2962 102.181L40.2479 104.613L43.2502 107.615L45.682 105.567C46.2721 105.902 46.9 106.166 47.5526 106.352L47.8238 109.532H52.07L52.3412 106.352C52.9938 106.166 53.6217 105.902 54.2118 105.567L56.6529 107.615L59.6552 104.613L57.5976 102.181C57.9329 101.591 58.1966 100.963 58.3832 100.31L61.5632 100.039ZM49.9095 102.845C48.9346 102.845 47.9817 102.556 47.1711 102.014C46.3605 101.473 45.7288 100.703 45.3557 99.8021C44.9826 98.9015 44.885 97.9104 45.0752 96.9543C45.2654 95.9982 45.7348 95.1199 46.4242 94.4306C47.1135 93.7412 47.9918 93.2718 48.9479 93.0816C49.904 92.8914 50.8951 92.989 51.7957 93.3621C52.6964 93.7352 53.4662 94.3669 54.0078 95.1775C54.5494 95.9881 54.8385 96.941 54.8385 97.9159C54.8385 98.5632 54.711 99.2041 54.4633 99.8021C54.2156 100.4 53.8525 100.944 53.3948 101.401C52.9371 101.859 52.3937 102.222 51.7957 102.47C51.1977 102.717 50.5568 102.845 49.9095 102.845Z" stroke="#263238" stroke-width="0.317638" stroke-linecap="round" stroke-linejoin="round"/>
<path d="M79.0415 63.2452L81.2956 64.2647L82.1841 62.2351" stroke="#263238" stroke-width="0.317638" stroke-linecap="round" stroke-linejoin="round"/>
<path d="M28.9591 87.2819L26.6957 86.2625L25.8071 88.3014" stroke="#263238" stroke-width="0.317638" stroke-linecap="round" stroke-linejoin="round"/>
<path d="M122.61 40.2927V44.885C122.61 45.3152 122.797 45.4649 123.096 45.4649C123.395 45.4649 123.582 45.3152 123.582 44.885V40.2927H124.471V44.8289C124.5 45.024 124.484 45.2231 124.425 45.4113C124.366 45.5996 124.266 45.7721 124.131 45.9159C123.996 46.0598 123.83 46.1714 123.646 46.2423C123.462 46.3132 123.264 46.3416 123.068 46.3254C122.133 46.3254 121.674 45.7829 121.674 44.8289V40.2927H122.61Z" fill="#263238"/>
<path d="M127.872 41.7518V42.5281C127.872 43.4634 127.414 44.0058 126.479 44.0058H126.039V46.2412H125.104V40.2927H126.479C127.414 40.2927 127.872 40.8071 127.872 41.7518ZM126.002 41.1345V43.1547H126.441C126.741 43.1547 126.9 43.0144 126.9 42.5936V41.6583C126.9 41.2374 126.741 41.0971 126.441 41.0971L126.002 41.1345Z" fill="#263238"/>
<path d="M131.228 46.2417H130.292L130.133 45.1568H128.983L128.824 46.2417H127.963L128.899 40.2839H130.264L131.228 46.2417ZM129.095 44.3712H130.03L129.591 41.3595L129.095 44.3712Z" fill="#263238"/>
<path d="M131.651 40.2927H133.138C134.073 40.2927 134.532 40.8165 134.532 41.7611V44.7728C134.532 45.7081 134.073 46.2505 133.138 46.2505H131.651V40.2927ZM132.586 41.1438V45.3994H133.119C133.419 45.3994 133.596 45.2404 133.596 44.8195V41.7237C133.596 41.2935 133.419 41.1438 133.119 41.1438H132.586Z" fill="#263238"/>
<path d="M138.142 46.2417H137.206L137.047 45.1568H135.897L135.738 46.2417H134.877L135.813 40.2839H137.178L138.142 46.2417ZM136.009 44.3712H136.944L136.505 41.3595L136.009 44.3712Z" fill="#263238"/>
<path d="M137.987 40.2927H140.877V41.1438H139.895V46.2505H138.96V41.1345H138.024L137.987 40.2927Z" fill="#263238"/>
<path d="M141.276 40.2927H142.211V46.2505H141.276V40.2927Z" fill="#263238"/>
<path d="M143.743 41.9295V46.2412H142.901V40.2927H144.079L145.015 43.8562V40.2927H145.81V46.2505H144.874L143.743 41.9295Z" fill="#263238"/>
<path d="M147.926 42.9207H149.235V44.7913C149.235 45.7266 148.758 46.2877 147.841 46.2877C146.925 46.2877 146.448 45.7453 146.448 44.7913V41.6954C146.448 40.7602 146.925 40.199 147.841 40.199C148.758 40.199 149.235 40.7415 149.235 41.6954V42.2753H148.3V41.6393C148.3 41.2091 148.113 41.0501 147.823 41.0501C147.533 41.0501 147.336 41.2091 147.336 41.6393V44.8474C147.336 45.2776 147.523 45.4273 147.823 45.4273C148.122 45.4273 148.3 45.2776 148.3 44.8474V43.7531H147.879L147.926 42.9207Z" fill="#263238"/>
<path d="M269.352 86.6552L253.807 75.572L258.231 94.1376L261.42 89.405L264.357 93.7728L266.705 92.1922L263.768 87.8244L269.352 86.6552Z" fill="#263238"/>
</svg>
