<svg width="94" height="109" viewBox="0 0 94 109" fill="none" xmlns="http://www.w3.org/2000/svg">
<path d="M65.5686 96.4345H0V0H65.5686V96.4345ZM0.485694 95.9488H65.0829V0.485694H0.485694V95.9488Z" fill="#263238"/>
<path d="M53.4652 62.1606H9.54395V62.6463H53.4652V62.1606Z" fill="#263238"/>
<path d="M53.4693 69.6816H14.8955V70.1673H53.4693V69.6816Z" fill="#263238"/>
<path d="M12.7782 68.2715H10.1943V70.8554H12.7782V68.2715Z" fill="#71389A"/>
<path d="M53.4693 75.3186H14.8955V75.8043H53.4693V75.3186Z" fill="#263238"/>
<path d="M12.7782 73.916H10.1943V76.4999H12.7782V73.916Z" fill="#71389A"/>
<path d="M53.4693 80.9592H14.8955V81.4449H53.4693V80.9592Z" fill="#263238"/>
<path d="M12.7782 79.5566H10.1943V82.1405H12.7782V79.5566Z" fill="#71389A"/>
<path d="M53.4693 86.5962H14.8955V87.0819H53.4693V86.5962Z" fill="#263238"/>
<path d="M12.7782 85.1936H10.1943V87.7775H12.7782V85.1936Z" fill="#71389A"/>
<path d="M31.138 51.2134C42.6509 51.2134 51.9839 41.8804 51.9839 30.3675C51.9839 18.8545 42.6509 9.52148 31.138 9.52148C19.6251 9.52148 10.292 18.8545 10.292 30.3675C10.292 41.8804 19.6251 51.2134 31.138 51.2134Z" fill="white"/>
<path d="M31.1376 51.4584C26.9665 51.4594 22.8887 50.2233 19.42 47.9067C15.9513 45.59 13.2475 42.2967 11.6506 38.4433C10.0537 34.5899 9.63541 30.3495 10.4486 26.2583C11.2617 22.1672 13.2699 18.4091 16.219 15.4593C19.1681 12.5095 22.9258 10.5005 27.0168 9.68634C31.1077 8.87223 35.3482 9.28958 39.202 10.8856C43.0558 12.4816 46.3497 15.1846 48.6671 18.6528C50.9846 22.1209 52.2216 26.1984 52.2216 30.3696C52.2152 35.9599 49.9919 41.3194 46.0394 45.2728C42.087 49.2262 36.7279 51.4507 31.1376 51.4584ZM31.1376 9.77132C27.0623 9.77036 23.0782 10.978 19.6893 13.2415C16.3004 15.5051 13.6589 18.7228 12.0989 22.4877C10.5389 26.2527 10.1305 30.3957 10.9253 34.3927C11.7201 38.3898 13.6825 42.0614 16.5642 44.9431C19.4459 47.8247 23.1174 49.7871 27.1145 50.5819C31.1116 51.3767 35.2546 50.9683 39.0195 49.4083C42.7844 47.8483 46.0021 45.2068 48.2657 41.8179C50.5292 38.429 51.7369 34.4449 51.7359 30.3696C51.7295 24.9086 49.5572 19.673 45.6957 15.8115C41.8342 11.95 36.5987 9.77775 31.1376 9.77132Z" fill="#263238"/>
<path d="M20.2877 39.5203L15.0908 43.6778C17.0244 46.0101 19.4434 47.8928 22.1792 49.1945C24.9149 50.4961 27.9016 51.1856 30.9311 51.2147C33.9606 51.2438 36.9601 50.612 39.7203 49.3631C42.4806 48.1143 44.9354 46.2785 46.9135 43.9838L39.0355 38.8306L20.2877 39.5203Z" fill="#263238"/>
<path d="M31.1375 51.4573C28.0371 51.4613 24.9741 50.7798 22.168 49.4615C19.3618 48.1432 16.8818 46.2208 14.9056 43.8319C14.8636 43.7818 14.8427 43.7174 14.8473 43.6522C14.8506 43.6198 14.8605 43.5885 14.8763 43.5601C14.8922 43.5317 14.9137 43.5068 14.9396 43.4871L20.1316 39.3295C20.1727 39.2956 20.2241 39.2767 20.2773 39.2761L39.0057 38.5864C39.0556 38.5843 39.1048 38.5979 39.1465 38.6253L47.0488 43.7785C47.0775 43.7978 47.1018 43.8229 47.1202 43.8522C47.1386 43.8814 47.1507 43.9142 47.1556 43.9485C47.1608 43.9831 47.1583 44.0185 47.1482 44.0521C47.1381 44.0857 47.1208 44.1166 47.0974 44.1427C45.1192 46.4375 42.6696 48.2788 39.9153 49.5411C37.1611 50.8034 34.1671 51.4569 31.1375 51.4573ZM15.435 43.7105C17.3451 45.9593 19.7161 47.7714 22.3875 49.0241C25.0589 50.2768 27.9682 50.9408 30.9186 50.9712C33.869 51.0016 36.7914 50.3976 39.488 49.2003C42.1847 48.0029 44.5925 46.24 46.5485 44.031L38.9474 39.077L20.3745 39.7569L15.435 43.7105Z" fill="#263238"/>
<path d="M26.8078 33.6305C26.8078 33.6305 22.2277 34.223 20.9504 36.0881C19.673 37.9531 18.7453 39.7405 19.6778 40.843C21.2201 42.5102 22.9271 44.0171 24.7728 45.3405C26.2978 46.3605 28.6826 49.8429 28.6826 49.8429C28.8724 48.3782 28.9842 46.9045 29.0177 45.428C29.0177 43.5581 27.4052 41.5424 27.075 39.8231C26.7447 38.1037 29.5374 35.413 31.4851 36.2581C33.4327 37.1032 34.9675 39.6579 34.8849 40.843C34.8023 42.0281 35.22 43.4755 35.6474 45.5105C36.0749 47.5456 36.41 49.2941 36.41 49.2941C36.41 49.2941 39.295 46.3799 40.2324 43.2181C41.1698 40.0562 40.7181 36.8555 37.2599 34.733C33.8018 32.6105 26.8078 33.6305 26.8078 33.6305Z" fill="#71389A"/>
<path d="M28.6828 50.0863C28.6439 50.0861 28.6056 50.0768 28.571 50.0591C28.5365 50.0414 28.5065 50.0157 28.4836 49.9843C28.4594 49.9503 26.1086 46.5262 24.637 45.5451C22.7747 44.2055 21.0516 42.6825 19.4935 40.999C18.4298 39.7459 19.4935 37.8323 20.7514 35.9526C22.0093 34.073 26.5797 33.4173 26.774 33.3882C27.0897 33.3444 33.87 32.3876 37.3767 34.5247C41.3545 36.9531 41.2622 40.6298 40.456 43.2672C39.5137 46.429 36.6919 49.3189 36.5704 49.4403C36.5396 49.4722 36.5007 49.4951 36.4578 49.5064C36.415 49.5177 36.3698 49.5171 36.3273 49.5046C36.2847 49.4921 36.2464 49.4681 36.2165 49.4354C36.1866 49.4027 36.1662 49.3624 36.1576 49.3189C36.1576 49.3189 35.8176 47.5753 35.3951 45.5402C35.2979 45.0788 35.2008 44.6465 35.1134 44.2434C34.7951 43.1248 34.6317 41.9677 34.6277 40.8047C34.7054 39.707 33.2483 37.2737 31.3784 36.4577C30.6256 36.1323 29.6299 36.3849 28.7022 37.1329C27.7745 37.8808 27.148 39.0125 27.2986 39.7556C27.5007 40.5284 27.7924 41.275 28.1679 41.9801C28.7022 43.102 29.2559 44.2677 29.2559 45.3799C29.2202 46.8677 29.1084 48.3526 28.9208 49.8289C28.9136 49.8773 28.8923 49.9226 28.8594 49.9589C28.8266 49.9952 28.7837 50.0209 28.7362 50.0329L28.6828 50.0863ZM30.5916 33.631C29.3395 33.63 28.0887 33.7095 26.8469 33.869C26.8031 33.869 22.3542 34.4713 21.1594 36.2295C20.0423 37.8663 19.0126 39.6779 19.8674 40.6881C21.3969 42.3373 23.0874 43.8293 24.9138 45.1419C26.1135 45.9433 27.7891 48.1678 28.5225 49.1878C28.6196 48.3184 28.7799 46.701 28.7799 45.4285C28.7799 44.3988 28.2505 43.2866 27.7405 42.2132C27.3441 41.4725 27.0391 40.6864 26.8323 39.8722C26.6137 38.7891 27.4637 37.5408 28.4059 36.7783C29.4745 35.9186 30.6644 35.6369 31.5775 36.04C33.6611 36.9434 35.2105 39.605 35.1182 40.863C35.1319 41.979 35.2952 43.0882 35.6039 44.1608C35.6962 44.5688 35.7933 45.0011 35.8905 45.4625C36.1819 46.8662 36.4345 48.1241 36.5607 48.7798C37.333 47.9201 39.2806 45.5839 40.0043 43.1506C40.728 40.7173 40.8494 37.2057 37.1387 34.9375C35.3999 33.8884 32.7626 33.631 30.5916 33.631Z" fill="#263238"/>
<path d="M38.7531 35.8938C38.2996 35.4499 37.7959 35.0603 37.2523 34.733C33.7698 32.6105 26.8098 33.6305 26.8098 33.6305C26.8098 33.6305 22.2298 34.223 20.9524 36.0881C20.8067 36.3066 20.661 36.5252 20.525 36.7389C20.363 37.8815 20.637 39.0432 21.2924 39.9931C23.1963 43.0238 27.1207 44.476 29.01 45.3357C28.9518 43.4998 27.3975 41.5084 27.0673 39.8425C26.737 38.1766 29.5297 35.4324 31.4774 36.2775C33.425 37.1226 34.9598 39.6774 34.8772 40.8624C34.7947 42.0475 35.2123 43.4949 35.6398 45.53L35.7126 45.8991C35.8583 45.7582 36.004 45.6125 36.1497 45.4474C38.0359 43.3781 39.0669 40.6703 39.0348 37.8706C39.0331 37.2018 38.9383 36.5364 38.7531 35.8938Z" fill="white"/>
<path d="M35.7128 46.1223C35.6887 46.1269 35.664 46.1269 35.6399 46.1223C35.5976 46.1107 35.5595 46.0871 35.5302 46.0544C35.5009 46.0216 35.4816 45.9811 35.4748 45.9378L35.4019 45.5783C35.3048 45.1169 35.2077 44.6847 35.1202 44.2815C34.802 43.1629 34.6385 42.0059 34.6345 40.8428C34.7123 39.7452 33.2552 37.3118 31.3853 36.4959C30.6324 36.1705 29.6368 36.423 28.7091 37.171C27.7814 37.919 27.1549 39.0506 27.3054 39.7937C27.5075 40.5666 27.7993 41.3131 28.1748 42.0182C28.6848 43.1013 29.2191 44.2233 29.2531 45.3209C29.2562 45.3629 29.2479 45.4049 29.2291 45.4425C29.2103 45.4801 29.1816 45.512 29.1462 45.5346C29.1103 45.5538 29.0703 45.5638 29.0296 45.5638C28.989 45.5638 28.949 45.5538 28.9131 45.5346L28.2525 45.2432C26.2223 44.3641 22.8273 42.8876 21.0886 40.1191C20.4031 39.1179 20.1172 37.8964 20.2872 36.695C20.2934 36.6626 20.3048 36.6314 20.3212 36.6027C20.462 36.3842 20.6029 36.1656 20.7534 35.947C22.0745 34.0043 26.5817 33.4069 26.7809 33.3826C27.0626 33.3389 33.8623 32.3772 37.3787 34.5191C37.9382 34.8579 38.4565 35.2605 38.9232 35.7188C38.9515 35.7477 38.973 35.7826 38.9864 35.8208C39.1789 36.4853 39.277 37.1736 39.2778 37.8655C39.311 40.7192 38.2569 43.4785 36.3296 45.5832C36.179 45.7532 36.0285 45.9038 35.8828 46.0689C35.8345 46.1068 35.7741 46.1258 35.7128 46.1223ZM30.6859 35.8596C30.9915 35.8563 31.2944 35.9175 31.5747 36.0393C33.6583 36.9427 35.2077 39.6043 35.1154 40.8623C35.129 41.9783 35.2924 43.0875 35.6011 44.1601C35.6885 44.5438 35.7808 44.9518 35.8682 45.3841L35.9799 45.2626C37.8238 43.2455 38.8324 40.6031 38.8018 37.8704C38.8004 37.2463 38.7138 36.6254 38.5444 36.0247C38.1163 35.6115 37.6439 35.2466 37.1359 34.9368C33.77 32.8872 26.9363 33.8586 26.8586 33.8683C26.7809 33.878 22.3611 34.4705 21.1663 36.2287C21.0254 36.4279 20.8943 36.627 20.768 36.8261C20.6342 37.8965 20.8987 38.9786 21.5111 39.8666C23.1673 42.5088 26.4797 43.9464 28.4565 44.8012L28.7431 44.9275C28.5386 43.98 28.2018 43.0661 27.7426 42.2125C27.3496 41.4707 27.0464 40.6849 26.8392 39.8714C26.6206 38.7883 27.4706 37.5401 28.4128 36.7776C29.046 36.2252 29.8466 35.9019 30.6859 35.8596Z" fill="#263238"/>
<path d="M26.0449 30.3208C26.0449 30.3208 26.5549 36.4308 26.7249 38.1308C26.8949 39.8307 27.8274 44.1582 30.7124 45.0033C33.5975 45.8484 35.2974 42.5457 34.8748 40.0832C34.4523 37.6208 33.6897 35.3283 33.6897 34.4783C33.7101 34.1086 33.6807 33.7378 33.6023 33.3758L26.0449 30.3208Z" fill="white"/>
<path d="M31.6231 45.3859C31.2936 45.3839 30.9663 45.3331 30.6517 45.2353C27.8444 44.4097 26.7127 40.3784 26.4893 38.1539C26.3193 36.4734 25.8142 30.3828 25.8093 30.3391C25.8061 30.2982 25.8134 30.2571 25.8304 30.2197C25.8473 30.1824 25.8735 30.1499 25.9065 30.1254C25.9398 30.0994 25.9795 30.083 26.0214 30.0779C26.0633 30.0728 26.1059 30.0791 26.1445 30.0963L33.6921 33.1513C33.7251 33.1634 33.7548 33.1828 33.7792 33.208C33.8036 33.2333 33.822 33.2637 33.833 33.297C33.9181 33.6843 33.9508 34.0812 33.9301 34.4772C34.016 35.2336 34.1671 35.9811 34.3818 36.7114C34.615 37.6585 34.9064 38.8388 35.1152 40.0384C35.2562 40.8582 35.1973 41.7 34.9437 42.4922C34.69 43.2845 34.249 44.0039 33.6581 44.5894C33.1042 45.1016 32.3775 45.386 31.6231 45.3859ZM26.3242 30.6937C26.4359 32.073 26.8099 36.6774 26.9701 38.1054C27.179 40.2278 28.2232 44.0162 30.7828 44.7739C31.2167 44.917 31.681 44.9416 32.1276 44.8451C32.5742 44.7486 32.9869 44.5346 33.323 44.2251C33.8516 43.6941 34.2462 43.045 34.4742 42.3314C34.7022 41.6177 34.7571 40.86 34.6344 40.121C34.4304 38.9407 34.1487 37.8188 33.9107 36.828C33.6753 36.0614 33.5126 35.2743 33.425 34.4772C33.4295 34.1687 33.4117 33.8603 33.3716 33.5544L26.3242 30.6937Z" fill="#263238"/>
<path d="M33.5975 33.3607L26.0449 30.3057C26.0449 30.3057 26.4335 34.9538 26.6423 37.2705L33.6897 34.3321C33.6999 34.0057 33.6689 33.6793 33.5975 33.3607Z" fill="#263238"/>
<path d="M26.6457 37.5274C26.6027 37.5282 26.5605 37.5164 26.5243 37.4934C26.4909 37.4737 26.4628 37.4461 26.4425 37.4131C26.4222 37.3801 26.4102 37.3426 26.4077 37.304C26.194 34.9921 25.8054 30.3391 25.8054 30.3391C25.8022 30.2982 25.8095 30.2571 25.8265 30.2197C25.8434 30.1824 25.8696 30.1499 25.9026 30.1254C25.9359 30.0994 25.9756 30.083 26.0175 30.0779C26.0594 30.0728 26.102 30.0791 26.1406 30.0963L33.6931 33.1513C33.7267 33.1636 33.757 33.1836 33.7815 33.2098C33.8059 33.2359 33.8239 33.2675 33.8339 33.3018C33.9082 33.6332 33.9392 33.9728 33.9262 34.3121C33.928 34.3604 33.915 34.4082 33.889 34.449C33.863 34.4898 33.8251 34.5216 33.7805 34.5404L26.7428 37.5079C26.7123 37.5218 26.6791 37.5284 26.6457 37.5274ZM26.3251 30.6937C26.4174 31.7962 26.6845 34.9775 26.8594 36.93L33.4405 34.1567C33.4356 33.9536 33.4194 33.7509 33.392 33.5495L26.3251 30.6937Z" fill="#263238"/>
<path d="M35.3919 18.8775C35.3919 18.8775 36.747 26.3378 36.747 27.6977C36.747 29.0576 35.5036 33.0112 34.9402 33.9146C34.3768 34.818 31.5404 35.3717 30.4184 34.9297C29.2964 34.4877 26.12 31.5298 25.44 30.2962C25.0338 29.5486 24.73 28.7497 24.5366 27.9211C24.5366 27.9211 22.9533 28.6011 21.7099 26.7895C20.4665 24.9778 21.1465 23.2876 22.3899 23.1759L23.5216 23.511C23.5216 23.511 21.4865 20.0092 22.1616 18.4258C22.8367 16.8425 30.9818 16.2791 32.6769 16.2791C34.372 16.2791 35.3919 18.8775 35.3919 18.8775Z" fill="white"/>
<path d="M31.4665 35.3264C31.0789 35.3391 30.6922 35.2815 30.3251 35.1564C29.1255 34.6707 25.9539 31.7031 25.2302 30.4112C24.8545 29.7198 24.5626 28.9861 24.3608 28.2256C23.812 28.347 22.5346 28.4199 21.5098 26.9288C20.8007 25.8942 20.6161 24.7674 21.0241 23.9126C21.1427 23.6454 21.3302 23.4146 21.5675 23.2439C21.8048 23.0732 22.0833 22.9687 22.3743 22.9412C22.4046 22.9338 22.4363 22.9338 22.4666 22.9412L23.0349 23.1112C22.486 22.0476 21.3884 19.6385 21.9469 18.3271C22.7969 16.3504 32.5884 16.0347 32.6856 16.0347C34.5264 16.0347 35.5998 18.6768 35.624 18.7885V18.8323C35.6775 19.1382 36.984 26.3314 36.984 27.6962C36.984 29.061 35.7017 33.1359 35.1383 34.0393C34.6624 34.8164 32.8459 35.3264 31.4665 35.3264ZM24.5356 27.6767C24.5763 27.6771 24.6162 27.6871 24.6522 27.7059C24.6831 27.7232 24.7099 27.7468 24.7308 27.7753C24.7518 27.8038 24.7664 27.8364 24.7736 27.871C24.963 28.6756 25.2586 29.4515 25.6527 30.1781C26.2939 31.3534 29.4217 34.2725 30.5097 34.7047C31.5976 35.137 34.2592 34.5444 34.7352 33.7819C35.2646 32.9417 36.508 29.0221 36.508 27.6962C36.508 26.3702 35.2452 19.4394 35.1578 18.9537C35.0606 18.7157 34.1135 16.5252 32.6807 16.5252C30.2523 16.5252 22.9669 17.21 22.3889 18.5263C21.8741 19.7308 23.1854 22.4507 23.7343 23.3832C23.7614 23.4234 23.7759 23.4707 23.7759 23.5192C23.7759 23.5677 23.7614 23.615 23.7343 23.6552C23.7045 23.6944 23.6632 23.7234 23.6163 23.7382C23.5693 23.753 23.5189 23.7528 23.472 23.7378L22.3889 23.4124C22.1904 23.4417 22.0027 23.5214 21.8437 23.6438C21.6847 23.7662 21.5597 23.9273 21.4806 24.1118C21.1504 24.8112 21.3204 25.7583 21.9372 26.6471C23.0446 28.2596 24.4094 27.7156 24.4677 27.6913C24.4897 27.684 24.5125 27.6791 24.5356 27.6767Z" fill="#263238"/>
<path d="M29.2067 20.7336L27.4048 21.535C27.342 21.5617 27.2855 21.6014 27.2391 21.6514C27.1927 21.7014 27.1573 21.7607 27.1353 21.8253C27.1133 21.8899 27.1052 21.9585 27.1114 22.0264C27.1177 22.0944 27.1382 22.1603 27.1717 22.2198L27.2397 22.3412C27.2697 22.3979 27.3107 22.448 27.3603 22.4887C27.4099 22.5294 27.467 22.5599 27.5284 22.5784C27.5898 22.597 27.6543 22.6031 27.7181 22.5966C27.7819 22.59 27.8438 22.5709 27.9002 22.5403L29.6341 21.6175C29.6927 21.5875 29.7446 21.5459 29.7866 21.4952C29.8286 21.4445 29.8599 21.3858 29.8785 21.3227C29.8971 21.2595 29.9027 21.1933 29.8949 21.1279C29.8872 21.0625 29.8662 20.9994 29.8333 20.9424C29.7744 20.835 29.6771 20.7538 29.5609 20.7151C29.4448 20.6764 29.3182 20.683 29.2067 20.7336Z" fill="#263238"/>
<path d="M27.6744 22.817C27.5427 22.8172 27.4134 22.7821 27.2998 22.7155C27.1862 22.6489 27.0925 22.5531 27.0284 22.4381L26.9653 22.3167C26.915 22.2282 26.8842 22.13 26.875 22.0286C26.8658 21.9273 26.8783 21.8251 26.9118 21.729C26.9437 21.6322 26.9957 21.5432 27.0643 21.4679C27.1329 21.3926 27.2167 21.3326 27.3101 21.2919L29.112 20.4953C29.2788 20.42 29.4678 20.4101 29.6414 20.4677C29.8151 20.5253 29.9608 20.6461 30.0494 20.8062C30.097 20.8914 30.1271 20.9853 30.138 21.0823C30.1489 21.1793 30.1402 21.2775 30.1126 21.3712C30.0851 21.4648 30.039 21.552 29.9773 21.6276C29.9156 21.7032 29.8394 21.7658 29.7532 21.8116L28.0144 22.7344C27.9098 22.7901 27.7929 22.8185 27.6744 22.817ZM29.4083 20.9179C29.3747 20.911 29.34 20.911 29.3063 20.9179L27.5044 21.7193C27.4725 21.7323 27.4439 21.7521 27.4204 21.7772C27.3969 21.8024 27.3792 21.8323 27.3684 21.865C27.3552 21.8965 27.3484 21.9304 27.3484 21.9646C27.3484 21.9988 27.3552 22.0326 27.3684 22.0641L27.4364 22.1856C27.469 22.2417 27.5221 22.2832 27.5845 22.3013C27.6469 22.3194 27.7139 22.3127 27.7715 22.2827L29.5055 21.3647C29.5351 21.3495 29.5612 21.3283 29.5822 21.3023C29.6031 21.2764 29.6183 21.2464 29.6269 21.2142C29.6401 21.1843 29.647 21.1521 29.647 21.1195C29.647 21.0868 29.6401 21.0546 29.6269 21.0247C29.6024 20.99 29.5695 20.9619 29.5313 20.9433C29.4931 20.9246 29.4508 20.9159 29.4083 20.9179Z" fill="#263238"/>
<path d="M32.559 20.3176V20.3516C32.546 20.403 32.5434 20.4564 32.5513 20.5088C32.5593 20.5612 32.5775 20.6115 32.6051 20.6567C32.6327 20.7019 32.6691 20.7412 32.712 20.7722C32.755 20.8032 32.8037 20.8253 32.8553 20.8373L34.2493 21.153C34.3075 21.1661 34.368 21.1659 34.4262 21.1525C34.4844 21.1391 34.5388 21.1127 34.5855 21.0754C34.6321 21.0381 34.6698 20.9908 34.6956 20.937C34.7215 20.8831 34.7349 20.8242 34.7349 20.7644C34.7346 20.6755 34.7049 20.5892 34.6505 20.5189C34.596 20.4487 34.5198 20.3984 34.4338 20.3759L33.0496 20.031C32.9986 20.0172 32.9453 20.0136 32.8928 20.0205C32.8404 20.0275 32.7899 20.0448 32.7442 20.0715C32.6986 20.0981 32.6587 20.1336 32.6269 20.1759C32.5951 20.2182 32.572 20.2663 32.559 20.3176Z" fill="#263238"/>
<path d="M34.3284 21.4135C34.2816 21.4185 34.2344 21.4185 34.1875 21.4135L32.7936 21.0978C32.7089 21.0791 32.6289 21.0431 32.5587 20.9922C32.4886 20.9412 32.4296 20.8763 32.3856 20.8015C32.3414 20.7296 32.3125 20.6494 32.3008 20.5658C32.2891 20.4822 32.2948 20.3971 32.3176 20.3158V20.2818C32.361 20.1201 32.4664 19.9819 32.6109 19.8974C32.7555 19.8128 32.9276 19.7886 33.0899 19.8302L34.4741 20.175C34.6256 20.2132 34.758 20.3054 34.8463 20.4343C34.9347 20.5632 34.9729 20.7199 34.9538 20.875C34.9347 21.0301 34.8596 21.1729 34.7427 21.2765C34.6257 21.3802 34.4749 21.4375 34.3187 21.4378L34.3284 21.4135ZM32.7936 20.3838V20.4178C32.7854 20.437 32.7812 20.4577 32.7812 20.4786C32.7812 20.4994 32.7854 20.5201 32.7936 20.5393C32.8036 20.5577 32.8174 20.5737 32.8342 20.5863C32.851 20.5989 32.8703 20.6077 32.8907 20.6121L34.2847 20.923C34.3073 20.9282 34.3309 20.9283 34.3536 20.9233C34.3762 20.9183 34.3975 20.9082 34.4158 20.8938C34.4333 20.8786 34.4475 20.86 34.4575 20.8391C34.4675 20.8182 34.4732 20.7955 34.4741 20.7724C34.4748 20.737 34.463 20.7026 34.4408 20.675C34.4186 20.6475 34.3874 20.6287 34.3527 20.6218L32.9733 20.277C32.934 20.2665 32.8922 20.2718 32.8568 20.2918C32.8214 20.3117 32.7952 20.3448 32.7839 20.3838H32.7936Z" fill="#263238"/>
<path d="M36.2707 30.1844C36.2707 30.1844 36.0521 27.6053 35.5373 27.2362C35.0225 26.8671 31.166 27.1634 31.166 27.1634C31.166 27.1634 27.2805 26.0608 27.1882 26.9448C27.1299 27.5908 27.3048 31.0441 27.4699 32.6566C28.5579 33.7008 29.777 34.6868 30.3841 34.9296C31.5109 35.3813 34.3376 34.8179 34.9059 33.9145C35.478 32.7253 35.9256 31.4802 36.2415 30.199L36.2707 30.1844ZM35.3867 30.6264C34.9447 32.0834 33.9879 32.982 33.5459 32.7634C33.104 32.5449 32.7348 31.1412 32.3657 30.9955C31.9966 30.8498 31.7052 31.5832 31.2632 32.2486C30.8212 32.914 29.641 33.1325 29.1261 32.6906C28.6113 32.2486 28.0188 28.193 28.0188 27.6782C28.0188 27.1634 33.4002 27.9745 33.4002 27.9745C33.9624 27.9048 34.5292 27.8804 35.0953 27.9016C35.4596 27.9745 35.8287 29.1547 35.3867 30.6264Z" fill="#808080"/>
<path d="M31.4675 35.326C31.0799 35.3387 30.6932 35.2811 30.3261 35.156C29.5976 34.8646 28.2522 33.699 27.3246 32.8296C27.2817 32.7907 27.2556 32.7367 27.2517 32.679C27.0963 31.1442 26.9117 27.6229 26.97 26.9235C26.9764 26.8458 27.0003 26.7705 27.0398 26.7032C27.0793 26.636 27.1335 26.5785 27.1983 26.535C27.9171 26.0493 30.5981 26.739 31.215 26.9187C32.1863 26.8458 35.1394 26.6564 35.6785 27.0401C36.2176 27.4238 36.4556 29.5123 36.5139 30.1534C36.5213 30.1853 36.5213 30.2186 36.5139 30.2505C36.1941 31.558 35.7366 32.8279 35.1491 34.0389C34.6634 34.8161 32.8469 35.326 31.4675 35.326ZM27.7228 32.543C28.5479 33.3867 29.4842 34.1138 30.5058 34.7043C31.5695 35.1318 34.2554 34.5441 34.7314 33.7815C35.2855 32.6293 35.72 31.4234 36.0282 30.1825C35.9262 28.9974 35.6542 27.6181 35.3968 27.4335C35.1394 27.249 33.0072 27.2635 31.2101 27.4044C31.1812 27.4095 31.1516 27.4095 31.1227 27.4044C29.8502 27.045 27.8782 26.6661 27.4751 26.9187C27.4023 27.5695 27.5674 30.9014 27.7228 32.543ZM29.8599 33.1598C29.5379 33.1701 29.2222 33.0689 28.9662 32.8733C28.3397 32.3342 27.7763 28.1183 27.7763 27.6764C27.7772 27.6299 27.7881 27.5842 27.8082 27.5423C27.8283 27.5004 27.8572 27.4633 27.8928 27.4335C28.3542 27.0401 31.5258 27.4335 33.4054 27.7298C33.9799 27.6511 34.5605 27.6283 35.1394 27.6618C35.2271 27.6844 35.3089 27.7255 35.3793 27.7825C35.4497 27.8395 35.507 27.911 35.5474 27.9921C35.9169 28.8496 35.9429 29.8163 35.6202 30.6925C35.2462 31.9505 34.5517 32.7373 34.0271 32.9607C33.9356 33.0053 33.8351 33.0286 33.7333 33.0286C33.6315 33.0286 33.531 33.0053 33.4394 32.9607C33.0948 32.6858 32.8354 32.3186 32.6915 31.9019C32.5902 31.6466 32.4492 31.4089 32.2738 31.1976C32.1669 31.1976 31.9192 31.6202 31.7881 31.8728C31.6958 32.0282 31.5938 32.1982 31.4821 32.3584C31.2921 32.6022 31.0489 32.7993 30.7712 32.9348C30.4934 33.0704 30.1884 33.1407 29.8793 33.1404L29.8599 33.1598ZM28.2668 27.7832C28.3154 28.6963 28.9079 32.1836 29.2868 32.5042C29.4011 32.5809 29.5295 32.6341 29.6646 32.6608C29.7996 32.6875 29.9387 32.6871 30.0736 32.6596C30.2642 32.6385 30.4485 32.579 30.6155 32.4847C30.7825 32.3904 30.9286 32.2631 31.045 32.1107C31.1518 31.9553 31.2441 31.795 31.3364 31.625C31.6618 31.0811 31.9726 30.5662 32.4438 30.7508C32.6963 30.8528 32.8615 31.1782 33.114 31.693C33.2348 32.002 33.4127 32.2854 33.6386 32.5284C33.667 32.5403 33.6976 32.5465 33.7284 32.5465C33.7593 32.5465 33.7898 32.5403 33.8183 32.5284C34.236 32.3487 34.8237 31.6153 35.1394 30.5857C35.5473 29.2354 35.2122 28.2446 35.0277 28.1572C34.4873 28.1353 33.9461 28.1613 33.4103 28.2349H33.3472C31.2004 27.8852 28.7865 27.6472 28.2668 27.7832Z" fill="#545454"/>
<path d="M32.3117 29.3588C31.0503 29.3199 29.8238 28.9351 28.7662 28.2465C28.7382 28.2292 28.714 28.2063 28.6951 28.1793C28.6762 28.1522 28.6631 28.1217 28.6564 28.0894C28.6497 28.0571 28.6497 28.0238 28.6563 27.9915C28.6629 27.9593 28.676 27.9287 28.6948 27.9016C28.7136 27.8745 28.7377 27.8516 28.7657 27.8342C28.7937 27.8167 28.8249 27.8052 28.8575 27.8002C28.89 27.7952 28.9233 27.7969 28.9552 27.8051C28.9871 27.8134 29.0169 27.8281 29.043 27.8483C29.043 27.8483 31.1218 29.2568 33.2685 28.7711C33.331 28.7565 33.3967 28.7672 33.4513 28.8009C33.5059 28.8345 33.545 28.8884 33.5599 28.9508C33.5746 29.0133 33.5639 29.079 33.5302 29.1336C33.4965 29.1882 33.4426 29.2272 33.3802 29.2422C33.0295 29.3207 32.6711 29.3598 32.3117 29.3588Z" fill="#263238"/>
<path d="M32.148 21.8596C32.148 21.8596 33.1777 26.3523 33.2505 26.7166C33.3234 27.0808 32.5171 28.2659 31.6332 27.6005C31.1509 27.2854 30.787 26.819 30.5986 26.2746" fill="white"/>
<path d="M32.1758 28.0456C31.9248 28.0418 31.6822 27.9546 31.4862 27.7979C30.9584 27.4528 30.563 26.9392 30.3642 26.3408C30.3572 26.3089 30.3565 26.2759 30.3622 26.2438C30.368 26.2116 30.38 26.1809 30.3976 26.1534C30.4151 26.1259 30.438 26.1021 30.4648 26.0834C30.4915 26.0648 30.5217 26.0515 30.5536 26.0445C30.5855 26.0375 30.6185 26.0368 30.6506 26.0426C30.6828 26.0483 30.7135 26.0603 30.741 26.0779C30.7685 26.0955 30.7923 26.1183 30.811 26.1451C30.8297 26.1718 30.8429 26.202 30.8499 26.2339C31.0297 26.7193 31.3598 27.1345 31.7921 27.419C31.8904 27.5054 32.0139 27.5578 32.1443 27.5683C32.2747 27.5788 32.405 27.5469 32.5158 27.4773C32.64 27.3998 32.7471 27.2978 32.8306 27.1776C32.9141 27.0573 32.9723 26.9214 33.0015 26.7779C32.9287 26.4185 31.9087 21.9647 31.899 21.921C31.892 21.8891 31.8913 21.8561 31.897 21.824C31.9028 21.7918 31.9148 21.7611 31.9323 21.7336C31.9499 21.7061 31.9728 21.6823 31.9996 21.6636C32.0263 21.645 32.0565 21.6317 32.0884 21.6247C32.1203 21.6177 32.1533 21.617 32.1854 21.6227C32.2176 21.6285 32.2483 21.6405 32.2758 21.6581C32.3033 21.6756 32.3271 21.6985 32.3458 21.7253C32.3644 21.752 32.3777 21.7822 32.3847 21.8141C32.4235 21.9987 33.4144 26.3165 33.4872 26.6711C33.4826 26.9128 33.4158 27.1492 33.2933 27.3576C33.1708 27.566 32.9967 27.7394 32.7878 27.861C32.6047 27.9777 32.3929 28.0415 32.1758 28.0456Z" fill="#263238"/>
<path d="M29.8509 24.0457C29.9675 24.4342 29.9238 24.7936 29.7489 24.847C29.5741 24.9005 29.3361 24.6285 29.2147 24.2399C29.0932 23.8514 29.1418 23.492 29.3166 23.4385C29.4915 23.3851 29.7295 23.6474 29.8509 24.0457Z" fill="#263238"/>
<path d="M34.208 23.4425C34.2566 23.8456 34.1449 24.1904 33.9652 24.2099C33.7855 24.2293 33.5961 23.9233 33.5475 23.5202C33.4989 23.1171 33.6106 22.7674 33.7952 22.7479C33.9798 22.7285 34.1789 23.0393 34.208 23.4425Z" fill="#263238"/>
<path d="M21.7102 14.0155C21.7102 14.0155 18.7961 16.9297 19.9034 19.4456C21.0108 21.9615 23.8618 26.561 23.8618 26.561H24.4252L24.3135 24.6182C24.3135 24.6182 26.1203 23.9431 25.7706 22.3597C25.5751 21.4246 25.1917 20.539 24.6438 19.7564C24.6438 19.7564 26.5866 21.2135 28.8256 20.8881C31.0647 20.5627 32.1041 17.8379 32.8957 18.7413C33.6874 19.6447 34.9308 20.1984 37.301 18.9647C39.6712 17.7311 41.1865 13.5104 38.5929 11.8153C35.9993 10.1203 33.5709 11.621 32.2158 11.9562C30.8607 12.2913 29.8407 10.0134 26.7906 10.9411C24.8782 11.5506 23.1373 12.6041 21.7102 14.0155Z" fill="#263238"/>
<path d="M24.4246 26.8098H23.8612C23.8192 26.81 23.778 26.7994 23.7414 26.779C23.7048 26.7586 23.6741 26.729 23.6523 26.6932C23.6232 26.6446 20.8061 22.016 19.6793 19.5438C18.4991 16.9502 21.3841 14.002 21.5395 13.8466C22.9966 12.4088 24.777 11.3413 26.7316 10.7333C27.4024 10.52 28.1128 10.4616 28.8094 10.5625C29.506 10.6635 30.1706 10.9211 30.7532 11.3161C31.2971 11.6173 31.7245 11.8553 32.1665 11.7484C32.4142 11.6853 32.7056 11.5833 33.0359 11.4619C34.4299 10.9762 36.5329 10.2039 38.7331 11.6367C39.2286 11.9675 39.6255 12.426 39.882 12.9637C40.1385 13.5014 40.245 14.0985 40.1902 14.6917C40.1318 15.6138 39.8486 16.5076 39.3651 17.295C38.8817 18.0824 38.2128 18.7394 37.4169 19.2087C35.3575 20.2869 33.8179 20.1801 32.7105 18.927C32.6231 18.8298 32.5696 18.825 32.5502 18.825C32.3462 18.825 31.9917 19.1504 31.6225 19.5049C30.9766 20.1266 30.0926 20.962 28.8589 21.1563C27.6536 21.3011 26.4329 21.0722 25.362 20.5006C25.6523 21.0818 25.8693 21.6969 26.0079 22.3317C26.2896 23.6382 25.26 24.4784 24.5508 24.8039L24.6528 26.5524C24.6552 26.5854 24.6504 26.6187 24.6387 26.6497C24.6269 26.6807 24.6086 26.7088 24.5848 26.7321C24.5438 26.7782 24.4862 26.8061 24.4246 26.8098ZM23.9972 26.3241H24.1671L24.07 24.6581C24.0666 24.6064 24.0798 24.5549 24.1078 24.5112C24.1357 24.4675 24.177 24.4339 24.2254 24.4153C24.2934 24.4153 25.8331 23.7888 25.5417 22.4337C25.355 21.5348 24.9864 20.6835 24.4586 19.9323C24.4196 19.888 24.3982 19.8311 24.3982 19.7721C24.3982 19.7131 24.4196 19.6561 24.4586 19.6118C24.5024 19.5719 24.5596 19.5497 24.6188 19.5497C24.6781 19.5497 24.7353 19.5719 24.7791 19.6118C24.7791 19.6118 26.649 21.0154 28.7764 20.6949C29.8595 20.5298 30.6463 19.7818 31.2777 19.1747C31.7634 18.689 32.1519 18.349 32.5599 18.3587C32.6548 18.3678 32.7468 18.3962 32.8304 18.4421C32.9139 18.488 32.9871 18.5506 33.0456 18.6258C33.6479 19.3107 34.7261 20.0829 37.1595 18.7958C37.8783 18.3636 38.4822 17.7645 38.9202 17.0492C39.3582 16.3339 39.6172 15.5236 39.6753 14.6869C39.7257 14.1775 39.636 13.664 39.4161 13.2019C39.1961 12.7397 38.8542 12.3463 38.4271 12.0641C36.4309 10.7625 34.5416 11.4424 33.1622 11.9378C32.8615 12.0537 32.5551 12.1542 32.2442 12.239C31.6177 12.3944 31.064 12.0835 30.4812 11.7533C29.5923 11.2676 28.5821 10.6945 26.8287 11.2141C24.9585 11.8067 23.2533 12.8298 21.8504 14.2012C21.8212 14.2012 19.0431 17.0522 20.0873 19.3544C21.1364 21.5691 23.5503 25.5907 23.9777 26.3241H23.9972Z" fill="#263238"/>
<path d="M57.7846 47.128C58.6166 47.128 59.4299 46.8813 60.1217 46.4191C60.8134 45.9568 61.3526 45.2999 61.671 44.5312C61.9894 43.7626 62.0727 42.9168 61.9104 42.1008C61.7481 41.2848 61.3474 40.5352 60.7591 39.9469C60.1708 39.3586 59.4213 38.958 58.6053 38.7957C57.7893 38.6334 56.9435 38.7167 56.1748 39.0351C55.4062 39.3534 54.7492 39.8926 54.287 40.5844C53.8248 41.2761 53.5781 42.0894 53.5781 42.9214C53.5788 44.0369 54.0222 45.1064 54.8109 45.8951C55.5997 46.6839 56.6692 47.1273 57.7846 47.128ZM57.7846 39.2542C58.5099 39.2542 59.219 39.4692 59.8221 39.8722C60.4251 40.2752 60.8952 40.8479 61.1728 41.518C61.4503 42.1881 61.5229 42.9255 61.3814 43.6369C61.2399 44.3483 60.8907 45.0017 60.3778 45.5146C59.8649 46.0275 59.2115 46.3767 58.5001 46.5182C57.7887 46.6597 57.0513 46.5871 56.3812 46.3095C55.7111 46.032 55.1384 45.5619 54.7354 44.9588C54.3324 44.3558 54.1174 43.6467 54.1174 42.9214C54.1181 41.949 54.5047 41.0167 55.1923 40.3291C55.8799 39.6415 56.8122 39.2549 57.7846 39.2542Z" fill="#263238"/>
<path d="M55.2532 46.1479L55.9004 46.6333L51.6485 52.3025L51.0013 51.8171L55.2532 46.1479Z" fill="#263238"/>
<path d="M62.4653 39.9672C62.3054 40.481 62.2307 41.0175 62.2442 41.5554C62.29 42.3509 62.2011 43.4969 61.9746 43.6749C61.748 43.8529 61.1359 44.2924 61.3139 44.6457C61.4438 44.8804 61.6436 45.0689 61.8856 45.185C62.0234 45.8715 62.2462 46.5382 62.5489 47.1696C62.9911 48.0082 63.2985 48.5826 63.8271 48.6257C64.1095 48.6606 64.3962 48.6311 64.6657 48.5394L65.2454 49.1057L69.6138 48.1808L69.4817 46.2393C69.4817 46.2393 70.8057 43.9877 70.8057 41.693C70.8057 39.3982 68.4678 38.0769 67.0979 37.9879C65.7281 37.899 63.1718 38.4679 62.4653 39.9672Z" fill="white"/>
<path d="M65.2071 49.2517L69.7615 48.2998L69.624 46.2828C69.7993 45.97 70.9453 43.8775 70.9453 41.6987C70.9453 39.3069 68.4888 37.9479 67.1109 37.8589C65.83 37.778 63.1146 38.2957 62.3488 39.9217V39.9379C62.1824 40.4671 62.105 41.0202 62.1196 41.5747C62.1735 42.505 62.0441 43.4623 61.9066 43.5809L61.8472 43.6267C61.5506 43.8586 60.9978 44.2928 61.2082 44.7054C61.3414 44.9439 61.5409 45.1387 61.7825 45.2662C61.9216 45.9438 62.1444 46.6014 62.4459 47.2239C62.8962 48.0814 63.2225 48.6989 63.8319 48.7501C64.1034 48.7782 64.3777 48.7554 64.6408 48.6827L65.2071 49.2517ZM69.4757 48.0706L65.2934 48.9578L64.7083 48.3699L64.6247 48.4077C64.3749 48.4872 64.1114 48.5138 63.8508 48.4859C63.4085 48.4481 63.1308 47.9601 62.6778 47.0999C62.3823 46.4802 62.165 45.8262 62.0306 45.153V45.0829L61.9659 45.0532C61.7534 44.9528 61.5766 44.7901 61.4589 44.5867C61.3457 44.3629 61.8365 43.9773 62.0225 43.8317L62.0818 43.7831C62.3973 43.5324 62.4324 42.1463 62.3973 41.5531C62.3847 41.0344 62.4567 40.5171 62.6104 40.0215C63.2629 38.6517 65.6817 38.0288 67.1082 38.1204C68.3944 38.204 70.6891 39.4687 70.6891 41.6906C70.6891 43.9126 69.3975 46.1453 69.384 46.1669L69.3625 46.2046L69.4757 48.0706Z" fill="#263238"/>
<path d="M61.3259 38.866C61.2956 39.3063 61.4206 39.7433 61.6791 40.101C62.1187 40.7644 63.3105 40.9855 63.3105 40.9855C63.3105 40.9855 63.3537 41.9562 63.6206 42.3526C63.8618 42.6473 64.1622 42.888 64.5024 43.0591C64.5024 43.0591 65.3841 43.1454 65.1199 44.1161C64.8556 45.0869 64.6345 45.219 65.0767 46.0037C65.519 46.7884 68.1211 47.8562 69.0029 47.2387C69.8846 46.6212 70.548 46.3138 71.0765 44.4586C71.605 42.6034 72.1362 40.0039 70.6343 38.2377C69.1323 36.4715 65.7374 36.9137 65.7374 36.9137C65.7374 36.9137 66.6192 36.0751 65.3841 36.121C64.6051 36.1734 63.8701 36.5012 63.3105 37.0459C63.3105 37.0459 63.1784 36.1641 62.5177 36.3852C61.8571 36.6063 61.4095 38.386 61.3259 38.866Z" fill="#263238"/>
<path d="M68.2546 47.5725C68.5437 47.5872 68.8305 47.5138 69.077 47.3622L69.3036 47.2058C70.0855 46.6665 70.7057 46.2458 71.1911 44.5093C71.7682 42.4896 72.2374 39.9441 70.7219 38.1644C69.4546 36.6732 66.9468 36.7001 66.0354 36.7622C66.0904 36.6945 66.1283 36.6145 66.1457 36.5291C66.1631 36.4436 66.1594 36.3552 66.1351 36.2714C66.0515 36.0719 65.8008 35.9829 65.3639 36.0017C64.6284 36.0468 63.9277 36.3308 63.3685 36.8107C63.3093 36.6106 63.1838 36.4366 63.0126 36.3172C62.9317 36.27 62.8412 36.2415 62.7478 36.2341C62.6545 36.2266 62.5606 36.2403 62.4733 36.2741C61.6292 36.5437 61.1951 38.825 61.1924 38.8466C61.1586 39.3198 61.2912 39.79 61.5672 40.176C61.9609 40.7665 62.875 41.0227 63.1851 41.0955C63.204 41.3651 63.2768 42.0797 63.5087 42.4276C63.762 42.7429 64.0814 42.9988 64.4444 43.1772L64.4903 43.1907C64.67 43.2198 64.832 43.3162 64.9433 43.4603C64.9972 43.5555 65.0296 43.6613 65.038 43.7704C65.0463 43.8795 65.0306 43.989 64.9918 44.0913C64.9379 44.2882 64.8866 44.45 64.8408 44.5875C64.6628 45.151 64.5712 45.3964 64.9595 46.0894C65.2453 46.6045 66.3563 47.2274 67.4376 47.4755C67.7056 47.5374 67.9795 47.5699 68.2546 47.5725ZM66.6556 37.0156C67.7504 37.0156 69.5624 37.2044 70.5278 38.3396C71.9596 40.0223 71.5012 42.4815 70.943 44.4365C70.4738 46.0787 69.9184 46.4589 69.1499 46.9847L68.9206 47.1411C68.651 47.3325 68.1414 47.3541 67.4915 47.2058C66.51 46.9793 65.434 46.3968 65.1887 45.9519C64.8678 45.3695 64.919 45.205 65.0916 44.663C65.1374 44.5201 65.1914 44.3556 65.2453 44.156C65.2961 44.0158 65.3147 43.8659 65.2998 43.7175C65.2849 43.569 65.2367 43.4259 65.159 43.2985C65.0086 43.099 64.7859 42.9663 64.5388 42.9291C64.2268 42.7713 63.9512 42.5499 63.7298 42.2792C63.5303 41.9799 63.4602 41.2411 63.444 40.9795V40.8744L63.3388 40.8528C63.3388 40.8528 62.1982 40.6344 61.7937 40.0438C61.5576 39.712 61.4407 39.31 61.4621 38.9032C61.5834 38.2345 62.0283 36.7163 62.5622 36.5384C62.615 36.5168 62.672 36.5073 62.7289 36.5106C62.7858 36.5139 62.8413 36.5298 62.8912 36.5572C63.0508 36.6955 63.1544 36.8873 63.1824 37.0965L63.2229 37.3662L63.4116 37.1693C63.9484 36.6515 64.6498 36.3385 65.3936 36.2849C65.8331 36.2687 65.8978 36.3712 65.9059 36.3927C65.9464 36.4871 65.7792 36.7217 65.6498 36.8458L65.3505 37.1154L65.7576 37.0642C66.0557 37.0306 66.3556 37.0144 66.6556 37.0156Z" fill="#263238"/>
<path d="M64.1415 43.7144C64.1415 43.7144 64.8911 42.3041 65.4655 42.8326C66.0398 43.3612 65.4655 46.1844 64.4947 45.6559" fill="white"/>
<path d="M64.739 45.8766C64.8611 45.8677 64.9792 45.8292 65.083 45.7644C65.1869 45.6995 65.2733 45.6103 65.3349 45.5045C65.8284 44.8169 66.0387 43.1936 65.5614 42.7513C65.5006 42.692 65.4267 42.6479 65.3456 42.6226C65.2645 42.5973 65.1786 42.5915 65.0949 42.6057C64.5556 42.6974 64.0783 43.5711 64.0163 43.6708L64.2536 43.7976C64.3803 43.5603 64.7929 42.9293 65.13 42.87C65.1731 42.8632 65.2173 42.8671 65.2586 42.8812C65.2999 42.8953 65.3372 42.9192 65.3673 42.9509C65.7124 43.2664 65.5533 44.7225 65.0976 45.3454C64.828 45.7148 64.6176 45.5962 64.5448 45.5557L64.4154 45.793C64.5137 45.8497 64.6255 45.8786 64.739 45.8766Z" fill="#263238"/>
<path d="M60.9252 42.9299H64.498V43.1996H60.9252V42.9299Z" fill="#263238"/>
<path d="M61.2081 44.2284L61.3699 44.0127C61.2133 43.8967 61.0945 43.737 61.0283 43.5538C60.9621 43.3706 60.9515 43.1719 60.9977 42.9826C61.0374 42.8095 61.1237 42.6507 61.2473 42.5233C61.3709 42.3958 61.5271 42.3048 61.6988 42.2599C61.9137 42.2031 62.1413 42.2192 62.346 42.3058L62.4512 42.055C62.1946 41.9496 61.9109 41.9297 61.6422 41.9984C61.4137 42.0604 61.2073 42.1854 61.0465 42.3591C60.8857 42.5329 60.777 42.7483 60.7329 42.9809C60.6887 43.2135 60.7109 43.4538 60.7968 43.6744C60.8827 43.895 61.029 44.087 61.2189 44.2284H61.2081Z" fill="#263238"/>
<path d="M64.2518 50.3943C64.2518 50.3943 64.2518 49.4101 65.5461 48.6712C66.8405 47.9324 69.4291 46.9454 70.6021 47.0533C71.7751 47.1612 72.4492 48.8411 72.4492 48.8411C72.4492 48.8411 67.8274 49.2725 66.7191 49.5179C65.8733 49.7395 65.0479 50.0327 64.2518 50.3943Z" fill="white"/>
<path d="M64.116 50.6026L64.3074 50.5164C65.0907 50.1632 65.9026 49.8773 66.7343 49.6616C67.8129 49.4216 72.397 48.9901 72.4482 48.9874L72.6289 48.9712L72.5588 48.8014C72.5318 48.7313 71.8388 47.0621 70.6011 46.9327C69.3634 46.8032 66.799 47.7902 65.4777 48.5506C64.1564 49.311 64.1133 50.3492 64.1133 50.3923L64.116 50.6026ZM72.246 48.7366C71.3535 48.8202 67.6781 49.1789 66.6885 49.4C65.9123 49.5932 65.1537 49.8511 64.4207 50.1712C64.5016 49.8584 64.7604 49.2733 65.6126 48.7852C66.8826 48.0598 69.4551 47.0783 70.5849 47.1996C71.4505 47.2913 72.0438 48.3241 72.246 48.7366Z" fill="#263238"/>
<path d="M83.6026 56.8035C83.6026 56.8035 85.0803 58.5292 87.0541 60.9966C89.028 63.4639 90.627 65.9878 90.627 65.9878C90.627 65.9878 92.4769 67.5896 92.7222 68.2664C92.9676 68.9432 93.5851 70.9171 93.8332 71.4726C94.0813 72.028 92.9703 71.2865 92.7843 70.8551C92.677 70.6011 92.5536 70.3543 92.4148 70.1162L90.8131 69.3774C90.8131 69.3774 91.3066 70.6097 90.8131 70.793C90.3196 70.9764 90.2576 70.1162 89.7048 69.4448C89.152 68.7733 88.6559 68.2718 88.5939 67.4709C88.5582 66.9169 88.5582 66.3612 88.5939 65.8072L80.7065 60.6838L83.6026 56.8035Z" fill="white"/>
<path d="M93.7923 71.808C93.8248 71.8096 93.8572 71.8034 93.8868 71.7897C93.9164 71.7761 93.9422 71.7556 93.9621 71.7298C93.9876 71.6826 94.001 71.6298 94.001 71.5761C94.001 71.5225 93.9876 71.4697 93.9621 71.4224C93.8084 71.08 93.5091 70.1766 93.2476 69.3839C93.0912 68.912 92.9482 68.4778 92.8539 68.2244C92.6085 67.5475 90.9259 66.0671 90.7371 65.9026C90.5915 65.6761 89.0356 63.252 87.1642 60.9141C85.2119 58.4872 83.7234 56.7372 83.71 56.721L83.5994 56.5916L80.5173 60.7253L88.4504 65.8757C88.4175 66.41 88.4175 66.9458 88.4504 67.4801C88.5098 68.2297 88.9196 68.7232 89.3969 69.2949L89.5911 69.5268C89.7716 69.7629 89.9245 70.019 90.0468 70.2899C90.2436 70.6971 90.4324 71.0827 90.8557 70.9236C90.9104 70.9024 90.9603 70.8705 91.0024 70.8297C91.0446 70.789 91.0781 70.7402 91.1011 70.6863C91.2279 70.4004 91.1281 69.942 91.0364 69.6346L92.3146 70.2252C92.4399 70.4482 92.5533 70.6778 92.6543 70.9128C92.9037 71.3319 93.2935 71.649 93.7545 71.808H93.7923ZM83.6075 57.0257C83.9742 57.4733 85.2982 59.0265 86.9404 61.084C88.8846 63.5108 90.489 66.0375 90.5052 66.0644L90.5322 66.0941C91.0391 66.5309 92.3955 67.7875 92.5869 68.316C92.6786 68.5695 92.8215 68.9983 92.9779 69.4675C93.2476 70.2548 93.5334 71.1447 93.6925 71.5114C93.3698 71.3523 93.096 71.1091 92.8997 70.8076C92.7898 70.5474 92.6637 70.2944 92.5222 70.0499L92.5006 70.0148L90.5537 69.1169L90.6805 69.4297C90.7695 69.6562 90.9744 70.298 90.8504 70.5757C90.8423 70.5976 90.8297 70.6175 90.8134 70.6342C90.7972 70.651 90.7776 70.6641 90.756 70.6728C90.5888 70.7348 90.5079 70.6216 90.2868 70.1712C90.1566 69.8833 89.9927 69.6117 89.7987 69.3623L89.6046 69.1277C89.1381 68.5695 88.7713 68.1273 88.7201 67.4666C88.6862 66.9189 88.6862 66.3695 88.7201 65.8217V65.7409L88.6527 65.6977L80.8867 60.6606L83.6075 57.0257Z" fill="#263238"/>
<path d="M92.3055 70.1911L92.5293 70.0401L91.7716 68.8995H91.7203C91.3872 68.8004 91.0689 68.6571 90.7739 68.4734C90.5124 68.313 90.2829 68.1054 90.097 67.8613L89.8759 68.0177C90.0848 68.2874 90.3395 68.5183 90.6282 68.6999C90.9316 68.8907 91.2589 69.0403 91.6017 69.1449L92.3055 70.1911Z" fill="#263238"/>
<path d="M56.8203 54.3846L54.8222 50.1861C54.6978 49.5573 54.5376 48.9361 54.3422 48.3255C54.2047 48.0856 53.3769 46.7777 53.0668 46.7427C52.7567 46.7076 52.4465 46.8452 52.4115 47.1202C52.3935 47.2882 52.4304 47.4576 52.5167 47.6029C52.2081 47.7613 51.9376 47.9849 51.7239 48.2581C51.4921 48.5741 51.3496 48.9467 51.3113 49.3367C51.2412 49.6064 51.0012 49.6468 51.2763 50.232C51.5513 50.8171 51.9989 50.9897 52.2416 51.1596C52.507 51.326 52.7826 51.4755 53.0668 51.6072C53.0668 51.6072 53.1018 55.5684 53.5845 57.1189C54.0672 58.6694 54.4096 59.1844 54.4096 59.1844C54.4096 59.1844 55.2375 56.3612 55.7174 55.8084C56.1974 55.2556 56.8203 54.3846 56.8203 54.3846Z" fill="white"/>
<path d="M54.4531 59.4879L54.534 59.2183C54.7632 58.4417 55.4347 56.3276 55.8149 55.8935C56.2949 55.3542 56.9177 54.4805 56.9258 54.4724L56.9717 54.4077L54.9466 50.1499C54.823 49.5107 54.6581 48.8802 54.4531 48.2623C54.4531 48.2488 53.512 46.6606 53.0779 46.612C52.6438 46.5635 52.3148 46.7792 52.2689 47.1082C52.251 47.2582 52.2714 47.4104 52.3283 47.5504C52.0496 47.7119 51.8043 47.9252 51.6056 48.1787C51.3916 48.4549 51.2532 48.782 51.2038 49.1279C51.2038 49.1872 51.1822 49.2438 51.1688 49.2978C51.1542 49.3521 51.1315 49.4039 51.1013 49.4515C50.9962 49.6456 50.9315 49.829 51.1445 50.282C51.326 50.6601 51.6249 50.9695 51.9966 51.1638C52.0532 51.1988 52.1072 51.2312 52.153 51.2635C52.3998 51.421 52.6565 51.5624 52.9215 51.6869C52.9215 52.2828 52.9943 55.7074 53.4446 57.1527C53.9273 58.7005 54.2725 59.2318 54.2886 59.2533L54.4531 59.4879ZM56.6589 54.3645C56.5052 54.5749 56.009 55.249 55.6126 55.7128C55.2162 56.1766 54.6014 58.0669 54.3695 58.8246C54.1065 58.2562 53.8848 57.6695 53.7062 57.0691C53.237 55.5564 53.1965 51.6384 53.1965 51.5979V51.5143L53.1183 51.4766C52.8402 51.3483 52.57 51.2033 52.3094 51.0424C52.2582 51.0074 52.2015 50.9696 52.1368 50.9319C51.811 50.7627 51.5482 50.4933 51.3872 50.1634C51.2173 49.7993 51.2685 49.7076 51.3386 49.5782C51.3795 49.5102 51.4104 49.4366 51.4303 49.3598C51.4465 49.3005 51.4573 49.2411 51.4708 49.1764C51.5103 48.8713 51.6314 48.5825 51.8213 48.3405C52.0221 48.0853 52.2749 47.8757 52.5629 47.7257L52.7058 47.661L52.6168 47.5288C52.5495 47.4112 52.5212 47.2753 52.5359 47.1405C52.5602 46.9437 52.8055 46.852 53.0428 46.8709C53.2801 46.8898 53.9273 47.8875 54.2131 48.3863C54.4081 48.9823 54.5639 49.5903 54.6796 50.2065V50.2362L56.6589 54.3645Z" fill="#263238"/>
<path d="M80.8848 65.8626C80.8848 65.8626 83.5139 72.6417 83.9642 74.2218C84.4146 75.802 85.4797 79.0082 85.9327 83.0799C86.0847 84.7361 86.0765 86.4031 85.9084 88.0577C86.6205 89.4729 87.2508 90.9278 87.796 92.4153C88.7721 95.0444 92.0889 108.085 92.0889 108.085C92.0889 108.085 91.4875 108.988 90.1339 108.762L88.7856 108.535C88.4585 108.576 88.1264 108.55 87.8095 108.46C87.2702 108.311 86.081 108.387 86.0055 107.861C85.93 107.335 86.3075 107.184 86.7578 106.658C87.2082 106.132 87.885 104.477 87.885 104.477C87.885 104.477 84.1152 97.8892 82.7616 95.4893C81.4079 93.0894 79.5258 88.5835 79.4476 87.9067C79.3694 87.2299 75.6131 77.2905 75.6131 77.2905H74.7853L68.8529 87.2191C68.8529 87.2191 69.0794 91.2018 68.4026 93.5316C67.7258 95.8614 66.1537 104.657 66.1537 104.657L66.3047 106.238C66.1715 106.552 66.0703 106.879 66.0027 107.214V108.039C66.0027 108.039 65.7789 108.578 64.2742 108.578C63.6001 108.578 61.3431 108.352 60.9683 108.276C60.5935 108.201 57.7325 108.125 57.6623 107.75C57.5922 107.376 57.5113 107.074 57.9617 106.923C58.412 106.772 61.6451 105.27 61.6451 105.27V103.921C61.9648 103.685 62.2228 103.375 62.3974 103.018C62.5458 102.568 62.2464 90.4684 62.3974 88.3651C62.5485 86.2618 62.3219 86.2618 62.9233 84.3823C63.5246 82.5028 65.9056 69.3141 65.9056 69.3141L67.1218 67.219L79.8952 64.5898L80.8848 65.8626Z" fill="#263238"/>
<path d="M90.5576 108.928C90.8717 108.94 91.1841 108.876 91.4688 108.743C91.7535 108.61 92.0023 108.411 92.1944 108.162L92.2295 108.111L92.2133 108.054C92.181 107.922 88.8858 94.9761 87.9178 92.3712C87.3747 90.8923 86.7518 89.444 86.0518 88.0325C86.2143 86.3812 86.2206 84.7181 86.0706 83.0655C85.7328 80.2909 85.1407 77.5532 84.3017 74.887C84.2262 74.6173 84.1561 74.3935 84.0968 74.1859C83.6492 72.6192 81.0416 65.886 81.0146 65.8267L80.9958 65.7943L79.9603 64.446L79.8767 64.4622L67.044 67.1048L65.7793 69.2944C65.755 69.4265 63.3902 82.4777 62.7969 84.3275C62.4831 85.1645 62.325 86.0519 62.3304 86.9458C62.3304 87.2964 62.3089 87.7332 62.2657 88.3399C62.1875 89.4185 62.228 93.0669 62.2657 96.5832C62.2981 99.6006 62.3331 102.72 62.2657 102.963C62.0994 103.293 61.8584 103.579 61.5619 103.799L61.508 103.84V105.172C61.0118 105.404 58.318 106.652 57.9189 106.79C57.3796 106.973 57.4497 107.38 57.5198 107.739V107.771C57.5792 108.062 58.1859 108.192 60.2164 108.34C60.5453 108.364 60.8312 108.383 60.9202 108.402C61.3192 108.483 63.5843 108.707 64.2531 108.707C65.8009 108.707 66.0786 108.167 66.1056 108.097V108.046V107.218C66.17 106.9 66.2676 106.589 66.3968 106.291L66.4103 106.261L66.2593 104.667C66.3402 104.22 67.8529 95.8255 68.5055 93.5793C69.158 91.3331 68.9882 87.717 68.9639 87.264L74.872 77.4217H75.5272C76.6058 80.245 79.2565 87.38 79.3024 87.9139C79.3779 88.6015 81.2735 93.129 82.6326 95.5477C83.9026 97.8047 87.338 103.826 87.7101 104.481C87.5861 104.781 87.0144 106.115 86.6315 106.563C86.5129 106.701 86.3996 106.814 86.2998 106.911C86.0113 107.197 85.7848 107.421 85.8495 107.874C85.9142 108.327 86.5857 108.413 87.1789 108.494C87.3707 108.509 87.561 108.54 87.7479 108.585C88.0775 108.677 88.4217 108.705 88.7618 108.666L90.0938 108.887C90.247 108.914 90.4022 108.928 90.5576 108.928ZM91.9356 108.052C91.718 108.3 91.437 108.485 91.1225 108.586C90.8081 108.687 90.4721 108.701 90.1505 108.626L88.7779 108.397H88.7537C88.4463 108.433 88.1347 108.408 87.8369 108.324C87.6347 108.276 87.4292 108.243 87.222 108.227C86.7529 108.17 86.1677 108.103 86.13 107.833C86.0841 107.518 86.2324 107.369 86.5021 107.105C86.6072 107 86.7259 106.884 86.8499 106.738C87.3083 106.199 87.9717 104.581 87.9986 104.522L88.0256 104.462L87.9906 104.406C87.9528 104.338 84.2154 97.7913 82.8833 95.4156C81.5513 93.04 79.6475 88.5557 79.5855 87.8842C79.5235 87.2128 75.902 77.6374 75.7483 77.2384L75.7133 77.1521H74.7183L68.7266 87.1831V87.2236C68.7266 87.2613 68.945 91.209 68.2817 93.4903C67.6183 95.7716 66.0409 104.546 66.0247 104.627V104.657L66.173 106.221C66.0342 106.54 65.9337 106.875 65.8737 107.218V108.008C65.8143 108.089 65.4881 108.437 64.28 108.437C63.6005 108.437 61.3408 108.205 61.0011 108.138C60.8932 108.116 60.6289 108.097 60.2622 108.07C59.6285 108.025 57.9486 107.901 57.7949 107.701V107.685C57.7167 107.291 57.7059 107.145 58.0133 107.046C58.4663 106.895 61.5781 105.449 61.7102 105.387L61.7884 105.35V103.977C62.1093 103.735 62.365 103.417 62.5327 103.052C62.6082 102.823 62.5866 100.447 62.5327 96.5805C62.4949 93.2314 62.4518 89.4374 62.5327 88.3588C62.5758 87.744 62.5866 87.3072 62.5974 86.9539C62.5907 86.0848 62.7442 85.2219 63.0504 84.4084C63.6409 82.564 65.8925 70.1708 66.0382 69.3672L67.2138 67.3448L79.8498 64.7481L80.7693 65.9399C80.923 66.3309 83.4038 72.7513 83.8379 74.2668L84.0428 74.9706C84.8768 77.6155 85.4653 80.3316 85.801 83.0844C85.9503 84.7308 85.9431 86.3876 85.7794 88.0325V88.073L85.7983 88.1107C86.5025 89.5219 87.1272 90.9713 87.6697 92.4521C88.5946 94.9491 91.6848 107.083 91.9356 108.052Z" fill="#263238"/>
<path d="M57.5334 54.5238C57.5334 54.5238 57.288 53.7148 56.239 54.0923C55.1901 54.4698 53.591 57.4818 53.9605 59.0836C54.3299 60.6853 55.3087 61.2408 56.177 61.1788C57.0453 61.1168 58.0889 60.0705 57.8435 59.9465C57.5981 59.8224 57.5334 54.5238 57.5334 54.5238Z" fill="white"/>
<path d="M56.0536 61.3207H56.1884C56.9812 61.2641 57.9385 60.4281 58.0086 60.0722C58.0193 60.032 58.0178 59.9895 58.0043 59.9502C57.9909 59.9108 57.9661 59.8763 57.9331 59.8511C57.7982 59.5437 57.6958 56.8984 57.6634 54.5281V54.4904C57.5824 54.2658 57.4197 54.0799 57.2077 53.97C57.0483 53.9001 56.8761 53.864 56.7021 53.864C56.5281 53.864 56.3559 53.9001 56.1965 53.97C55.0343 54.3798 53.4487 57.4754 53.829 59.1176C54.2092 60.7598 55.1988 61.3207 56.0536 61.3207ZM57.7389 60.0345C57.6661 60.2583 56.8598 60.9971 56.1695 61.0456C55.401 61.105 54.4492 60.6061 54.0905 59.0556C53.7319 57.5051 55.3498 54.5497 56.2855 54.2207C56.4102 54.165 56.5448 54.1346 56.6813 54.1314C56.8179 54.1282 56.9537 54.1521 57.081 54.2019C57.2254 54.2757 57.3384 54.3993 57.3991 54.5497C57.4558 59.1797 57.6364 59.8969 57.7389 60.0345Z" fill="#263238"/>
<path d="M80.3319 53.7778C80.3319 53.7778 80.7633 53.7778 81.3781 53.7185C81.9929 53.6592 82.8585 54.7027 83.352 55.3202C83.8454 55.9377 84.4602 56.3072 84.0288 57.5988C83.5974 58.8904 82.4271 60.565 80.7013 60.6809C79.726 60.7768 78.7521 60.4863 77.9886 59.872L80.3319 53.7778Z" fill="white"/>
<path d="M80.3864 60.8344C80.4915 60.8344 80.6021 60.8344 80.7126 60.8344C82.4034 60.7131 83.6626 59.1545 84.1588 57.6606C84.5498 56.493 84.1103 55.9995 83.6869 55.5222C83.6114 55.436 83.5332 55.347 83.4604 55.2526C82.7782 54.4005 81.9935 53.5322 81.3679 53.5996C80.7423 53.667 80.3378 53.659 80.3351 53.659H80.2407L77.8327 59.9338L77.9002 59.9958C78.6029 60.5619 79.4843 60.8592 80.3864 60.8344ZM81.4353 53.8585C82.0043 53.8585 82.9049 54.9829 83.2474 55.4117C83.3256 55.5088 83.4065 55.6004 83.4874 55.6813C83.9107 56.1586 84.2451 56.5361 83.9053 57.5689C83.5656 58.6017 82.4842 60.438 80.6938 60.554C79.7893 60.6349 78.8864 60.3837 78.1536 59.8475L80.4268 53.9151C80.5859 53.9151 80.9391 53.8989 81.3949 53.8531L81.4353 53.8585Z" fill="#263238"/>
<path d="M72.4462 48.854C72.4462 48.854 73.4331 48.7299 75.5283 49.9029C77.6235 51.0759 82.1213 54.7081 82.4314 55.3256C82.7415 55.9431 81.876 58.7152 80.7677 59.2086C80.1074 59.5031 79.3623 59.5462 78.6725 59.33L80.889 65.8636C80.889 65.8636 78.4244 65.7396 74.296 66.4811C70.1677 67.2227 65.9098 69.3152 65.9098 69.3152C65.9098 69.3152 65.5997 69.2532 65.5377 68.4523C65.4948 67.869 65.3274 67.3017 65.047 66.7885C64.8609 66.4191 62.5203 58.4671 62.5203 58.4671C62.5203 58.4671 57.8958 60.503 56.6635 60.503C55.4312 60.503 54.9997 58.2837 55.4932 56.62C55.9866 54.9562 57.0329 54.4627 57.0329 54.4627C57.9739 54.1492 58.8508 53.6687 59.6215 53.0444C60.7945 52.0601 64.2434 50.3937 64.2434 50.3937C64.2434 50.3937 69.1807 48.3012 72.4462 48.854Z" fill="#71389A"/>
<path d="M65.9376 69.4559L65.9808 69.437C66.0212 69.4154 70.2629 67.3418 74.3265 66.6138C78.3902 65.8857 80.8656 65.9989 80.8899 65.9989H81.0867L78.8864 59.5273C79.5384 59.6671 80.2179 59.5973 80.8278 59.3277C81.6368 58.9718 82.1761 57.637 82.3082 57.2352C82.5455 56.5719 82.7532 55.6578 82.5563 55.2641C82.2273 54.6034 77.6729 50.9496 75.5993 49.7821C73.6335 48.6819 72.6331 48.7034 72.4578 48.7169C69.1923 48.1776 64.406 50.1838 64.2038 50.2674C64.0555 50.3402 60.7172 51.9528 59.5469 52.9397C58.7894 53.5504 57.9293 54.0216 57.0068 54.3311C56.942 54.358 55.8796 54.8704 55.3754 56.58C55.0032 57.8339 55.1515 59.352 55.7178 60.1124C55.8237 60.27 55.966 60.3998 56.1326 60.4908C56.2992 60.5819 56.4853 60.6315 56.6751 60.6356C57.8157 60.6356 61.6448 58.9988 62.4456 58.6509C62.7746 59.77 64.762 66.4951 64.9372 66.8457C65.21 67.3449 65.3736 67.8964 65.4172 68.4636C65.4819 69.3238 65.8244 69.4343 65.8945 69.4478L65.9376 69.4559ZM80.4773 65.7239C78.3959 65.7531 76.3209 65.9615 74.2753 66.3468C70.4408 67.0344 66.4554 68.9085 65.9161 69.1647C65.8567 69.1161 65.7192 68.9516 65.6788 68.442C65.6355 67.8413 65.4626 67.2571 65.1718 66.7297C65.0262 66.4331 63.3058 60.6383 62.6533 58.4298L62.6101 58.2842L62.4699 58.3462C62.4241 58.3651 57.8616 60.3686 56.6697 60.3686C56.5217 60.3648 56.3768 60.3251 56.2476 60.2527C56.1183 60.1803 56.0087 60.0776 55.9282 59.9533C55.4077 59.2549 55.2783 57.8393 55.6288 56.6582C56.098 55.0699 57.0877 54.59 57.0984 54.5846C58.0496 54.2703 58.9358 53.7861 59.7141 53.1554C60.8574 52.19 64.2712 50.5398 64.2982 50.5209C64.3251 50.502 69.222 48.45 72.4147 48.992H72.4336H72.4524C72.4713 48.992 73.4448 48.903 75.4537 50.022C77.5839 51.2139 82.0197 54.8272 82.3002 55.3881C82.4053 55.5985 82.3487 56.2861 82.0305 57.1517C81.6746 58.1359 81.1649 58.8801 80.6822 59.0878C80.0542 59.3664 79.3467 59.4095 78.6895 59.2091L78.4199 59.1093L80.6688 65.7266L80.4773 65.7239Z" fill="#263238"/>
<path d="M61.9011 58.7539L64.9023 58.0421L64.8376 57.7805L63.155 58.1796L64.3954 57.2817L64.2363 57.0632L61.9011 58.7539Z" fill="#263238"/>
<path d="M76.3954 51.7664L76.7158 52.7681L76.459 52.8502L76.1386 51.8486L76.3954 51.7664Z" fill="#263238"/>
<path d="M77.0243 53.7329L78.7998 59.283L78.543 59.3651L76.7674 53.815L77.0243 53.7329Z" fill="#263238"/>
</svg>
