<svg width="302" height="245" viewBox="0 0 302 245" fill="none" xmlns="http://www.w3.org/2000/svg">
<path d="M47.9297 179.064L48.0071 34.9904C48.0071 33.9307 48.2159 32.8814 48.6216 31.9025C49.0273 30.9236 49.6219 30.0342 50.3714 29.2852C51.121 28.5362 52.0108 27.9422 52.99 27.5372C53.9692 27.1322 55.0186 26.9241 56.0782 26.9248L269.859 27.0354C271.996 27.0369 274.045 27.8856 275.557 29.3955C277.069 30.9054 277.921 32.9532 277.925 35.0899L277.848 179.169C277.848 180.229 277.639 181.278 277.233 182.257C276.827 183.236 276.233 184.125 275.483 184.874C274.734 185.623 273.844 186.217 272.865 186.622C271.886 187.027 270.836 187.235 269.777 187.234L55.9952 187.118C53.858 187.118 51.8082 186.27 50.2959 184.76C48.7837 183.25 47.9326 181.201 47.9297 179.064Z" fill="#263238"/>
<path d="M261.96 181.895L262.039 31.7861L70.0315 31.6856L69.9529 181.794L261.96 181.895Z" fill="white"/>
<path d="M59.5154 113.179C58.2999 113.178 57.1119 112.816 56.1019 112.14C55.0918 111.464 54.3049 110.503 53.8407 109.38C53.3766 108.256 53.256 107.02 53.4942 105.828C53.7324 104.636 54.3187 103.542 55.179 102.683C56.0393 101.824 57.135 101.24 58.3274 101.004C59.5198 100.768 60.7554 100.89 61.878 101.357C63.0006 101.823 63.9598 102.611 64.6342 103.623C65.3086 104.634 65.668 105.823 65.6669 107.038C65.6662 107.845 65.5065 108.644 65.197 109.39C64.8874 110.135 64.4341 110.812 63.8629 111.382C63.2917 111.953 62.6138 112.405 61.8678 112.713C61.1219 113.021 60.3225 113.179 59.5154 113.179Z" fill="#455A64"/>
<path d="M271.256 130.597L271.281 83.6915C271.281 83.3188 270.979 83.0164 270.606 83.0162L269.417 83.0156C269.044 83.0154 268.742 83.3175 268.742 83.6902L268.717 130.595C268.717 130.968 269.019 131.27 269.392 131.271L270.581 131.271C270.954 131.271 271.256 130.969 271.256 130.597Z" fill="#455A64"/>
<path d="M195.479 70.0127H69.6328V81.7846H195.479V70.0127Z" fill="#E0E0E0"/>
<path d="M195.479 46.8174H69.6328V70.0127H195.479V46.8174Z" fill="#F5F5F5"/>
<path d="M86.2969 77.7343L86.5513 77.1811C86.9294 77.4651 87.3896 77.6185 87.8624 77.6181C88.482 77.6181 88.7475 77.3968 88.7475 77.1037C88.7475 76.2462 86.3799 76.8049 86.3799 75.3279C86.3799 74.6862 86.8943 74.1441 87.9841 74.1441C88.4495 74.1344 88.908 74.2572 89.3063 74.4981L89.0739 75.0513C88.7388 74.8524 88.3572 74.7456 87.9675 74.7415C87.3535 74.7415 87.1045 74.9794 87.1045 75.2947C87.1045 76.1411 89.4611 75.5934 89.4611 77.0539C89.4611 77.69 88.9467 78.2322 87.8514 78.2322C87.2928 78.2402 86.7469 78.0653 86.2969 77.7343Z" fill="#263238"/>
<path d="M105.104 78.1571V75.5239L103.793 77.6869H103.467L102.156 75.5405V78.1405H101.453V74.1631H102.078L103.655 76.8018L105.209 74.1631H105.818V78.1405L105.104 78.1571Z" fill="#263238"/>
<path d="M117.684 74.8028H116.367V74.1777H119.742V74.8028H118.425V78.1552H117.684V74.8028Z" fill="#263238"/>
<path d="M148.278 74.8028H146.961V74.1777H150.335V74.8028H149.013V78.1552H148.278V74.8028Z" fill="#263238"/>
<path d="M163.163 74.7983V76.0264H165.083V76.6515H163.163V78.1728H162.422V74.1953H165.326V74.8149L163.163 74.7983Z" fill="#263238"/>
<path d="M178.062 77.7343L178.317 77.1811C178.695 77.4651 179.155 77.6185 179.628 77.6181C180.248 77.6181 180.508 77.3968 180.508 77.1037C180.508 76.2462 178.145 76.8049 178.145 75.3279C178.145 74.6862 178.66 74.1441 179.75 74.1441C180.215 74.1344 180.674 74.2572 181.072 74.4981L180.84 75.0513C180.504 74.8524 180.123 74.7456 179.733 74.7415C179.119 74.7415 178.87 74.9794 178.87 75.2947C178.87 76.1411 181.227 75.5934 181.227 77.0539C181.227 77.69 180.707 78.2322 179.617 78.2322C179.058 78.2402 178.512 78.0653 178.062 77.7343Z" fill="#263238"/>
<path d="M206.979 68.165H199.544C198.389 68.165 197.453 69.1012 197.453 70.2561V98.0208C197.453 99.1757 198.389 100.112 199.544 100.112H206.979C208.134 100.112 209.07 99.1757 209.07 98.0208V70.2561C209.07 69.1012 208.134 68.165 206.979 68.165Z" fill="#EBEBEB"/>
<path d="M201.823 71.5293V75.5068H201.099V72.1544H200.258V71.5348L201.823 71.5293Z" fill="#263238"/>
<path d="M205.43 74.3112C205.43 74.9806 204.921 75.5614 203.853 75.5614C203.319 75.5703 202.796 75.4096 202.359 75.1023L202.68 74.5491C203.011 74.8084 203.421 74.947 203.842 74.9418C204.395 74.9418 204.683 74.7095 204.683 74.3389C204.683 73.9682 204.423 73.747 203.82 73.747H203.46V73.2435L204.362 72.1704H202.553V71.5508H205.264V72.0431L204.296 73.1938C204.444 73.19 204.592 73.2163 204.73 73.2709C204.868 73.3255 204.994 73.4074 205.1 73.5117C205.206 73.616 205.289 73.7406 205.346 73.8779C205.403 74.0153 205.431 74.1626 205.43 74.3112Z" fill="#263238"/>
<path d="M137.995 74.1777L136.678 78.1552H135.893L134.908 75.2122L133.907 78.1552H133.121L131.805 74.1777H132.568L133.558 77.1982L134.587 74.1777H135.273L136.28 77.2203L137.298 74.1777H137.995Z" fill="#263238"/>
<path d="M134.975 132.502C138.776 132.502 141.857 129.421 141.857 125.62C141.857 121.819 138.776 118.738 134.975 118.738C131.175 118.738 128.094 121.819 128.094 125.62C128.094 129.421 131.175 132.502 134.975 132.502Z" fill="#71389A"/>
<path d="M89.163 147.117C92.9636 147.117 96.0447 144.036 96.0447 140.235C96.0447 136.435 92.9636 133.354 89.163 133.354C85.3623 133.354 82.2812 136.435 82.2812 140.235C82.2812 144.036 85.3623 147.117 89.163 147.117Z" fill="#455A64"/>
<path d="M150.616 163.464C154.417 163.464 157.498 160.383 157.498 156.582C157.498 152.781 154.417 149.7 150.616 149.7C146.815 149.7 143.734 152.781 143.734 156.582C143.734 160.383 146.815 163.464 150.616 163.464Z" fill="#71389A"/>
<path d="M164.551 92.0693V96.0413H163.81V92.6889H162.969V92.0693H164.551Z" fill="#263238"/>
<path d="M181.634 95.3886V96.0082H178.702V95.5158L180.278 94.0167C180.666 93.646 180.732 93.4137 180.732 93.1924C180.732 92.8273 180.483 92.6392 179.996 92.6392C179.819 92.628 179.641 92.6599 179.478 92.7322C179.315 92.8044 179.172 92.9148 179.061 93.0541L178.547 92.6558C178.731 92.4367 178.963 92.2633 179.225 92.149C179.487 92.0348 179.772 91.9829 180.057 91.9975C180.92 91.9975 181.479 92.4345 181.479 93.1426C181.473 93.3884 181.41 93.6294 181.296 93.8472C181.182 94.0649 181.019 94.2535 180.82 94.3984L179.758 95.3886H181.634Z" fill="#263238"/>
<path d="M89.9475 109.717C89.9475 110.386 89.4441 110.967 88.3764 110.967C87.8413 110.979 87.3169 110.816 86.8828 110.502L87.1981 109.949C87.5316 110.208 87.9435 110.344 88.3654 110.336C88.8909 110.336 89.2062 110.104 89.2062 109.739C89.2062 109.374 88.9407 109.147 88.3377 109.147H87.9781V108.638L88.8798 107.565H87.0709V106.945H89.7815V107.443L88.7969 108.572C88.9479 108.57 89.0977 108.599 89.2376 108.656C89.3775 108.713 89.5047 108.797 89.6118 108.903C89.7189 109.01 89.8037 109.137 89.8613 109.276C89.9189 109.416 89.9482 109.566 89.9475 109.717Z" fill="#263238"/>
<path d="M105.601 110.003H104.899V110.905H104.18V110.003H102V109.495L103.958 106.928H104.749L102.902 109.378H104.202V108.576H104.899V109.378H105.601V110.003Z" fill="#263238"/>
<path d="M119.812 109.684C119.812 110.386 119.303 110.967 118.236 110.967C117.701 110.979 117.176 110.816 116.742 110.502L117.052 109.949C117.389 110.205 117.802 110.341 118.225 110.336C118.75 110.336 119.066 110.104 119.066 109.733C119.066 109.363 118.822 109.114 117.998 109.114H117.035L117.24 106.945H119.575V107.559H117.865L117.782 108.483H118.164C119.337 108.472 119.812 108.981 119.812 109.684Z" fill="#263238"/>
<path d="M135.816 109.671C135.812 109.853 135.771 110.033 135.695 110.198C135.618 110.364 135.509 110.512 135.373 110.634C135.237 110.755 135.077 110.847 134.904 110.904C134.731 110.961 134.548 110.982 134.367 110.965C133.26 110.965 132.641 110.263 132.641 108.985C132.641 107.624 133.437 106.872 134.593 106.872C134.958 106.862 135.319 106.95 135.639 107.126L135.362 107.68C135.136 107.542 134.874 107.474 134.61 107.486C133.858 107.486 133.387 107.951 133.387 108.858C133.523 108.715 133.689 108.604 133.872 108.532C134.056 108.46 134.253 108.43 134.45 108.443C134.622 108.425 134.796 108.444 134.96 108.497C135.125 108.551 135.276 108.638 135.405 108.754C135.534 108.87 135.637 109.011 135.708 109.169C135.778 109.327 135.815 109.498 135.816 109.671ZM135.102 109.71C135.102 109.295 134.793 109.029 134.306 109.029C134.207 109.019 134.107 109.028 134.013 109.057C133.918 109.086 133.83 109.135 133.754 109.199C133.679 109.263 133.617 109.342 133.573 109.431C133.529 109.519 133.504 109.616 133.498 109.715C133.498 110.086 133.797 110.385 134.322 110.385C134.417 110.394 134.512 110.383 134.603 110.354C134.693 110.324 134.776 110.276 134.847 110.213C134.918 110.149 134.974 110.072 135.014 109.985C135.053 109.899 135.074 109.805 135.075 109.71H135.102Z" fill="#263238"/>
<path d="M150.358 106.928V107.426L148.809 110.905H148.023L149.517 107.553H147.952V108.233H147.266V106.928H150.358Z" fill="#263238"/>
<path d="M165.69 109.772C165.69 110.508 165.049 110.973 164.059 110.973C163.068 110.973 162.438 110.508 162.438 109.772C162.434 109.567 162.493 109.367 162.606 109.196C162.72 109.026 162.883 108.895 163.074 108.821C162.921 108.742 162.794 108.622 162.707 108.474C162.62 108.326 162.576 108.157 162.582 107.985C162.582 107.305 163.179 106.879 164.059 106.879C164.938 106.879 165.547 107.305 165.547 107.985C165.551 108.158 165.506 108.328 165.417 108.476C165.328 108.624 165.198 108.744 165.043 108.821C165.235 108.895 165.4 109.025 165.515 109.195C165.631 109.365 165.692 109.567 165.69 109.772ZM164.944 109.772C164.944 109.379 164.601 109.136 164.059 109.136C163.516 109.136 163.184 109.379 163.184 109.772C163.184 110.165 163.511 110.414 164.059 110.414C164.606 110.414 164.922 110.148 164.922 109.772H164.944ZM163.284 108.046C163.284 108.384 163.572 108.599 164.036 108.599C164.501 108.599 164.8 108.384 164.8 108.046C164.8 107.709 164.49 107.493 164.036 107.493C163.583 107.493 163.284 107.659 163.284 108.018V108.046Z" fill="#263238"/>
<path d="M181.027 108.852C181.027 110.213 180.236 110.965 179.08 110.965C178.714 110.977 178.352 110.887 178.034 110.705L178.311 110.152C178.537 110.288 178.799 110.355 179.063 110.346C179.815 110.346 180.286 109.876 180.286 108.974C180.149 109.116 179.983 109.226 179.8 109.298C179.617 109.37 179.42 109.401 179.223 109.389C179.051 109.406 178.878 109.388 178.713 109.335C178.549 109.282 178.397 109.195 178.268 109.08C178.139 108.965 178.035 108.824 177.964 108.667C177.892 108.51 177.854 108.339 177.852 108.166C177.856 107.984 177.898 107.804 177.975 107.639C178.052 107.474 178.162 107.326 178.298 107.205C178.435 107.084 178.595 106.993 178.768 106.936C178.942 106.88 179.125 106.86 179.306 106.877C180.391 106.872 181.027 107.558 181.027 108.852ZM180.169 108.111C180.169 107.735 179.876 107.441 179.345 107.441C179.249 107.429 179.151 107.437 179.058 107.465C178.965 107.493 178.879 107.541 178.806 107.605C178.733 107.668 178.674 107.747 178.633 107.835C178.593 107.923 178.571 108.019 178.571 108.116C178.571 108.531 178.88 108.791 179.367 108.791C179.465 108.803 179.565 108.794 179.659 108.765C179.753 108.737 179.841 108.689 179.916 108.625C179.992 108.562 180.053 108.483 180.096 108.394C180.14 108.306 180.165 108.209 180.169 108.111Z" fill="#263238"/>
<path d="M88.2384 123.784V127.762H87.4971V124.404H86.6562V123.784H88.2384Z" fill="#263238"/>
<path d="M89.0234 125.774C89.0234 124.469 89.7426 123.728 90.683 123.728C91.6234 123.728 92.3426 124.469 92.3426 125.774C92.3426 127.08 91.629 127.816 90.683 127.816C89.7371 127.816 89.0234 127.08 89.0234 125.774ZM91.6069 125.774C91.6069 124.812 91.2307 124.369 90.683 124.369C90.1354 124.369 89.7703 124.812 89.7703 125.774C89.7703 126.737 90.1464 127.174 90.683 127.174C91.2196 127.174 91.6069 126.731 91.6069 125.774Z" fill="#263238"/>
<path d="M104.174 123.784V127.762H103.438V124.404H102.625V123.784H104.174Z" fill="#263238"/>
<path d="M106.34 123.784V127.762H105.599V124.404H104.758V123.784H106.34Z" fill="#263238"/>
<path d="M118.725 123.784V127.762H117.989V124.404H117.148V123.784H118.725Z" fill="#263238"/>
<path d="M122.386 127.135V127.761H119.46V127.268L121.036 125.769C121.423 125.398 121.49 125.166 121.49 124.945C121.49 124.58 121.241 124.392 120.754 124.392C120.576 124.38 120.399 124.412 120.236 124.485C120.073 124.557 119.93 124.667 119.819 124.806L119.305 124.408C119.487 124.188 119.719 124.014 119.982 123.9C120.244 123.785 120.529 123.734 120.815 123.75C121.678 123.75 122.237 124.187 122.237 124.895C122.23 125.14 122.167 125.38 122.053 125.597C121.939 125.814 121.776 126.001 121.578 126.145L120.516 127.158L122.386 127.135Z" fill="#263238"/>
<path d="M133.842 123.784V127.762H133.106V124.404H132.266V123.784H133.842Z" fill="white"/>
<path d="M137.479 126.571C137.479 127.241 136.975 127.816 135.908 127.816C135.373 127.829 134.849 127.668 134.414 127.357L134.729 126.804C135.063 127.062 135.475 127.199 135.897 127.191C136.422 127.191 136.737 126.959 136.737 126.593C136.737 126.228 136.472 126.002 135.869 126.002H135.509V125.493L136.411 124.419H134.602V123.8H137.313V124.298L136.35 125.443C136.649 125.446 136.934 125.565 137.145 125.777C137.356 125.988 137.476 126.273 137.479 126.571Z" fill="white"/>
<path d="M148.686 123.784V127.762H147.95V124.404H147.109V123.784H148.686Z" fill="#263238"/>
<path d="M153.023 126.859H152.315V127.761H151.601V126.859H149.422V126.367L151.38 123.8H152.171L150.324 126.25H151.624V125.448H152.315V126.25H153.023V126.859Z" fill="#263238"/>
<path d="M164.077 123.784V127.762H163.341V124.404H162.5V123.784H164.077Z" fill="#263238"/>
<path d="M167.76 126.538C167.76 127.241 167.257 127.816 166.189 127.816C165.654 127.829 165.13 127.668 164.695 127.357L165.005 126.804C165.342 127.06 165.755 127.196 166.178 127.191C166.703 127.191 167.019 126.959 167.019 126.588C167.019 126.217 166.775 125.968 165.951 125.968H164.989L165.193 123.8H167.528V124.419H165.818L165.735 125.343H166.117C167.29 125.327 167.76 125.813 167.76 126.538Z" fill="#263238"/>
<path d="M179.074 123.784V127.762H178.333V124.404H177.492V123.784H179.074Z" fill="#263238"/>
<path d="M183.04 126.527C183.036 126.71 182.994 126.889 182.917 127.055C182.84 127.22 182.73 127.368 182.593 127.489C182.457 127.61 182.297 127.701 182.123 127.757C181.95 127.814 181.767 127.834 181.585 127.816C180.479 127.816 179.859 127.119 179.859 125.841C179.859 124.481 180.656 123.728 181.812 123.728C182.177 123.718 182.538 123.806 182.858 123.983L182.581 124.536C182.355 124.398 182.093 124.331 181.829 124.342C181.076 124.342 180.606 124.807 180.606 125.709C180.742 125.566 180.908 125.455 181.091 125.383C181.275 125.311 181.472 125.281 181.668 125.294C181.841 125.276 182.016 125.295 182.181 125.349C182.346 125.402 182.499 125.49 182.628 125.606C182.757 125.723 182.861 125.865 182.932 126.023C183.003 126.182 183.04 126.354 183.04 126.527ZM182.321 126.561C182.321 126.151 182.011 125.886 181.524 125.886C181.426 125.875 181.327 125.885 181.232 125.914C181.138 125.943 181.05 125.991 180.975 126.055C180.9 126.12 180.839 126.199 180.795 126.287C180.752 126.376 180.727 126.473 180.722 126.572C180.722 126.942 181.016 127.241 181.541 127.241C181.638 127.254 181.737 127.245 181.83 127.217C181.924 127.189 182.01 127.141 182.084 127.076C182.158 127.012 182.217 126.933 182.258 126.844C182.299 126.755 182.32 126.658 182.321 126.561Z" fill="#263238"/>
<path d="M88.2384 138.675V142.652H87.4971V139.294H86.6562V138.675H88.2384Z" fill="white"/>
<path d="M92.0165 138.675V139.167L90.4731 142.652H89.682L91.1756 139.3H89.6157V139.975H88.9297V138.675H92.0165Z" fill="white"/>
<path d="M103.332 138.675V142.652H102.591V139.294H101.75V138.675H103.332Z" fill="#263238"/>
<path d="M107.347 141.508C107.347 142.249 106.705 142.708 105.715 142.708C104.724 142.708 104.094 142.249 104.094 141.508C104.091 141.304 104.15 141.104 104.264 140.935C104.378 140.766 104.54 140.636 104.73 140.562C104.578 140.482 104.452 140.362 104.365 140.214C104.278 140.067 104.234 139.898 104.238 139.727C104.238 139.046 104.835 138.62 105.715 138.62C106.594 138.62 107.203 139.052 107.203 139.727C107.206 139.899 107.16 140.069 107.071 140.217C106.982 140.364 106.853 140.484 106.699 140.562C106.892 140.634 107.057 140.763 107.173 140.932C107.289 141.102 107.349 141.303 107.347 141.508ZM106.6 141.508C106.6 141.115 106.262 140.872 105.715 140.872C105.167 140.872 104.841 141.115 104.841 141.508C104.841 141.901 105.173 142.149 105.715 142.149C106.257 142.149 106.6 141.889 106.6 141.486V141.508ZM104.968 139.782C104.968 140.119 105.25 140.335 105.715 140.335C106.179 140.335 106.478 140.114 106.478 139.782C106.478 139.45 106.168 139.229 105.715 139.229C105.261 139.229 104.968 139.4 104.968 139.76V139.782Z" fill="#263238"/>
<path d="M118.629 138.675V142.652H117.888V139.294H117.047V138.675H118.629Z" fill="#263238"/>
<path d="M122.48 140.596C122.48 141.956 121.683 142.709 120.533 142.709C120.168 142.72 119.807 142.632 119.487 142.454L119.758 141.901C119.984 142.039 120.246 142.106 120.511 142.095C121.263 142.095 121.733 141.63 121.733 140.723C121.597 140.866 121.432 140.977 121.248 141.048C121.065 141.12 120.868 141.151 120.671 141.138C120.5 141.155 120.327 141.137 120.163 141.084C119.999 141.031 119.848 140.945 119.72 140.83C119.591 140.716 119.488 140.576 119.416 140.419C119.345 140.263 119.307 140.093 119.305 139.921C119.308 139.738 119.35 139.558 119.426 139.392C119.503 139.226 119.613 139.077 119.75 138.956C119.886 138.834 120.046 138.742 120.22 138.686C120.394 138.629 120.578 138.609 120.76 138.626C121.844 138.615 122.48 139.318 122.48 140.596ZM121.623 139.865C121.623 139.495 121.324 139.196 120.798 139.196C120.702 139.184 120.604 139.192 120.51 139.22C120.417 139.248 120.331 139.295 120.257 139.359C120.184 139.423 120.124 139.501 120.083 139.589C120.042 139.678 120.02 139.774 120.018 139.871C120.018 140.286 120.334 140.551 120.815 140.551C120.913 140.562 121.013 140.553 121.108 140.523C121.203 140.494 121.291 140.446 121.366 140.382C121.442 140.318 121.503 140.239 121.548 140.15C121.592 140.061 121.617 139.964 121.623 139.865Z" fill="#263238"/>
<path d="M134.652 142.028V142.653H131.72V142.155L133.302 140.656C133.689 140.285 133.755 140.053 133.755 139.832C133.755 139.467 133.507 139.279 133.02 139.279C132.842 139.267 132.664 139.299 132.501 139.372C132.339 139.444 132.196 139.554 132.085 139.693L131.57 139.295C131.753 139.074 131.984 138.899 132.247 138.784C132.509 138.669 132.794 138.617 133.081 138.631C133.944 138.631 134.502 139.074 134.502 139.776C134.496 140.022 134.433 140.263 134.319 140.481C134.205 140.699 134.043 140.887 133.844 141.032L132.776 142.045L134.652 142.028Z" fill="#263238"/>
<path d="M135.062 140.661C135.062 139.356 135.776 138.614 136.722 138.614C137.668 138.614 138.382 139.356 138.382 140.661C138.382 141.967 137.663 142.708 136.722 142.708C135.782 142.708 135.062 141.967 135.062 140.661ZM137.64 140.661C137.64 139.704 137.27 139.261 136.722 139.261C136.174 139.261 135.809 139.704 135.809 140.661C135.809 141.618 136.18 142.066 136.722 142.066C137.264 142.066 137.64 141.624 137.64 140.661Z" fill="#263238"/>
<path d="M150.698 142.028V142.653H147.772V142.155L149.349 140.656C149.736 140.285 149.802 140.053 149.802 139.832C149.802 139.467 149.553 139.279 149.067 139.279C148.889 139.267 148.711 139.299 148.548 139.372C148.386 139.444 148.243 139.554 148.132 139.693L147.617 139.295C147.8 139.074 148.031 138.899 148.294 138.784C148.556 138.669 148.841 138.617 149.127 138.631C149.99 138.631 150.549 139.074 150.549 139.776C150.543 140.022 150.48 140.263 150.366 140.481C150.252 140.699 150.089 140.887 149.891 141.032L148.829 142.045L150.698 142.028Z" fill="#263238"/>
<path d="M152.504 138.675V142.652H151.763V139.294H150.922V138.675H152.504Z" fill="#263238"/>
<path d="M165.355 142.028V142.653H162.423V142.155L164.005 140.656C164.392 140.285 164.459 140.053 164.459 139.832C164.459 139.467 164.21 139.279 163.717 139.279C163.54 139.268 163.364 139.301 163.202 139.373C163.04 139.445 162.898 139.555 162.788 139.693L162.273 139.295C162.456 139.074 162.688 138.899 162.95 138.784C163.212 138.669 163.498 138.617 163.784 138.631C164.647 138.631 165.2 139.074 165.2 139.776C165.195 140.022 165.133 140.264 165.019 140.482C164.904 140.7 164.741 140.888 164.542 141.032L163.479 142.028H165.355Z" fill="#263238"/>
<path d="M168.665 142.028V142.653H165.733V142.155L167.31 140.656C167.697 140.285 167.763 140.053 167.763 139.832C167.763 139.467 167.514 139.279 167.027 139.279C166.85 139.267 166.672 139.299 166.509 139.372C166.346 139.444 166.204 139.554 166.093 139.693L165.578 139.295C165.761 139.074 165.992 138.899 166.255 138.784C166.517 138.669 166.802 138.617 167.088 138.631C167.951 138.631 168.51 139.074 168.51 139.776C168.504 140.022 168.441 140.263 168.327 140.481C168.213 140.699 168.05 140.887 167.852 141.032L166.801 142.028H168.665Z" fill="#263238"/>
<path d="M180.579 142.028V142.653H177.647V142.155L179.229 140.656C179.611 140.285 179.683 140.053 179.683 139.832C179.683 139.467 179.434 139.279 178.942 139.279C178.765 139.268 178.588 139.301 178.426 139.373C178.265 139.445 178.123 139.555 178.012 139.693L177.492 139.295C177.676 139.074 177.908 138.899 178.172 138.784C178.435 138.669 178.721 138.617 179.008 138.631C179.871 138.631 180.424 139.074 180.424 139.776C180.419 140.022 180.357 140.264 180.243 140.482C180.129 140.7 179.965 140.888 179.766 141.032L178.704 142.045L180.579 142.028Z" fill="#263238"/>
<path d="M183.823 141.458C183.823 142.127 183.319 142.708 182.251 142.708C181.717 142.719 181.194 142.558 180.758 142.249L181.073 141.696C181.406 141.955 181.818 142.093 182.24 142.088C182.766 142.088 183.081 141.856 183.081 141.485C183.081 141.115 182.816 140.893 182.218 140.893H181.853V140.39L182.755 139.317H180.951V138.697H183.657V139.19L182.694 140.34C182.842 140.337 182.989 140.364 183.127 140.419C183.264 140.474 183.389 140.556 183.495 140.66C183.6 140.764 183.683 140.889 183.739 141.026C183.796 141.163 183.824 141.31 183.823 141.458Z" fill="#263238"/>
<path d="M89.7353 158.325V158.95H86.8033V158.453L88.3799 156.948C88.7672 156.583 88.8391 156.35 88.8391 156.129C88.8391 155.764 88.5846 155.576 88.0978 155.576C87.921 155.566 87.7443 155.598 87.5826 155.67C87.4209 155.742 87.2788 155.852 87.1684 155.991L86.6484 155.593C86.8315 155.373 87.0634 155.199 87.3256 155.085C87.5878 154.97 87.8731 154.919 88.1587 154.934C89.0216 154.934 89.5804 155.371 89.5804 156.074C89.5759 156.32 89.514 156.562 89.3997 156.78C89.2855 156.998 89.1219 157.186 88.9221 157.33L87.8599 158.342L89.7353 158.325Z" fill="#263238"/>
<path d="M93.6169 158.047H92.9144V158.949H92.1952V158.047H90.0156V157.533L91.9739 154.972H92.765L90.9173 157.422H92.2173V156.62H92.9144V157.422H93.6169V158.047Z" fill="#263238"/>
<path d="M105.105 158.326V158.951H102.178V158.453L103.755 156.948C104.142 156.583 104.209 156.351 104.209 156.129C104.209 155.764 103.96 155.576 103.473 155.576C103.295 155.565 103.117 155.597 102.955 155.669C102.792 155.741 102.649 155.852 102.538 155.991L102.023 155.593C102.206 155.373 102.438 155.198 102.7 155.084C102.963 154.97 103.248 154.919 103.534 154.934C104.397 154.934 104.955 155.371 104.955 156.074C104.95 156.32 104.887 156.561 104.773 156.779C104.659 156.997 104.496 157.185 104.297 157.33L103.235 158.342L105.105 158.326Z" fill="#263238"/>
<path d="M108.422 157.728C108.422 158.425 107.918 159.006 106.851 159.006C106.315 159.016 105.79 158.855 105.352 158.547L105.667 157.993C106.001 158.252 106.412 158.39 106.834 158.386C107.387 158.386 107.675 158.154 107.675 157.778C107.675 157.402 107.432 157.158 106.607 157.158H105.65L105.855 154.995H108.189V155.615H106.497L106.408 156.533H106.79C107.952 156.511 108.422 157.025 108.422 157.728Z" fill="#263238"/>
<path d="M120.142 158.326V158.951H117.21V158.453L118.786 156.948C119.173 156.583 119.24 156.351 119.24 156.129C119.24 155.764 118.991 155.576 118.504 155.576C118.326 155.565 118.149 155.597 117.986 155.669C117.823 155.741 117.68 155.852 117.569 155.991L117.055 155.593C117.237 155.373 117.469 155.198 117.732 155.084C117.994 154.97 118.279 154.919 118.565 154.934C119.428 154.934 119.987 155.371 119.987 156.074C119.981 156.32 119.918 156.561 119.804 156.779C119.69 156.997 119.527 157.185 119.328 157.33L118.266 158.342L120.142 158.326Z" fill="#263238"/>
<path d="M123.714 157.715C123.711 157.898 123.669 158.078 123.593 158.244C123.516 158.409 123.406 158.557 123.269 158.679C123.133 158.8 122.972 158.891 122.798 158.947C122.625 159.003 122.441 159.023 122.259 159.004C121.153 159.004 120.539 158.307 120.539 157.029C120.539 155.663 121.336 154.916 122.492 154.916C122.855 154.903 123.215 154.992 123.532 155.171L123.261 155.724C123.035 155.586 122.773 155.519 122.508 155.53C121.756 155.53 121.286 155.995 121.286 156.897C121.422 156.755 121.588 156.644 121.771 156.573C121.955 156.501 122.151 156.47 122.348 156.482C122.52 156.465 122.695 156.484 122.859 156.538C123.024 156.593 123.175 156.681 123.304 156.797C123.432 156.913 123.535 157.054 123.606 157.213C123.677 157.371 123.714 157.542 123.714 157.715ZM123.001 157.749C123.001 157.334 122.685 157.074 122.204 157.074C122.106 157.062 122.006 157.071 121.912 157.099C121.817 157.128 121.729 157.176 121.653 157.239C121.578 157.303 121.516 157.382 121.472 157.47C121.427 157.559 121.402 157.655 121.397 157.754C121.397 158.13 121.695 158.424 122.221 158.424C122.317 158.436 122.415 158.428 122.509 158.4C122.602 158.372 122.688 158.324 122.762 158.261C122.835 158.197 122.895 158.118 122.936 158.03C122.977 157.942 122.999 157.846 123.001 157.749Z" fill="#263238"/>
<path d="M135.337 158.326V158.951H132.405V158.453L133.987 156.948C134.369 156.583 134.441 156.351 134.441 156.129C134.441 155.764 134.192 155.576 133.699 155.576C133.523 155.566 133.346 155.598 133.184 155.67C133.022 155.743 132.88 155.853 132.77 155.991L132.25 155.593C132.434 155.373 132.667 155.198 132.93 155.084C133.193 154.97 133.479 154.919 133.766 154.934C134.629 154.934 135.182 155.371 135.182 156.074C135.177 156.32 135.116 156.562 135.001 156.78C134.887 156.998 134.723 157.186 134.524 157.33L133.461 158.342L135.337 158.326Z" fill="#263238"/>
<path d="M138.741 154.972V155.464L137.197 158.949H136.406L137.9 155.597H136.334V156.272H135.648V154.972H138.741Z" fill="#263238"/>
<path d="M150.346 158.326V158.951H147.436V158.453L149.013 156.948C149.4 156.583 149.466 156.351 149.466 156.129C149.466 155.764 149.217 155.576 148.731 155.576C148.553 155.565 148.375 155.597 148.212 155.669C148.05 155.741 147.907 155.852 147.796 155.991L147.281 155.593C147.464 155.373 147.696 155.198 147.958 155.084C148.22 154.97 148.506 154.919 148.791 154.934C149.654 154.934 150.213 155.371 150.213 156.074C150.207 156.32 150.145 156.561 150.031 156.779C149.917 156.997 149.754 157.185 149.555 157.33L148.493 158.342L150.346 158.326Z" fill="white"/>
<path d="M154.003 157.805C154.003 158.546 153.361 159.005 152.371 159.005C151.381 159.005 150.75 158.546 150.75 157.805C150.747 157.601 150.806 157.401 150.919 157.232C151.033 157.062 151.196 156.932 151.386 156.859C151.234 156.78 151.107 156.66 151.02 156.512C150.933 156.364 150.889 156.195 150.894 156.023C150.894 155.343 151.491 154.917 152.371 154.917C153.251 154.917 153.859 155.343 153.859 156.023C153.863 156.197 153.817 156.367 153.727 156.516C153.637 156.664 153.506 156.783 153.35 156.859C153.543 156.93 153.709 157.059 153.826 157.229C153.943 157.398 154.004 157.599 154.003 157.805ZM153.256 157.805C153.256 157.417 152.913 157.168 152.371 157.168C151.829 157.168 151.497 157.417 151.497 157.805C151.497 158.192 151.823 158.446 152.371 158.446C152.919 158.446 153.256 158.186 153.256 157.783V157.805ZM151.597 156.079C151.597 156.422 151.884 156.632 152.349 156.632C152.814 156.632 153.107 156.416 153.107 156.079C153.107 155.741 152.803 155.526 152.349 155.526C151.895 155.526 151.619 155.686 151.619 156.057L151.597 156.079Z" fill="white"/>
<path d="M165.563 158.326V158.951H162.631V158.453L164.214 156.948C164.595 156.583 164.667 156.351 164.667 156.129C164.667 155.764 164.418 155.576 163.926 155.576C163.749 155.566 163.572 155.598 163.411 155.67C163.249 155.743 163.107 155.853 162.997 155.991L162.477 155.593C162.66 155.373 162.893 155.198 163.156 155.084C163.42 154.97 163.706 154.919 163.992 154.934C164.855 154.934 165.408 155.371 165.408 156.074C165.404 156.32 165.342 156.562 165.228 156.78C165.114 156.998 164.95 157.186 164.75 157.33L163.688 158.342L165.563 158.326Z" fill="#263238"/>
<path d="M169.05 156.892C169.05 158.259 168.259 159.006 167.103 159.006C166.738 159.019 166.376 158.931 166.058 158.751L166.329 158.198C166.557 158.336 166.82 158.403 167.086 158.392C167.839 158.392 168.309 157.927 168.309 157.025C168.173 157.167 168.007 157.278 167.824 157.349C167.64 157.421 167.443 157.452 167.247 157.44C167.075 157.458 166.901 157.439 166.737 157.386C166.572 157.333 166.421 157.246 166.292 157.131C166.162 157.016 166.059 156.876 165.987 156.718C165.915 156.561 165.877 156.39 165.875 156.218C165.879 156.035 165.92 155.855 165.997 155.689C166.073 155.524 166.183 155.375 166.32 155.254C166.457 155.133 166.617 155.042 166.791 154.986C166.965 154.93 167.148 154.91 167.33 154.929C168.414 154.918 169.05 155.615 169.05 156.892ZM168.193 156.168C168.193 155.792 167.9 155.493 167.369 155.493C167.272 155.481 167.174 155.49 167.081 155.519C166.988 155.548 166.902 155.596 166.829 155.66C166.756 155.724 166.697 155.803 166.657 155.891C166.616 155.98 166.595 156.076 166.594 156.173C166.594 156.588 166.904 156.848 167.391 156.848C167.489 156.86 167.588 156.851 167.682 156.822C167.777 156.794 167.864 156.746 167.94 156.682C168.015 156.618 168.076 156.54 168.12 156.451C168.163 156.363 168.188 156.266 168.193 156.168Z" fill="#263238"/>
<path d="M180.523 157.756C180.523 158.425 180.014 159.006 178.947 159.006C178.413 159.015 177.89 158.854 177.453 158.547L177.774 157.993C178.105 158.253 178.515 158.391 178.936 158.386C179.489 158.386 179.777 158.154 179.777 157.783C179.777 157.413 179.517 157.191 178.914 157.191H178.548V156.688L179.456 155.615H177.647V154.995H180.357V155.487L179.389 156.638C179.538 156.634 179.686 156.661 179.824 156.715C179.962 156.77 180.088 156.852 180.194 156.956C180.299 157.06 180.383 157.185 180.44 157.322C180.496 157.46 180.525 157.607 180.523 157.756Z" fill="#263238"/>
<path d="M181 156.964C181 155.653 181.714 154.917 182.66 154.917C183.606 154.917 184.319 155.653 184.319 156.964C184.319 158.275 183.6 159.005 182.66 159.005C181.719 159.005 181 158.269 181 156.964ZM183.578 156.964C183.578 156.001 183.202 155.559 182.66 155.559C182.117 155.559 181.741 156.001 181.741 156.964C181.741 157.926 182.117 158.363 182.66 158.363C183.202 158.363 183.578 157.899 183.578 156.964Z" fill="#263238"/>
<path d="M89.3852 62.7498C89.313 62.7503 89.2435 62.7225 89.1915 62.6724L86.1545 59.6354C86.1055 59.5839 86.0781 59.5156 86.0781 59.4445C86.0781 59.3734 86.1055 59.3051 86.1545 59.2537L89.1915 55.8349C89.2432 55.7842 89.3128 55.7559 89.3852 55.7559C89.4576 55.7559 89.5271 55.7842 89.5788 55.8349C89.6047 55.8606 89.6253 55.8912 89.6393 55.9249C89.6534 55.9586 89.6606 55.9948 89.6606 56.0313C89.6606 56.0678 89.6534 56.104 89.6393 56.1377C89.6253 56.1714 89.6047 56.202 89.5788 56.2277L86.7298 59.4307L89.5788 62.2852C89.6167 62.3238 89.6424 62.3727 89.6528 62.4259C89.6631 62.479 89.6577 62.534 89.637 62.5841C89.6164 62.6342 89.5816 62.6771 89.5368 62.7075C89.492 62.738 89.4393 62.7546 89.3852 62.7554V62.7498Z" fill="#263238"/>
<path d="M181.673 62.7495C181.639 62.7502 181.605 62.7442 181.574 62.7318C181.543 62.7195 181.514 62.7011 181.49 62.6776C181.464 62.6528 181.443 62.6228 181.428 62.5895C181.414 62.5562 181.406 62.5203 181.406 62.484C181.406 62.4477 181.414 62.4118 181.428 62.3785C181.443 62.3452 181.464 62.3152 181.49 62.2904L184.356 59.0708L181.501 56.2163C181.449 56.1642 181.42 56.0936 181.42 56.0199C181.42 55.9463 181.449 55.8756 181.501 55.8235C181.553 55.7714 181.624 55.7422 181.698 55.7422C181.771 55.7422 181.842 55.7714 181.894 55.8235L184.931 58.8606C184.978 58.9132 185.003 58.9811 185.003 59.0514C185.003 59.1217 184.978 59.1896 184.931 59.2423L181.888 62.6555C181.862 62.686 181.828 62.7103 181.791 62.7266C181.754 62.7428 181.713 62.7507 181.673 62.7495Z" fill="#263238"/>
<path d="M195.48 180.131C195.397 180.131 195.336 147.171 195.336 106.556C195.336 65.9406 195.397 32.9482 195.48 32.9482C195.563 32.9482 195.624 65.8964 195.624 106.556C195.624 147.216 195.563 180.131 195.48 180.131Z" fill="#263238"/>
<path d="M261.434 62.4681C261.434 62.551 246.846 62.6119 228.856 62.6119C210.867 62.6119 196.273 62.551 196.273 62.4681C196.273 62.3851 210.856 62.3242 228.856 62.3242C246.857 62.3242 261.434 62.3906 261.434 62.4681Z" fill="#263238"/>
<path d="M162.681 58.6175C162.681 58.7004 151.318 58.7613 137.3 58.7613C123.282 58.7613 111.914 58.7004 111.914 58.6175C111.914 58.5345 123.277 58.4736 137.3 58.4736C151.324 58.4736 162.681 58.54 162.681 58.6175Z" fill="#263238"/>
<path d="M262.028 31.627H69.6328V46.8121H262.028V31.627Z" fill="#71389A"/>
<path d="M158.5 39.2004C158.512 38.8691 158.621 38.5486 158.814 38.279C159.007 38.0095 159.276 37.8028 159.585 37.6848C159.895 37.5667 160.233 37.5426 160.557 37.6154C160.88 37.6882 161.175 37.8546 161.404 38.094L161.028 38.4481C160.923 38.3321 160.795 38.2395 160.652 38.1766C160.509 38.1137 160.355 38.0818 160.198 38.0829C159.905 38.0829 159.623 38.1995 159.416 38.407C159.208 38.6145 159.092 38.8959 159.092 39.1893C159.092 39.4828 159.208 39.7642 159.416 39.9717C159.623 40.1791 159.905 40.2957 160.198 40.2957C160.355 40.2962 160.51 40.2634 160.653 40.1995C160.796 40.1356 160.924 40.0421 161.028 39.9251L161.404 40.2847C161.175 40.524 160.88 40.6905 160.557 40.7633C160.233 40.8361 159.895 40.8119 159.585 40.6939C159.276 40.5759 159.007 40.3692 158.814 40.0996C158.621 39.8301 158.512 39.5096 158.5 39.1783V39.2004Z" fill="white"/>
<path d="M163.899 40.0698H162.339L162.029 40.789H161.438L162.837 37.6689H163.39L164.801 40.789H164.192L163.899 40.0698ZM163.706 39.6106L163.119 38.2498L162.533 39.6106H163.706Z" fill="white"/>
<path d="M165.211 37.6406H165.792V40.2683H167.424V40.7606H165.211V37.6406Z" fill="white"/>
<path d="M170.224 40.2738V40.7606H167.906V37.6406H170.18V38.1274H168.459V38.9628H169.97V39.4385H168.459V40.296L170.224 40.2738Z" fill="white"/>
<path d="M173.632 37.6406V40.7606H173.156L171.436 38.6474V40.7606H170.883V37.6406H171.359L173.079 39.7538V37.6406H173.632Z" fill="white"/>
<path d="M174.469 37.6403H175.835C176.051 37.6221 176.268 37.6489 176.473 37.7191C176.678 37.7892 176.867 37.9011 177.026 38.0477C177.186 38.1944 177.313 38.3725 177.4 38.5709C177.487 38.7693 177.532 38.9836 177.532 39.2003C177.532 39.417 177.487 39.6313 177.4 39.8297C177.313 40.0281 177.186 40.2062 177.026 40.3529C176.867 40.4995 176.678 40.6114 176.473 40.6815C176.268 40.7517 176.051 40.7785 175.835 40.7603H174.469V37.6403ZM175.807 40.268C176.091 40.268 176.362 40.1555 176.562 39.9553C176.763 39.755 176.875 39.4835 176.875 39.2003C176.875 38.9171 176.763 38.6456 176.562 38.4453C176.362 38.2451 176.091 38.1326 175.807 38.1326H175.05V40.268H175.807Z" fill="white"/>
<path d="M180.126 40.0698H178.566L178.262 40.789H177.664L179.069 37.6689H179.622L181.027 40.789H180.425L180.126 40.0698ZM179.938 39.6106L179.346 38.2498L178.765 39.6106H179.938Z" fill="white"/>
<path d="M183.486 40.7606L182.838 39.8479H182.014V40.7551H181.461V37.6406H182.744C183.563 37.6406 184.072 38.0611 184.072 38.747C184.081 38.9635 184.019 39.177 183.897 39.3555C183.774 39.5341 183.597 39.668 183.392 39.7372L184.105 40.7606H183.486ZM182.7 38.133H182.02V39.3721H182.7C183.209 39.3721 183.469 39.1453 183.469 38.7525C183.469 38.3598 183.209 38.133 182.7 38.133Z" fill="white"/>
<path d="M79.9874 39.2232C79.9874 39.4792 79.9115 39.7295 79.7692 39.9424C79.627 40.1552 79.4248 40.3211 79.1883 40.4191C78.9517 40.5171 78.6915 40.5427 78.4404 40.4928C78.1893 40.4428 77.9586 40.3195 77.7776 40.1385C77.5965 39.9575 77.4733 39.7268 77.4233 39.4757C77.3734 39.2246 77.399 38.9643 77.497 38.7278C77.5949 38.4913 77.7609 38.2891 77.9737 38.1469C78.1866 38.0046 78.4369 37.9287 78.6929 37.9287C79.0362 37.9287 79.3655 38.0651 79.6082 38.3079C79.851 38.5506 79.9874 38.8799 79.9874 39.2232Z" fill="white"/>
<path d="M83.5108 39.2232C83.5108 39.4792 83.4349 39.7295 83.2927 39.9424C83.1504 40.1552 82.9483 40.3211 82.7117 40.4191C82.4752 40.5171 82.2149 40.5427 81.9638 40.4928C81.7127 40.4428 81.4821 40.3195 81.301 40.1385C81.12 39.9575 80.9967 39.7268 80.9467 39.4757C80.8968 39.2246 80.9224 38.9643 81.0204 38.7278C81.1184 38.4913 81.2843 38.2891 81.4972 38.1469C81.7101 38.0046 81.9603 37.9287 82.2163 37.9287C82.3863 37.9287 82.5547 37.9622 82.7117 38.0272C82.8688 38.0923 83.0115 38.1877 83.1317 38.3079C83.2519 38.4281 83.3472 38.5708 83.4123 38.7278C83.4773 38.8849 83.5108 39.0532 83.5108 39.2232Z" fill="white"/>
<path d="M87.1358 39.2232C87.1358 39.4792 87.0599 39.7295 86.9177 39.9424C86.7754 40.1552 86.5733 40.3211 86.3367 40.4191C86.1002 40.5171 85.8399 40.5427 85.5888 40.4928C85.3377 40.4428 85.1071 40.3195 84.926 40.1385C84.745 39.9575 84.6217 39.7268 84.5717 39.4757C84.5218 39.2246 84.5474 38.9643 84.6454 38.7278C84.7434 38.4913 84.9093 38.2891 85.1222 38.1469C85.3351 38.0046 85.5853 37.9287 85.8413 37.9287C86.1847 37.9287 86.5139 38.0651 86.7567 38.3079C86.9994 38.5506 87.1358 38.8799 87.1358 39.2232Z" fill="white"/>
<path d="M242.981 55.3421C242.981 55.4195 236.653 55.4859 228.853 55.4859C221.053 55.4859 214.719 55.4195 214.719 55.3421C214.719 55.2646 221.042 55.1982 228.853 55.1982C236.664 55.1982 242.981 55.2591 242.981 55.3421Z" fill="#263238"/>
<path d="M206.629 77.4876C204.382 77.6867 202.122 77.6867 199.875 77.4876C202.122 77.2958 204.382 77.2958 206.629 77.4876Z" fill="#263238"/>
<path d="M255.961 68.165H214.3C212.503 68.165 211.047 69.6214 211.047 71.4178V96.8591C211.047 98.6556 212.503 100.112 214.3 100.112H255.961C257.757 100.112 259.213 98.6556 259.213 96.8591V71.4178C259.213 69.6214 257.757 68.165 255.961 68.165Z" fill="#71389A"/>
<path d="M233.021 75.2679C233.021 75.3508 229.353 75.4117 224.833 75.4117C220.314 75.4117 216.641 75.3508 216.641 75.2679C216.641 75.1849 220.308 75.124 224.833 75.124C229.359 75.124 233.021 75.1904 233.021 75.2679Z" fill="white"/>
<path d="M227.344 78.1566C223.859 78.3484 220.367 78.3484 216.883 78.1566C220.367 77.9647 223.859 77.9647 227.344 78.1566Z" fill="white"/>
<path d="M255.306 78.5715L254.515 77.6864V75.5843C254.514 75.0929 254.337 74.6181 254.017 74.2457C253.696 73.8734 253.253 73.628 252.767 73.5541V72.6689H252.214V73.5485C251.714 73.6055 251.252 73.8444 250.916 74.2198C250.581 74.5952 250.395 75.0808 250.394 75.5843V77.5924L249.625 78.5715H251.727C251.777 78.7042 251.858 78.8226 251.964 78.9163C252.07 79.0101 252.198 79.0763 252.336 79.1091C252.473 79.1419 252.617 79.1403 252.754 79.1044C252.891 79.0685 253.017 78.9995 253.121 78.9034C253.22 78.8117 253.296 78.698 253.342 78.5715H255.306Z" fill="white"/>
<path d="M206.979 104.289H199.544C198.389 104.289 197.453 105.225 197.453 106.38V123.524C197.453 124.678 198.389 125.615 199.544 125.615H206.979C208.134 125.615 209.07 124.678 209.07 123.524V106.38C209.07 105.225 208.134 104.289 206.979 104.289Z" fill="#EBEBEB"/>
<path d="M201.823 107.657V111.629H201.099V108.271H200.258V107.657H201.823Z" fill="#263238"/>
<path d="M205.608 107.657V108.15L204.059 111.629H203.273L204.767 108.282H203.202V108.957H202.516V107.657H205.608Z" fill="#263238"/>
<path d="M206.629 113.644C204.382 113.836 202.122 113.836 199.875 113.644C202.122 113.452 204.382 113.452 206.629 113.644Z" fill="#263238"/>
<path d="M255.961 104.289H214.3C212.503 104.289 211.047 105.745 211.047 107.542V121.161C211.047 122.958 212.503 124.414 214.3 124.414H255.961C257.757 124.414 259.213 122.958 259.213 121.161V107.542C259.213 105.745 257.757 104.289 255.961 104.289Z" fill="#455A64"/>
<path d="M233.021 111.397C233.021 111.474 229.353 111.541 224.833 111.541C220.314 111.541 216.641 111.474 216.641 111.397C216.641 111.319 220.308 111.253 224.833 111.253C229.359 111.253 233.021 111.314 233.021 111.397Z" fill="white"/>
<path d="M227.344 114.284C223.859 114.476 220.367 114.476 216.883 114.284C220.367 114.093 223.859 114.093 227.344 114.284Z" fill="white"/>
<path d="M255.308 115.386L254.539 114.506V112.404C254.539 111.913 254.362 111.437 254.042 111.065C253.721 110.692 253.277 110.447 252.791 110.374V109.483H252.237V110.369C251.737 110.426 251.275 110.664 250.94 111.04C250.604 111.415 250.418 111.901 250.417 112.404V114.407L249.648 115.391H251.751C251.812 115.556 251.923 115.697 252.067 115.797C252.211 115.897 252.383 115.95 252.558 115.95C252.734 115.95 252.905 115.897 253.049 115.797C253.194 115.697 253.304 115.556 253.366 115.391L255.308 115.386Z" fill="white"/>
<path d="M206.979 127.776H199.544C198.389 127.776 197.453 128.713 197.453 129.867V170.245C197.453 171.4 198.389 172.336 199.544 172.336H206.979C208.134 172.336 209.07 171.4 209.07 170.245V129.867C209.07 128.713 208.134 127.776 206.979 127.776Z" fill="#EBEBEB"/>
<path d="M203.313 134.493V135.118H200.381V134.625L201.964 133.121C202.345 132.756 202.417 132.523 202.417 132.296C202.417 131.937 202.168 131.743 201.676 131.743C201.499 131.733 201.322 131.765 201.161 131.837C200.999 131.91 200.857 132.02 200.747 132.158L200.227 131.76C200.41 131.54 200.643 131.365 200.906 131.251C201.17 131.137 201.456 131.086 201.742 131.101C202.605 131.101 203.158 131.538 203.158 132.241C203.154 132.487 203.092 132.729 202.978 132.947C202.864 133.165 202.7 133.353 202.5 133.497L201.438 134.509L203.313 134.493Z" fill="#263238"/>
<path d="M206.974 133.974C206.974 134.715 206.332 135.174 205.342 135.174C204.352 135.174 203.727 134.715 203.727 133.974C203.723 133.77 203.782 133.57 203.896 133.401C204.01 133.231 204.173 133.101 204.363 133.028C204.209 132.95 204.081 132.83 203.993 132.682C203.904 132.534 203.86 132.364 203.865 132.192C203.865 131.512 204.462 131.086 205.342 131.086C206.222 131.086 206.83 131.512 206.83 132.192C206.835 132.365 206.79 132.536 206.701 132.684C206.612 132.832 206.482 132.951 206.327 133.028C206.519 133.099 206.684 133.229 206.8 133.398C206.916 133.567 206.977 133.768 206.974 133.974ZM206.233 133.974C206.233 133.586 205.89 133.337 205.342 133.337C204.794 133.337 204.468 133.586 204.468 133.974C204.468 134.361 204.8 134.615 205.342 134.615C205.884 134.615 206.233 134.355 206.233 133.951V133.974ZM204.573 132.248C204.573 132.591 204.855 132.801 205.32 132.801C205.785 132.801 206.083 132.585 206.083 132.248C206.083 131.91 205.779 131.694 205.32 131.694C204.861 131.694 204.595 131.866 204.595 132.226L204.573 132.248Z" fill="#263238"/>
<path d="M206.629 137.105C204.382 137.297 202.122 137.297 199.875 137.105C202.122 136.913 204.382 136.913 206.629 137.105Z" fill="#263238"/>
<path d="M255.961 127.776H214.3C212.503 127.776 211.047 129.233 211.047 131.029V169.083C211.047 170.88 212.503 172.336 214.3 172.336H255.961C257.757 172.336 259.213 170.88 259.213 169.083V131.029C259.213 129.233 257.757 127.776 255.961 127.776Z" fill="#71389A"/>
<path d="M233.021 134.88C233.021 134.963 229.353 135.024 224.833 135.024C220.314 135.024 216.641 134.963 216.641 134.88C216.641 134.797 220.308 134.736 224.833 134.736C229.359 134.736 233.021 134.803 233.021 134.88Z" fill="white"/>
<path d="M227.344 137.768C223.859 137.96 220.367 137.96 216.883 137.768C220.367 137.576 223.859 137.576 227.344 137.768Z" fill="white"/>
<path d="M255.306 138.874L254.515 137.983V135.875C254.514 135.384 254.337 134.909 254.017 134.537C253.696 134.164 253.253 133.919 252.767 133.845V132.96H252.214V133.84C251.713 133.898 251.251 134.138 250.916 134.514C250.58 134.89 250.395 135.377 250.394 135.881V137.883L249.625 138.863H251.727C251.777 138.995 251.859 139.113 251.965 139.206C252.071 139.3 252.198 139.366 252.335 139.399C252.472 139.432 252.616 139.432 252.753 139.397C252.89 139.362 253.016 139.295 253.121 139.2C253.219 139.105 253.295 138.99 253.342 138.863L255.306 138.874Z" fill="white"/>
<path d="M252.794 156.791C252.794 156.869 244.955 156.935 235.28 156.935C225.604 156.935 217.766 156.869 217.766 156.791C217.766 156.714 225.604 156.647 235.28 156.647C244.955 156.647 252.794 156.681 252.794 156.791Z" fill="white"/>
<path d="M232.281 164.315C232.281 164.392 229.034 164.459 225.024 164.459C221.013 164.459 217.766 164.392 217.766 164.315C217.766 164.237 221.013 164.171 225.024 164.171C229.034 164.171 232.281 164.232 232.281 164.315Z" fill="white"/>
<path d="M252.794 160.344C252.794 160.421 244.955 160.488 235.28 160.488C225.604 160.488 217.766 160.421 217.766 160.344C217.766 160.267 225.604 160.2 235.28 160.2C244.955 160.2 252.794 160.267 252.794 160.344Z" fill="white"/>
<path d="M83.1152 164.204L79.7075 167.856C79.7075 167.856 65.1586 191.455 63.4049 193.302C62.2986 194.47 59.5326 195.985 55.9258 196.334C53.8734 196.533 48.4688 192.39 48.4688 192.39L53.1985 177.857L58.5756 176.38L73.1079 159.558L83.1152 164.204Z" fill="#FFBE9D"/>
<path d="M80.3909 167.088C81.6024 165.634 84.7224 162.635 84.7224 162.635L86.0335 161.219C86.0928 161.334 86.141 161.455 86.1773 161.579C86.2332 161.818 86.3493 162.039 86.5148 162.22C86.7056 162.353 86.9324 162.424 87.1648 162.424C87.3971 162.424 87.6239 162.353 87.8148 162.22C88.2291 161.983 88.5749 161.643 88.8186 161.232C89.0624 160.822 89.1957 160.355 89.2058 159.878C89.2158 159.401 89.1021 158.929 88.8758 158.509C88.6495 158.089 88.3183 157.734 87.9144 157.48C87.8387 157.222 87.7148 156.982 87.5493 156.771C86.4429 155.339 83.8152 155.527 83.8152 155.527L84.208 154.974C84.208 154.974 85.9893 153.867 88.9599 155.743C89.4012 156.03 89.9325 156.146 90.4535 156.069C90.6137 156.051 90.7681 155.998 90.9057 155.914C91.0433 155.83 91.1608 155.716 91.2501 155.582C91.6816 154.846 91.2778 154.348 89.4412 153.148C87.6046 151.948 85.4361 151.4 84.0586 151.914C83.4136 152.135 82.7851 152.401 82.1778 152.711C82.1778 152.711 85.4195 147.483 85.6131 147.14C86.1663 146.161 86.1939 145.088 85.5744 144.657C85.1761 144.374 84.468 144.319 83.7931 145.442C83.2012 146.41 75.899 155.593 75.899 155.593L72.9062 159.847L80.3909 167.088Z" fill="#FFBE9D"/>
<path d="M73.9922 160.012C74.251 160.223 74.5695 160.347 74.9029 160.368C75.2363 160.389 75.5678 160.305 75.8509 160.128C76.4484 159.824 76.9186 159.326 77.5105 158.977C79.2199 157.932 81.5488 158.358 83.2028 157.235C83.4352 157.08 83.6675 156.814 83.5624 156.554C83.4573 156.294 83.1531 156.267 82.8986 156.261L76.2603 155.984" fill="#FFBE9D"/>
<path d="M76.2603 155.984C76.4973 155.94 76.7388 155.925 76.9794 155.94C77.4386 155.94 78.0858 155.94 78.9322 155.94L81.8254 156.017L82.6607 156.045C83.0021 156.006 83.3451 156.102 83.6177 156.311C83.6918 156.395 83.7384 156.5 83.7512 156.612C83.7641 156.724 83.7426 156.837 83.6897 156.936C83.6016 157.096 83.4787 157.234 83.3301 157.34C83.0588 157.522 82.7697 157.676 82.4671 157.799C81.239 158.269 80.0164 158.291 78.982 158.551C78.4902 158.664 78.0184 158.85 77.5824 159.104C77.1841 159.337 76.8411 159.657 76.476 159.873C76.2197 160.099 75.9168 160.265 75.5889 160.361C75.261 160.457 74.9161 160.479 74.5786 160.426C74.0918 160.299 73.9535 160.028 73.9701 160.028C74.1653 160.15 74.3807 160.236 74.6062 160.283C74.9174 160.306 75.23 160.264 75.5243 160.161C75.8185 160.057 76.088 159.893 76.3156 159.68C76.6698 159.384 77.0391 159.107 77.422 158.85C77.8785 158.576 78.375 158.374 78.8935 158.252C79.9999 157.965 81.1948 157.926 82.3233 157.483C82.5993 157.376 82.8627 157.239 83.1088 157.074C83.3301 156.919 83.4518 156.692 83.3411 156.593C83.2305 156.493 82.9318 156.454 82.6496 156.443L81.8143 156.405L78.9211 156.244C78.0969 156.194 77.433 156.145 76.9739 156.106C76.7316 156.098 76.4915 156.057 76.2603 155.984Z" fill="#EB996E"/>
<path d="M83.7266 155.509C83.9838 155.175 84.3128 154.903 84.6891 154.713C85.1088 154.523 85.5791 154.477 86.0278 154.58C86.5735 154.718 87.0942 154.94 87.5712 155.238C88.0641 155.551 88.5889 155.811 89.1368 156.013C89.597 156.18 90.0933 156.222 90.5751 156.135C90.7403 156.1 90.8955 156.029 91.0288 155.925C91.1621 155.821 91.2699 155.689 91.344 155.537C91.4019 155.431 91.4269 155.309 91.4159 155.189C91.4159 155.189 91.3662 155.305 91.2555 155.493C91.1769 155.619 91.072 155.727 90.9479 155.809C90.8238 155.891 90.6834 155.946 90.5364 155.969C90.0869 156.023 89.631 155.966 89.2087 155.803C88.682 155.589 88.1749 155.33 87.693 155.028C87.1921 154.719 86.6448 154.493 86.0721 154.359C85.5888 154.254 85.0843 154.315 84.6393 154.53C84.3449 154.678 84.092 154.896 83.9036 155.167C83.8164 155.264 83.7555 155.382 83.7266 155.509Z" fill="#EB996E"/>
<path d="M85.825 146.758C85.5817 147.088 85.3635 147.435 85.1722 147.798L83.6731 150.326L82.1297 152.837C81.8928 153.17 81.6872 153.524 81.5156 153.894C81.804 153.599 82.0582 153.272 82.2735 152.92C82.7105 152.301 83.2858 151.427 83.8778 150.442C84.4697 149.457 84.9841 148.539 85.3271 147.87C85.5335 147.519 85.7005 147.146 85.825 146.758Z" fill="#EB996E"/>
<path d="M84.1953 157.418C84.317 157.457 84.4436 157.479 84.5715 157.484C84.7341 157.496 84.8923 157.543 85.0354 157.621C85.1785 157.699 85.3032 157.807 85.4013 157.938C85.4531 158.03 85.4804 158.134 85.4804 158.239C85.4804 158.345 85.4531 158.449 85.4013 158.541C85.2756 158.776 85.1193 158.994 84.9366 159.188C84.7082 159.434 84.5749 159.754 84.5604 160.09C84.5776 160.272 84.6364 160.448 84.7323 160.605C84.8282 160.761 84.9587 160.893 85.1136 160.991C85.2683 161.084 85.4402 161.145 85.6189 161.169C85.7976 161.194 85.9795 161.182 86.1536 161.135C86.4755 161.056 86.7665 160.883 86.9889 160.637C87.3206 160.228 87.5891 159.771 87.7855 159.282C87.9268 158.955 88.0146 158.608 88.0455 158.253C88.0629 158.123 88.0417 157.99 87.9847 157.871C87.9673 157.996 87.9562 158.122 87.9515 158.247C87.8877 158.584 87.7779 158.909 87.6251 159.216C87.4158 159.674 87.146 160.101 86.823 160.488C86.6298 160.704 86.3706 160.851 86.0854 160.905C85.8003 160.959 85.5054 160.918 85.2464 160.787C85.1231 160.71 85.0194 160.605 84.9436 160.481C84.8677 160.358 84.8218 160.218 84.8094 160.073C84.8204 159.795 84.9302 159.53 85.1191 159.326C85.3075 159.112 85.4674 158.874 85.5949 158.618C85.6533 158.495 85.6794 158.36 85.6707 158.224C85.662 158.089 85.6187 157.958 85.5451 157.844C85.4303 157.698 85.283 157.581 85.1149 157.502C84.9468 157.423 84.7626 157.385 84.577 157.39C84.4492 157.373 84.3193 157.383 84.1953 157.418Z" fill="#EB996E"/>
<path d="M86.1649 160.926C86.1649 160.926 86.0598 161.009 86.0155 161.236C85.9871 161.399 85.9978 161.567 86.0469 161.726C86.0959 161.885 86.1819 162.029 86.2976 162.148C86.476 162.319 86.6958 162.441 86.9354 162.501C87.175 162.561 87.4261 162.558 87.664 162.491C88.2353 162.321 88.7201 161.939 89.0193 161.424C89.3202 160.925 89.4611 160.346 89.4232 159.764C89.3814 159.289 89.2154 158.833 88.9419 158.442C88.7618 158.181 88.5348 157.956 88.2725 157.778C88.0845 157.656 87.9683 157.618 87.9572 157.629C88.2789 157.89 88.562 158.195 88.7981 158.536C89.0351 158.91 89.1722 159.339 89.1964 159.781C89.2273 160.319 89.0921 160.854 88.8091 161.313C88.5431 161.778 88.1131 162.127 87.6032 162.292C87.401 162.355 87.1861 162.365 86.979 162.321C86.7718 162.278 86.5792 162.182 86.4193 162.043C86.3146 161.943 86.2328 161.822 86.1793 161.687C86.1258 161.552 86.102 161.408 86.1096 161.263C86.1206 161.042 86.187 160.931 86.1649 160.926Z" fill="#EB996E"/>
<path d="M80.4195 162.229C80.4195 162.229 80.2646 162.058 79.9105 161.931C79.4265 161.765 78.901 161.765 78.4169 161.931L78.5608 162.091C78.6778 161.839 78.7812 161.58 78.8706 161.317C79.2157 160.409 79.3038 159.423 79.125 158.468C79.0592 159.404 78.896 160.331 78.6382 161.234C78.5497 161.505 78.4501 161.754 78.3505 161.986L78.2344 162.241L78.4944 162.147C78.9356 161.984 79.4152 161.957 79.8718 162.069C80.2148 162.152 80.4029 162.257 80.4195 162.229Z" fill="#EB996E"/>
<path d="M85.9514 153.352C85.8905 153.352 85.8629 153.844 86.2058 154.325C86.5488 154.807 87.019 154.945 87.0356 154.879C87.0522 154.812 86.6926 154.596 86.405 154.176C86.1173 153.756 86.0288 153.341 85.9514 153.352Z" fill="#EB996E"/>
<path d="M56.4789 206.502L50.3938 195.836L52.8666 180.817C54.3665 175.856 54.0167 170.52 51.8819 165.798L43.5397 149.634L36.0938 146.984L20.372 145.175C17.6588 145.698 14.9858 146.411 12.3729 147.31C8.02477 148.754 5.80647 150.994 3.46094 154.933L11.7256 194.885C11.7256 194.885 5.00987 211.685 6.19371 221.289L56.4789 206.502Z" fill="#71389A"/>
<path d="M42.1484 149.213C42.1484 149.213 51.9233 151.376 55.4859 164.702L59.8727 178.919L51.8514 179.412L42.1484 149.213Z" fill="#71389A"/>
<path d="M52.5793 179.872C52.6195 179.81 52.6494 179.743 52.6678 179.672C52.7176 179.54 52.8006 179.346 52.8835 179.086C53.1008 178.353 53.238 177.598 53.2929 176.835C53.4212 174.307 52.9053 171.789 51.7937 169.516C51.4729 168.846 51.1188 168.216 50.7593 167.624C50.3997 167.032 50.0678 166.451 49.7691 165.892C49.2254 164.908 48.7754 163.874 48.4248 162.806C48.1205 161.893 47.9048 161.146 47.7444 160.632C47.6725 160.394 47.6116 160.195 47.5618 160.04C47.5439 159.969 47.5179 159.9 47.4844 159.835C47.488 159.908 47.501 159.981 47.5231 160.051L47.6725 160.654C47.8052 161.174 48.0044 161.932 48.2865 162.866C48.6231 163.95 49.064 164.999 49.6031 165.998C49.9018 166.551 50.2393 167.143 50.5878 167.74C50.9363 168.338 51.2903 168.957 51.6057 169.621C52.7058 171.872 53.2376 174.358 53.1546 176.862C53.1084 177.618 52.9917 178.368 52.8061 179.103C52.7179 179.355 52.6422 179.612 52.5793 179.872Z" fill="#263238"/>
<path d="M50.2111 178.367L54.7583 169.975C54.9056 169.701 55.1244 169.473 55.3914 169.314C55.6584 169.155 55.9634 169.072 56.2741 169.073H88.6469C88.9608 169.073 89.2689 169.158 89.5379 169.32C89.807 169.482 90.0268 169.714 90.1737 169.992L58.0885 191.566L43.8936 193.192C43.7478 192.905 43.6719 192.588 43.6719 192.266C43.6719 191.944 43.7478 191.626 43.8936 191.339L50.2111 178.367Z" fill="#263238"/>
<g opacity="0.3">
<path d="M15.9774 197.551C21.6642 195.073 28.1974 194.713 33.5468 191.571C35.5881 190.365 37.4192 188.805 39.4881 187.665C41.557 186.526 44.1183 185.912 46.3256 186.786C48.5328 187.66 50.1979 190.968 49.0583 193.048C48.6213 194.154 46.5302 195.194 45.3409 195.089C44.1515 194.984 43.0341 194.503 41.8502 194.348C39.3166 194.027 36.8715 195.283 34.5924 196.422C29.6631 198.883 24.571 201.003 19.3519 202.768C18.1349 203.177 16.8515 203.575 15.5791 203.387C14.3068 203.199 13.0566 202.236 12.9736 200.953C12.8685 199.338 14.4949 198.198 15.9774 197.551Z" fill="black"/>
</g>
<path d="M43.8906 193.176L55.2421 170.949C55.3906 170.658 55.6163 170.414 55.8944 170.243C56.1725 170.072 56.4924 169.981 56.8187 169.98H90.3311L77.8456 192.468L43.8906 193.176Z" fill="#455A64"/>
<path d="M70.1556 177.979C69.9858 178.12 69.7778 178.206 69.5583 178.228C69.3388 178.25 69.118 178.205 68.924 178.1C68.73 177.995 68.5718 177.835 68.4696 177.639C68.3675 177.444 68.3261 177.223 68.3507 177.003C68.3753 176.784 68.4648 176.577 68.6078 176.41C68.7507 176.242 68.9406 176.12 69.153 176.061C69.3654 176.002 69.5907 176.008 69.7999 176.077C70.0091 176.147 70.1927 176.278 70.3271 176.452C70.5018 176.68 70.5816 176.966 70.5496 177.25C70.5176 177.535 70.3764 177.796 70.1556 177.979Z" fill="#EBEBEB"/>
<path d="M40.6641 181.581L44.033 178.976C44.7171 178.127 45.5824 177.443 46.5656 176.973C47.5487 176.503 48.6246 176.259 49.7143 176.26H51.5509L52.8066 177.67C52.8066 177.67 61.796 178.063 62.1279 179.169V179.529V179.739L54.433 180.254C54.433 180.254 60.9773 180.254 61.3701 180.254C61.7628 180.254 63.1956 180.143 63.1679 180.912C63.1403 181.543 62.3935 182.018 61.265 182.206C60.8003 182.273 55.13 182.76 55.13 182.76L61.3701 182.704C62.0726 182.704 61.9841 183.811 61.5637 183.96C61.2373 184.071 53.2658 186.405 53.2658 186.405C53.2658 186.405 54.61 187.307 55.7054 187.224C56.8007 187.141 58.6815 185.736 59.0743 186.405C59.4671 187.074 59.3841 187.462 59.1518 187.617C57.9672 188.281 56.7358 188.857 55.4675 189.343C54.61 189.575 47.5734 190.692 47.5734 190.692L41.7373 189.94L40.6641 181.581Z" fill="#FFBE9D"/>
<path d="M55.8744 177.776C54.8265 177.676 53.7736 177.639 52.7212 177.666C51.6677 177.626 50.6128 177.652 49.5625 177.743C50.6118 177.851 51.6669 177.889 52.7212 177.859C53.773 177.899 54.8262 177.872 55.8744 177.776Z" fill="#EB996E"/>
<path d="M40.6719 181.58L15.9165 186.294L13.4327 155.165C13.4327 155.165 9.51057 149.633 5.97567 153.467C2.44077 157.301 1.22928 163.353 1.45609 165.637C1.6829 167.922 2.13099 192.888 4.00078 197.391C6.60631 203.68 13.2889 203.343 15.1587 202.884C17.0285 202.425 43.6536 189.834 43.6536 189.834L40.6719 181.58Z" fill="#FFBE9D"/>
<path d="M14.3443 155.006C15.2128 162.037 16.9277 172.791 17.0217 179.899C17.0217 180.187 0 181.609 0 181.609C0 181.609 0.55319 166.833 1.19489 161.959C1.92511 156.427 3.72298 154.541 3.72298 154.541L8.91193 150.453L14.3443 155.006Z" fill="#71389A"/>
<path d="M0 181.58H0.342977L1.33319 181.503L4.96767 181.171L17.0383 179.993H17.149V179.882C17.149 179.666 17.1213 179.428 17.1047 179.196C16.7617 174.3 16.4464 169.869 16.2196 166.633C16.0979 165.045 15.9983 163.751 15.9264 162.833C15.8877 162.396 15.86 162.053 15.8379 161.798C15.8319 161.677 15.8152 161.557 15.7881 161.438C15.7808 161.558 15.7808 161.678 15.7881 161.798C15.7881 162.058 15.7881 162.401 15.8379 162.838C15.8932 163.756 15.9651 165.051 16.0592 166.644C16.2694 169.88 16.557 174.311 16.8724 179.207C16.8724 179.445 16.9056 179.683 16.9222 179.899L17.0217 179.777L4.96213 181.021L1.33319 181.425L0.34851 181.547C0.231627 181.549 0.115066 181.56 0 181.58Z" fill="#263238"/>
<path d="M55.1199 163.43C55.1199 163.519 53.6761 163.53 51.9667 163.983C50.2574 164.437 48.9739 165.09 48.9297 164.99C50.7635 163.799 52.9407 163.25 55.1199 163.43Z" fill="white"/>
<path d="M16.229 171.22C16.1177 171.269 16.0031 171.31 15.886 171.342C15.5521 171.435 15.2119 171.503 14.8681 171.547C12.9886 171.777 11.088 171.337 9.50196 170.302C7.91588 169.268 6.74626 167.706 6.19958 165.893C6.02562 165.337 5.9434 164.756 5.95617 164.173C5.96119 163.553 6.13525 162.947 6.45958 162.419C6.6351 162.145 6.87173 161.914 7.15099 161.746C7.43025 161.578 7.74457 161.477 8.06937 161.451C8.70799 161.435 9.33243 161.641 9.83663 162.033C10.3408 162.425 10.6937 162.98 10.8353 163.603C11.0606 164.747 10.841 165.934 10.2213 166.922C9.72776 167.75 9.06079 168.461 8.26626 169.006C7.47173 169.551 6.56851 169.918 5.61873 170.081C4.34311 170.329 3.0217 170.164 1.84595 169.611C1.53414 169.455 1.23779 169.269 0.960847 169.057C0.861689 168.989 0.772355 168.907 0.695312 168.814C1.07835 169.075 1.47952 169.308 1.89574 169.511C3.05881 170.009 4.34665 170.138 5.58554 169.882C6.50207 169.714 7.3718 169.352 8.1355 168.818C8.89919 168.284 9.53891 167.593 10.0111 166.789C10.5777 165.861 10.7751 164.753 10.5643 163.686C10.4358 163.131 10.1217 162.637 9.6741 162.285C9.22646 161.933 8.67204 161.744 8.10256 161.75C7.82158 161.772 7.54959 161.859 7.30779 162.004C7.06599 162.149 6.86091 162.348 6.70852 162.585C6.41443 163.069 6.25585 163.623 6.24937 164.189C6.25699 165.284 6.54456 166.358 7.08469 167.309C7.96722 168.965 9.41072 170.251 11.1562 170.938C12.3355 171.393 13.6044 171.567 14.8626 171.447C15.7753 171.353 16.2234 171.176 16.229 171.22Z" fill="white"/>
<path d="M49.8138 167.369C49.617 167.511 49.4099 167.639 49.1942 167.75C48.5753 168.074 47.9115 168.303 47.2249 168.431C46.1215 168.639 44.9848 168.586 43.9057 168.276C42.4853 167.851 41.2287 167.001 40.3044 165.842C39.7617 165.173 39.3591 164.402 39.1206 163.574C38.9924 163.127 38.953 162.659 39.0044 162.196C39.0564 161.71 39.2485 161.248 39.5576 160.869C39.8817 160.465 40.3128 160.159 40.8018 159.988C41.2909 159.817 41.8181 159.787 42.3236 159.901C42.7264 160.008 43.0992 160.207 43.4131 160.481C43.7271 160.756 43.9737 161.099 44.1341 161.484C44.2945 161.868 44.3643 162.285 44.3381 162.701C44.3119 163.117 44.1905 163.522 43.9831 163.884C43.7072 164.38 43.3303 164.814 42.8768 165.156C41.9141 165.828 40.7846 166.22 39.6129 166.29C37.2397 166.506 34.8831 165.737 32.4546 165.543C31.2642 165.409 30.0587 165.549 28.9308 165.953C27.8427 166.367 26.9345 167.15 26.364 168.165C26.0993 168.654 25.9677 169.203 25.9823 169.759C26.0088 170.299 26.1808 170.823 26.4801 171.274C26.7682 171.715 27.1532 172.084 27.6057 172.354C28.0583 172.623 28.5663 172.786 29.0912 172.829C30.0925 172.89 31.1767 172.364 31.4533 171.429C31.5827 170.973 31.5672 170.488 31.4091 170.041C31.2628 169.595 31.038 169.179 30.7453 168.813C29.5698 167.515 27.9723 166.676 26.2367 166.445C24.8084 166.232 23.3532 166.285 21.944 166.6C20.8743 166.831 19.8225 167.138 18.7963 167.518C17.9499 167.828 17.3027 168.071 16.8601 168.259L16.3512 168.453C16.2964 168.479 16.2389 168.5 16.1797 168.514C16.1797 168.514 16.2295 168.481 16.3401 168.425L16.838 168.204C17.2695 168.016 17.9444 167.739 18.7576 167.413C19.7827 167.01 20.8367 166.684 21.9108 166.439C23.3395 166.107 24.8173 166.041 26.2699 166.246C28.0621 166.472 29.7152 167.329 30.9333 168.663C31.2447 169.052 31.4862 169.492 31.6469 169.963C31.8212 170.46 31.8386 170.999 31.6967 171.507C31.5265 172.033 31.1572 172.472 30.6678 172.729C30.1821 172.994 29.6328 173.121 29.0801 173.094C28.5124 173.053 27.9617 172.882 27.4705 172.595C26.9794 172.307 26.561 171.91 26.2478 171.435C25.9168 170.942 25.7257 170.368 25.6946 169.775C25.675 169.172 25.8163 168.574 26.104 168.044C26.708 166.978 27.6646 166.157 28.8091 165.72C29.9787 165.298 31.2298 165.15 32.4657 165.289C34.944 165.493 37.2784 166.251 39.5797 166.041C40.6991 165.979 41.7792 165.608 42.6997 164.968C43.1392 164.681 43.4966 164.285 43.7371 163.819C43.9775 163.352 44.0928 162.831 44.0717 162.307C44.0283 161.822 43.8395 161.362 43.5301 160.986C43.2208 160.61 42.8052 160.337 42.3378 160.201C41.8703 160.065 41.3728 160.074 40.9103 160.226C40.4478 160.377 40.0419 160.665 39.7457 161.051C39.4823 161.405 39.3071 161.816 39.235 162.251C39.1628 162.686 39.1957 163.132 39.3308 163.552C39.5593 164.357 39.9447 165.109 40.4648 165.765C41.2426 166.765 42.2779 167.536 43.4598 167.994C44.6417 168.452 45.926 168.58 47.1751 168.365C48.1065 168.191 48.9999 167.854 49.8138 167.369Z" fill="white"/>
<g opacity="0.3">
<path d="M15.718 182.289C15.718 182.289 16.9019 181.979 17.6321 181.763C18.0316 181.604 18.3891 181.355 18.6769 181.036C18.9648 180.716 19.1751 180.335 19.2917 179.921C19.3441 179.573 19.3272 179.217 19.2419 178.875C18.3457 173.991 17.444 169.095 16.1551 164.299C16.1871 168.904 16.4882 173.503 17.0568 178.073C17.0975 178.672 17.0975 179.273 17.0568 179.871L15.5078 180.137L15.718 182.289Z" fill="black"/>
</g>
<path d="M86.9083 232.619C86.9083 232.619 92.3959 233.809 97.2972 233.073C101.889 232.381 112.173 233.073 112.173 239.158C112.173 245.907 98.4534 244.236 93.104 243.169C87.7546 242.101 82.4219 241.127 82.4219 241.127L86.9083 232.619Z" fill="#455A64"/>
<path d="M99.2266 241.27C99.5273 240.512 99.7479 239.724 99.8849 238.919C100.109 238.134 100.246 237.327 100.294 236.513C99.9871 237.27 99.7645 238.058 99.6304 238.864C99.4097 239.649 99.2743 240.456 99.2266 241.27Z" fill="#263238"/>
<path d="M97.3464 241.358C97.5883 240.574 97.7441 239.765 97.8111 238.946C97.9645 238.143 98.0332 237.325 98.0158 236.507C97.7743 237.29 97.6185 238.097 97.5511 238.913C97.3975 239.719 97.3289 240.538 97.3464 241.358Z" fill="#263238"/>
<path d="M95.5472 240.65C95.8861 239.263 96.0569 237.84 96.0561 236.412C95.71 237.798 95.539 239.221 95.5472 240.65Z" fill="#263238"/>
<path d="M92.7031 239.944C93.3386 238.805 93.6523 237.514 93.6104 236.21C93.417 236.82 93.2654 237.443 93.1567 238.074C92.9647 238.687 92.8131 239.311 92.7031 239.944Z" fill="#263238"/>
<path d="M92.1202 237.475C91.8836 237.427 91.6416 237.412 91.401 237.431C90.7431 237.45 90.0928 237.577 89.4759 237.807C89.2602 237.88 89.0583 237.988 88.8785 238.128C88.7729 238.205 88.6851 238.305 88.6212 238.419C88.5573 238.534 88.5186 238.661 88.5078 238.791C88.5208 238.937 88.5647 239.077 88.6365 239.204C88.7083 239.331 88.8065 239.441 88.9243 239.527C89.0422 239.613 89.1771 239.673 89.3199 239.703C89.4627 239.732 89.6102 239.731 89.7525 239.699C90.3362 239.538 90.844 239.175 91.1853 238.675C91.7527 237.939 92.0773 237.045 92.114 236.116C92.1506 235.187 91.8976 234.27 91.3899 233.492C91.2851 233.367 91.1407 233.281 90.9806 233.248C90.899 233.237 90.816 233.244 90.7375 233.269C90.659 233.294 90.5871 233.336 90.527 233.392C90.3303 233.59 90.209 233.85 90.184 234.128C90.1226 234.586 90.147 235.051 90.2559 235.5C90.4101 236.147 90.7282 236.743 91.1797 237.231C91.305 237.36 91.44 237.478 91.5836 237.585C91.6309 237.628 91.6852 237.661 91.744 237.685C91.744 237.685 91.5504 237.514 91.2572 237.165C90.852 236.671 90.5713 236.086 90.4384 235.461C90.3445 235.034 90.3314 234.593 90.3997 234.161C90.4236 233.937 90.5208 233.727 90.6763 233.564C90.7158 233.527 90.7631 233.499 90.8149 233.483C90.8666 233.467 90.9212 233.464 90.9746 233.472C91.0281 233.481 91.0788 233.501 91.123 233.533C91.1672 233.564 91.2036 233.605 91.2295 233.652C91.5442 234.13 91.7559 234.668 91.8511 235.231C91.9464 235.795 91.9231 236.373 91.7827 236.927C91.6455 237.506 91.3872 238.049 91.0248 238.52C90.7224 238.972 90.2727 239.304 89.7525 239.461C89.6442 239.487 89.5315 239.491 89.4218 239.471C89.312 239.452 89.2076 239.409 89.1153 239.347C89.023 239.284 88.9449 239.203 88.886 239.108C88.8271 239.013 88.7887 238.907 88.7734 238.797C88.7802 238.696 88.8089 238.597 88.8576 238.509C88.9064 238.42 88.9739 238.343 89.0555 238.282C89.2221 238.152 89.4089 238.049 89.6087 237.978C90.2058 237.742 90.8335 237.591 91.4729 237.53C91.8436 237.491 92.1202 237.497 92.1202 237.475Z" fill="#263238"/>
<path d="M82.9609 240.23L83.0992 240.274L83.5141 240.374L85.1018 240.739C86.4903 241.043 88.4929 241.469 90.9878 241.951C93.4827 242.432 96.4644 242.974 99.8056 243.433C101.555 243.717 103.331 243.804 105.1 243.693C106.04 243.633 106.969 243.457 107.866 243.168C108.325 243.01 108.769 242.812 109.193 242.576C109.639 242.335 110.037 242.014 110.366 241.63C110.551 241.469 110.711 241.283 110.842 241.077C111.098 240.633 111.256 240.14 111.305 239.63C111.354 239.12 111.292 238.606 111.124 238.122C110.793 237.19 110.177 236.385 109.365 235.821C108.601 235.28 107.758 234.862 106.864 234.582C106.427 234.46 106.001 234.311 105.564 234.211C105.127 234.112 104.701 234.007 104.275 233.946C100.835 233.393 97.7091 233.68 95.109 233.68C93.8035 233.708 92.6252 233.68 91.5963 233.608C90.7148 233.548 89.8375 233.437 88.9686 233.277L88.0227 233.077L87.3422 232.884L86.9218 232.768C86.8738 232.75 86.8235 232.738 86.7724 232.734L86.9107 232.79L87.3256 232.934L88.0005 233.155L88.9465 233.376C89.8174 233.556 90.6987 233.682 91.5852 233.752C92.6197 233.83 93.798 233.879 95.109 233.868C97.7146 233.868 100.84 233.636 104.231 234.189C104.657 234.25 105.078 234.366 105.509 234.449C105.941 234.532 106.35 234.698 106.781 234.82C107.649 235.094 108.469 235.503 109.21 236.031C109.976 236.563 110.556 237.322 110.869 238.2C111.025 238.648 111.083 239.124 111.039 239.597C110.995 240.069 110.851 240.526 110.615 240.938C110.495 241.129 110.35 241.302 110.184 241.453C109.868 241.804 109.493 242.098 109.077 242.321C108.666 242.543 108.237 242.728 107.794 242.874C106.914 243.161 106.001 243.335 105.078 243.394C103.326 243.507 101.567 243.426 99.8333 243.151C96.5142 242.708 93.5214 242.183 91.0209 241.724C88.5205 241.265 86.5124 240.866 85.1239 240.617L83.5252 240.302L83.1048 240.225C83.0568 240.219 83.0083 240.221 82.9609 240.23Z" fill="#263238"/>
<path d="M103.032 243.477C103.111 243.015 103.155 242.547 103.165 242.078C103.226 241.215 103.331 240.02 103.502 238.709C103.674 237.398 103.895 236.219 104.055 235.389C104.168 234.933 104.25 234.469 104.299 234.001C104.106 234.433 103.963 234.886 103.873 235.351C103.598 236.444 103.386 237.552 103.237 238.67C103.085 239.794 102.997 240.927 102.971 242.061C102.934 242.534 102.954 243.009 103.032 243.477Z" fill="#263238"/>
<g opacity="0.4">
<path d="M88.601 232.912L85.1215 241.625L82.4219 241.122L87.5887 232.619L88.601 232.912Z" fill="black"/>
</g>
<path d="M7.38835 220.669L20.665 209.771C21.3983 205.741 23.6129 202.13 26.8734 199.65C30.1338 197.17 34.2041 195.999 38.2841 196.367C41.5526 196.665 44.656 197.939 47.1905 200.024L54.8633 206.026C66.8123 202.768 79.851 196.727 89.1613 194.105C91.0523 193.576 93.0343 193.456 94.9753 193.752C96.9164 194.049 98.772 194.756 100.419 195.825L100.596 195.941C102.98 197.484 104.83 199.726 105.894 202.359C106.957 204.993 107.182 207.89 106.537 210.656C105.702 214.258 103.03 216.797 100.308 219.297C95.5119 223.723 87.1366 231.34 87.1366 231.34L87.9664 231.993L82.4345 241.121L71.011 237.602C63.2663 236.496 46.9859 234.377 46.9859 234.377L51.6493 231.611L50.5816 231.279C41.7305 238.841 30.8492 242.343 17.3901 236.457C10.7628 233.37 6.61941 225.897 7.38835 220.669Z" fill="#263238"/>
<path d="M30.1016 219.453C30.1016 219.453 30.1348 219.492 30.2067 219.552L30.5441 219.829L31.8441 220.863L32.7845 221.61C33.1275 221.881 33.5369 222.136 33.9518 222.429L35.3071 223.358C35.5505 223.524 35.7939 223.696 36.0539 223.862L36.8616 224.354C37.968 225.012 39.1684 225.77 40.5237 226.456C41.1986 226.81 41.8846 227.192 42.6092 227.563L44.8607 228.63C47.9697 230.046 51.4437 231.468 55.1723 232.741C62.6238 235.307 69.5165 237.166 74.451 238.649C75.6846 239.014 76.8021 239.357 77.7702 239.666C78.7383 239.976 79.5957 240.22 80.2761 240.458L81.8583 240.972L82.2676 241.099C82.3136 241.118 82.3621 241.129 82.4115 241.132C82.4115 241.132 82.3672 241.132 82.2787 241.072L81.8749 240.922L80.3093 240.369C79.6289 240.12 78.7936 239.844 77.82 239.528C76.8463 239.213 75.7344 238.853 74.5008 238.477C69.5774 236.934 62.6957 235.058 55.2552 232.497C51.5322 231.23 48.0637 229.814 44.9548 228.415L42.7033 227.358C41.9786 227.004 41.2927 226.628 40.6178 226.279C39.2624 225.604 38.0675 224.858 36.9556 224.21C36.6735 224.044 36.4024 223.889 36.1424 223.729C35.8824 223.569 35.639 223.397 35.3956 223.237L34.0292 222.313C33.6033 222.02 33.1939 221.76 32.8454 221.511L31.8939 220.786C31.3407 220.36 30.8816 220.028 30.5663 219.785L30.2177 219.53C30.1569 219.475 30.1071 219.447 30.1016 219.453Z" fill="#455A64"/>
<path d="M29.1094 223.729C29.2342 223.821 29.3722 223.893 29.5187 223.944C29.7898 224.072 30.1936 224.232 30.6915 224.42C31.9963 224.898 33.3327 225.284 34.6911 225.576C36.0507 225.871 37.4299 226.067 38.8179 226.163C39.3711 226.201 39.7805 226.218 40.0792 226.212C40.2327 226.229 40.388 226.22 40.5383 226.185C39.9745 226.085 39.4057 226.017 38.8345 225.98C37.7779 225.864 36.3285 225.659 34.7464 225.322C33.1643 224.984 31.7592 224.569 30.7524 224.243C30.214 224.043 29.6656 223.871 29.1094 223.729Z" fill="#455A64"/>
<path d="M48.8049 201.557C48.7551 201.612 57.49 208.477 68.3049 216.88C79.1199 225.283 87.9211 232.054 87.9654 231.994C88.0097 231.933 79.2803 225.079 68.4654 216.67C57.6504 208.262 48.8492 201.502 48.8049 201.557Z" fill="#455A64"/>
<path d="M17.4337 231.003C17.4511 230.908 17.4603 230.812 17.4614 230.715C17.4614 230.494 17.4614 230.228 17.4614 229.902C17.4614 229.194 17.5001 228.176 17.561 226.915C17.8761 220.338 19.0934 213.837 21.1788 207.592C21.5771 206.397 21.9201 205.434 22.169 204.77C22.2797 204.466 22.3682 204.217 22.4456 204.007C22.4791 203.917 22.505 203.825 22.5231 203.73C22.5231 203.73 22.4678 203.813 22.3903 203.985C22.3129 204.156 22.1912 204.433 22.0639 204.732C21.7818 205.379 21.4112 206.336 20.9852 207.498C19.8827 210.625 19.0209 213.832 18.4073 217.09C17.8021 220.333 17.447 223.617 17.3452 226.915C17.312 228.182 17.312 229.205 17.3452 229.913C17.3452 230.238 17.3563 230.509 17.3784 230.726C17.3837 230.821 17.4023 230.914 17.4337 231.003Z" fill="#455A64"/>
<path d="M51.0826 230.865C51.0826 230.865 51.0383 230.865 50.9719 230.948L50.6566 231.213C50.38 231.446 49.9983 231.811 49.4673 232.242C45.7454 235.284 41.3667 237.419 36.6774 238.477C36.2847 238.582 35.8864 238.648 35.477 238.72C35.0677 238.792 34.6583 238.869 34.2434 238.936C33.4026 239.024 32.5506 239.163 31.6766 239.185C29.8685 239.304 28.0532 239.25 26.2553 239.024L24.8834 238.836L23.5447 238.56C22.6713 238.377 21.8088 238.147 20.9612 237.868C19.356 237.349 17.8082 236.667 16.3421 235.832C13.8418 234.438 11.6999 232.482 10.0855 230.118C9.001 228.524 8.21904 226.745 7.77867 224.868C7.6608 224.357 7.57031 223.84 7.50761 223.319C7.50761 223.153 7.46888 223.02 7.45782 222.91C7.46186 222.864 7.46186 222.817 7.45782 222.771C7.45156 222.819 7.45156 222.868 7.45782 222.915C7.45782 223.02 7.45782 223.159 7.45782 223.325C7.49588 223.851 7.56795 224.374 7.67356 224.89C8.07995 226.798 8.84391 228.611 9.92506 230.234C11.5383 232.645 13.6945 234.644 16.2204 236.07C17.6991 236.919 19.262 237.613 20.8838 238.139C21.7379 238.424 22.6079 238.659 23.4893 238.842L24.8447 239.124L26.2332 239.317C28.0479 239.542 29.8798 239.594 31.7042 239.472C32.5894 239.472 33.4468 239.301 34.2932 239.212C34.7136 239.146 35.1285 239.063 35.5379 238.991C35.9457 238.927 36.35 238.842 36.7494 238.737C39.5575 238.087 42.2611 237.048 44.7817 235.65C46.4761 234.702 48.0733 233.591 49.5502 232.331C50.0702 231.883 50.4464 231.501 50.7064 231.257L50.9996 230.97C51.0314 230.938 51.0593 230.903 51.0826 230.865Z" fill="#455A64"/>
<path d="M87.5041 200.368C87.2357 200.56 86.9527 200.73 86.6577 200.877C86.1045 201.181 85.3079 201.663 84.3564 202.282C83.4049 202.902 82.3096 203.693 81.1313 204.628C79.953 205.563 78.7194 206.663 77.4581 207.853C74.9411 210.248 72.7726 212.533 71.1517 214.137C70.3441 214.939 69.6802 215.586 69.21 216.018C68.9809 216.255 68.733 216.473 68.4688 216.671C68.6711 216.411 68.893 216.167 69.1326 215.941L71.0024 213.993C72.5845 212.334 74.7309 210.044 77.259 207.643C78.5258 206.448 79.7815 205.358 80.9709 204.423C82.0202 203.594 83.1134 202.822 84.2458 202.111C85.2194 201.508 86.0271 201.054 86.6024 200.778C86.8927 200.62 87.1941 200.483 87.5041 200.368Z" fill="#455A64"/>
<path d="M44.8149 233.565C47.1161 232.337 49.6995 233.061 51.9012 233.802C53.3672 234.295 54.8885 235.08 56.3766 234.66C57.483 234.356 58.2519 233.487 59.0762 232.729C60.7442 231.202 62.7007 230.024 64.8306 229.264C66.9605 228.504 69.2208 228.178 71.4787 228.304C72.7686 228.363 73.9864 228.916 74.8809 229.847C77.1434 232.292 75.4341 235.479 73.4204 237.537C69.8082 241.194 65.0443 243.492 59.9336 244.042C55.7238 244.485 49.9374 243.904 45.6668 242.073C43.0336 240.966 41.6838 237.841 43.0668 235.335C43.4636 234.586 44.0714 233.971 44.8149 233.565Z" fill="#455A64"/>
<g opacity="0.4">
<path d="M44.8179 235.522C47.1192 234.294 49.7026 235.019 51.9043 235.76C53.3703 236.258 54.8916 237.038 56.3796 236.618C57.4584 236.319 58.255 235.445 59.0792 234.687C60.7464 233.159 62.7027 231.98 64.8328 231.22C66.963 230.46 69.2237 230.134 71.4818 230.261C72.7714 230.317 73.9899 230.868 74.8839 231.799C75.343 232.28 75.6707 232.87 75.8354 233.514C75.4006 235.043 74.5683 236.428 73.4235 237.53C69.8113 241.187 65.0474 243.485 59.9367 244.036C55.7269 244.478 49.9405 243.898 45.6698 242.067C44.9142 241.746 44.2452 241.251 43.7173 240.622C43.1895 239.993 42.8179 239.248 42.6328 238.449C42.77 237.836 43.0357 237.26 43.4125 236.759C43.7892 236.257 44.2683 235.841 44.8179 235.539V235.522Z" fill="black"/>
</g>
<path d="M42.6363 238.432C42.7379 237.949 42.9253 237.488 43.1895 237.071C43.5176 236.592 43.9367 236.183 44.4231 235.865C45.0544 235.434 45.7783 235.158 46.5363 235.058C48.2456 234.853 50.2261 235.572 52.4278 236.164C53.5341 236.452 54.7014 236.894 56.0014 236.717C56.6508 236.634 57.2761 236.417 57.838 236.081C58.398 235.73 58.9273 235.332 59.4201 234.892C62.0166 232.465 65.3028 230.905 68.8244 230.428C69.7418 230.297 70.673 230.297 71.5904 230.428C72.3487 230.537 73.079 230.791 73.7423 231.174C74.2389 231.471 74.6852 231.844 75.0644 232.281C75.3688 232.674 75.6531 233.082 75.9163 233.503C75.732 233.034 75.4763 232.595 75.1584 232.203C74.7926 231.746 74.3555 231.35 73.864 231.031C73.1872 230.615 72.4354 230.337 71.6512 230.212C70.7069 230.07 69.7466 230.07 68.8023 230.212C67.7171 230.339 66.6476 230.577 65.6103 230.92C64.4584 231.296 63.3465 231.785 62.2912 232.38C61.7297 232.689 61.1917 233.038 60.6814 233.426C60.1725 233.824 59.6857 234.267 59.1878 234.698C58.7102 235.126 58.1976 235.512 57.6554 235.854C57.1293 236.171 56.5437 236.376 55.935 236.457C54.729 236.618 53.5729 236.203 52.472 235.904C50.2593 235.351 48.2678 234.615 46.4809 234.848C45.7904 234.947 45.1287 235.192 44.5395 235.566C43.9503 235.94 43.4468 236.434 43.0622 237.016C42.859 237.334 42.7147 237.687 42.6363 238.056C42.6212 238.181 42.6212 238.307 42.6363 238.432Z" fill="#263238"/>
<path d="M42.6363 238.432C42.7379 237.949 42.9253 237.488 43.1895 237.071C43.5176 236.592 43.9367 236.183 44.4231 235.865C45.0544 235.434 45.7783 235.158 46.5363 235.058C48.2456 234.853 50.2261 235.572 52.4278 236.164C53.5341 236.452 54.7014 236.894 56.0014 236.717C56.6508 236.634 57.2761 236.417 57.838 236.081C58.398 235.73 58.9273 235.332 59.4201 234.892C62.0166 232.465 65.3028 230.905 68.8244 230.428C69.7418 230.297 70.673 230.297 71.5904 230.428C72.3487 230.537 73.079 230.791 73.7423 231.174C74.2389 231.471 74.6852 231.844 75.0644 232.281C75.3688 232.674 75.6531 233.082 75.9163 233.503C75.732 233.034 75.4763 232.595 75.1584 232.203C74.7926 231.746 74.3555 231.35 73.864 231.031C73.1872 230.615 72.4354 230.337 71.6512 230.212C70.7069 230.07 69.7466 230.07 68.8023 230.212C67.7171 230.339 66.6476 230.577 65.6103 230.92C64.4584 231.296 63.3465 231.785 62.2912 232.38C61.7297 232.689 61.1917 233.038 60.6814 233.426C60.1725 233.824 59.6857 234.267 59.1878 234.698C58.7102 235.126 58.1976 235.512 57.6554 235.854C57.1293 236.171 56.5437 236.376 55.935 236.457C54.729 236.618 53.5729 236.203 52.472 235.904C50.2593 235.351 48.2678 234.615 46.4809 234.848C45.7904 234.947 45.1287 235.192 44.5395 235.566C43.9503 235.94 43.4468 236.434 43.0622 237.016C42.859 237.334 42.7147 237.687 42.6363 238.056C42.6212 238.181 42.6212 238.307 42.6363 238.432Z" fill="#263238"/>
<path d="M71.1773 237.879C70.8127 237.562 70.4138 237.288 69.9879 237.06C68.9982 236.467 67.979 235.924 66.9343 235.434C65.8921 234.943 64.8248 234.507 63.7368 234.128C63.2962 233.941 62.8332 233.811 62.3594 233.741C62.7738 233.976 63.2089 234.173 63.6594 234.328C64.4726 234.671 65.59 235.146 66.807 235.716C68.0241 236.286 69.0973 236.822 69.8773 237.254C70.2887 237.505 70.7242 237.714 71.1773 237.879Z" fill="#263238"/>
<path d="M70.3933 240.18C68.9433 239.308 67.4414 238.524 65.8958 237.835C64.3965 237.052 62.8501 236.363 61.2656 235.771C62.717 236.642 64.2188 237.425 65.7631 238.117C67.2624 238.9 68.8088 239.589 70.3933 240.18Z" fill="#263238"/>
<path d="M60.8522 241.182C60.8964 241.254 63.3526 239.788 66.3288 237.913C69.305 236.037 71.6892 234.455 71.645 234.383C71.6007 234.311 69.1445 235.772 66.1628 237.653C63.1811 239.534 60.8079 241.105 60.8522 241.182Z" fill="#263238"/>
<path d="M59.4766 238.792C59.9014 238.564 60.3034 238.295 60.677 237.99C61.3961 237.47 62.3919 236.751 63.5038 235.977C64.6157 235.202 65.6447 234.527 66.3859 234.035C66.8025 233.793 67.1936 233.509 67.5532 233.188C67.1021 233.359 66.6716 233.58 66.2698 233.847C65.4953 234.295 64.4498 234.953 63.3323 235.722C62.2149 236.491 61.2302 237.249 60.5664 237.813C60.165 238.094 59.7991 238.423 59.4766 238.792Z" fill="#263238"/>
<path d="M42.1141 109.217C41.7048 107.895 41.0362 106.667 40.1471 105.606C39.2581 104.545 38.1665 103.672 36.9362 103.038C34.2366 101.66 31.017 101.544 28.0851 102.224C25.1409 102.988 22.3416 104.229 19.7983 105.898C18.3049 106.719 16.9799 107.815 15.8927 109.128C14.0285 111.612 12.2361 115.662 12.1366 118.765C12.0591 121.271 13.1932 127.516 14.3217 129.762C14.72 130.559 15.6549 131.267 16.7834 131.859C17.9916 134.081 19.5857 136.07 21.4911 137.734C22.0221 136.037 22.555 134.339 23.0898 132.639L42.1141 109.217Z" fill="#263238"/>
<path d="M40.5881 106.142L35.6094 105.401C38.4915 111.746 39.6421 126.422 41.3792 133.177C43.1273 130.488 47.1213 122.323 46.806 119.131C46.4907 115.939 46.4409 105.429 40.5881 106.142Z" fill="#263238"/>
<path d="M17.4904 117.517C17.5267 115.712 18.1412 113.966 19.2435 112.536C20.3458 111.106 21.8778 110.067 23.6142 109.573L34.8994 106.348C39.7951 105.678 43.2526 111.625 43.7117 116.549C44.2262 122.02 44.6134 127.795 44.0879 131.905C43.0368 140.164 36.7692 141.404 36.7692 141.404C36.7692 141.404 36.8798 145.315 36.9406 147.715L35.104 158.453L20.2232 145.729L17.4572 117.578C17.4406 117.467 17.4793 117.694 17.4904 117.517Z" fill="#FFBE9D"/>
<path d="M42.2802 122.821C42.2938 123.097 42.1983 123.368 42.0141 123.575C41.8299 123.782 41.5719 123.909 41.2955 123.927C41.1621 123.942 41.0273 123.929 40.8989 123.89C40.7704 123.852 40.6511 123.788 40.5479 123.702C40.4447 123.616 40.3598 123.511 40.2981 123.392C40.2365 123.273 40.1994 123.142 40.1891 123.009C40.1739 122.733 40.2682 122.462 40.4515 122.254C40.6348 122.047 40.8923 121.921 41.1682 121.902C41.3018 121.888 41.437 121.9 41.5658 121.939C41.6945 121.977 41.8142 122.041 41.9179 122.127C42.0215 122.213 42.1069 122.318 42.1692 122.437C42.2314 122.556 42.2691 122.687 42.2802 122.821Z" fill="#263238"/>
<path d="M42.5679 119.795C42.4407 119.933 41.6219 119.369 40.4879 119.408C39.3539 119.446 38.5407 120.038 38.4134 119.9C38.3526 119.845 38.4743 119.59 38.8283 119.314C39.3115 118.963 39.891 118.77 40.4879 118.761C41.0783 118.74 41.6599 118.908 42.1475 119.242C42.5015 119.485 42.6288 119.729 42.5679 119.795Z" fill="#263238"/>
<path d="M32.3736 122.831C32.3888 123.108 32.2937 123.38 32.1093 123.587C31.9248 123.795 31.6659 123.921 31.3889 123.938C31.2556 123.952 31.1207 123.94 30.9923 123.901C30.8639 123.863 30.7446 123.798 30.6414 123.713C30.5382 123.627 30.4532 123.522 30.3916 123.403C30.33 123.283 30.2929 123.153 30.2826 123.019C30.2688 122.744 30.3636 122.473 30.5466 122.267C30.7296 122.06 30.9863 121.933 31.2617 121.913C31.3953 121.899 31.5305 121.911 31.6592 121.95C31.788 121.988 31.9077 122.052 32.0113 122.138C32.115 122.223 32.2004 122.329 32.2626 122.448C32.3248 122.567 32.3626 122.697 32.3736 122.831Z" fill="#263238"/>
<path d="M31.8192 120.098C31.692 120.242 30.8733 119.678 29.7392 119.716C28.6052 119.755 27.792 120.347 27.6648 120.209C27.5375 120.07 27.7256 119.899 28.0852 119.622C28.5679 119.271 29.1477 119.077 29.7448 119.069C30.3352 119.048 30.9168 119.217 31.4044 119.55C31.7252 119.794 31.8524 120.037 31.8192 120.098Z" fill="#263238"/>
<path d="M35.5979 128.912C36.19 128.708 36.805 128.578 37.429 128.525C37.7222 128.486 37.9821 128.42 38.0375 128.22C38.051 127.921 37.9738 127.624 37.8162 127.368L36.8924 125.189C35.6034 122.08 34.6796 119.524 34.7902 119.474C34.9009 119.425 36.057 121.897 37.346 125.006L38.2366 127.219C38.426 127.565 38.4905 127.965 38.4192 128.353C38.3802 128.457 38.318 128.55 38.2375 128.626C38.157 128.701 38.0602 128.758 37.9545 128.79C37.7965 128.839 37.6329 128.867 37.4677 128.873C36.8488 128.967 36.2202 128.98 35.5979 128.912Z" fill="#263238"/>
<path d="M25.7812 138.78C25.7812 138.78 28.6191 144.351 36.8451 143.328L36.7953 141.391C32.953 141.558 29.14 140.654 25.7812 138.78Z" fill="#EB996E"/>
<path d="M31.3153 116.01C31.2157 116.32 30.0762 116.209 28.754 116.414C27.4319 116.619 26.3587 117.011 26.1762 116.74C26.0932 116.608 26.2702 116.314 26.6962 115.999C27.2637 115.614 27.9116 115.365 28.5904 115.269C29.2692 115.173 29.9609 115.234 30.6128 115.446C31.1106 115.628 31.3596 115.855 31.3153 116.01Z" fill="#263238"/>
<path d="M42.0969 116.332C41.9033 116.597 41.1178 116.332 40.1774 116.371C39.2369 116.409 38.4459 116.597 38.2522 116.332C38.1693 116.205 38.2854 115.945 38.6284 115.69C39.0858 115.381 39.6253 115.216 40.1774 115.216C40.7294 115.216 41.2689 115.381 41.7263 115.69C42.0637 115.945 42.1799 116.205 42.0969 116.332Z" fill="#263238"/>
<path d="M41.2614 109.091C40.9536 108.496 40.4864 107.998 39.912 107.653C39.3376 107.308 38.6786 107.13 38.0086 107.138C36.6642 107.171 35.358 107.592 34.2469 108.35C29.4286 111.32 27.1107 118.23 22.3533 121.294C21.186 122.047 19.6205 121.433 18.6358 122.401C17.6511 123.369 17.0371 124.923 17.629 126.184C16.9158 125.35 16.3236 124.418 15.8699 123.418C15.6496 122.911 15.5396 122.363 15.5472 121.809C15.5549 121.256 15.6799 120.711 15.9141 120.21C16.3124 119.474 17.0205 118.899 17.2196 118.08C17.3745 117.361 17.0703 116.62 17.0813 115.867C17.1431 115.117 17.3799 114.391 17.7728 113.749C19.5762 110.341 22.0933 107.238 25.4014 105.257C27.5547 103.928 30.0294 103.211 32.5597 103.183C35.1011 103.172 37.5629 104.068 39.5022 105.711C40.6086 106.69 41.7814 107.702 41.2614 109.085" fill="#263238"/>
<path d="M18.7764 123.428C18.6823 123.196 14.3508 121.769 14.4228 126.333C14.4947 130.758 18.9368 129.762 18.9423 129.652C18.9479 129.541 18.7764 123.428 18.7764 123.428Z" fill="#FFBE9D"/>
<path d="M17.5541 127.982C17.5541 127.982 17.4766 128.037 17.3439 128.103C17.166 128.173 16.9686 128.173 16.7907 128.103C16.3205 127.938 15.9111 127.207 15.8779 126.405C15.8565 126.026 15.9228 125.648 16.0715 125.299C16.108 125.161 16.1774 125.034 16.2737 124.929C16.3701 124.824 16.4906 124.744 16.6247 124.696C16.7125 124.67 16.8063 124.676 16.8901 124.713C16.9739 124.749 17.0424 124.814 17.0839 124.895C17.1447 125.022 17.1171 125.111 17.1392 125.116C17.1613 125.122 17.2332 125.039 17.1945 124.856C17.1699 124.748 17.1071 124.651 17.0175 124.585C16.9567 124.539 16.887 124.505 16.8128 124.487C16.7385 124.469 16.6613 124.467 16.586 124.48C16.4005 124.521 16.2287 124.61 16.0872 124.737C15.9458 124.864 15.8394 125.025 15.7783 125.205C15.5957 125.591 15.5121 126.017 15.5349 126.444C15.5792 127.335 16.0494 128.164 16.6966 128.336C16.8163 128.366 16.9413 128.37 17.0626 128.347C17.184 128.324 17.2989 128.275 17.3992 128.203C17.543 128.092 17.5652 127.993 17.5541 127.982Z" fill="#EB996E"/>
<path d="M16.9531 121.206C17.0454 121.161 17.1342 121.109 17.2187 121.051C17.3846 120.935 17.6391 120.785 17.9433 120.559C18.7975 119.895 19.5782 119.142 20.2723 118.313C21.283 117.076 22.223 115.783 23.088 114.44C24.1331 112.796 25.3117 111.24 26.6119 109.788C27.3086 109.063 28.082 108.415 28.9187 107.857C29.7043 107.345 30.5496 106.931 31.4357 106.624C32.9357 106.097 34.5214 105.856 36.1102 105.916C37.183 105.959 38.2452 106.145 39.2689 106.469C39.634 106.568 39.9106 106.685 40.0987 106.751C40.1938 106.79 40.2918 106.822 40.3919 106.845L40.1153 106.712C39.8467 106.592 39.5715 106.486 39.291 106.397C38.2662 106.048 37.1971 105.847 36.1157 105.799C34.5082 105.71 32.8985 105.932 31.3748 106.452C30.4725 106.756 29.612 107.173 28.8136 107.691C27.9621 108.254 27.1754 108.909 26.468 109.644C25.1573 111.103 23.9746 112.673 22.9331 114.335C22.0813 115.675 21.158 116.967 20.1672 118.208C19.4892 119.038 18.7314 119.799 17.9046 120.481C17.6059 120.719 17.3514 120.879 17.1965 121.034C17.1097 121.083 17.0281 121.14 16.9531 121.206Z" fill="#455A64"/>
<path d="M17.0681 128.785C16.9039 128.758 16.7355 128.779 16.5827 128.845C16.43 128.911 16.2992 129.019 16.2057 129.156C16.1122 129.294 16.06 129.455 16.0551 129.622C16.0502 129.788 16.0928 129.952 16.178 130.095C16.2632 130.238 16.3873 130.354 16.5359 130.428C16.6845 130.503 16.8514 130.534 17.0169 130.517C17.1824 130.5 17.3397 130.437 17.4702 130.334C17.6008 130.231 17.6993 130.092 17.754 129.935C17.8222 129.724 17.8109 129.495 17.7223 129.291C17.6337 129.088 17.4739 128.923 17.2728 128.829" fill="white"/>
<path d="M17.2784 128.839C17.4731 128.988 17.6178 129.192 17.6933 129.425C17.729 129.545 17.734 129.671 17.7079 129.793C17.6818 129.915 17.6254 130.028 17.5439 130.122C17.4446 130.237 17.3156 130.321 17.1711 130.367C17.0267 130.413 16.8724 130.418 16.7252 130.382C16.5827 130.333 16.4561 130.247 16.3587 130.132C16.2613 130.017 16.1968 129.878 16.172 129.729C16.1537 129.606 16.1663 129.479 16.2088 129.361C16.2513 129.244 16.3223 129.138 16.4154 129.055C16.603 128.897 16.8351 128.802 17.0793 128.784C17.0793 128.784 17.0073 128.739 16.869 128.739C16.6662 128.745 16.4713 128.819 16.3158 128.949C16.195 129.044 16.1008 129.168 16.0426 129.309C15.9844 129.451 15.9642 129.605 15.9839 129.757C16.0005 129.948 16.0745 130.129 16.1963 130.277C16.318 130.424 16.4817 130.532 16.6657 130.585C16.8497 130.637 17.0454 130.633 17.2269 130.572C17.4084 130.511 17.5671 130.397 17.6822 130.244C17.7803 130.126 17.8458 129.984 17.872 129.832C17.8982 129.681 17.8842 129.525 17.8316 129.381C17.7684 129.191 17.6439 129.028 17.4776 128.916C17.3614 128.839 17.2839 128.828 17.2784 128.839Z" fill="#263238"/>
<path d="M18.1019 122.427C18.0631 123.639 18.0465 124.917 18.6551 125.973C19.2636 127.03 20.6742 127.727 21.7087 127.08C22.5495 126.565 22.7763 125.459 22.8925 124.474C23.2355 121.642 23.3461 118.787 23.7057 115.955L18.1019 122.427Z" fill="#263238"/>
<path d="M40.1151 107.005C40.1151 107.005 39.7223 106.944 39.0087 106.938C38.006 106.954 37.0159 107.165 36.0934 107.558C35.4566 107.827 34.8502 108.162 34.2844 108.559C33.6367 109.021 33.0178 109.521 32.4312 110.058C31.0725 111.276 29.8668 112.654 28.841 114.163C28.2878 114.965 27.8231 115.795 27.3031 116.564C26.8156 117.312 26.2399 118 25.5882 118.611C24.4669 119.616 23.2346 120.49 21.915 121.216C20.8087 121.852 19.8627 122.295 19.221 122.605L18.4742 122.948C18.3892 122.995 18.298 123.031 18.2031 123.053C18.2817 122.996 18.365 122.946 18.4521 122.903L19.1767 122.516C19.8074 122.184 20.7312 121.714 21.8265 121.067C23.1214 120.328 24.3293 119.447 25.4278 118.439C26.059 117.836 26.6162 117.16 27.0874 116.426C27.5963 115.668 28.0721 114.838 28.6142 114.025C29.6548 112.499 30.8812 111.109 32.2653 109.887C32.8608 109.347 33.4909 108.846 34.1517 108.388C34.7322 107.989 35.3557 107.657 36.0104 107.398C36.9564 107.006 37.9741 106.817 38.9976 106.844C39.2724 106.853 39.5461 106.882 39.8164 106.933C39.9181 106.947 40.0182 106.971 40.1151 107.005Z" fill="#455A64"/>
<path d="M17.9051 119.695C17.7858 119.8 17.656 119.893 17.5179 119.972L16.4115 120.663L16.0408 120.89C15.8937 120.979 15.7299 121.038 15.5596 121.062C15.4541 121.079 15.346 121.057 15.2553 121.001C15.2064 120.969 15.1655 120.927 15.1358 120.877C15.106 120.827 15.0882 120.771 15.0838 120.713C15.09 120.513 15.1576 120.32 15.2774 120.16L16.5166 118.036L16.6991 118.196C16.2774 118.524 15.802 118.777 15.294 118.943C14.7866 119.114 14.2526 119.193 13.7174 119.175C13.5807 119.178 13.4444 119.16 13.3136 119.12C13.2375 119.1 13.1666 119.064 13.1055 119.014C13.0445 118.965 12.9947 118.903 12.9595 118.832C12.9322 118.757 12.9235 118.677 12.9341 118.598C12.9447 118.519 12.9743 118.444 13.0204 118.379C13.0932 118.278 13.1746 118.183 13.2638 118.097C13.834 117.516 14.3233 116.861 14.7187 116.149C15.0677 115.484 15.369 114.794 15.6204 114.086C15.6076 114.29 15.5666 114.491 15.4987 114.683C15.3448 115.22 15.1353 115.739 14.8736 116.232C14.49 116.972 14.0039 117.653 13.4298 118.257C13.2693 118.417 13.1089 118.6 13.1808 118.738C13.2527 118.877 13.4906 118.937 13.734 118.932C14.2408 118.942 14.7456 118.867 15.2276 118.711C15.7081 118.55 16.1585 118.311 16.5608 118.003L17.0753 117.599L16.7379 118.152L15.471 120.254C15.371 120.38 15.3095 120.531 15.294 120.691C15.2971 120.721 15.3066 120.75 15.3218 120.776C15.337 120.802 15.3577 120.824 15.3823 120.842C15.407 120.859 15.4351 120.871 15.4647 120.876C15.4943 120.882 15.5248 120.881 15.554 120.874C15.8364 120.811 16.1034 120.692 16.3396 120.525L17.4791 119.894C17.6136 119.813 17.7564 119.746 17.9051 119.695Z" fill="#455A64"/>
<path d="M31.3352 131.129C31.4097 130.79 31.6001 130.487 31.8738 130.273C32.1474 130.059 32.4871 129.947 32.8343 129.957C33.0863 129.988 33.3268 130.081 33.535 130.227C33.7431 130.372 33.9128 130.566 34.0292 130.792C34.1456 131.019 34.2154 131.267 34.2344 131.522C34.2534 131.777 34.2213 132.032 34.1399 132.274V132.38C33.911 132.641 33.607 132.825 33.2693 132.908C32.9317 132.99 32.5769 132.966 32.2535 132.839C31.9317 132.697 31.6666 132.452 31.5002 132.142C31.3338 131.832 31.2758 131.476 31.3352 131.129Z" fill="#EB996E"/>
<path d="M34.9587 132.357C34.9587 132.186 33.808 132.274 32.9174 131.356C32.0267 130.437 32.0599 129.209 31.8995 129.215C31.8276 129.215 31.6948 129.503 31.7225 130.017C31.766 130.69 32.044 131.326 32.508 131.815C32.9568 132.282 33.57 132.556 34.2174 132.578C34.6987 132.584 34.9697 132.451 34.9587 132.357Z" fill="#263238"/>
<path d="M34.672 122.527C34.6226 122.125 34.5524 121.727 34.4618 121.332C34.1711 120.267 33.5347 119.329 32.6529 118.666C32.0048 118.181 31.2458 117.866 30.4449 117.749C29.644 117.632 28.8266 117.717 28.0669 117.996C27.1839 118.323 26.4151 118.9 25.8542 119.656C25.2467 120.482 24.919 121.48 24.919 122.505C24.919 123.53 25.2467 124.528 25.8542 125.354C26.4137 126.111 27.183 126.688 28.0669 127.013C28.8267 127.294 29.6448 127.379 30.4461 127.261C31.2474 127.143 32.0062 126.826 32.6529 126.339C33.5365 125.679 34.1735 124.742 34.4618 123.678C34.5527 123.281 34.6229 122.881 34.672 122.477C34.7054 122.889 34.6717 123.304 34.5725 123.705C34.3535 124.645 33.8662 125.501 33.1699 126.169C32.4736 126.836 31.5983 127.287 30.6503 127.467C29.7574 127.64 28.8346 127.569 27.9784 127.262C27.5153 127.099 27.079 126.868 26.6839 126.576C26.2667 126.269 25.9024 125.895 25.6052 125.47C24.9585 124.598 24.6094 123.541 24.6094 122.455C24.6094 121.369 24.9585 120.312 25.6052 119.44C25.9036 119.016 26.2678 118.643 26.6839 118.334C27.0777 118.04 27.5143 117.809 27.9784 117.648C28.8342 117.34 29.7569 117.267 30.6503 117.438C31.5967 117.623 32.4698 118.077 33.1653 118.745C33.8608 119.413 34.3493 120.267 34.5725 121.205C34.683 121.636 34.7167 122.084 34.672 122.527Z" fill="#455A64"/>
<path d="M47.0861 122.527C47.0366 122.125 46.9665 121.727 46.8759 121.332C46.5886 120.266 45.9516 119.327 45.0669 118.666C44.4188 118.181 43.6599 117.866 42.859 117.749C42.0581 117.632 41.2406 117.717 40.481 117.996C40.0448 118.154 39.6346 118.376 39.264 118.655C38.8727 118.94 38.5292 119.285 38.2461 119.678C37.6386 120.504 37.3109 121.502 37.3109 122.527C37.3109 123.552 37.6386 124.55 38.2461 125.376C38.5291 125.77 38.8726 126.118 39.264 126.405C39.6346 126.684 40.0448 126.906 40.481 127.063C41.1175 127.294 41.795 127.391 42.4707 127.347C43.1464 127.302 43.8056 127.118 44.4066 126.806C45.0076 126.495 45.5373 126.061 45.9624 125.534C46.3874 125.007 46.6985 124.398 46.8759 123.744C46.9668 123.348 47.037 122.947 47.0861 122.544C47.123 122.956 47.0894 123.371 46.9865 123.772C46.7675 124.711 46.2803 125.567 45.584 126.235C44.8877 126.903 44.0123 127.354 43.0644 127.533C42.1715 127.706 41.2487 127.635 40.3925 127.329C39.9293 127.166 39.493 126.934 39.098 126.643C38.6808 126.335 38.3165 125.961 38.0193 125.536C37.3726 124.664 37.0234 123.607 37.0234 122.522C37.0234 121.436 37.3726 120.379 38.0193 119.507C38.3247 119.079 38.6985 118.706 39.1257 118.4C39.5167 118.105 39.9517 117.874 40.4146 117.714C41.2703 117.406 42.1931 117.334 43.0865 117.504C44.0329 117.689 44.906 118.143 45.6015 118.811C46.297 119.479 46.7855 120.333 47.0087 121.271C47.108 121.682 47.1342 122.107 47.0861 122.527Z" fill="#455A64"/>
<path d="M37.2816 121.941C36.8338 121.918 36.3852 121.918 35.9374 121.941C35.5009 122.046 35.0706 122.175 34.6484 122.328C34.9699 121.961 35.4123 121.721 35.8953 121.652C36.3784 121.583 36.8702 121.69 37.2816 121.952V121.941Z" fill="#455A64"/>
<path d="M24.7657 122.158C23.7443 122.55 22.6912 122.853 21.618 123.065C20.5652 123.367 19.4878 123.574 18.3984 123.685C19.4195 123.294 20.4727 122.992 21.5461 122.783C22.5992 122.482 23.6764 122.273 24.7657 122.158Z" fill="#455A64"/>
<path d="M28.5756 126.55C28.174 126.492 27.7935 126.334 27.4692 126.091C26.631 125.543 26.0031 124.728 25.6879 123.778C25.3858 122.824 25.4209 121.795 25.7875 120.863C25.9079 120.47 26.1292 120.115 26.4292 119.834C26.4734 119.862 26.1968 120.238 25.9755 120.94C25.6798 121.834 25.6763 122.798 25.9658 123.693C26.2553 124.588 26.8226 125.368 27.5853 125.919C28.1551 126.367 28.5977 126.5 28.5756 126.55Z" fill="white"/>
<path d="M27.9092 118.622C27.9479 118.688 27.8041 118.854 27.5828 118.993C27.3615 119.131 27.1458 119.192 27.1015 119.125C27.0573 119.059 27.2066 118.887 27.4279 118.749C27.6492 118.611 27.8649 118.578 27.9092 118.622Z" fill="white"/>
<path d="M38.4592 124.734C38.1889 124.447 37.9983 124.094 37.906 123.711C37.6237 122.801 37.6484 121.825 37.9763 120.931C38.3042 120.037 38.9171 119.276 39.7204 118.765C40.0325 118.529 40.4004 118.379 40.7881 118.328C40.7881 118.372 40.3898 118.522 39.8366 118.931C39.1165 119.463 38.5652 120.191 38.2489 121.028C37.9504 121.872 37.8985 122.783 38.0996 123.655C38.26 124.325 38.4592 124.706 38.4592 124.734Z" fill="white"/>
<path d="M40.0257 126.106C40.0257 126.184 39.6716 126.172 39.3674 125.912C39.0631 125.652 39.0023 125.304 39.0742 125.282C39.1461 125.26 39.3065 125.481 39.5555 125.691C39.8044 125.901 40.0478 126.023 40.0257 126.106Z" fill="white"/>
</svg>
