<svg width="125" height="107" viewBox="0 0 125 107" fill="none" xmlns="http://www.w3.org/2000/svg">
<path d="M124.983 61.2235H4.50781L4.16797 0H124.643L124.983 61.2235Z" fill="#71389A"/>
<path opacity="0.7" d="M124.983 61.2235H4.50781L4.16797 0H124.643L124.983 61.2235Z" fill="black"/>
<path d="M122.482 1.87109H5.91504V48.099H122.482V1.87109Z" fill="white"/>
<path opacity="0.5" d="M5.91504 48.0989H122.479L60.7331 60.6913L5.91504 48.0989Z" fill="white"/>
<path d="M54.1684 42.9348L34.8701 17.9654L15.9299 27.0137L15.6689 26.4645L35.0522 17.2068L54.3353 42.158L73.227 32.1175L92.4859 34.906L92.4009 35.5068L73.3363 32.7486L54.1684 42.9348Z" fill="#263238"/>
<path d="M15.8025 28.3482C16.6907 28.3482 17.4107 27.6282 17.4107 26.74C17.4107 25.8518 16.6907 25.1318 15.8025 25.1318C14.9143 25.1318 14.1943 25.8518 14.1943 26.74C14.1943 27.6282 14.9143 28.3482 15.8025 28.3482Z" fill="#71389A"/>
<path d="M36.5718 17.7517C36.5718 18.0698 36.4775 18.3807 36.3008 18.6452C36.1241 18.9097 35.8729 19.1158 35.5791 19.2375C35.2852 19.3592 34.9619 19.3911 34.6499 19.329C34.338 19.267 34.0514 19.1138 33.8265 18.8889C33.6016 18.664 33.4484 18.3774 33.3864 18.0655C33.3243 17.7535 33.3562 17.4302 33.4779 17.1363C33.5996 16.8425 33.8057 16.5913 34.0702 16.4146C34.3347 16.2379 34.6456 16.1436 34.9637 16.1436C35.1749 16.1436 35.384 16.1852 35.5791 16.266C35.7742 16.3468 35.9515 16.4652 36.1008 16.6146C36.2502 16.7639 36.3686 16.9412 36.4494 17.1363C36.5303 17.3314 36.5718 17.5406 36.5718 17.7517Z" fill="#71389A"/>
<path d="M55.7291 42.3633C55.7291 42.6815 55.6347 42.9926 55.4578 43.2571C55.281 43.5216 55.0296 43.7278 54.7356 43.8494C54.4416 43.971 54.1181 44.0027 53.806 43.9404C53.494 43.8781 53.2074 43.7246 52.9827 43.4994C52.7579 43.2742 52.6049 42.9874 52.5432 42.6752C52.4815 42.363 52.5138 42.0396 52.636 41.7458C52.7582 41.452 52.9648 41.201 53.2296 41.0247C53.4945 40.8483 53.8057 40.7545 54.1239 40.7551C54.335 40.7551 54.5439 40.7967 54.7389 40.8776C54.9338 40.9585 55.1109 41.077 55.26 41.2263C55.4091 41.3757 55.5273 41.553 55.6078 41.7481C55.6883 41.9432 55.7295 42.1523 55.7291 42.3633Z" fill="#71389A"/>
<path d="M74.8902 32.7588C74.8902 33.0769 74.7959 33.3878 74.6192 33.6523C74.4425 33.9168 74.1913 34.1229 73.8974 34.2446C73.6036 34.3663 73.2802 34.3982 72.9683 34.3361C72.6563 34.2741 72.3698 34.1209 72.1449 33.896C71.9199 33.6711 71.7668 33.3845 71.7047 33.0726C71.6427 32.7606 71.6745 32.4373 71.7962 32.1434C71.918 31.8495 72.1241 31.5984 72.3886 31.4217C72.653 31.245 72.9639 31.1506 73.282 31.1506C73.4933 31.1502 73.7026 31.1916 73.8979 31.2722C74.0932 31.3529 74.2707 31.4714 74.4201 31.6208C74.5695 31.7702 74.6879 31.9476 74.7686 32.1429C74.8493 32.3382 74.8906 32.5475 74.8902 32.7588Z" fill="#71389A"/>
<path d="M94.0543 35.3675C94.0543 35.6855 93.96 35.9965 93.7832 36.2609C93.6065 36.5254 93.3554 36.7315 93.0615 36.8532C92.7677 36.975 92.4443 37.0068 92.1323 36.9448C91.8204 36.8827 91.5338 36.7295 91.3089 36.5046C91.084 36.2797 90.9308 35.9932 90.8688 35.6812C90.8067 35.3693 90.8386 35.0459 90.9603 34.752C91.082 34.4582 91.2882 34.207 91.5526 34.0303C91.8171 33.8536 92.128 33.7593 92.4461 33.7593C92.6573 33.7593 92.8664 33.8009 93.0615 33.8817C93.2566 33.9625 93.4339 34.081 93.5832 34.2303C93.7326 34.3796 93.851 34.5569 93.9319 34.752C94.0127 34.9472 94.0543 35.1563 94.0543 35.3675Z" fill="#71389A"/>
<path d="M113.212 14.7889C113.212 15.1071 113.118 15.4181 112.941 15.6826C112.764 15.9472 112.513 16.1533 112.219 16.2749C111.925 16.3966 111.601 16.4282 111.289 16.3659C110.977 16.3036 110.691 16.1502 110.466 15.9249C110.241 15.6997 110.088 15.4129 110.027 15.1007C109.965 14.7886 109.997 14.4651 110.119 14.1713C110.242 13.8775 110.448 13.6266 110.713 13.4502C110.978 13.2739 111.289 13.1801 111.607 13.1807C111.818 13.1807 112.027 13.2223 112.222 13.3031C112.417 13.384 112.594 13.5025 112.743 13.6519C112.893 13.8013 113.011 13.9786 113.091 14.1737C113.172 14.3688 113.213 14.5778 113.212 14.7889Z" fill="#71389A"/>
<path d="M107.516 24.4243L106.071 22.9072L92.4443 35.3661L103.401 20.1095L101.957 18.5924L109.789 16.6929L107.516 24.4243Z" fill="#263238"/>
<path d="M13.5675 4.28809C13.9681 4.28809 14.138 4.52476 14.138 4.91012V5.21356C14.138 5.62015 13.9498 5.82042 13.5311 5.82042H13.2823V6.82478H12.9971V4.28809H13.5675ZM13.5432 5.57464C13.7557 5.57464 13.8467 5.47754 13.8467 5.23176V4.89495C13.8467 4.66131 13.7617 4.54601 13.5432 4.54601H13.2702V5.57464H13.5432Z" fill="#71389A"/>
<path d="M14.6121 6.32108L14.515 6.83388H14.251L14.7395 4.28809H15.1522L15.6377 6.83388H15.3555L15.2553 6.32108H14.6121ZM14.6485 6.07834H15.2159L14.9276 4.60669L14.6485 6.07834Z" fill="#71389A"/>
<path d="M16.965 4.8999V4.96969H16.6949V4.88473C16.6949 4.65716 16.61 4.52061 16.3915 4.52061C16.173 4.52061 16.0881 4.65716 16.0881 4.8817C16.0881 5.45215 16.9437 5.50677 16.9437 6.2259C16.9437 6.61126 16.7586 6.86007 16.3703 6.86007C15.9819 6.86007 15.7998 6.61126 15.7998 6.2259V6.08025H16.0638V6.23804C16.0638 6.46865 16.1579 6.60216 16.3672 6.60216C16.5766 6.60216 16.6707 6.46865 16.6707 6.23804C16.6707 5.67062 15.818 5.63117 15.818 4.8999C15.818 4.50847 16.0001 4.2627 16.3824 4.2627C16.7647 4.2627 16.965 4.51454 16.965 4.8999Z" fill="#71389A"/>
<path d="M17.5796 6.83388V4.54601H17.1123V4.28809H18.326V4.54601H17.8618V6.83388H17.5796Z" fill="#71389A"/>
<path d="M61.6279 6.83388H61.373V4.28809H61.7341L62.3258 6.12689V4.28809H62.5777V6.83388H62.2742L61.6219 4.77358L61.6279 6.83388Z" fill="#71389A"/>
<path d="M62.8457 4.90294C62.8457 4.51454 63.0369 4.2627 63.4283 4.2627C63.8197 4.2627 64.0139 4.51454 64.0139 4.90294V6.21983C64.0139 6.60823 63.8197 6.86007 63.4283 6.86007C63.0369 6.86007 62.8457 6.60823 62.8457 6.21983V4.90294ZM63.1249 6.235C63.1249 6.46865 63.225 6.60216 63.4283 6.60216C63.6316 6.60216 63.7317 6.46865 63.7317 6.235V4.88777C63.7317 4.66019 63.6377 4.52061 63.4283 4.52061C63.2189 4.52061 63.1249 4.66019 63.1249 4.88777V6.235Z" fill="#71389A"/>
<path d="M64.9581 6.83388H64.5698L64.2178 4.28809H64.4969L64.8004 6.45459L65.0856 4.29112H65.3587L65.6378 6.46066L65.9413 4.28809H66.1901L65.8442 6.83388H65.4679L65.2252 5.10432L64.9581 6.83388Z" fill="#71389A"/>
<path d="M108.935 5.35634V5.61426H108.35V6.71875H108.064V4.16992H109.078V4.42784H108.35V5.35634H108.935Z" fill="#71389A"/>
<path d="M109.573 6.11796C109.573 6.34553 109.664 6.48511 109.876 6.48511C110.089 6.48511 110.18 6.34553 110.18 6.11796V4.16992H110.444V6.10279C110.444 6.48815 110.265 6.74606 109.873 6.74606C109.482 6.74606 109.306 6.48815 109.306 6.10279V4.16992H109.585L109.573 6.11796Z" fill="#71389A"/>
<path d="M111.083 6.71875V4.42784H110.612V4.16992H111.826V4.42784H111.362V6.71875H111.083Z" fill="#71389A"/>
<path d="M112.296 6.11796C112.296 6.34553 112.387 6.48511 112.6 6.48511C112.812 6.48511 112.903 6.34553 112.903 6.11796V4.16992H113.17V6.10279C113.17 6.48815 112.991 6.74606 112.597 6.74606C112.202 6.74606 112.029 6.48815 112.029 6.10279V4.16992H112.311L112.296 6.11796Z" fill="#71389A"/>
<path d="M114 4.16992C114.4 4.16992 114.567 4.37322 114.567 4.75251V4.95885C114.567 5.24104 114.47 5.41399 114.264 5.48378C114.497 5.55357 114.585 5.7417 114.585 6.01479V6.41229C114.578 6.51583 114.594 6.61973 114.634 6.71572H114.349C114.309 6.61982 114.292 6.51584 114.3 6.41229V6.00872C114.3 5.70529 114.167 5.62943 113.93 5.62943H113.73V6.71875H113.444V4.16992H114ZM113.927 5.38365C114.154 5.38365 114.288 5.31083 114.288 5.0347V4.77679C114.288 4.54921 114.203 4.42784 113.984 4.42784H113.708V5.37151L113.927 5.38365Z" fill="#71389A"/>
<path d="M115.776 5.29869V5.55357H115.169V6.46387H115.931V6.72179H114.884V4.16992H115.931V4.42784H115.154V5.29869H115.776Z" fill="#71389A"/>
<path d="M27.3041 66.9775L9.42285 67.0594L10.3635 55.7171L28.2478 55.6382L27.3041 66.9775Z" fill="#71389A"/>
<path d="M27.0627 67.8665L9.44234 67.9453C9.32549 67.9483 9.20937 67.9261 9.10183 67.8803C8.99429 67.8345 8.89784 67.7661 8.81901 67.6798C8.74018 67.5935 8.68081 67.4913 8.64491 67.38C8.60902 67.2688 8.59743 67.1512 8.61094 67.0351L9.54854 55.7656C9.57224 55.5202 9.68508 55.292 9.8657 55.1243C10.0463 54.9565 10.2822 54.8608 10.5286 54.8553L28.1489 54.7764C28.2658 54.7734 28.3819 54.7956 28.4895 54.8414C28.597 54.8872 28.6934 54.9556 28.7723 55.0419C28.8511 55.1282 28.9105 55.2304 28.9464 55.3417C28.9823 55.4529 28.9939 55.5706 28.9803 55.6867L28.0427 66.9562C28.0184 67.2013 27.9054 67.4291 27.7249 67.5967C27.5444 67.7643 27.3089 67.8603 27.0627 67.8665Z" fill="#71389A"/>
<g opacity="0.7">
<path d="M27.3051 66.9789L9.42383 67.0608L10.3645 55.7185L28.2488 55.6396L27.3051 66.9789Z" fill="#71389A"/>
<path opacity="0.9" d="M26.5013 66.9818L10.383 67.0546C10.261 67.0551 10.1403 67.0301 10.0285 66.9814C9.91672 66.9327 9.81626 66.8613 9.73352 66.7717C9.65078 66.6821 9.58756 66.5763 9.54788 66.461C9.5082 66.3457 9.49293 66.2234 9.50302 66.1019L10.298 56.5164C10.3162 56.2969 10.4161 56.0923 10.5779 55.9428C10.7397 55.7934 10.9517 55.7101 11.1719 55.7093L27.2872 55.6365C27.4091 55.6361 27.5298 55.661 27.6416 55.7097C27.7534 55.7584 27.8539 55.8298 27.9366 55.9194C28.0194 56.009 28.0826 56.1148 28.1223 56.2301C28.162 56.3454 28.1772 56.4677 28.1671 56.5893L27.3721 66.1716C27.3554 66.3914 27.2564 66.5968 27.0951 66.7469C26.9337 66.8971 26.7217 66.9809 26.5013 66.9818Z" fill="white"/>
</g>
<path opacity="0.1" d="M24.3265 54.7823L20.8916 67.8633L22.0659 67.8572L25.4613 54.7793L24.3265 54.7823Z" fill="white"/>
<path opacity="0.1" d="M26.1398 54.7757L22.708 67.8536L25.0384 67.8445L28.4338 54.7666L26.1398 54.7757Z" fill="white"/>
<path d="M21.4723 67.803L27.4196 67.8546C27.4954 68.5464 27.192 68.7952 26.8127 68.7922L5.04447 68.7588C4.93065 68.7588 4.81795 68.7363 4.71283 68.6927C4.60772 68.649 4.51225 68.585 4.43191 68.5044C4.35156 68.4238 4.28793 68.3281 4.24465 68.2228C4.20137 68.1176 4.17929 68.0048 4.17969 67.891L21.4723 67.803Z" fill="#71389A"/>
<path opacity="0.2" d="M27.4361 67.8551C27.512 68.5469 27.2085 68.7958 26.8292 68.7927H19.292C19.7896 68.7927 20.4177 68.3103 20.4177 67.8157L27.4361 67.8551Z" fill="white"/>
<path opacity="0.2" d="M21.4723 67.803L27.4196 67.8546C27.4954 68.5464 27.192 68.7952 26.8127 68.7922L5.04447 68.7588C4.93065 68.7588 4.81795 68.7363 4.71283 68.6927C4.60772 68.649 4.51225 68.585 4.43191 68.5044C4.35156 68.4238 4.28793 68.3281 4.24465 68.2228C4.20137 68.1176 4.17929 68.0048 4.17969 67.891L21.4723 67.803Z" fill="white"/>
<path d="M7.36914 69.8772V106.999H8.33406L9.54779 69.8772H7.36914Z" fill="#71389A"/>
<path d="M18.7588 71.0903V105.481H19.7237L20.9374 71.0903H18.7588Z" fill="#71389A"/>
<path opacity="0.5" d="M18.7588 71.0903V105.481H19.7237L20.9374 71.0903H18.7588Z" fill="black"/>
<path d="M65.2304 69.8772V105.482H64.2655L63.0518 69.8772H65.2304Z" fill="#71389A"/>
<path opacity="0.5" d="M65.2304 69.8772V105.482H64.2655L63.0518 69.8772H65.2304Z" fill="black"/>
<path d="M53.8408 71.0903V106.774H52.8758L51.6621 71.0903H53.8408Z" fill="#71389A"/>
<path d="M71.8952 68.7595H0V70.3161H71.8952V68.7595Z" fill="#71389A"/>
<path d="M67.1679 71.9837H5.09173L2.57324 70.3179H69.6864L67.1679 71.9837Z" fill="#71389A"/>
<path opacity="0.5" d="M67.1679 71.9837H5.09173L2.57324 70.3179H69.6864L67.1679 71.9837Z" fill="black"/>
<path d="M64.5767 68.269H62.9746V68.9032H64.5767V68.269Z" fill="#263238"/>
<path d="M64.474 68.58L52.364 68.4495C50.8742 68.4495 50.3887 65.6367 50.3887 64.5504C50.3887 63.6652 50.7403 62.8162 51.3663 62.1903C51.9922 61.5643 52.8412 61.2126 53.7264 61.2126H65.3631C65.8859 61.2142 66.387 61.4225 66.757 61.7919C67.127 62.1614 67.336 62.6621 67.3384 63.185C67.3384 63.185 67.0926 68.58 64.474 68.58Z" fill="#71389A"/>
<g opacity="0.5">
<g opacity="0.7">
<path d="M64.4779 68.5829L52.3679 68.4524C50.8781 68.4524 50.3926 65.6396 50.3926 64.5533C50.3926 63.6681 50.7442 62.8191 51.3702 62.1932C51.9961 61.5672 52.8451 61.2156 53.7303 61.2156H65.367C65.8898 61.2172 66.3909 61.4254 66.7609 61.7948C67.1309 62.1643 67.3399 62.665 67.3423 63.1879C67.3423 63.1879 67.0965 68.5829 64.4779 68.5829Z" fill="white"/>
</g>
</g>
<path d="M65.6909 61.2465L53.9086 61.2222C52.2532 61.2154 50.6405 61.748 49.3147 62.7394L47.8916 63.7953C47.8211 63.8487 47.7693 63.923 47.7436 64.0077C47.7179 64.0923 47.7197 64.1828 47.7487 64.2664C47.7777 64.3499 47.8323 64.4222 47.9049 64.4727C47.9774 64.5233 48.0641 64.5496 48.1525 64.5479L59.956 64.2444L65.6909 61.2465Z" fill="#71389A"/>
<path opacity="0.5" d="M65.688 61.2464L54.1576 61.2222C52.2672 61.2222 50.6985 61.6015 49.0994 62.8971L47.5185 64.0987C47.4722 64.1334 47.4381 64.1819 47.4212 64.2372C47.4042 64.2925 47.4053 64.3518 47.4242 64.4065C47.4431 64.4612 47.4788 64.5084 47.5263 64.5414C47.5738 64.5745 47.6306 64.5916 47.6884 64.5903L59.7559 64.3748L65.688 61.2464Z" fill="white"/>
<path d="M49.7906 68.269H48.1885V68.9032H49.7906V68.269Z" fill="#263238"/>
<path d="M60.442 68.269H58.8398V68.9032H60.442V68.269Z" fill="#263238"/>
<path d="M54.2574 68.269H52.6553V68.9032H54.2574V68.269Z" fill="#263238"/>
<path d="M59.6514 68.5831H48.8613C48.2084 68.5815 47.5826 68.3214 47.1209 67.8597C46.6592 67.398 46.3991 66.7722 46.3975 66.1193C46.3999 65.4668 46.6603 64.8419 47.122 64.3808C47.5836 63.9197 48.2089 63.66 48.8613 63.6584H59.6514C60.3035 63.66 60.9285 63.9198 61.3897 64.381C61.8508 64.8421 62.1106 65.4671 62.1122 66.1193C62.1106 66.7717 61.8509 67.397 61.3899 67.8587C60.9288 68.3203 60.3038 68.5807 59.6514 68.5831Z" fill="#71389A"/>
<mask id="mask0_51_5315" style="mask-type:luminance" maskUnits="userSpaceOnUse" x="49" y="64" width="10" height="4">
<path d="M57.4179 67.783H51.1035C50.7207 67.7822 50.3538 67.6297 50.0831 67.359C49.8124 67.0883 49.66 66.7214 49.6592 66.3386C49.66 65.9558 49.8124 65.5889 50.0831 65.3182C50.3538 65.0475 50.7207 64.8951 51.1035 64.8943H57.424C57.8068 64.8951 58.1737 65.0475 58.4444 65.3182C58.7151 65.5889 58.8675 65.9558 58.8683 66.3386C58.8679 66.5287 58.8301 66.7168 58.757 66.8923C58.6839 67.0677 58.577 67.2271 58.4423 67.3612C58.3076 67.4953 58.1478 67.6016 57.9721 67.674C57.7963 67.7463 57.608 67.7834 57.4179 67.783Z" fill="white"/>
</mask>
<g mask="url(#mask0_51_5315)">
<path d="M59.6888 65.1838H49.2021V65.5965H59.6888V65.1838Z" fill="#263238"/>
<path d="M59.6888 65.832H49.2021V66.2447H59.6888V65.832Z" fill="#263238"/>
<path d="M59.6888 66.4739H49.2021V66.8865H59.6888V66.4739Z" fill="#263238"/>
<path d="M59.6888 67.1221H49.2021V67.5347H59.6888V67.1221Z" fill="#263238"/>
</g>
<path d="M62.8468 61.1815L62.78 61.2483L60.838 62.1222C58.9598 62.993 57.9342 62.905 58.2528 62.1222C58.2528 62.1222 58.5896 58.9968 60.662 58.9968C61.2412 58.9976 61.7964 59.2281 62.206 59.6376C62.6155 60.0471 62.846 60.6024 62.8468 61.1815Z" fill="#71389A"/>
<g opacity="0.7">
<path d="M62.8468 61.182L62.78 61.2488L60.838 62.1227C58.9598 62.9935 57.9342 62.9055 58.2528 62.1227C58.2528 62.1227 58.5896 58.9973 60.662 58.9973C61.2412 58.9981 61.7964 59.2286 62.206 59.6381C62.6155 60.0476 62.846 60.6029 62.8468 61.182Z" fill="white"/>
</g>
</svg>
