<svg width="261" height="254" viewBox="0 0 261 254" fill="none" xmlns="http://www.w3.org/2000/svg">
<path d="M52.0688 108.481L51.6172 107.929C53.4715 106.417 55.4365 105.046 57.4958 103.828L57.8614 104.452C55.8326 105.648 53.8964 106.995 52.0688 108.481Z" fill="#71389A"/>
<path d="M37.3386 128.969L36.6719 128.718C39.1339 122.168 42.9636 116.217 47.9057 111.262L48.4147 111.771C43.5448 116.653 39.7692 122.516 37.3386 128.969Z" fill="#71389A"/>
<path d="M176.231 160.564C176.177 154.34 174.603 148.224 171.646 142.748C168.69 137.272 164.44 132.601 159.266 129.142C154.093 125.682 148.152 123.54 141.962 122.9C135.771 122.26 129.518 123.143 123.746 125.471C119.549 116.87 112.781 109.787 104.38 105.202C95.9797 100.616 86.3613 98.7559 76.8567 99.8781C67.3521 101 58.4314 105.049 51.3294 111.465C44.2274 117.88 39.2955 126.345 37.2163 135.687C26.9123 136.337 17.2664 140.974 10.323 148.615C3.3796 156.256 -0.315413 166.3 0.0211272 176.619C0.357667 186.938 4.6993 196.721 12.1258 203.893C19.5523 211.065 29.4799 215.064 39.8043 215.041H166.208C172.798 215.05 179.182 212.747 184.249 208.534C189.316 204.32 192.745 198.463 193.939 191.983C195.133 185.502 194.016 178.807 190.783 173.065C187.55 167.323 182.405 162.896 176.245 160.556L176.231 160.564Z" fill="#71389A"/>
<path d="M147.798 147.731H46.6432C45.8199 147.727 45.0314 147.398 44.4499 146.815C43.8684 146.232 43.5409 145.443 43.5391 144.62C43.541 143.797 43.8686 143.009 44.4503 142.427C45.0321 141.845 45.8205 141.518 46.6432 141.516H147.798C148.621 141.518 149.409 141.845 149.991 142.427C150.573 143.009 150.9 143.797 150.902 144.62C150.9 145.443 150.573 146.232 149.991 146.815C149.41 147.398 148.621 147.727 147.798 147.731Z" fill="#263238"/>
<path d="M132.542 189.741H61.899C59.1307 189.741 56.4757 188.642 54.5182 186.684C52.5607 184.727 51.4609 182.072 51.4609 179.303C51.4609 176.535 52.5607 173.88 54.5182 171.922C56.4757 169.965 59.1307 168.865 61.899 168.865H132.542C135.311 168.865 137.966 169.965 139.923 171.922C141.881 173.88 142.981 176.535 142.981 179.303C142.981 182.072 141.881 184.727 139.923 186.684C137.966 188.642 135.311 189.741 132.542 189.741ZM61.899 169.582C59.3208 169.582 56.8482 170.606 55.0251 172.429C53.202 174.252 52.1778 176.725 52.1778 179.303C52.1778 181.882 53.202 184.354 55.0251 186.177C56.8482 188 59.3208 189.024 61.899 189.024H132.542C135.121 189.024 137.593 188 139.416 186.177C141.239 184.354 142.264 181.882 142.264 179.303C142.264 176.725 141.239 174.252 139.416 172.429C137.593 170.606 135.121 169.582 132.542 169.582H61.899Z" fill="white"/>
<path d="M78.4066 187.232H61.9179C59.8111 187.234 57.7896 186.401 56.2965 184.914C54.8034 183.428 53.9607 181.41 53.9531 179.303C53.9588 177.201 54.7958 175.187 56.2813 173.7C57.7668 172.214 59.7803 171.375 61.882 171.367H78.3708C80.4726 171.375 82.486 172.214 83.9715 173.7C85.4571 175.187 86.294 177.201 86.2997 179.303C86.2922 181.398 85.4594 183.405 83.9818 184.889C82.5042 186.373 80.5009 187.215 78.4066 187.232Z" fill="white"/>
<path d="M150.692 87.4678L137.278 144.619H57.2578L79.6395 49.2355L135.049 62.2329L150.692 87.4678Z" fill="#71389A"/>
<path opacity="0.8" d="M150.692 87.4678L137.278 144.619H57.2578L79.6395 49.2355L135.049 62.2329L150.692 87.4678Z" fill="#FAFAFA"/>
<path d="M140.245 98.0927L79.4657 83.8264C79.2579 83.7783 79.0616 83.6896 78.8882 83.5655C78.7147 83.4414 78.5675 83.2842 78.4549 83.103C78.3424 82.9219 78.2667 82.7202 78.2322 82.5098C78.1978 82.2993 78.2052 82.084 78.2541 81.8764C78.3514 81.4564 78.6114 81.0922 78.977 80.8637C79.3426 80.6352 79.7839 80.5611 80.2041 80.6577L140.99 94.9025C141.409 95.003 141.772 95.2651 141.999 95.6317C142.226 95.9982 142.299 96.4396 142.202 96.8597C142.104 97.2819 141.844 97.6484 141.477 97.8794C141.111 98.1104 140.667 98.1871 140.245 98.0927Z" fill="#71389A"/>
<path d="M137.932 107.986L77.1533 93.7195C76.9452 93.6706 76.7488 93.5812 76.5753 93.4563C76.4018 93.3315 76.2546 93.1737 76.1421 92.9919C76.0296 92.8102 75.954 92.608 75.9196 92.3971C75.8852 92.1861 75.8928 91.9704 75.9418 91.7624C76.0423 91.3431 76.3043 90.9806 76.6709 90.7537C77.0375 90.5267 77.4788 90.4538 77.8989 90.5508L138.678 104.817C139.096 104.916 139.459 105.177 139.686 105.542C139.913 105.907 139.986 106.348 139.889 106.767C139.79 107.188 139.529 107.552 139.162 107.78C138.795 108.009 138.353 108.083 137.932 107.986Z" fill="#71389A"/>
<path d="M135.603 117.843L74.8238 103.584C74.4045 103.484 74.042 103.222 73.8151 102.855C73.5881 102.489 73.5152 102.047 73.6122 101.627C73.7144 101.209 73.9768 100.848 74.3429 100.621C74.709 100.394 75.1494 100.321 75.5693 100.416L136.348 114.675C136.556 114.724 136.753 114.813 136.926 114.938C137.1 115.063 137.247 115.221 137.359 115.402C137.472 115.584 137.548 115.786 137.582 115.997C137.616 116.208 137.609 116.424 137.56 116.632C137.511 116.84 137.421 117.036 137.297 117.21C137.172 117.383 137.014 117.531 136.832 117.643C136.65 117.756 136.448 117.831 136.237 117.866C136.026 117.9 135.811 117.892 135.603 117.843Z" fill="#71389A"/>
<path d="M133.288 127.765L72.5021 113.542C72.0838 113.44 71.7224 113.177 71.4958 112.811C71.2692 112.445 71.1955 112.005 71.2905 111.585C71.391 111.165 71.6531 110.803 72.0196 110.576C72.3862 110.349 72.8276 110.276 73.2476 110.373L134.026 124.632C134.446 124.733 134.809 124.995 135.037 125.361C135.265 125.727 135.34 126.168 135.245 126.589C135.139 127.003 134.874 127.358 134.507 127.578C134.141 127.798 133.703 127.865 133.288 127.765Z" fill="#71389A"/>
<path d="M106.801 131.989L70.1887 123.386C69.7738 123.281 69.417 123.016 69.1956 122.65C68.9742 122.284 68.906 121.845 69.0058 121.429C69.0539 121.221 69.1426 121.025 69.2668 120.851C69.3909 120.678 69.548 120.531 69.7292 120.418C69.9104 120.305 70.112 120.23 70.3225 120.195C70.533 120.161 70.7482 120.168 70.9558 120.217L107.575 128.82C107.783 128.869 107.98 128.958 108.153 129.083C108.327 129.208 108.474 129.366 108.586 129.548C108.699 129.729 108.774 129.931 108.809 130.142C108.843 130.353 108.836 130.569 108.787 130.777C108.738 130.988 108.648 131.187 108.521 131.363C108.394 131.539 108.234 131.688 108.049 131.8C107.864 131.913 107.658 131.988 107.444 132.02C107.229 132.053 107.011 132.042 106.801 131.989Z" fill="#71389A"/>
<path d="M150.689 87.4684L130.25 82.6724L135.046 62.2335L150.689 87.4684Z" fill="#71389A"/>
<path d="M164.42 141.737L147.43 253.509H150.785L153.029 238.72H196.315L194.071 253.509H197.426L214.417 141.737H164.42ZM196.767 235.759H153.48L155.896 219.901H199.183L196.767 235.759ZM199.634 216.94H156.341L158.757 201.082H202.043L199.634 216.94ZM202.502 198.122H159.201L161.617 182.264H204.904L202.502 198.122ZM205.37 179.303H162.069L164.478 163.438H207.764L205.37 179.303ZM164.929 160.477L167.338 144.619H210.625L208.216 160.477H164.929Z" fill="#263238"/>
<path d="M221.411 141.737H171.414L188.405 253.509H191.76L189.509 238.72H232.795L235.046 253.509H238.401L221.411 141.737ZM175.206 144.605H218.493L220.902 160.463H177.615L175.206 144.605ZM178.074 163.424H221.353L223.762 179.289H180.476L178.074 163.424ZM180.942 182.249H224.228L226.623 198.136H183.336L180.942 182.249ZM183.809 201.068H227.096L229.505 216.926H186.197L183.809 201.068ZM189.079 235.745L186.67 219.887H229.956L232.365 235.745H189.079Z" fill="#263238"/>
<path opacity="0.4" d="M221.411 141.737H171.414L188.405 253.509H191.76L189.509 238.72H232.795L235.046 253.509H238.401L221.411 141.737ZM175.206 144.605H218.493L220.902 160.463H177.615L175.206 144.605ZM178.074 163.424H221.353L223.762 179.289H180.476L178.074 163.424ZM180.942 182.249H224.228L226.623 198.136H183.336L180.942 182.249ZM183.809 201.068H227.096L229.505 216.926H186.197L183.809 201.068ZM189.079 235.745L186.67 219.887H229.956L232.365 235.745H189.079Z" fill="white"/>
<path d="M199.99 32.9473C201.424 34.0513 202.686 35.1553 203.991 36.3024C205.295 37.4494 206.543 38.6251 207.776 39.8367C210.278 42.2893 212.615 44.9045 214.773 47.6652L215.576 48.7478L215.977 49.2854C216.204 49.6025 216.408 49.9355 216.587 50.2819C217.163 51.4404 217.5 52.7036 217.576 53.9955C217.68 55.9866 217.474 57.9818 216.966 59.9099C216.09 63.3702 214.755 66.6976 212.995 69.8032L209.332 68.312C210.064 65.2184 210.584 62.0781 210.887 58.9134C211.023 57.5492 210.98 56.1729 210.758 54.8199C210.694 54.4337 210.55 54.065 210.335 53.7374C210.299 53.7016 210.285 53.7016 210.263 53.68L209.876 53.2427L209.102 52.3609C206.951 50.0382 204.686 47.7728 202.292 45.5934C199.897 43.414 197.417 41.2203 195.008 39.1843L199.99 32.9473Z" fill="#F9C0AB"/>
<path d="M210.786 66.8359L206.664 69.7035L211.682 72.7432C211.682 72.7432 214.27 70.2699 213.159 67.9758L210.786 66.8359Z" fill="#F9C0AB"/>
<path d="M204.609 74.4135L208.409 76.5427L211.707 72.7073L206.66 69.6748L204.609 74.4135Z" fill="#F9C0AB"/>
<path d="M171.919 17.9645C172.034 18.4305 171.883 18.8678 171.582 18.9467C171.281 19.0255 170.937 18.7101 170.815 18.2298C170.693 17.7495 170.851 17.3265 171.152 17.2476C171.453 17.1688 171.797 17.477 171.919 17.9645Z" fill="#263238"/>
<path d="M171.924 18.8604C171.735 20.4185 171.332 21.9431 170.727 23.3912C171.102 23.5358 171.503 23.5973 171.904 23.5713C172.306 23.5453 172.696 23.4324 173.049 23.2406L171.924 18.8604Z" fill="#263238"/>
<path d="M172.903 14.9749C172.847 14.993 172.787 14.993 172.731 14.9749C172.406 14.8368 172.053 14.7772 171.7 14.8009C171.348 14.8246 171.006 14.9308 170.702 15.1111C170.642 15.1438 170.572 15.1533 170.506 15.138C170.439 15.1227 170.381 15.0836 170.341 15.028C170.301 14.9725 170.283 14.9044 170.291 14.8365C170.298 14.7686 170.329 14.7056 170.38 14.6595C170.758 14.4217 171.188 14.2787 171.634 14.2425C172.079 14.2063 172.527 14.278 172.939 14.4516C172.994 14.4736 173.04 14.5124 173.072 14.5623C173.103 14.6123 173.118 14.671 173.114 14.7298C173.11 14.7887 173.087 14.8448 173.049 14.8901C173.012 14.9355 172.96 14.9676 172.903 14.9821V14.9749Z" fill="#263238"/>
<path d="M186.614 19.2695C187.281 23.6426 188.22 30.3457 192.063 32.0375C192.063 32.0375 192.436 36.5827 184.844 39.3141C176.499 42.3179 179.366 36.6114 179.366 36.6114C183.532 33.88 182.198 30.5464 180.263 27.6573L186.614 19.2695Z" fill="#F9C0AB"/>
<path d="M192.789 31.0978C192.789 29.7286 191.391 27.3556 189.979 27.5133C188.423 27.6926 182.487 29.8791 180.322 31.8793C178.157 33.8794 179.691 37.3851 179.691 37.3851L192.789 31.0978Z" fill="#263238"/>
<path d="M238.559 196.845C238.186 197.232 237.763 197.562 237.433 197.512C237.29 197.512 237.104 197.411 237.01 197.096C236.985 197.016 236.978 196.932 236.989 196.849C237.001 196.766 237.03 196.686 237.075 196.616C237.476 195.934 239.226 195.583 239.276 195.569C239.3 195.564 239.325 195.566 239.348 195.575C239.371 195.584 239.39 195.599 239.405 195.619C239.417 195.64 239.423 195.663 239.423 195.687C239.423 195.711 239.417 195.735 239.405 195.755C239.161 196.147 238.878 196.512 238.559 196.845ZM237.383 196.623C237.344 196.658 237.31 196.699 237.283 196.745C237.258 196.786 237.242 196.832 237.236 196.881C237.23 196.929 237.233 196.978 237.247 197.024C237.319 197.246 237.426 197.261 237.462 197.268C237.828 197.311 238.58 196.551 239.032 195.884C238.434 196.003 237.87 196.255 237.383 196.623Z" fill="#71389A"/>
<path d="M239.385 195.778C239.372 195.794 239.354 195.806 239.335 195.814C238.74 196 237.184 195.95 236.833 195.463C236.782 195.385 236.759 195.293 236.767 195.201C236.775 195.108 236.813 195.022 236.876 194.954C236.933 194.876 237.006 194.811 237.09 194.764C237.174 194.717 237.267 194.689 237.363 194.681C238.145 194.588 239.328 195.556 239.378 195.599C239.395 195.612 239.407 195.63 239.415 195.65C239.422 195.67 239.425 195.692 239.421 195.713C239.415 195.738 239.403 195.76 239.385 195.778ZM237.113 195.061C237.113 195.061 237.113 195.061 237.077 195.104C236.976 195.233 237.019 195.291 237.041 195.319C237.242 195.606 238.338 195.735 239.012 195.627C238.558 195.229 237.993 194.979 237.392 194.911C237.338 194.915 237.285 194.93 237.237 194.956C237.188 194.982 237.146 195.018 237.113 195.061Z" fill="#71389A"/>
<path d="M195.18 211.828C194.506 211.828 193.854 211.735 193.632 211.434C193.576 211.354 193.547 211.259 193.547 211.162C193.547 211.064 193.576 210.969 193.632 210.889C193.674 210.816 193.731 210.752 193.799 210.702C193.866 210.651 193.944 210.615 194.026 210.595C194.901 210.359 196.743 211.405 196.822 211.456C196.843 211.467 196.86 211.485 196.87 211.507C196.881 211.529 196.884 211.554 196.879 211.577C196.876 211.604 196.865 211.629 196.847 211.648C196.829 211.667 196.805 211.68 196.779 211.685C196.251 211.778 195.716 211.826 195.18 211.828ZM194.349 210.81C194.268 210.799 194.186 210.799 194.105 210.81C194.054 210.82 194.007 210.841 193.965 210.87C193.923 210.9 193.887 210.938 193.861 210.982C193.775 211.14 193.804 211.212 193.861 211.262C194.105 211.599 195.431 211.606 196.413 211.47C195.776 211.12 195.078 210.896 194.356 210.81H194.349Z" fill="#71389A"/>
<path d="M196.784 211.686C196.768 211.692 196.75 211.692 196.734 211.686C196.096 211.407 194.841 210.252 194.935 209.672C194.935 209.528 195.056 209.356 195.401 209.32C195.528 209.305 195.658 209.316 195.782 209.353C195.905 209.39 196.019 209.452 196.117 209.535C196.6 210.107 196.886 210.818 196.935 211.564C196.938 211.586 196.934 211.608 196.926 211.629C196.917 211.649 196.903 211.666 196.885 211.679C196.869 211.687 196.852 211.692 196.835 211.693C196.818 211.695 196.8 211.692 196.784 211.686ZM195.501 209.535H195.422C195.2 209.535 195.186 209.643 195.178 209.672C195.121 210.03 195.981 210.926 196.612 211.313C196.55 210.711 196.299 210.144 195.895 209.693C195.783 209.604 195.644 209.553 195.501 209.55V209.535Z" fill="#71389A"/>
<path d="M202.574 211.564H197.305L196.781 199.362H202.05L202.574 211.564Z" fill="#F9C0AB"/>
<path d="M244.78 193.698L239.905 195.469L233.711 184.543L238.586 182.772L244.78 193.698Z" fill="#F9C0AB"/>
<path d="M239.135 194.989L243.25 190.73C243.323 190.657 243.418 190.61 243.521 190.597C243.624 190.584 243.727 190.606 243.816 190.658L247.903 193.168C248.002 193.229 248.085 193.313 248.147 193.411C248.209 193.51 248.248 193.621 248.261 193.737C248.275 193.853 248.261 193.97 248.223 194.08C248.184 194.19 248.121 194.29 248.039 194.372C246.605 195.806 245.795 196.473 243.988 198.344C242.87 199.491 239.558 203.362 238.024 204.982C236.49 206.602 234.712 205.255 235.199 204.466C237.386 200.932 238.705 197.569 238.784 195.827C238.793 195.514 238.918 195.215 239.135 194.989Z" fill="#263238"/>
<path d="M197.336 210.954H203.071C203.176 210.953 203.278 210.989 203.36 211.054C203.443 211.119 203.5 211.21 203.523 211.313L204.562 215.994C204.589 216.107 204.589 216.225 204.563 216.338C204.536 216.451 204.485 216.557 204.411 216.647C204.338 216.737 204.245 216.809 204.139 216.857C204.034 216.906 203.919 216.929 203.802 216.926C201.731 216.926 198.734 216.776 196.124 216.776C193.078 216.776 191.744 216.94 188.167 216.94C186.016 216.94 185.407 214.754 186.31 214.553C190.432 213.65 192.49 213.557 196.053 211.363C196.434 211.11 196.879 210.969 197.336 210.954Z" fill="#263238"/>
<path d="M183.034 43.4065C182.224 45.4497 181.364 47.3494 180.475 49.2994C179.586 51.2494 178.64 53.142 177.665 55.0346C175.689 58.9286 173.424 62.6694 170.89 66.2255C170.223 67.1287 169.506 68.0249 168.739 68.9138C168.345 69.3655 167.943 69.7813 167.47 70.2473C166.923 70.7644 166.325 71.2255 165.685 71.6237C164.632 72.268 163.524 72.8174 162.373 73.2654C161.298 73.7027 160.222 74.0612 159.169 74.3766C155.015 75.5814 150.753 76.3738 146.444 76.7424L145.641 72.8711C149.476 71.4875 153.376 70.0465 156.968 68.4407C157.857 68.0249 158.731 67.6019 159.549 67.1646C160.304 66.7721 161.024 66.3139 161.699 65.7953C161.932 65.6199 162.146 65.4205 162.337 65.2003C162.588 64.9064 162.889 64.5622 163.162 64.211C163.714 63.4941 164.259 62.7341 164.782 61.924C165.85 60.3325 166.839 58.6048 167.793 56.8484C168.746 55.092 169.678 53.2639 170.567 51.4716C172.352 47.8369 174.08 44.0732 175.672 40.3955L183.034 43.4065Z" fill="#F9C0AB"/>
<path d="M195.06 29.8007C202.617 29.2128 209.398 40.418 209.398 40.418L203.971 49.2359C200.067 47.6923 196.436 45.5307 193.218 42.8339C188.078 38.3676 189.899 30.2093 195.06 29.8007Z" fill="#71389A"/>
<path opacity="0.3" d="M194.586 39.2432L202.536 49.9465L202.178 50.3838C202.178 50.3838 199.439 48.2331 196.271 45.1218L194.586 39.2432Z" fill="black"/>
<path d="M174.099 38.1525C173.676 41.8446 179.834 58.1756 181.268 77.5463L209.306 74.7862C209.105 71.0726 207.055 55.4299 203.341 37.7726C202.316 32.8977 198.538 29.1698 193.656 30.1232H193.52C189.599 30.8887 185.726 31.8821 181.92 33.0984C179.767 33.8823 177.669 34.8091 175.64 35.8728C175.216 36.0967 174.853 36.4219 174.584 36.8195C174.315 37.2172 174.148 37.6751 174.099 38.1525Z" fill="#71389A"/>
<path opacity="0.3" d="M176.938 51.716C177.411 53.6875 177.905 55.8239 178.371 58.0964C182.637 57.0856 181.812 47.6297 181.898 47.5078L176.938 51.716Z" fill="black"/>
<path d="M183.236 39.9809C185.387 47.3578 177.429 57.1865 177.429 57.1865L169.414 52.0248C169.414 52.0248 169.357 45.2644 171.916 39.9881C175.164 33.3065 181.702 34.7188 183.236 39.9809Z" fill="#71389A"/>
<path d="M145.719 72.1688L142.5 71.7314L142.55 78.456C142.55 78.456 146.887 78.9005 149.296 75.911L148.823 74.6492C148.577 73.9943 148.159 73.4179 147.613 72.9813C147.066 72.5446 146.412 72.2639 145.719 72.1688Z" fill="#F9C0AB"/>
<path d="M137 73.2871L139.058 78.7643L142.577 78.456L142.527 71.7314L137 73.2871Z" fill="#F9C0AB"/>
<path opacity="0.2" d="M196.781 199.369L197.075 206.223H202.344L202.05 199.369H196.781Z" fill="black"/>
<path opacity="0.2" d="M238.586 182.772L233.711 184.543L237.138 190.594L241.783 188.4L238.586 182.772Z" fill="black"/>
<path d="M187.129 13.0175C188.24 18.8029 189.187 22.1293 187.057 25.7927C183.86 31.2985 176.16 30.4884 173.35 25.1546C170.812 20.3442 169.422 11.6984 174.397 8.00636C175.494 7.18141 176.783 6.65128 178.143 6.4666C179.503 6.28192 180.887 6.44884 182.164 6.95142C183.441 7.454 184.568 8.27547 185.437 9.33743C186.306 10.3994 186.889 11.6664 187.129 13.0175Z" fill="#F9C0AB"/>
<path d="M177.38 16.8825C173.853 18.6461 173.796 13.0112 174.075 11.814C172.749 13.0901 170.957 14.3733 167.702 12.9682C163.702 11.2405 164.835 6.72399 167.702 6.78135C167.702 6.78135 165.551 2.69501 170.254 2.26487C172.19 2.20044 174.12 2.49704 175.946 3.13949C175.946 3.13949 177.689 -1.42717 181.933 0.788052C184.176 1.9566 185.969 5.41206 185.969 5.41206C185.969 5.41206 195.109 6.76701 190.148 11.5416C191.274 13.9934 190.679 21.9725 187.775 25.3849C186.506 26.8761 175.645 26.4388 177.38 16.8825Z" fill="#263238"/>
<path d="M184.383 7.74104C184.383 7.74104 186.039 5.45413 186.175 0.177734C190.039 4.37878 184.383 7.74104 184.383 7.74104Z" fill="#263238"/>
<path d="M179.094 16.5588C179.187 18.021 178.794 19.4729 177.975 20.6882C176.9 22.2869 175.437 21.5986 174.964 19.9139C174.534 18.4013 174.577 15.7416 176.032 14.7379C177.488 13.7342 178.943 14.7953 179.094 16.5588Z" fill="#F9C0AB"/>
<path d="M191.227 76.5709C191.227 76.5709 201.12 116 205.866 130.718C211.056 146.806 233.581 188.981 233.581 188.981L242.42 185.131C242.42 185.131 225.373 146.734 221.731 130.647C217.781 113.212 209.321 74.7715 209.321 74.7715L191.227 76.5709Z" fill="#263238"/>
<path d="M230.961 186.071C230.925 186.071 233.829 190.222 233.829 190.222L243.758 185.834L241.751 181.727L230.961 186.071Z" fill="#71389A"/>
<path opacity="0.3" d="M196.394 90.472C203.405 91.1387 205.197 116.861 205.67 130.138C202.767 121.005 198.1 103.348 194.859 90.8089C195.318 90.5268 195.859 90.408 196.394 90.472Z" fill="black"/>
<path d="M181.281 77.5459C181.281 77.5459 182.421 118.065 184.565 133.995C186.794 150.562 195.039 203.534 195.039 203.534H203.964C203.964 203.534 201.899 150.039 200.688 133.672C199.369 115.828 199.713 75.7178 199.713 75.7178L181.281 77.5459Z" fill="#263238"/>
<path d="M193.259 199.369C193.223 199.369 193.976 204.767 193.976 204.767L204.823 204.395L204.923 199.376L193.259 199.369Z" fill="#71389A"/>
</svg>
